<svg width="100%" height="100%" viewBox="0 0 277 55" fill="none" xmlns="http://www.w3.org/2000/svg">
<mask id="path-1-outside-1_134_63910" maskUnits="userSpaceOnUse" x="12" y="7" width="252" height="45" fill="black">
<rect fill="white" x="12" y="7" width="252" height="45"/>
<path d="M17.16 40C16.8933 40 16.76 39.8667 16.76 39.6V12.4C16.76 12.1333 16.8933 12 17.16 12H26.6C29.24 12 31.3333 12.6933 32.88 14.08C34.4533 15.4667 35.24 17.3467 35.24 19.72V32.28C35.24 34.6533 34.4533 36.5333 32.88 37.92C31.3333 39.3067 29.24 40 26.6 40H17.16ZM19.6 37.36C19.6 37.4667 19.6533 37.52 19.76 37.52H26.72C28.4533 37.52 29.8267 37.0133 30.84 36C31.88 34.9867 32.4 33.6267 32.4 31.92V20.12C32.4 18.3867 31.8933 17.0133 30.88 16C29.8667 14.9867 28.48 14.48 26.72 14.48H19.76C19.6533 14.48 19.6 14.5333 19.6 14.64V37.36ZM48.6466 40.32C46.7266 40.32 45.0732 39.8267 43.6866 38.84C42.2999 37.8533 41.3399 36.4933 40.8066 34.76C40.4332 33.5333 40.2466 31.8933 40.2466 29.84C40.2466 27.7867 40.4332 26.16 40.8066 24.96C41.3132 23.2533 42.2599 21.9067 43.6466 20.92C45.0332 19.9333 46.7132 19.44 48.6866 19.44C50.5799 19.44 52.2066 19.9333 53.5666 20.92C54.9532 21.9067 55.8999 23.24 56.4066 24.92C56.7799 26.0667 56.9666 27.7067 56.9666 29.84C56.9666 32 56.7799 33.64 56.4066 34.76C55.8999 36.4933 54.9532 37.8533 53.5666 38.84C52.2066 39.8267 50.5666 40.32 48.6466 40.32ZM48.6466 37.84C49.9266 37.84 51.0199 37.4933 51.9266 36.8C52.8332 36.08 53.4466 35.12 53.7666 33.92C54.0066 32.96 54.1266 31.6133 54.1266 29.88C54.1266 28.12 54.0199 26.7733 53.8066 25.84C53.4866 24.64 52.8599 23.6933 51.9266 23C51.0199 22.28 49.9132 21.92 48.6066 21.92C47.2999 21.92 46.1932 22.28 45.2866 23C44.3799 23.6933 43.7666 24.64 43.4466 25.84C43.2332 26.7733 43.1266 28.12 43.1266 29.88C43.1266 31.64 43.2332 32.9867 43.4466 33.92C43.7399 35.12 44.3399 36.08 45.2466 36.8C46.1799 37.4933 47.3132 37.84 48.6466 37.84ZM74.9634 20.16C74.9634 19.8933 75.0968 19.76 75.3634 19.76H77.4034C77.6701 19.76 77.8034 19.8933 77.8034 20.16V39.6C77.8034 39.8667 77.6701 40 77.4034 40H75.3634C75.0968 40 74.9634 39.8667 74.9634 39.6V37.88C74.9634 37.8267 74.9368 37.7867 74.8834 37.76C74.8301 37.7333 74.7901 37.7467 74.7634 37.8C73.6434 39.4533 71.8701 40.28 69.4434 40.28C68.1634 40.28 66.9768 40.0267 65.8834 39.52C64.8168 38.9867 63.9634 38.2267 63.3234 37.24C62.7101 36.2533 62.4034 35.0667 62.4034 33.68V20.16C62.4034 19.8933 62.5368 19.76 62.8034 19.76H64.8434C65.1101 19.76 65.2434 19.8933 65.2434 20.16V32.84C65.2434 34.36 65.6701 35.5733 66.5234 36.48C67.3768 37.36 68.5368 37.8 70.0034 37.8C71.5234 37.8 72.7234 37.3467 73.6034 36.44C74.5101 35.5333 74.9634 34.3333 74.9634 32.84V20.16ZM99.7288 24.92C100.049 26.12 100.209 27.7733 100.209 29.88C100.209 32.0667 100.022 33.76 99.6488 34.96C99.1421 36.6133 98.2621 37.92 97.0088 38.88C95.7554 39.84 94.1954 40.32 92.3288 40.32C91.2621 40.32 90.2888 40.1067 89.4088 39.68C88.5288 39.2533 87.7954 38.64 87.2088 37.84C87.1821 37.7867 87.1421 37.7733 87.0888 37.8C87.0354 37.8 87.0088 37.8267 87.0088 37.88V39.6C87.0088 39.8667 86.8754 40 86.6088 40H84.5688C84.3021 40 84.1688 39.8667 84.1688 39.6V12.4C84.1688 12.1333 84.3021 12 84.5688 12H86.6088C86.8754 12 87.0088 12.1333 87.0088 12.4V21.84C87.0088 21.8933 87.0221 21.9333 87.0488 21.96C87.1021 21.96 87.1554 21.9333 87.2088 21.88C87.7954 21.1067 88.5288 20.5067 89.4088 20.08C90.2888 19.6533 91.2621 19.44 92.3288 19.44C94.2221 19.44 95.8088 19.9333 97.0888 20.92C98.3688 21.88 99.2488 23.2133 99.7288 24.92ZM96.6488 34.72C96.9154 34.16 97.1021 33.5333 97.2088 32.84C97.3154 32.12 97.3688 31.1333 97.3688 29.88C97.3688 28.5733 97.2888 27.56 97.1288 26.84C96.9954 26.0933 96.7688 25.4267 96.4488 24.84C96.1021 23.96 95.5421 23.2533 94.7688 22.72C93.9954 22.1867 93.0754 21.92 92.0088 21.92C90.9954 21.92 90.1154 22.2 89.3688 22.76C88.6488 23.2933 88.1288 24.0133 87.8088 24.92C87.5421 25.48 87.3421 26.12 87.2088 26.84C87.1021 27.56 87.0488 28.5733 87.0488 29.88C87.0488 31.16 87.1021 32.16 87.2088 32.88C87.3421 33.5733 87.5288 34.2 87.7688 34.76C88.1154 35.6933 88.6488 36.44 89.3688 37C90.0888 37.56 90.9821 37.84 92.0488 37.84C93.1688 37.84 94.1288 37.56 94.9288 37C95.7554 36.44 96.3288 35.68 96.6488 34.72ZM106.405 40C106.138 40 106.005 39.8667 106.005 39.6V12.4C106.005 12.1333 106.138 12 106.405 12H108.445C108.711 12 108.845 12.1333 108.845 12.4V39.6C108.845 39.8667 108.711 40 108.445 40H106.405ZM117.143 16.08C116.503 16.08 115.97 15.8667 115.543 15.44C115.117 15.0133 114.903 14.48 114.903 13.84C114.903 13.1733 115.117 12.64 115.543 12.24C115.97 11.8133 116.503 11.6 117.143 11.6C117.783 11.6 118.317 11.8133 118.743 12.24C119.17 12.64 119.383 13.1733 119.383 13.84C119.383 14.48 119.17 15.0133 118.743 15.44C118.317 15.8667 117.783 16.08 117.143 16.08ZM116.023 39.96C115.757 39.96 115.623 39.8267 115.623 39.56V20.12C115.623 19.8533 115.757 19.72 116.023 19.72H118.063C118.33 19.72 118.463 19.8533 118.463 20.12V39.56C118.463 39.8267 118.33 39.96 118.063 39.96H116.023ZM133.819 19.48C135.952 19.48 137.645 20.1067 138.899 21.36C140.179 22.6133 140.819 24.2933 140.819 26.4V39.6C140.819 39.8667 140.685 40 140.419 40H138.379C138.112 40 137.979 39.8667 137.979 39.6V26.96C137.979 25.4933 137.525 24.2933 136.619 23.36C135.739 22.4267 134.592 21.96 133.179 21.96C131.712 21.96 130.525 22.4133 129.619 23.32C128.712 24.2267 128.259 25.4133 128.259 26.88V39.6C128.259 39.8667 128.125 40 127.859 40H125.819C125.552 40 125.419 39.8667 125.419 39.6V20.16C125.419 19.8933 125.552 19.76 125.819 19.76H127.859C128.125 19.76 128.259 19.8933 128.259 20.16V21.88C128.259 21.9333 128.272 21.9733 128.299 22C128.352 22.0267 128.392 22.0133 128.419 21.96C129.592 20.3067 131.392 19.48 133.819 19.48ZM159.461 20.16C159.461 19.8933 159.595 19.76 159.861 19.76H161.901C162.168 19.76 162.301 19.8933 162.301 20.16V39.32C162.301 42.3067 161.435 44.4933 159.701 45.88C157.995 47.2667 155.635 47.96 152.621 47.96C152.008 47.96 151.541 47.9467 151.221 47.92C150.955 47.8933 150.821 47.7467 150.821 47.48L150.901 45.64C150.901 45.5067 150.941 45.4 151.021 45.32C151.101 45.2667 151.195 45.2533 151.301 45.28L152.381 45.32C154.861 45.32 156.661 44.8267 157.781 43.84C158.901 42.88 159.461 41.3467 159.461 39.24V37.76C159.461 37.7067 159.435 37.68 159.381 37.68C159.355 37.6533 159.315 37.6667 159.261 37.72C158.035 39.32 156.288 40.12 154.021 40.12C152.288 40.12 150.741 39.6533 149.381 38.72C148.048 37.7867 147.155 36.4667 146.701 34.76C146.381 33.6667 146.221 32.04 146.221 29.88C146.221 28.7067 146.248 27.72 146.301 26.92C146.381 26.12 146.528 25.4 146.741 24.76C147.221 23.16 148.088 21.88 149.341 20.92C150.595 19.9333 152.101 19.44 153.861 19.44C156.235 19.44 158.035 20.2267 159.261 21.8C159.315 21.8533 159.355 21.8667 159.381 21.84C159.435 21.8133 159.461 21.7733 159.461 21.72V20.16ZM159.261 33.88C159.341 33.48 159.395 32.9867 159.421 32.4C159.448 31.8133 159.461 30.96 159.461 29.84C159.461 28.48 159.448 27.5733 159.421 27.12C159.395 26.64 159.328 26.2 159.221 25.8C159.008 24.68 158.475 23.76 157.621 23.04C156.795 22.2933 155.741 21.92 154.461 21.92C153.208 21.92 152.141 22.28 151.261 23C150.408 23.72 149.808 24.6533 149.461 25.8C149.195 26.6533 149.061 27.9867 149.061 29.8C149.061 31.7467 149.195 33.0933 149.461 33.84C149.728 34.96 150.301 35.8933 151.181 36.64C152.088 37.36 153.181 37.72 154.461 37.72C155.768 37.72 156.835 37.36 157.661 36.64C158.515 35.92 159.048 35 159.261 33.88ZM185.475 40.36C183.609 40.36 181.969 40 180.555 39.28C179.142 38.5333 178.035 37.4933 177.235 36.16C176.462 34.8 176.075 33.24 176.075 31.48V20.48C176.075 18.7467 176.462 17.2133 177.235 15.88C178.035 14.5467 179.142 13.52 180.555 12.8C181.969 12.0533 183.609 11.68 185.475 11.68C187.342 11.68 188.982 12.04 190.395 12.76C191.809 13.48 192.902 14.4933 193.675 15.8C194.475 17.1067 194.875 18.6133 194.875 20.32C194.875 20.4533 194.835 20.56 194.755 20.64C194.675 20.72 194.582 20.76 194.475 20.76L192.435 20.88C192.169 20.88 192.035 20.76 192.035 20.52V20.4C192.035 18.5067 191.435 17 190.235 15.88C189.035 14.7333 187.449 14.16 185.475 14.16C183.502 14.16 181.915 14.7333 180.715 15.88C179.515 17.0267 178.915 18.5333 178.915 20.4V31.6C178.915 33.4667 179.515 34.9733 180.715 36.12C181.915 37.2667 183.502 37.84 185.475 37.84C187.449 37.84 189.035 37.28 190.235 36.16C191.435 35.0133 192.035 33.4933 192.035 31.6V31.52C192.035 31.28 192.169 31.16 192.435 31.16L194.475 31.28C194.742 31.28 194.875 31.4 194.875 31.64C194.875 33.3733 194.475 34.9067 193.675 36.24C192.902 37.5467 191.809 38.56 190.395 39.28C188.982 40 187.342 40.36 185.475 40.36ZM212.932 20.16C212.932 19.8933 213.066 19.76 213.332 19.76H215.372C215.639 19.76 215.772 19.8933 215.772 20.16V39.6C215.772 39.8667 215.639 40 215.372 40H213.332C213.066 40 212.932 39.8667 212.932 39.6V37.88C212.932 37.8267 212.906 37.7867 212.852 37.76C212.799 37.7333 212.759 37.7467 212.732 37.8C211.612 39.4533 209.839 40.28 207.412 40.28C206.132 40.28 204.946 40.0267 203.852 39.52C202.786 38.9867 201.932 38.2267 201.292 37.24C200.679 36.2533 200.372 35.0667 200.372 33.68V20.16C200.372 19.8933 200.506 19.76 200.772 19.76H202.812C203.079 19.76 203.212 19.8933 203.212 20.16V32.84C203.212 34.36 203.639 35.5733 204.492 36.48C205.346 37.36 206.506 37.8 207.972 37.8C209.492 37.8 210.692 37.3467 211.572 36.44C212.479 35.5333 212.932 34.3333 212.932 32.84V20.16ZM237.698 24.92C238.018 26.12 238.178 27.7733 238.178 29.88C238.178 32.0667 237.991 33.76 237.618 34.96C237.111 36.6133 236.231 37.92 234.978 38.88C233.724 39.84 232.164 40.32 230.298 40.32C229.231 40.32 228.258 40.1067 227.378 39.68C226.498 39.2533 225.764 38.64 225.178 37.84C225.151 37.7867 225.111 37.7733 225.058 37.8C225.004 37.8 224.978 37.8267 224.978 37.88V39.6C224.978 39.8667 224.844 40 224.578 40H222.538C222.271 40 222.138 39.8667 222.138 39.6V12.4C222.138 12.1333 222.271 12 222.538 12H224.578C224.844 12 224.978 12.1333 224.978 12.4V21.84C224.978 21.8933 224.991 21.9333 225.018 21.96C225.071 21.96 225.124 21.9333 225.178 21.88C225.764 21.1067 226.498 20.5067 227.378 20.08C228.258 19.6533 229.231 19.44 230.298 19.44C232.191 19.44 233.778 19.9333 235.058 20.92C236.338 21.88 237.218 23.2133 237.698 24.92ZM234.618 34.72C234.884 34.16 235.071 33.5333 235.178 32.84C235.284 32.12 235.338 31.1333 235.338 29.88C235.338 28.5733 235.258 27.56 235.098 26.84C234.964 26.0933 234.738 25.4267 234.418 24.84C234.071 23.96 233.511 23.2533 232.738 22.72C231.964 22.1867 231.044 21.92 229.978 21.92C228.964 21.92 228.084 22.2 227.338 22.76C226.618 23.2933 226.098 24.0133 225.778 24.92C225.511 25.48 225.311 26.12 225.178 26.84C225.071 27.56 225.018 28.5733 225.018 29.88C225.018 31.16 225.071 32.16 225.178 32.88C225.311 33.5733 225.498 34.2 225.738 34.76C226.084 35.6933 226.618 36.44 227.338 37C228.058 37.56 228.951 37.84 230.018 37.84C231.138 37.84 232.098 37.56 232.898 37C233.724 36.44 234.298 35.68 234.618 34.72ZM259.22 26.48C259.327 27.2267 259.38 28.16 259.38 29.28V30.56C259.38 30.8267 259.247 30.96 258.98 30.96H246.06C245.953 30.96 245.9 31.0133 245.9 31.12C245.953 32.5867 246.033 33.5333 246.14 33.96C246.433 35.16 247.06 36.1067 248.02 36.8C248.98 37.4933 250.207 37.84 251.7 37.84C252.82 37.84 253.807 37.5867 254.66 37.08C255.513 36.5733 256.18 35.8533 256.66 34.92C256.82 34.68 257.007 34.6267 257.22 34.76L258.78 35.68C258.993 35.8133 259.047 36 258.94 36.24C258.273 37.52 257.273 38.5333 255.94 39.28C254.607 40 253.073 40.36 251.34 40.36C249.447 40.3333 247.86 39.88 246.58 39C245.3 38.12 244.38 36.8933 243.82 35.32C243.34 34.04 243.1 32.2 243.1 29.8C243.1 28.68 243.113 27.7733 243.14 27.08C243.193 26.36 243.3 25.72 243.46 25.16C243.913 23.4267 244.82 22.04 246.18 21C247.567 19.96 249.233 19.44 251.18 19.44C253.607 19.44 255.473 20.0533 256.78 21.28C258.087 22.5067 258.9 24.24 259.22 26.48ZM251.18 21.92C249.873 21.92 248.78 22.2667 247.9 22.96C247.047 23.6267 246.487 24.5333 246.22 25.68C246.06 26.24 245.953 27.1467 245.9 28.4C245.9 28.5067 245.953 28.56 246.06 28.56H256.42C256.527 28.56 256.58 28.5067 256.58 28.4C256.527 27.2 256.447 26.3467 256.34 25.84C256.047 24.64 255.447 23.6933 254.54 23C253.66 22.28 252.54 21.92 251.18 21.92Z"/>
</mask>
<path d="M17.16 40C16.8933 40 16.76 39.8667 16.76 39.6V12.4C16.76 12.1333 16.8933 12 17.16 12H26.6C29.24 12 31.3333 12.6933 32.88 14.08C34.4533 15.4667 35.24 17.3467 35.24 19.72V32.28C35.24 34.6533 34.4533 36.5333 32.88 37.92C31.3333 39.3067 29.24 40 26.6 40H17.16ZM19.6 37.36C19.6 37.4667 19.6533 37.52 19.76 37.52H26.72C28.4533 37.52 29.8267 37.0133 30.84 36C31.88 34.9867 32.4 33.6267 32.4 31.92V20.12C32.4 18.3867 31.8933 17.0133 30.88 16C29.8667 14.9867 28.48 14.48 26.72 14.48H19.76C19.6533 14.48 19.6 14.5333 19.6 14.64V37.36ZM48.6466 40.32C46.7266 40.32 45.0732 39.8267 43.6866 38.84C42.2999 37.8533 41.3399 36.4933 40.8066 34.76C40.4332 33.5333 40.2466 31.8933 40.2466 29.84C40.2466 27.7867 40.4332 26.16 40.8066 24.96C41.3132 23.2533 42.2599 21.9067 43.6466 20.92C45.0332 19.9333 46.7132 19.44 48.6866 19.44C50.5799 19.44 52.2066 19.9333 53.5666 20.92C54.9532 21.9067 55.8999 23.24 56.4066 24.92C56.7799 26.0667 56.9666 27.7067 56.9666 29.84C56.9666 32 56.7799 33.64 56.4066 34.76C55.8999 36.4933 54.9532 37.8533 53.5666 38.84C52.2066 39.8267 50.5666 40.32 48.6466 40.32ZM48.6466 37.84C49.9266 37.84 51.0199 37.4933 51.9266 36.8C52.8332 36.08 53.4466 35.12 53.7666 33.92C54.0066 32.96 54.1266 31.6133 54.1266 29.88C54.1266 28.12 54.0199 26.7733 53.8066 25.84C53.4866 24.64 52.8599 23.6933 51.9266 23C51.0199 22.28 49.9132 21.92 48.6066 21.92C47.2999 21.92 46.1932 22.28 45.2866 23C44.3799 23.6933 43.7666 24.64 43.4466 25.84C43.2332 26.7733 43.1266 28.12 43.1266 29.88C43.1266 31.64 43.2332 32.9867 43.4466 33.92C43.7399 35.12 44.3399 36.08 45.2466 36.8C46.1799 37.4933 47.3132 37.84 48.6466 37.84ZM74.9634 20.16C74.9634 19.8933 75.0968 19.76 75.3634 19.76H77.4034C77.6701 19.76 77.8034 19.8933 77.8034 20.16V39.6C77.8034 39.8667 77.6701 40 77.4034 40H75.3634C75.0968 40 74.9634 39.8667 74.9634 39.6V37.88C74.9634 37.8267 74.9368 37.7867 74.8834 37.76C74.8301 37.7333 74.7901 37.7467 74.7634 37.8C73.6434 39.4533 71.8701 40.28 69.4434 40.28C68.1634 40.28 66.9768 40.0267 65.8834 39.52C64.8168 38.9867 63.9634 38.2267 63.3234 37.24C62.7101 36.2533 62.4034 35.0667 62.4034 33.68V20.16C62.4034 19.8933 62.5368 19.76 62.8034 19.76H64.8434C65.1101 19.76 65.2434 19.8933 65.2434 20.16V32.84C65.2434 34.36 65.6701 35.5733 66.5234 36.48C67.3768 37.36 68.5368 37.8 70.0034 37.8C71.5234 37.8 72.7234 37.3467 73.6034 36.44C74.5101 35.5333 74.9634 34.3333 74.9634 32.84V20.16ZM99.7288 24.92C100.049 26.12 100.209 27.7733 100.209 29.88C100.209 32.0667 100.022 33.76 99.6488 34.96C99.1421 36.6133 98.2621 37.92 97.0088 38.88C95.7554 39.84 94.1954 40.32 92.3288 40.32C91.2621 40.32 90.2888 40.1067 89.4088 39.68C88.5288 39.2533 87.7954 38.64 87.2088 37.84C87.1821 37.7867 87.1421 37.7733 87.0888 37.8C87.0354 37.8 87.0088 37.8267 87.0088 37.88V39.6C87.0088 39.8667 86.8754 40 86.6088 40H84.5688C84.3021 40 84.1688 39.8667 84.1688 39.6V12.4C84.1688 12.1333 84.3021 12 84.5688 12H86.6088C86.8754 12 87.0088 12.1333 87.0088 12.4V21.84C87.0088 21.8933 87.0221 21.9333 87.0488 21.96C87.1021 21.96 87.1554 21.9333 87.2088 21.88C87.7954 21.1067 88.5288 20.5067 89.4088 20.08C90.2888 19.6533 91.2621 19.44 92.3288 19.44C94.2221 19.44 95.8088 19.9333 97.0888 20.92C98.3688 21.88 99.2488 23.2133 99.7288 24.92ZM96.6488 34.72C96.9154 34.16 97.1021 33.5333 97.2088 32.84C97.3154 32.12 97.3688 31.1333 97.3688 29.88C97.3688 28.5733 97.2888 27.56 97.1288 26.84C96.9954 26.0933 96.7688 25.4267 96.4488 24.84C96.1021 23.96 95.5421 23.2533 94.7688 22.72C93.9954 22.1867 93.0754 21.92 92.0088 21.92C90.9954 21.92 90.1154 22.2 89.3688 22.76C88.6488 23.2933 88.1288 24.0133 87.8088 24.92C87.5421 25.48 87.3421 26.12 87.2088 26.84C87.1021 27.56 87.0488 28.5733 87.0488 29.88C87.0488 31.16 87.1021 32.16 87.2088 32.88C87.3421 33.5733 87.5288 34.2 87.7688 34.76C88.1154 35.6933 88.6488 36.44 89.3688 37C90.0888 37.56 90.9821 37.84 92.0488 37.84C93.1688 37.84 94.1288 37.56 94.9288 37C95.7554 36.44 96.3288 35.68 96.6488 34.72ZM106.405 40C106.138 40 106.005 39.8667 106.005 39.6V12.4C106.005 12.1333 106.138 12 106.405 12H108.445C108.711 12 108.845 12.1333 108.845 12.4V39.6C108.845 39.8667 108.711 40 108.445 40H106.405ZM117.143 16.08C116.503 16.08 115.97 15.8667 115.543 15.44C115.117 15.0133 114.903 14.48 114.903 13.84C114.903 13.1733 115.117 12.64 115.543 12.24C115.97 11.8133 116.503 11.6 117.143 11.6C117.783 11.6 118.317 11.8133 118.743 12.24C119.17 12.64 119.383 13.1733 119.383 13.84C119.383 14.48 119.17 15.0133 118.743 15.44C118.317 15.8667 117.783 16.08 117.143 16.08ZM116.023 39.96C115.757 39.96 115.623 39.8267 115.623 39.56V20.12C115.623 19.8533 115.757 19.72 116.023 19.72H118.063C118.33 19.72 118.463 19.8533 118.463 20.12V39.56C118.463 39.8267 118.33 39.96 118.063 39.96H116.023ZM133.819 19.48C135.952 19.48 137.645 20.1067 138.899 21.36C140.179 22.6133 140.819 24.2933 140.819 26.4V39.6C140.819 39.8667 140.685 40 140.419 40H138.379C138.112 40 137.979 39.8667 137.979 39.6V26.96C137.979 25.4933 137.525 24.2933 136.619 23.36C135.739 22.4267 134.592 21.96 133.179 21.96C131.712 21.96 130.525 22.4133 129.619 23.32C128.712 24.2267 128.259 25.4133 128.259 26.88V39.6C128.259 39.8667 128.125 40 127.859 40H125.819C125.552 40 125.419 39.8667 125.419 39.6V20.16C125.419 19.8933 125.552 19.76 125.819 19.76H127.859C128.125 19.76 128.259 19.8933 128.259 20.16V21.88C128.259 21.9333 128.272 21.9733 128.299 22C128.352 22.0267 128.392 22.0133 128.419 21.96C129.592 20.3067 131.392 19.48 133.819 19.48ZM159.461 20.16C159.461 19.8933 159.595 19.76 159.861 19.76H161.901C162.168 19.76 162.301 19.8933 162.301 20.16V39.32C162.301 42.3067 161.435 44.4933 159.701 45.88C157.995 47.2667 155.635 47.96 152.621 47.96C152.008 47.96 151.541 47.9467 151.221 47.92C150.955 47.8933 150.821 47.7467 150.821 47.48L150.901 45.64C150.901 45.5067 150.941 45.4 151.021 45.32C151.101 45.2667 151.195 45.2533 151.301 45.28L152.381 45.32C154.861 45.32 156.661 44.8267 157.781 43.84C158.901 42.88 159.461 41.3467 159.461 39.24V37.76C159.461 37.7067 159.435 37.68 159.381 37.68C159.355 37.6533 159.315 37.6667 159.261 37.72C158.035 39.32 156.288 40.12 154.021 40.12C152.288 40.12 150.741 39.6533 149.381 38.72C148.048 37.7867 147.155 36.4667 146.701 34.76C146.381 33.6667 146.221 32.04 146.221 29.88C146.221 28.7067 146.248 27.72 146.301 26.92C146.381 26.12 146.528 25.4 146.741 24.76C147.221 23.16 148.088 21.88 149.341 20.92C150.595 19.9333 152.101 19.44 153.861 19.44C156.235 19.44 158.035 20.2267 159.261 21.8C159.315 21.8533 159.355 21.8667 159.381 21.84C159.435 21.8133 159.461 21.7733 159.461 21.72V20.16ZM159.261 33.88C159.341 33.48 159.395 32.9867 159.421 32.4C159.448 31.8133 159.461 30.96 159.461 29.84C159.461 28.48 159.448 27.5733 159.421 27.12C159.395 26.64 159.328 26.2 159.221 25.8C159.008 24.68 158.475 23.76 157.621 23.04C156.795 22.2933 155.741 21.92 154.461 21.92C153.208 21.92 152.141 22.28 151.261 23C150.408 23.72 149.808 24.6533 149.461 25.8C149.195 26.6533 149.061 27.9867 149.061 29.8C149.061 31.7467 149.195 33.0933 149.461 33.84C149.728 34.96 150.301 35.8933 151.181 36.64C152.088 37.36 153.181 37.72 154.461 37.72C155.768 37.72 156.835 37.36 157.661 36.64C158.515 35.92 159.048 35 159.261 33.88ZM185.475 40.36C183.609 40.36 181.969 40 180.555 39.28C179.142 38.5333 178.035 37.4933 177.235 36.16C176.462 34.8 176.075 33.24 176.075 31.48V20.48C176.075 18.7467 176.462 17.2133 177.235 15.88C178.035 14.5467 179.142 13.52 180.555 12.8C181.969 12.0533 183.609 11.68 185.475 11.68C187.342 11.68 188.982 12.04 190.395 12.76C191.809 13.48 192.902 14.4933 193.675 15.8C194.475 17.1067 194.875 18.6133 194.875 20.32C194.875 20.4533 194.835 20.56 194.755 20.64C194.675 20.72 194.582 20.76 194.475 20.76L192.435 20.88C192.169 20.88 192.035 20.76 192.035 20.52V20.4C192.035 18.5067 191.435 17 190.235 15.88C189.035 14.7333 187.449 14.16 185.475 14.16C183.502 14.16 181.915 14.7333 180.715 15.88C179.515 17.0267 178.915 18.5333 178.915 20.4V31.6C178.915 33.4667 179.515 34.9733 180.715 36.12C181.915 37.2667 183.502 37.84 185.475 37.84C187.449 37.84 189.035 37.28 190.235 36.16C191.435 35.0133 192.035 33.4933 192.035 31.6V31.52C192.035 31.28 192.169 31.16 192.435 31.16L194.475 31.28C194.742 31.28 194.875 31.4 194.875 31.64C194.875 33.3733 194.475 34.9067 193.675 36.24C192.902 37.5467 191.809 38.56 190.395 39.28C188.982 40 187.342 40.36 185.475 40.36ZM212.932 20.16C212.932 19.8933 213.066 19.76 213.332 19.76H215.372C215.639 19.76 215.772 19.8933 215.772 20.16V39.6C215.772 39.8667 215.639 40 215.372 40H213.332C213.066 40 212.932 39.8667 212.932 39.6V37.88C212.932 37.8267 212.906 37.7867 212.852 37.76C212.799 37.7333 212.759 37.7467 212.732 37.8C211.612 39.4533 209.839 40.28 207.412 40.28C206.132 40.28 204.946 40.0267 203.852 39.52C202.786 38.9867 201.932 38.2267 201.292 37.24C200.679 36.2533 200.372 35.0667 200.372 33.68V20.16C200.372 19.8933 200.506 19.76 200.772 19.76H202.812C203.079 19.76 203.212 19.8933 203.212 20.16V32.84C203.212 34.36 203.639 35.5733 204.492 36.48C205.346 37.36 206.506 37.8 207.972 37.8C209.492 37.8 210.692 37.3467 211.572 36.44C212.479 35.5333 212.932 34.3333 212.932 32.84V20.16ZM237.698 24.92C238.018 26.12 238.178 27.7733 238.178 29.88C238.178 32.0667 237.991 33.76 237.618 34.96C237.111 36.6133 236.231 37.92 234.978 38.88C233.724 39.84 232.164 40.32 230.298 40.32C229.231 40.32 228.258 40.1067 227.378 39.68C226.498 39.2533 225.764 38.64 225.178 37.84C225.151 37.7867 225.111 37.7733 225.058 37.8C225.004 37.8 224.978 37.8267 224.978 37.88V39.6C224.978 39.8667 224.844 40 224.578 40H222.538C222.271 40 222.138 39.8667 222.138 39.6V12.4C222.138 12.1333 222.271 12 222.538 12H224.578C224.844 12 224.978 12.1333 224.978 12.4V21.84C224.978 21.8933 224.991 21.9333 225.018 21.96C225.071 21.96 225.124 21.9333 225.178 21.88C225.764 21.1067 226.498 20.5067 227.378 20.08C228.258 19.6533 229.231 19.44 230.298 19.44C232.191 19.44 233.778 19.9333 235.058 20.92C236.338 21.88 237.218 23.2133 237.698 24.92ZM234.618 34.72C234.884 34.16 235.071 33.5333 235.178 32.84C235.284 32.12 235.338 31.1333 235.338 29.88C235.338 28.5733 235.258 27.56 235.098 26.84C234.964 26.0933 234.738 25.4267 234.418 24.84C234.071 23.96 233.511 23.2533 232.738 22.72C231.964 22.1867 231.044 21.92 229.978 21.92C228.964 21.92 228.084 22.2 227.338 22.76C226.618 23.2933 226.098 24.0133 225.778 24.92C225.511 25.48 225.311 26.12 225.178 26.84C225.071 27.56 225.018 28.5733 225.018 29.88C225.018 31.16 225.071 32.16 225.178 32.88C225.311 33.5733 225.498 34.2 225.738 34.76C226.084 35.6933 226.618 36.44 227.338 37C228.058 37.56 228.951 37.84 230.018 37.84C231.138 37.84 232.098 37.56 232.898 37C233.724 36.44 234.298 35.68 234.618 34.72ZM259.22 26.48C259.327 27.2267 259.38 28.16 259.38 29.28V30.56C259.38 30.8267 259.247 30.96 258.98 30.96H246.06C245.953 30.96 245.9 31.0133 245.9 31.12C245.953 32.5867 246.033 33.5333 246.14 33.96C246.433 35.16 247.06 36.1067 248.02 36.8C248.98 37.4933 250.207 37.84 251.7 37.84C252.82 37.84 253.807 37.5867 254.66 37.08C255.513 36.5733 256.18 35.8533 256.66 34.92C256.82 34.68 257.007 34.6267 257.22 34.76L258.78 35.68C258.993 35.8133 259.047 36 258.94 36.24C258.273 37.52 257.273 38.5333 255.94 39.28C254.607 40 253.073 40.36 251.34 40.36C249.447 40.3333 247.86 39.88 246.58 39C245.3 38.12 244.38 36.8933 243.82 35.32C243.34 34.04 243.1 32.2 243.1 29.8C243.1 28.68 243.113 27.7733 243.14 27.08C243.193 26.36 243.3 25.72 243.46 25.16C243.913 23.4267 244.82 22.04 246.18 21C247.567 19.96 249.233 19.44 251.18 19.44C253.607 19.44 255.473 20.0533 256.78 21.28C258.087 22.5067 258.9 24.24 259.22 26.48ZM251.18 21.92C249.873 21.92 248.78 22.2667 247.9 22.96C247.047 23.6267 246.487 24.5333 246.22 25.68C246.06 26.24 245.953 27.1467 245.9 28.4C245.9 28.5067 245.953 28.56 246.06 28.56H256.42C256.527 28.56 256.58 28.5067 256.58 28.4C256.527 27.2 256.447 26.3467 256.34 25.84C256.047 24.64 255.447 23.6933 254.54 23C253.66 22.28 252.54 21.92 251.18 21.92Z" fill="url(#paint0_linear_134_63910)"/>
<path d="M32.88 14.08L30.2098 17.0583L30.2225 17.0696L30.2352 17.0808L32.88 14.08ZM32.88 37.92L30.2352 34.9192L30.2225 34.9304L30.2098 34.9417L32.88 37.92ZM30.84 36L28.0485 33.1351L28.0299 33.1532L28.0116 33.1716L30.84 36ZM30.88 16L33.7084 13.1716L33.7084 13.1716L30.88 16ZM17.16 36C17.6432 36 18.7404 36.1235 19.6884 37.0716C20.6365 38.0196 20.76 39.1168 20.76 39.6H12.76C12.76 40.3499 12.9502 41.647 14.0316 42.7284C15.113 43.8098 16.4101 44 17.16 44V36ZM20.76 39.6V12.4H12.76V39.6H20.76ZM20.76 12.4C20.76 12.8832 20.6365 13.9804 19.6884 14.9284C18.7404 15.8765 17.6432 16 17.16 16V8C16.4101 8 15.113 8.19018 14.0316 9.27157C12.9502 10.353 12.76 11.6501 12.76 12.4H20.76ZM17.16 16H26.6V8H17.16V16ZM26.6 16C28.5304 16 29.5793 16.493 30.2098 17.0583L35.5502 11.1017C33.0874 8.89371 29.9496 8 26.6 8V16ZM30.2352 17.0808C30.8283 17.6036 31.24 18.3269 31.24 19.72H39.24C39.24 16.3664 38.0783 13.3297 35.5248 11.0792L30.2352 17.0808ZM31.24 19.72V32.28H39.24V19.72H31.24ZM31.24 32.28C31.24 33.6731 30.8283 34.3964 30.2352 34.9192L35.5248 40.9208C38.0783 38.6703 39.24 35.6336 39.24 32.28H31.24ZM30.2098 34.9417C29.5793 35.507 28.5304 36 26.6 36V44C29.9496 44 33.0874 43.1063 35.5502 40.8983L30.2098 34.9417ZM26.6 36H17.16V44H26.6V36ZM15.6 37.36C15.6 38.0299 15.7702 39.267 16.8116 40.3084C17.853 41.3498 19.0901 41.52 19.76 41.52V33.52C20.3232 33.52 21.4804 33.6635 22.4684 34.6516C23.4565 35.6396 23.6 36.7968 23.6 37.36H15.6ZM19.76 41.52H26.72V33.52H19.76V41.52ZM26.72 41.52C29.2769 41.52 31.7523 40.7445 33.6684 38.8284L28.0116 33.1716C27.901 33.2821 27.6298 33.52 26.72 33.52V41.52ZM33.6315 38.8649C35.5794 36.9669 36.4 34.5009 36.4 31.92H28.4C28.4 32.7524 28.1806 33.0064 28.0485 33.1351L33.6315 38.8649ZM36.4 31.92V20.12H28.4V31.92H36.4ZM36.4 20.12C36.4 17.5631 35.6245 15.0877 33.7084 13.1716L28.0516 18.8284C28.1621 18.939 28.4 19.2102 28.4 20.12H36.4ZM33.7084 13.1716C31.7808 11.244 29.2837 10.48 26.72 10.48V18.48C27.6763 18.48 27.9525 18.7293 28.0516 18.8284L33.7084 13.1716ZM26.72 10.48H19.76V18.48H26.72V10.48ZM19.76 10.48C19.0901 10.48 17.853 10.6502 16.8116 11.6916C15.7702 12.733 15.6 13.9701 15.6 14.64H23.6C23.6 15.2032 23.4565 16.3604 22.4684 17.3484C21.4804 18.3365 20.3232 18.48 19.76 18.48V10.48ZM15.6 14.64V37.36H23.6V14.64H15.6ZM43.6866 38.84L46.0056 35.5808L46.0056 35.5808L43.6866 38.84ZM40.8066 34.76L36.9798 35.9247L36.9834 35.9363L40.8066 34.76ZM40.8066 24.96L44.626 26.1483L44.6337 26.1234L44.6412 26.0984L40.8066 24.96ZM43.6466 20.92L41.3275 17.6608L41.3275 17.6608L43.6466 20.92ZM53.5666 20.92L51.2177 24.1577L51.2325 24.1685L51.2475 24.1792L53.5666 20.92ZM56.4066 24.92L52.5769 26.075L52.5896 26.1168L52.6031 26.1583L56.4066 24.92ZM56.4066 34.76L52.6118 33.4951L52.5882 33.566L52.5672 33.6377L56.4066 34.76ZM53.5666 38.84L51.2475 35.5808L51.2325 35.5915L51.2177 35.6023L53.5666 38.84ZM51.9266 36.8L54.3564 39.9774L54.3854 39.9552L54.4141 39.9324L51.9266 36.8ZM53.7666 33.92L57.6315 34.9506L57.6396 34.9205L57.6471 34.8901L53.7666 33.92ZM53.8066 25.84L57.706 24.9487L57.69 24.8787L57.6715 24.8094L53.8066 25.84ZM51.9266 23L49.439 26.1324L49.4895 26.1725L49.5413 26.211L51.9266 23ZM45.2866 23L47.7164 26.1774L47.7454 26.1552L47.7741 26.1324L45.2866 23ZM43.4466 25.84L39.5816 24.8094L39.5631 24.8787L39.5471 24.9487L43.4466 25.84ZM43.4466 33.92L39.5471 34.8113L39.5538 34.8406L39.561 34.8698L43.4466 33.92ZM45.2466 36.8L42.759 39.9324L42.8095 39.9725L42.8613 40.011L45.2466 36.8ZM48.6466 36.32C47.4468 36.32 46.6299 36.025 46.0056 35.5808L41.3675 42.0992C43.5166 43.6283 46.0063 44.32 48.6466 44.32V36.32ZM46.0056 35.5808C45.3843 35.1388 44.9224 34.5351 44.6297 33.5837L36.9834 35.9363C37.7574 38.4516 39.2155 40.5679 41.3675 42.0992L46.0056 35.5808ZM44.6333 33.5954C44.4226 32.9031 44.2466 31.7055 44.2466 29.84H36.2466C36.2466 32.0812 36.4439 34.1636 36.9799 35.9246L44.6333 33.5954ZM44.2466 29.84C44.2466 27.9687 44.4239 26.7979 44.626 26.1483L36.9871 23.7717C36.4426 25.5221 36.2466 27.6046 36.2466 29.84H44.2466ZM44.6412 26.0984C44.9062 25.2056 45.342 24.6229 45.9656 24.1792L41.3275 17.6608C39.1778 19.1905 37.7203 21.3011 36.972 23.8216L44.6412 26.0984ZM45.9656 24.1792C46.5713 23.7481 47.4075 23.44 48.6866 23.44V15.44C46.019 15.44 43.4951 16.1185 41.3275 17.6608L45.9656 24.1792ZM48.6866 23.44C49.8479 23.44 50.6258 23.7283 51.2177 24.1577L55.9155 17.6823C53.7873 16.1383 51.3119 15.44 48.6866 15.44V23.44ZM51.2475 24.1792C51.8874 24.6344 52.3179 25.216 52.5769 26.075L60.2362 23.765C59.4819 21.264 58.0191 19.1789 55.8856 17.6608L51.2475 24.1792ZM52.6031 26.1583C52.7828 26.7104 52.9666 27.8564 52.9666 29.84H60.9666C60.9666 27.5569 60.777 25.4229 60.21 23.6817L52.6031 26.1583ZM52.9666 29.84C52.9666 31.8645 52.7799 32.9909 52.6118 33.4951L60.2013 36.0249C60.7799 34.2891 60.9666 32.1355 60.9666 29.84H52.9666ZM52.5672 33.6377C52.2963 34.5647 51.8551 35.1486 51.2475 35.5808L55.8856 42.0992C58.0514 40.5581 59.5035 38.4219 60.2459 35.8823L52.5672 33.6377ZM51.2177 35.6023C50.6354 36.0247 49.848 36.32 48.6466 36.32V44.32C51.2851 44.32 53.7777 43.6286 55.9155 42.0777L51.2177 35.6023ZM48.6466 41.84C50.6926 41.84 52.6678 41.2686 54.3564 39.9774L49.4968 33.6226C49.3719 33.718 49.1605 33.84 48.6466 33.84V41.84ZM54.4141 39.9324C56.0439 38.6382 57.1072 36.9169 57.6315 34.9506L49.9016 32.8893C49.786 33.3231 49.6226 33.5218 49.439 33.6676L54.4141 39.9324ZM57.6471 34.8901C58.0043 33.4616 58.1266 31.7351 58.1266 29.88H50.1266C50.1266 31.4915 50.0089 32.4584 49.886 32.9499L57.6471 34.8901ZM58.1266 29.88C58.1266 28.0252 58.0201 26.323 57.706 24.9487L49.9071 26.7313C50.0197 27.2237 50.1266 28.2148 50.1266 29.88H58.1266ZM57.6715 24.8094C57.1357 22.8001 56.0218 21.0592 54.3119 19.789L49.5413 26.211C49.698 26.3274 49.8374 26.4799 49.9416 26.8706L57.6715 24.8094ZM54.4141 19.8676C52.7096 18.514 50.694 17.92 48.6066 17.92V25.92C49.1325 25.92 49.3302 26.046 49.439 26.1324L54.4141 19.8676ZM48.6066 17.92C46.5191 17.92 44.5035 18.514 42.799 19.8676L47.7741 26.1324C47.883 26.046 48.0807 25.92 48.6066 25.92V17.92ZM42.8568 19.8226C41.1845 21.1014 40.1082 22.8348 39.5816 24.8094L47.3115 26.8706C47.4249 26.4452 47.5753 26.2853 47.7164 26.1774L42.8568 19.8226ZM39.5471 24.9487C39.233 26.323 39.1266 28.0252 39.1266 29.88H47.1266C47.1266 28.2148 47.2334 27.2237 47.346 26.7313L39.5471 24.9487ZM39.1266 29.88C39.1266 31.7348 39.233 33.437 39.5471 34.8113L47.346 33.0287C47.2334 32.5363 47.1266 31.5452 47.1266 29.88H39.1266ZM39.561 34.8698C40.05 36.8706 41.1088 38.622 42.759 39.9324L47.7341 33.6676C47.571 33.538 47.4297 33.3694 47.3322 32.9702L39.561 34.8698ZM42.8613 40.011C44.5828 41.2898 46.5854 41.84 48.6466 41.84V33.84C48.0411 33.84 47.777 33.6968 47.6319 33.589L42.8613 40.011ZM74.8834 37.76L73.0946 41.3377L73.0946 41.3377L74.8834 37.76ZM74.7634 37.8L78.0751 40.0434L78.2231 39.8249L78.3411 39.5889L74.7634 37.8ZM65.8834 39.52L64.0946 43.0977L64.1477 43.1243L64.2016 43.1492L65.8834 39.52ZM63.3234 37.24L59.9263 39.3517L59.9466 39.3844L59.9676 39.4168L63.3234 37.24ZM66.5234 36.48L63.6106 39.2215L63.6311 39.2432L63.6518 39.2646L66.5234 36.48ZM73.6034 36.44L70.775 33.6116L70.7539 33.6327L70.7331 33.6541L73.6034 36.44ZM78.9634 20.16C78.9634 20.6432 78.8399 21.7404 77.8919 22.6884C76.9438 23.6365 75.8467 23.76 75.3634 23.76V15.76C74.6135 15.76 73.3164 15.9502 72.235 17.0316C71.1536 18.113 70.9634 19.4101 70.9634 20.16H78.9634ZM75.3634 23.76H77.4034V15.76H75.3634V23.76ZM77.4034 23.76C76.9202 23.76 75.8231 23.6365 74.875 22.6884C73.927 21.7404 73.8034 20.6432 73.8034 20.16H81.8034C81.8034 19.4101 81.6133 18.113 80.5319 17.0316C79.4505 15.9502 78.1534 15.76 77.4034 15.76V23.76ZM73.8034 20.16V39.6H81.8034V20.16H73.8034ZM73.8034 39.6C73.8034 39.1168 73.927 38.0196 74.875 37.0716C75.8231 36.1235 76.9202 36 77.4034 36V44C78.1534 44 79.4505 43.8098 80.5319 42.7284C81.6133 41.647 81.8034 40.3499 81.8034 39.6H73.8034ZM77.4034 36H75.3634V44H77.4034V36ZM75.3634 36C75.8467 36 76.9438 36.1235 77.8919 37.0716C78.8399 38.0196 78.9634 39.1168 78.9634 39.6H70.9634C70.9634 40.3499 71.1536 41.647 72.235 42.7284C73.3164 43.8098 74.6135 44 75.3634 44V36ZM78.9634 39.6V37.88H70.9634V39.6H78.9634ZM78.9634 37.88C78.9634 37.1534 78.7703 36.3392 78.2716 35.5912C77.7897 34.8683 77.1735 34.4329 76.6723 34.1823L73.0946 41.3377C72.6467 41.1138 72.0705 40.7117 71.6152 40.0288C71.1433 39.3208 70.9634 38.5533 70.9634 37.88H78.9634ZM76.6723 34.1823C76.0942 33.8932 74.9299 33.4948 73.5485 33.9553C72.1671 34.4157 71.4748 35.433 71.1857 36.0111L78.3411 39.5889C78.0787 40.1137 77.4197 41.0976 76.0784 41.5447C74.737 41.9919 73.6194 41.6001 73.0946 41.3377L76.6723 34.1823ZM71.4518 35.5566C71.2417 35.8667 70.8689 36.28 69.4434 36.28V44.28C72.8713 44.28 76.0451 43.04 78.0751 40.0434L71.4518 35.5566ZM69.4434 36.28C68.7075 36.28 68.0991 36.1381 67.5653 35.8908L64.2016 43.1492C65.8544 43.9152 67.6194 44.28 69.4434 44.28V36.28ZM67.6723 35.9423C67.2341 35.7232 66.9255 35.4428 66.6793 35.0632L59.9676 39.4168C61.0014 41.0105 62.3995 42.2501 64.0946 43.0977L67.6723 35.9423ZM66.7206 35.1283C66.5718 34.8889 66.4034 34.4662 66.4034 33.68H58.4034C58.4034 35.6672 58.8484 37.6178 59.9263 39.3517L66.7206 35.1283ZM66.4034 33.68V20.16H58.4034V33.68H66.4034ZM66.4034 20.16C66.4034 20.6432 66.2799 21.7404 65.3319 22.6884C64.3838 23.6365 63.2867 23.76 62.8034 23.76V15.76C62.0535 15.76 60.7564 15.9502 59.675 17.0316C58.5936 18.113 58.4034 19.4101 58.4034 20.16H66.4034ZM62.8034 23.76H64.8434V15.76H62.8034V23.76ZM64.8434 23.76C64.3602 23.76 63.2631 23.6365 62.315 22.6884C61.367 21.7404 61.2434 20.6432 61.2434 20.16H69.2434C69.2434 19.4101 69.0533 18.113 67.9719 17.0316C66.8905 15.9502 65.5934 15.76 64.8434 15.76V23.76ZM61.2434 20.16V32.84H69.2434V20.16H61.2434ZM61.2434 32.84C61.2434 35.1417 61.9117 37.4164 63.6106 39.2215L69.4362 33.7385C69.4285 33.7303 69.2434 33.5783 69.2434 32.84H61.2434ZM63.6518 39.2646C65.4043 41.0718 67.6835 41.8 70.0034 41.8V33.8C69.6684 33.8 69.5045 33.7499 69.4521 33.73C69.4137 33.7155 69.4082 33.709 69.395 33.6954L63.6518 39.2646ZM70.0034 41.8C72.3691 41.8 74.6906 41.0631 76.4738 39.2259L70.7331 33.6541C70.7089 33.679 70.6886 33.6959 70.6298 33.7181C70.5566 33.7458 70.3678 33.8 70.0034 33.8V41.8ZM76.4319 39.2684C78.2123 37.488 78.9634 35.2055 78.9634 32.84H70.9634C70.9634 33.4612 70.8079 33.5787 70.775 33.6116L76.4319 39.2684ZM78.9634 32.84V20.16H70.9634V32.84H78.9634ZM99.7288 24.92L103.594 23.8893L103.587 23.8631L103.579 23.837L99.7288 24.92ZM99.6488 34.96L95.8293 33.7717L95.8268 33.7799L95.8243 33.788L99.6488 34.96ZM97.0088 38.88L99.4411 42.0555L99.4411 42.0555L97.0088 38.88ZM89.4088 39.68L91.1538 36.0807L91.1538 36.0807L89.4088 39.68ZM87.2088 37.84L83.631 39.6289L83.7827 39.9321L83.9831 40.2055L87.2088 37.84ZM87.0888 37.8V41.8H88.033L88.8776 41.3777L87.0888 37.8ZM87.0488 21.96L84.2203 24.7884L85.3919 25.96H87.0488V21.96ZM87.2088 21.88L90.0372 24.7084L90.2304 24.5152L90.3955 24.2975L87.2088 21.88ZM89.4088 20.08L87.6637 16.4807L87.6637 16.4807L89.4088 20.08ZM97.0888 20.92L94.6467 24.088L94.6676 24.1042L94.6888 24.12L97.0888 20.92ZM96.6488 34.72L93.0373 33.0003L92.9317 33.2221L92.854 33.4551L96.6488 34.72ZM97.2088 32.84L101.162 33.4482L101.164 33.4372L101.166 33.4262L97.2088 32.84ZM97.1288 26.84L93.191 27.5432L93.2058 27.6258L93.224 27.7077L97.1288 26.84ZM96.4488 24.84L92.7271 26.3061L92.8182 26.5373L92.9372 26.7554L96.4488 24.84ZM94.7688 22.72L92.4978 26.0129L92.4978 26.0129L94.7688 22.72ZM89.3688 22.76L91.7497 25.9742L91.7592 25.9671L91.7688 25.96L89.3688 22.76ZM87.8088 24.92L91.4202 26.6397L91.5107 26.4497L91.5807 26.2513L87.8088 24.92ZM87.2088 26.84L83.2756 26.1116L83.2625 26.1825L83.2519 26.2538L87.2088 26.84ZM87.2088 32.88L83.2519 33.4662L83.2645 33.5511L83.2807 33.6354L87.2088 32.88ZM87.7688 34.76L91.5185 33.3673L91.4841 33.2749L91.4453 33.1843L87.7688 34.76ZM89.3688 37L86.913 40.1574L86.913 40.1574L89.3688 37ZM94.9288 37L92.6854 33.6883L92.66 33.7055L92.6349 33.7231L94.9288 37ZM95.8638 25.9507C96.0533 26.6613 96.2088 27.9159 96.2088 29.88H104.209C104.209 27.6308 104.044 25.5786 103.594 23.8893L95.8638 25.9507ZM96.2088 29.88C96.2088 31.9148 96.0261 33.1392 95.8293 33.7717L103.468 36.1483C104.018 34.3808 104.209 32.2185 104.209 29.88H96.2088ZM95.8243 33.788C95.5373 34.7246 95.1051 35.2995 94.5764 35.7045L99.4411 42.0555C101.419 40.5405 102.747 38.5021 103.473 36.132L95.8243 33.788ZM94.5764 35.7045C94.1425 36.0369 93.4822 36.32 92.3288 36.32V44.32C94.9087 44.32 97.3683 43.6431 99.4411 42.0555L94.5764 35.7045ZM92.3288 36.32C91.8109 36.32 91.4419 36.2204 91.1538 36.0807L87.6637 43.2793C89.1356 43.9929 90.7133 44.32 92.3288 44.32V36.32ZM91.1538 36.0807C90.8693 35.9428 90.6412 35.7566 90.4344 35.4745L83.9831 40.2055C84.9496 41.5234 86.1882 42.5639 87.6637 43.2793L91.1538 36.0807ZM90.7865 36.0511C90.4974 35.473 89.8051 34.4557 88.4237 33.9953C87.0423 33.5348 85.878 33.9332 85.2999 34.2223L88.8776 41.3777C88.3528 41.6401 87.2352 42.0319 85.8938 41.5847C84.5524 41.1376 83.8934 40.1537 83.631 39.6289L90.7865 36.0511ZM87.0888 33.8C86.4455 33.8 85.2284 33.9635 84.2003 34.9916C83.1723 36.0196 83.0088 37.2368 83.0088 37.88H91.0088C91.0088 38.4699 90.8586 39.647 89.8572 40.6484C88.8558 41.6498 87.6787 41.8 87.0888 41.8V33.8ZM83.0088 37.88V39.6H91.0088V37.88H83.0088ZM83.0088 39.6C83.0088 39.1168 83.1323 38.0196 84.0803 37.0716C85.0284 36.1235 86.1255 36 86.6088 36V44C87.3587 44 88.6558 43.8098 89.7372 42.7284C90.8186 41.647 91.0088 40.3499 91.0088 39.6H83.0088ZM86.6088 36H84.5688V44H86.6088V36ZM84.5688 36C85.052 36 86.1491 36.1235 87.0972 37.0716C88.0452 38.0196 88.1688 39.1168 88.1688 39.6H80.1688C80.1688 40.3499 80.3589 41.647 81.4403 42.7284C82.5217 43.8098 83.8188 44 84.5688 44V36ZM88.1688 39.6V12.4H80.1688V39.6H88.1688ZM88.1688 12.4C88.1688 12.8832 88.0452 13.9804 87.0972 14.9284C86.1491 15.8765 85.052 16 84.5688 16V8C83.8188 8 82.5217 8.19018 81.4403 9.27157C80.3589 10.353 80.1688 11.6501 80.1688 12.4H88.1688ZM84.5688 16H86.6088V8H84.5688V16ZM86.6088 16C86.1255 16 85.0284 15.8765 84.0803 14.9284C83.1323 13.9804 83.0088 12.8832 83.0088 12.4H91.0088C91.0088 11.6501 90.8186 10.353 89.7372 9.27157C88.6558 8.19018 87.3587 8 86.6088 8V16ZM83.0088 12.4V21.84H91.0088V12.4H83.0088ZM83.0088 21.84C83.0088 22.5099 83.1789 23.7471 84.2203 24.7884L89.8772 19.1316C90.8652 20.1196 91.0088 21.2768 91.0088 21.84H83.0088ZM87.0488 25.96C88.5371 25.96 89.5478 25.1978 90.0372 24.7084L84.3803 19.0516C84.763 18.6689 85.6671 17.96 87.0488 17.96V25.96ZM90.3955 24.2975C90.5984 24.0301 90.8363 23.8332 91.1538 23.6793L87.6637 16.4807C86.2212 17.1801 84.9924 18.1833 84.022 19.4625L90.3955 24.2975ZM91.1538 23.6793C91.4419 23.5396 91.8109 23.44 92.3288 23.44V15.44C90.7133 15.44 89.1356 15.7671 87.6637 16.4807L91.1538 23.6793ZM92.3288 23.44C93.4961 23.44 94.1818 23.7297 94.6467 24.088L99.5308 17.752C97.4357 16.137 94.9481 15.44 92.3288 15.44V23.44ZM94.6888 24.12C95.1896 24.4957 95.6089 25.0457 95.8781 26.003L103.579 23.837C102.889 21.381 101.548 19.2643 99.4888 17.72L94.6888 24.12ZM100.26 36.4397C100.715 35.4853 101.004 34.4772 101.162 33.4482L93.2553 32.2318C93.2002 32.5895 93.1161 32.8347 93.0373 33.0003L100.26 36.4397ZM101.166 33.4262C101.314 32.4225 101.369 31.2112 101.369 29.88H93.3688C93.3688 31.0555 93.3166 31.8175 93.2519 32.2538L101.166 33.4262ZM101.369 29.88C101.369 28.4682 101.287 27.1149 101.033 25.9723L93.224 27.7077C93.2901 28.0051 93.3688 28.6785 93.3688 29.88H101.369ZM101.066 26.1368C100.867 25.0222 100.513 23.937 99.9603 22.9246L92.9372 26.7554C93.0249 26.9163 93.1234 27.1644 93.191 27.5432L101.066 26.1368ZM100.17 23.3739C99.5345 21.7598 98.4721 20.415 97.0397 19.4271L92.4978 26.0129C92.6121 26.0916 92.6697 26.1602 92.7271 26.3061L100.17 23.3739ZM97.0397 19.4271C95.5106 18.3726 93.7728 17.92 92.0088 17.92V25.92C92.3781 25.92 92.4802 26.0007 92.4978 26.0129L97.0397 19.4271ZM92.0088 17.92C90.2085 17.92 88.4681 18.4355 86.9688 19.56L91.7688 25.96C91.7873 25.9461 91.7934 25.9443 91.8016 25.9417C91.8132 25.938 91.8739 25.92 92.0088 25.92V17.92ZM86.9878 19.5458C85.5793 20.5892 84.6019 21.9874 84.0368 23.5887L91.5807 26.2513C91.6556 26.0392 91.7182 25.9975 91.7497 25.9742L86.9878 19.5458ZM84.1973 23.2003C83.7565 24.1259 83.4614 25.1085 83.2756 26.1116L91.1419 27.5684C91.2228 27.1315 91.3277 26.8341 91.4202 26.6397L84.1973 23.2003ZM83.2519 26.2538C83.1024 27.263 83.0488 28.5051 83.0488 29.88H91.0488C91.0488 28.6415 91.1017 27.857 91.1656 27.4262L83.2519 26.2538ZM83.0488 29.88C83.0488 31.233 83.1028 32.4597 83.2519 33.4662L91.1656 32.2938C91.1013 31.8603 91.0488 31.087 91.0488 29.88H83.0488ZM83.2807 33.6354C83.4599 34.567 83.723 35.4744 84.0922 36.3357L91.4453 33.1843C91.3345 32.9256 91.2243 32.5796 91.1368 32.1246L83.2807 33.6354ZM84.019 36.1527C84.6001 37.717 85.5528 39.0995 86.913 40.1574L91.8245 33.8426C91.7447 33.7805 91.6308 33.6696 91.5185 33.3673L84.019 36.1527ZM86.913 40.1574C88.4497 41.3526 90.2495 41.84 92.0488 41.84V33.84C91.8656 33.84 91.7849 33.8162 91.7751 33.8131C91.7696 33.8114 91.7755 33.8128 91.7885 33.8196C91.8017 33.8265 91.8144 33.8348 91.8245 33.8426L86.913 40.1574ZM92.0488 41.84C93.8647 41.84 95.6548 41.3744 97.2226 40.2769L92.6349 33.7231C92.6027 33.7456 92.4728 33.84 92.0488 33.84V41.84ZM97.1721 40.3117C98.7374 39.2514 99.8495 37.767 100.443 35.9849L92.854 33.4551C92.8225 33.5497 92.795 33.5885 92.7855 33.601C92.7764 33.6131 92.7525 33.6428 92.6854 33.6883L97.1721 40.3117ZM106.405 36C106.888 36 107.985 36.1235 108.933 37.0716C109.881 38.0196 110.005 39.1168 110.005 39.6H102.005C102.005 40.3499 102.195 41.647 103.276 42.7284C104.358 43.8098 105.655 44 106.405 44V36ZM110.005 39.6V12.4H102.005V39.6H110.005ZM110.005 12.4C110.005 12.8832 109.881 13.9804 108.933 14.9284C107.985 15.8765 106.888 16 106.405 16V8C105.655 8 104.358 8.19018 103.276 9.27157C102.195 10.353 102.005 11.6501 102.005 12.4H110.005ZM106.405 16H108.445V8H106.405V16ZM108.445 16C107.961 16 106.864 15.8765 105.916 14.9284C104.968 13.9804 104.845 12.8832 104.845 12.4H112.845C112.845 11.6501 112.654 10.353 111.573 9.27157C110.492 8.19018 109.195 8 108.445 8V16ZM104.845 12.4V39.6H112.845V12.4H104.845ZM104.845 39.6C104.845 39.1168 104.968 38.0196 105.916 37.0716C106.864 36.1235 107.961 36 108.445 36V44C109.195 44 110.492 43.8098 111.573 42.7284C112.655 41.647 112.845 40.3499 112.845 39.6H104.845ZM108.445 36H106.405V44H108.445V36ZM115.543 15.44L112.715 18.2684L112.715 18.2684L115.543 15.44ZM115.543 12.24L118.279 15.1582L118.326 15.114L118.372 15.0684L115.543 12.24ZM118.743 12.24L115.915 15.0684L115.961 15.114L116.008 15.1582L118.743 12.24ZM118.743 15.44L121.572 18.2684L121.572 18.2684L118.743 15.44ZM117.143 12.08C117.274 12.08 117.492 12.1034 117.749 12.2061C118.011 12.3107 118.222 12.4615 118.372 12.6116L112.715 18.2684C113.941 19.4943 115.514 20.08 117.143 20.08V12.08ZM118.372 12.6116C118.522 12.7616 118.673 12.9729 118.777 13.2344C118.88 13.4913 118.903 13.7091 118.903 13.84H110.903C110.903 15.4694 111.489 17.0426 112.715 18.2684L118.372 12.6116ZM118.903 13.84C118.903 13.9349 118.887 14.1503 118.777 14.4256C118.663 14.7123 118.485 14.9654 118.279 15.1582L112.808 9.32185C111.458 10.5869 110.903 12.2376 110.903 13.84H118.903ZM118.372 15.0684C118.222 15.2185 118.011 15.3693 117.749 15.4739C117.492 15.5766 117.274 15.6 117.143 15.6V7.6C115.514 7.6 113.941 8.18572 112.715 9.41158L118.372 15.0684ZM117.143 15.6C117.013 15.6 116.795 15.5766 116.538 15.4739C116.276 15.3693 116.065 15.2185 115.915 15.0684L121.572 9.41158C120.346 8.18572 118.773 7.6 117.143 7.6V15.6ZM116.008 15.1582C115.802 14.9654 115.624 14.7123 115.51 14.4256C115.399 14.1503 115.383 13.9349 115.383 13.84H123.383C123.383 12.2376 122.829 10.5869 121.479 9.32185L116.008 15.1582ZM115.383 13.84C115.383 13.7091 115.407 13.4913 115.51 13.2344C115.614 12.9729 115.765 12.7616 115.915 12.6116L121.572 18.2684C122.798 17.0426 123.383 15.4694 123.383 13.84H115.383ZM115.915 12.6116C116.065 12.4615 116.276 12.3107 116.538 12.2061C116.795 12.1034 117.013 12.08 117.143 12.08V20.08C118.773 20.08 120.346 19.4943 121.572 18.2684L115.915 12.6116ZM116.023 35.96C116.507 35.96 117.604 36.0835 118.552 37.0316C119.5 37.9796 119.623 39.0768 119.623 39.56H111.623C111.623 40.3099 111.814 41.607 112.895 42.6884C113.976 43.7698 115.274 43.96 116.023 43.96V35.96ZM119.623 39.56V20.12H111.623V39.56H119.623ZM119.623 20.12C119.623 20.6032 119.5 21.7004 118.552 22.6484C117.604 23.5965 116.507 23.72 116.023 23.72V15.72C115.274 15.72 113.976 15.9102 112.895 16.9916C111.814 18.073 111.623 19.3701 111.623 20.12H119.623ZM116.023 23.72H118.063V15.72H116.023V23.72ZM118.063 23.72C117.58 23.72 116.483 23.5965 115.535 22.6484C114.587 21.7004 114.463 20.6032 114.463 20.12H122.463C122.463 19.3701 122.273 18.073 121.192 16.9916C120.11 15.9102 118.813 15.72 118.063 15.72V23.72ZM114.463 20.12V39.56H122.463V20.12H114.463ZM114.463 39.56C114.463 39.0768 114.587 37.9796 115.535 37.0316C116.483 36.0835 117.58 35.96 118.063 35.96V43.96C118.813 43.96 120.11 43.7698 121.192 42.6884C122.273 41.607 122.463 40.3099 122.463 39.56H114.463ZM118.063 35.96H116.023V43.96H118.063V35.96ZM138.899 21.36L136.07 24.1884L136.085 24.2033L136.1 24.218L138.899 21.36ZM136.619 23.36L133.708 26.104L133.729 26.1258L133.75 26.1471L136.619 23.36ZM129.619 23.32L126.79 20.4916L126.79 20.4916L129.619 23.32ZM128.299 22L125.47 24.8284L125.929 25.2874L126.51 25.5777L128.299 22ZM128.419 21.96L125.157 19.645L124.979 19.8959L124.841 20.1712L128.419 21.96ZM133.819 23.48C135.122 23.48 135.716 23.8341 136.07 24.1884L141.727 18.5316C139.575 16.3792 136.782 15.48 133.819 15.48V23.48ZM136.1 24.218C136.477 24.587 136.819 25.1643 136.819 26.4H144.819C144.819 23.4224 143.88 20.6397 141.697 18.502L136.1 24.218ZM136.819 26.4V39.6H144.819V26.4H136.819ZM136.819 39.6C136.819 39.1168 136.942 38.0196 137.89 37.0716C138.838 36.1235 139.936 36 140.419 36V44C141.169 44 142.466 43.8098 143.547 42.7284C144.629 41.647 144.819 40.3499 144.819 39.6H136.819ZM140.419 36H138.379V44H140.419V36ZM138.379 36C138.862 36 139.959 36.1235 140.907 37.0716C141.855 38.0196 141.979 39.1168 141.979 39.6H133.979C133.979 40.3499 134.169 41.647 135.25 42.7284C136.332 43.8098 137.629 44 138.379 44V36ZM141.979 39.6V26.96H133.979V39.6H141.979ZM141.979 26.96C141.979 24.5963 141.214 22.3498 139.488 20.5729L133.75 26.1471C133.837 26.2368 133.979 26.3904 133.979 26.96H141.979ZM139.529 20.6159C137.812 18.7949 135.569 17.96 133.179 17.96V25.96C133.441 25.96 133.559 26.0021 133.591 26.0149C133.614 26.0243 133.647 26.039 133.708 26.104L139.529 20.6159ZM133.179 17.96C130.817 17.96 128.557 18.7252 126.79 20.4916L132.447 26.1484C132.494 26.1015 132.607 25.96 133.179 25.96V17.96ZM126.79 20.4916C125.024 22.258 124.259 24.5182 124.259 26.88H132.259C132.259 26.3084 132.4 26.1953 132.447 26.1484L126.79 20.4916ZM124.259 26.88V39.6H132.259V26.88H124.259ZM124.259 39.6C124.259 39.1168 124.382 38.0196 125.33 37.0716C126.278 36.1235 127.376 36 127.859 36V44C128.609 44 129.906 43.8098 130.987 42.7284C132.069 41.647 132.259 40.3499 132.259 39.6H124.259ZM127.859 36H125.819V44H127.859V36ZM125.819 36C126.302 36 127.399 36.1235 128.347 37.0716C129.295 38.0196 129.419 39.1168 129.419 39.6H121.419C121.419 40.3499 121.609 41.647 122.69 42.7284C123.772 43.8098 125.069 44 125.819 44V36ZM129.419 39.6V20.16H121.419V39.6H129.419ZM129.419 20.16C129.419 20.6432 129.295 21.7404 128.347 22.6884C127.399 23.6365 126.302 23.76 125.819 23.76V15.76C125.069 15.76 123.772 15.9502 122.69 17.0316C121.609 18.113 121.419 19.4101 121.419 20.16H129.419ZM125.819 23.76H127.859V15.76H125.819V23.76ZM127.859 23.76C127.376 23.76 126.278 23.6365 125.33 22.6884C124.382 21.7404 124.259 20.6432 124.259 20.16H132.259C132.259 19.4101 132.069 18.113 130.987 17.0316C129.906 15.9502 128.609 15.76 127.859 15.76V23.76ZM124.259 20.16V21.88H132.259V20.16H124.259ZM124.259 21.88C124.259 22.5499 124.429 23.787 125.47 24.8284L131.127 19.1716C132.115 20.1596 132.259 21.3167 132.259 21.88H124.259ZM126.51 25.5777C127.088 25.8668 128.252 26.2652 129.634 25.8047C131.015 25.3443 131.707 24.327 131.996 23.7488L124.841 20.1712C125.103 19.6463 125.762 18.6624 127.104 18.2153C128.445 17.7681 129.563 18.1599 130.088 18.4223L126.51 25.5777ZM131.681 24.275C131.95 23.895 132.398 23.48 133.819 23.48V15.48C130.386 15.48 127.234 16.7184 125.157 19.645L131.681 24.275ZM159.701 45.88L157.202 42.7565L157.191 42.766L157.179 42.7755L159.701 45.88ZM151.221 47.92L150.823 51.9001L150.856 51.9034L150.889 51.9062L151.221 47.92ZM150.821 47.48L146.825 47.3063L146.821 47.3931V47.48H150.821ZM150.901 45.64L154.897 45.8137L154.901 45.7269V45.64H150.901ZM151.021 45.32L148.802 41.9918L148.473 42.2115L148.193 42.4916L151.021 45.32ZM151.301 45.28L150.331 49.1606L150.736 49.2618L151.153 49.2773L151.301 45.28ZM152.381 45.32L152.233 49.3173L152.307 49.32H152.381V45.32ZM157.781 43.84L155.178 40.803L155.157 40.8206L155.137 40.8386L157.781 43.84ZM159.381 37.68L156.553 40.5084L157.724 41.68H159.381V37.68ZM159.261 37.72L156.433 34.8916L156.247 35.0775L156.087 35.2863L159.261 37.72ZM149.381 38.72L147.087 41.9969L147.103 42.0076L147.118 42.0181L149.381 38.72ZM146.701 34.76L150.567 33.7331L150.554 33.6846L150.54 33.6364L146.701 34.76ZM146.301 26.92L142.321 26.522L142.315 26.5879L142.31 26.6539L146.301 26.92ZM146.741 24.76L150.536 26.0249L150.555 25.9674L150.573 25.9094L146.741 24.76ZM149.341 20.92L151.774 24.0955L151.795 24.0794L151.815 24.063L149.341 20.92ZM159.261 21.8L156.107 24.2595L156.258 24.454L156.433 24.6284L159.261 21.8ZM159.381 21.84L157.592 18.2623L157.012 18.5526L156.553 19.0116L159.381 21.84ZM159.261 33.88L155.339 33.0955L155.335 33.1135L155.332 33.1315L159.261 33.88ZM159.421 32.4L163.417 32.5816L163.417 32.5816L159.421 32.4ZM159.421 27.12L155.427 27.3419L155.428 27.3549L159.421 27.12ZM159.221 25.8L155.292 26.5484L155.319 26.6907L155.356 26.8307L159.221 25.8ZM157.621 23.04L154.94 26.0084L154.99 26.0536L155.042 26.0972L157.621 23.04ZM151.261 23L148.728 19.9042L148.705 19.9233L148.682 19.9428L151.261 23ZM149.461 25.8L153.279 26.9931L153.285 26.9754L153.29 26.9576L149.461 25.8ZM149.461 33.84L153.352 32.9135L153.302 32.7007L153.228 32.4947L149.461 33.84ZM151.181 36.64L148.593 39.69L148.643 39.7321L148.694 39.7724L151.181 36.64ZM157.661 36.64L155.082 33.5828L155.058 33.6031L155.034 33.6237L157.661 36.64ZM163.461 20.16C163.461 20.6432 163.338 21.7404 162.39 22.6884C161.442 23.6365 160.344 23.76 159.861 23.76V15.76C159.111 15.76 157.814 15.9502 156.733 17.0316C155.651 18.113 155.461 19.4101 155.461 20.16H163.461ZM159.861 23.76H161.901V15.76H159.861V23.76ZM161.901 23.76C161.418 23.76 160.321 23.6365 159.373 22.6884C158.425 21.7404 158.301 20.6432 158.301 20.16H166.301C166.301 19.4101 166.111 18.113 165.03 17.0316C163.948 15.9502 162.651 15.76 161.901 15.76V23.76ZM158.301 20.16V39.32H166.301V20.16H158.301ZM158.301 39.32C158.301 41.5402 157.685 42.3708 157.202 42.7565L162.2 49.0035C165.185 46.6159 166.301 43.0732 166.301 39.32H158.301ZM157.179 42.7755C156.409 43.4007 155.054 43.96 152.621 43.96V51.96C156.215 51.96 159.58 51.1327 162.224 48.9845L157.179 42.7755ZM152.621 43.96C152.039 43.96 151.705 43.9464 151.553 43.9338L150.889 51.9062C151.378 51.9469 151.977 51.96 152.621 51.96V43.96ZM151.619 43.9399C152.119 43.9899 153.078 44.2165 153.881 45.0993C154.686 45.985 154.821 46.9672 154.821 47.48H146.821C146.821 48.2595 147.023 49.4483 147.961 50.4807C148.897 51.5102 150.057 51.8235 150.823 51.9001L151.619 43.9399ZM154.817 47.6537L154.897 45.8137L146.905 45.4663L146.825 47.3063L154.817 47.6537ZM154.901 45.64C154.901 46.3637 154.653 47.3455 153.85 48.1484L148.193 42.4916C147.23 43.4545 146.901 44.6496 146.901 45.64H154.901ZM153.24 48.6482C152.793 48.9461 152.274 49.1503 151.717 49.2298C151.174 49.3074 150.698 49.2522 150.331 49.1606L152.271 41.3994C151.245 41.1427 149.959 41.2208 148.802 41.9918L153.24 48.6482ZM151.153 49.2773L152.233 49.3173L152.529 41.3227L151.449 41.2827L151.153 49.2773ZM152.381 49.32C155.236 49.32 158.225 48.7801 160.425 46.8414L155.137 40.8386C155.098 40.8732 154.487 41.32 152.381 41.32V49.32ZM160.384 46.877C162.72 44.8755 163.461 41.9981 163.461 39.24H155.461C155.461 39.9544 155.364 40.3777 155.284 40.5978C155.246 40.7026 155.213 40.7564 155.199 40.7774C155.186 40.7966 155.18 40.8014 155.178 40.803L160.384 46.877ZM163.461 39.24V37.76H155.461V39.24H163.461ZM163.461 37.76C163.461 37.1168 163.298 35.8996 162.27 34.8716C161.242 33.8435 160.024 33.68 159.381 33.68V41.68C158.791 41.68 157.614 41.5298 156.613 40.5284C155.611 39.527 155.461 38.3499 155.461 37.76H163.461ZM162.21 34.8516C161.708 34.35 161.009 33.9184 160.143 33.7452C159.306 33.5778 158.58 33.7042 158.066 33.8753C157.16 34.1775 156.604 34.7204 156.433 34.8916L162.09 40.5484C161.972 40.6662 161.463 41.1759 160.596 41.4647C160.103 41.6292 159.394 41.7538 158.574 41.5898C157.725 41.4199 157.041 40.9967 156.553 40.5084L162.21 34.8516ZM156.087 35.2863C155.718 35.7667 155.22 36.12 154.021 36.12V44.12C157.355 44.12 160.351 42.8733 162.436 40.1537L156.087 35.2863ZM154.021 36.12C153.052 36.12 152.303 35.8741 151.645 35.4219L147.118 42.0181C149.179 43.4326 151.523 44.12 154.021 44.12V36.12ZM151.675 35.4431C151.183 35.0983 150.8 34.6112 150.567 33.7331L142.835 35.7869C143.509 38.3222 144.913 40.475 147.087 41.9969L151.675 35.4431ZM150.54 33.6364C150.384 33.1017 150.221 31.9353 150.221 29.88H142.221C142.221 32.1447 142.379 34.2316 142.862 35.8836L150.54 33.6364ZM150.221 29.88C150.221 28.7589 150.247 27.8673 150.292 27.1861L142.31 26.6539C142.249 27.5727 142.221 28.6545 142.221 29.88H150.221ZM150.281 27.318C150.337 26.7586 150.432 26.3362 150.536 26.0249L142.947 23.4951C142.624 24.4638 142.425 25.4814 142.321 26.522L150.281 27.318ZM150.573 25.9094C150.826 25.0654 151.228 24.5134 151.774 24.0955L146.909 17.7445C144.948 19.2466 143.617 21.2546 142.91 23.6106L150.573 25.9094ZM151.815 24.063C152.29 23.6894 152.9 23.44 153.861 23.44V15.44C151.302 15.44 148.899 16.1772 146.867 17.777L151.815 24.063ZM153.861 23.44C155.264 23.44 155.786 23.8475 156.107 24.2595L162.416 19.3405C160.284 16.6058 157.206 15.44 153.861 15.44V23.44ZM156.433 24.6284C156.604 24.7996 157.16 25.3426 158.066 25.6447C158.58 25.8158 159.306 25.9422 160.143 25.7748C161.01 25.6015 161.708 25.17 162.21 24.6684L156.553 19.0116C157.041 18.5233 157.725 18.1001 158.574 17.9302C159.394 17.7662 160.103 17.8908 160.596 18.0553C161.463 18.3441 161.972 18.8538 162.09 18.9716L156.433 24.6284ZM161.17 25.4177C161.671 25.1671 162.287 24.7318 162.769 24.0088C163.268 23.2608 163.461 22.4466 163.461 21.72H155.461C155.461 21.0467 155.641 20.2792 156.113 19.5712C156.568 18.8882 157.145 18.4862 157.592 18.2623L161.17 25.4177ZM163.461 21.72V20.16H155.461V21.72H163.461ZM163.184 34.6645C163.316 34.0002 163.385 33.2909 163.417 32.5816L155.425 32.2184C155.404 32.6824 155.366 32.9598 155.339 33.0955L163.184 34.6645ZM163.417 32.5816C163.448 31.9026 163.461 30.9769 163.461 29.84H155.461C155.461 30.9431 155.448 31.7241 155.425 32.2184L163.417 32.5816ZM163.461 29.84C163.461 28.4995 163.449 27.4753 163.414 26.8851L155.428 27.3549C155.447 27.6714 155.461 28.4605 155.461 29.84H163.461ZM163.415 26.8981C163.376 26.1875 163.274 25.4721 163.086 24.7693L155.356 26.8307C155.382 26.9279 155.414 27.0925 155.427 27.3419L163.415 26.8981ZM163.151 25.0516C162.769 23.0507 161.772 21.3082 160.201 19.9828L155.042 26.0972C155.178 26.2118 155.246 26.3093 155.292 26.5484L163.151 25.0516ZM160.302 20.0716C158.631 18.5623 156.574 17.92 154.461 17.92V25.92C154.711 25.92 154.835 25.956 154.875 25.9702C154.907 25.9814 154.919 25.9895 154.94 26.0084L160.302 20.0716ZM154.461 17.92C152.385 17.92 150.397 18.5387 148.728 19.9042L153.794 26.0958C153.885 26.0213 154.031 25.92 154.461 25.92V17.92ZM148.682 19.9428C147.193 21.1986 146.186 22.8116 145.632 24.6424L153.29 26.9576C153.43 26.4951 153.622 26.2414 153.841 26.0572L148.682 19.9428ZM145.643 24.6069C145.187 26.0677 145.061 27.9086 145.061 29.8H153.061C153.061 28.0647 153.202 27.239 153.279 26.9931L145.643 24.6069ZM145.061 29.8C145.061 31.7285 145.169 33.714 145.694 35.1853L153.228 32.4947C153.255 32.5695 153.195 32.4183 153.142 31.8759C153.092 31.3765 153.061 30.6934 153.061 29.8H145.061ZM145.57 34.7665C146.034 36.7172 147.066 38.3938 148.593 39.69L153.769 33.59C153.537 33.3929 153.421 33.2028 153.352 32.9135L145.57 34.7665ZM148.694 39.7724C150.383 41.1141 152.379 41.72 154.461 41.72V33.72C153.983 33.72 153.793 33.6059 153.669 33.5076L148.694 39.7724ZM154.461 41.72C156.539 41.72 158.599 41.1278 160.288 39.6563L155.034 33.6237C155.026 33.6308 155.014 33.6427 154.962 33.66C154.901 33.6806 154.748 33.72 154.461 33.72V41.72ZM160.241 39.6972C161.812 38.3718 162.809 36.6293 163.191 34.6284L155.332 33.1315C155.286 33.3707 155.218 33.4682 155.082 33.5828L160.241 39.6972ZM180.555 39.28L178.687 42.8168L178.713 42.8307L178.74 42.8442L180.555 39.28ZM177.235 36.16L173.758 38.1372L173.781 38.1779L173.805 38.218L177.235 36.16ZM177.235 15.88L173.805 13.822L173.79 13.8475L173.775 13.8731L177.235 15.88ZM180.555 12.8L182.371 16.3642L182.398 16.3507L182.424 16.3368L180.555 12.8ZM190.395 12.76L192.211 9.19584L192.211 9.19584L190.395 12.76ZM193.675 15.8L190.233 17.8373L190.248 17.8631L190.264 17.8886L193.675 15.8ZM194.475 20.76V16.76H194.358L194.24 16.7669L194.475 20.76ZM192.435 20.88V24.88H192.553L192.67 24.8731L192.435 20.88ZM190.235 15.88L187.472 18.772L187.489 18.7882L187.506 18.8042L190.235 15.88ZM180.715 15.88L177.952 12.988L177.952 12.988L180.715 15.88ZM180.715 36.12L183.479 33.228L183.479 33.228L180.715 36.12ZM190.235 36.16L192.965 39.0842L192.982 39.0682L192.999 39.052L190.235 36.16ZM192.435 31.16L192.67 27.1669L192.553 27.16H192.435V31.16ZM194.475 31.28L194.24 35.2731L194.358 35.28H194.475V31.28ZM193.675 36.24L190.245 34.182L190.239 34.1923L190.233 34.2027L193.675 36.24ZM190.395 39.28L188.58 35.7158L190.395 39.28ZM185.475 36.36C184.129 36.36 183.131 36.1028 182.371 35.7158L178.74 42.8442C180.807 43.8972 183.089 44.36 185.475 44.36V36.36ZM182.424 35.7432C181.637 35.3277 181.079 34.791 180.665 34.102L173.805 38.218C174.992 40.1957 176.647 41.739 178.687 42.8168L182.424 35.7432ZM180.712 34.1828C180.323 33.4978 180.075 32.6351 180.075 31.48H172.075C172.075 33.8449 172.601 36.1022 173.758 38.1372L180.712 34.1828ZM180.075 31.48V20.48H172.075V31.48H180.075ZM180.075 20.48C180.075 19.3619 180.318 18.5374 180.695 17.8869L173.775 13.8731C172.606 15.8893 172.075 18.1315 172.075 20.48H180.075ZM180.665 17.938C181.071 17.2617 181.612 16.7507 182.371 16.3642L178.74 9.23584C176.672 10.2893 175 11.8316 173.805 13.822L180.665 17.938ZM182.424 16.3368C183.172 15.9417 184.15 15.68 185.475 15.68V7.68C183.067 7.68 180.766 8.16501 178.687 9.26323L182.424 16.3368ZM185.475 15.68C186.822 15.68 187.82 15.9372 188.58 16.3242L192.211 9.19584C190.144 8.14278 187.862 7.68 185.475 7.68V15.68ZM188.58 16.3242C189.349 16.7159 189.864 17.2135 190.233 17.8373L197.118 13.7627C195.94 11.7731 194.269 10.2441 192.211 9.19584L188.58 16.3242ZM190.264 17.8886C190.636 18.4968 190.875 19.2641 190.875 20.32H198.875C198.875 17.9626 198.314 15.7166 197.087 13.7114L190.264 17.8886ZM190.875 20.32C190.875 19.5963 191.124 18.6145 191.927 17.8116L197.584 23.4684C198.547 22.5055 198.875 21.3104 198.875 20.32H190.875ZM191.927 17.8116C192.206 17.5327 192.578 17.2555 193.05 17.0534C193.526 16.8493 194.015 16.76 194.475 16.76V24.76C195.712 24.76 196.804 24.2481 197.584 23.4684L191.927 17.8116ZM194.24 16.7669L192.2 16.8869L192.67 24.8731L194.71 24.7531L194.24 16.7669ZM192.435 16.88C192.821 16.88 193.856 16.9576 194.811 17.8168C195.846 18.7482 196.035 19.9082 196.035 20.52H188.035C188.035 21.3718 188.291 22.7118 189.459 23.7632C190.548 24.7424 191.783 24.88 192.435 24.88V16.88ZM196.035 20.52V20.4H188.035V20.52H196.035ZM196.035 20.4C196.035 17.5843 195.102 14.9507 192.965 12.9558L187.506 18.8042C187.769 19.0493 188.035 19.429 188.035 20.4H196.035ZM192.999 12.988C190.917 10.9988 188.271 10.16 185.475 10.16V18.16C186.627 18.16 187.154 18.4678 187.472 18.772L192.999 12.988ZM185.475 10.16C182.68 10.16 180.034 10.9988 177.952 12.988L183.479 18.772C183.797 18.4678 184.324 18.16 185.475 18.16V10.16ZM177.952 12.988C175.86 14.9869 174.915 17.5907 174.915 20.4H182.915C182.915 19.476 183.171 19.0664 183.479 18.772L177.952 12.988ZM174.915 20.4V31.6H182.915V20.4H174.915ZM174.915 31.6C174.915 34.4093 175.86 37.0131 177.952 39.012L183.479 33.228C183.171 32.9336 182.915 32.524 182.915 31.6H174.915ZM177.952 39.012C180.034 41.0012 182.68 41.84 185.475 41.84V33.84C184.324 33.84 183.797 33.5322 183.479 33.228L177.952 39.012ZM185.475 41.84C188.245 41.84 190.879 41.0305 192.965 39.0842L187.506 33.2358C187.191 33.5295 186.652 33.84 185.475 33.84V41.84ZM192.999 39.052C195.102 37.0417 196.035 34.4174 196.035 31.6H188.035C188.035 32.5693 187.768 32.985 187.472 33.268L192.999 39.052ZM196.035 31.6V31.52H188.035V31.6H196.035ZM196.035 31.52C196.035 32.1318 195.846 33.2918 194.811 34.2232C193.856 35.0824 192.821 35.16 192.435 35.16V27.16C191.783 27.16 190.548 27.2976 189.459 28.2768C188.291 29.3282 188.035 30.6682 188.035 31.52H196.035ZM192.2 35.1531L194.24 35.2731L194.71 27.2869L192.67 27.1669L192.2 35.1531ZM194.475 35.28C194.09 35.28 193.054 35.2024 192.099 34.3432C191.065 33.4118 190.875 32.2518 190.875 31.64H198.875C198.875 30.7882 198.619 29.4482 197.451 28.3968C196.363 27.4176 195.127 27.28 194.475 27.28V35.28ZM190.875 31.64C190.875 32.7338 190.631 33.5397 190.245 34.182L197.105 38.298C198.32 36.2736 198.875 34.0129 198.875 31.64H190.875ZM190.233 34.2027C189.864 34.8265 189.349 35.3241 188.58 35.7158L192.211 42.8442C194.269 41.7959 195.94 40.2669 197.118 38.2773L190.233 34.2027ZM188.58 35.7158C187.82 36.1028 186.822 36.36 185.475 36.36V44.36C187.862 44.36 190.144 43.8972 192.211 42.8442L188.58 35.7158ZM212.852 37.76L211.063 41.3377L211.063 41.3377L212.852 37.76ZM212.732 37.8L216.044 40.0434L216.192 39.8249L216.31 39.5889L212.732 37.8ZM203.852 39.52L202.063 43.0977L202.116 43.1243L202.17 43.1492L203.852 39.52ZM201.292 37.24L197.895 39.3517L197.915 39.3844L197.936 39.4168L201.292 37.24ZM204.492 36.48L201.579 39.2215L201.6 39.2432L201.621 39.2646L204.492 36.48ZM211.572 36.44L208.744 33.6116L208.723 33.6327L208.702 33.6541L211.572 36.44ZM216.932 20.16C216.932 20.6432 216.809 21.7404 215.861 22.6884C214.913 23.6365 213.815 23.76 213.332 23.76V15.76C212.582 15.76 211.285 15.9502 210.204 17.0316C209.122 18.113 208.932 19.4101 208.932 20.16H216.932ZM213.332 23.76H215.372V15.76H213.332V23.76ZM215.372 23.76C214.889 23.76 213.792 23.6365 212.844 22.6884C211.896 21.7404 211.772 20.6432 211.772 20.16H219.772C219.772 19.4101 219.582 18.113 218.501 17.0316C217.419 15.9502 216.122 15.76 215.372 15.76V23.76ZM211.772 20.16V39.6H219.772V20.16H211.772ZM211.772 39.6C211.772 39.1168 211.896 38.0196 212.844 37.0716C213.792 36.1235 214.889 36 215.372 36V44C216.122 44 217.419 43.8098 218.501 42.7284C219.582 41.647 219.772 40.3499 219.772 39.6H211.772ZM215.372 36H213.332V44H215.372V36ZM213.332 36C213.815 36 214.913 36.1235 215.861 37.0716C216.809 38.0196 216.932 39.1168 216.932 39.6H208.932C208.932 40.3499 209.122 41.647 210.204 42.7284C211.285 43.8098 212.582 44 213.332 44V36ZM216.932 39.6V37.88H208.932V39.6H216.932ZM216.932 37.88C216.932 37.1534 216.739 36.3392 216.24 35.5912C215.758 34.8683 215.142 34.4329 214.641 34.1823L211.063 41.3377C210.615 41.1138 210.039 40.7117 209.584 40.0288C209.112 39.3208 208.932 38.5533 208.932 37.88H216.932ZM214.641 34.1823C214.063 33.8932 212.899 33.4948 211.517 33.9553C210.136 34.4157 209.444 35.433 209.154 36.0111L216.31 39.5889C216.047 40.1137 215.388 41.0976 214.047 41.5447C212.706 41.9919 211.588 41.6001 211.063 41.3377L214.641 34.1823ZM209.421 35.5566C209.21 35.8667 208.838 36.28 207.412 36.28V44.28C210.84 44.28 214.014 43.04 216.044 40.0434L209.421 35.5566ZM207.412 36.28C206.676 36.28 206.068 36.1381 205.534 35.8908L202.17 43.1492C203.823 43.9152 205.588 44.28 207.412 44.28V36.28ZM205.641 35.9423C205.203 35.7232 204.894 35.4428 204.648 35.0632L197.936 39.4168C198.97 41.0105 200.368 42.2501 202.063 43.0977L205.641 35.9423ZM204.689 35.1283C204.541 34.8889 204.372 34.4662 204.372 33.68H196.372C196.372 35.6672 196.817 37.6178 197.895 39.3517L204.689 35.1283ZM204.372 33.68V20.16H196.372V33.68H204.372ZM204.372 20.16C204.372 20.6432 204.249 21.7404 203.301 22.6884C202.353 23.6365 201.255 23.76 200.772 23.76V15.76C200.022 15.76 198.725 15.9502 197.644 17.0316C196.562 18.113 196.372 19.4101 196.372 20.16H204.372ZM200.772 23.76H202.812V15.76H200.772V23.76ZM202.812 23.76C202.329 23.76 201.232 23.6365 200.284 22.6884C199.336 21.7404 199.212 20.6432 199.212 20.16H207.212C207.212 19.4101 207.022 18.113 205.941 17.0316C204.859 15.9502 203.562 15.76 202.812 15.76V23.76ZM199.212 20.16V32.84H207.212V20.16H199.212ZM199.212 32.84C199.212 35.1417 199.88 37.4164 201.579 39.2215L207.405 33.7385C207.397 33.7303 207.212 33.5783 207.212 32.84H199.212ZM201.621 39.2646C203.373 41.0718 205.652 41.8 207.972 41.8V33.8C207.637 33.8 207.473 33.7499 207.421 33.73C207.382 33.7155 207.377 33.709 207.364 33.6954L201.621 39.2646ZM207.972 41.8C210.338 41.8 212.659 41.0631 214.443 39.2259L208.702 33.6541C208.678 33.679 208.657 33.6959 208.599 33.7181C208.525 33.7458 208.337 33.8 207.972 33.8V41.8ZM214.401 39.2684C216.181 37.488 216.932 35.2055 216.932 32.84H208.932C208.932 33.4612 208.777 33.5787 208.744 33.6116L214.401 39.2684ZM216.932 32.84V20.16H208.932V32.84H216.932ZM237.698 24.92L241.562 23.8893L241.555 23.8631L241.548 23.837L237.698 24.92ZM237.618 34.96L233.798 33.7717L233.796 33.7799L233.793 33.788L237.618 34.96ZM234.978 38.88L237.41 42.0555L237.41 42.0555L234.978 38.88ZM227.378 39.68L229.123 36.0807L229.123 36.0807L227.378 39.68ZM225.178 37.84L221.6 39.6289L221.751 39.9321L221.952 40.2055L225.178 37.84ZM225.058 37.8V41.8H226.002L226.846 41.3777L225.058 37.8ZM225.018 21.96L222.189 24.7884L223.361 25.96H225.018V21.96ZM225.178 21.88L228.006 24.7084L228.199 24.5152L228.364 24.2975L225.178 21.88ZM227.378 20.08L225.632 16.4807L225.632 16.4807L227.378 20.08ZM235.058 20.92L232.615 24.088L232.636 24.1042L232.658 24.12L235.058 20.92ZM234.618 34.72L231.006 33.0003L230.9 33.2221L230.823 33.4551L234.618 34.72ZM235.178 32.84L239.131 33.4482L239.133 33.4372L239.134 33.4262L235.178 32.84ZM235.098 26.84L231.16 27.5432L231.175 27.6258L231.193 27.7077L235.098 26.84ZM234.418 24.84L230.696 26.3061L230.787 26.5373L230.906 26.7554L234.418 24.84ZM232.738 22.72L230.467 26.0129L230.467 26.0129L232.738 22.72ZM227.338 22.76L229.718 25.9742L229.728 25.9671L229.738 25.96L227.338 22.76ZM225.778 24.92L229.389 26.6397L229.479 26.4497L229.549 26.2513L225.778 24.92ZM225.178 26.84L221.244 26.1116L221.231 26.1825L221.221 26.2538L225.178 26.84ZM225.178 32.88L221.221 33.4662L221.233 33.5511L221.249 33.6354L225.178 32.88ZM225.738 34.76L229.487 33.3673L229.453 33.2749L229.414 33.1843L225.738 34.76ZM227.338 37L224.882 40.1574L224.882 40.1574L227.338 37ZM232.898 37L230.654 33.6883L230.629 33.7055L230.604 33.7231L232.898 37ZM233.833 25.9507C234.022 26.6613 234.178 27.9159 234.178 29.88H242.178C242.178 27.6308 242.013 25.5786 241.562 23.8893L233.833 25.9507ZM234.178 29.88C234.178 31.9148 233.995 33.1392 233.798 33.7717L241.437 36.1483C241.987 34.3808 242.178 32.2185 242.178 29.88H234.178ZM233.793 33.788C233.506 34.7246 233.074 35.2995 232.545 35.7045L237.41 42.0555C239.388 40.5405 240.716 38.5021 241.442 36.132L233.793 33.788ZM232.545 35.7045C232.111 36.0369 231.451 36.32 230.298 36.32V44.32C232.877 44.32 235.337 43.6431 237.41 42.0555L232.545 35.7045ZM230.298 36.32C229.78 36.32 229.411 36.2204 229.123 36.0807L225.632 43.2793C227.104 43.9929 228.682 44.32 230.298 44.32V36.32ZM229.123 36.0807C228.838 35.9428 228.61 35.7566 228.403 35.4745L221.952 40.2055C222.918 41.5234 224.157 42.5639 225.632 43.2793L229.123 36.0807ZM228.755 36.0511C228.466 35.473 227.774 34.4557 226.392 33.9953C225.011 33.5348 223.847 33.9332 223.269 34.2223L226.846 41.3777C226.322 41.6401 225.204 42.0319 223.863 41.5847C222.521 41.1376 221.862 40.1537 221.6 39.6289L228.755 36.0511ZM225.058 33.8C224.414 33.8 223.197 33.9635 222.169 34.9916C221.141 36.0196 220.978 37.2368 220.978 37.88H228.978C228.978 38.4699 228.827 39.647 227.826 40.6484C226.825 41.6498 225.647 41.8 225.058 41.8V33.8ZM220.978 37.88V39.6H228.978V37.88H220.978ZM220.978 39.6C220.978 39.1168 221.101 38.0196 222.049 37.0716C222.997 36.1235 224.094 36 224.578 36V44C225.327 44 226.625 43.8098 227.706 42.7284C228.787 41.647 228.978 40.3499 228.978 39.6H220.978ZM224.578 36H222.538V44H224.578V36ZM222.538 36C223.021 36 224.118 36.1235 225.066 37.0716C226.014 38.0196 226.138 39.1168 226.138 39.6H218.138C218.138 40.3499 218.328 41.647 219.409 42.7284C220.49 43.8098 221.788 44 222.538 44V36ZM226.138 39.6V12.4H218.138V39.6H226.138ZM226.138 12.4C226.138 12.8832 226.014 13.9804 225.066 14.9284C224.118 15.8765 223.021 16 222.538 16V8C221.788 8 220.49 8.19018 219.409 9.27157C218.328 10.353 218.138 11.6501 218.138 12.4H226.138ZM222.538 16H224.578V8H222.538V16ZM224.578 16C224.094 16 222.997 15.8765 222.049 14.9284C221.101 13.9804 220.978 12.8832 220.978 12.4H228.978C228.978 11.6501 228.787 10.353 227.706 9.27157C226.625 8.19018 225.327 8 224.578 8V16ZM220.978 12.4V21.84H228.978V12.4H220.978ZM220.978 21.84C220.978 22.5099 221.148 23.7471 222.189 24.7884L227.846 19.1316C228.834 20.1196 228.978 21.2768 228.978 21.84H220.978ZM225.018 25.96C226.506 25.96 227.517 25.1978 228.006 24.7084L222.349 19.0516C222.732 18.6689 223.636 17.96 225.018 17.96V25.96ZM228.364 24.2975C228.567 24.0301 228.805 23.8332 229.123 23.6793L225.632 16.4807C224.19 17.1801 222.961 18.1833 221.991 19.4625L228.364 24.2975ZM229.123 23.6793C229.411 23.5396 229.78 23.44 230.298 23.44V15.44C228.682 15.44 227.104 15.7671 225.632 16.4807L229.123 23.6793ZM230.298 23.44C231.465 23.44 232.151 23.7297 232.615 24.088L237.5 17.752C235.404 16.137 232.917 15.44 230.298 15.44V23.44ZM232.658 24.12C233.158 24.4957 233.578 25.0457 233.847 26.003L241.548 23.837C240.857 21.381 239.517 19.2643 237.458 17.72L232.658 24.12ZM238.229 36.4397C238.683 35.4853 238.973 34.4772 239.131 33.4482L231.224 32.2318C231.169 32.5895 231.085 32.8347 231.006 33.0003L238.229 36.4397ZM239.134 33.4262C239.283 32.4225 239.338 31.2112 239.338 29.88H231.338C231.338 31.0555 231.285 31.8175 231.221 32.2538L239.134 33.4262ZM239.338 29.88C239.338 28.4682 239.256 27.1149 239.002 25.9723L231.193 27.7077C231.259 28.0051 231.338 28.6785 231.338 29.88H239.338ZM239.035 26.1368C238.836 25.0222 238.481 23.937 237.929 22.9246L230.906 26.7554C230.994 26.9163 231.092 27.1644 231.16 27.5432L239.035 26.1368ZM238.139 23.3739C237.503 21.7598 236.441 20.415 235.008 19.4271L230.467 26.0129C230.581 26.0916 230.638 26.1602 230.696 26.3061L238.139 23.3739ZM235.008 19.4271C233.479 18.3726 231.742 17.92 229.978 17.92V25.92C230.347 25.92 230.449 26.0007 230.467 26.0129L235.008 19.4271ZM229.978 17.92C228.177 17.92 226.437 18.4355 224.938 19.56L229.738 25.96C229.756 25.9461 229.762 25.9443 229.77 25.9417C229.782 25.938 229.843 25.92 229.978 25.92V17.92ZM224.957 19.5458C223.548 20.5892 222.571 21.9874 222.006 23.5887L229.549 26.2513C229.624 26.0392 229.687 25.9975 229.718 25.9742L224.957 19.5458ZM222.166 23.2003C221.725 24.1259 221.43 25.1085 221.244 26.1116L229.111 27.5684C229.192 27.1315 229.296 26.8341 229.389 26.6397L222.166 23.2003ZM221.221 26.2538C221.071 27.263 221.018 28.5051 221.018 29.88H229.018C229.018 28.6415 229.07 27.857 229.134 27.4262L221.221 26.2538ZM221.018 29.88C221.018 31.233 221.072 32.4597 221.221 33.4662L229.134 32.2938C229.07 31.8603 229.018 31.087 229.018 29.88H221.018ZM221.249 33.6354C221.429 34.567 221.692 35.4744 222.061 36.3357L229.414 33.1843C229.303 32.9256 229.193 32.5796 229.106 32.1246L221.249 33.6354ZM221.988 36.1527C222.569 37.717 223.522 39.0995 224.882 40.1574L229.793 33.8426C229.713 33.7805 229.6 33.6696 229.487 33.3673L221.988 36.1527ZM224.882 40.1574C226.418 41.3526 228.218 41.84 230.018 41.84V33.84C229.834 33.84 229.754 33.8162 229.744 33.8131C229.738 33.8114 229.744 33.8128 229.757 33.8196C229.77 33.8265 229.783 33.8348 229.793 33.8426L224.882 40.1574ZM230.018 41.84C231.833 41.84 233.624 41.3744 235.191 40.2769L230.604 33.7231C230.571 33.7456 230.442 33.84 230.018 33.84V41.84ZM235.141 40.3117C236.706 39.2514 237.818 37.767 238.412 35.9849L230.823 33.4551C230.791 33.5497 230.764 33.5885 230.754 33.601C230.745 33.6131 230.721 33.6428 230.654 33.6883L235.141 40.3117ZM259.22 26.48L255.26 27.0457L255.26 27.0457L259.22 26.48ZM245.9 31.12H241.9V31.1927L241.903 31.2654L245.9 31.12ZM246.14 33.96L250.026 33.0102L250.023 33L250.021 32.9899L246.14 33.96ZM248.02 36.8L250.362 33.5573L250.362 33.5573L248.02 36.8ZM254.66 37.08L252.618 33.6406L252.618 33.6406L254.66 37.08ZM256.66 34.92L253.332 32.7012L253.206 32.8894L253.103 33.0906L256.66 34.92ZM257.22 34.76L255.1 38.152L255.144 38.1793L255.188 38.2055L257.22 34.76ZM258.78 35.68L260.9 32.288L260.856 32.2607L260.812 32.2345L258.78 35.68ZM258.94 36.24L262.488 38.0877L262.545 37.9778L262.595 37.8646L258.94 36.24ZM255.94 39.28L257.841 42.7996L257.868 42.785L257.894 42.77L255.94 39.28ZM251.34 40.36L251.284 44.3596L251.312 44.36H251.34V40.36ZM246.58 39L248.846 35.7038L248.846 35.7038L246.58 39ZM243.82 35.32L247.588 33.9787L247.577 33.947L247.565 33.9155L243.82 35.32ZM243.14 27.08L239.151 26.7845L239.146 26.8553L239.143 26.9263L243.14 27.08ZM243.46 25.16L247.306 26.2589L247.318 26.2156L247.33 26.1721L243.46 25.16ZM246.18 21L243.78 17.8L243.765 17.8112L243.75 17.8226L246.18 21ZM256.78 21.28L259.518 18.3637L259.518 18.3637L256.78 21.28ZM247.9 22.96L250.363 26.1121L250.369 26.107L250.375 26.102L247.9 22.96ZM246.22 25.68L250.066 26.7789L250.093 26.6831L250.116 26.5861L246.22 25.68ZM245.9 28.4L241.904 28.2299L241.9 28.3149V28.4H245.9ZM256.58 28.4H260.58V28.3112L260.576 28.2224L256.58 28.4ZM256.34 25.84L260.254 25.016L260.241 24.9528L260.226 24.8902L256.34 25.84ZM254.54 23L252.007 26.0958L252.058 26.1375L252.11 26.1774L254.54 23ZM255.26 27.0457C255.331 27.5387 255.38 28.2679 255.38 29.28H263.38C263.38 28.0521 263.323 26.9146 263.18 25.9143L255.26 27.0457ZM255.38 29.28V30.56H263.38V29.28H255.38ZM255.38 30.56C255.38 30.0768 255.504 28.9796 256.452 28.0316C257.4 27.0835 258.497 26.96 258.98 26.96V34.96C259.73 34.96 261.027 34.7698 262.108 33.6884C263.19 32.607 263.38 31.3099 263.38 30.56H255.38ZM258.98 26.96H246.06V34.96H258.98V26.96ZM246.06 26.96C245.39 26.96 244.153 27.1302 243.112 28.1716C242.07 29.213 241.9 30.4501 241.9 31.12H249.9C249.9 31.6832 249.756 32.8404 248.768 33.8284C247.78 34.8165 246.623 34.96 246.06 34.96V26.96ZM241.903 31.2654C241.952 32.6272 242.032 34.0192 242.259 34.9301L250.021 32.9899C250.044 33.0819 250.042 33.1025 250.029 33.0038C250.017 32.9186 250.002 32.7851 249.986 32.5932C249.953 32.2079 249.923 31.6744 249.897 30.9746L241.903 31.2654ZM242.254 34.9098C242.763 36.9898 243.912 38.7672 245.678 40.0427L250.362 33.5573C250.208 33.4462 250.104 33.3302 250.026 33.0102L242.254 34.9098ZM245.678 40.0427C247.479 41.3437 249.587 41.84 251.7 41.84V33.84C250.826 33.84 250.481 33.6429 250.362 33.5573L245.678 40.0427ZM251.7 41.84C253.444 41.84 255.154 41.4384 256.702 40.5194L252.618 33.6406C252.459 33.7349 252.196 33.84 251.7 33.84V41.84ZM256.702 40.5194C258.24 39.6066 259.414 38.3108 260.217 36.7494L253.103 33.0906C252.946 33.3958 252.787 33.5401 252.618 33.6406L256.702 40.5194ZM259.988 37.1388C259.79 37.4367 259.191 38.2111 258.019 38.5461C256.723 38.9164 255.652 38.4971 255.1 38.152L259.34 31.368C258.574 30.8895 257.304 30.4303 255.821 30.8539C254.462 31.2423 253.69 32.1633 253.332 32.7012L259.988 37.1388ZM255.188 38.2055L256.748 39.1255L260.812 32.2345L259.252 31.3145L255.188 38.2055ZM256.66 39.072C256.183 38.7736 255.452 38.1314 255.134 37.0189C254.824 35.9357 255.092 35.0498 255.285 34.6154L262.595 37.8646C262.895 37.1902 263.189 36.0909 262.826 34.8211C262.455 33.5219 261.591 32.7197 260.9 32.288L256.66 39.072ZM255.392 34.3923C255.107 34.9398 254.681 35.4004 253.986 35.79L257.894 42.77C259.865 41.6663 261.44 40.1002 262.488 38.0877L255.392 34.3923ZM254.039 35.7604C253.369 36.1222 252.506 36.36 251.34 36.36V44.36C253.64 44.36 255.844 43.8778 257.841 42.7996L254.039 35.7604ZM251.396 36.3604C250.118 36.3424 249.345 36.0466 248.846 35.7038L244.314 42.2962C246.375 43.7134 248.775 44.3243 251.284 44.3596L251.396 36.3604ZM248.846 35.7038C248.313 35.3376 247.888 34.8216 247.588 33.9787L240.052 36.6613C240.872 38.9651 242.287 40.9024 244.314 42.2962L248.846 35.7038ZM247.565 33.9155C247.335 33.3021 247.1 32.0264 247.1 29.8H239.1C239.1 32.3736 239.345 34.7779 240.075 36.7245L247.565 33.9155ZM247.1 29.8C247.1 28.7043 247.113 27.8546 247.137 27.2337L239.143 26.9263C239.114 27.6921 239.1 28.6557 239.1 29.8H247.1ZM247.129 27.3755C247.167 26.8657 247.236 26.5031 247.306 26.2589L239.614 24.0611C239.364 24.9369 239.22 25.8543 239.151 26.7845L247.129 27.3755ZM247.33 26.1721C247.569 25.2577 247.992 24.6498 248.61 24.1774L243.75 17.8226C241.648 19.4302 240.258 21.5956 239.59 24.1479L247.33 26.1721ZM248.58 24.2C249.19 23.7426 249.987 23.44 251.18 23.44V15.44C248.48 15.44 245.943 16.1774 243.78 17.8L248.58 24.2ZM251.18 23.44C252.956 23.44 253.707 23.8816 254.042 24.1963L259.518 18.3637C257.24 16.2251 254.257 15.44 251.18 15.44V23.44ZM254.042 24.1963C254.528 24.6527 255.034 25.4644 255.26 27.0457L263.18 25.9143C262.766 23.0156 261.645 20.3606 259.518 18.3637L254.042 24.1963ZM251.18 17.92C249.131 17.92 247.123 18.4795 245.425 19.818L250.375 26.102C250.437 26.0538 250.615 25.92 251.18 25.92V17.92ZM245.437 19.8079C243.799 21.0877 242.778 22.8197 242.324 24.7739L250.116 26.5861C250.195 26.2469 250.294 26.1656 250.363 26.1121L245.437 19.8079ZM242.374 24.5811C242.075 25.6264 241.959 26.9369 241.904 28.2299L249.896 28.5701C249.92 28.0089 249.954 27.5732 249.993 27.2474C250.033 26.9023 250.069 26.7704 250.066 26.7789L242.374 24.5811ZM241.9 28.4C241.9 29.0699 242.07 30.307 243.112 31.3484C244.153 32.3898 245.39 32.56 246.06 32.56V24.56C246.623 24.56 247.78 24.7035 248.768 25.6916C249.756 26.6796 249.9 27.8368 249.9 28.4H241.9ZM246.06 32.56H256.42V24.56H246.06V32.56ZM256.42 32.56C257.09 32.56 258.327 32.3898 259.368 31.3484C260.41 30.307 260.58 29.0699 260.58 28.4H252.58C252.58 27.8368 252.724 26.6796 253.712 25.6916C254.7 24.7035 255.857 24.56 256.42 24.56V32.56ZM260.576 28.2224C260.522 27.0131 260.434 25.8718 260.254 25.016L252.426 26.664C252.459 26.8216 252.531 27.3869 252.584 28.5776L260.576 28.2224ZM260.226 24.8902C259.735 22.8814 258.663 21.1175 256.97 19.8226L252.11 26.1774C252.23 26.2692 252.359 26.3986 252.454 26.7898L260.226 24.8902ZM257.073 19.9042C255.345 18.4903 253.275 17.92 251.18 17.92V25.92C251.805 25.92 251.975 26.0697 252.007 26.0958L257.073 19.9042Z" fill="#1B1E2B" mask="url(#path-1-outside-1_134_63910)"/>
<defs>
<linearGradient id="paint0_linear_134_63910" x1="137.5" y1="15.2727" x2="137.5" y2="48" gradientUnits="userSpaceOnUse">
<stop stop-color="#DFCCA7"/>
<stop offset="1" stop-color="#9F723D"/>
</linearGradient>
</defs>
</svg>
