<svg width="100%" height="100%" viewBox="0 0 81 250" fill="none" xmlns="http://www.w3.org/2000/svg">
<g clip-path="url(#clip0_16_66409)">
<mask id="mask0_16_66409" style="mask-type:luminance" maskUnits="userSpaceOnUse" x="0" y="0" width="81" height="250">
<path d="M0 250H81V0H0V250Z" fill="white"/>
</mask>
<g mask="url(#mask0_16_66409)">
<mask id="mask1_16_66409" style="mask-type:alpha" maskUnits="userSpaceOnUse" x="12" y="9" width="57" height="243">
<path d="M40.6 9L68.6592 252H12.5408L40.6 9Z" fill="#415496"/>
</mask>
<g mask="url(#mask1_16_66409)">
<mask id="mask2_16_66409" style="mask-type:luminance" maskUnits="userSpaceOnUse" x="-69" y="-37" width="219" height="335">
<path d="M-69 298H150V-37H-69V298Z" fill="white"/>
</mask>
<g mask="url(#mask2_16_66409)">
<path d="M-69 298H150V-37H-69V298Z" fill="#0F1744"/>
<path d="M68 246C66.8954 246 66 246.895 66 248C66 249.105 66.8954 250 68 250C69.1046 250 70 249.105 70 248C70 246.895 69.1046 246 68 246Z" fill="#22274A"/>
<path d="M60 246C58.8954 246 58 246.895 58 248C58 249.105 58.8954 250 60 250C61.1046 250 62 249.105 62 248C62 246.895 61.1046 246 60 246Z" fill="#22274A"/>
<path d="M52 246C50.8954 246 50 246.895 50 248C50 249.105 50.8954 250 52 250C53.1046 250 54 249.105 54 248C54 246.895 53.1046 246 52 246Z" fill="#22274A"/>
<path d="M44 246C42.8954 246 42 246.895 42 248C42 249.105 42.8954 250 44 250C45.1046 250 46 249.105 46 248C46 246.895 45.1046 246 44 246Z" fill="#22274A"/>
<path d="M36 246C34.8954 246 34 246.895 34 248C34 249.105 34.8954 250 36 250C37.1046 250 38 249.105 38 248C38 246.895 37.1046 246 36 246Z" fill="#22274A"/>
<path d="M28 246C26.8954 246 26 246.895 26 248C26 249.105 26.8954 250 28 250C29.1046 250 30 249.105 30 248C30 246.895 29.1046 246 28 246Z" fill="#22274A"/>
<path d="M20 246C18.8954 246 18 246.895 18 248C18 249.105 18.8954 250 20 250C21.1046 250 22 249.105 22 248C22 246.895 21.1046 246 20 246Z" fill="#22274A"/>
<path d="M12 246C10.8954 246 10 246.895 10 248C10 249.105 10.8954 250 12 250C13.1046 250 14 249.105 14 248C14 246.895 13.1046 246 12 246Z" fill="#22274A"/>
<path d="M64 240C62.8954 240 62 240.895 62 242C62 243.105 62.8954 244 64 244C65.1046 244 66 243.105 66 242C66 240.895 65.1046 240 64 240Z" fill="#22274A"/>
<path d="M56 240C54.8954 240 54 240.895 54 242C54 243.105 54.8954 244 56 244C57.1046 244 58 243.105 58 242C58 240.895 57.1046 240 56 240Z" fill="#22274A"/>
<path d="M48 240C46.8954 240 46 240.895 46 242C46 243.105 46.8954 244 48 244C49.1046 244 50 243.105 50 242C50 240.895 49.1046 240 48 240Z" fill="#22274A"/>
<path d="M40 240C38.8954 240 38 240.895 38 242C38 243.105 38.8954 244 40 244C41.1046 244 42 243.105 42 242C42 240.895 41.1046 240 40 240Z" fill="#22274A"/>
<path d="M32 240C30.8954 240 30 240.895 30 242C30 243.105 30.8954 244 32 244C33.1046 244 34 243.105 34 242C34 240.895 33.1046 240 32 240Z" fill="#22274A"/>
<path d="M24 240C22.8954 240 22 240.895 22 242C22 243.105 22.8954 244 24 244C25.1046 244 26 243.105 26 242C26 240.895 25.1046 240 24 240Z" fill="#22274A"/>
<path d="M16 240C14.8954 240 14 240.895 14 242C14 243.105 14.8954 244 16 244C17.1046 244 18 243.105 18 242C18 240.895 17.1046 240 16 240Z" fill="#22274A"/>
<path d="M68 234C66.8954 234 66 234.895 66 236C66 237.105 66.8954 238 68 238C69.1046 238 70 237.105 70 236C70 234.895 69.1046 234 68 234Z" fill="#22274A"/>
<path d="M60 234C58.8954 234 58 234.895 58 236C58 237.105 58.8954 238 60 238C61.1046 238 62 237.105 62 236C62 234.895 61.1046 234 60 234Z" fill="#22274A"/>
<path d="M52 234C50.8954 234 50 234.895 50 236C50 237.105 50.8954 238 52 238C53.1046 238 54 237.105 54 236C54 234.895 53.1046 234 52 234Z" fill="#22274A"/>
<path d="M44 234C42.8954 234 42 234.895 42 236C42 237.105 42.8954 238 44 238C45.1046 238 46 237.105 46 236C46 234.895 45.1046 234 44 234Z" fill="#22274A"/>
<path d="M36 234C34.8954 234 34 234.895 34 236C34 237.105 34.8954 238 36 238C37.1046 238 38 237.105 38 236C38 234.895 37.1046 234 36 234Z" fill="#22274A"/>
<path d="M28 234C26.8954 234 26 234.895 26 236C26 237.105 26.8954 238 28 238C29.1046 238 30 237.105 30 236C30 234.895 29.1046 234 28 234Z" fill="#22274A"/>
<path d="M20 234C18.8954 234 18 234.895 18 236C18 237.105 18.8954 238 20 238C21.1046 238 22 237.105 22 236C22 234.895 21.1046 234 20 234Z" fill="#22274A"/>
<path d="M12 234C10.8954 234 10 234.895 10 236C10 237.105 10.8954 238 12 238C13.1046 238 14 237.105 14 236C14 234.895 13.1046 234 12 234Z" fill="#22274A"/>
<path d="M64 228C62.8954 228 62 228.895 62 230C62 231.105 62.8954 232 64 232C65.1046 232 66 231.105 66 230C66 228.895 65.1046 228 64 228Z" fill="#22274A"/>
<path d="M56 228C54.8954 228 54 228.895 54 230C54 231.105 54.8954 232 56 232C57.1046 232 58 231.105 58 230C58 228.895 57.1046 228 56 228Z" fill="#22274A"/>
<path d="M48 228C46.8954 228 46 228.895 46 230C46 231.105 46.8954 232 48 232C49.1046 232 50 231.105 50 230C50 228.895 49.1046 228 48 228Z" fill="#22274A"/>
<path d="M40 228C38.8954 228 38 228.895 38 230C38 231.105 38.8954 232 40 232C41.1046 232 42 231.105 42 230C42 228.895 41.1046 228 40 228Z" fill="#22274A"/>
<path d="M32 228C30.8954 228 30 228.895 30 230C30 231.105 30.8954 232 32 232C33.1046 232 34 231.105 34 230C34 228.895 33.1046 228 32 228Z" fill="#22274A"/>
<path d="M24 228C22.8954 228 22 228.895 22 230C22 231.105 22.8954 232 24 232C25.1046 232 26 231.105 26 230C26 228.895 25.1046 228 24 228Z" fill="#22274A"/>
<path d="M16 228C14.8954 228 14 228.895 14 230C14 231.105 14.8954 232 16 232C17.1046 232 18 231.105 18 230C18 228.895 17.1046 228 16 228Z" fill="#22274A"/>
<path d="M68 222C66.8954 222 66 222.895 66 224C66 225.105 66.8954 226 68 226C69.1046 226 70 225.105 70 224C70 222.895 69.1046 222 68 222Z" fill="#22274A"/>
<path d="M60 222C58.8954 222 58 222.895 58 224C58 225.105 58.8954 226 60 226C61.1046 226 62 225.105 62 224C62 222.895 61.1046 222 60 222Z" fill="#22274A"/>
<path d="M52 222C50.8954 222 50 222.895 50 224C50 225.105 50.8954 226 52 226C53.1046 226 54 225.105 54 224C54 222.895 53.1046 222 52 222Z" fill="#22274A"/>
<path d="M44 222C42.8954 222 42 222.895 42 224C42 225.105 42.8954 226 44 226C45.1046 226 46 225.105 46 224C46 222.895 45.1046 222 44 222Z" fill="#22274A"/>
<path d="M36 222C34.8954 222 34 222.895 34 224C34 225.105 34.8954 226 36 226C37.1046 226 38 225.105 38 224C38 222.895 37.1046 222 36 222Z" fill="#22274A"/>
<path d="M28 222C26.8954 222 26 222.895 26 224C26 225.105 26.8954 226 28 226C29.1046 226 30 225.105 30 224C30 222.895 29.1046 222 28 222Z" fill="#22274A"/>
<path d="M20 222C18.8954 222 18 222.895 18 224C18 225.105 18.8954 226 20 226C21.1046 226 22 225.105 22 224C22 222.895 21.1046 222 20 222Z" fill="#22274A"/>
<path d="M12 222C10.8954 222 10 222.895 10 224C10 225.105 10.8954 226 12 226C13.1046 226 14 225.105 14 224C14 222.895 13.1046 222 12 222Z" fill="#22274A"/>
<path d="M64 216C62.8954 216 62 216.895 62 218C62 219.105 62.8954 220 64 220C65.1046 220 66 219.105 66 218C66 216.895 65.1046 216 64 216Z" fill="#22274A"/>
<path d="M56 216C54.8954 216 54 216.895 54 218C54 219.105 54.8954 220 56 220C57.1046 220 58 219.105 58 218C58 216.895 57.1046 216 56 216Z" fill="#22274A"/>
<path d="M48 216C46.8954 216 46 216.895 46 218C46 219.105 46.8954 220 48 220C49.1046 220 50 219.105 50 218C50 216.895 49.1046 216 48 216Z" fill="#22274A"/>
<path d="M40 216C38.8954 216 38 216.895 38 218C38 219.105 38.8954 220 40 220C41.1046 220 42 219.105 42 218C42 216.895 41.1046 216 40 216Z" fill="#22274A"/>
<path d="M32 216C30.8954 216 30 216.895 30 218C30 219.105 30.8954 220 32 220C33.1046 220 34 219.105 34 218C34 216.895 33.1046 216 32 216Z" fill="#22274A"/>
<path d="M24 216C22.8954 216 22 216.895 22 218C22 219.105 22.8954 220 24 220C25.1046 220 26 219.105 26 218C26 216.895 25.1046 216 24 216Z" fill="#22274A"/>
<path d="M16 216C14.8954 216 14 216.895 14 218C14 219.105 14.8954 220 16 220C17.1046 220 18 219.105 18 218C18 216.895 17.1046 216 16 216Z" fill="#22274A"/>
<path d="M68 210C66.8954 210 66 210.895 66 212C66 213.105 66.8954 214 68 214C69.1046 214 70 213.105 70 212C70 210.895 69.1046 210 68 210Z" fill="#22274A"/>
<path d="M60 210C58.8954 210 58 210.895 58 212C58 213.105 58.8954 214 60 214C61.1046 214 62 213.105 62 212C62 210.895 61.1046 210 60 210Z" fill="#22274A"/>
<path d="M52 210C50.8954 210 50 210.895 50 212C50 213.105 50.8954 214 52 214C53.1046 214 54 213.105 54 212C54 210.895 53.1046 210 52 210Z" fill="#22274A"/>
<path d="M44 210C42.8954 210 42 210.895 42 212C42 213.105 42.8954 214 44 214C45.1046 214 46 213.105 46 212C46 210.895 45.1046 210 44 210Z" fill="#22274A"/>
<path d="M36 210C34.8954 210 34 210.895 34 212C34 213.105 34.8954 214 36 214C37.1046 214 38 213.105 38 212C38 210.895 37.1046 210 36 210Z" fill="#22274A"/>
<path d="M28 210C26.8954 210 26 210.895 26 212C26 213.105 26.8954 214 28 214C29.1046 214 30 213.105 30 212C30 210.895 29.1046 210 28 210Z" fill="#22274A"/>
<path d="M20 210C18.8954 210 18 210.895 18 212C18 213.105 18.8954 214 20 214C21.1046 214 22 213.105 22 212C22 210.895 21.1046 210 20 210Z" fill="#22274A"/>
<path d="M12 210C10.8954 210 10 210.895 10 212C10 213.105 10.8954 214 12 214C13.1046 214 14 213.105 14 212C14 210.895 13.1046 210 12 210Z" fill="#22274A"/>
<path d="M64 204C62.8954 204 62 204.895 62 206C62 207.105 62.8954 208 64 208C65.1046 208 66 207.105 66 206C66 204.895 65.1046 204 64 204Z" fill="#22274A"/>
<path d="M56 204C54.8954 204 54 204.895 54 206C54 207.105 54.8954 208 56 208C57.1046 208 58 207.105 58 206C58 204.895 57.1046 204 56 204Z" fill="#22274A"/>
<path d="M48 204C46.8954 204 46 204.895 46 206C46 207.105 46.8954 208 48 208C49.1046 208 50 207.105 50 206C50 204.895 49.1046 204 48 204Z" fill="#22274A"/>
<path d="M40 204C38.8954 204 38 204.895 38 206C38 207.105 38.8954 208 40 208C41.1046 208 42 207.105 42 206C42 204.895 41.1046 204 40 204Z" fill="#22274A"/>
<path d="M32 204C30.8954 204 30 204.895 30 206C30 207.105 30.8954 208 32 208C33.1046 208 34 207.105 34 206C34 204.895 33.1046 204 32 204Z" fill="#22274A"/>
<path d="M24 204C22.8954 204 22 204.895 22 206C22 207.105 22.8954 208 24 208C25.1046 208 26 207.105 26 206C26 204.895 25.1046 204 24 204Z" fill="#22274A"/>
<path d="M16 204C14.8954 204 14 204.895 14 206C14 207.105 14.8954 208 16 208C17.1046 208 18 207.105 18 206C18 204.895 17.1046 204 16 204Z" fill="#22274A"/>
<path d="M68 198C66.8954 198 66 198.895 66 200C66 201.105 66.8954 202 68 202C69.1046 202 70 201.105 70 200C70 198.895 69.1046 198 68 198Z" fill="#22274A"/>
<path d="M60 198C58.8954 198 58 198.895 58 200C58 201.105 58.8954 202 60 202C61.1046 202 62 201.105 62 200C62 198.895 61.1046 198 60 198Z" fill="#22274A"/>
<path d="M52 198C50.8954 198 50 198.895 50 200C50 201.105 50.8954 202 52 202C53.1046 202 54 201.105 54 200C54 198.895 53.1046 198 52 198Z" fill="#22274A"/>
<path d="M44 198C42.8954 198 42 198.895 42 200C42 201.105 42.8954 202 44 202C45.1046 202 46 201.105 46 200C46 198.895 45.1046 198 44 198Z" fill="#22274A"/>
<path d="M36 198C34.8954 198 34 198.895 34 200C34 201.105 34.8954 202 36 202C37.1046 202 38 201.105 38 200C38 198.895 37.1046 198 36 198Z" fill="#22274A"/>
<path d="M28 198C26.8954 198 26 198.895 26 200C26 201.105 26.8954 202 28 202C29.1046 202 30 201.105 30 200C30 198.895 29.1046 198 28 198Z" fill="#22274A"/>
<path d="M20 198C18.8954 198 18 198.895 18 200C18 201.105 18.8954 202 20 202C21.1046 202 22 201.105 22 200C22 198.895 21.1046 198 20 198Z" fill="#22274A"/>
<path d="M12 198C10.8954 198 10 198.895 10 200C10 201.105 10.8954 202 12 202C13.1046 202 14 201.105 14 200C14 198.895 13.1046 198 12 198Z" fill="#22274A"/>
<path d="M64 192C62.8954 192 62 192.895 62 194C62 195.105 62.8954 196 64 196C65.1046 196 66 195.105 66 194C66 192.895 65.1046 192 64 192Z" fill="#22274A"/>
<path d="M56 192C54.8954 192 54 192.895 54 194C54 195.105 54.8954 196 56 196C57.1046 196 58 195.105 58 194C58 192.895 57.1046 192 56 192Z" fill="#22274A"/>
<path d="M48 192C46.8954 192 46 192.895 46 194C46 195.105 46.8954 196 48 196C49.1046 196 50 195.105 50 194C50 192.895 49.1046 192 48 192Z" fill="#22274A"/>
<path d="M40 192C38.8954 192 38 192.895 38 194C38 195.105 38.8954 196 40 196C41.1046 196 42 195.105 42 194C42 192.895 41.1046 192 40 192Z" fill="#22274A"/>
<path d="M32 192C30.8954 192 30 192.895 30 194C30 195.105 30.8954 196 32 196C33.1046 196 34 195.105 34 194C34 192.895 33.1046 192 32 192Z" fill="#22274A"/>
<path d="M24 192C22.8954 192 22 192.895 22 194C22 195.105 22.8954 196 24 196C25.1046 196 26 195.105 26 194C26 192.895 25.1046 192 24 192Z" fill="#22274A"/>
<path d="M16 192C14.8954 192 14 192.895 14 194C14 195.105 14.8954 196 16 196C17.1046 196 18 195.105 18 194C18 192.895 17.1046 192 16 192Z" fill="#22274A"/>
<path d="M68 186C66.8954 186 66 186.895 66 188C66 189.105 66.8954 190 68 190C69.1046 190 70 189.105 70 188C70 186.895 69.1046 186 68 186Z" fill="#22274A"/>
<path d="M60 186C58.8954 186 58 186.895 58 188C58 189.105 58.8954 190 60 190C61.1046 190 62 189.105 62 188C62 186.895 61.1046 186 60 186Z" fill="#22274A"/>
<path d="M52 186C50.8954 186 50 186.895 50 188C50 189.105 50.8954 190 52 190C53.1046 190 54 189.105 54 188C54 186.895 53.1046 186 52 186Z" fill="#22274A"/>
<path d="M44 186C42.8954 186 42 186.895 42 188C42 189.105 42.8954 190 44 190C45.1046 190 46 189.105 46 188C46 186.895 45.1046 186 44 186Z" fill="#22274A"/>
<path d="M36 186C34.8954 186 34 186.895 34 188C34 189.105 34.8954 190 36 190C37.1046 190 38 189.105 38 188C38 186.895 37.1046 186 36 186Z" fill="#22274A"/>
<path d="M28 186C26.8954 186 26 186.895 26 188C26 189.105 26.8954 190 28 190C29.1046 190 30 189.105 30 188C30 186.895 29.1046 186 28 186Z" fill="#22274A"/>
<path d="M20 186C18.8954 186 18 186.895 18 188C18 189.105 18.8954 190 20 190C21.1046 190 22 189.105 22 188C22 186.895 21.1046 186 20 186Z" fill="#22274A"/>
<path d="M12 186C10.8954 186 10 186.895 10 188C10 189.105 10.8954 190 12 190C13.1046 190 14 189.105 14 188C14 186.895 13.1046 186 12 186Z" fill="#22274A"/>
<path d="M64 180C62.8954 180 62 180.895 62 182C62 183.105 62.8954 184 64 184C65.1046 184 66 183.105 66 182C66 180.895 65.1046 180 64 180Z" fill="#22274A"/>
<path d="M56 180C54.8954 180 54 180.895 54 182C54 183.105 54.8954 184 56 184C57.1046 184 58 183.105 58 182C58 180.895 57.1046 180 56 180Z" fill="#22274A"/>
<path d="M48 180C46.8954 180 46 180.895 46 182C46 183.105 46.8954 184 48 184C49.1046 184 50 183.105 50 182C50 180.895 49.1046 180 48 180Z" fill="#22274A"/>
<path d="M40 180C38.8954 180 38 180.895 38 182C38 183.105 38.8954 184 40 184C41.1046 184 42 183.105 42 182C42 180.895 41.1046 180 40 180Z" fill="#22274A"/>
<path d="M32 180C30.8954 180 30 180.895 30 182C30 183.105 30.8954 184 32 184C33.1046 184 34 183.105 34 182C34 180.895 33.1046 180 32 180Z" fill="#22274A"/>
<path d="M24 180C22.8954 180 22 180.895 22 182C22 183.105 22.8954 184 24 184C25.1046 184 26 183.105 26 182C26 180.895 25.1046 180 24 180Z" fill="#22274A"/>
<path d="M16 180C14.8954 180 14 180.895 14 182C14 183.105 14.8954 184 16 184C17.1046 184 18 183.105 18 182C18 180.895 17.1046 180 16 180Z" fill="#22274A"/>
<path d="M68 174C66.8954 174 66 174.895 66 176C66 177.105 66.8954 178 68 178C69.1046 178 70 177.105 70 176C70 174.895 69.1046 174 68 174Z" fill="#22274A"/>
<path d="M60 174C58.8954 174 58 174.895 58 176C58 177.105 58.8954 178 60 178C61.1046 178 62 177.105 62 176C62 174.895 61.1046 174 60 174Z" fill="#22274A"/>
<path d="M52 174C50.8954 174 50 174.895 50 176C50 177.105 50.8954 178 52 178C53.1046 178 54 177.105 54 176C54 174.895 53.1046 174 52 174Z" fill="#22274A"/>
<path d="M44 174C42.8954 174 42 174.895 42 176C42 177.105 42.8954 178 44 178C45.1046 178 46 177.105 46 176C46 174.895 45.1046 174 44 174Z" fill="#22274A"/>
<path d="M36 174C34.8954 174 34 174.895 34 176C34 177.105 34.8954 178 36 178C37.1046 178 38 177.105 38 176C38 174.895 37.1046 174 36 174Z" fill="#22274A"/>
<path d="M28 174C26.8954 174 26 174.895 26 176C26 177.105 26.8954 178 28 178C29.1046 178 30 177.105 30 176C30 174.895 29.1046 174 28 174Z" fill="#22274A"/>
<path d="M20 174C18.8954 174 18 174.895 18 176C18 177.105 18.8954 178 20 178C21.1046 178 22 177.105 22 176C22 174.895 21.1046 174 20 174Z" fill="#22274A"/>
<path d="M12 174C10.8954 174 10 174.895 10 176C10 177.105 10.8954 178 12 178C13.1046 178 14 177.105 14 176C14 174.895 13.1046 174 12 174Z" fill="#22274A"/>
<path d="M64 168C62.8954 168 62 168.895 62 170C62 171.105 62.8954 172 64 172C65.1046 172 66 171.105 66 170C66 168.895 65.1046 168 64 168Z" fill="#22274A"/>
<path d="M56 168C54.8954 168 54 168.895 54 170C54 171.105 54.8954 172 56 172C57.1046 172 58 171.105 58 170C58 168.895 57.1046 168 56 168Z" fill="#22274A"/>
<path d="M48 168C46.8954 168 46 168.895 46 170C46 171.105 46.8954 172 48 172C49.1046 172 50 171.105 50 170C50 168.895 49.1046 168 48 168Z" fill="#22274A"/>
<path d="M40 168C38.8954 168 38 168.895 38 170C38 171.105 38.8954 172 40 172C41.1046 172 42 171.105 42 170C42 168.895 41.1046 168 40 168Z" fill="#22274A"/>
<path d="M32 168C30.8954 168 30 168.895 30 170C30 171.105 30.8954 172 32 172C33.1046 172 34 171.105 34 170C34 168.895 33.1046 168 32 168Z" fill="#22274A"/>
<path d="M24 168C22.8954 168 22 168.895 22 170C22 171.105 22.8954 172 24 172C25.1046 172 26 171.105 26 170C26 168.895 25.1046 168 24 168Z" fill="#22274A"/>
<path d="M16 168C14.8954 168 14 168.895 14 170C14 171.105 14.8954 172 16 172C17.1046 172 18 171.105 18 170C18 168.895 17.1046 168 16 168Z" fill="#22274A"/>
<path d="M68 162C66.8954 162 66 162.895 66 164C66 165.105 66.8954 166 68 166C69.1046 166 70 165.105 70 164C70 162.895 69.1046 162 68 162Z" fill="#22274A"/>
<path d="M60 162C58.8954 162 58 162.895 58 164C58 165.105 58.8954 166 60 166C61.1046 166 62 165.105 62 164C62 162.895 61.1046 162 60 162Z" fill="#22274A"/>
<path d="M52 162C50.8954 162 50 162.895 50 164C50 165.105 50.8954 166 52 166C53.1046 166 54 165.105 54 164C54 162.895 53.1046 162 52 162Z" fill="#22274A"/>
<path d="M44 162C42.8954 162 42 162.895 42 164C42 165.105 42.8954 166 44 166C45.1046 166 46 165.105 46 164C46 162.895 45.1046 162 44 162Z" fill="#22274A"/>
<path d="M36 162C34.8954 162 34 162.895 34 164C34 165.105 34.8954 166 36 166C37.1046 166 38 165.105 38 164C38 162.895 37.1046 162 36 162Z" fill="#22274A"/>
<path d="M28 162C26.8954 162 26 162.895 26 164C26 165.105 26.8954 166 28 166C29.1046 166 30 165.105 30 164C30 162.895 29.1046 162 28 162Z" fill="#22274A"/>
<path d="M20 162C18.8954 162 18 162.895 18 164C18 165.105 18.8954 166 20 166C21.1046 166 22 165.105 22 164C22 162.895 21.1046 162 20 162Z" fill="#22274A"/>
<path d="M12 162C10.8954 162 10 162.895 10 164C10 165.105 10.8954 166 12 166C13.1046 166 14 165.105 14 164C14 162.895 13.1046 162 12 162Z" fill="#22274A"/>
<path d="M64 156C62.8954 156 62 156.895 62 158C62 159.105 62.8954 160 64 160C65.1046 160 66 159.105 66 158C66 156.895 65.1046 156 64 156Z" fill="#22274A"/>
<path d="M56 156C54.8954 156 54 156.895 54 158C54 159.105 54.8954 160 56 160C57.1046 160 58 159.105 58 158C58 156.895 57.1046 156 56 156Z" fill="#22274A"/>
<path d="M48 156C46.8954 156 46 156.895 46 158C46 159.105 46.8954 160 48 160C49.1046 160 50 159.105 50 158C50 156.895 49.1046 156 48 156Z" fill="#22274A"/>
<path d="M40 156C38.8954 156 38 156.895 38 158C38 159.105 38.8954 160 40 160C41.1046 160 42 159.105 42 158C42 156.895 41.1046 156 40 156Z" fill="#22274A"/>
<path d="M32 156C30.8954 156 30 156.895 30 158C30 159.105 30.8954 160 32 160C33.1046 160 34 159.105 34 158C34 156.895 33.1046 156 32 156Z" fill="#22274A"/>
<path d="M24 156C22.8954 156 22 156.895 22 158C22 159.105 22.8954 160 24 160C25.1046 160 26 159.105 26 158C26 156.895 25.1046 156 24 156Z" fill="#22274A"/>
<path d="M16 156C14.8954 156 14 156.895 14 158C14 159.105 14.8954 160 16 160C17.1046 160 18 159.105 18 158C18 156.895 17.1046 156 16 156Z" fill="#22274A"/>
<path d="M68 150C66.8954 150 66 150.895 66 152C66 153.105 66.8954 154 68 154C69.1046 154 70 153.105 70 152C70 150.895 69.1046 150 68 150Z" fill="#22274A"/>
<path d="M60 150C58.8954 150 58 150.895 58 152C58 153.105 58.8954 154 60 154C61.1046 154 62 153.105 62 152C62 150.895 61.1046 150 60 150Z" fill="#22274A"/>
<path d="M52 150C50.8954 150 50 150.895 50 152C50 153.105 50.8954 154 52 154C53.1046 154 54 153.105 54 152C54 150.895 53.1046 150 52 150Z" fill="#22274A"/>
<path d="M44 150C42.8954 150 42 150.895 42 152C42 153.105 42.8954 154 44 154C45.1046 154 46 153.105 46 152C46 150.895 45.1046 150 44 150Z" fill="#22274A"/>
<path d="M36 150C34.8954 150 34 150.895 34 152C34 153.105 34.8954 154 36 154C37.1046 154 38 153.105 38 152C38 150.895 37.1046 150 36 150Z" fill="#22274A"/>
<path d="M28 150C26.8954 150 26 150.895 26 152C26 153.105 26.8954 154 28 154C29.1046 154 30 153.105 30 152C30 150.895 29.1046 150 28 150Z" fill="#22274A"/>
<path d="M20 150C18.8954 150 18 150.895 18 152C18 153.105 18.8954 154 20 154C21.1046 154 22 153.105 22 152C22 150.895 21.1046 150 20 150Z" fill="#22274A"/>
<path d="M12 150C10.8954 150 10 150.895 10 152C10 153.105 10.8954 154 12 154C13.1046 154 14 153.105 14 152C14 150.895 13.1046 150 12 150Z" fill="#22274A"/>
<path d="M64 144C62.8954 144 62 144.895 62 146C62 147.105 62.8954 148 64 148C65.1046 148 66 147.105 66 146C66 144.895 65.1046 144 64 144Z" fill="#22274A"/>
<path d="M56 144C54.8954 144 54 144.895 54 146C54 147.105 54.8954 148 56 148C57.1046 148 58 147.105 58 146C58 144.895 57.1046 144 56 144Z" fill="#22274A"/>
<path d="M48 144C46.8954 144 46 144.895 46 146C46 147.105 46.8954 148 48 148C49.1046 148 50 147.105 50 146C50 144.895 49.1046 144 48 144Z" fill="#22274A"/>
<path d="M40 144C38.8954 144 38 144.895 38 146C38 147.105 38.8954 148 40 148C41.1046 148 42 147.105 42 146C42 144.895 41.1046 144 40 144Z" fill="#22274A"/>
<path d="M32 144C30.8954 144 30 144.895 30 146C30 147.105 30.8954 148 32 148C33.1046 148 34 147.105 34 146C34 144.895 33.1046 144 32 144Z" fill="#22274A"/>
<path d="M24 144C22.8954 144 22 144.895 22 146C22 147.105 22.8954 148 24 148C25.1046 148 26 147.105 26 146C26 144.895 25.1046 144 24 144Z" fill="#22274A"/>
<path d="M16 144C14.8954 144 14 144.895 14 146C14 147.105 14.8954 148 16 148C17.1046 148 18 147.105 18 146C18 144.895 17.1046 144 16 144Z" fill="#22274A"/>
<path d="M68 138C66.8954 138 66 138.895 66 140C66 141.105 66.8954 142 68 142C69.1046 142 70 141.105 70 140C70 138.895 69.1046 138 68 138Z" fill="#22274A"/>
<path d="M60 138C58.8954 138 58 138.895 58 140C58 141.105 58.8954 142 60 142C61.1046 142 62 141.105 62 140C62 138.895 61.1046 138 60 138Z" fill="#22274A"/>
<path d="M52 138C50.8954 138 50 138.895 50 140C50 141.105 50.8954 142 52 142C53.1046 142 54 141.105 54 140C54 138.895 53.1046 138 52 138Z" fill="#22274A"/>
<path d="M44 138C42.8954 138 42 138.895 42 140C42 141.105 42.8954 142 44 142C45.1046 142 46 141.105 46 140C46 138.895 45.1046 138 44 138Z" fill="#22274A"/>
<path d="M36 138C34.8954 138 34 138.895 34 140C34 141.105 34.8954 142 36 142C37.1046 142 38 141.105 38 140C38 138.895 37.1046 138 36 138Z" fill="#22274A"/>
<path d="M28 138C26.8954 138 26 138.895 26 140C26 141.105 26.8954 142 28 142C29.1046 142 30 141.105 30 140C30 138.895 29.1046 138 28 138Z" fill="#22274A"/>
<path d="M20 138C18.8954 138 18 138.895 18 140C18 141.105 18.8954 142 20 142C21.1046 142 22 141.105 22 140C22 138.895 21.1046 138 20 138Z" fill="#22274A"/>
<path d="M12 138C10.8954 138 10 138.895 10 140C10 141.105 10.8954 142 12 142C13.1046 142 14 141.105 14 140C14 138.895 13.1046 138 12 138Z" fill="#22274A"/>
<path d="M64 132C62.8954 132 62 132.895 62 134C62 135.105 62.8954 136 64 136C65.1046 136 66 135.105 66 134C66 132.895 65.1046 132 64 132Z" fill="#22274A"/>
<path d="M56 132C54.8954 132 54 132.895 54 134C54 135.105 54.8954 136 56 136C57.1046 136 58 135.105 58 134C58 132.895 57.1046 132 56 132Z" fill="#22274A"/>
<path d="M48 132C46.8954 132 46 132.895 46 134C46 135.105 46.8954 136 48 136C49.1046 136 50 135.105 50 134C50 132.895 49.1046 132 48 132Z" fill="#22274A"/>
<path d="M40 132C38.8954 132 38 132.895 38 134C38 135.105 38.8954 136 40 136C41.1046 136 42 135.105 42 134C42 132.895 41.1046 132 40 132Z" fill="#22274A"/>
<path d="M32 132C30.8954 132 30 132.895 30 134C30 135.105 30.8954 136 32 136C33.1046 136 34 135.105 34 134C34 132.895 33.1046 132 32 132Z" fill="#22274A"/>
<path d="M24 132C22.8954 132 22 132.895 22 134C22 135.105 22.8954 136 24 136C25.1046 136 26 135.105 26 134C26 132.895 25.1046 132 24 132Z" fill="#22274A"/>
<path d="M16 132C14.8954 132 14 132.895 14 134C14 135.105 14.8954 136 16 136C17.1046 136 18 135.105 18 134C18 132.895 17.1046 132 16 132Z" fill="#22274A"/>
<path d="M68 126C66.8954 126 66 126.895 66 128C66 129.105 66.8954 130 68 130C69.1046 130 70 129.105 70 128C70 126.895 69.1046 126 68 126Z" fill="#22274A"/>
<path d="M60 126C58.8954 126 58 126.895 58 128C58 129.105 58.8954 130 60 130C61.1046 130 62 129.105 62 128C62 126.895 61.1046 126 60 126Z" fill="#22274A"/>
<path d="M52 126C50.8954 126 50 126.895 50 128C50 129.105 50.8954 130 52 130C53.1046 130 54 129.105 54 128C54 126.895 53.1046 126 52 126Z" fill="#22274A"/>
<path d="M44 126C42.8954 126 42 126.895 42 128C42 129.105 42.8954 130 44 130C45.1046 130 46 129.105 46 128C46 126.895 45.1046 126 44 126Z" fill="#22274A"/>
<path d="M36 126C34.8954 126 34 126.895 34 128C34 129.105 34.8954 130 36 130C37.1046 130 38 129.105 38 128C38 126.895 37.1046 126 36 126Z" fill="#22274A"/>
<path d="M28 126C26.8954 126 26 126.895 26 128C26 129.105 26.8954 130 28 130C29.1046 130 30 129.105 30 128C30 126.895 29.1046 126 28 126Z" fill="#22274A"/>
<path d="M20 126C18.8954 126 18 126.895 18 128C18 129.105 18.8954 130 20 130C21.1046 130 22 129.105 22 128C22 126.895 21.1046 126 20 126Z" fill="#22274A"/>
<path d="M12 126C10.8954 126 10 126.895 10 128C10 129.105 10.8954 130 12 130C13.1046 130 14 129.105 14 128C14 126.895 13.1046 126 12 126Z" fill="#22274A"/>
<path d="M64 120C62.8954 120 62 120.895 62 122C62 123.105 62.8954 124 64 124C65.1046 124 66 123.105 66 122C66 120.895 65.1046 120 64 120Z" fill="#22274A"/>
<path d="M56 120C54.8954 120 54 120.895 54 122C54 123.105 54.8954 124 56 124C57.1046 124 58 123.105 58 122C58 120.895 57.1046 120 56 120Z" fill="#22274A"/>
<path d="M48 120C46.8954 120 46 120.895 46 122C46 123.105 46.8954 124 48 124C49.1046 124 50 123.105 50 122C50 120.895 49.1046 120 48 120Z" fill="#22274A"/>
<path d="M40 120C38.8954 120 38 120.895 38 122C38 123.105 38.8954 124 40 124C41.1046 124 42 123.105 42 122C42 120.895 41.1046 120 40 120Z" fill="#22274A"/>
<path d="M32 120C30.8954 120 30 120.895 30 122C30 123.105 30.8954 124 32 124C33.1046 124 34 123.105 34 122C34 120.895 33.1046 120 32 120Z" fill="#22274A"/>
<path d="M24 120C22.8954 120 22 120.895 22 122C22 123.105 22.8954 124 24 124C25.1046 124 26 123.105 26 122C26 120.895 25.1046 120 24 120Z" fill="#22274A"/>
<path d="M16 120C14.8954 120 14 120.895 14 122C14 123.105 14.8954 124 16 124C17.1046 124 18 123.105 18 122C18 120.895 17.1046 120 16 120Z" fill="#22274A"/>
<path d="M68 114C66.8954 114 66 114.895 66 116C66 117.105 66.8954 118 68 118C69.1046 118 70 117.105 70 116C70 114.895 69.1046 114 68 114Z" fill="#22274A"/>
<path d="M60 114C58.8954 114 58 114.895 58 116C58 117.105 58.8954 118 60 118C61.1046 118 62 117.105 62 116C62 114.895 61.1046 114 60 114Z" fill="#22274A"/>
<path d="M52 114C50.8954 114 50 114.895 50 116C50 117.105 50.8954 118 52 118C53.1046 118 54 117.105 54 116C54 114.895 53.1046 114 52 114Z" fill="#22274A"/>
<path d="M44 114C42.8954 114 42 114.895 42 116C42 117.105 42.8954 118 44 118C45.1046 118 46 117.105 46 116C46 114.895 45.1046 114 44 114Z" fill="#22274A"/>
<path d="M36 114C34.8954 114 34 114.895 34 116C34 117.105 34.8954 118 36 118C37.1046 118 38 117.105 38 116C38 114.895 37.1046 114 36 114Z" fill="#22274A"/>
<path d="M28 114C26.8954 114 26 114.895 26 116C26 117.105 26.8954 118 28 118C29.1046 118 30 117.105 30 116C30 114.895 29.1046 114 28 114Z" fill="#22274A"/>
<path d="M20 114C18.8954 114 18 114.895 18 116C18 117.105 18.8954 118 20 118C21.1046 118 22 117.105 22 116C22 114.895 21.1046 114 20 114Z" fill="#22274A"/>
<path d="M12 114C10.8954 114 10 114.895 10 116C10 117.105 10.8954 118 12 118C13.1046 118 14 117.105 14 116C14 114.895 13.1046 114 12 114Z" fill="#22274A"/>
<path d="M64 108C62.8954 108 62 108.895 62 110C62 111.105 62.8954 112 64 112C65.1046 112 66 111.105 66 110C66 108.895 65.1046 108 64 108Z" fill="#22274A"/>
<path d="M56 108C54.8954 108 54 108.895 54 110C54 111.105 54.8954 112 56 112C57.1046 112 58 111.105 58 110C58 108.895 57.1046 108 56 108Z" fill="#22274A"/>
<path d="M48 108C46.8954 108 46 108.895 46 110C46 111.105 46.8954 112 48 112C49.1046 112 50 111.105 50 110C50 108.895 49.1046 108 48 108Z" fill="#22274A"/>
<path d="M40 108C38.8954 108 38 108.895 38 110C38 111.105 38.8954 112 40 112C41.1046 112 42 111.105 42 110C42 108.895 41.1046 108 40 108Z" fill="#22274A"/>
<path d="M32 108C30.8954 108 30 108.895 30 110C30 111.105 30.8954 112 32 112C33.1046 112 34 111.105 34 110C34 108.895 33.1046 108 32 108Z" fill="#22274A"/>
<path d="M24 108C22.8954 108 22 108.895 22 110C22 111.105 22.8954 112 24 112C25.1046 112 26 111.105 26 110C26 108.895 25.1046 108 24 108Z" fill="#22274A"/>
<path d="M16 108C14.8954 108 14 108.895 14 110C14 111.105 14.8954 112 16 112C17.1046 112 18 111.105 18 110C18 108.895 17.1046 108 16 108Z" fill="#22274A"/>
<path d="M68 102C66.8954 102 66 102.895 66 104C66 105.105 66.8954 106 68 106C69.1046 106 70 105.105 70 104C70 102.895 69.1046 102 68 102Z" fill="#22274A"/>
<path d="M60 102C58.8954 102 58 102.895 58 104C58 105.105 58.8954 106 60 106C61.1046 106 62 105.105 62 104C62 102.895 61.1046 102 60 102Z" fill="#22274A"/>
<path d="M52 102C50.8954 102 50 102.895 50 104C50 105.105 50.8954 106 52 106C53.1046 106 54 105.105 54 104C54 102.895 53.1046 102 52 102Z" fill="#22274A"/>
<path d="M44 102C42.8954 102 42 102.895 42 104C42 105.105 42.8954 106 44 106C45.1046 106 46 105.105 46 104C46 102.895 45.1046 102 44 102Z" fill="#22274A"/>
<path d="M36 102C34.8954 102 34 102.895 34 104C34 105.105 34.8954 106 36 106C37.1046 106 38 105.105 38 104C38 102.895 37.1046 102 36 102Z" fill="#22274A"/>
<path d="M28 102C26.8954 102 26 102.895 26 104C26 105.105 26.8954 106 28 106C29.1046 106 30 105.105 30 104C30 102.895 29.1046 102 28 102Z" fill="#22274A"/>
<path d="M20 102C18.8954 102 18 102.895 18 104C18 105.105 18.8954 106 20 106C21.1046 106 22 105.105 22 104C22 102.895 21.1046 102 20 102Z" fill="#22274A"/>
<path d="M12 102C10.8954 102 10 102.895 10 104C10 105.105 10.8954 106 12 106C13.1046 106 14 105.105 14 104C14 102.895 13.1046 102 12 102Z" fill="#22274A"/>
<path d="M64 96C62.8954 96 62 96.8954 62 98C62 99.1046 62.8954 100 64 100C65.1046 100 66 99.1046 66 98C66 96.8954 65.1046 96 64 96Z" fill="#22274A"/>
<path d="M56 96C54.8954 96 54 96.8954 54 98C54 99.1046 54.8954 100 56 100C57.1046 100 58 99.1046 58 98C58 96.8954 57.1046 96 56 96Z" fill="#22274A"/>
<path d="M48 96C46.8954 96 46 96.8954 46 98C46 99.1046 46.8954 100 48 100C49.1046 100 50 99.1046 50 98C50 96.8954 49.1046 96 48 96Z" fill="#22274A"/>
<path d="M40 96C38.8954 96 38 96.8954 38 98C38 99.1046 38.8954 100 40 100C41.1046 100 42 99.1046 42 98C42 96.8954 41.1046 96 40 96Z" fill="#22274A"/>
<path d="M32 96C30.8954 96 30 96.8954 30 98C30 99.1046 30.8954 100 32 100C33.1046 100 34 99.1046 34 98C34 96.8954 33.1046 96 32 96Z" fill="#22274A"/>
<path d="M24 96C22.8954 96 22 96.8954 22 98C22 99.1046 22.8954 100 24 100C25.1046 100 26 99.1046 26 98C26 96.8954 25.1046 96 24 96Z" fill="#22274A"/>
<path d="M16 96C14.8954 96 14 96.8954 14 98C14 99.1046 14.8954 100 16 100C17.1046 100 18 99.1046 18 98C18 96.8954 17.1046 96 16 96Z" fill="#22274A"/>
<path d="M68 90C66.8954 90 66 90.8954 66 92C66 93.1046 66.8954 94 68 94C69.1046 94 70 93.1046 70 92C70 90.8954 69.1046 90 68 90Z" fill="#22274A"/>
<path d="M60 90C58.8954 90 58 90.8954 58 92C58 93.1046 58.8954 94 60 94C61.1046 94 62 93.1046 62 92C62 90.8954 61.1046 90 60 90Z" fill="#22274A"/>
<path d="M52 90C50.8954 90 50 90.8954 50 92C50 93.1046 50.8954 94 52 94C53.1046 94 54 93.1046 54 92C54 90.8954 53.1046 90 52 90Z" fill="#22274A"/>
<path d="M44 90C42.8954 90 42 90.8954 42 92C42 93.1046 42.8954 94 44 94C45.1046 94 46 93.1046 46 92C46 90.8954 45.1046 90 44 90Z" fill="#22274A"/>
<path d="M36 90C34.8954 90 34 90.8954 34 92C34 93.1046 34.8954 94 36 94C37.1046 94 38 93.1046 38 92C38 90.8954 37.1046 90 36 90Z" fill="#22274A"/>
<path d="M28 90C26.8954 90 26 90.8954 26 92C26 93.1046 26.8954 94 28 94C29.1046 94 30 93.1046 30 92C30 90.8954 29.1046 90 28 90Z" fill="#22274A"/>
<path d="M20 90C18.8954 90 18 90.8954 18 92C18 93.1046 18.8954 94 20 94C21.1046 94 22 93.1046 22 92C22 90.8954 21.1046 90 20 90Z" fill="#22274A"/>
<path d="M12 90C10.8954 90 10 90.8954 10 92C10 93.1046 10.8954 94 12 94C13.1046 94 14 93.1046 14 92C14 90.8954 13.1046 90 12 90Z" fill="#22274A"/>
<path d="M64 84C62.8954 84 62 84.8954 62 86C62 87.1046 62.8954 88 64 88C65.1046 88 66 87.1046 66 86C66 84.8954 65.1046 84 64 84Z" fill="#22274A"/>
<path d="M56 84C54.8954 84 54 84.8954 54 86C54 87.1046 54.8954 88 56 88C57.1046 88 58 87.1046 58 86C58 84.8954 57.1046 84 56 84Z" fill="#22274A"/>
<path d="M48 84C46.8954 84 46 84.8954 46 86C46 87.1046 46.8954 88 48 88C49.1046 88 50 87.1046 50 86C50 84.8954 49.1046 84 48 84Z" fill="#22274A"/>
<path d="M40 84C38.8954 84 38 84.8954 38 86C38 87.1046 38.8954 88 40 88C41.1046 88 42 87.1046 42 86C42 84.8954 41.1046 84 40 84Z" fill="#22274A"/>
<path d="M32 84C30.8954 84 30 84.8954 30 86C30 87.1046 30.8954 88 32 88C33.1046 88 34 87.1046 34 86C34 84.8954 33.1046 84 32 84Z" fill="#22274A"/>
<path d="M24 84C22.8954 84 22 84.8954 22 86C22 87.1046 22.8954 88 24 88C25.1046 88 26 87.1046 26 86C26 84.8954 25.1046 84 24 84Z" fill="#22274A"/>
<path d="M16 84C14.8954 84 14 84.8954 14 86C14 87.1046 14.8954 88 16 88C17.1046 88 18 87.1046 18 86C18 84.8954 17.1046 84 16 84Z" fill="#22274A"/>
<path d="M68 78C66.8954 78 66 78.8954 66 80C66 81.1046 66.8954 82 68 82C69.1046 82 70 81.1046 70 80C70 78.8954 69.1046 78 68 78Z" fill="#22274A"/>
<path d="M60 78C58.8954 78 58 78.8954 58 80C58 81.1046 58.8954 82 60 82C61.1046 82 62 81.1046 62 80C62 78.8954 61.1046 78 60 78Z" fill="#22274A"/>
<path d="M52 78C50.8954 78 50 78.8954 50 80C50 81.1046 50.8954 82 52 82C53.1046 82 54 81.1046 54 80C54 78.8954 53.1046 78 52 78Z" fill="#22274A"/>
<path d="M44 78C42.8954 78 42 78.8954 42 80C42 81.1046 42.8954 82 44 82C45.1046 82 46 81.1046 46 80C46 78.8954 45.1046 78 44 78Z" fill="#22274A"/>
<path d="M36 78C34.8954 78 34 78.8954 34 80C34 81.1046 34.8954 82 36 82C37.1046 82 38 81.1046 38 80C38 78.8954 37.1046 78 36 78Z" fill="#22274A"/>
<path d="M28 78C26.8954 78 26 78.8954 26 80C26 81.1046 26.8954 82 28 82C29.1046 82 30 81.1046 30 80C30 78.8954 29.1046 78 28 78Z" fill="#22274A"/>
<path d="M20 78C18.8954 78 18 78.8954 18 80C18 81.1046 18.8954 82 20 82C21.1046 82 22 81.1046 22 80C22 78.8954 21.1046 78 20 78Z" fill="#22274A"/>
<path d="M12 78C10.8954 78 10 78.8954 10 80C10 81.1046 10.8954 82 12 82C13.1046 82 14 81.1046 14 80C14 78.8954 13.1046 78 12 78Z" fill="#22274A"/>
<path d="M64 72C62.8954 72 62 72.8954 62 74C62 75.1046 62.8954 76 64 76C65.1046 76 66 75.1046 66 74C66 72.8954 65.1046 72 64 72Z" fill="#22274A"/>
<path d="M56 72C54.8954 72 54 72.8954 54 74C54 75.1046 54.8954 76 56 76C57.1046 76 58 75.1046 58 74C58 72.8954 57.1046 72 56 72Z" fill="#22274A"/>
<path d="M48 72C46.8954 72 46 72.8954 46 74C46 75.1046 46.8954 76 48 76C49.1046 76 50 75.1046 50 74C50 72.8954 49.1046 72 48 72Z" fill="#22274A"/>
<path d="M40 72C38.8954 72 38 72.8954 38 74C38 75.1046 38.8954 76 40 76C41.1046 76 42 75.1046 42 74C42 72.8954 41.1046 72 40 72Z" fill="#22274A"/>
<path d="M32 72C30.8954 72 30 72.8954 30 74C30 75.1046 30.8954 76 32 76C33.1046 76 34 75.1046 34 74C34 72.8954 33.1046 72 32 72Z" fill="#22274A"/>
<path d="M24 72C22.8954 72 22 72.8954 22 74C22 75.1046 22.8954 76 24 76C25.1046 76 26 75.1046 26 74C26 72.8954 25.1046 72 24 72Z" fill="#22274A"/>
<path d="M16 72C14.8954 72 14 72.8954 14 74C14 75.1046 14.8954 76 16 76C17.1046 76 18 75.1046 18 74C18 72.8954 17.1046 72 16 72Z" fill="#22274A"/>
<path d="M68 66C66.8954 66 66 66.8954 66 68C66 69.1046 66.8954 70 68 70C69.1046 70 70 69.1046 70 68C70 66.8954 69.1046 66 68 66Z" fill="#22274A"/>
<path d="M60 66C58.8954 66 58 66.8954 58 68C58 69.1046 58.8954 70 60 70C61.1046 70 62 69.1046 62 68C62 66.8954 61.1046 66 60 66Z" fill="#22274A"/>
<path d="M52 66C50.8954 66 50 66.8954 50 68C50 69.1046 50.8954 70 52 70C53.1046 70 54 69.1046 54 68C54 66.8954 53.1046 66 52 66Z" fill="#22274A"/>
<path d="M44 66C42.8954 66 42 66.8954 42 68C42 69.1046 42.8954 70 44 70C45.1046 70 46 69.1046 46 68C46 66.8954 45.1046 66 44 66Z" fill="#22274A"/>
<path d="M36 66C34.8954 66 34 66.8954 34 68C34 69.1046 34.8954 70 36 70C37.1046 70 38 69.1046 38 68C38 66.8954 37.1046 66 36 66Z" fill="#22274A"/>
<path d="M28 66C26.8954 66 26 66.8954 26 68C26 69.1046 26.8954 70 28 70C29.1046 70 30 69.1046 30 68C30 66.8954 29.1046 66 28 66Z" fill="#22274A"/>
<path d="M20 66C18.8954 66 18 66.8954 18 68C18 69.1046 18.8954 70 20 70C21.1046 70 22 69.1046 22 68C22 66.8954 21.1046 66 20 66Z" fill="#22274A"/>
<path d="M12 66C10.8954 66 10 66.8954 10 68C10 69.1046 10.8954 70 12 70C13.1046 70 14 69.1046 14 68C14 66.8954 13.1046 66 12 66Z" fill="#22274A"/>
<path d="M64 60C62.8954 60 62 60.8954 62 62C62 63.1046 62.8954 64 64 64C65.1046 64 66 63.1046 66 62C66 60.8954 65.1046 60 64 60Z" fill="#22274A"/>
<path d="M56 60C54.8954 60 54 60.8954 54 62C54 63.1046 54.8954 64 56 64C57.1046 64 58 63.1046 58 62C58 60.8954 57.1046 60 56 60Z" fill="#22274A"/>
<path d="M48 60C46.8954 60 46 60.8954 46 62C46 63.1046 46.8954 64 48 64C49.1046 64 50 63.1046 50 62C50 60.8954 49.1046 60 48 60Z" fill="#22274A"/>
<path d="M40 60C38.8954 60 38 60.8954 38 62C38 63.1046 38.8954 64 40 64C41.1046 64 42 63.1046 42 62C42 60.8954 41.1046 60 40 60Z" fill="#22274A"/>
<path d="M32 60C30.8954 60 30 60.8954 30 62C30 63.1046 30.8954 64 32 64C33.1046 64 34 63.1046 34 62C34 60.8954 33.1046 60 32 60Z" fill="#22274A"/>
<path d="M24 60C22.8954 60 22 60.8954 22 62C22 63.1046 22.8954 64 24 64C25.1046 64 26 63.1046 26 62C26 60.8954 25.1046 60 24 60Z" fill="#22274A"/>
<path d="M16 60C14.8954 60 14 60.8954 14 62C14 63.1046 14.8954 64 16 64C17.1046 64 18 63.1046 18 62C18 60.8954 17.1046 60 16 60Z" fill="#22274A"/>
<path d="M68 54C66.8954 54 66 54.8954 66 56C66 57.1046 66.8954 58 68 58C69.1046 58 70 57.1046 70 56C70 54.8954 69.1046 54 68 54Z" fill="#22274A"/>
<path d="M60 54C58.8954 54 58 54.8954 58 56C58 57.1046 58.8954 58 60 58C61.1046 58 62 57.1046 62 56C62 54.8954 61.1046 54 60 54Z" fill="#22274A"/>
<path d="M52 54C50.8954 54 50 54.8954 50 56C50 57.1046 50.8954 58 52 58C53.1046 58 54 57.1046 54 56C54 54.8954 53.1046 54 52 54Z" fill="#22274A"/>
<path d="M44 54C42.8954 54 42 54.8954 42 56C42 57.1046 42.8954 58 44 58C45.1046 58 46 57.1046 46 56C46 54.8954 45.1046 54 44 54Z" fill="#22274A"/>
<path d="M36 54C34.8954 54 34 54.8954 34 56C34 57.1046 34.8954 58 36 58C37.1046 58 38 57.1046 38 56C38 54.8954 37.1046 54 36 54Z" fill="#22274A"/>
<path d="M28 54C26.8954 54 26 54.8954 26 56C26 57.1046 26.8954 58 28 58C29.1046 58 30 57.1046 30 56C30 54.8954 29.1046 54 28 54Z" fill="#22274A"/>
<path d="M20 54C18.8954 54 18 54.8954 18 56C18 57.1046 18.8954 58 20 58C21.1046 58 22 57.1046 22 56C22 54.8954 21.1046 54 20 54Z" fill="#22274A"/>
<path d="M12 54C10.8954 54 10 54.8954 10 56C10 57.1046 10.8954 58 12 58C13.1046 58 14 57.1046 14 56C14 54.8954 13.1046 54 12 54Z" fill="#22274A"/>
<path d="M64 48C62.8954 48 62 48.8954 62 50C62 51.1046 62.8954 52 64 52C65.1046 52 66 51.1046 66 50C66 48.8954 65.1046 48 64 48Z" fill="#22274A"/>
<path d="M56 48C54.8954 48 54 48.8954 54 50C54 51.1046 54.8954 52 56 52C57.1046 52 58 51.1046 58 50C58 48.8954 57.1046 48 56 48Z" fill="#22274A"/>
<path d="M48 48C46.8954 48 46 48.8954 46 50C46 51.1046 46.8954 52 48 52C49.1046 52 50 51.1046 50 50C50 48.8954 49.1046 48 48 48Z" fill="#22274A"/>
<path d="M40 48C38.8954 48 38 48.8954 38 50C38 51.1046 38.8954 52 40 52C41.1046 52 42 51.1046 42 50C42 48.8954 41.1046 48 40 48Z" fill="#22274A"/>
<path d="M32 48C30.8954 48 30 48.8954 30 50C30 51.1046 30.8954 52 32 52C33.1046 52 34 51.1046 34 50C34 48.8954 33.1046 48 32 48Z" fill="#22274A"/>
<path d="M24 48C22.8954 48 22 48.8954 22 50C22 51.1046 22.8954 52 24 52C25.1046 52 26 51.1046 26 50C26 48.8954 25.1046 48 24 48Z" fill="#22274A"/>
<path d="M16 48C14.8954 48 14 48.8954 14 50C14 51.1046 14.8954 52 16 52C17.1046 52 18 51.1046 18 50C18 48.8954 17.1046 48 16 48Z" fill="#22274A"/>
<path d="M68 42C66.8954 42 66 42.8954 66 44C66 45.1046 66.8954 46 68 46C69.1046 46 70 45.1046 70 44C70 42.8954 69.1046 42 68 42Z" fill="#22274A"/>
<path d="M60 42C58.8954 42 58 42.8954 58 44C58 45.1046 58.8954 46 60 46C61.1046 46 62 45.1046 62 44C62 42.8954 61.1046 42 60 42Z" fill="#22274A"/>
<path d="M52 42C50.8954 42 50 42.8954 50 44C50 45.1046 50.8954 46 52 46C53.1046 46 54 45.1046 54 44C54 42.8954 53.1046 42 52 42Z" fill="#22274A"/>
<path d="M44 42C42.8954 42 42 42.8954 42 44C42 45.1046 42.8954 46 44 46C45.1046 46 46 45.1046 46 44C46 42.8954 45.1046 42 44 42Z" fill="#22274A"/>
<path d="M36 42C34.8954 42 34 42.8954 34 44C34 45.1046 34.8954 46 36 46C37.1046 46 38 45.1046 38 44C38 42.8954 37.1046 42 36 42Z" fill="#22274A"/>
<path d="M28 42C26.8954 42 26 42.8954 26 44C26 45.1046 26.8954 46 28 46C29.1046 46 30 45.1046 30 44C30 42.8954 29.1046 42 28 42Z" fill="#22274A"/>
<path d="M20 42C18.8954 42 18 42.8954 18 44C18 45.1046 18.8954 46 20 46C21.1046 46 22 45.1046 22 44C22 42.8954 21.1046 42 20 42Z" fill="#22274A"/>
<path d="M12 42C10.8954 42 10 42.8954 10 44C10 45.1046 10.8954 46 12 46C13.1046 46 14 45.1046 14 44C14 42.8954 13.1046 42 12 42Z" fill="#22274A"/>
<path d="M64 36C62.8954 36 62 36.8954 62 38C62 39.1046 62.8954 40 64 40C65.1046 40 66 39.1046 66 38C66 36.8954 65.1046 36 64 36Z" fill="#22274A"/>
<path d="M56 36C54.8954 36 54 36.8954 54 38C54 39.1046 54.8954 40 56 40C57.1046 40 58 39.1046 58 38C58 36.8954 57.1046 36 56 36Z" fill="#22274A"/>
<path d="M48 36C46.8954 36 46 36.8954 46 38C46 39.1046 46.8954 40 48 40C49.1046 40 50 39.1046 50 38C50 36.8954 49.1046 36 48 36Z" fill="#22274A"/>
<path d="M40 36C38.8954 36 38 36.8954 38 38C38 39.1046 38.8954 40 40 40C41.1046 40 42 39.1046 42 38C42 36.8954 41.1046 36 40 36Z" fill="#22274A"/>
<path d="M32 36C30.8954 36 30 36.8954 30 38C30 39.1046 30.8954 40 32 40C33.1046 40 34 39.1046 34 38C34 36.8954 33.1046 36 32 36Z" fill="#22274A"/>
<path d="M24 36C22.8954 36 22 36.8954 22 38C22 39.1046 22.8954 40 24 40C25.1046 40 26 39.1046 26 38C26 36.8954 25.1046 36 24 36Z" fill="#22274A"/>
<path d="M16 36C14.8954 36 14 36.8954 14 38C14 39.1046 14.8954 40 16 40C17.1046 40 18 39.1046 18 38C18 36.8954 17.1046 36 16 36Z" fill="#22274A"/>
<path d="M68 30C66.8954 30 66 30.8954 66 32C66 33.1046 66.8954 34 68 34C69.1046 34 70 33.1046 70 32C70 30.8954 69.1046 30 68 30Z" fill="#22274A"/>
<path d="M60 30C58.8954 30 58 30.8954 58 32C58 33.1046 58.8954 34 60 34C61.1046 34 62 33.1046 62 32C62 30.8954 61.1046 30 60 30Z" fill="#22274A"/>
<path d="M52 30C50.8954 30 50 30.8954 50 32C50 33.1046 50.8954 34 52 34C53.1046 34 54 33.1046 54 32C54 30.8954 53.1046 30 52 30Z" fill="#22274A"/>
<path d="M44 30C42.8954 30 42 30.8954 42 32C42 33.1046 42.8954 34 44 34C45.1046 34 46 33.1046 46 32C46 30.8954 45.1046 30 44 30Z" fill="#22274A"/>
<path d="M36 30C34.8954 30 34 30.8954 34 32C34 33.1046 34.8954 34 36 34C37.1046 34 38 33.1046 38 32C38 30.8954 37.1046 30 36 30Z" fill="#22274A"/>
<path d="M28 30C26.8954 30 26 30.8954 26 32C26 33.1046 26.8954 34 28 34C29.1046 34 30 33.1046 30 32C30 30.8954 29.1046 30 28 30Z" fill="#22274A"/>
<path d="M20 30C18.8954 30 18 30.8954 18 32C18 33.1046 18.8954 34 20 34C21.1046 34 22 33.1046 22 32C22 30.8954 21.1046 30 20 30Z" fill="#22274A"/>
<path d="M12 30C10.8954 30 10 30.8954 10 32C10 33.1046 10.8954 34 12 34C13.1046 34 14 33.1046 14 32C14 30.8954 13.1046 30 12 30Z" fill="#22274A"/>
<path d="M64 24C62.8954 24 62 24.8954 62 26C62 27.1046 62.8954 28 64 28C65.1046 28 66 27.1046 66 26C66 24.8954 65.1046 24 64 24Z" fill="#22274A"/>
<path d="M56 24C54.8954 24 54 24.8954 54 26C54 27.1046 54.8954 28 56 28C57.1046 28 58 27.1046 58 26C58 24.8954 57.1046 24 56 24Z" fill="#22274A"/>
<path d="M48 24C46.8954 24 46 24.8954 46 26C46 27.1046 46.8954 28 48 28C49.1046 28 50 27.1046 50 26C50 24.8954 49.1046 24 48 24Z" fill="#22274A"/>
<path d="M40 24C38.8954 24 38 24.8954 38 26C38 27.1046 38.8954 28 40 28C41.1046 28 42 27.1046 42 26C42 24.8954 41.1046 24 40 24Z" fill="#22274A"/>
<path d="M32 24C30.8954 24 30 24.8954 30 26C30 27.1046 30.8954 28 32 28C33.1046 28 34 27.1046 34 26C34 24.8954 33.1046 24 32 24Z" fill="#22274A"/>
<path d="M24 24C22.8954 24 22 24.8954 22 26C22 27.1046 22.8954 28 24 28C25.1046 28 26 27.1046 26 26C26 24.8954 25.1046 24 24 24Z" fill="#22274A"/>
<path d="M16 24C14.8954 24 14 24.8954 14 26C14 27.1046 14.8954 28 16 28C17.1046 28 18 27.1046 18 26C18 24.8954 17.1046 24 16 24Z" fill="#22274A"/>
<path d="M68 18C66.8954 18 66 18.8954 66 20C66 21.1046 66.8954 22 68 22C69.1046 22 70 21.1046 70 20C70 18.8954 69.1046 18 68 18Z" fill="#22274A"/>
<path d="M60 18C58.8954 18 58 18.8954 58 20C58 21.1046 58.8954 22 60 22C61.1046 22 62 21.1046 62 20C62 18.8954 61.1046 18 60 18Z" fill="#22274A"/>
<path d="M52 18C50.8954 18 50 18.8954 50 20C50 21.1046 50.8954 22 52 22C53.1046 22 54 21.1046 54 20C54 18.8954 53.1046 18 52 18Z" fill="#22274A"/>
<path d="M44 18C42.8954 18 42 18.8954 42 20C42 21.1046 42.8954 22 44 22C45.1046 22 46 21.1046 46 20C46 18.8954 45.1046 18 44 18Z" fill="#22274A"/>
<path d="M36 18C34.8954 18 34 18.8954 34 20C34 21.1046 34.8954 22 36 22C37.1046 22 38 21.1046 38 20C38 18.8954 37.1046 18 36 18Z" fill="#22274A"/>
<path d="M28 18C26.8954 18 26 18.8954 26 20C26 21.1046 26.8954 22 28 22C29.1046 22 30 21.1046 30 20C30 18.8954 29.1046 18 28 18Z" fill="#22274A"/>
<path d="M20 18C18.8954 18 18 18.8954 18 20C18 21.1046 18.8954 22 20 22C21.1046 22 22 21.1046 22 20C22 18.8954 21.1046 18 20 18Z" fill="#22274A"/>
<path d="M12 18C10.8954 18 10 18.8954 10 20C10 21.1046 10.8954 22 12 22C13.1046 22 14 21.1046 14 20C14 18.8954 13.1046 18 12 18Z" fill="#22274A"/>
<path d="M64 12C62.8954 12 62 12.8954 62 14C62 15.1046 62.8954 16 64 16C65.1046 16 66 15.1046 66 14C66 12.8954 65.1046 12 64 12Z" fill="#22274A"/>
<path d="M56 12C54.8954 12 54 12.8954 54 14C54 15.1046 54.8954 16 56 16C57.1046 16 58 15.1046 58 14C58 12.8954 57.1046 12 56 12Z" fill="#22274A"/>
<path d="M48 12C46.8954 12 46 12.8954 46 14C46 15.1046 46.8954 16 48 16C49.1046 16 50 15.1046 50 14C50 12.8954 49.1046 12 48 12Z" fill="#22274A"/>
<path d="M40 12C38.8954 12 38 12.8954 38 14C38 15.1046 38.8954 16 40 16C41.1046 16 42 15.1046 42 14C42 12.8954 41.1046 12 40 12Z" fill="#22274A"/>
<path d="M32 12C30.8954 12 30 12.8954 30 14C30 15.1046 30.8954 16 32 16C33.1046 16 34 15.1046 34 14C34 12.8954 33.1046 12 32 12Z" fill="#22274A"/>
<path d="M24 12C22.8954 12 22 12.8954 22 14C22 15.1046 22.8954 16 24 16C25.1046 16 26 15.1046 26 14C26 12.8954 25.1046 12 24 12Z" fill="#22274A"/>
<path d="M16 12C14.8954 12 14 12.8954 14 14C14 15.1046 14.8954 16 16 16C17.1046 16 18 15.1046 18 14C18 12.8954 17.1046 12 16 12Z" fill="#22274A"/>
<path d="M68 6C66.8954 6 66 6.89543 66 8C66 9.10457 66.8954 10 68 10C69.1046 10 70 9.10457 70 8C70 6.89543 69.1046 6 68 6Z" fill="#22274A"/>
<path d="M60 6C58.8954 6 58 6.89543 58 8C58 9.10457 58.8954 10 60 10C61.1046 10 62 9.10457 62 8C62 6.89543 61.1046 6 60 6Z" fill="#22274A"/>
<path d="M52 6C50.8954 6 50 6.89543 50 8C50 9.10457 50.8954 10 52 10C53.1046 10 54 9.10457 54 8C54 6.89543 53.1046 6 52 6Z" fill="#22274A"/>
<path d="M44 6C42.8954 6 42 6.89543 42 8C42 9.10457 42.8954 10 44 10C45.1046 10 46 9.10457 46 8C46 6.89543 45.1046 6 44 6Z" fill="#22274A"/>
<path d="M36 6C34.8954 6 34 6.89543 34 8C34 9.10457 34.8954 10 36 10C37.1046 10 38 9.10457 38 8C38 6.89543 37.1046 6 36 6Z" fill="#22274A"/>
<path d="M28 6C26.8954 6 26 6.89543 26 8C26 9.10457 26.8954 10 28 10C29.1046 10 30 9.10457 30 8C30 6.89543 29.1046 6 28 6Z" fill="#22274A"/>
<path d="M20 6C18.8954 6 18 6.89543 18 8C18 9.10457 18.8954 10 20 10C21.1046 10 22 9.10457 22 8C22 6.89543 21.1046 6 20 6Z" fill="#22274A"/>
<path d="M12 6C10.8954 6 10 6.89543 10 8C10 9.10457 10.8954 10 12 10C13.1046 10 14 9.10457 14 8C14 6.89543 13.1046 6 12 6Z" fill="#22274A"/>
</g>
<path d="M13.6629 251L40.6 10L67.5371 251H13.6629Z" stroke="#636781" stroke-width="2"/>
</g>
</g>
</g>
<defs>
<clipPath id="clip0_16_66409">
<rect width="81" height="250" fill="white"/>
</clipPath>
</defs>
</svg>
