<?xml version="1.0" encoding="UTF-8" standalone="no"?>
<!-- Generator: Adobe Illustrator 18.0.0, SVG Export Plug-In . SVG Version: 6.00 Build 0)  -->

<svg
   version="1.1"
   id="Capa_1"
   x="0px"
   y="0px"
   viewBox="0 0 493.718 493.718"
   style="enable-background:new 0 0 493.718 493.718;"
   xml:space="preserve"
   sodipodi:docname="clockwise-arrow.svg"
   inkscape:version="1.1.1 (3bf5ae0d25, 2021-09-20)"
   xmlns:inkscape="http://www.inkscape.org/namespaces/inkscape"
   xmlns:sodipodi="http://sodipodi.sourceforge.net/DTD/sodipodi-0.dtd"
   xmlns="http://www.w3.org/2000/svg"
   xmlns:svg="http://www.w3.org/2000/svg"><defs
   id="defs591" /><sodipodi:namedview
   id="namedview589"
   pagecolor="#ffffff"
   bordercolor="#666666"
   borderopacity="1.0"
   inkscape:pageshadow="2"
   inkscape:pageopacity="0.0"
   inkscape:pagecheckerboard="0"
   showgrid="false"
   inkscape:zoom="1.7682159"
   inkscape:cx="246.85899"
   inkscape:cy="201.61565"
   inkscape:window-width="2560"
   inkscape:window-height="1361"
   inkscape:window-x="-9"
   inkscape:window-y="-9"
   inkscape:window-maximized="1"
   inkscape:current-layer="Capa_1" />
<path
   id="XMLID_67_"
   d="m 390.765,87.77404 v 287.81 H 160.99072 v -26.264 c 0,-1.414 -0.729,-2.725 -1.93,-3.471 -1.208,-0.746 -2.708,-0.823 -3.976,-0.196 -15.054,7.439 -141.943005,70.151 -141.943005,70.151 -1.398,0.687 -2.28,2.11 -2.28,3.669 0,1.561 0.882,2.985 2.28,3.669 0,0 126.273005,62.404 141.943005,70.153 1.268,0.627 2.769,0.55 3.976,-0.196 1.201,-0.746 1.93,-2.058 1.93,-3.473 v -26.265 H 434.653 c 24.242,0 43.888,-19.646 43.888,-43.888 v -375.587 c 0,-24.242 -19.646,-43.88799973 -43.888,-43.88799973 H 25.133493 c -8.444979,0 -13.739716,7.23935423 -13.348744,43.88799973 0.390972,36.648645 5.292408,42.60006 14.369811,42.60006 9.077403,0 364.61044,1.28794 364.61044,1.28794 z"
   sodipodi:nodetypes="cccscccscscscsssszzzc" />
<g
   id="g558">
</g>
<g
   id="g560">
</g>
<g
   id="g562">
</g>
<g
   id="g564">
</g>
<g
   id="g566">
</g>
<g
   id="g568">
</g>
<g
   id="g570">
</g>
<g
   id="g572">
</g>
<g
   id="g574">
</g>
<g
   id="g576">
</g>
<g
   id="g578">
</g>
<g
   id="g580">
</g>
<g
   id="g582">
</g>
<g
   id="g584">
</g>
<g
   id="g586">
</g>
</svg>
