<svg width="100%" height="100%" viewBox="0 0 120 60" fill="none" xmlns="http://www.w3.org/2000/svg">
<rect x="1" y="1" width="118" height="58" rx="5" fill="#A3A8CC"/>
<rect x="1" y="1" width="118" height="58" rx="5" stroke="#3B4166" stroke-width="2"/>
<mask id="path-2-inside-1_92_63721" fill="white">
<path d="M109 0H114C117.314 0 120 2.68629 120 6V54C120 57.3137 117.314 60 114 60H109V0Z"/>
</mask>
<path d="M109 0H114C117.314 0 120 2.68629 120 6V54C120 57.3137 117.314 60 114 60H109V0Z" fill="#6871AD"/>
<path d="M109 -2H114C118.418 -2 122 1.58172 122 6H118C118 3.79086 116.209 2 114 2H109V-2ZM122 54C122 58.4183 118.418 62 114 62H109V58H114C116.209 58 118 56.2091 118 54H122ZM109 60V0V60ZM114 -2C118.418 -2 122 1.58172 122 6V54C122 58.4183 118.418 62 114 62V58C116.209 58 118 56.2091 118 54V6C118 3.79086 116.209 2 114 2V-2Z" fill="#3B4166" mask="url(#path-2-inside-1_92_63721)"/>
<mask id="path-4-inside-2_92_63721" fill="white">
<path d="M56 0H64V60H56V0Z"/>
</mask>
<path d="M56 0H64V60H56V0Z" fill="#6871AD"/>
<path d="M56 2H64V-2H56V2ZM64 58H56V62H64V58Z" fill="#3B4166" mask="url(#path-4-inside-2_92_63721)"/>
<path d="M10.8518 32.022C10.8518 18.044 11.7735 10.5 16.9884 10.5H78.4407C79.081 10.5 79.5 10.9716 79.5 11.5493C79.5 12.127 79.081 12.5987 78.4407 12.5987H17C13.0307 12.5987 12.9238 23.1097 12.9238 32.1399C12.9238 44.2037 15.0306 47.0279 19 47.0279H94.2053L97.8253 47.1929L97.6158 47.7353L94.729 45.2358L94.3767 44.9228C94.1904 44.7342 94.0974 44.5102 94.0974 44.2037C94.0974 43.5906 94.5047 43.1661 95.1216 43.1661C95.3777 43.1661 95.6804 43.284 95.8782 43.4963L99.7227 47.2991C99.9555 47.5231 100.072 47.7942 100.072 48.0772C100.072 48.3719 99.9555 48.6431 99.7227 48.8671L95.8782 52.6699C95.6804 52.8703 95.3777 53 95.1216 53C94.5047 53 94.0974 52.5756 94.0974 51.9625C94.0974 51.6559 94.1904 51.4319 94.3767 51.2433L94.729 50.9186L97.6158 48.4309L97.8253 48.9732L94.2053 49.1383H19.1746C13.855 49.1383 10.8518 46 10.8518 32.022Z" fill="#363C5A"/>
<circle cx="92.5" cy="12.5" r="7.5" fill="url(#paint0_linear_92_63721)"/>
<circle cx="92.5" cy="12.5" r="6.44531" fill="url(#paint1_linear_92_63721)"/>
<defs>
<linearGradient id="paint0_linear_92_63721" x1="86.875" y1="6.23047" x2="96.0156" y2="20" gradientUnits="userSpaceOnUse">
<stop stop-color="#9995BE"/>
<stop offset="1" stop-color="#3B3A4C"/>
</linearGradient>
<linearGradient id="paint1_linear_92_63721" x1="88.3398" y1="6.69922" x2="96.9531" y2="18.9453" gradientUnits="userSpaceOnUse">
<stop stop-color="#232244"/>
<stop offset="1" stop-color="#02061A"/>
</linearGradient>
</defs>
</svg>

