<svg width="100%" height="100%" viewBox="0 0 86 86" fill="none" xmlns="http://www.w3.org/2000/svg">
<g clip-path="url(#clip0_135_63961)">
<rect width="86" height="86" rx="10" fill="#AA9980"/>
<path d="M37.0458 61C36.5658 61 36.4058 60.776 36.5658 60.328L46.9818 33.496C47.0458 33.304 46.9818 33.208 46.7898 33.208H37.8138C37.6538 33.208 37.5738 33.288 37.5738 33.448V35.656C37.5738 35.816 37.5098 35.96 37.3818 36.088C37.2858 36.184 37.1578 36.232 36.9978 36.232H32.6298C32.4698 36.232 32.3258 36.184 32.1978 36.088C32.1018 35.96 32.0538 35.816 32.0538 35.656L32.1018 27.976C32.1018 27.816 32.1498 27.688 32.2458 27.592C32.3738 27.464 32.5178 27.4 32.6777 27.4H53.6538C53.8138 27.4 53.9418 27.464 54.0378 27.592C54.1658 27.688 54.2298 27.816 54.2298 27.976V32.824C54.2298 33.016 54.1818 33.256 54.0858 33.544L43.7178 60.568C43.6218 60.856 43.3978 61 43.0458 61H37.0458Z" fill="#7E7B7B"/>
</g>
<defs>
<clipPath id="clip0_135_63961">
<rect width="86" height="86" fill="white"/>
</clipPath>
</defs>
</svg>
