<svg width="100%" height="100%" viewBox="0 0 86 86" fill="none" xmlns="http://www.w3.org/2000/svg">
<g clip-path="url(#clip0_135_63958)">
<rect width="86" height="86" rx="10" fill="#AA9980"/>
<path d="M53.6305 45.688C54.1105 47.256 54.3505 48.776 54.3505 50.248C54.3505 51.88 54.0945 53.352 53.5825 54.664C52.8465 56.712 51.5505 58.344 49.6945 59.56C47.8385 60.744 45.6625 61.336 43.1665 61.336C40.7345 61.336 38.5905 60.76 36.7345 59.608C34.9105 58.424 33.6145 56.824 32.8465 54.808C32.5265 53.976 32.2865 53.096 32.1265 52.168V52.072C32.1265 51.72 32.3185 51.544 32.7025 51.544H38.5105C38.8305 51.544 39.0385 51.72 39.1345 52.072C39.1665 52.264 39.2145 52.424 39.2785 52.552C39.3425 52.68 39.3905 52.792 39.4225 52.888C39.7425 53.72 40.2225 54.36 40.8625 54.808C41.5025 55.256 42.2545 55.48 43.1185 55.48C44.0145 55.48 44.7985 55.24 45.4705 54.76C46.1425 54.28 46.6385 53.608 46.9585 52.744C47.2785 52.104 47.4385 51.272 47.4385 50.248C47.4385 49.32 47.2945 48.488 47.0065 47.752C46.7825 46.92 46.3345 46.28 45.6625 45.832C44.9905 45.384 44.2065 45.16 43.3105 45.16C42.4145 45.16 41.5825 45.368 40.8145 45.784C40.0465 46.2 39.5345 46.744 39.2785 47.416C39.1825 47.736 38.9745 47.896 38.6545 47.896H32.7505C32.5905 47.896 32.4465 47.848 32.3185 47.752C32.2225 47.624 32.1745 47.48 32.1745 47.32V27.976C32.1745 27.816 32.2225 27.688 32.3185 27.592C32.4465 27.464 32.5905 27.4 32.7505 27.4H52.5745C52.7345 27.4 52.8625 27.464 52.9585 27.592C53.0865 27.688 53.1505 27.816 53.1505 27.976V32.632C53.1505 32.792 53.0865 32.936 52.9585 33.064C52.8625 33.16 52.7345 33.208 52.5745 33.208H39.1825C39.0225 33.208 38.9425 33.288 38.9425 33.448L38.8945 40.552C38.8945 40.776 38.9905 40.824 39.1825 40.696C40.6225 39.768 42.2865 39.304 44.1745 39.304C46.4145 39.304 48.3665 39.88 50.0305 41.032C51.7265 42.152 52.9265 43.704 53.6305 45.688Z" fill="#7E7B7B"/>
</g>
<defs>
<clipPath id="clip0_135_63958">
<rect width="86" height="86" fill="white"/>
</clipPath>
</defs>
</svg>
