<svg width="100%" height="100%" viewBox="0 0 86 86" fill="none" xmlns="http://www.w3.org/2000/svg">
<g clip-path="url(#clip0_135_63955)">
<rect x="2" y="2" width="82" height="82" rx="8" fill="#CDB288" stroke="white" stroke-width="4"/>
<mask id="path-2-outside-1_135_63955" maskUnits="userSpaceOnUse" x="29" y="25" width="27" height="39" fill="black">
<rect fill="white" x="29" y="25" width="27" height="39"/>
<path d="M52.9351 44.968C53.5751 46.44 53.8951 48.136 53.8951 50.056C53.8951 51.784 53.6071 53.384 53.0311 54.856C52.2631 56.904 50.9671 58.504 49.1431 59.656C47.3511 60.808 45.2231 61.384 42.7591 61.384C40.3271 61.384 38.1831 60.776 36.3271 59.56C34.5031 58.344 33.1911 56.696 32.3911 54.616C31.9431 53.368 31.6871 52.024 31.6231 50.584C31.6231 50.2 31.8151 50.008 32.1991 50.008H37.8631C38.2471 50.008 38.4391 50.2 38.4391 50.584C38.5671 51.64 38.7431 52.424 38.9671 52.936C39.2551 53.768 39.7191 54.424 40.3591 54.904C41.0311 55.352 41.8151 55.576 42.7111 55.576C44.5031 55.576 45.7351 54.792 46.4071 53.224C46.8551 52.264 47.0791 51.144 47.0791 49.864C47.0791 48.36 46.8391 47.128 46.3591 46.168C45.6231 44.664 44.3911 43.912 42.6631 43.912C42.3111 43.912 41.9431 44.024 41.5591 44.248C41.1751 44.44 40.7111 44.728 40.1671 45.112C40.0391 45.208 39.9111 45.256 39.7831 45.256C39.5911 45.256 39.4471 45.16 39.3511 44.968L36.5191 40.984C36.4551 40.888 36.4231 40.776 36.4231 40.648C36.4231 40.456 36.4871 40.296 36.6151 40.168L44.2471 33.496C44.3111 33.432 44.3271 33.368 44.2951 33.304C44.2951 33.24 44.2471 33.208 44.1511 33.208H32.8711C32.7111 33.208 32.5671 33.16 32.4391 33.064C32.3431 32.936 32.2951 32.792 32.2951 32.632V27.976C32.2951 27.816 32.3431 27.688 32.4391 27.592C32.5671 27.464 32.7111 27.4 32.8711 27.4H52.8871C53.0471 27.4 53.1751 27.464 53.2711 27.592C53.3991 27.688 53.4631 27.816 53.4631 27.976V33.256C53.4631 33.512 53.3511 33.752 53.1271 33.976L46.8391 39.736C46.7751 39.8 46.7431 39.864 46.7431 39.928C46.7751 39.992 46.8551 40.024 46.9831 40.024C49.7671 40.568 51.7511 42.216 52.9351 44.968Z"/>
</mask>
<path d="M52.9351 44.968C53.5751 46.44 53.8951 48.136 53.8951 50.056C53.8951 51.784 53.6071 53.384 53.0311 54.856C52.2631 56.904 50.9671 58.504 49.1431 59.656C47.3511 60.808 45.2231 61.384 42.7591 61.384C40.3271 61.384 38.1831 60.776 36.3271 59.56C34.5031 58.344 33.1911 56.696 32.3911 54.616C31.9431 53.368 31.6871 52.024 31.6231 50.584C31.6231 50.2 31.8151 50.008 32.1991 50.008H37.8631C38.2471 50.008 38.4391 50.2 38.4391 50.584C38.5671 51.64 38.7431 52.424 38.9671 52.936C39.2551 53.768 39.7191 54.424 40.3591 54.904C41.0311 55.352 41.8151 55.576 42.7111 55.576C44.5031 55.576 45.7351 54.792 46.4071 53.224C46.8551 52.264 47.0791 51.144 47.0791 49.864C47.0791 48.36 46.8391 47.128 46.3591 46.168C45.6231 44.664 44.3911 43.912 42.6631 43.912C42.3111 43.912 41.9431 44.024 41.5591 44.248C41.1751 44.44 40.7111 44.728 40.1671 45.112C40.0391 45.208 39.9111 45.256 39.7831 45.256C39.5911 45.256 39.4471 45.16 39.3511 44.968L36.5191 40.984C36.4551 40.888 36.4231 40.776 36.4231 40.648C36.4231 40.456 36.4871 40.296 36.6151 40.168L44.2471 33.496C44.3111 33.432 44.3271 33.368 44.2951 33.304C44.2951 33.24 44.2471 33.208 44.1511 33.208H32.8711C32.7111 33.208 32.5671 33.16 32.4391 33.064C32.3431 32.936 32.2951 32.792 32.2951 32.632V27.976C32.2951 27.816 32.3431 27.688 32.4391 27.592C32.5671 27.464 32.7111 27.4 32.8711 27.4H52.8871C53.0471 27.4 53.1751 27.464 53.2711 27.592C53.3991 27.688 53.4631 27.816 53.4631 27.976V33.256C53.4631 33.512 53.3511 33.752 53.1271 33.976L46.8391 39.736C46.7751 39.8 46.7431 39.864 46.7431 39.928C46.7751 39.992 46.8551 40.024 46.9831 40.024C49.7671 40.568 51.7511 42.216 52.9351 44.968Z" fill="black"/>
<path d="M52.9351 44.968L51.0979 45.7584L51.1009 45.7655L52.9351 44.968ZM53.0311 54.856L51.1686 54.1272L51.1634 54.1404L51.1584 54.1538L53.0311 54.856ZM49.1431 59.656L48.0751 57.965L48.0683 57.9693L48.0615 57.9736L49.1431 59.656ZM36.3271 59.56L35.2177 61.2241L35.2243 61.2285L35.231 61.2329L36.3271 59.56ZM32.3911 54.616L30.5087 55.2917L30.5163 55.3129L30.5244 55.334L32.3911 54.616ZM31.6231 50.584H29.6231V50.6284L29.625 50.6728L31.6231 50.584ZM38.4391 50.584H36.4391V50.7048L36.4536 50.8247L38.4391 50.584ZM38.9671 52.936L40.857 52.2818L40.8311 52.2069L40.7994 52.1344L38.9671 52.936ZM40.3591 54.904L39.1591 56.504L39.2035 56.5373L39.2497 56.5681L40.3591 54.904ZM46.4071 53.224L44.5947 52.3782L44.5813 52.407L44.5688 52.4362L46.4071 53.224ZM46.3591 46.168L44.5626 47.0471L44.5664 47.0548L44.5702 47.0624L46.3591 46.168ZM41.5591 44.248L42.4535 46.0369L42.5111 46.008L42.5668 45.9756L41.5591 44.248ZM40.1671 45.112L39.0137 43.4781L38.9901 43.4947L38.9671 43.512L40.1671 45.112ZM39.3511 44.968L41.1399 44.0736L41.0708 43.9353L40.9812 43.8092L39.3511 44.968ZM36.5191 40.984L34.855 42.0934L34.8716 42.1183L34.8889 42.1428L36.5191 40.984ZM36.6151 40.168L35.2987 38.6623L35.2483 38.7064L35.2008 38.7538L36.6151 40.168ZM44.2471 33.496L45.5634 35.0017L45.6139 34.9576L45.6613 34.9102L44.2471 33.496ZM44.2951 33.304H42.2951V33.7761L42.5062 34.1984L44.2951 33.304ZM32.4391 33.064L30.8391 34.264L31.0105 34.4926L31.2391 34.664L32.4391 33.064ZM32.4391 27.592L31.0248 26.1778L31.0248 26.1778L32.4391 27.592ZM53.2711 27.592L51.6711 28.792L51.8425 29.0206L52.0711 29.192L53.2711 27.592ZM53.1271 33.976L54.478 35.4508L54.5103 35.4212L54.5413 35.3902L53.1271 33.976ZM46.8391 39.736L45.4881 38.2612L45.4558 38.2908L45.4249 38.3218L46.8391 39.736ZM46.7431 39.928H44.7431V40.4001L44.9542 40.8224L46.7431 39.928ZM46.9831 40.024L47.3666 38.0611L47.1766 38.024H46.9831V40.024ZM51.1009 45.7655C51.6122 46.9415 51.8951 48.3575 51.8951 50.056H55.8951C55.8951 47.9145 55.5379 45.9385 54.7692 44.1705L51.1009 45.7655ZM51.8951 50.056C51.8951 51.5579 51.6456 52.9082 51.1686 54.1272L54.8935 55.5848C55.5685 53.8598 55.8951 52.0101 55.8951 50.056H51.8951ZM51.1584 54.1538C50.5413 55.7994 49.5247 57.0495 48.0751 57.965L50.2111 61.347C52.4094 59.9585 53.9848 58.0086 54.9037 55.5582L51.1584 54.1538ZM48.0615 57.9736C46.6402 58.8874 44.901 59.384 42.7591 59.384V63.384C45.5451 63.384 48.0619 62.7286 50.2246 61.3384L48.0615 57.9736ZM42.7591 59.384C40.6775 59.384 38.9223 58.8693 37.4231 57.8871L35.231 61.2329C37.4438 62.6827 39.9766 63.384 42.7591 63.384V59.384ZM37.4365 57.8959C35.9627 56.9134 34.9119 55.5988 34.2578 53.898L30.5244 55.334C31.4702 57.7932 33.0434 59.7746 35.2177 61.2241L37.4365 57.8959ZM34.2735 53.9403C33.8988 52.8967 33.677 51.7522 33.6211 50.4952L29.625 50.6728C29.6972 52.2958 29.9873 53.8393 30.5087 55.2917L34.2735 53.9403ZM33.6231 50.584C33.6231 50.7003 33.5926 51.1549 33.1813 51.5662C32.7699 51.9776 32.3154 52.008 32.1991 52.008V48.008C31.6988 48.008 30.9562 48.1344 30.3528 48.7378C29.7495 49.3411 29.6231 50.0837 29.6231 50.584H33.6231ZM32.1991 52.008H37.8631V48.008H32.1991V52.008ZM37.8631 52.008C37.7468 52.008 37.2922 51.9776 36.8808 51.5662C36.4695 51.1549 36.4391 50.7003 36.4391 50.584H40.4391C40.4391 50.0837 40.3126 49.3411 39.7093 48.7378C39.1059 48.1344 38.3634 48.008 37.8631 48.008V52.008ZM36.4536 50.8247C36.5879 51.9329 36.791 52.9519 37.1347 53.7376L40.7994 52.1344C40.6952 51.8961 40.5462 51.3471 40.4245 50.3433L36.4536 50.8247ZM37.0771 53.5902C37.4819 54.7597 38.168 55.7607 39.1591 56.504L41.5591 53.304C41.2701 53.0873 41.0282 52.7763 40.857 52.2818L37.0771 53.5902ZM39.2497 56.5681C40.2857 57.2588 41.4651 57.576 42.7111 57.576V53.576C42.165 53.576 41.7765 53.4452 41.4685 53.2399L39.2497 56.5681ZM42.7111 57.576C43.9008 57.576 45.0499 57.3135 46.0528 56.6753C47.0626 56.0327 47.7782 55.1019 48.2454 54.0118L44.5688 52.4362C44.364 52.9141 44.1275 53.1593 43.9053 53.3007C43.6762 53.4465 43.3133 53.576 42.7111 53.576V57.576ZM48.2194 54.0698C48.814 52.7956 49.0791 51.3764 49.0791 49.864H45.0791C45.0791 50.9116 44.8961 51.7324 44.5947 52.3782L48.2194 54.0698ZM49.0791 49.864C49.0791 48.1665 48.811 46.5998 48.1479 45.2736L44.5702 47.0624C44.8671 47.6562 45.0791 48.5535 45.0791 49.864H49.0791ZM48.1555 45.2889C47.6474 44.2506 46.9156 43.3735 45.9251 42.7689C44.9383 42.1666 43.8217 41.912 42.6631 41.912V45.912C43.2324 45.912 43.5958 46.0334 43.8411 46.1831C44.0825 46.3305 44.3347 46.5814 44.5626 47.0471L48.1555 45.2889ZM42.6631 41.912C41.8753 41.912 41.1619 42.1643 40.5513 42.5204L42.5668 45.9756C42.645 45.93 42.6908 45.9138 42.7054 45.9093C42.718 45.9055 42.7018 45.912 42.6631 45.912V41.912ZM40.6646 42.4591C40.1557 42.7136 39.6004 43.0639 39.0137 43.4781L41.3204 46.7459C41.8217 46.3921 42.1944 46.1664 42.4535 46.0369L40.6646 42.4591ZM38.9671 43.512C39.0974 43.4142 39.3801 43.256 39.7831 43.256V47.256C40.4421 47.256 40.9807 47.0018 41.3671 46.712L38.9671 43.512ZM39.7831 43.256C40.037 43.256 40.3485 43.3252 40.6405 43.5199C40.9199 43.7062 41.0693 43.9323 41.1399 44.0736L37.5622 45.8624C37.7288 46.1957 37.9982 46.5658 38.4217 46.8481C38.8577 47.1388 39.3371 47.256 39.7831 47.256V43.256ZM40.9812 43.8092L38.1492 39.8252L34.8889 42.1428L37.7209 46.1268L40.9812 43.8092ZM38.1832 39.8746C38.3618 40.1426 38.4231 40.426 38.4231 40.648H34.4231C34.4231 41.126 34.5483 41.6334 34.855 42.0934L38.1832 39.8746ZM38.4231 40.648C38.4231 40.7774 38.4007 40.945 38.328 41.1268C38.2544 41.3109 38.147 41.4645 38.0293 41.5822L35.2008 38.7538C34.6733 39.2814 34.4231 39.9613 34.4231 40.648H38.4231ZM37.9314 41.6737L45.5634 35.0017L42.9307 31.9903L35.2987 38.6623L37.9314 41.6737ZM45.6613 34.9102C45.858 34.7135 46.1246 34.3761 46.2473 33.8851C46.3813 33.3493 46.2939 32.8296 46.0839 32.4096L42.5062 34.1984C42.3282 33.8424 42.2488 33.3867 42.3668 32.9149C42.4735 32.4879 42.7001 32.2145 42.8328 32.0818L45.6613 34.9102ZM46.2951 33.304C46.2951 32.6894 46.0169 32.0002 45.3685 31.5679C44.8632 31.231 44.3581 31.208 44.1511 31.208V35.208C44.04 35.208 43.607 35.201 43.1497 34.8961C42.8945 34.726 42.6585 34.479 42.4972 34.1564C42.3401 33.8421 42.2951 33.5392 42.2951 33.304H46.2951ZM44.1511 31.208H32.8711V35.208H44.1511V31.208ZM32.8711 31.208C32.9943 31.208 33.1328 31.227 33.2755 31.2746C33.4182 31.3222 33.5404 31.39 33.6391 31.464L31.2391 34.664C31.7133 35.0196 32.2783 35.208 32.8711 35.208V31.208ZM34.0391 31.864C34.113 31.9626 34.1808 32.0848 34.2284 32.2275C34.276 32.3703 34.2951 32.5087 34.2951 32.632H30.2951C30.2951 33.2247 30.4834 33.7898 30.8391 34.264L34.0391 31.864ZM34.2951 32.632V27.976H30.2951V32.632H34.2951ZM34.2951 27.976C34.2951 28.0957 34.2769 28.267 34.2037 28.4622C34.1282 28.6637 34.0086 28.8509 33.8533 29.0062L31.0248 26.1778C30.4874 26.7153 30.2951 27.3875 30.2951 27.976H34.2951ZM33.8533 29.0062C33.7692 29.0903 33.6384 29.1943 33.4553 29.2756C33.2676 29.3591 33.0665 29.4 32.8711 29.4V25.4C32.1092 25.4 31.4742 25.7284 31.0248 26.1778L33.8533 29.0062ZM32.8711 29.4H52.8871V25.4H32.8711V29.4ZM52.8871 29.4C52.6936 29.4 52.4537 29.3594 52.2086 29.2369C51.9636 29.1143 51.7871 28.9468 51.6711 28.792L54.8711 26.392C54.3974 25.7604 53.6766 25.4 52.8871 25.4V29.4ZM52.0711 29.192C51.9163 29.0759 51.7487 28.8995 51.6262 28.6544C51.5037 28.4094 51.4631 28.1694 51.4631 27.976H55.4631C55.4631 27.1865 55.1027 26.4657 54.4711 25.992L52.0711 29.192ZM51.4631 27.976V33.256H55.4631V27.976H51.4631ZM51.4631 33.256C51.4631 33.0815 51.5035 32.9176 51.5667 32.7822C51.6265 32.6541 51.6915 32.5832 51.7128 32.5618L54.5413 35.3902C55.046 34.8855 55.4631 34.1625 55.4631 33.256H51.4631ZM51.7761 32.5012L45.4881 38.2612L48.19 41.2108L54.478 35.4508L51.7761 32.5012ZM45.4249 38.3218C45.1429 38.6038 44.7431 39.1465 44.7431 39.928H48.7431C48.7431 40.5815 48.4073 40.9962 48.2533 41.1502L45.4249 38.3218ZM44.9542 40.8224C45.5325 41.9791 46.7131 42.024 46.9831 42.024V38.024C47.0614 38.024 47.2881 38.0303 47.5698 38.143C47.8871 38.2699 48.286 38.5418 48.5319 39.0336L44.9542 40.8224ZM46.5995 41.9869C48.693 42.3959 50.1576 43.5729 51.0979 45.7584L54.7722 44.1776C53.3445 40.8591 50.8412 38.7401 47.3666 38.0611L46.5995 41.9869Z" fill="white" mask="url(#path-2-outside-1_135_63955)"/>
</g>
<defs>
<clipPath id="clip0_135_63955">
<rect width="86" height="86" fill="white"/>
</clipPath>
</defs>
</svg>
