<svg width="100%" height="100%" viewBox="0 0 86 86" fill="none" xmlns="http://www.w3.org/2000/svg">
<g clip-path="url(#clip0_135_63955)">
<rect width="86" height="86" rx="10" fill="#AA9980"/>
<path d="M52.9351 44.968C53.5751 46.44 53.8951 48.136 53.8951 50.056C53.8951 51.784 53.6071 53.384 53.0311 54.856C52.2631 56.904 50.9671 58.504 49.1431 59.656C47.3511 60.808 45.2231 61.384 42.7591 61.384C40.3271 61.384 38.1831 60.776 36.3271 59.56C34.5031 58.344 33.1911 56.696 32.3911 54.616C31.9431 53.368 31.6871 52.024 31.6231 50.584C31.6231 50.2 31.8151 50.008 32.1991 50.008H37.8631C38.2471 50.008 38.4391 50.2 38.4391 50.584C38.5671 51.64 38.7431 52.424 38.9671 52.936C39.2551 53.768 39.7191 54.424 40.3591 54.904C41.0311 55.352 41.8151 55.576 42.7111 55.576C44.5031 55.576 45.7351 54.792 46.4071 53.224C46.8551 52.264 47.0791 51.144 47.0791 49.864C47.0791 48.36 46.8391 47.128 46.3591 46.168C45.6231 44.664 44.3911 43.912 42.6631 43.912C42.3111 43.912 41.9431 44.024 41.5591 44.248C41.1751 44.44 40.7111 44.728 40.1671 45.112C40.0391 45.208 39.9111 45.256 39.7831 45.256C39.5911 45.256 39.4471 45.16 39.3511 44.968L36.5191 40.984C36.4551 40.888 36.4231 40.776 36.4231 40.648C36.4231 40.456 36.4871 40.296 36.6151 40.168L44.2471 33.496C44.3111 33.432 44.3271 33.368 44.2951 33.304C44.2951 33.24 44.2471 33.208 44.1511 33.208H32.8711C32.7111 33.208 32.5671 33.16 32.4391 33.064C32.3431 32.936 32.2951 32.792 32.2951 32.632V27.976C32.2951 27.816 32.3431 27.688 32.4391 27.592C32.5671 27.464 32.7111 27.4 32.8711 27.4H52.8871C53.0471 27.4 53.1751 27.464 53.2711 27.592C53.3991 27.688 53.4631 27.816 53.4631 27.976V33.256C53.4631 33.512 53.3511 33.752 53.1271 33.976L46.8391 39.736C46.7751 39.8 46.7431 39.864 46.7431 39.928C46.7751 39.992 46.8551 40.024 46.9831 40.024C49.7671 40.568 51.7511 42.216 52.9351 44.968Z" fill="#7E7B7B"/>
</g>
<defs>
<clipPath id="clip0_135_63955">
<rect width="86" height="86" fill="white"/>
</clipPath>
</defs>
</svg>
