<svg width="100%" height="100%" viewBox="0 0 86 86" fill="none" xmlns="http://www.w3.org/2000/svg">
<g clip-path="url(#clip0_135_63967)">
<rect width="86" height="86" rx="10" fill="#AA9980"/>
<path d="M33.5672 27.544C33.7272 27.448 33.9672 27.4 34.2872 27.4H40.0952C40.2552 27.4 40.3832 27.464 40.4792 27.592C40.6072 27.688 40.6712 27.816 40.6712 27.976V60.424C40.6712 60.584 40.6072 60.728 40.4792 60.856C40.3832 60.952 40.2552 61 40.0952 61H34.4792C34.3192 61 34.1752 60.952 34.0472 60.856C33.9512 60.728 33.9032 60.584 33.9032 60.424V34.12C33.9032 34.056 33.8712 33.992 33.8072 33.928C33.7432 33.864 33.6792 33.848 33.6152 33.88L28.8632 35.176L28.6712 35.224C28.3832 35.224 28.2392 35.048 28.2392 34.696L28.0952 30.568C28.0952 30.248 28.2392 30.024 28.5272 29.896L33.5672 27.544ZM50.8641 27.544C51.0241 27.448 51.2641 27.4 51.5841 27.4H57.3921C57.5521 27.4 57.6801 27.464 57.7761 27.592C57.9041 27.688 57.9681 27.816 57.9681 27.976V60.424C57.9681 60.584 57.9041 60.728 57.7761 60.856C57.6801 60.952 57.5521 61 57.3921 61H51.7761C51.6161 61 51.4721 60.952 51.3441 60.856C51.2481 60.728 51.2001 60.584 51.2001 60.424V34.12C51.2001 34.056 51.1681 33.992 51.1041 33.928C51.0401 33.864 50.9761 33.848 50.9121 33.88L46.1601 35.176L45.9681 35.224C45.6801 35.224 45.5361 35.048 45.5361 34.696L45.3921 30.568C45.3921 30.248 45.5361 30.024 45.8241 29.896L50.8641 27.544Z" fill="#7E7B7B"/>
</g>
<defs>
<clipPath id="clip0_135_63967">
<rect width="86" height="86" fill="white"/>
</clipPath>
</defs>
</svg>
