<svg width="100%" height="100%" viewBox="0 0 36 24" fill="none" xmlns="http://www.w3.org/2000/svg">
<path d="M9.2325 23.352C7.5685 23.352 6.0965 23.0107 4.8165 22.328C3.55783 21.6453 2.5765 20.696 1.8725 19.48C1.1685 18.2427 0.8165 16.824 0.8165 15.224V8.376C0.8165 6.79733 1.1685 5.4 1.8725 4.184C2.5765 2.968 3.55783 2.02933 4.8165 1.368C6.0965 0.685333 7.5685 0.344 9.2325 0.344C10.9178 0.344 12.3898 0.685333 13.6485 1.368C14.9285 2.02933 15.9205 2.968 16.6245 4.184C17.3285 5.4 17.6805 6.79733 17.6805 8.376V15.224C17.6805 16.824 17.3285 18.2427 16.6245 19.48C15.9205 20.7173 14.9285 21.6773 13.6485 22.36C12.3898 23.0213 10.9178 23.352 9.2325 23.352ZM9.2325 19.48C10.4058 19.48 11.3552 19.1067 12.0805 18.36C12.8058 17.6133 13.1685 16.6213 13.1685 15.384V8.344C13.1685 7.10667 12.8058 6.11467 12.0805 5.368C11.3765 4.6 10.4272 4.216 9.2325 4.216C8.05917 4.216 7.10983 4.6 6.3845 5.368C5.6805 6.11467 5.3285 7.10667 5.3285 8.344V15.384C5.3285 16.6213 5.6805 17.6133 6.3845 18.36C7.10983 19.1067 8.05917 19.48 9.2325 19.48ZM29.4275 6.296C31.1342 6.296 32.5102 6.81867 33.5555 7.864C34.6008 8.90933 35.1235 10.328 35.1235 12.12V22.616C35.1235 22.7227 35.0808 22.8187 34.9955 22.904C34.9315 22.968 34.8462 23 34.7395 23H30.9955C30.8888 23 30.7928 22.968 30.7075 22.904C30.6435 22.8187 30.6115 22.7227 30.6115 22.616V13.048C30.6115 12.1947 30.3662 11.5013 29.8755 10.968C29.4062 10.4347 28.7768 10.168 27.9875 10.168C27.1982 10.168 26.5582 10.4347 26.0675 10.968C25.5982 11.5013 25.3635 12.1947 25.3635 13.048V22.616C25.3635 22.7227 25.3208 22.8187 25.2355 22.904C25.1715 22.968 25.0862 23 24.9795 23H21.2355C21.1288 23 21.0328 22.968 20.9475 22.904C20.8835 22.8187 20.8515 22.7227 20.8515 22.616V6.936C20.8515 6.82933 20.8835 6.744 20.9475 6.68C21.0328 6.59467 21.1288 6.552 21.2355 6.552H24.9795C25.0862 6.552 25.1715 6.59467 25.2355 6.68C25.3208 6.744 25.3635 6.82933 25.3635 6.936V8.056C25.3635 8.12 25.3848 8.16267 25.4275 8.184C25.4702 8.20533 25.5022 8.19467 25.5235 8.152C26.3982 6.91467 27.6995 6.296 29.4275 6.296Z" fill="#F3DBAE"/>
</svg>
