<svg width="100%" height="100%" viewBox="0 0 800 142" fill="none" xmlns="http://www.w3.org/2000/svg">
<rect x="4" y="4" width="792" height="134" rx="67" fill="url(#paint0_linear_113_63901)" stroke="#1B1E2B" stroke-width="8"/>
<path d="M182.84 70.64C179.64 70.64 176.803 70 174.328 68.72C171.853 67.3973 169.933 65.5413 168.568 63.152C167.245 60.7627 166.584 58.0107 166.584 54.896V40.304C166.584 37.232 167.267 34.5227 168.632 32.176C169.997 29.7867 171.896 27.952 174.328 26.672C176.803 25.3493 179.64 24.688 182.84 24.688C186.083 24.688 188.92 25.3493 191.352 26.672C193.827 27.952 195.747 29.7867 197.112 32.176C198.477 34.5227 199.16 37.232 199.16 40.304V54.896C199.16 58.0107 198.477 60.7627 197.112 63.152C195.747 65.5413 193.827 67.3973 191.352 68.72C188.92 70 186.083 70.64 182.84 70.64ZM182.84 64.24C185.528 64.24 187.683 63.408 189.304 61.744C190.925 60.08 191.736 57.8827 191.736 55.152V40.24C191.736 37.4667 190.925 35.248 189.304 33.584C187.683 31.92 185.528 31.088 182.84 31.088C180.195 31.088 178.061 31.92 176.44 33.584C174.819 35.248 174.008 37.4667 174.008 40.24V55.152C174.008 57.8827 174.819 60.08 176.44 61.744C178.061 63.408 180.195 64.24 182.84 64.24ZM222.398 36.784C225.854 36.784 228.606 37.808 230.654 39.856C232.745 41.904 233.79 44.6987 233.79 48.24V69.232C233.79 69.4453 233.705 69.6373 233.534 69.808C233.406 69.936 233.235 70 233.022 70H227.134C226.921 70 226.729 69.936 226.558 69.808C226.43 69.6373 226.366 69.4453 226.366 69.232V49.776C226.366 47.8133 225.811 46.2347 224.702 45.04C223.593 43.8027 222.121 43.184 220.286 43.184C218.451 43.184 216.958 43.7813 215.806 44.976C214.697 46.1707 214.142 47.7493 214.142 49.712V69.232C214.142 69.4453 214.057 69.6373 213.886 69.808C213.758 69.936 213.587 70 213.374 70H207.486C207.273 70 207.081 69.936 206.91 69.808C206.782 69.6373 206.718 69.4453 206.718 69.232V38.064C206.718 37.8507 206.782 37.68 206.91 37.552C207.081 37.3813 207.273 37.296 207.486 37.296H213.374C213.587 37.296 213.758 37.3813 213.886 37.552C214.057 37.68 214.142 37.8507 214.142 38.064V40.112C214.142 40.24 214.185 40.3253 214.27 40.368C214.355 40.4107 214.419 40.368 214.462 40.24C216.211 37.936 218.857 36.784 222.398 36.784ZM242.299 70C242.085 70 241.893 69.936 241.723 69.808C241.595 69.6373 241.531 69.4453 241.531 69.232V25.968C241.531 25.7547 241.595 25.584 241.723 25.456C241.893 25.2853 242.085 25.2 242.299 25.2H248.187C248.4 25.2 248.571 25.2853 248.699 25.456C248.869 25.584 248.955 25.7547 248.955 25.968V69.232C248.955 69.4453 248.869 69.6373 248.699 69.808C248.571 69.936 248.4 70 248.187 70H242.299ZM261.067 32.816C259.744 32.816 258.656 32.3893 257.803 31.536C256.95 30.6827 256.523 29.5947 256.523 28.272C256.523 26.9493 256.95 25.8613 257.803 25.008C258.656 24.1547 259.744 23.728 261.067 23.728C262.39 23.728 263.478 24.1547 264.331 25.008C265.184 25.8613 265.611 26.9493 265.611 28.272C265.611 29.5947 265.184 30.6827 264.331 31.536C263.478 32.3893 262.39 32.816 261.067 32.816ZM257.995 70C257.782 70 257.59 69.936 257.419 69.808C257.291 69.6373 257.227 69.4453 257.227 69.232V38C257.227 37.7867 257.291 37.616 257.419 37.488C257.59 37.3173 257.782 37.232 257.995 37.232H263.883C264.096 37.232 264.267 37.3173 264.395 37.488C264.566 37.616 264.651 37.7867 264.651 38V69.232C264.651 69.4453 264.566 69.6373 264.395 69.808C264.267 69.936 264.096 70 263.883 70H257.995ZM288.836 36.784C292.292 36.784 295.044 37.808 297.092 39.856C299.182 41.904 300.228 44.6987 300.228 48.24V69.232C300.228 69.4453 300.142 69.6373 299.972 69.808C299.844 69.936 299.673 70 299.46 70H293.572C293.358 70 293.166 69.936 292.996 69.808C292.868 69.6373 292.804 69.4453 292.804 69.232V49.776C292.804 47.8133 292.249 46.2347 291.14 45.04C290.03 43.8027 288.558 43.184 286.724 43.184C284.889 43.184 283.396 43.7813 282.244 44.976C281.134 46.1707 280.58 47.7493 280.58 49.712V69.232C280.58 69.4453 280.494 69.6373 280.324 69.808C280.196 69.936 280.025 70 279.812 70H273.924C273.71 70 273.518 69.936 273.348 69.808C273.22 69.6373 273.156 69.4453 273.156 69.232V38.064C273.156 37.8507 273.22 37.68 273.348 37.552C273.518 37.3813 273.71 37.296 273.924 37.296H279.812C280.025 37.296 280.196 37.3813 280.324 37.552C280.494 37.68 280.58 37.8507 280.58 38.064V40.112C280.58 40.24 280.622 40.3253 280.708 40.368C280.793 40.4107 280.857 40.368 280.9 40.24C282.649 37.936 285.294 36.784 288.836 36.784ZM335.302 49.968C335.473 51.0347 335.558 52.2293 335.558 53.552L335.494 55.536C335.494 56.048 335.238 56.304 334.726 56.304H314.694C314.481 56.304 314.374 56.4107 314.374 56.624C314.502 58.032 314.694 58.992 314.95 59.504C315.974 62.576 318.47 64.1333 322.438 64.176C325.339 64.176 327.643 62.9813 329.35 60.592C329.521 60.336 329.734 60.208 329.99 60.208C330.161 60.208 330.31 60.272 330.438 60.4L334.406 63.664C334.79 63.9627 334.854 64.304 334.598 64.688C333.275 66.5653 331.505 68.016 329.286 69.04C327.11 70.064 324.678 70.576 321.99 70.576C318.662 70.576 315.825 69.8293 313.478 68.336C311.174 66.8427 309.489 64.752 308.422 62.064C307.441 59.76 306.95 56.56 306.95 52.464C306.95 49.9893 307.206 47.984 307.718 46.448C308.571 43.4613 310.171 41.1147 312.518 39.408C314.907 37.6587 317.766 36.784 321.094 36.784C329.499 36.784 334.235 41.1787 335.302 49.968ZM321.094 43.184C319.515 43.184 318.193 43.5893 317.126 44.4C316.102 45.168 315.377 46.256 314.95 47.664C314.694 48.3893 314.523 49.328 314.438 50.48C314.353 50.6933 314.438 50.8 314.694 50.8H327.686C327.899 50.8 328.006 50.6933 328.006 50.48C327.921 49.4133 327.793 48.6027 327.622 48.048C327.238 46.512 326.47 45.3173 325.318 44.464C324.209 43.6107 322.801 43.184 321.094 43.184ZM384.724 25.712C384.937 25.3707 385.236 25.2 385.62 25.2H391.508C391.721 25.2 391.892 25.2853 392.02 25.456C392.19 25.584 392.276 25.7547 392.276 25.968V69.232C392.276 69.4453 392.19 69.6373 392.02 69.808C391.892 69.936 391.721 70 391.508 70H385.62C385.406 70 385.214 69.936 385.044 69.808C384.916 69.6373 384.852 69.4453 384.852 69.232V38.704C384.852 38.576 384.788 38.4907 384.66 38.448C384.574 38.4053 384.51 38.448 384.468 38.576L376.468 50.864C376.254 51.2053 375.956 51.376 375.572 51.376H372.628C372.244 51.376 371.945 51.2053 371.732 50.864L363.668 38.64C363.625 38.512 363.54 38.4693 363.412 38.512C363.326 38.5547 363.284 38.64 363.284 38.768V69.232C363.284 69.4453 363.198 69.6373 363.028 69.808C362.9 69.936 362.729 70 362.516 70H356.628C356.414 70 356.222 69.936 356.052 69.808C355.924 69.6373 355.86 69.4453 355.86 69.232V25.968C355.86 25.7547 355.924 25.584 356.052 25.456C356.222 25.2853 356.414 25.2 356.628 25.2H362.516C362.9 25.2 363.198 25.3707 363.412 25.712L373.844 41.52C373.929 41.6053 374.014 41.648 374.1 41.648C374.185 41.648 374.249 41.6053 374.292 41.52L384.724 25.712ZM420.234 38.064C420.234 37.8507 420.298 37.68 420.426 37.552C420.596 37.3813 420.788 37.296 421.002 37.296H426.826C427.039 37.296 427.21 37.3813 427.338 37.552C427.508 37.68 427.594 37.8507 427.594 38.064V69.232C427.594 69.4453 427.508 69.6373 427.338 69.808C427.21 69.936 427.039 70 426.826 70H421.002C420.788 70 420.596 69.936 420.426 69.808C420.298 69.6373 420.234 69.4453 420.234 69.232V67.184C420.234 67.056 420.191 66.9707 420.106 66.928C420.02 66.8853 419.935 66.928 419.85 67.056C418.1 69.3173 415.476 70.448 411.978 70.448C408.735 70.448 406.004 69.5093 403.786 67.632C401.61 65.7547 400.522 63.088 400.522 59.632V38.064C400.522 37.8507 400.586 37.68 400.714 37.552C400.884 37.3813 401.076 37.296 401.29 37.296H407.178C407.391 37.296 407.562 37.3813 407.69 37.552C407.86 37.68 407.946 37.8507 407.946 38.064V57.52C407.946 59.5253 408.458 61.1253 409.482 62.32C410.548 63.5147 412.02 64.112 413.898 64.112C415.818 64.112 417.354 63.5147 418.506 62.32C419.658 61.1253 420.234 59.5253 420.234 57.52V38.064ZM436.299 70C436.085 70 435.893 69.936 435.723 69.808C435.595 69.6373 435.531 69.4453 435.531 69.232V25.968C435.531 25.7547 435.595 25.584 435.723 25.456C435.893 25.2853 436.085 25.2 436.299 25.2H442.187C442.4 25.2 442.571 25.2853 442.699 25.456C442.869 25.584 442.955 25.7547 442.955 25.968V69.232C442.955 69.4453 442.869 69.6373 442.699 69.808C442.571 69.936 442.4 70 442.187 70H436.299ZM468.187 42.544C468.187 42.7573 468.102 42.9493 467.931 43.12C467.803 43.248 467.632 43.312 467.419 43.312H460.891C460.678 43.312 460.571 43.4187 460.571 43.632V59.056C460.571 60.6773 460.912 61.8507 461.595 62.576C462.32 63.3013 463.451 63.664 464.987 63.664H466.907C467.12 63.664 467.291 63.7493 467.419 63.92C467.59 64.048 467.675 64.2187 467.675 64.432V69.232C467.675 69.7013 467.419 69.9787 466.907 70.064L463.579 70.128C460.208 70.128 457.691 69.552 456.027 68.4C454.363 67.248 453.51 65.072 453.467 61.872V43.632C453.467 43.4187 453.36 43.312 453.147 43.312H449.499C449.286 43.312 449.094 43.248 448.923 43.12C448.795 42.9493 448.731 42.7573 448.731 42.544V38.064C448.731 37.8507 448.795 37.68 448.923 37.552C449.094 37.3813 449.286 37.296 449.499 37.296H453.147C453.36 37.296 453.467 37.1893 453.467 36.976V29.488C453.467 29.2747 453.531 29.104 453.659 28.976C453.83 28.8053 454.022 28.72 454.235 28.72H459.803C460.016 28.72 460.187 28.8053 460.315 28.976C460.486 29.104 460.571 29.2747 460.571 29.488V36.976C460.571 37.1893 460.678 37.296 460.891 37.296H467.419C467.632 37.296 467.803 37.3813 467.931 37.552C468.102 37.68 468.187 37.8507 468.187 38.064V42.544ZM479.005 32.816C477.682 32.816 476.594 32.3893 475.741 31.536C474.887 30.6827 474.461 29.5947 474.461 28.272C474.461 26.9493 474.887 25.8613 475.741 25.008C476.594 24.1547 477.682 23.728 479.005 23.728C480.327 23.728 481.415 24.1547 482.269 25.008C483.122 25.8613 483.549 26.9493 483.549 28.272C483.549 29.5947 483.122 30.6827 482.269 31.536C481.415 32.3893 480.327 32.816 479.005 32.816ZM475.933 70C475.719 70 475.527 69.936 475.357 69.808C475.229 69.6373 475.165 69.4453 475.165 69.232V38C475.165 37.7867 475.229 37.616 475.357 37.488C475.527 37.3173 475.719 37.232 475.933 37.232H481.821C482.034 37.232 482.205 37.3173 482.333 37.488C482.503 37.616 482.589 37.7867 482.589 38V69.232C482.589 69.4453 482.503 69.6373 482.333 69.808C482.205 69.936 482.034 70 481.821 70H475.933ZM518.805 45.744C519.573 47.92 519.957 50.5867 519.957 53.744C519.957 56.7733 519.594 59.376 518.869 61.552C517.93 64.368 516.416 66.5653 514.325 68.144C512.277 69.7227 509.674 70.512 506.517 70.512C503.488 70.512 501.056 69.424 499.221 67.248C499.136 67.1627 499.05 67.1413 498.965 67.184C498.88 67.2267 498.837 67.312 498.837 67.44V81.328C498.837 81.5413 498.752 81.712 498.581 81.84C498.453 82.0107 498.282 82.096 498.069 82.096H492.181C491.968 82.096 491.776 82.0107 491.605 81.84C491.477 81.712 491.413 81.5413 491.413 81.328V38.064C491.413 37.8507 491.477 37.68 491.605 37.552C491.776 37.3813 491.968 37.296 492.181 37.296H498.069C498.282 37.296 498.453 37.3813 498.581 37.552C498.752 37.68 498.837 37.8507 498.837 38.064V39.984C498.837 40.112 498.88 40.1973 498.965 40.24C499.05 40.2827 499.136 40.24 499.221 40.112C501.098 37.8933 503.552 36.784 506.581 36.784C509.61 36.784 512.17 37.5733 514.261 39.152C516.352 40.7307 517.866 42.928 518.805 45.744ZM510.485 61.424C511.765 59.4613 512.405 56.8587 512.405 53.616C512.405 50.5013 511.893 48.048 510.869 46.256C509.674 44.1653 507.861 43.12 505.429 43.12C503.21 43.12 501.546 44.144 500.437 46.192C499.456 47.856 498.965 50.3307 498.965 53.616C498.965 56.9867 499.498 59.5467 500.565 61.296C501.674 63.1733 503.274 64.112 505.365 64.112C507.626 64.112 509.333 63.216 510.485 61.424ZM527.924 70C527.71 70 527.518 69.936 527.348 69.808C527.22 69.6373 527.156 69.4453 527.156 69.232V25.968C527.156 25.7547 527.22 25.584 527.348 25.456C527.518 25.2853 527.71 25.2 527.924 25.2H533.812C534.025 25.2 534.196 25.2853 534.324 25.456C534.494 25.584 534.58 25.7547 534.58 25.968V69.232C534.58 69.4453 534.494 69.6373 534.324 69.808C534.196 69.936 534.025 70 533.812 70H527.924ZM554.948 36.784C557.636 36.784 560.004 37.2533 562.052 38.192C564.1 39.1307 565.679 40.432 566.788 42.096C567.897 43.7173 568.452 45.5733 568.452 47.664V69.232C568.452 69.4453 568.367 69.6373 568.196 69.808C568.068 69.936 567.897 70 567.684 70H561.796C561.583 70 561.391 69.936 561.22 69.808C561.092 69.6373 561.028 69.4453 561.028 69.232V67.184C561.028 67.056 560.985 66.992 560.9 66.992C560.815 66.9493 560.729 66.9707 560.644 67.056C558.553 69.36 555.524 70.512 551.556 70.512C548.356 70.512 545.711 69.7013 543.62 68.08C541.572 66.4587 540.548 64.048 540.548 60.848C540.548 57.52 541.7 54.9387 544.004 53.104C546.351 51.2267 549.636 50.288 553.86 50.288H560.708C560.921 50.288 561.028 50.1813 561.028 49.968V48.432C561.028 46.768 560.537 45.488 559.556 44.592C558.575 43.6533 557.103 43.184 555.14 43.184C553.519 43.184 552.196 43.4827 551.172 44.08C550.191 44.6347 549.572 45.424 549.316 46.448C549.188 46.96 548.889 47.1733 548.42 47.088L542.212 46.32C541.999 46.2773 541.807 46.2133 541.636 46.128C541.508 46 541.465 45.8507 541.508 45.68C541.849 43.0773 543.236 40.944 545.668 39.28C548.143 37.616 551.236 36.784 554.948 36.784ZM553.412 64.624C555.503 64.624 557.295 64.0693 558.788 62.96C560.281 61.8507 561.028 60.4427 561.028 58.736V55.728C561.028 55.5147 560.921 55.408 560.708 55.408H555.332C553.071 55.408 551.279 55.8347 549.956 56.688C548.676 57.5413 548.036 58.7573 548.036 60.336C548.036 61.7013 548.527 62.768 549.508 63.536C550.532 64.2613 551.833 64.624 553.412 64.624ZM574.578 82.736C574.45 82.736 574.343 82.6507 574.258 82.48C574.173 82.352 574.13 82.1813 574.13 81.968V77.36C574.13 77.1467 574.194 76.9547 574.322 76.784C574.493 76.656 574.685 76.592 574.898 76.592H574.962C576.711 76.5493 578.077 76.3573 579.058 76.016C580.039 75.7173 580.85 75.12 581.49 74.224C582.13 73.328 582.706 71.984 583.218 70.192C583.261 70.1067 583.261 69.9787 583.218 69.808L572.658 38.128C572.615 38.0427 572.594 37.936 572.594 37.808C572.594 37.424 572.807 37.232 573.234 37.232H579.506C579.975 37.232 580.274 37.4453 580.402 37.872L586.802 60.4C586.845 60.528 586.909 60.592 586.994 60.592C587.079 60.592 587.143 60.528 587.186 60.4L593.586 37.872C593.714 37.4453 594.013 37.232 594.482 37.232H600.562C600.818 37.232 600.989 37.3173 601.074 37.488C601.202 37.616 601.223 37.8293 601.138 38.128L589.874 71.792C588.807 74.8213 587.762 77.0827 586.738 78.576C585.714 80.0693 584.306 81.136 582.514 81.776C580.765 82.416 578.269 82.736 575.026 82.736H574.578ZM632.365 49.968C632.535 51.0347 632.621 52.2293 632.621 53.552L632.557 55.536C632.557 56.048 632.301 56.304 631.789 56.304H611.757C611.543 56.304 611.437 56.4107 611.437 56.624C611.565 58.032 611.757 58.992 612.013 59.504C613.037 62.576 615.533 64.1333 619.501 64.176C622.402 64.176 624.706 62.9813 626.413 60.592C626.583 60.336 626.797 60.208 627.053 60.208C627.223 60.208 627.373 60.272 627.501 60.4L631.469 63.664C631.853 63.9627 631.917 64.304 631.661 64.688C630.338 66.5653 628.567 68.016 626.349 69.04C624.173 70.064 621.741 70.576 619.053 70.576C615.725 70.576 612.887 69.8293 610.541 68.336C608.237 66.8427 606.551 64.752 605.485 62.064C604.503 59.76 604.013 56.56 604.013 52.464C604.013 49.9893 604.269 47.984 604.781 46.448C605.634 43.4613 607.234 41.1147 609.581 39.408C611.97 37.6587 614.829 36.784 618.157 36.784C626.562 36.784 631.298 41.1787 632.365 49.968ZM618.157 43.184C616.578 43.184 615.255 43.5893 614.189 44.4C613.165 45.168 612.439 46.256 612.013 47.664C611.757 48.3893 611.586 49.328 611.501 50.48C611.415 50.6933 611.501 50.8 611.757 50.8H624.749C624.962 50.8 625.069 50.6933 625.069 50.48C624.983 49.4133 624.855 48.6027 624.685 48.048C624.301 46.512 623.533 45.3173 622.381 44.464C621.271 43.6107 619.863 43.184 618.157 43.184ZM654.638 36.912C656.003 36.912 657.198 37.1893 658.222 37.744C658.563 37.9147 658.691 38.2347 658.606 38.704L657.518 44.464C657.475 44.976 657.176 45.1253 656.622 44.912C655.982 44.6987 655.235 44.592 654.382 44.592C653.827 44.592 653.4 44.6133 653.102 44.656C651.31 44.7413 649.816 45.3813 648.622 46.576C647.427 47.728 646.83 49.2427 646.83 51.12V69.232C646.83 69.4453 646.744 69.6373 646.574 69.808C646.446 69.936 646.275 70 646.062 70H640.174C639.96 70 639.768 69.936 639.598 69.808C639.47 69.6373 639.406 69.4453 639.406 69.232V38.064C639.406 37.8507 639.47 37.68 639.598 37.552C639.768 37.3813 639.96 37.296 640.174 37.296H646.062C646.275 37.296 646.446 37.3813 646.574 37.552C646.744 37.68 646.83 37.8507 646.83 38.064V40.944C646.83 41.1147 646.851 41.2213 646.894 41.264C646.979 41.264 647.064 41.2 647.15 41.072C648.942 38.2987 651.438 36.912 654.638 36.912Z" fill="#1B1E2B"/>
<path d="M174.052 117.288C172.252 117.288 170.668 116.94 169.3 116.244C167.932 115.524 166.876 114.528 166.132 113.256C165.388 111.984 165.016 110.508 165.016 108.828V99.936C165.016 98.256 165.388 96.78 166.132 95.508C166.876 94.236 167.932 93.252 169.3 92.556C170.668 91.86 172.252 91.512 174.052 91.512C175.828 91.512 177.4 91.848 178.768 92.52C180.136 93.192 181.192 94.14 181.936 95.364C182.68 96.588 183.052 98.004 183.052 99.612C183.052 99.732 183.004 99.84 182.908 99.936C182.836 100.008 182.74 100.044 182.62 100.044L179.308 100.224C179.02 100.224 178.876 100.092 178.876 99.828C178.876 98.412 178.432 97.272 177.544 96.408C176.68 95.544 175.516 95.112 174.052 95.112C172.588 95.112 171.412 95.544 170.524 96.408C169.636 97.272 169.192 98.412 169.192 99.828V109.008C169.192 110.4 169.636 111.528 170.524 112.392C171.412 113.256 172.588 113.688 174.052 113.688C175.516 113.688 176.68 113.268 177.544 112.428C178.432 111.564 178.876 110.424 178.876 109.008C178.876 108.744 179.02 108.612 179.308 108.612L182.62 108.756C182.74 108.756 182.836 108.792 182.908 108.864C183.004 108.936 183.052 109.02 183.052 109.116C183.052 110.748 182.68 112.188 181.936 113.436C181.192 114.66 180.136 115.608 178.768 116.28C177.4 116.952 175.828 117.288 174.052 117.288ZM195.954 98.316C197.898 98.316 199.446 98.892 200.598 100.044C201.774 101.196 202.362 102.768 202.362 104.76V116.568C202.362 116.688 202.314 116.796 202.218 116.892C202.146 116.964 202.05 117 201.93 117H198.618C198.498 117 198.39 116.964 198.294 116.892C198.222 116.796 198.186 116.688 198.186 116.568V105.624C198.186 104.52 197.874 103.632 197.25 102.96C196.626 102.264 195.798 101.916 194.766 101.916C193.734 101.916 192.894 102.252 192.246 102.924C191.622 103.596 191.31 104.484 191.31 105.588V116.568C191.31 116.688 191.262 116.796 191.166 116.892C191.094 116.964 190.998 117 190.878 117H187.566C187.446 117 187.338 116.964 187.242 116.892C187.17 116.796 187.134 116.688 187.134 116.568V92.232C187.134 92.112 187.17 92.016 187.242 91.944C187.338 91.848 187.446 91.8 187.566 91.8H190.878C190.998 91.8 191.094 91.848 191.166 91.944C191.262 92.016 191.31 92.112 191.31 92.232V100.188C191.31 100.26 191.334 100.308 191.382 100.332C191.43 100.356 191.466 100.332 191.49 100.26C192.474 98.964 193.962 98.316 195.954 98.316ZM213.736 98.316C215.248 98.316 216.58 98.58 217.732 99.108C218.884 99.636 219.772 100.368 220.396 101.304C221.02 102.216 221.332 103.26 221.332 104.436V116.568C221.332 116.688 221.284 116.796 221.188 116.892C221.116 116.964 221.02 117 220.9 117H217.588C217.468 117 217.36 116.964 217.264 116.892C217.192 116.796 217.156 116.688 217.156 116.568V115.416C217.156 115.344 217.132 115.308 217.084 115.308C217.036 115.284 216.988 115.296 216.94 115.344C215.764 116.64 214.06 117.288 211.828 117.288C210.028 117.288 208.54 116.832 207.364 115.92C206.212 115.008 205.636 113.652 205.636 111.852C205.636 109.98 206.284 108.528 207.58 107.496C208.9 106.44 210.748 105.912 213.124 105.912H216.976C217.096 105.912 217.156 105.852 217.156 105.732V104.868C217.156 103.932 216.88 103.212 216.328 102.708C215.776 102.18 214.948 101.916 213.844 101.916C212.932 101.916 212.188 102.084 211.612 102.42C211.06 102.732 210.712 103.176 210.568 103.752C210.496 104.04 210.328 104.16 210.064 104.112L206.572 103.68C206.452 103.656 206.344 103.62 206.248 103.572C206.176 103.5 206.152 103.416 206.176 103.32C206.368 101.856 207.148 100.656 208.516 99.72C209.908 98.784 211.648 98.316 213.736 98.316ZM212.872 113.976C214.048 113.976 215.056 113.664 215.896 113.04C216.736 112.416 217.156 111.624 217.156 110.664V108.972C217.156 108.852 217.096 108.792 216.976 108.792H213.952C212.68 108.792 211.672 109.032 210.928 109.512C210.208 109.992 209.848 110.676 209.848 111.564C209.848 112.332 210.124 112.932 210.676 113.364C211.252 113.772 211.984 113.976 212.872 113.976ZM225.957 117C225.837 117 225.729 116.964 225.633 116.892C225.561 116.796 225.525 116.688 225.525 116.568V92.232C225.525 92.112 225.561 92.016 225.633 91.944C225.729 91.848 225.837 91.8 225.957 91.8H229.269C229.389 91.8 229.485 91.848 229.557 91.944C229.653 92.016 229.701 92.112 229.701 92.232V116.568C229.701 116.688 229.653 116.796 229.557 116.892C229.485 116.964 229.389 117 229.269 117H225.957ZM234.57 117C234.45 117 234.342 116.964 234.246 116.892C234.174 116.796 234.138 116.688 234.138 116.568V92.232C234.138 92.112 234.174 92.016 234.246 91.944C234.342 91.848 234.45 91.8 234.57 91.8H237.882C238.002 91.8 238.098 91.848 238.17 91.944C238.266 92.016 238.314 92.112 238.314 92.232V116.568C238.314 116.688 238.266 116.796 238.17 116.892C238.098 116.964 238.002 117 237.882 117H234.57ZM258.268 105.732C258.364 106.332 258.412 107.004 258.412 107.748L258.376 108.864C258.376 109.152 258.232 109.296 257.944 109.296H246.676C246.556 109.296 246.496 109.356 246.496 109.476C246.568 110.268 246.676 110.808 246.82 111.096C247.396 112.824 248.8 113.7 251.032 113.724C252.664 113.724 253.96 113.052 254.92 111.708C255.016 111.564 255.136 111.492 255.28 111.492C255.376 111.492 255.46 111.528 255.532 111.6L257.764 113.436C257.98 113.604 258.016 113.796 257.872 114.012C257.128 115.068 256.132 115.884 254.884 116.46C253.66 117.036 252.292 117.324 250.78 117.324C248.908 117.324 247.312 116.904 245.992 116.064C244.696 115.224 243.748 114.048 243.148 112.536C242.596 111.24 242.32 109.44 242.32 107.136C242.32 105.744 242.464 104.616 242.752 103.752C243.232 102.072 244.132 100.752 245.452 99.792C246.796 98.808 248.404 98.316 250.276 98.316C255.004 98.316 257.668 100.788 258.268 105.732ZM250.276 101.916C249.388 101.916 248.644 102.144 248.044 102.6C247.468 103.032 247.06 103.644 246.82 104.436C246.676 104.844 246.58 105.372 246.532 106.02C246.484 106.14 246.532 106.2 246.676 106.2H253.984C254.104 106.2 254.164 106.14 254.164 106.02C254.116 105.42 254.044 104.964 253.948 104.652C253.732 103.788 253.3 103.116 252.652 102.636C252.028 102.156 251.236 101.916 250.276 101.916ZM271.048 98.316C272.992 98.316 274.54 98.892 275.692 100.044C276.868 101.196 277.456 102.768 277.456 104.76V116.568C277.456 116.688 277.408 116.796 277.312 116.892C277.24 116.964 277.144 117 277.024 117H273.712C273.592 117 273.484 116.964 273.388 116.892C273.316 116.796 273.28 116.688 273.28 116.568V105.624C273.28 104.52 272.968 103.632 272.344 102.96C271.72 102.264 270.892 101.916 269.86 101.916C268.828 101.916 267.988 102.252 267.34 102.924C266.716 103.596 266.404 104.484 266.404 105.588V116.568C266.404 116.688 266.356 116.796 266.26 116.892C266.188 116.964 266.092 117 265.972 117H262.66C262.54 117 262.432 116.964 262.336 116.892C262.264 116.796 262.228 116.688 262.228 116.568V99.036C262.228 98.916 262.264 98.82 262.336 98.748C262.432 98.652 262.54 98.604 262.66 98.604H265.972C266.092 98.604 266.188 98.652 266.26 98.748C266.356 98.82 266.404 98.916 266.404 99.036V100.188C266.404 100.26 266.428 100.308 266.476 100.332C266.524 100.356 266.56 100.332 266.584 100.26C267.568 98.964 269.056 98.316 271.048 98.316ZM293.078 99.036C293.078 98.916 293.114 98.82 293.186 98.748C293.282 98.652 293.39 98.604 293.51 98.604H296.822C296.942 98.604 297.038 98.652 297.11 98.748C297.206 98.82 297.254 98.916 297.254 99.036V115.776C297.254 118.776 296.39 120.912 294.662 122.184C292.958 123.48 290.714 124.128 287.93 124.128C287.186 124.128 286.454 124.092 285.734 124.02C285.47 123.996 285.338 123.84 285.338 123.552L285.446 120.6C285.446 120.336 285.614 120.204 285.95 120.204C286.646 120.276 287.27 120.312 287.822 120.312C289.622 120.312 290.942 119.952 291.782 119.232C292.646 118.536 293.078 117.348 293.078 115.668V115.38C293.078 115.308 293.054 115.272 293.006 115.272C292.958 115.248 292.91 115.26 292.862 115.308C291.878 116.364 290.486 116.892 288.686 116.892C287.126 116.892 285.698 116.496 284.402 115.704C283.106 114.912 282.206 113.7 281.702 112.068C281.39 110.94 281.234 109.488 281.234 107.712C281.234 105.72 281.426 104.196 281.81 103.14C282.29 101.676 283.118 100.512 284.294 99.648C285.47 98.76 286.85 98.316 288.434 98.316C290.33 98.316 291.806 98.868 292.862 99.972C292.91 100.044 292.958 100.068 293.006 100.044C293.054 100.02 293.078 99.972 293.078 99.9V99.036ZM292.826 110.88C292.922 110.52 292.982 110.136 293.006 109.728C293.054 109.296 293.078 108.612 293.078 107.676C293.078 106.764 293.054 106.116 293.006 105.732C292.982 105.324 292.91 104.928 292.79 104.544C292.598 103.752 292.202 103.116 291.602 102.636C291.026 102.156 290.282 101.916 289.37 101.916C288.506 101.916 287.774 102.156 287.174 102.636C286.574 103.116 286.142 103.752 285.878 104.544C285.59 105.216 285.446 106.272 285.446 107.712C285.446 109.2 285.566 110.244 285.806 110.844C286.046 111.612 286.478 112.248 287.102 112.752C287.75 113.232 288.518 113.472 289.406 113.472C290.342 113.472 291.098 113.232 291.674 112.752C292.25 112.272 292.634 111.648 292.826 110.88ZM317.084 105.732C317.18 106.332 317.228 107.004 317.228 107.748L317.192 108.864C317.192 109.152 317.048 109.296 316.76 109.296H305.492C305.372 109.296 305.312 109.356 305.312 109.476C305.384 110.268 305.492 110.808 305.636 111.096C306.212 112.824 307.616 113.7 309.848 113.724C311.48 113.724 312.776 113.052 313.736 111.708C313.832 111.564 313.952 111.492 314.096 111.492C314.192 111.492 314.276 111.528 314.348 111.6L316.58 113.436C316.796 113.604 316.832 113.796 316.688 114.012C315.944 115.068 314.948 115.884 313.7 116.46C312.476 117.036 311.108 117.324 309.596 117.324C307.724 117.324 306.128 116.904 304.808 116.064C303.512 115.224 302.564 114.048 301.964 112.536C301.412 111.24 301.136 109.44 301.136 107.136C301.136 105.744 301.28 104.616 301.568 103.752C302.048 102.072 302.948 100.752 304.268 99.792C305.612 98.808 307.22 98.316 309.092 98.316C313.82 98.316 316.484 100.788 317.084 105.732ZM309.092 101.916C308.204 101.916 307.46 102.144 306.86 102.6C306.284 103.032 305.876 103.644 305.636 104.436C305.492 104.844 305.396 105.372 305.348 106.02C305.3 106.14 305.348 106.2 305.492 106.2H312.8C312.92 106.2 312.98 106.14 312.98 106.02C312.932 105.42 312.86 104.964 312.764 104.652C312.548 103.788 312.116 103.116 311.468 102.636C310.844 102.156 310.052 101.916 309.092 101.916ZM335.272 98.316C336.784 98.316 338.116 98.58 339.268 99.108C340.42 99.636 341.308 100.368 341.932 101.304C342.556 102.216 342.868 103.26 342.868 104.436V116.568C342.868 116.688 342.82 116.796 342.724 116.892C342.652 116.964 342.556 117 342.436 117H339.124C339.004 117 338.896 116.964 338.8 116.892C338.728 116.796 338.692 116.688 338.692 116.568V115.416C338.692 115.344 338.668 115.308 338.62 115.308C338.572 115.284 338.524 115.296 338.476 115.344C337.3 116.64 335.596 117.288 333.364 117.288C331.564 117.288 330.076 116.832 328.9 115.92C327.748 115.008 327.172 113.652 327.172 111.852C327.172 109.98 327.82 108.528 329.116 107.496C330.436 106.44 332.284 105.912 334.66 105.912H338.512C338.632 105.912 338.692 105.852 338.692 105.732V104.868C338.692 103.932 338.416 103.212 337.864 102.708C337.312 102.18 336.484 101.916 335.38 101.916C334.468 101.916 333.724 102.084 333.148 102.42C332.596 102.732 332.248 103.176 332.104 103.752C332.032 104.04 331.864 104.16 331.6 104.112L328.108 103.68C327.988 103.656 327.88 103.62 327.784 103.572C327.712 103.5 327.688 103.416 327.712 103.32C327.904 101.856 328.684 100.656 330.052 99.72C331.444 98.784 333.184 98.316 335.272 98.316ZM334.408 113.976C335.584 113.976 336.592 113.664 337.432 113.04C338.272 112.416 338.692 111.624 338.692 110.664V108.972C338.692 108.852 338.632 108.792 338.512 108.792H335.488C334.216 108.792 333.208 109.032 332.464 109.512C331.744 109.992 331.384 110.676 331.384 111.564C331.384 112.332 331.66 112.932 332.212 113.364C332.788 113.772 333.52 113.976 334.408 113.976ZM363.843 98.568C363.963 98.568 364.059 98.616 364.131 98.712C364.227 98.784 364.275 98.88 364.275 99V101.844C364.275 101.964 364.227 102.072 364.131 102.168C364.059 102.24 363.963 102.276 363.843 102.276H360.279C360.159 102.276 360.099 102.336 360.099 102.456V116.568C360.099 116.688 360.051 116.796 359.955 116.892C359.883 116.964 359.787 117 359.667 117H356.355C356.235 117 356.127 116.964 356.031 116.892C355.959 116.796 355.923 116.688 355.923 116.568V102.456C355.923 102.336 355.863 102.276 355.743 102.276H353.511C353.391 102.276 353.283 102.24 353.187 102.168C353.115 102.072 353.079 101.964 353.079 101.844V99C353.079 98.88 353.115 98.784 353.187 98.712C353.283 98.616 353.391 98.568 353.511 98.568H355.743C355.863 98.568 355.923 98.508 355.923 98.388V97.74C355.923 96.18 356.127 94.98 356.535 94.14C356.943 93.276 357.615 92.664 358.551 92.304C359.487 91.944 360.807 91.776 362.511 91.8H363.771C363.891 91.8 363.987 91.848 364.059 91.944C364.155 92.016 364.203 92.112 364.203 92.232V94.752C364.203 94.872 364.155 94.98 364.059 95.076C363.987 95.148 363.891 95.184 363.771 95.184H362.835C361.803 95.184 361.083 95.388 360.675 95.796C360.291 96.204 360.099 96.948 360.099 98.028V98.388C360.099 98.508 360.159 98.568 360.279 98.568H363.843ZM376.37 98.388C377.138 98.388 377.81 98.544 378.386 98.856C378.578 98.952 378.65 99.132 378.602 99.396L377.99 102.636C377.966 102.924 377.798 103.008 377.486 102.888C377.126 102.768 376.706 102.708 376.226 102.708C375.914 102.708 375.674 102.72 375.506 102.744C374.498 102.792 373.658 103.152 372.986 103.824C372.314 104.472 371.978 105.324 371.978 106.38V116.568C371.978 116.688 371.93 116.796 371.834 116.892C371.762 116.964 371.666 117 371.546 117H368.234C368.114 117 368.006 116.964 367.91 116.892C367.838 116.796 367.802 116.688 367.802 116.568V99.036C367.802 98.916 367.838 98.82 367.91 98.748C368.006 98.652 368.114 98.604 368.234 98.604H371.546C371.666 98.604 371.762 98.652 371.834 98.748C371.93 98.82 371.978 98.916 371.978 99.036V100.656C371.978 100.752 371.99 100.812 372.014 100.836C372.062 100.836 372.11 100.8 372.158 100.728C373.166 99.168 374.57 98.388 376.37 98.388ZM383.713 96.084C382.969 96.084 382.357 95.844 381.877 95.364C381.397 94.884 381.157 94.272 381.157 93.528C381.157 92.784 381.397 92.172 381.877 91.692C382.357 91.212 382.969 90.972 383.713 90.972C384.457 90.972 385.069 91.212 385.549 91.692C386.029 92.172 386.269 92.784 386.269 93.528C386.269 94.272 386.029 94.884 385.549 95.364C385.069 95.844 384.457 96.084 383.713 96.084ZM381.985 117C381.865 117 381.757 116.964 381.661 116.892C381.589 116.796 381.553 116.688 381.553 116.568V99C381.553 98.88 381.589 98.784 381.661 98.712C381.757 98.616 381.865 98.568 381.985 98.568H385.297C385.417 98.568 385.513 98.616 385.585 98.712C385.681 98.784 385.729 98.88 385.729 99V116.568C385.729 116.688 385.681 116.796 385.585 116.892C385.513 116.964 385.417 117 385.297 117H381.985ZM406.029 105.732C406.125 106.332 406.173 107.004 406.173 107.748L406.137 108.864C406.137 109.152 405.993 109.296 405.705 109.296H394.437C394.317 109.296 394.257 109.356 394.257 109.476C394.329 110.268 394.437 110.808 394.581 111.096C395.157 112.824 396.561 113.7 398.793 113.724C400.425 113.724 401.721 113.052 402.681 111.708C402.777 111.564 402.897 111.492 403.041 111.492C403.137 111.492 403.221 111.528 403.293 111.6L405.525 113.436C405.741 113.604 405.777 113.796 405.633 114.012C404.889 115.068 403.893 115.884 402.645 116.46C401.421 117.036 400.053 117.324 398.541 117.324C396.669 117.324 395.073 116.904 393.753 116.064C392.457 115.224 391.509 114.048 390.909 112.536C390.357 111.24 390.081 109.44 390.081 107.136C390.081 105.744 390.225 104.616 390.513 103.752C390.993 102.072 391.893 100.752 393.213 99.792C394.557 98.808 396.165 98.316 398.037 98.316C402.765 98.316 405.429 100.788 406.029 105.732ZM398.037 101.916C397.149 101.916 396.405 102.144 395.805 102.6C395.229 103.032 394.821 103.644 394.581 104.436C394.437 104.844 394.341 105.372 394.293 106.02C394.245 106.14 394.293 106.2 394.437 106.2H401.745C401.865 106.2 401.925 106.14 401.925 106.02C401.877 105.42 401.805 104.964 401.709 104.652C401.493 103.788 401.061 103.116 400.413 102.636C399.789 102.156 398.997 101.916 398.037 101.916ZM418.81 98.316C420.754 98.316 422.302 98.892 423.454 100.044C424.63 101.196 425.218 102.768 425.218 104.76V116.568C425.218 116.688 425.17 116.796 425.074 116.892C425.002 116.964 424.906 117 424.786 117H421.474C421.354 117 421.246 116.964 421.15 116.892C421.078 116.796 421.042 116.688 421.042 116.568V105.624C421.042 104.52 420.73 103.632 420.106 102.96C419.482 102.264 418.654 101.916 417.622 101.916C416.59 101.916 415.75 102.252 415.102 102.924C414.478 103.596 414.166 104.484 414.166 105.588V116.568C414.166 116.688 414.118 116.796 414.022 116.892C413.95 116.964 413.854 117 413.734 117H410.422C410.302 117 410.194 116.964 410.098 116.892C410.026 116.796 409.99 116.688 409.99 116.568V99.036C409.99 98.916 410.026 98.82 410.098 98.748C410.194 98.652 410.302 98.604 410.422 98.604H413.734C413.854 98.604 413.95 98.652 414.022 98.748C414.118 98.82 414.166 98.916 414.166 99.036V100.188C414.166 100.26 414.19 100.308 414.238 100.332C414.286 100.356 414.322 100.332 414.346 100.26C415.33 98.964 416.818 98.316 418.81 98.316ZM440.843 92.232C440.843 92.112 440.879 92.016 440.951 91.944C441.047 91.848 441.155 91.8 441.275 91.8H444.587C444.707 91.8 444.803 91.848 444.875 91.944C444.971 92.016 445.019 92.112 445.019 92.232V116.568C445.019 116.688 444.971 116.796 444.875 116.892C444.803 116.964 444.707 117 444.587 117H441.275C441.155 117 441.047 116.964 440.951 116.892C440.879 116.796 440.843 116.688 440.843 116.568V115.488C440.843 115.416 440.819 115.368 440.771 115.344C440.723 115.32 440.675 115.344 440.627 115.416C439.571 116.664 438.191 117.288 436.487 117.288C434.783 117.288 433.343 116.844 432.167 115.956C430.991 115.068 430.139 113.832 429.611 112.248C429.179 110.904 428.963 109.404 428.963 107.748C428.963 106.044 429.167 104.58 429.575 103.356C430.103 101.772 430.955 100.536 432.131 99.648C433.307 98.76 434.783 98.316 436.559 98.316C438.215 98.316 439.571 98.916 440.627 100.116C440.675 100.164 440.723 100.188 440.771 100.188C440.819 100.164 440.843 100.116 440.843 100.044V92.232ZM439.979 111.96C440.531 110.976 440.807 109.584 440.807 107.784C440.807 105.912 440.507 104.484 439.907 103.5C439.259 102.444 438.347 101.916 437.171 101.916C435.947 101.916 434.987 102.42 434.291 103.428C433.571 104.484 433.211 105.948 433.211 107.82C433.211 109.5 433.499 110.88 434.075 111.96C434.747 113.112 435.767 113.688 437.135 113.688C438.359 113.688 439.307 113.112 439.979 111.96ZM464.56 117.288C462.664 117.288 461.032 116.808 459.664 115.848C458.32 114.888 457.372 113.556 456.82 111.852C456.412 110.556 456.208 109.188 456.208 107.748C456.208 106.212 456.4 104.844 456.784 103.644C457.336 101.964 458.296 100.656 459.664 99.72C461.032 98.784 462.676 98.316 464.596 98.316C466.42 98.316 467.992 98.784 469.312 99.72C470.656 100.656 471.604 101.952 472.156 103.608C472.588 104.76 472.804 106.128 472.804 107.712C472.804 109.224 472.6 110.592 472.192 111.816C471.64 113.52 470.692 114.864 469.348 115.848C468.004 116.808 466.408 117.288 464.56 117.288ZM464.56 113.688C465.448 113.688 466.204 113.436 466.828 112.932C467.476 112.428 467.944 111.72 468.232 110.808C468.472 110.016 468.592 109.008 468.592 107.784C468.592 106.488 468.472 105.48 468.232 104.76C467.968 103.848 467.512 103.152 466.864 102.672C466.216 102.168 465.424 101.916 464.488 101.916C463.6 101.916 462.832 102.168 462.184 102.672C461.536 103.152 461.068 103.848 460.78 104.76C460.54 105.6 460.42 106.608 460.42 107.784C460.42 108.96 460.54 109.968 460.78 110.808C461.044 111.72 461.5 112.428 462.148 112.932C462.82 113.436 463.624 113.688 464.56 113.688ZM480.805 117C480.565 117 480.409 116.88 480.337 116.64L474.541 99.072C474.517 99.024 474.505 98.964 474.505 98.892C474.505 98.676 474.637 98.568 474.901 98.568H478.573C478.837 98.568 479.005 98.688 479.077 98.928L482.569 110.952C482.593 111.024 482.629 111.06 482.677 111.06C482.725 111.06 482.761 111.024 482.785 110.952L486.277 98.928C486.349 98.688 486.517 98.568 486.781 98.568L490.453 98.64C490.597 98.64 490.705 98.688 490.777 98.784C490.849 98.856 490.861 98.976 490.813 99.144L485.053 116.64C484.981 116.88 484.825 117 484.585 117H480.805ZM508.51 105.732C508.606 106.332 508.654 107.004 508.654 107.748L508.618 108.864C508.618 109.152 508.474 109.296 508.186 109.296H496.918C496.798 109.296 496.738 109.356 496.738 109.476C496.81 110.268 496.918 110.808 497.062 111.096C497.638 112.824 499.042 113.7 501.274 113.724C502.906 113.724 504.202 113.052 505.162 111.708C505.258 111.564 505.378 111.492 505.522 111.492C505.618 111.492 505.702 111.528 505.774 111.6L508.006 113.436C508.222 113.604 508.258 113.796 508.114 114.012C507.37 115.068 506.374 115.884 505.126 116.46C503.902 117.036 502.534 117.324 501.022 117.324C499.15 117.324 497.554 116.904 496.234 116.064C494.938 115.224 493.99 114.048 493.39 112.536C492.838 111.24 492.562 109.44 492.562 107.136C492.562 105.744 492.706 104.616 492.994 103.752C493.474 102.072 494.374 100.752 495.694 99.792C497.038 98.808 498.646 98.316 500.518 98.316C505.246 98.316 507.91 100.788 508.51 105.732ZM500.518 101.916C499.63 101.916 498.886 102.144 498.286 102.6C497.71 103.032 497.302 103.644 497.062 104.436C496.918 104.844 496.822 105.372 496.774 106.02C496.726 106.14 496.774 106.2 496.918 106.2H504.226C504.346 106.2 504.406 106.14 504.406 106.02C504.358 105.42 504.286 104.964 504.19 104.652C503.974 103.788 503.542 103.116 502.894 102.636C502.27 102.156 501.478 101.916 500.518 101.916ZM521.038 98.388C521.806 98.388 522.478 98.544 523.054 98.856C523.246 98.952 523.318 99.132 523.27 99.396L522.658 102.636C522.634 102.924 522.466 103.008 522.154 102.888C521.794 102.768 521.374 102.708 520.894 102.708C520.582 102.708 520.342 102.72 520.174 102.744C519.166 102.792 518.326 103.152 517.654 103.824C516.982 104.472 516.646 105.324 516.646 106.38V116.568C516.646 116.688 516.598 116.796 516.502 116.892C516.43 116.964 516.334 117 516.214 117H512.902C512.782 117 512.674 116.964 512.578 116.892C512.506 116.796 512.47 116.688 512.47 116.568V99.036C512.47 98.916 512.506 98.82 512.578 98.748C512.674 98.652 512.782 98.604 512.902 98.604H516.214C516.334 98.604 516.43 98.652 516.502 98.748C516.598 98.82 516.646 98.916 516.646 99.036V100.656C516.646 100.752 516.658 100.812 516.682 100.836C516.73 100.836 516.778 100.8 516.826 100.728C517.834 99.168 519.238 98.388 521.038 98.388ZM542.968 101.556C542.968 101.676 542.92 101.784 542.824 101.88C542.752 101.952 542.656 101.988 542.536 101.988H538.864C538.744 101.988 538.684 102.048 538.684 102.168V110.844C538.684 111.756 538.876 112.416 539.26 112.824C539.668 113.232 540.304 113.436 541.168 113.436H542.248C542.368 113.436 542.464 113.484 542.536 113.58C542.632 113.652 542.68 113.748 542.68 113.868V116.568C542.68 116.832 542.536 116.988 542.248 117.036L540.376 117.072C538.48 117.072 537.064 116.748 536.128 116.1C535.192 115.452 534.712 114.228 534.688 112.428V102.168C534.688 102.048 534.628 101.988 534.508 101.988H532.456C532.336 101.988 532.228 101.952 532.132 101.88C532.06 101.784 532.024 101.676 532.024 101.556V99.036C532.024 98.916 532.06 98.82 532.132 98.748C532.228 98.652 532.336 98.604 532.456 98.604H534.508C534.628 98.604 534.688 98.544 534.688 98.424V94.212C534.688 94.092 534.724 93.996 534.796 93.924C534.892 93.828 535 93.78 535.12 93.78H538.252C538.372 93.78 538.468 93.828 538.54 93.924C538.636 93.996 538.684 94.092 538.684 94.212V98.424C538.684 98.544 538.744 98.604 538.864 98.604H542.536C542.656 98.604 542.752 98.652 542.824 98.748C542.92 98.82 542.968 98.916 542.968 99.036V101.556ZM555.497 98.316C557.441 98.316 558.989 98.892 560.141 100.044C561.317 101.196 561.905 102.768 561.905 104.76V116.568C561.905 116.688 561.857 116.796 561.761 116.892C561.689 116.964 561.593 117 561.473 117H558.161C558.041 117 557.933 116.964 557.837 116.892C557.765 116.796 557.729 116.688 557.729 116.568V105.624C557.729 104.52 557.417 103.632 556.793 102.96C556.169 102.264 555.341 101.916 554.309 101.916C553.277 101.916 552.437 102.252 551.789 102.924C551.165 103.596 550.853 104.484 550.853 105.588V116.568C550.853 116.688 550.805 116.796 550.709 116.892C550.637 116.964 550.541 117 550.421 117H547.109C546.989 117 546.881 116.964 546.785 116.892C546.713 116.796 546.677 116.688 546.677 116.568V92.232C546.677 92.112 546.713 92.016 546.785 91.944C546.881 91.848 546.989 91.8 547.109 91.8H550.421C550.541 91.8 550.637 91.848 550.709 91.944C550.805 92.016 550.853 92.112 550.853 92.232V100.188C550.853 100.26 550.877 100.308 550.925 100.332C550.973 100.356 551.009 100.332 551.033 100.26C552.017 98.964 553.505 98.316 555.497 98.316ZM581.635 105.732C581.731 106.332 581.779 107.004 581.779 107.748L581.743 108.864C581.743 109.152 581.599 109.296 581.311 109.296H570.043C569.923 109.296 569.863 109.356 569.863 109.476C569.935 110.268 570.043 110.808 570.187 111.096C570.763 112.824 572.167 113.7 574.399 113.724C576.031 113.724 577.327 113.052 578.287 111.708C578.383 111.564 578.503 111.492 578.647 111.492C578.743 111.492 578.827 111.528 578.899 111.6L581.131 113.436C581.347 113.604 581.383 113.796 581.239 114.012C580.495 115.068 579.499 115.884 578.251 116.46C577.027 117.036 575.659 117.324 574.147 117.324C572.275 117.324 570.679 116.904 569.359 116.064C568.063 115.224 567.115 114.048 566.515 112.536C565.963 111.24 565.687 109.44 565.687 107.136C565.687 105.744 565.831 104.616 566.119 103.752C566.599 102.072 567.499 100.752 568.819 99.792C570.163 98.808 571.771 98.316 573.643 98.316C578.371 98.316 581.035 100.788 581.635 105.732ZM573.643 101.916C572.755 101.916 572.011 102.144 571.411 102.6C570.835 103.032 570.427 103.644 570.187 104.436C570.043 104.844 569.947 105.372 569.899 106.02C569.851 106.14 569.899 106.2 570.043 106.2H577.351C577.471 106.2 577.531 106.14 577.531 106.02C577.483 105.42 577.411 104.964 577.315 104.652C577.099 103.788 576.667 103.116 576.019 102.636C575.395 102.156 574.603 101.916 573.643 101.916ZM595.178 96.084C594.434 96.084 593.822 95.844 593.342 95.364C592.862 94.884 592.622 94.272 592.622 93.528C592.622 92.784 592.862 92.172 593.342 91.692C593.822 91.212 594.434 90.972 595.178 90.972C595.922 90.972 596.534 91.212 597.014 91.692C597.494 92.172 597.734 92.784 597.734 93.528C597.734 94.272 597.494 94.884 597.014 95.364C596.534 95.844 595.922 96.084 595.178 96.084ZM593.45 117C593.33 117 593.222 116.964 593.126 116.892C593.054 116.796 593.018 116.688 593.018 116.568V99C593.018 98.88 593.054 98.784 593.126 98.712C593.222 98.616 593.33 98.568 593.45 98.568H596.762C596.882 98.568 596.978 98.616 597.05 98.712C597.146 98.784 597.194 98.88 597.194 99V116.568C597.194 116.688 597.146 116.796 597.05 116.892C596.978 116.964 596.882 117 596.762 117H593.45ZM610.798 98.316C612.742 98.316 614.29 98.892 615.442 100.044C616.618 101.196 617.206 102.768 617.206 104.76V116.568C617.206 116.688 617.158 116.796 617.062 116.892C616.99 116.964 616.894 117 616.774 117H613.462C613.342 117 613.234 116.964 613.138 116.892C613.066 116.796 613.03 116.688 613.03 116.568V105.624C613.03 104.52 612.718 103.632 612.094 102.96C611.47 102.264 610.642 101.916 609.61 101.916C608.578 101.916 607.738 102.252 607.09 102.924C606.466 103.596 606.154 104.484 606.154 105.588V116.568C606.154 116.688 606.106 116.796 606.01 116.892C605.938 116.964 605.842 117 605.722 117H602.41C602.29 117 602.182 116.964 602.086 116.892C602.014 116.796 601.978 116.688 601.978 116.568V99.036C601.978 98.916 602.014 98.82 602.086 98.748C602.182 98.652 602.29 98.604 602.41 98.604H605.722C605.842 98.604 605.938 98.652 606.01 98.748C606.106 98.82 606.154 98.916 606.154 99.036V100.188C606.154 100.26 606.178 100.308 606.226 100.332C606.274 100.356 606.31 100.332 606.334 100.26C607.318 98.964 608.806 98.316 610.798 98.316ZM631.316 101.556C631.316 101.676 631.268 101.784 631.172 101.88C631.1 101.952 631.004 101.988 630.884 101.988H627.212C627.092 101.988 627.032 102.048 627.032 102.168V110.844C627.032 111.756 627.224 112.416 627.608 112.824C628.016 113.232 628.652 113.436 629.516 113.436H630.596C630.716 113.436 630.812 113.484 630.884 113.58C630.98 113.652 631.028 113.748 631.028 113.868V116.568C631.028 116.832 630.884 116.988 630.596 117.036L628.724 117.072C626.828 117.072 625.412 116.748 624.476 116.1C623.54 115.452 623.06 114.228 623.036 112.428V102.168C623.036 102.048 622.976 101.988 622.856 101.988H620.804C620.684 101.988 620.576 101.952 620.48 101.88C620.408 101.784 620.372 101.676 620.372 101.556V99.036C620.372 98.916 620.408 98.82 620.48 98.748C620.576 98.652 620.684 98.604 620.804 98.604H622.856C622.976 98.604 623.036 98.544 623.036 98.424V94.212C623.036 94.092 623.072 93.996 623.144 93.924C623.24 93.828 623.348 93.78 623.468 93.78H626.6C626.72 93.78 626.816 93.828 626.888 93.924C626.984 93.996 627.032 94.092 627.032 94.212V98.424C627.032 98.544 627.092 98.604 627.212 98.604H630.884C631.004 98.604 631.1 98.652 631.172 98.748C631.268 98.82 631.316 98.916 631.316 99.036V101.556ZM650.189 105.732C650.285 106.332 650.333 107.004 650.333 107.748L650.297 108.864C650.297 109.152 650.153 109.296 649.865 109.296H638.597C638.477 109.296 638.417 109.356 638.417 109.476C638.489 110.268 638.597 110.808 638.741 111.096C639.317 112.824 640.721 113.7 642.953 113.724C644.585 113.724 645.881 113.052 646.841 111.708C646.937 111.564 647.057 111.492 647.201 111.492C647.297 111.492 647.381 111.528 647.453 111.6L649.685 113.436C649.901 113.604 649.937 113.796 649.793 114.012C649.049 115.068 648.053 115.884 646.805 116.46C645.581 117.036 644.213 117.324 642.701 117.324C640.829 117.324 639.233 116.904 637.913 116.064C636.617 115.224 635.669 114.048 635.069 112.536C634.517 111.24 634.241 109.44 634.241 107.136C634.241 105.744 634.385 104.616 634.673 103.752C635.153 102.072 636.053 100.752 637.373 99.792C638.717 98.808 640.325 98.316 642.197 98.316C646.925 98.316 649.589 100.788 650.189 105.732ZM642.197 101.916C641.309 101.916 640.565 102.144 639.965 102.6C639.389 103.032 638.981 103.644 638.741 104.436C638.597 104.844 638.501 105.372 638.453 106.02C638.405 106.14 638.453 106.2 638.597 106.2H645.905C646.025 106.2 646.085 106.14 646.085 106.02C646.037 105.42 645.965 104.964 645.869 104.652C645.653 103.788 645.221 103.116 644.573 102.636C643.949 102.156 643.157 101.916 642.197 101.916ZM662.718 98.388C663.486 98.388 664.158 98.544 664.734 98.856C664.926 98.952 664.998 99.132 664.95 99.396L664.338 102.636C664.314 102.924 664.146 103.008 663.834 102.888C663.474 102.768 663.054 102.708 662.574 102.708C662.262 102.708 662.022 102.72 661.854 102.744C660.846 102.792 660.006 103.152 659.334 103.824C658.662 104.472 658.326 105.324 658.326 106.38V116.568C658.326 116.688 658.278 116.796 658.182 116.892C658.11 116.964 658.014 117 657.894 117H654.582C654.462 117 654.354 116.964 654.258 116.892C654.186 116.796 654.15 116.688 654.15 116.568V99.036C654.15 98.916 654.186 98.82 654.258 98.748C654.354 98.652 654.462 98.604 654.582 98.604H657.894C658.014 98.604 658.11 98.652 658.182 98.748C658.278 98.82 658.326 98.916 658.326 99.036V100.656C658.326 100.752 658.338 100.812 658.362 100.836C658.41 100.836 658.458 100.8 658.506 100.728C659.514 99.168 660.918 98.388 662.718 98.388ZM676.505 98.316C678.449 98.316 679.997 98.892 681.149 100.044C682.325 101.196 682.913 102.768 682.913 104.76V116.568C682.913 116.688 682.865 116.796 682.769 116.892C682.697 116.964 682.601 117 682.481 117H679.169C679.049 117 678.941 116.964 678.845 116.892C678.773 116.796 678.737 116.688 678.737 116.568V105.624C678.737 104.52 678.425 103.632 677.801 102.96C677.177 102.264 676.349 101.916 675.317 101.916C674.285 101.916 673.445 102.252 672.797 102.924C672.173 103.596 671.861 104.484 671.861 105.588V116.568C671.861 116.688 671.813 116.796 671.717 116.892C671.645 116.964 671.549 117 671.429 117H668.117C667.997 117 667.889 116.964 667.793 116.892C667.721 116.796 667.685 116.688 667.685 116.568V99.036C667.685 98.916 667.721 98.82 667.793 98.748C667.889 98.652 667.997 98.604 668.117 98.604H671.429C671.549 98.604 671.645 98.652 671.717 98.748C671.813 98.82 671.861 98.916 671.861 99.036V100.188C671.861 100.26 671.885 100.308 671.933 100.332C671.981 100.356 672.017 100.332 672.041 100.26C673.025 98.964 674.513 98.316 676.505 98.316ZM702.643 105.732C702.739 106.332 702.787 107.004 702.787 107.748L702.751 108.864C702.751 109.152 702.607 109.296 702.319 109.296H691.051C690.931 109.296 690.871 109.356 690.871 109.476C690.943 110.268 691.051 110.808 691.195 111.096C691.771 112.824 693.175 113.7 695.407 113.724C697.039 113.724 698.335 113.052 699.295 111.708C699.391 111.564 699.511 111.492 699.655 111.492C699.751 111.492 699.835 111.528 699.907 111.6L702.139 113.436C702.355 113.604 702.391 113.796 702.247 114.012C701.503 115.068 700.507 115.884 699.259 116.46C698.035 117.036 696.667 117.324 695.155 117.324C693.283 117.324 691.687 116.904 690.367 116.064C689.071 115.224 688.123 114.048 687.523 112.536C686.971 111.24 686.695 109.44 686.695 107.136C686.695 105.744 686.839 104.616 687.127 103.752C687.607 102.072 688.507 100.752 689.827 99.792C691.171 98.808 692.779 98.316 694.651 98.316C699.379 98.316 702.043 100.788 702.643 105.732ZM694.651 101.916C693.763 101.916 693.019 102.144 692.419 102.6C691.843 103.032 691.435 103.644 691.195 104.436C691.051 104.844 690.955 105.372 690.907 106.02C690.859 106.14 690.907 106.2 691.051 106.2H698.359C698.479 106.2 698.539 106.14 698.539 106.02C698.491 105.42 698.419 104.964 698.323 104.652C698.107 103.788 697.675 103.116 697.027 102.636C696.403 102.156 695.611 101.916 694.651 101.916ZM716.008 101.556C716.008 101.676 715.96 101.784 715.864 101.88C715.792 101.952 715.696 101.988 715.576 101.988H711.904C711.784 101.988 711.724 102.048 711.724 102.168V110.844C711.724 111.756 711.916 112.416 712.3 112.824C712.708 113.232 713.344 113.436 714.208 113.436H715.288C715.408 113.436 715.504 113.484 715.576 113.58C715.672 113.652 715.72 113.748 715.72 113.868V116.568C715.72 116.832 715.576 116.988 715.288 117.036L713.416 117.072C711.52 117.072 710.104 116.748 709.168 116.1C708.232 115.452 707.752 114.228 707.728 112.428V102.168C707.728 102.048 707.668 101.988 707.548 101.988H705.496C705.376 101.988 705.268 101.952 705.172 101.88C705.1 101.784 705.064 101.676 705.064 101.556V99.036C705.064 98.916 705.1 98.82 705.172 98.748C705.268 98.652 705.376 98.604 705.496 98.604H707.548C707.668 98.604 707.728 98.544 707.728 98.424V94.212C707.728 94.092 707.764 93.996 707.836 93.924C707.932 93.828 708.04 93.78 708.16 93.78H711.292C711.412 93.78 711.508 93.828 711.58 93.924C711.676 93.996 711.724 94.092 711.724 94.212V98.424C711.724 98.544 711.784 98.604 711.904 98.604H715.576C715.696 98.604 715.792 98.652 715.864 98.748C715.96 98.82 716.008 98.916 716.008 99.036V101.556Z" fill="#1B1E2B"/>
<circle cx="82" cy="69" r="48" fill="url(#paint1_linear_113_63901)"/>
<circle cx="82" cy="69" r="41.25" fill="url(#paint2_linear_113_63901)"/>
<defs>
<linearGradient id="paint0_linear_113_63901" x1="400" y1="45.1818" x2="400" y2="142" gradientUnits="userSpaceOnUse">
<stop stop-color="#DFCCA7"/>
<stop offset="1" stop-color="#9F723D"/>
</linearGradient>
<linearGradient id="paint1_linear_113_63901" x1="46" y1="28.875" x2="104.5" y2="117" gradientUnits="userSpaceOnUse">
<stop stop-color="#9995BE"/>
<stop offset="1" stop-color="#3B3A4C"/>
</linearGradient>
<linearGradient id="paint2_linear_113_63901" x1="55.375" y1="31.875" x2="110.5" y2="110.25" gradientUnits="userSpaceOnUse">
<stop stop-color="#232244"/>
<stop offset="1" stop-color="#02061A"/>
</linearGradient>
</defs>
</svg>
