<svg width="100%" height="100%" viewBox="0 0 149 57" fill="none" xmlns="http://www.w3.org/2000/svg">
<mask id="path-1-outside-1_134_63908" maskUnits="userSpaceOnUse" x="12" y="7" width="124" height="45" fill="black">
<rect fill="white" x="12" y="7" width="124" height="45"/>
<path d="M27.4 11.96C29.7467 11.96 31.6267 12.68 33.04 14.12C34.48 15.56 35.2 17.4533 35.2 19.8C35.2 22.12 34.4667 23.9867 33 25.4C31.56 26.8133 29.6533 27.52 27.28 27.52H19.48C19.3733 27.52 19.32 27.5733 19.32 27.68V39.6C19.32 39.8667 19.1867 40 18.92 40H16.88C16.6133 40 16.48 39.8667 16.48 39.6V12.36C16.48 12.0933 16.6133 11.96 16.88 11.96H27.4ZM27.08 25.16C28.6533 25.16 29.9333 24.68 30.92 23.72C31.9067 22.7333 32.4 21.44 32.4 19.84C32.4 18.2133 31.9067 16.9067 30.92 15.92C29.9333 14.9333 28.6533 14.44 27.08 14.44H19.48C19.3733 14.44 19.32 14.4933 19.32 14.6V25C19.32 25.1067 19.3733 25.16 19.48 25.16H27.08ZM40.2719 40C40.0052 40 39.8719 39.8667 39.8719 39.6V12.4C39.8719 12.1333 40.0052 12 40.2719 12H42.3119C42.5785 12 42.7119 12.1333 42.7119 12.4V39.6C42.7119 39.8667 42.5785 40 42.3119 40H40.2719ZM56.0906 19.44C58.4906 19.44 60.344 20.0533 61.6506 21.28C62.9573 22.5067 63.6106 24.1333 63.6106 26.16V39.6C63.6106 39.8667 63.4773 40 63.2106 40H61.1706C60.904 40 60.7706 39.8667 60.7706 39.6V37.96C60.7706 37.9067 60.744 37.8667 60.6906 37.84C60.664 37.8133 60.624 37.8267 60.5706 37.88C59.904 38.68 59.0373 39.2933 57.9706 39.72C56.904 40.12 55.7173 40.32 54.4106 40.32C52.5173 40.32 50.9306 39.84 49.6506 38.88C48.3706 37.92 47.7306 36.4533 47.7306 34.48C47.7306 32.48 48.4506 30.9067 49.8906 29.76C51.3573 28.5867 53.384 28 55.9706 28H60.6106C60.7173 28 60.7706 27.9467 60.7706 27.84V26.32C60.7706 24.96 60.384 23.8933 59.6106 23.12C58.864 22.32 57.6906 21.92 56.0906 21.92C54.8106 21.92 53.7706 22.1733 52.9706 22.68C52.1706 23.16 51.6773 23.84 51.4906 24.72C51.4106 24.9867 51.2506 25.1067 51.0106 25.08L48.8506 24.8C48.5573 24.7467 48.4373 24.64 48.4906 24.48C48.704 22.9867 49.504 21.7733 50.8906 20.84C52.2773 19.9067 54.0106 19.44 56.0906 19.44ZM54.9706 37.88C56.544 37.88 57.904 37.4933 59.0506 36.72C60.1973 35.92 60.7706 34.8533 60.7706 33.52V30.4C60.7706 30.2933 60.7173 30.24 60.6106 30.24H56.4106C54.6506 30.24 53.2373 30.6 52.1706 31.32C51.104 32.04 50.5706 33.04 50.5706 34.32C50.5706 35.4933 50.9706 36.3867 51.7706 37C52.5973 37.5867 53.664 37.88 54.9706 37.88ZM68.3659 48C68.1793 48 68.0859 47.8667 68.0859 47.6V46C68.0859 45.7333 68.2193 45.6 68.4859 45.6H68.6459C69.6859 45.5733 70.4859 45.4133 71.0459 45.12C71.6326 44.8533 72.1259 44.3333 72.5259 43.56C72.9526 42.8133 73.4059 41.6667 73.8859 40.12C73.9393 40.0133 73.9393 39.9333 73.8859 39.88L67.1259 20.2L67.0859 20.04C67.0859 19.8533 67.2059 19.76 67.4459 19.76H69.5659C69.8059 19.76 69.9659 19.8667 70.0459 20.08L75.2459 36.24C75.2726 36.2933 75.3126 36.32 75.3659 36.32C75.4193 36.32 75.4593 36.2933 75.4859 36.24L80.6059 20.08C80.6859 19.8667 80.8459 19.76 81.0859 19.76H83.1659C83.4593 19.76 83.5659 19.9067 83.4859 20.2L76.0859 41.76C75.4459 43.5467 74.8459 44.8667 74.2859 45.72C73.7259 46.5733 73.0193 47.16 72.1659 47.48C71.3393 47.8267 70.1659 48 68.6459 48H68.3659ZM113.171 12C113.438 12 113.571 12.1333 113.571 12.4V14.12C113.571 14.3867 113.438 14.52 113.171 14.52H105.331C105.225 14.52 105.171 14.5733 105.171 14.68V39.6C105.171 39.8667 105.038 40 104.771 40H102.731C102.465 40 102.331 39.8667 102.331 39.6V14.68C102.331 14.5733 102.278 14.52 102.171 14.52H94.6513C94.3846 14.52 94.2513 14.3867 94.2513 14.12V12.4C94.2513 12.1333 94.3846 12 94.6513 12H113.171ZM123.412 40.32C121.492 40.32 119.839 39.8267 118.452 38.84C117.066 37.8533 116.106 36.4933 115.572 34.76C115.199 33.5333 115.012 31.8933 115.012 29.84C115.012 27.7867 115.199 26.16 115.572 24.96C116.079 23.2533 117.026 21.9067 118.412 20.92C119.799 19.9333 121.479 19.44 123.452 19.44C125.346 19.44 126.972 19.9333 128.332 20.92C129.719 21.9067 130.666 23.24 131.172 24.92C131.546 26.0667 131.732 27.7067 131.732 29.84C131.732 32 131.546 33.64 131.172 34.76C130.666 36.4933 129.719 37.8533 128.332 38.84C126.972 39.8267 125.332 40.32 123.412 40.32ZM123.412 37.84C124.692 37.84 125.786 37.4933 126.692 36.8C127.599 36.08 128.212 35.12 128.532 33.92C128.772 32.96 128.892 31.6133 128.892 29.88C128.892 28.12 128.786 26.7733 128.572 25.84C128.252 24.64 127.626 23.6933 126.692 23C125.786 22.28 124.679 21.92 123.372 21.92C122.066 21.92 120.959 22.28 120.052 23C119.146 23.6933 118.532 24.64 118.212 25.84C117.999 26.7733 117.892 28.12 117.892 29.88C117.892 31.64 117.999 32.9867 118.212 33.92C118.506 35.12 119.106 36.08 120.012 36.8C120.946 37.4933 122.079 37.84 123.412 37.84Z"/>
</mask>
<path d="M27.4 11.96C29.7467 11.96 31.6267 12.68 33.04 14.12C34.48 15.56 35.2 17.4533 35.2 19.8C35.2 22.12 34.4667 23.9867 33 25.4C31.56 26.8133 29.6533 27.52 27.28 27.52H19.48C19.3733 27.52 19.32 27.5733 19.32 27.68V39.6C19.32 39.8667 19.1867 40 18.92 40H16.88C16.6133 40 16.48 39.8667 16.48 39.6V12.36C16.48 12.0933 16.6133 11.96 16.88 11.96H27.4ZM27.08 25.16C28.6533 25.16 29.9333 24.68 30.92 23.72C31.9067 22.7333 32.4 21.44 32.4 19.84C32.4 18.2133 31.9067 16.9067 30.92 15.92C29.9333 14.9333 28.6533 14.44 27.08 14.44H19.48C19.3733 14.44 19.32 14.4933 19.32 14.6V25C19.32 25.1067 19.3733 25.16 19.48 25.16H27.08ZM40.2719 40C40.0052 40 39.8719 39.8667 39.8719 39.6V12.4C39.8719 12.1333 40.0052 12 40.2719 12H42.3119C42.5785 12 42.7119 12.1333 42.7119 12.4V39.6C42.7119 39.8667 42.5785 40 42.3119 40H40.2719ZM56.0906 19.44C58.4906 19.44 60.344 20.0533 61.6506 21.28C62.9573 22.5067 63.6106 24.1333 63.6106 26.16V39.6C63.6106 39.8667 63.4773 40 63.2106 40H61.1706C60.904 40 60.7706 39.8667 60.7706 39.6V37.96C60.7706 37.9067 60.744 37.8667 60.6906 37.84C60.664 37.8133 60.624 37.8267 60.5706 37.88C59.904 38.68 59.0373 39.2933 57.9706 39.72C56.904 40.12 55.7173 40.32 54.4106 40.32C52.5173 40.32 50.9306 39.84 49.6506 38.88C48.3706 37.92 47.7306 36.4533 47.7306 34.48C47.7306 32.48 48.4506 30.9067 49.8906 29.76C51.3573 28.5867 53.384 28 55.9706 28H60.6106C60.7173 28 60.7706 27.9467 60.7706 27.84V26.32C60.7706 24.96 60.384 23.8933 59.6106 23.12C58.864 22.32 57.6906 21.92 56.0906 21.92C54.8106 21.92 53.7706 22.1733 52.9706 22.68C52.1706 23.16 51.6773 23.84 51.4906 24.72C51.4106 24.9867 51.2506 25.1067 51.0106 25.08L48.8506 24.8C48.5573 24.7467 48.4373 24.64 48.4906 24.48C48.704 22.9867 49.504 21.7733 50.8906 20.84C52.2773 19.9067 54.0106 19.44 56.0906 19.44ZM54.9706 37.88C56.544 37.88 57.904 37.4933 59.0506 36.72C60.1973 35.92 60.7706 34.8533 60.7706 33.52V30.4C60.7706 30.2933 60.7173 30.24 60.6106 30.24H56.4106C54.6506 30.24 53.2373 30.6 52.1706 31.32C51.104 32.04 50.5706 33.04 50.5706 34.32C50.5706 35.4933 50.9706 36.3867 51.7706 37C52.5973 37.5867 53.664 37.88 54.9706 37.88ZM68.3659 48C68.1793 48 68.0859 47.8667 68.0859 47.6V46C68.0859 45.7333 68.2193 45.6 68.4859 45.6H68.6459C69.6859 45.5733 70.4859 45.4133 71.0459 45.12C71.6326 44.8533 72.1259 44.3333 72.5259 43.56C72.9526 42.8133 73.4059 41.6667 73.8859 40.12C73.9393 40.0133 73.9393 39.9333 73.8859 39.88L67.1259 20.2L67.0859 20.04C67.0859 19.8533 67.2059 19.76 67.4459 19.76H69.5659C69.8059 19.76 69.9659 19.8667 70.0459 20.08L75.2459 36.24C75.2726 36.2933 75.3126 36.32 75.3659 36.32C75.4193 36.32 75.4593 36.2933 75.4859 36.24L80.6059 20.08C80.6859 19.8667 80.8459 19.76 81.0859 19.76H83.1659C83.4593 19.76 83.5659 19.9067 83.4859 20.2L76.0859 41.76C75.4459 43.5467 74.8459 44.8667 74.2859 45.72C73.7259 46.5733 73.0193 47.16 72.1659 47.48C71.3393 47.8267 70.1659 48 68.6459 48H68.3659ZM113.171 12C113.438 12 113.571 12.1333 113.571 12.4V14.12C113.571 14.3867 113.438 14.52 113.171 14.52H105.331C105.225 14.52 105.171 14.5733 105.171 14.68V39.6C105.171 39.8667 105.038 40 104.771 40H102.731C102.465 40 102.331 39.8667 102.331 39.6V14.68C102.331 14.5733 102.278 14.52 102.171 14.52H94.6513C94.3846 14.52 94.2513 14.3867 94.2513 14.12V12.4C94.2513 12.1333 94.3846 12 94.6513 12H113.171ZM123.412 40.32C121.492 40.32 119.839 39.8267 118.452 38.84C117.066 37.8533 116.106 36.4933 115.572 34.76C115.199 33.5333 115.012 31.8933 115.012 29.84C115.012 27.7867 115.199 26.16 115.572 24.96C116.079 23.2533 117.026 21.9067 118.412 20.92C119.799 19.9333 121.479 19.44 123.452 19.44C125.346 19.44 126.972 19.9333 128.332 20.92C129.719 21.9067 130.666 23.24 131.172 24.92C131.546 26.0667 131.732 27.7067 131.732 29.84C131.732 32 131.546 33.64 131.172 34.76C130.666 36.4933 129.719 37.8533 128.332 38.84C126.972 39.8267 125.332 40.32 123.412 40.32ZM123.412 37.84C124.692 37.84 125.786 37.4933 126.692 36.8C127.599 36.08 128.212 35.12 128.532 33.92C128.772 32.96 128.892 31.6133 128.892 29.88C128.892 28.12 128.786 26.7733 128.572 25.84C128.252 24.64 127.626 23.6933 126.692 23C125.786 22.28 124.679 21.92 123.372 21.92C122.066 21.92 120.959 22.28 120.052 23C119.146 23.6933 118.532 24.64 118.212 25.84C117.999 26.7733 117.892 28.12 117.892 29.88C117.892 31.64 117.999 32.9867 118.212 33.92C118.506 35.12 119.106 36.08 120.012 36.8C120.946 37.4933 122.079 37.84 123.412 37.84Z" fill="url(#paint0_linear_134_63908)"/>
<path d="M33.04 14.12L30.1853 16.9219L30.1984 16.9352L30.2116 16.9484L33.04 14.12ZM33 25.4L30.2244 22.5197L30.2112 22.5324L30.1981 22.5453L33 25.4ZM30.92 23.72L33.7094 26.5869L33.7291 26.5678L33.7484 26.5484L30.92 23.72ZM30.92 15.92L33.7484 13.0916L33.7484 13.0916L30.92 15.92ZM27.4 15.96C28.8626 15.96 29.6474 16.3738 30.1853 16.9219L35.8947 11.3181C33.6059 8.98615 30.6307 7.96 27.4 7.96V15.96ZM30.2116 16.9484C30.7861 17.5229 31.2 18.3391 31.2 19.8H39.2C39.2 16.5676 38.174 13.5971 35.8684 11.2916L30.2116 16.9484ZM31.2 19.8C31.2 21.1987 30.7972 21.9678 30.2244 22.5197L35.7756 28.2803C38.1362 26.0056 39.2 23.0413 39.2 19.8H31.2ZM30.1981 22.5453C29.6366 23.0964 28.8038 23.52 27.28 23.52V31.52C30.5029 31.52 33.4834 30.5302 35.8019 28.2547L30.1981 22.5453ZM27.28 23.52H19.48V31.52H27.28V23.52ZM19.48 23.52C18.8101 23.52 17.573 23.6902 16.5316 24.7316C15.4902 25.773 15.32 27.0101 15.32 27.68H23.32C23.32 28.2432 23.1765 29.4004 22.1884 30.3884C21.2004 31.3765 20.0432 31.52 19.48 31.52V23.52ZM15.32 27.68V39.6H23.32V27.68H15.32ZM15.32 39.6C15.32 39.1168 15.4435 38.0196 16.3916 37.0716C17.3396 36.1235 18.4368 36 18.92 36V44C19.6699 44 20.967 43.8098 22.0484 42.7284C23.1298 41.647 23.32 40.3499 23.32 39.6H15.32ZM18.92 36H16.88V44H18.92V36ZM16.88 36C17.3632 36 18.4604 36.1235 19.4084 37.0716C20.3565 38.0196 20.48 39.1168 20.48 39.6H12.48C12.48 40.3499 12.6702 41.647 13.7516 42.7284C14.833 43.8098 16.1301 44 16.88 44V36ZM20.48 39.6V12.36H12.48V39.6H20.48ZM20.48 12.36C20.48 12.8432 20.3565 13.9404 19.4084 14.8884C18.4604 15.8365 17.3632 15.96 16.88 15.96V7.96C16.1301 7.96 14.833 8.15019 13.7516 9.23157C12.6702 10.313 12.48 11.6101 12.48 12.36H20.48ZM16.88 15.96H27.4V7.96H16.88V15.96ZM27.08 29.16C29.5342 29.16 31.868 28.3785 33.7094 26.5869L28.1306 20.8531C27.9987 20.9815 27.7725 21.16 27.08 21.16V29.16ZM33.7484 26.5484C35.5968 24.7001 36.4 22.332 36.4 19.84H28.4C28.4 20.548 28.2166 20.7666 28.0916 20.8916L33.7484 26.5484ZM36.4 19.84C36.4 17.3424 35.6096 14.9528 33.7484 13.0916L28.0916 18.7484C28.2037 18.8605 28.4 19.0843 28.4 19.84H36.4ZM33.7484 13.0916C31.9133 11.2565 29.5666 10.44 27.08 10.44V18.44C27.7401 18.44 27.9533 18.6102 28.0916 18.7484L33.7484 13.0916ZM27.08 10.44H19.48V18.44H27.08V10.44ZM19.48 10.44C18.8101 10.44 17.573 10.6102 16.5316 11.6516C15.4902 12.693 15.32 13.9301 15.32 14.6H23.32C23.32 15.1632 23.1765 16.3204 22.1884 17.3084C21.2004 18.2965 20.0432 18.44 19.48 18.44V10.44ZM15.32 14.6V25H23.32V14.6H15.32ZM15.32 25C15.32 25.6699 15.4902 26.907 16.5316 27.9484C17.573 28.9898 18.8101 29.16 19.48 29.16V21.16C20.0432 21.16 21.2004 21.3035 22.1884 22.2916C23.1765 23.2796 23.32 24.4368 23.32 25H15.32ZM19.48 29.16H27.08V21.16H19.48V29.16ZM40.2719 36C40.7551 36 41.8523 36.1235 42.8003 37.0716C43.7484 38.0196 43.8719 39.1168 43.8719 39.6H35.8719C35.8719 40.3499 36.0621 41.647 37.1434 42.7284C38.2248 43.8098 39.522 44 40.2719 44V36ZM43.8719 39.6V12.4H35.8719V39.6H43.8719ZM43.8719 12.4C43.8719 12.8832 43.7484 13.9804 42.8003 14.9284C41.8522 15.8765 40.7551 16 40.2719 16V8C39.522 8 38.2248 8.19018 37.1434 9.27157C36.0621 10.353 35.8719 11.6501 35.8719 12.4H43.8719ZM40.2719 16H42.3119V8H40.2719V16ZM42.3119 16C41.8286 16 40.7315 15.8765 39.7835 14.9284C38.8354 13.9804 38.7119 12.8832 38.7119 12.4H46.7119C46.7119 11.6501 46.5217 10.353 45.4403 9.27157C44.3589 8.19018 43.0618 8 42.3119 8V16ZM38.7119 12.4V39.6H46.7119V12.4H38.7119ZM38.7119 39.6C38.7119 39.1168 38.8354 38.0196 39.7834 37.0716C40.7315 36.1235 41.8286 36 42.3119 36V44C43.0618 44 44.3589 43.8098 45.4403 42.7284C46.5217 41.647 46.7119 40.3499 46.7119 39.6H38.7119ZM42.3119 36H40.2719V44H42.3119V36ZM61.6506 21.28L64.3884 18.3637L64.3884 18.3637L61.6506 21.28ZM60.6906 37.84L57.8622 40.6684L58.3212 41.1274L58.9018 41.4177L60.6906 37.84ZM60.5706 37.88L57.7422 35.0516L57.6139 35.1799L57.4977 35.3193L60.5706 37.88ZM57.9706 39.72L59.3751 43.4653L59.4158 43.4501L59.4562 43.4339L57.9706 39.72ZM49.6506 38.88L47.2506 42.08L49.6506 38.88ZM49.8906 29.76L52.3823 32.8891L52.3894 32.8835L49.8906 29.76ZM59.6106 23.12L56.6864 25.8493L56.7334 25.8997L56.7822 25.9484L59.6106 23.12ZM52.9706 22.68L55.0286 26.11L55.07 26.0851L55.1108 26.0593L52.9706 22.68ZM51.4906 24.72L55.3219 25.8694L55.3693 25.7114L55.4036 25.55L51.4906 24.72ZM51.0106 25.08L50.4964 29.0468L50.5326 29.0515L50.5689 29.0555L51.0106 25.08ZM48.8506 24.8L48.1351 28.7355L48.2353 28.7537L48.3364 28.7668L48.8506 24.8ZM48.4906 24.48L52.2854 25.7449L52.3994 25.4027L52.4504 25.0457L48.4906 24.48ZM50.8906 20.84L48.6571 17.5216L48.6571 17.5216L50.8906 20.84ZM59.0506 36.72L61.2872 40.0363L61.3134 40.0186L61.3394 40.0005L59.0506 36.72ZM52.1706 31.32L54.4085 34.6354L54.4085 34.6354L52.1706 31.32ZM51.7706 37L49.3369 40.1744L49.3955 40.2193L49.4556 40.262L51.7706 37ZM56.0906 23.44C57.8259 23.44 58.5701 23.8745 58.9129 24.1963L64.3884 18.3637C62.1179 16.2322 59.1554 15.44 56.0906 15.44V23.44ZM58.9129 24.1963C59.3051 24.5645 59.6106 25.0789 59.6106 26.16H67.6106C67.6106 23.1877 66.6095 20.4489 64.3884 18.3637L58.9129 24.1963ZM59.6106 26.16V39.6H67.6106V26.16H59.6106ZM59.6106 39.6C59.6106 39.1168 59.7341 38.0196 60.6822 37.0716C61.6302 36.1235 62.7274 36 63.2106 36V44C63.9605 44 65.2577 43.8098 66.3391 42.7284C67.4204 41.647 67.6106 40.3499 67.6106 39.6H59.6106ZM63.2106 36H61.1706V44H63.2106V36ZM61.1706 36C61.6539 36 62.751 36.1235 63.699 37.0716C64.6471 38.0196 64.7706 39.1168 64.7706 39.6H56.7706C56.7706 40.3499 56.9608 41.647 58.0422 42.7284C59.1236 43.8098 60.4207 44 61.1706 44V36ZM64.7706 39.6V37.96H56.7706V39.6H64.7706ZM64.7706 37.96C64.7706 37.2334 64.5775 36.4192 64.0788 35.6712C63.5969 34.9483 62.9807 34.5129 62.4795 34.2623L58.9018 41.4177C58.4539 41.1938 57.8777 40.7917 57.4224 40.1088C56.9504 39.4008 56.7706 38.6333 56.7706 37.96H64.7706ZM63.5191 35.0116C63.0175 34.51 62.3189 34.0784 61.4526 33.9052C60.6158 33.7378 59.889 33.8642 59.3757 34.0353C58.4692 34.3375 57.9133 34.8804 57.7422 35.0516L63.3991 40.7084C63.2813 40.8262 62.7721 41.3359 61.9055 41.6247C61.4122 41.7892 60.7037 41.9138 59.8837 41.7498C59.034 41.5799 58.3504 41.1567 57.8622 40.6684L63.5191 35.0116ZM57.4977 35.3193C57.2989 35.5579 57 35.8001 56.4851 36.0061L59.4562 43.4339C61.0745 42.7866 62.509 41.8021 63.6435 40.4407L57.4977 35.3193ZM56.5661 35.9747C56.0094 36.1834 55.3072 36.32 54.4106 36.32V44.32C56.1273 44.32 57.7985 44.0566 59.3751 43.4653L56.5661 35.9747ZM54.4106 36.32C53.2189 36.32 52.5177 36.0303 52.0506 35.68L47.2506 42.08C49.3436 43.6497 51.8157 44.32 54.4106 44.32V36.32ZM52.0506 35.68C51.964 35.615 51.9202 35.5597 51.8768 35.4602C51.822 35.3346 51.7306 35.041 51.7306 34.48H43.7306C43.7306 37.3851 44.7275 40.1877 47.2506 42.08L52.0506 35.68ZM51.7306 34.48C51.7306 33.5776 51.986 33.2047 52.3823 32.8891L47.3989 26.6309C44.9152 28.6086 43.7306 31.3824 43.7306 34.48H51.7306ZM52.3894 32.8835C52.921 32.4582 53.9533 32 55.9706 32V24C52.8146 24 49.7936 24.7151 47.3918 26.6365L52.3894 32.8835ZM55.9706 32H60.6106V24H55.9706V32ZM60.6106 32C61.2805 32 62.5177 31.8298 63.5591 30.7884C64.6004 29.747 64.7706 28.5099 64.7706 27.84H56.7706C56.7706 27.2768 56.9141 26.1196 57.9022 25.1316C58.8902 24.1435 60.0474 24 60.6106 24V32ZM64.7706 27.84V26.32H56.7706V27.84H64.7706ZM64.7706 26.32C64.7706 24.1725 64.1359 21.9885 62.4391 20.2916L56.7822 25.9484C56.7663 25.9326 56.749 25.9113 56.7344 25.8882C56.7201 25.8655 56.7169 25.8543 56.7201 25.8632C56.727 25.8824 56.7706 26.015 56.7706 26.32H64.7706ZM62.5348 20.3907C60.7394 18.467 58.2823 17.92 56.0906 17.92V25.92C56.5725 25.92 56.8096 25.9821 56.8799 26.006C56.9272 26.0221 56.8191 25.9914 56.6864 25.8493L62.5348 20.3907ZM56.0906 17.92C54.3115 17.92 52.4587 18.2695 50.8304 19.3007L55.1108 26.0593C55.0825 26.0772 55.3098 25.92 56.0906 25.92V17.92ZM50.9126 19.25C49.2001 20.2776 48.0043 21.8787 47.5777 23.89L55.4036 25.55C55.389 25.6186 55.3435 25.754 55.2383 25.8989C55.1353 26.0409 55.0394 26.1035 55.0286 26.11L50.9126 19.25ZM47.6593 23.5706C47.771 23.1984 48.0845 22.4296 48.9106 21.81C49.8073 21.1375 50.7829 21.0301 51.4524 21.1045L50.5689 29.0555C51.4784 29.1566 52.6539 29.0025 53.7106 28.21C54.6967 27.4704 55.1303 26.5083 55.3219 25.8694L47.6593 23.5706ZM51.5248 21.1132L49.3648 20.8332L48.3364 28.7668L50.4964 29.0468L51.5248 21.1132ZM49.5662 20.8645C49.6161 20.8736 50.4147 20.994 51.1981 21.6904C51.6659 22.1062 52.1456 22.7476 52.3637 23.6199C52.5778 24.4764 52.4578 25.2276 52.2854 25.7449L44.6959 23.2151C44.4968 23.8124 44.3718 24.637 44.6026 25.5601C44.8373 26.4991 45.3554 27.2005 45.8832 27.6696C46.7865 28.4726 47.7918 28.6731 48.1351 28.7355L49.5662 20.8645ZM52.4504 25.0457C52.4854 24.8011 52.5633 24.5358 53.1241 24.1583L48.6571 17.5216C46.4446 19.0108 44.9225 21.1723 44.5308 23.9143L52.4504 25.0457ZM53.1241 24.1584C53.7054 23.7671 54.6111 23.44 56.0906 23.44V15.44C53.4102 15.44 50.8492 16.0462 48.6571 17.5216L53.1241 24.1584ZM54.9706 41.88C57.2277 41.88 59.3917 41.3146 61.2872 40.0363L56.8141 33.4037C56.4162 33.6721 55.8602 33.88 54.9706 33.88V41.88ZM61.3394 40.0005C63.4965 38.4955 64.7706 36.2344 64.7706 33.52H56.7706C56.7706 33.5653 56.7659 33.5684 56.7726 33.5406C56.7758 33.5273 56.7809 33.5095 56.7889 33.4886C56.7969 33.4676 56.8065 33.4464 56.8173 33.4262C56.8282 33.4061 56.8387 33.3897 56.8475 33.3774C56.8562 33.3653 56.8616 33.3594 56.8615 33.3595C56.8613 33.3597 56.8546 33.3669 56.839 33.3804C56.8233 33.394 56.7984 33.4141 56.7619 33.4395L61.3394 40.0005ZM64.7706 33.52V30.4H56.7706V33.52H64.7706ZM64.7706 30.4C64.7706 29.7301 64.6004 28.493 63.5591 27.4516C62.5177 26.4102 61.2805 26.24 60.6106 26.24V34.24C60.0474 34.24 58.8902 34.0965 57.9022 33.1084C56.9141 32.1204 56.7706 30.9632 56.7706 30.4H64.7706ZM60.6106 26.24H56.4106V34.24H60.6106V26.24ZM56.4106 26.24C54.1382 26.24 51.8627 26.7019 49.9327 28.0046L54.4085 34.6354C54.6118 34.4981 55.163 34.24 56.4106 34.24V26.24ZM49.9327 28.0046C47.7715 29.4634 46.5706 31.7021 46.5706 34.32H54.5706C54.5706 34.2785 54.5748 34.2836 54.5655 34.3236C54.5557 34.3656 54.5355 34.4258 54.5 34.4924C54.4646 34.5588 54.4266 34.6077 54.3994 34.6369C54.3736 34.6646 54.3701 34.6613 54.4085 34.6354L49.9327 28.0046ZM46.5706 34.32C46.5706 36.5069 47.3799 38.6741 49.3369 40.1744L54.2044 33.8256C54.2509 33.8613 54.3122 33.9172 54.3745 33.9955C54.4372 34.0742 54.4864 34.1572 54.5214 34.2353C54.5927 34.3947 54.5706 34.4533 54.5706 34.32H46.5706ZM49.4556 40.262C51.1308 41.4508 53.0738 41.88 54.9706 41.88V33.88C54.6128 33.88 54.3833 33.8395 54.2513 33.8032C54.1864 33.7853 54.145 33.7685 54.1216 33.7577C54.0987 33.747 54.0883 33.7399 54.0856 33.738L49.4556 40.262ZM68.6459 45.6V49.6H68.6972L68.7485 49.5987L68.6459 45.6ZM71.0459 45.12L69.3907 41.4785L69.2889 41.5248L69.1899 41.5767L71.0459 45.12ZM72.5259 43.56L69.053 41.5754L69.0115 41.648L68.9731 41.7223L72.5259 43.56ZM73.8859 40.12L70.3082 38.3311L70.1624 38.6229L70.0657 38.9344L73.8859 40.12ZM73.8859 39.88L70.1029 41.1795L70.4034 42.0543L71.0575 42.7084L73.8859 39.88ZM67.1259 20.2L63.2454 21.1701L63.2871 21.3369L63.3429 21.4995L67.1259 20.2ZM67.0859 20.04H63.0859V20.5324L63.2054 21.0101L67.0859 20.04ZM70.0459 20.08L73.8537 18.8547L73.8246 18.7644L73.7913 18.6755L70.0459 20.08ZM75.2459 36.24L71.4382 37.4653L71.5317 37.7558L71.6682 38.0288L75.2459 36.24ZM75.4859 36.24L79.0636 38.0289L79.2042 37.7478L79.2991 37.4481L75.4859 36.24ZM80.6059 20.08L76.8606 18.6755L76.8241 18.7728L76.7927 18.8719L80.6059 20.08ZM83.4859 20.2L87.2693 21.4986L87.3111 21.3767L87.345 21.2525L83.4859 20.2ZM76.0859 41.76L79.8516 43.1089L79.8606 43.0838L79.8693 43.0586L76.0859 41.76ZM74.2859 45.72L70.9417 43.5254L70.9417 43.5254L74.2859 45.72ZM72.1659 47.48L70.7614 43.7347L70.6897 43.7616L70.619 43.7912L72.1659 47.48ZM68.3659 44C68.7948 44 69.3626 44.0776 69.9632 44.3636C70.5838 44.6591 71.0802 45.1023 71.4329 45.6061C72.0713 46.5182 72.0859 47.3893 72.0859 47.6H64.0859C64.0859 48.0773 64.1473 49.1485 64.879 50.1939C65.7928 51.4992 67.1888 52 68.3659 52V44ZM72.0859 47.6V46H64.0859V47.6H72.0859ZM72.0859 46C72.0859 46.4832 71.9624 47.5804 71.0144 48.5284C70.0663 49.4765 68.9692 49.6 68.4859 49.6V41.6C67.736 41.6 66.4389 41.7902 65.3575 42.8716C64.2761 43.953 64.0859 45.2501 64.0859 46H72.0859ZM68.4859 49.6H68.6459V41.6H68.4859V49.6ZM68.7485 49.5987C70.0522 49.5653 71.5587 49.3669 72.902 48.6633L69.1899 41.5767C69.3286 41.504 69.3703 41.5119 69.2415 41.5377C69.1175 41.5625 68.8934 41.5923 68.5434 41.6013L68.7485 49.5987ZM72.7011 48.7615C74.3504 48.0118 75.4104 46.6899 76.0788 45.3977L68.9731 41.7223C68.9103 41.8437 68.8933 41.841 68.9541 41.777C69.0221 41.7053 69.1653 41.581 69.3907 41.4785L72.7011 48.7615ZM75.9989 45.5446C76.6457 44.4127 77.2014 42.9323 77.7062 41.3056L70.0657 38.9344C69.6105 40.4011 69.2595 41.214 69.053 41.5754L75.9989 45.5446ZM77.4636 41.9089C77.7633 41.3095 78.6465 38.9837 76.7144 37.0516L71.0575 42.7084C70.285 41.9359 69.9259 40.9294 69.9259 39.98C69.9259 39.1695 70.1823 38.5831 70.3082 38.3311L77.4636 41.9089ZM77.669 38.5805L70.909 18.9005L63.3429 21.4995L70.1029 41.1795L77.669 38.5805ZM71.0065 19.2299L70.9665 19.0699L63.2054 21.0101L63.2454 21.1701L71.0065 19.2299ZM71.0859 20.04C71.0859 20.8692 70.7682 22.1034 69.6317 22.9874C68.6862 23.7228 67.7341 23.76 67.4459 23.76V15.76C66.9178 15.76 65.7857 15.8438 64.7202 16.6726C63.4636 17.6499 63.0859 19.0241 63.0859 20.04H71.0859ZM67.4459 23.76H69.5659V15.76H67.4459V23.76ZM69.5659 23.76C69.0926 23.76 68.3705 23.6504 67.6471 23.1682C66.9074 22.675 66.4992 22.0141 66.3006 21.4845L73.7913 18.6755C73.5127 17.9326 72.9845 17.1116 72.0847 16.5118C71.2014 15.9229 70.2793 15.76 69.5659 15.76V23.76ZM66.2382 21.3053L71.4382 37.4653L79.0537 35.0147L73.8537 18.8547L66.2382 21.3053ZM71.6682 38.0288C71.9188 38.53 72.3542 39.1462 73.0771 39.6282C73.8251 40.1269 74.6393 40.32 75.3659 40.32V32.32C76.0392 32.32 76.8068 32.4998 77.5147 32.9718C78.1977 33.4271 78.5997 34.0033 78.8237 34.4512L71.6682 38.0288ZM75.3659 40.32C76.0925 40.32 76.9068 40.1269 77.6547 39.6282C78.3777 39.1462 78.813 38.53 79.0636 38.0289L71.9082 34.4511C72.1322 34.0033 72.5342 33.4271 73.2171 32.9718C73.9251 32.4998 74.6927 32.32 75.3659 32.32V40.32ZM79.2991 37.4481L84.4191 21.2881L76.7927 18.8719L71.6728 35.0319L79.2991 37.4481ZM84.3513 21.4845C84.1527 22.0141 83.7445 22.675 83.0047 23.1682C82.2814 23.6504 81.5593 23.76 81.0859 23.76V15.76C80.3726 15.76 79.4505 15.9229 78.5671 16.5118C77.6674 17.1116 77.1392 17.9326 76.8606 18.6755L84.3513 21.4845ZM81.0859 23.76H83.1659V15.76H81.0859V23.76ZM83.1659 23.76C82.8306 23.76 81.3009 23.6938 80.231 22.2227C79.2041 20.8107 79.5586 19.3978 79.6269 19.1475L87.345 21.2525C87.4933 20.7089 87.8344 19.0759 86.7009 17.5173C85.5243 15.8995 83.7946 15.76 83.1659 15.76V23.76ZM79.7026 18.9014L72.3026 40.4614L79.8693 43.0586L87.2693 21.4986L79.7026 18.9014ZM72.3202 40.4111C71.7124 42.108 71.2389 43.0726 70.9417 43.5254L77.6301 47.9146C78.453 46.6607 79.1795 44.9854 79.8516 43.1089L72.3202 40.4111ZM70.9417 43.5254C70.8556 43.6567 70.797 43.709 70.7809 43.7224C70.7684 43.7327 70.7667 43.7327 70.7614 43.7347L73.5704 51.2253C75.3128 50.5719 76.6629 49.3885 77.6301 47.9146L70.9417 43.5254ZM70.619 43.7912C70.5088 43.8374 69.9532 44 68.6459 44V52C70.3787 52 72.1697 51.8159 73.7128 51.1688L70.619 43.7912ZM68.6459 44H68.3659V52H68.6459V44ZM113.171 16C112.688 16 111.591 15.8765 110.643 14.9284C109.695 13.9804 109.571 12.8832 109.571 12.4H117.571C117.571 11.6501 117.381 10.353 116.3 9.27157C115.218 8.19019 113.921 8 113.171 8V16ZM109.571 12.4V14.12H117.571V12.4H109.571ZM109.571 14.12C109.571 13.6368 109.695 12.5396 110.643 11.5916C111.591 10.6435 112.688 10.52 113.171 10.52V18.52C113.921 18.52 115.218 18.3298 116.3 17.2484C117.381 16.167 117.571 14.8699 117.571 14.12H109.571ZM113.171 10.52H105.331V18.52H113.171V10.52ZM105.331 10.52C104.661 10.52 103.424 10.6902 102.383 11.7316C101.341 12.773 101.171 14.0101 101.171 14.68H109.171C109.171 15.2432 109.028 16.4004 108.04 17.3884C107.052 18.3765 105.894 18.52 105.331 18.52V10.52ZM101.171 14.68V39.6H109.171V14.68H101.171ZM101.171 39.6C101.171 39.1168 101.295 38.0196 102.243 37.0716C103.191 36.1235 104.288 36 104.771 36V44C105.521 44 106.818 43.8098 107.9 42.7284C108.981 41.647 109.171 40.3499 109.171 39.6H101.171ZM104.771 36H102.731V44H104.771V36ZM102.731 36C103.214 36 104.312 36.1235 105.26 37.0716C106.208 38.0196 106.331 39.1168 106.331 39.6H98.3313C98.3313 40.3499 98.5214 41.647 99.6028 42.7284C100.684 43.8098 101.981 44 102.731 44V36ZM106.331 39.6V14.68H98.3313V39.6H106.331ZM106.331 14.68C106.331 14.0101 106.161 12.773 105.12 11.7316C104.078 10.6902 102.841 10.52 102.171 10.52V18.52C101.608 18.52 100.451 18.3765 99.4628 17.3884C98.4748 16.4004 98.3313 15.2432 98.3313 14.68H106.331ZM102.171 10.52H94.6513V18.52H102.171V10.52ZM94.6513 10.52C95.1345 10.52 96.2316 10.6435 97.1797 11.5916C98.1277 12.5396 98.2513 13.6368 98.2513 14.12H90.2513C90.2513 14.8699 90.4414 16.167 91.5228 17.2484C92.6042 18.3298 93.9013 18.52 94.6513 18.52V10.52ZM98.2513 14.12V12.4H90.2513V14.12H98.2513ZM98.2513 12.4C98.2513 12.8832 98.1277 13.9804 97.1797 14.9284C96.2316 15.8765 95.1345 16 94.6513 16V8C93.9013 8 92.6042 8.19018 91.5228 9.27157C90.4414 10.353 90.2513 11.6501 90.2513 12.4H98.2513ZM94.6513 16H113.171V8H94.6513V16ZM118.452 38.84L120.771 35.5808L120.771 35.5808L118.452 38.84ZM115.572 34.76L111.745 35.9247L111.749 35.9363L115.572 34.76ZM115.572 24.96L119.392 26.1483L119.399 26.1234L119.407 26.0984L115.572 24.96ZM118.412 20.92L116.093 17.6608L116.093 17.6608L118.412 20.92ZM128.332 20.92L125.983 24.1577L125.998 24.1685L126.013 24.1792L128.332 20.92ZM131.172 24.92L127.343 26.075L127.355 26.1168L127.369 26.1583L131.172 24.92ZM131.172 34.76L127.377 33.4951L127.354 33.566L127.333 33.6377L131.172 34.76ZM128.332 38.84L126.013 35.5808L125.998 35.5915L125.983 35.6023L128.332 38.84ZM126.692 36.8L129.122 39.9774L129.151 39.9552L129.18 39.9324L126.692 36.8ZM128.532 33.92L132.397 34.9506L132.405 34.9205L132.413 34.8901L128.532 33.92ZM128.572 25.84L132.472 24.9487L132.456 24.8787L132.437 24.8094L128.572 25.84ZM126.692 23L124.205 26.1324L124.255 26.1725L124.307 26.211L126.692 23ZM120.052 23L122.482 26.1774L122.511 26.1552L122.54 26.1324L120.052 23ZM118.212 25.84L114.347 24.8094L114.329 24.8787L114.313 24.9487L118.212 25.84ZM118.212 33.92L114.313 34.8113L114.319 34.8406L114.327 34.8698L118.212 33.92ZM120.012 36.8L117.525 39.9324L117.575 39.9725L117.627 40.011L120.012 36.8ZM123.412 36.32C122.212 36.32 121.396 36.025 120.771 35.5808L116.133 42.0992C118.282 43.6283 120.772 44.32 123.412 44.32V36.32ZM120.771 35.5808C120.15 35.1388 119.688 34.5351 119.395 33.5837L111.749 35.9363C112.523 38.4516 113.981 40.5679 116.133 42.0992L120.771 35.5808ZM119.399 33.5954C119.188 32.9031 119.012 31.7055 119.012 29.84H111.012C111.012 32.0812 111.21 34.1636 111.745 35.9246L119.399 33.5954ZM119.012 29.84C119.012 27.9687 119.189 26.7979 119.392 26.1483L111.753 23.7717C111.208 25.5221 111.012 27.6046 111.012 29.84H119.012ZM119.407 26.0984C119.672 25.2056 120.108 24.6229 120.731 24.1792L116.093 17.6608C113.943 19.1905 112.486 21.3011 111.738 23.8216L119.407 26.0984ZM120.731 24.1792C121.337 23.7481 122.173 23.44 123.452 23.44V15.44C120.785 15.44 118.261 16.1185 116.093 17.6608L120.731 24.1792ZM123.452 23.44C124.613 23.44 125.391 23.7283 125.983 24.1577L130.681 17.6823C128.553 16.1383 126.078 15.44 123.452 15.44V23.44ZM126.013 24.1792C126.653 24.6344 127.084 25.216 127.343 26.075L135.002 23.765C134.248 21.264 132.785 19.1789 130.651 17.6608L126.013 24.1792ZM127.369 26.1583C127.548 26.7104 127.732 27.8564 127.732 29.84H135.732C135.732 27.5569 135.543 25.4229 134.976 23.6817L127.369 26.1583ZM127.732 29.84C127.732 31.8645 127.546 32.9909 127.377 33.4951L134.967 36.0249C135.546 34.2891 135.732 32.1355 135.732 29.84H127.732ZM127.333 33.6377C127.062 34.5647 126.621 35.1486 126.013 35.5808L130.651 42.0992C132.817 40.5581 134.269 38.4219 135.012 35.8823L127.333 33.6377ZM125.983 35.6023C125.401 36.0247 124.614 36.32 123.412 36.32V44.32C126.051 44.32 128.543 43.6286 130.681 42.0777L125.983 35.6023ZM123.412 41.84C125.458 41.84 127.433 41.2686 129.122 39.9774L124.262 33.6226C124.138 33.718 123.926 33.84 123.412 33.84V41.84ZM129.18 39.9324C130.81 38.6382 131.873 36.9169 132.397 34.9506L124.667 32.8893C124.552 33.3231 124.388 33.5218 124.205 33.6676L129.18 39.9324ZM132.413 34.8901C132.77 33.4616 132.892 31.7351 132.892 29.88H124.892C124.892 31.4915 124.774 32.4584 124.652 32.9499L132.413 34.8901ZM132.892 29.88C132.892 28.0252 132.786 26.323 132.472 24.9487L124.673 26.7313C124.785 27.2237 124.892 28.2148 124.892 29.88H132.892ZM132.437 24.8094C131.901 22.8001 130.787 21.0592 129.077 19.789L124.307 26.211C124.464 26.3274 124.603 26.4799 124.707 26.8706L132.437 24.8094ZM129.18 19.8676C127.475 18.514 125.46 17.92 123.372 17.92V25.92C123.898 25.92 124.096 26.046 124.205 26.1324L129.18 19.8676ZM123.372 17.92C121.285 17.92 119.269 18.514 117.565 19.8676L122.54 26.1324C122.649 26.046 122.846 25.92 123.372 25.92V17.92ZM117.622 19.8226C115.95 21.1014 114.874 22.8348 114.347 24.8094L122.077 26.8706C122.191 26.4452 122.341 26.2853 122.482 26.1774L117.622 19.8226ZM114.313 24.9487C113.999 26.323 113.892 28.0252 113.892 29.88H121.892C121.892 28.2148 121.999 27.2237 122.112 26.7313L114.313 24.9487ZM113.892 29.88C113.892 31.7348 113.999 33.437 114.313 34.8113L122.112 33.0287C121.999 32.5363 121.892 31.5452 121.892 29.88H113.892ZM114.327 34.8698C114.816 36.8706 115.874 38.622 117.525 39.9324L122.5 33.6676C122.337 33.538 122.195 33.3694 122.098 32.9702L114.327 34.8698ZM117.627 40.011C119.348 41.2898 121.351 41.84 123.412 41.84V33.84C122.807 33.84 122.543 33.6968 122.397 33.589L117.627 40.011Z" fill="#1B1E2B" mask="url(#path-1-outside-1_134_63908)"/>
<defs>
<linearGradient id="paint0_linear_134_63908" x1="74" y1="15.2727" x2="74" y2="48" gradientUnits="userSpaceOnUse">
<stop stop-color="#DFCCA7"/>
<stop offset="1" stop-color="#9F723D"/>
</linearGradient>
</defs>
</svg>
