<svg width="48" height="48" viewBox="0 0 48 48" fill="none" xmlns="http://www.w3.org/2000/svg">
<path fill-rule="evenodd" clip-rule="evenodd" d="M19.2974 11.0261C19.4124 9.87591 20.3803 9 21.5362 9H26.4638C27.6197 9 28.5876 9.87591 28.7026 11.0261L28.8612 12.6127C28.888 12.8799 29.0564 13.1108 29.2974 13.2296C29.7759 13.4654 30.2364 13.7321 30.6763 14.0272C30.8997 14.1771 31.1843 14.2077 31.4294 14.0971L32.8843 13.4405C33.938 12.965 35.1805 13.3652 35.7584 14.3663L38.2222 18.6337C38.8002 19.6348 38.5255 20.9109 37.5869 21.5857L36.2901 22.5179C36.0722 22.6746 35.9564 22.9356 35.9739 23.2035C35.9912 23.4668 36 23.7324 36 24C36 24.2677 35.9912 24.5333 35.9739 24.7966C35.9564 25.0644 36.0722 25.3255 36.2901 25.4821L37.5869 26.4144C38.5255 27.0891 38.8002 28.3652 38.2222 29.3663L35.7584 33.6337C35.1805 34.6348 33.938 35.035 32.8843 34.5595L31.4294 33.9029C31.1843 33.7923 30.8997 33.823 30.6763 33.9728C30.2364 34.2679 29.7759 34.5346 29.2974 34.7704C29.0564 34.8892 28.888 35.1201 28.8612 35.3873L28.7026 36.9739C28.5876 38.1241 27.6197 39 26.4638 39H21.5362C20.3803 39 19.4124 38.1241 19.2974 36.9739L19.1387 35.3873C19.112 35.1201 18.9435 34.8892 18.7026 34.7704C18.2241 34.5346 17.7635 34.2679 17.3236 33.9728C17.1002 33.8229 16.8156 33.7923 16.5705 33.9029L15.1155 34.5595C14.0619 35.035 12.8194 34.6348 12.2414 33.6337L9.77766 29.3663C9.19969 28.3652 9.47431 27.0891 10.4129 26.4144L11.7098 25.4821C11.9278 25.3254 12.0435 25.0643 12.026 24.7965C12.0087 24.5332 12 24.2676 12 24C12 23.7324 12.0087 23.4668 12.026 23.2035C12.0435 22.9357 11.9278 22.6746 11.7098 22.5179L10.4129 21.5857C9.47431 20.9109 9.19969 19.6348 9.77766 18.6337L12.2414 14.3663C12.8194 13.3652 14.0619 12.965 15.1155 13.4405L16.5705 14.0971C16.8156 14.2077 17.1002 14.1771 17.3236 14.0273C17.7635 13.7321 18.224 13.4654 18.7026 13.2296C18.9435 13.1108 19.112 12.8799 19.1387 12.6127L19.2974 11.0261ZM24 30C27.3137 30 30 27.3137 30 24C30 20.6863 27.3137 18 24 18C20.6863 18 18 20.6863 18 24C18 27.3137 20.6863 30 24 30Z" fill="#0F1744"/>
<path fill-rule="evenodd" clip-rule="evenodd" d="M24 17C20.134 17 17 20.134 17 24C17 27.866 20.134 31 24 31C27.866 31 31 27.866 31 24C31 20.134 27.866 17 24 17ZM20.5 24C20.5 22.067 22.067 20.5 24 20.5C25.933 20.5 27.5 22.067 27.5 24C27.5 25.933 25.933 27.5 24 27.5C22.067 27.5 20.5 25.933 20.5 24Z" fill="#636781"/>
<path fill-rule="evenodd" clip-rule="evenodd" d="M21.2832 6.5C19.9456 6.5 18.822 7.50574 18.6743 8.83512L18.4161 11.1584C17.4382 11.5841 16.519 12.1179 15.6733 12.7444L13.5298 11.8053C12.3047 11.2685 10.8719 11.7388 10.2031 12.8972L7.48624 17.6029C6.81746 18.7612 7.12661 20.2372 8.20404 21.0298L10.0888 22.4163C10.0301 22.9367 10 23.4652 10 24C10 24.5349 10.0301 25.0633 10.0888 25.5837L8.20404 26.9702C7.12661 27.7628 6.81746 29.2388 7.48624 30.3972L10.2031 35.1029C10.8719 36.2612 12.3047 36.7315 13.5298 36.1947L15.6733 35.2556C16.519 35.8821 17.4382 36.4159 18.4161 36.8416L18.6743 39.1649C18.822 40.4943 19.9456 41.5 21.2832 41.5H26.7169C28.0544 41.5 29.1781 40.4943 29.3258 39.1649L29.584 36.8416C30.5619 36.4159 31.4811 35.882 32.3268 35.2555L34.4704 36.1947C35.6955 36.7315 37.1283 36.2612 37.7971 35.1029L40.514 30.3972C41.1827 29.2388 40.8736 27.7628 39.7962 26.9702L37.9113 25.5836C37.97 25.0633 38 24.5348 38 24C38 23.4652 37.97 22.9368 37.9113 22.4164L39.7962 21.0298C40.8736 20.2372 41.1828 18.7612 40.514 17.6029L37.7971 12.8972C37.1283 11.7388 35.6955 11.2685 34.4704 11.8053L32.3268 12.7445C31.4811 12.118 30.5619 11.5841 29.584 11.1584L29.3258 8.83512C29.1781 7.50573 28.0544 6.5 26.7169 6.5H21.2832ZM21.839 12.0461L22.0664 10H25.9337L26.1611 12.0461C26.2751 13.0721 26.9651 13.8796 27.8422 14.2247C28.8212 14.6099 29.7293 15.1384 30.5405 15.7852C31.2783 16.3736 32.3233 16.5672 33.2688 16.1529L35.1576 15.3254L37.0913 18.6746L35.4314 19.8957C34.601 20.5067 34.2462 21.5065 34.3849 22.4382C34.4606 22.9468 34.5 23.4683 34.5 24C34.5 24.5317 34.4606 25.0532 34.3849 25.5618C34.2462 26.4935 34.6009 27.4934 35.4314 28.1043L37.0913 29.3254L35.1576 32.6746L33.2688 31.8471C32.3233 31.4328 31.2783 31.6264 30.5404 32.2148C29.7293 32.8616 28.8212 33.3901 27.8422 33.7753C26.9651 34.1204 26.2751 34.9279 26.1611 35.9539L25.9337 38H22.0664L21.839 35.9539C21.725 34.9279 21.035 34.1204 20.1578 33.7753C19.1789 33.3902 18.2708 32.8616 17.4597 32.2148C16.7218 31.6264 15.6768 31.4329 14.7313 31.8471L12.8426 32.6746L10.9089 29.3254L12.5687 28.1044C13.3991 27.4935 13.7539 26.4936 13.6152 25.5619C13.5394 25.0532 13.5 24.5318 13.5 24C13.5 23.4682 13.5394 22.9468 13.6152 22.4381C13.7539 21.5064 13.3991 20.5066 12.5687 19.8956L10.9089 18.6746L12.8426 15.3254L14.7313 16.1529C15.6768 16.5672 16.7218 16.3736 17.4597 15.7852C18.2708 15.1384 19.1789 14.6098 20.1578 14.2247C21.035 13.8796 21.725 13.0721 21.839 12.0461Z" fill="#636781"/>
</svg>
