<svg width="100%" height="100%" viewBox="0 0 80 249" fill="none" xmlns="http://www.w3.org/2000/svg">
<g clip-path="url(#clip0_72_67784)">
<line x1="-25.5777" y1="-0.914742" x2="90.4223" y2="-35.9147" stroke="#62955D" stroke-opacity="0.49" stroke-width="4"/>
<line x1="-25.5777" y1="7.08526" x2="90.4223" y2="-27.9147" stroke="#62955D" stroke-opacity="0.49" stroke-width="4"/>
<line x1="-25.5777" y1="15.0853" x2="90.4223" y2="-19.9147" stroke="#62955D" stroke-opacity="0.49" stroke-width="4"/>
<line x1="-25.5777" y1="23.0853" x2="90.4223" y2="-11.9147" stroke="#62955D" stroke-opacity="0.49" stroke-width="4"/>
<line x1="-25.5777" y1="31.0853" x2="90.4223" y2="-3.91474" stroke="#62955D" stroke-opacity="0.49" stroke-width="4"/>
<line x1="-25.5777" y1="39.0853" x2="90.4223" y2="4.08526" stroke="#62955D" stroke-opacity="0.49" stroke-width="4"/>
<line x1="-25.5777" y1="47.0853" x2="90.4223" y2="12.0853" stroke="#62955D" stroke-opacity="0.49" stroke-width="4"/>
<line x1="-25.5777" y1="63.0853" x2="90.4223" y2="28.0853" stroke="#62955D" stroke-opacity="0.49" stroke-width="4"/>
<line x1="-25.5777" y1="71.0853" x2="90.4223" y2="36.0853" stroke="#62955D" stroke-opacity="0.49" stroke-width="4"/>
<line x1="-25.5777" y1="79.0853" x2="90.4223" y2="44.0853" stroke="#62955D" stroke-opacity="0.49" stroke-width="4"/>
<line x1="-25.5777" y1="87.0853" x2="90.4223" y2="52.0853" stroke="#62955D" stroke-opacity="0.49" stroke-width="4"/>
<line x1="-25.5777" y1="95.0853" x2="90.4223" y2="60.0853" stroke="#62955D" stroke-opacity="0.49" stroke-width="4"/>
<line x1="-25.5777" y1="103.085" x2="90.4223" y2="68.0853" stroke="#62955D" stroke-opacity="0.49" stroke-width="4"/>
<line x1="-25.5777" y1="111.085" x2="90.4223" y2="76.0853" stroke="#62955D" stroke-opacity="0.49" stroke-width="4"/>
<line x1="-25.5777" y1="55.0853" x2="90.4223" y2="20.0853" stroke="#62955D" stroke-opacity="0.49" stroke-width="4"/>
<line x1="-25.5777" y1="119.085" x2="90.4223" y2="84.0853" stroke="#62955D" stroke-opacity="0.49" stroke-width="4"/>
<line x1="-25.5777" y1="127.085" x2="90.4223" y2="92.0853" stroke="#62955D" stroke-opacity="0.49" stroke-width="4"/>
<line x1="-25.5777" y1="135.085" x2="90.4223" y2="100.085" stroke="#62955D" stroke-opacity="0.49" stroke-width="4"/>
<line x1="-25.5777" y1="143.085" x2="90.4223" y2="108.085" stroke="#62955D" stroke-opacity="0.49" stroke-width="4"/>
<line x1="-25.5777" y1="151.085" x2="90.4223" y2="116.085" stroke="#62955D" stroke-opacity="0.49" stroke-width="4"/>
<line x1="-25.5777" y1="159.085" x2="90.4223" y2="124.085" stroke="#62955D" stroke-opacity="0.49" stroke-width="4"/>
<line x1="-25.5777" y1="167.085" x2="90.4223" y2="132.085" stroke="#62955D" stroke-opacity="0.49" stroke-width="4"/>
<line x1="-25.5777" y1="183.085" x2="90.4223" y2="148.085" stroke="#62955D" stroke-opacity="0.49" stroke-width="4"/>
<line x1="-25.5777" y1="191.085" x2="90.4223" y2="156.085" stroke="#62955D" stroke-opacity="0.49" stroke-width="4"/>
<line x1="-25.5777" y1="199.085" x2="90.4223" y2="164.085" stroke="#62955D" stroke-opacity="0.49" stroke-width="4"/>
<line x1="-25.5777" y1="207.085" x2="90.4223" y2="172.085" stroke="#62955D" stroke-opacity="0.49" stroke-width="4"/>
<line x1="-25.5777" y1="215.085" x2="90.4223" y2="180.085" stroke="#62955D" stroke-opacity="0.49" stroke-width="4"/>
<line x1="-25.5777" y1="223.085" x2="90.4223" y2="188.085" stroke="#62955D" stroke-opacity="0.49" stroke-width="4"/>
<line x1="-25.5777" y1="231.085" x2="90.4223" y2="196.085" stroke="#62955D" stroke-opacity="0.49" stroke-width="4"/>
<line x1="-25.5777" y1="239.085" x2="90.4223" y2="204.085" stroke="#62955D" stroke-opacity="0.49" stroke-width="4"/>
<line x1="-25.5777" y1="247.085" x2="90.4223" y2="212.085" stroke="#62955D" stroke-opacity="0.49" stroke-width="4"/>
<line x1="-25.5777" y1="255.085" x2="90.4223" y2="220.085" stroke="#62955D" stroke-opacity="0.49" stroke-width="4"/>
<line x1="-25.5777" y1="263.085" x2="90.4223" y2="228.085" stroke="#62955D" stroke-opacity="0.49" stroke-width="4"/>
<line x1="-25.5777" y1="271.085" x2="90.4223" y2="236.085" stroke="#62955D" stroke-opacity="0.49" stroke-width="4"/>
<line x1="-25.5777" y1="279.085" x2="90.4223" y2="244.085" stroke="#62955D" stroke-opacity="0.49" stroke-width="4"/>
<line x1="-25.5777" y1="175.085" x2="90.4223" y2="140.085" stroke="#62955D" stroke-opacity="0.49" stroke-width="4"/>
</g>
<defs>
<clipPath id="clip0_72_67784">
<rect width="80" height="249" fill="white"/>
</clipPath>
</defs>
</svg>
