<svg width="100%" height="100%" viewBox="0 0 26 16" fill="none" xmlns="http://www.w3.org/2000/svg">
<g clip-path="url(#clip0_87_63710)">
<path d="M0 7.99353C0 8.30396 0.13198 8.60145 0.395939 8.8472L7.44367 15.6248C7.66803 15.8448 8.01118 15.9742 8.30153 15.9742C9.00103 15.9742 9.46296 15.5085 9.46296 14.8359C9.46296 14.4996 9.35737 14.2539 9.1462 14.0469L6.04468 11.1107L3.57665 9.01536L6.63859 9.1447H19.3483L22.4101 9.01536L19.9421 11.1107L16.8538 14.0469C16.6426 14.2539 16.5371 14.4996 16.5371 14.8359C16.5371 15.5085 16.9991 15.9742 17.6985 15.9742C17.9889 15.9742 18.332 15.8448 18.5564 15.6248L25.6041 8.8472C25.8681 8.60145 26 8.30396 26 7.99353C26 7.67017 25.8681 7.37267 25.6041 7.12691L18.5564 0.349232C18.332 0.129346 17.9889 0 17.6985 0C16.9991 0 16.5371 0.465642 16.5371 1.13824C16.5371 1.47454 16.6426 1.72029 16.8538 1.92724L19.9421 4.87631L22.4101 6.95877L19.3483 6.82942H6.63859L3.57665 6.95877L6.04468 4.87631L9.1462 1.92724C9.35737 1.72029 9.46296 1.47454 9.46296 1.13824C9.46296 0.465642 9.00103 0 8.30153 0C8.01118 0 7.66803 0.129346 7.44367 0.349232L0.395939 7.12691C0.13198 7.37267 0 7.67017 0 7.99353Z" fill="black" fill-opacity="0.85"/>
</g>
<defs>
<clipPath id="clip0_87_63710">
<rect width="26" height="16" fill="white"/>
</clipPath>
</defs>
</svg>
