<svg width="100%" height="100%" viewBox="0 0 98 54" fill="none" xmlns="http://www.w3.org/2000/svg">
<mask id="path-1-outside-1_136_64018" maskUnits="userSpaceOnUse" x="12" y="8" width="77" height="37" fill="black">
<rect fill="white" x="12" y="8" width="77" height="37"/>
<path d="M25.96 40.32C24.0933 40.32 22.44 39.9467 21 39.2C19.56 38.4533 18.44 37.4133 17.64 36.08C16.84 34.72 16.44 33.1467 16.44 31.36V12.4C16.44 12.1333 16.5733 12 16.84 12H18.88C19.1467 12 19.28 12.1333 19.28 12.4V31.44C19.28 33.3333 19.8933 34.88 21.12 36.08C22.3467 37.2533 23.96 37.84 25.96 37.84C27.96 37.84 29.5733 37.2533 30.8 36.08C32.0267 34.88 32.64 33.3333 32.64 31.44V12.4C32.64 12.1333 32.7733 12 33.04 12H35.08C35.3467 12 35.48 12.1333 35.48 12.4V31.36C35.48 33.1467 35.08 34.72 34.28 36.08C33.5067 37.4133 32.4 38.4533 30.96 39.2C29.52 39.9467 27.8533 40.32 25.96 40.32ZM59.0175 40C58.7775 40 58.6175 39.9067 58.5375 39.72L52.6575 27.32C52.6308 27.24 52.5775 27.2 52.4975 27.2H45.6975C45.5908 27.2 45.5375 27.2533 45.5375 27.36V39.6C45.5375 39.8667 45.4042 40 45.1375 40H43.0975C42.8308 40 42.6975 39.8667 42.6975 39.6V12.4C42.6975 12.1333 42.8308 12 43.0975 12H53.4575C55.7508 12 57.6042 12.72 59.0175 14.16C60.4308 15.5733 61.1375 17.4267 61.1375 19.72C61.1375 21.5867 60.6308 23.1733 59.6175 24.48C58.6042 25.7867 57.2308 26.6267 55.4975 27C55.3908 27.0533 55.3642 27.12 55.4175 27.2L61.4175 39.52C61.4442 39.5733 61.4575 39.64 61.4575 39.72C61.4575 39.9067 61.3508 40 61.1375 40H59.0175ZM45.6975 14.48C45.5908 14.48 45.5375 14.5333 45.5375 14.64V24.76C45.5375 24.8667 45.5908 24.92 45.6975 24.92H53.1375C54.6842 24.92 55.9375 24.44 56.8975 23.48C57.8575 22.52 58.3375 21.2667 58.3375 19.72C58.3375 18.1733 57.8575 16.92 56.8975 15.96C55.9375 14.9733 54.6842 14.48 53.1375 14.48H45.6975ZM67.5897 40C67.323 40 67.1897 39.8667 67.1897 39.6V12.4C67.1897 12.1333 67.323 12 67.5897 12H69.6297C69.8964 12 70.0297 12.1333 70.0297 12.4V37.36C70.0297 37.4667 70.083 37.52 70.1897 37.52H84.3097C84.5764 37.52 84.7097 37.6533 84.7097 37.92V39.6C84.7097 39.8667 84.5764 40 84.3097 40H67.5897Z"/>
</mask>
<path d="M25.96 40.32C24.0933 40.32 22.44 39.9467 21 39.2C19.56 38.4533 18.44 37.4133 17.64 36.08C16.84 34.72 16.44 33.1467 16.44 31.36V12.4C16.44 12.1333 16.5733 12 16.84 12H18.88C19.1467 12 19.28 12.1333 19.28 12.4V31.44C19.28 33.3333 19.8933 34.88 21.12 36.08C22.3467 37.2533 23.96 37.84 25.96 37.84C27.96 37.84 29.5733 37.2533 30.8 36.08C32.0267 34.88 32.64 33.3333 32.64 31.44V12.4C32.64 12.1333 32.7733 12 33.04 12H35.08C35.3467 12 35.48 12.1333 35.48 12.4V31.36C35.48 33.1467 35.08 34.72 34.28 36.08C33.5067 37.4133 32.4 38.4533 30.96 39.2C29.52 39.9467 27.8533 40.32 25.96 40.32ZM59.0175 40C58.7775 40 58.6175 39.9067 58.5375 39.72L52.6575 27.32C52.6308 27.24 52.5775 27.2 52.4975 27.2H45.6975C45.5908 27.2 45.5375 27.2533 45.5375 27.36V39.6C45.5375 39.8667 45.4042 40 45.1375 40H43.0975C42.8308 40 42.6975 39.8667 42.6975 39.6V12.4C42.6975 12.1333 42.8308 12 43.0975 12H53.4575C55.7508 12 57.6042 12.72 59.0175 14.16C60.4308 15.5733 61.1375 17.4267 61.1375 19.72C61.1375 21.5867 60.6308 23.1733 59.6175 24.48C58.6042 25.7867 57.2308 26.6267 55.4975 27C55.3908 27.0533 55.3642 27.12 55.4175 27.2L61.4175 39.52C61.4442 39.5733 61.4575 39.64 61.4575 39.72C61.4575 39.9067 61.3508 40 61.1375 40H59.0175ZM45.6975 14.48C45.5908 14.48 45.5375 14.5333 45.5375 14.64V24.76C45.5375 24.8667 45.5908 24.92 45.6975 24.92H53.1375C54.6842 24.92 55.9375 24.44 56.8975 23.48C57.8575 22.52 58.3375 21.2667 58.3375 19.72C58.3375 18.1733 57.8575 16.92 56.8975 15.96C55.9375 14.9733 54.6842 14.48 53.1375 14.48H45.6975ZM67.5897 40C67.323 40 67.1897 39.8667 67.1897 39.6V12.4C67.1897 12.1333 67.323 12 67.5897 12H69.6297C69.8964 12 70.0297 12.1333 70.0297 12.4V37.36C70.0297 37.4667 70.083 37.52 70.1897 37.52H84.3097C84.5764 37.52 84.7097 37.6533 84.7097 37.92V39.6C84.7097 39.8667 84.5764 40 84.3097 40H67.5897Z" fill="url(#paint0_linear_136_64018)"/>
<path d="M21 39.2L19.1587 42.751L19.1587 42.751L21 39.2ZM17.64 36.08L14.1923 38.1081L14.2011 38.1231L14.21 38.138L17.64 36.08ZM21.12 36.08L18.3228 38.9393L18.3389 38.955L18.3551 38.9706L21.12 36.08ZM30.8 36.08L33.5649 38.9706L33.5811 38.955L33.5972 38.9393L30.8 36.08ZM34.28 36.08L30.8323 34.0519L30.826 34.0625L30.8199 34.0731L34.28 36.08ZM30.96 39.2L32.8013 42.751L32.8013 42.751L30.96 39.2ZM25.96 36.32C24.6371 36.32 23.632 36.059 22.8413 35.649L19.1587 42.751C21.248 43.8344 23.5496 44.32 25.96 44.32V36.32ZM22.8413 35.649C22.0291 35.2279 21.472 34.692 21.07 34.022L14.21 38.138C15.408 40.1347 17.0909 41.6788 19.1587 42.751L22.8413 35.649ZM21.0877 34.0519C20.6952 33.3846 20.44 32.5298 20.44 31.36H12.44C12.44 33.7635 12.9848 36.0554 14.1923 38.1081L21.0877 34.0519ZM20.44 31.36V12.4H12.44V31.36H20.44ZM20.44 12.4C20.44 12.8832 20.3165 13.9804 19.3684 14.9284C18.4204 15.8765 17.3232 16 16.84 16V8C16.0901 8 14.793 8.19018 13.7116 9.27157C12.6302 10.353 12.44 11.6501 12.44 12.4H20.44ZM16.84 16H18.88V8H16.84V16ZM18.88 16C18.3968 16 17.2996 15.8765 16.3516 14.9284C15.4035 13.9804 15.28 12.8832 15.28 12.4H23.28C23.28 11.6501 23.0898 10.353 22.0084 9.27157C20.927 8.19018 19.6299 8 18.88 8V16ZM15.28 12.4V31.44H23.28V12.4H15.28ZM15.28 31.44C15.28 34.287 16.2436 36.9053 18.3228 38.9393L23.9172 33.2207C23.5431 32.8547 23.28 32.3797 23.28 31.44H15.28ZM18.3551 38.9706C20.4569 40.9809 23.1262 41.84 25.96 41.84V33.84C24.7938 33.84 24.2365 33.5257 23.8849 33.1894L18.3551 38.9706ZM25.96 41.84C28.7938 41.84 31.4631 40.9809 33.5649 38.9706L28.0351 33.1894C27.6835 33.5257 27.1262 33.84 25.96 33.84V41.84ZM33.5972 38.9393C35.6764 36.9053 36.64 34.287 36.64 31.44H28.64C28.64 32.3797 28.3769 32.8547 28.0028 33.2207L33.5972 38.9393ZM36.64 31.44V12.4H28.64V31.44H36.64ZM36.64 12.4C36.64 12.8832 36.5165 13.9804 35.5684 14.9284C34.6204 15.8765 33.5232 16 33.04 16V8C32.2901 8 30.993 8.19018 29.9116 9.27157C28.8302 10.353 28.64 11.6501 28.64 12.4H36.64ZM33.04 16H35.08V8H33.04V16ZM35.08 16C34.5968 16 33.4996 15.8765 32.5516 14.9284C31.6035 13.9804 31.48 12.8832 31.48 12.4H39.48C39.48 11.6501 39.2898 10.353 38.2084 9.27157C37.127 8.19019 35.8299 8 35.08 8V16ZM31.48 12.4V31.36H39.48V12.4H31.48ZM31.48 31.36C31.48 32.5298 31.2248 33.3846 30.8323 34.0519L37.7277 38.1081C38.9352 36.0554 39.48 33.7635 39.48 31.36H31.48ZM30.8199 34.0731C30.4488 34.713 29.9203 35.2333 29.1187 35.649L32.8013 42.751C34.8797 41.6733 36.5646 40.1137 37.7401 38.0869L30.8199 34.0731ZM29.1187 35.649C28.3358 36.0549 27.3197 36.32 25.96 36.32V44.32C28.3869 44.32 30.7042 43.8384 32.8013 42.751L29.1187 35.649ZM58.5375 39.72L62.2141 38.1443L62.1842 38.0746L62.1517 38.0062L58.5375 39.72ZM52.6575 27.32L48.8628 28.5849L48.9394 28.8149L49.0433 29.0338L52.6575 27.32ZM59.0175 14.16L56.1628 16.9619L56.1759 16.9752L56.1891 16.9884L59.0175 14.16ZM59.6175 24.48L62.7784 26.9313L59.6175 24.48ZM55.4975 27L54.6553 23.0897L54.1609 23.1961L53.7086 23.4223L55.4975 27ZM55.4175 27.2L59.0137 25.4486L58.8955 25.2059L58.7457 24.9812L55.4175 27.2ZM61.4175 39.52L57.8213 41.2714L57.8304 41.2902L57.8398 41.3088L61.4175 39.52ZM56.8975 23.48L59.7259 26.3084L59.7259 26.3084L56.8975 23.48ZM56.8975 15.96L54.0306 18.7494L54.0497 18.7691L54.0691 18.7884L56.8975 15.96ZM59.0175 36C59.4011 36 60.0459 36.0741 60.733 36.4749C61.4658 36.9024 61.9506 37.5294 62.2141 38.1443L54.8609 41.2957C55.2044 42.0972 55.8092 42.8643 56.702 43.3851C57.5491 43.8793 58.3939 44 59.0175 44V36ZM62.1517 38.0062L56.2717 25.6062L49.0433 29.0338L54.9233 41.4338L62.1517 38.0062ZM56.4522 26.0551C56.2499 25.4481 55.8287 24.6534 54.9975 24.03C54.1484 23.3932 53.225 23.2 52.4975 23.2V31.2C51.85 31.2 50.9932 31.0268 50.1975 30.43C49.4196 29.8466 49.0384 29.1119 48.8628 28.5849L56.4522 26.0551ZM52.4975 23.2H45.6975V31.2H52.4975V23.2ZM45.6975 23.2C45.0276 23.2 43.7905 23.3702 42.7491 24.4116C41.7077 25.453 41.5375 26.6901 41.5375 27.36H49.5375C49.5375 27.9232 49.394 29.0804 48.4059 30.0684C47.4179 31.0565 46.2607 31.2 45.6975 31.2V23.2ZM41.5375 27.36V39.6H49.5375V27.36H41.5375ZM41.5375 39.6C41.5375 39.1168 41.661 38.0196 42.6091 37.0716C43.5571 36.1235 44.6543 36 45.1375 36V44C45.8874 44 47.1845 43.8098 48.2659 42.7284C49.3473 41.647 49.5375 40.3499 49.5375 39.6H41.5375ZM45.1375 36H43.0975V44H45.1375V36ZM43.0975 36C43.5807 36 44.6779 36.1235 45.6259 37.0716C46.574 38.0196 46.6975 39.1168 46.6975 39.6H38.6975C38.6975 40.3499 38.8877 41.647 39.9691 42.7284C41.0505 43.8098 42.3476 44 43.0975 44V36ZM46.6975 39.6V12.4H38.6975V39.6H46.6975ZM46.6975 12.4C46.6975 12.8832 46.574 13.9804 45.6259 14.9284C44.6779 15.8765 43.5807 16 43.0975 16V8C42.3476 8 41.0505 8.19018 39.9691 9.27157C38.8877 10.353 38.6975 11.6501 38.6975 12.4H46.6975ZM43.0975 16H53.4575V8H43.0975V16ZM53.4575 16C54.8371 16 55.6068 16.3954 56.1628 16.9619L61.8722 11.3581C59.6015 9.04456 56.6645 8 53.4575 8V16ZM56.1891 16.9884C56.7402 17.5396 57.1375 18.3179 57.1375 19.72H65.1375C65.1375 16.5355 64.1214 13.6071 61.8459 11.3316L56.1891 16.9884ZM57.1375 19.72C57.1375 20.8194 56.8566 21.5129 56.4566 22.0287L62.7784 26.9313C64.405 24.8337 65.1375 22.3539 65.1375 19.72H57.1375ZM56.4566 22.0287C56.0638 22.5352 55.5399 22.8991 54.6553 23.0897L56.3397 30.9103C58.9218 30.3542 61.1445 29.0381 62.7784 26.9313L56.4566 22.0287ZM53.7086 23.4223C53.3183 23.6174 52.2353 24.2252 51.6836 25.6044C51.0232 27.2554 51.6045 28.6917 52.0893 29.4188L58.7457 24.9812C59.1771 25.6283 59.7451 26.9913 59.1114 28.5756C58.5864 29.8882 57.57 30.4359 57.2864 30.5777L53.7086 23.4223ZM51.8213 28.9514L57.8213 41.2714L65.0137 37.7686L59.0137 25.4486L51.8213 28.9514ZM57.8398 41.3088C57.5105 40.6503 57.4575 40.0586 57.4575 39.72H65.4575C65.4575 39.2214 65.3778 38.4963 64.9952 37.7312L57.8398 41.3088ZM57.4575 39.72C57.4575 39.0476 57.6743 37.8552 58.7435 36.9197C59.7106 36.0734 60.749 36 61.1375 36V44C61.7393 44 62.9377 43.8799 64.0115 42.9403C65.1874 41.9114 65.4575 40.5791 65.4575 39.72H57.4575ZM61.1375 36H59.0175V44H61.1375V36ZM45.6975 10.48C45.0276 10.48 43.7905 10.6502 42.7491 11.6916C41.7077 12.733 41.5375 13.9701 41.5375 14.64H49.5375C49.5375 15.2032 49.394 16.3604 48.4059 17.3484C47.4179 18.3365 46.2607 18.48 45.6975 18.48V10.48ZM41.5375 14.64V24.76H49.5375V14.64H41.5375ZM41.5375 24.76C41.5375 25.4299 41.7077 26.667 42.7491 27.7084C43.7905 28.7498 45.0276 28.92 45.6975 28.92V20.92C46.2607 20.92 47.4179 21.0635 48.4059 22.0516C49.394 23.0396 49.5375 24.1968 49.5375 24.76H41.5375ZM45.6975 28.92H53.1375V20.92H45.6975V28.92ZM53.1375 28.92C55.5844 28.92 57.9094 28.125 59.7259 26.3084L54.0691 20.6516C53.9656 20.755 53.7839 20.92 53.1375 20.92V28.92ZM59.7259 26.3084C61.5425 24.4919 62.3375 22.1669 62.3375 19.72H54.3375C54.3375 20.3664 54.1725 20.5481 54.0691 20.6516L59.7259 26.3084ZM62.3375 19.72C62.3375 17.2731 61.5425 14.9481 59.7259 13.1316L54.0691 18.7884C54.1725 18.8919 54.3375 19.0736 54.3375 19.72H62.3375ZM59.7644 13.1706C57.9551 11.311 55.6177 10.48 53.1375 10.48V18.48C53.7506 18.48 53.9199 18.6356 54.0306 18.7494L59.7644 13.1706ZM53.1375 10.48H45.6975V18.48H53.1375V10.48ZM67.5897 36C68.0729 36 69.1701 36.1235 70.1181 37.0716C71.0662 38.0196 71.1897 39.1168 71.1897 39.6H63.1897C63.1897 40.3499 63.3799 41.647 64.4613 42.7284C65.5426 43.8098 66.8398 44 67.5897 44V36ZM71.1897 39.6V12.4H63.1897V39.6H71.1897ZM71.1897 12.4C71.1897 12.8832 71.0662 13.9804 70.1181 14.9284C69.1701 15.8765 68.0729 16 67.5897 16V8C66.8398 8 65.5426 8.19018 64.4613 9.27157C63.3799 10.353 63.1897 11.6501 63.1897 12.4H71.1897ZM67.5897 16H69.6297V8H67.5897V16ZM69.6297 16C69.1464 16 68.0493 15.8765 67.1013 14.9284C66.1532 13.9804 66.0297 12.8832 66.0297 12.4H74.0297C74.0297 11.6501 73.8395 10.353 72.7581 9.27157C71.6767 8.19018 70.3796 8 69.6297 8V16ZM66.0297 12.4V37.36H74.0297V12.4H66.0297ZM66.0297 37.36C66.0297 38.0299 66.1999 39.267 67.2413 40.3084C68.2827 41.3498 69.5198 41.52 70.1897 41.52V33.52C70.7529 33.52 71.9101 33.6635 72.8981 34.6516C73.8862 35.6396 74.0297 36.7968 74.0297 37.36H66.0297ZM70.1897 41.52H84.3097V33.52H70.1897V41.52ZM84.3097 41.52C83.8264 41.52 82.7293 41.3965 81.7813 40.4484C80.8332 39.5004 80.7097 38.4032 80.7097 37.92H88.7097C88.7097 37.1701 88.5195 35.873 87.4381 34.7916C86.3567 33.7102 85.0596 33.52 84.3097 33.52V41.52ZM80.7097 37.92V39.6H88.7097V37.92H80.7097ZM80.7097 39.6C80.7097 39.1168 80.8332 38.0196 81.7813 37.0716C82.7293 36.1235 83.8264 36 84.3097 36V44C85.0596 44 86.3567 43.8098 87.4381 42.7284C88.5195 41.647 88.7097 40.3499 88.7097 39.6H80.7097ZM84.3097 36H67.5897V44H84.3097V36Z" fill="#1B1E2B" mask="url(#path-1-outside-1_136_64018)"/>
<defs>
<linearGradient id="paint0_linear_136_64018" x1="50" y1="15.2727" x2="50" y2="48" gradientUnits="userSpaceOnUse">
<stop stop-color="#DFCCA7"/>
<stop offset="1" stop-color="#9F723D"/>
</linearGradient>
</defs>
</svg>
