<svg width="100%" height="100%" viewBox="0 0 802 150" fill="none" xmlns="http://www.w3.org/2000/svg">
<mask id="path-1-outside-1_123_63882" maskUnits="userSpaceOnUse" x="11" y="10" width="784" height="132" fill="black">
<rect fill="white" x="11" y="10" width="784" height="132"/>
<path d="M75.208 61.408C74.696 61.664 74.696 61.92 75.208 62.176C82.9733 66.272 86.856 73.0987 86.856 82.656C86.856 91.1893 83.912 97.5467 78.024 101.728C72.136 105.909 64.4133 108 54.856 108H20.808C20.3813 108 19.9973 107.872 19.656 107.616C19.4 107.275 19.272 106.891 19.272 106.464V19.936C19.272 19.5093 19.4 19.168 19.656 18.912C19.9973 18.5707 20.3813 18.4 20.808 18.4H53.832C64.2427 18.4 72.0933 20.3627 77.384 24.288C82.76 28.2133 85.448 34.5707 85.448 43.36C85.448 51.7227 82.0347 57.7387 75.208 61.408ZM41.16 36.576C40.7333 36.576 40.52 36.7893 40.52 37.216V53.344C40.52 53.7707 40.7333 53.984 41.16 53.984H53.832C57.3307 53.984 60.0187 53.2587 61.896 51.808C63.7733 50.272 64.712 48.1387 64.712 45.408C64.712 42.592 63.7733 40.416 61.896 38.88C60.0187 37.344 57.3307 36.576 53.832 36.576H41.16ZM54.856 89.696C58.2693 89.696 60.9147 88.928 62.792 87.392C64.6693 85.7707 65.608 83.4667 65.608 80.48C65.608 77.5787 64.6693 75.36 62.792 73.824C61 72.2027 58.3547 71.392 54.856 71.392H41.16C40.7333 71.392 40.52 71.6053 40.52 72.032V89.056C40.52 89.4827 40.7333 89.696 41.16 89.696H54.856ZM124.899 40.8C130.616 40.8 135.779 41.7813 140.387 43.744C144.995 45.6213 148.622 48.2667 151.267 51.68C153.912 55.008 155.235 58.72 155.235 62.816V106.464C155.235 106.891 155.064 107.275 154.723 107.616C154.467 107.872 154.126 108 153.699 108H135.523C135.096 108 134.712 107.872 134.371 107.616C134.115 107.275 133.987 106.891 133.987 106.464V101.984C133.987 101.643 133.902 101.472 133.731 101.472C133.56 101.387 133.39 101.515 133.219 101.856C129.976 106.635 124.43 109.024 116.579 109.024C109.752 109.024 104.291 107.445 100.195 104.288C96.1843 101.045 94.179 96.3093 94.179 90.08C94.179 83.5093 96.4403 78.432 100.963 74.848C105.571 71.264 112.227 69.472 120.931 69.472H133.347C133.774 69.472 133.987 69.2587 133.987 68.832V66.4C133.987 64.096 133.219 62.304 131.683 61.024C130.147 59.6587 128.014 58.976 125.283 58.976C123.235 58.976 121.443 59.36 119.907 60.128C118.456 60.896 117.518 61.8773 117.091 63.072C116.664 64.0107 116.067 64.4373 115.299 64.352L96.867 61.92C95.843 61.7493 95.331 61.3653 95.331 60.768C95.6723 57.0133 97.123 53.6427 99.683 50.656C102.328 47.584 105.827 45.1947 110.179 43.488C114.616 41.696 119.523 40.8 124.899 40.8ZM122.851 93.792C126.094 93.792 128.739 92.9813 130.787 91.36C132.92 89.6533 133.987 87.4347 133.987 84.704V81.632C133.987 81.2053 133.774 80.992 133.347 80.992H125.667C122.424 80.992 119.907 81.5467 118.115 82.656C116.408 83.7653 115.555 85.4293 115.555 87.648C115.555 89.5253 116.195 91.0187 117.475 92.128C118.755 93.2373 120.547 93.792 122.851 93.792ZM196.215 109.024C189.218 109.024 183.074 107.275 177.783 103.776C172.578 100.277 168.866 95.456 166.647 89.312C165.026 85.216 164.215 80.3093 164.215 74.592C164.215 68.8747 165.026 63.968 166.647 59.872C168.78 53.8987 172.492 49.248 177.783 45.92C183.074 42.5067 189.218 40.8 196.215 40.8C203.298 40.8 209.527 42.5493 214.903 46.048C220.279 49.5467 223.906 53.984 225.783 59.36C226.38 60.896 226.764 62.56 226.935 64.352C226.935 65.2907 226.466 65.8453 225.527 66.016L207.735 68.704H207.479C206.711 68.704 206.199 68.2773 205.943 67.424L205.687 66.272C205.516 65.5893 205.346 64.992 205.175 64.48C204.407 62.8587 203.212 61.536 201.591 60.512C200.055 59.488 198.22 58.976 196.087 58.976C191.564 58.976 188.578 60.9813 187.127 64.992C186.188 67.3813 185.719 70.624 185.719 74.72C185.719 78.3893 186.146 81.5893 186.999 84.32C188.62 88.672 191.65 90.848 196.087 90.848C198.306 90.848 200.226 90.2933 201.847 89.184C203.468 87.9893 204.62 86.3253 205.303 84.192C205.388 84.0213 205.431 83.7653 205.431 83.424C205.516 83.3387 205.559 83.168 205.559 82.912C205.815 81.888 206.412 81.4613 207.351 81.632L225.271 84.448C226.124 84.6187 226.551 85.088 226.551 85.856C226.551 87.136 226.295 88.544 225.783 90.08C223.735 96.0533 220.023 100.704 214.647 104.032C209.356 107.36 203.212 109.024 196.215 109.024ZM236.912 108C236.485 108 236.101 107.872 235.76 107.616C235.504 107.275 235.376 106.891 235.376 106.464V19.936C235.376 19.5093 235.504 19.168 235.76 18.912C236.101 18.5707 236.485 18.4 236.912 18.4H255.088C255.515 18.4 255.856 18.5707 256.112 18.912C256.453 19.168 256.624 19.5093 256.624 19.936V59.744C256.624 60 256.709 60.1707 256.88 60.256C257.051 60.256 257.221 60.1707 257.392 60L271.344 42.72C271.856 42.1227 272.496 41.824 273.264 41.824H294.128C294.981 41.824 295.408 42.1227 295.408 42.72C295.408 42.976 295.28 43.3173 295.024 43.744L278.256 65.376C278.085 65.632 278.085 65.9307 278.256 66.272L297.328 106.208C297.499 106.549 297.584 106.805 297.584 106.976C297.584 107.659 297.115 108 296.176 108H277.232C276.379 108 275.781 107.616 275.44 106.848L263.792 79.584C263.707 79.4133 263.536 79.328 263.28 79.328C263.109 79.2427 262.981 79.2853 262.896 79.456L256.88 88.032C256.709 88.3733 256.624 88.6293 256.624 88.8V106.464C256.624 106.891 256.453 107.275 256.112 107.616C255.856 107.872 255.515 108 255.088 108H236.912ZM340.193 43.36C340.193 42.9333 340.321 42.592 340.577 42.336C340.918 41.9947 341.302 41.824 341.729 41.824H359.905C360.332 41.824 360.673 41.9947 360.929 42.336C361.27 42.592 361.441 42.9333 361.441 43.36V100.576C361.441 112.267 358.07 120.629 351.329 125.664C344.588 130.699 336.054 133.216 325.729 133.216C321.889 133.216 317.836 132.875 313.569 132.192C312.716 132.107 312.289 131.552 312.289 130.528L312.929 114.656C312.929 114.059 313.1 113.632 313.441 113.376C313.782 113.205 314.209 113.205 314.721 113.376C318.22 114.144 321.462 114.528 324.449 114.528C329.313 114.528 333.153 113.419 335.969 111.2C338.785 108.981 340.193 105.483 340.193 100.704L339.297 101.6C336.225 104.672 331.788 106.208 325.985 106.208C320.353 106.208 315.19 104.971 310.497 102.496C305.804 100.021 302.433 95.6693 300.385 89.44C299.02 85.344 298.337 80.3093 298.337 74.336C298.337 67.7653 299.148 62.3893 300.769 58.208C302.732 52.9173 305.846 48.6933 310.113 45.536C314.465 42.3787 319.5 40.8 325.217 40.8C331.361 40.8 336.097 42.6773 339.425 46.432C339.596 46.6027 339.766 46.688 339.937 46.688C340.108 46.6027 340.193 46.432 340.193 46.176V43.36ZM339.041 83.808C339.809 81.8453 340.193 78.6453 340.193 74.208C340.193 71.904 340.108 70.112 339.937 68.832C339.766 67.4667 339.425 66.1867 338.913 64.992C338.23 63.1147 337.121 61.664 335.585 60.64C334.134 59.5307 332.342 58.976 330.209 58.976C326.198 58.976 323.34 60.9813 321.633 64.992C320.353 67.3813 319.713 70.5387 319.713 74.464C319.713 78.6453 320.268 81.7173 321.377 83.68C322.145 85.472 323.297 86.9227 324.833 88.032C326.369 89.1413 328.204 89.696 330.337 89.696C334.689 89.696 337.59 87.7333 339.041 83.808ZM399.774 40.8C405.491 40.8 410.654 41.7813 415.262 43.744C419.87 45.6213 423.497 48.2667 426.142 51.68C428.787 55.008 430.11 58.72 430.11 62.816V106.464C430.11 106.891 429.939 107.275 429.598 107.616C429.342 107.872 429.001 108 428.574 108H410.398C409.971 108 409.587 107.872 409.246 107.616C408.99 107.275 408.862 106.891 408.862 106.464V101.984C408.862 101.643 408.777 101.472 408.606 101.472C408.435 101.387 408.265 101.515 408.094 101.856C404.851 106.635 399.305 109.024 391.454 109.024C384.627 109.024 379.166 107.445 375.07 104.288C371.059 101.045 369.054 96.3093 369.054 90.08C369.054 83.5093 371.315 78.432 375.838 74.848C380.446 71.264 387.102 69.472 395.806 69.472H408.222C408.649 69.472 408.862 69.2587 408.862 68.832V66.4C408.862 64.096 408.094 62.304 406.558 61.024C405.022 59.6587 402.889 58.976 400.158 58.976C398.11 58.976 396.318 59.36 394.782 60.128C393.331 60.896 392.393 61.8773 391.966 63.072C391.539 64.0107 390.942 64.4373 390.174 64.352L371.742 61.92C370.718 61.7493 370.206 61.3653 370.206 60.768C370.547 57.0133 371.998 53.6427 374.558 50.656C377.203 47.584 380.702 45.1947 385.054 43.488C389.491 41.696 394.398 40.8 399.774 40.8ZM397.726 93.792C400.969 93.792 403.614 92.9813 405.662 91.36C407.795 89.6533 408.862 87.4347 408.862 84.704V81.632C408.862 81.2053 408.649 80.992 408.222 80.992H400.542C397.299 80.992 394.782 81.5467 392.99 82.656C391.283 83.7653 390.43 85.4293 390.43 87.648C390.43 89.5253 391.07 91.0187 392.35 92.128C393.63 93.2373 395.422 93.792 397.726 93.792ZM516.658 40.8C523.314 40.8 528.519 42.848 532.274 46.944C536.029 51.04 537.906 56.8 537.906 64.224V106.464C537.906 106.891 537.735 107.275 537.394 107.616C537.138 107.872 536.797 108 536.37 108H518.322C517.895 108 517.511 107.872 517.17 107.616C516.914 107.275 516.786 106.891 516.786 106.464V68.832C516.786 65.9307 516.018 63.584 514.482 61.792C513.031 59.9147 511.069 58.976 508.594 58.976C506.119 58.976 504.071 59.872 502.45 61.664C500.914 63.456 500.146 65.8453 500.146 68.832V106.464C500.146 106.891 499.975 107.275 499.634 107.616C499.378 107.872 499.037 108 498.61 108H480.434C480.007 108 479.623 107.872 479.282 107.616C479.026 107.275 478.898 106.891 478.898 106.464V68.832C478.898 65.9307 478.087 63.584 476.466 61.792C474.93 59.9147 472.925 58.976 470.45 58.976C468.146 58.976 466.226 59.7013 464.69 61.152C463.154 62.6027 462.215 64.5227 461.874 66.912V106.464C461.874 106.891 461.703 107.275 461.362 107.616C461.106 107.872 460.765 108 460.338 108H442.162C441.735 108 441.351 107.872 441.01 107.616C440.754 107.275 440.626 106.891 440.626 106.464V43.36C440.626 42.9333 440.754 42.592 441.01 42.336C441.351 41.9947 441.735 41.824 442.162 41.824H460.338C460.765 41.824 461.106 41.9947 461.362 42.336C461.703 42.592 461.874 42.9333 461.874 43.36V49.12C461.874 49.4613 461.959 49.6747 462.13 49.76C462.301 49.76 462.471 49.5893 462.642 49.248C465.97 43.616 471.431 40.8 479.026 40.8C483.293 40.8 487.047 41.7387 490.29 43.616C493.533 45.4933 496.007 48.224 497.714 51.808C497.97 52.32 498.226 52.2773 498.482 51.68C500.274 48.0107 502.706 45.28 505.778 43.488C508.935 41.696 512.562 40.8 516.658 40.8ZM624.158 40.8C630.814 40.8 636.019 42.848 639.774 46.944C643.529 51.04 645.406 56.8 645.406 64.224V106.464C645.406 106.891 645.235 107.275 644.894 107.616C644.638 107.872 644.297 108 643.87 108H625.822C625.395 108 625.011 107.872 624.67 107.616C624.414 107.275 624.286 106.891 624.286 106.464V68.832C624.286 65.9307 623.518 63.584 621.982 61.792C620.531 59.9147 618.569 58.976 616.094 58.976C613.619 58.976 611.571 59.872 609.95 61.664C608.414 63.456 607.646 65.8453 607.646 68.832V106.464C607.646 106.891 607.475 107.275 607.134 107.616C606.878 107.872 606.537 108 606.11 108H587.934C587.507 108 587.123 107.872 586.782 107.616C586.526 107.275 586.398 106.891 586.398 106.464V68.832C586.398 65.9307 585.587 63.584 583.966 61.792C582.43 59.9147 580.425 58.976 577.95 58.976C575.646 58.976 573.726 59.7013 572.19 61.152C570.654 62.6027 569.715 64.5227 569.374 66.912V106.464C569.374 106.891 569.203 107.275 568.862 107.616C568.606 107.872 568.265 108 567.838 108H549.662C549.235 108 548.851 107.872 548.51 107.616C548.254 107.275 548.126 106.891 548.126 106.464V43.36C548.126 42.9333 548.254 42.592 548.51 42.336C548.851 41.9947 549.235 41.824 549.662 41.824H567.838C568.265 41.824 568.606 41.9947 568.862 42.336C569.203 42.592 569.374 42.9333 569.374 43.36V49.12C569.374 49.4613 569.459 49.6747 569.63 49.76C569.801 49.76 569.971 49.5893 570.142 49.248C573.47 43.616 578.931 40.8 586.526 40.8C590.793 40.8 594.547 41.7387 597.79 43.616C601.033 45.4933 603.507 48.224 605.214 51.808C605.47 52.32 605.726 52.2773 605.982 51.68C607.774 48.0107 610.206 45.28 613.278 43.488C616.435 41.696 620.062 40.8 624.158 40.8ZM685.837 109.024C678.157 109.024 671.629 106.976 666.253 102.88C660.877 98.784 657.293 93.2373 655.501 86.24C654.477 82.7413 653.965 78.9013 653.965 74.72C653.965 70.0267 654.52 65.888 655.629 62.304C657.592 55.5627 661.218 50.3147 666.509 46.56C671.885 42.72 678.37 40.8 685.965 40.8C693.474 40.8 699.832 42.72 705.037 46.56C710.242 50.3147 713.869 55.52 715.917 62.176C717.112 66.016 717.709 70.112 717.709 74.464C717.709 78.3893 717.24 82.144 716.301 85.728C714.509 92.896 710.925 98.5707 705.549 102.752C700.173 106.933 693.602 109.024 685.837 109.024ZM685.837 90.848C688.312 90.848 690.36 90.08 691.981 88.544C693.602 86.9227 694.797 84.7467 695.565 82.016C696.077 79.7973 696.333 77.3653 696.333 74.72C696.333 72.16 696.034 69.6853 695.437 67.296C694.754 64.6507 693.602 62.6027 691.981 61.152C690.36 59.7013 688.312 58.976 685.837 58.976C680.888 58.976 677.645 61.7493 676.109 67.296C675.597 69.344 675.341 71.8187 675.341 74.72C675.341 77.3653 675.597 79.7973 676.109 82.016C676.792 84.7467 677.944 86.9227 679.565 88.544C681.272 90.08 683.362 90.848 685.837 90.848ZM764.124 40.8C770.78 40.8 776.241 42.9333 780.508 47.2C784.775 51.3813 786.908 57.0987 786.908 64.352V106.464C786.908 106.891 786.737 107.275 786.396 107.616C786.14 107.872 785.799 108 785.372 108H767.196C766.769 108 766.385 107.872 766.044 107.616C765.788 107.275 765.66 106.891 765.66 106.464V68.96C765.66 66.0587 764.849 63.6693 763.228 61.792C761.607 59.9147 759.516 58.976 756.956 58.976C754.311 58.976 752.177 59.9147 750.556 61.792C748.935 63.584 748.124 65.9733 748.124 68.96V106.464C748.124 106.891 747.953 107.275 747.612 107.616C747.356 107.872 747.015 108 746.588 108H728.412C727.985 108 727.601 107.872 727.26 107.616C727.004 107.275 726.876 106.891 726.876 106.464V43.36C726.876 42.9333 727.004 42.592 727.26 42.336C727.601 41.9947 727.985 41.824 728.412 41.824H746.588C747.015 41.824 747.356 41.9947 747.612 42.336C747.953 42.592 748.124 42.9333 748.124 43.36V48.096C748.124 48.4373 748.167 48.6507 748.252 48.736C748.423 48.736 748.593 48.608 748.764 48.352C752.007 43.3173 757.127 40.8 764.124 40.8Z"/>
</mask>
<path d="M75.208 61.408C74.696 61.664 74.696 61.92 75.208 62.176C82.9733 66.272 86.856 73.0987 86.856 82.656C86.856 91.1893 83.912 97.5467 78.024 101.728C72.136 105.909 64.4133 108 54.856 108H20.808C20.3813 108 19.9973 107.872 19.656 107.616C19.4 107.275 19.272 106.891 19.272 106.464V19.936C19.272 19.5093 19.4 19.168 19.656 18.912C19.9973 18.5707 20.3813 18.4 20.808 18.4H53.832C64.2427 18.4 72.0933 20.3627 77.384 24.288C82.76 28.2133 85.448 34.5707 85.448 43.36C85.448 51.7227 82.0347 57.7387 75.208 61.408ZM41.16 36.576C40.7333 36.576 40.52 36.7893 40.52 37.216V53.344C40.52 53.7707 40.7333 53.984 41.16 53.984H53.832C57.3307 53.984 60.0187 53.2587 61.896 51.808C63.7733 50.272 64.712 48.1387 64.712 45.408C64.712 42.592 63.7733 40.416 61.896 38.88C60.0187 37.344 57.3307 36.576 53.832 36.576H41.16ZM54.856 89.696C58.2693 89.696 60.9147 88.928 62.792 87.392C64.6693 85.7707 65.608 83.4667 65.608 80.48C65.608 77.5787 64.6693 75.36 62.792 73.824C61 72.2027 58.3547 71.392 54.856 71.392H41.16C40.7333 71.392 40.52 71.6053 40.52 72.032V89.056C40.52 89.4827 40.7333 89.696 41.16 89.696H54.856ZM124.899 40.8C130.616 40.8 135.779 41.7813 140.387 43.744C144.995 45.6213 148.622 48.2667 151.267 51.68C153.912 55.008 155.235 58.72 155.235 62.816V106.464C155.235 106.891 155.064 107.275 154.723 107.616C154.467 107.872 154.126 108 153.699 108H135.523C135.096 108 134.712 107.872 134.371 107.616C134.115 107.275 133.987 106.891 133.987 106.464V101.984C133.987 101.643 133.902 101.472 133.731 101.472C133.56 101.387 133.39 101.515 133.219 101.856C129.976 106.635 124.43 109.024 116.579 109.024C109.752 109.024 104.291 107.445 100.195 104.288C96.1843 101.045 94.179 96.3093 94.179 90.08C94.179 83.5093 96.4403 78.432 100.963 74.848C105.571 71.264 112.227 69.472 120.931 69.472H133.347C133.774 69.472 133.987 69.2587 133.987 68.832V66.4C133.987 64.096 133.219 62.304 131.683 61.024C130.147 59.6587 128.014 58.976 125.283 58.976C123.235 58.976 121.443 59.36 119.907 60.128C118.456 60.896 117.518 61.8773 117.091 63.072C116.664 64.0107 116.067 64.4373 115.299 64.352L96.867 61.92C95.843 61.7493 95.331 61.3653 95.331 60.768C95.6723 57.0133 97.123 53.6427 99.683 50.656C102.328 47.584 105.827 45.1947 110.179 43.488C114.616 41.696 119.523 40.8 124.899 40.8ZM122.851 93.792C126.094 93.792 128.739 92.9813 130.787 91.36C132.92 89.6533 133.987 87.4347 133.987 84.704V81.632C133.987 81.2053 133.774 80.992 133.347 80.992H125.667C122.424 80.992 119.907 81.5467 118.115 82.656C116.408 83.7653 115.555 85.4293 115.555 87.648C115.555 89.5253 116.195 91.0187 117.475 92.128C118.755 93.2373 120.547 93.792 122.851 93.792ZM196.215 109.024C189.218 109.024 183.074 107.275 177.783 103.776C172.578 100.277 168.866 95.456 166.647 89.312C165.026 85.216 164.215 80.3093 164.215 74.592C164.215 68.8747 165.026 63.968 166.647 59.872C168.78 53.8987 172.492 49.248 177.783 45.92C183.074 42.5067 189.218 40.8 196.215 40.8C203.298 40.8 209.527 42.5493 214.903 46.048C220.279 49.5467 223.906 53.984 225.783 59.36C226.38 60.896 226.764 62.56 226.935 64.352C226.935 65.2907 226.466 65.8453 225.527 66.016L207.735 68.704H207.479C206.711 68.704 206.199 68.2773 205.943 67.424L205.687 66.272C205.516 65.5893 205.346 64.992 205.175 64.48C204.407 62.8587 203.212 61.536 201.591 60.512C200.055 59.488 198.22 58.976 196.087 58.976C191.564 58.976 188.578 60.9813 187.127 64.992C186.188 67.3813 185.719 70.624 185.719 74.72C185.719 78.3893 186.146 81.5893 186.999 84.32C188.62 88.672 191.65 90.848 196.087 90.848C198.306 90.848 200.226 90.2933 201.847 89.184C203.468 87.9893 204.62 86.3253 205.303 84.192C205.388 84.0213 205.431 83.7653 205.431 83.424C205.516 83.3387 205.559 83.168 205.559 82.912C205.815 81.888 206.412 81.4613 207.351 81.632L225.271 84.448C226.124 84.6187 226.551 85.088 226.551 85.856C226.551 87.136 226.295 88.544 225.783 90.08C223.735 96.0533 220.023 100.704 214.647 104.032C209.356 107.36 203.212 109.024 196.215 109.024ZM236.912 108C236.485 108 236.101 107.872 235.76 107.616C235.504 107.275 235.376 106.891 235.376 106.464V19.936C235.376 19.5093 235.504 19.168 235.76 18.912C236.101 18.5707 236.485 18.4 236.912 18.4H255.088C255.515 18.4 255.856 18.5707 256.112 18.912C256.453 19.168 256.624 19.5093 256.624 19.936V59.744C256.624 60 256.709 60.1707 256.88 60.256C257.051 60.256 257.221 60.1707 257.392 60L271.344 42.72C271.856 42.1227 272.496 41.824 273.264 41.824H294.128C294.981 41.824 295.408 42.1227 295.408 42.72C295.408 42.976 295.28 43.3173 295.024 43.744L278.256 65.376C278.085 65.632 278.085 65.9307 278.256 66.272L297.328 106.208C297.499 106.549 297.584 106.805 297.584 106.976C297.584 107.659 297.115 108 296.176 108H277.232C276.379 108 275.781 107.616 275.44 106.848L263.792 79.584C263.707 79.4133 263.536 79.328 263.28 79.328C263.109 79.2427 262.981 79.2853 262.896 79.456L256.88 88.032C256.709 88.3733 256.624 88.6293 256.624 88.8V106.464C256.624 106.891 256.453 107.275 256.112 107.616C255.856 107.872 255.515 108 255.088 108H236.912ZM340.193 43.36C340.193 42.9333 340.321 42.592 340.577 42.336C340.918 41.9947 341.302 41.824 341.729 41.824H359.905C360.332 41.824 360.673 41.9947 360.929 42.336C361.27 42.592 361.441 42.9333 361.441 43.36V100.576C361.441 112.267 358.07 120.629 351.329 125.664C344.588 130.699 336.054 133.216 325.729 133.216C321.889 133.216 317.836 132.875 313.569 132.192C312.716 132.107 312.289 131.552 312.289 130.528L312.929 114.656C312.929 114.059 313.1 113.632 313.441 113.376C313.782 113.205 314.209 113.205 314.721 113.376C318.22 114.144 321.462 114.528 324.449 114.528C329.313 114.528 333.153 113.419 335.969 111.2C338.785 108.981 340.193 105.483 340.193 100.704L339.297 101.6C336.225 104.672 331.788 106.208 325.985 106.208C320.353 106.208 315.19 104.971 310.497 102.496C305.804 100.021 302.433 95.6693 300.385 89.44C299.02 85.344 298.337 80.3093 298.337 74.336C298.337 67.7653 299.148 62.3893 300.769 58.208C302.732 52.9173 305.846 48.6933 310.113 45.536C314.465 42.3787 319.5 40.8 325.217 40.8C331.361 40.8 336.097 42.6773 339.425 46.432C339.596 46.6027 339.766 46.688 339.937 46.688C340.108 46.6027 340.193 46.432 340.193 46.176V43.36ZM339.041 83.808C339.809 81.8453 340.193 78.6453 340.193 74.208C340.193 71.904 340.108 70.112 339.937 68.832C339.766 67.4667 339.425 66.1867 338.913 64.992C338.23 63.1147 337.121 61.664 335.585 60.64C334.134 59.5307 332.342 58.976 330.209 58.976C326.198 58.976 323.34 60.9813 321.633 64.992C320.353 67.3813 319.713 70.5387 319.713 74.464C319.713 78.6453 320.268 81.7173 321.377 83.68C322.145 85.472 323.297 86.9227 324.833 88.032C326.369 89.1413 328.204 89.696 330.337 89.696C334.689 89.696 337.59 87.7333 339.041 83.808ZM399.774 40.8C405.491 40.8 410.654 41.7813 415.262 43.744C419.87 45.6213 423.497 48.2667 426.142 51.68C428.787 55.008 430.11 58.72 430.11 62.816V106.464C430.11 106.891 429.939 107.275 429.598 107.616C429.342 107.872 429.001 108 428.574 108H410.398C409.971 108 409.587 107.872 409.246 107.616C408.99 107.275 408.862 106.891 408.862 106.464V101.984C408.862 101.643 408.777 101.472 408.606 101.472C408.435 101.387 408.265 101.515 408.094 101.856C404.851 106.635 399.305 109.024 391.454 109.024C384.627 109.024 379.166 107.445 375.07 104.288C371.059 101.045 369.054 96.3093 369.054 90.08C369.054 83.5093 371.315 78.432 375.838 74.848C380.446 71.264 387.102 69.472 395.806 69.472H408.222C408.649 69.472 408.862 69.2587 408.862 68.832V66.4C408.862 64.096 408.094 62.304 406.558 61.024C405.022 59.6587 402.889 58.976 400.158 58.976C398.11 58.976 396.318 59.36 394.782 60.128C393.331 60.896 392.393 61.8773 391.966 63.072C391.539 64.0107 390.942 64.4373 390.174 64.352L371.742 61.92C370.718 61.7493 370.206 61.3653 370.206 60.768C370.547 57.0133 371.998 53.6427 374.558 50.656C377.203 47.584 380.702 45.1947 385.054 43.488C389.491 41.696 394.398 40.8 399.774 40.8ZM397.726 93.792C400.969 93.792 403.614 92.9813 405.662 91.36C407.795 89.6533 408.862 87.4347 408.862 84.704V81.632C408.862 81.2053 408.649 80.992 408.222 80.992H400.542C397.299 80.992 394.782 81.5467 392.99 82.656C391.283 83.7653 390.43 85.4293 390.43 87.648C390.43 89.5253 391.07 91.0187 392.35 92.128C393.63 93.2373 395.422 93.792 397.726 93.792ZM516.658 40.8C523.314 40.8 528.519 42.848 532.274 46.944C536.029 51.04 537.906 56.8 537.906 64.224V106.464C537.906 106.891 537.735 107.275 537.394 107.616C537.138 107.872 536.797 108 536.37 108H518.322C517.895 108 517.511 107.872 517.17 107.616C516.914 107.275 516.786 106.891 516.786 106.464V68.832C516.786 65.9307 516.018 63.584 514.482 61.792C513.031 59.9147 511.069 58.976 508.594 58.976C506.119 58.976 504.071 59.872 502.45 61.664C500.914 63.456 500.146 65.8453 500.146 68.832V106.464C500.146 106.891 499.975 107.275 499.634 107.616C499.378 107.872 499.037 108 498.61 108H480.434C480.007 108 479.623 107.872 479.282 107.616C479.026 107.275 478.898 106.891 478.898 106.464V68.832C478.898 65.9307 478.087 63.584 476.466 61.792C474.93 59.9147 472.925 58.976 470.45 58.976C468.146 58.976 466.226 59.7013 464.69 61.152C463.154 62.6027 462.215 64.5227 461.874 66.912V106.464C461.874 106.891 461.703 107.275 461.362 107.616C461.106 107.872 460.765 108 460.338 108H442.162C441.735 108 441.351 107.872 441.01 107.616C440.754 107.275 440.626 106.891 440.626 106.464V43.36C440.626 42.9333 440.754 42.592 441.01 42.336C441.351 41.9947 441.735 41.824 442.162 41.824H460.338C460.765 41.824 461.106 41.9947 461.362 42.336C461.703 42.592 461.874 42.9333 461.874 43.36V49.12C461.874 49.4613 461.959 49.6747 462.13 49.76C462.301 49.76 462.471 49.5893 462.642 49.248C465.97 43.616 471.431 40.8 479.026 40.8C483.293 40.8 487.047 41.7387 490.29 43.616C493.533 45.4933 496.007 48.224 497.714 51.808C497.97 52.32 498.226 52.2773 498.482 51.68C500.274 48.0107 502.706 45.28 505.778 43.488C508.935 41.696 512.562 40.8 516.658 40.8ZM624.158 40.8C630.814 40.8 636.019 42.848 639.774 46.944C643.529 51.04 645.406 56.8 645.406 64.224V106.464C645.406 106.891 645.235 107.275 644.894 107.616C644.638 107.872 644.297 108 643.87 108H625.822C625.395 108 625.011 107.872 624.67 107.616C624.414 107.275 624.286 106.891 624.286 106.464V68.832C624.286 65.9307 623.518 63.584 621.982 61.792C620.531 59.9147 618.569 58.976 616.094 58.976C613.619 58.976 611.571 59.872 609.95 61.664C608.414 63.456 607.646 65.8453 607.646 68.832V106.464C607.646 106.891 607.475 107.275 607.134 107.616C606.878 107.872 606.537 108 606.11 108H587.934C587.507 108 587.123 107.872 586.782 107.616C586.526 107.275 586.398 106.891 586.398 106.464V68.832C586.398 65.9307 585.587 63.584 583.966 61.792C582.43 59.9147 580.425 58.976 577.95 58.976C575.646 58.976 573.726 59.7013 572.19 61.152C570.654 62.6027 569.715 64.5227 569.374 66.912V106.464C569.374 106.891 569.203 107.275 568.862 107.616C568.606 107.872 568.265 108 567.838 108H549.662C549.235 108 548.851 107.872 548.51 107.616C548.254 107.275 548.126 106.891 548.126 106.464V43.36C548.126 42.9333 548.254 42.592 548.51 42.336C548.851 41.9947 549.235 41.824 549.662 41.824H567.838C568.265 41.824 568.606 41.9947 568.862 42.336C569.203 42.592 569.374 42.9333 569.374 43.36V49.12C569.374 49.4613 569.459 49.6747 569.63 49.76C569.801 49.76 569.971 49.5893 570.142 49.248C573.47 43.616 578.931 40.8 586.526 40.8C590.793 40.8 594.547 41.7387 597.79 43.616C601.033 45.4933 603.507 48.224 605.214 51.808C605.47 52.32 605.726 52.2773 605.982 51.68C607.774 48.0107 610.206 45.28 613.278 43.488C616.435 41.696 620.062 40.8 624.158 40.8ZM685.837 109.024C678.157 109.024 671.629 106.976 666.253 102.88C660.877 98.784 657.293 93.2373 655.501 86.24C654.477 82.7413 653.965 78.9013 653.965 74.72C653.965 70.0267 654.52 65.888 655.629 62.304C657.592 55.5627 661.218 50.3147 666.509 46.56C671.885 42.72 678.37 40.8 685.965 40.8C693.474 40.8 699.832 42.72 705.037 46.56C710.242 50.3147 713.869 55.52 715.917 62.176C717.112 66.016 717.709 70.112 717.709 74.464C717.709 78.3893 717.24 82.144 716.301 85.728C714.509 92.896 710.925 98.5707 705.549 102.752C700.173 106.933 693.602 109.024 685.837 109.024ZM685.837 90.848C688.312 90.848 690.36 90.08 691.981 88.544C693.602 86.9227 694.797 84.7467 695.565 82.016C696.077 79.7973 696.333 77.3653 696.333 74.72C696.333 72.16 696.034 69.6853 695.437 67.296C694.754 64.6507 693.602 62.6027 691.981 61.152C690.36 59.7013 688.312 58.976 685.837 58.976C680.888 58.976 677.645 61.7493 676.109 67.296C675.597 69.344 675.341 71.8187 675.341 74.72C675.341 77.3653 675.597 79.7973 676.109 82.016C676.792 84.7467 677.944 86.9227 679.565 88.544C681.272 90.08 683.362 90.848 685.837 90.848ZM764.124 40.8C770.78 40.8 776.241 42.9333 780.508 47.2C784.775 51.3813 786.908 57.0987 786.908 64.352V106.464C786.908 106.891 786.737 107.275 786.396 107.616C786.14 107.872 785.799 108 785.372 108H767.196C766.769 108 766.385 107.872 766.044 107.616C765.788 107.275 765.66 106.891 765.66 106.464V68.96C765.66 66.0587 764.849 63.6693 763.228 61.792C761.607 59.9147 759.516 58.976 756.956 58.976C754.311 58.976 752.177 59.9147 750.556 61.792C748.935 63.584 748.124 65.9733 748.124 68.96V106.464C748.124 106.891 747.953 107.275 747.612 107.616C747.356 107.872 747.015 108 746.588 108H728.412C727.985 108 727.601 107.872 727.26 107.616C727.004 107.275 726.876 106.891 726.876 106.464V43.36C726.876 42.9333 727.004 42.592 727.26 42.336C727.601 41.9947 727.985 41.824 728.412 41.824H746.588C747.015 41.824 747.356 41.9947 747.612 42.336C747.953 42.592 748.124 42.9333 748.124 43.36V48.096C748.124 48.4373 748.167 48.6507 748.252 48.736C748.423 48.736 748.593 48.608 748.764 48.352C752.007 43.3173 757.127 40.8 764.124 40.8Z" fill="url(#paint0_linear_123_63882)"/>
<path d="M75.208 61.408L78.7857 68.5634L78.8914 68.5106L78.9955 68.4546L75.208 61.408ZM75.208 62.176L78.9404 55.1L78.8635 55.0595L78.7857 55.0206L75.208 62.176ZM19.656 107.616L13.256 112.416L13.9417 113.33L14.856 114.016L19.656 107.616ZM19.656 18.912L13.9991 13.2551L13.9991 13.2552L19.656 18.912ZM77.384 24.288L72.6172 30.7128L72.6418 30.731L72.6664 30.749L77.384 24.288ZM61.896 51.808L66.7876 58.1383L66.8757 58.0702L66.9619 57.9997L61.896 51.808ZM61.896 38.88L66.9619 32.6883L66.9619 32.6883L61.896 38.88ZM62.792 87.392L67.8579 93.5837L67.9403 93.5162L68.021 93.4466L62.792 87.392ZM62.792 73.824L57.4247 79.7563L57.5722 79.8897L57.7261 80.0157L62.792 73.824ZM71.6303 54.2526C71.1258 54.5048 70.1828 55.0235 69.2632 55.9431C68.3272 56.8791 66.824 58.8579 66.824 61.792C66.824 64.7261 68.3272 66.7049 69.2631 67.6408C70.1827 68.5605 71.1258 69.0792 71.6303 69.3314L78.7857 55.0206C79.0342 55.1448 79.7853 55.5355 80.5769 56.3271C81.3848 57.1351 82.824 58.9859 82.824 61.792C82.824 64.5981 81.3848 66.4489 80.5769 67.2569C79.7852 68.0485 79.0342 68.4392 78.7857 68.5634L71.6303 54.2526ZM71.4756 69.252C74.173 70.6748 75.8898 72.3886 76.99 74.3231C78.1116 76.295 78.856 78.9646 78.856 82.656H94.856C94.856 76.79 93.6591 71.2677 90.898 66.4129C88.1155 61.5208 84.0083 57.7732 78.9404 55.1L71.4756 69.252ZM78.856 82.656C78.856 89.135 76.7643 92.8106 73.392 95.2054L82.656 108.251C91.0597 102.283 94.856 93.2436 94.856 82.656H78.856ZM73.392 95.2054C69.2341 98.1581 63.2846 100 54.856 100V116C65.5421 116 75.0379 113.661 82.656 108.251L73.392 95.2054ZM54.856 100H20.808V116H54.856V100ZM20.808 100C22.1123 100 23.4126 100.433 24.456 101.216L14.856 114.016C16.5821 115.311 18.6504 116 20.808 116V100ZM26.056 102.816C26.8386 103.859 27.272 105.16 27.272 106.464H11.272C11.272 108.622 11.9614 110.69 13.256 112.416L26.056 102.816ZM27.272 106.464V19.936H11.272V106.464H27.272ZM27.272 19.936C27.272 20.5216 27.1835 21.3026 26.8586 22.169C26.5245 23.06 25.9981 23.8836 25.3129 24.5688L13.9991 13.2552C11.9773 15.277 11.272 17.7953 11.272 19.936H27.272ZM25.3129 24.5688C24.8912 24.9905 24.2774 25.4704 23.4491 25.8385C22.6022 26.2149 21.6963 26.4 20.808 26.4V10.4C17.974 10.4 15.626 11.6283 13.9991 13.2551L25.3129 24.5688ZM20.808 26.4H53.832V10.4H20.808V26.4ZM53.832 26.4C63.452 26.4 69.2989 28.2508 72.6172 30.7128L82.1508 17.8632C74.8878 12.4745 65.0334 10.4 53.832 10.4V26.4ZM72.6664 30.749C75.3501 32.7085 77.448 36.2299 77.448 43.36H93.448C93.448 32.9115 90.1699 23.7182 82.1016 17.827L72.6664 30.749ZM77.448 43.36C77.448 46.4459 76.8242 48.6201 75.9299 50.1962C75.0543 51.7395 73.6709 53.1518 71.4205 54.3614L78.9955 68.4546C83.5718 65.9949 87.3084 62.5645 89.8461 58.0918C92.3652 53.6519 93.448 48.6368 93.448 43.36H77.448ZM41.16 28.576C39.7135 28.576 37.1593 28.943 35.0232 31.0791C32.887 33.2152 32.52 35.7695 32.52 37.216H48.52C48.52 38.2358 48.2596 40.4701 46.3368 42.3929C44.4141 44.3156 42.1798 44.576 41.16 44.576V28.576ZM32.52 37.216V53.344H48.52V37.216H32.52ZM32.52 53.344C32.52 54.7905 32.887 57.3448 35.0232 59.4809C37.1593 61.617 39.7135 61.984 41.16 61.984V45.984C42.1798 45.984 44.4141 46.2444 46.3368 48.1671C48.2596 50.0899 48.52 52.3242 48.52 53.344H32.52ZM41.16 61.984H53.832V45.984H41.16V61.984ZM53.832 61.984C58.2941 61.984 62.9825 61.0785 66.7876 58.1383L57.0044 45.4777C57.0548 45.4388 56.3672 45.984 53.832 45.984V61.984ZM66.9619 57.9997C70.9448 54.741 72.712 50.1976 72.712 45.408H56.712C56.712 45.6331 56.6926 45.7675 56.6809 45.8281C56.6698 45.8859 56.6649 45.8808 56.6855 45.8341C56.7069 45.7854 56.7403 45.7272 56.7815 45.6735C56.822 45.6207 56.8464 45.603 56.8301 45.6163L66.9619 57.9997ZM72.712 45.408C72.712 40.6244 71.0065 35.9976 66.9619 32.6883L56.8301 45.0717C56.8317 45.073 56.7988 45.0455 56.7545 44.9871C56.7097 44.928 56.6789 44.8711 56.6623 44.8327C56.6267 44.7501 56.712 44.888 56.712 45.408H72.712ZM66.9619 32.6883C63.1409 29.562 58.3806 28.576 53.832 28.576V44.576C56.2808 44.576 56.8965 45.126 56.8301 45.0717L66.9619 32.6883ZM53.832 28.576H41.16V44.576H53.832V28.576ZM54.856 97.696C59.3757 97.696 64.0676 96.6848 67.8579 93.5837L57.7261 81.2003C57.72 81.2053 57.6872 81.2317 57.6086 81.2717C57.528 81.3128 57.3881 81.3738 57.1695 81.4372C56.7204 81.5676 55.9803 81.696 54.856 81.696V97.696ZM68.021 93.4466C72.0163 89.996 73.608 85.2721 73.608 80.48H57.608C57.608 81.1412 57.5043 81.4075 57.4953 81.4296C57.4906 81.441 57.4985 81.4199 57.5237 81.3847C57.549 81.3495 57.5682 81.333 57.563 81.3374L68.021 93.4466ZM73.608 80.48C73.608 75.7005 71.9613 70.9897 67.8579 67.6323L57.7261 80.0157C57.7131 80.005 57.6718 79.9678 57.624 79.904C57.576 79.84 57.5479 79.7846 57.5363 79.7571C57.5123 79.7005 57.608 79.8861 57.608 80.48H73.608ZM68.1593 67.8917C64.355 64.4497 59.4613 63.392 54.856 63.392V79.392C57.2481 79.392 57.645 79.9556 57.4247 79.7563L68.1593 67.8917ZM54.856 63.392H41.16V79.392H54.856V63.392ZM41.16 63.392C39.7135 63.392 37.1593 63.759 35.0232 65.8951C32.887 68.0312 32.52 70.5855 32.52 72.032H48.52C48.52 73.0518 48.2596 75.2861 46.3368 77.2089C44.4141 79.1316 42.1798 79.392 41.16 79.392V63.392ZM32.52 72.032V89.056H48.52V72.032H32.52ZM32.52 89.056C32.52 90.5025 32.887 93.0568 35.0232 95.1929C37.1593 97.329 39.7135 97.696 41.16 97.696V81.696C42.1798 81.696 44.4141 81.9564 46.3368 83.8791C48.2596 85.8019 48.52 88.0362 48.52 89.056H32.52ZM41.16 97.696H54.856V81.696H41.16V97.696ZM140.387 43.744L137.252 51.1042L137.31 51.1289L137.369 51.1527L140.387 43.744ZM151.267 51.68L144.944 56.5806L144.974 56.6194L145.004 56.658L151.267 51.68ZM154.723 107.616L149.066 101.959L149.066 101.959L154.723 107.616ZM134.371 107.616L127.971 112.416L128.657 113.33L129.571 114.016L134.371 107.616ZM133.731 101.472L130.153 108.627L131.842 109.472H133.731V101.472ZM133.219 101.856L139.839 106.348L140.137 105.909L140.374 105.434L133.219 101.856ZM100.195 104.288L95.1652 110.509L95.2374 110.567L95.3109 110.624L100.195 104.288ZM100.963 74.848L96.0515 68.5332L96.0228 68.5555L95.9943 68.578L100.963 74.848ZM131.683 61.024L126.368 67.0033L126.463 67.0881L126.562 67.1698L131.683 61.024ZM119.907 60.128L116.329 52.9726L116.246 53.0142L116.164 53.0577L119.907 60.128ZM117.091 63.072L124.374 66.3824L124.512 66.0778L124.625 65.7627L117.091 63.072ZM115.299 64.352L114.253 72.2833L114.334 72.294L114.416 72.3031L115.299 64.352ZM96.867 61.92L95.5518 69.8111L95.6858 69.8335L95.8205 69.8513L96.867 61.92ZM95.331 60.768L87.3639 60.0437L87.331 60.4051V60.768H95.331ZM99.683 50.656L93.6208 45.4358L93.6149 45.4427L93.6089 45.4497L99.683 50.656ZM110.179 43.488L113.1 50.9358L113.137 50.9211L113.175 50.9059L110.179 43.488ZM130.787 91.36L135.753 97.6324L135.769 97.6197L135.785 97.6069L130.787 91.36ZM118.115 82.656L113.904 75.8539L113.829 75.9003L113.755 75.9484L118.115 82.656ZM117.475 92.128L112.236 98.1735V98.1735L117.475 92.128ZM124.899 48.8C129.691 48.8 133.766 49.6193 137.252 51.1042L143.522 36.3838C137.792 33.9433 131.542 32.8 124.899 32.8V48.8ZM137.369 51.1527C140.875 52.5811 143.284 54.4393 144.944 56.5806L157.59 46.7794C153.959 42.0941 149.115 38.6615 143.405 36.3353L137.369 51.1527ZM145.004 56.658C146.571 58.6286 147.235 60.6006 147.235 62.816H163.235C163.235 56.8394 161.254 51.3874 157.53 46.702L145.004 56.658ZM147.235 62.816V106.464H163.235V62.816H147.235ZM147.235 106.464C147.235 105.576 147.42 104.67 147.797 103.823C148.165 102.995 148.645 102.381 149.066 101.959L160.38 113.273C162.007 111.646 163.235 109.298 163.235 106.464H147.235ZM149.066 101.959C149.751 101.274 150.575 100.747 151.466 100.413C152.332 100.088 153.113 100 153.699 100V116C155.84 116 158.358 115.295 160.38 113.273L149.066 101.959ZM153.699 100H135.523V116H153.699V100ZM135.523 100C136.827 100 138.128 100.433 139.171 101.216L129.571 114.016C131.297 115.311 133.365 116 135.523 116V100ZM140.771 102.816C141.554 103.859 141.987 105.16 141.987 106.464H125.987C125.987 108.622 126.676 110.69 127.971 112.416L140.771 102.816ZM141.987 106.464V101.984H125.987V106.464H141.987ZM141.987 101.984C141.987 101.405 141.957 99.7793 141.078 98.0223C140.583 97.0306 139.718 95.8062 138.281 94.8476C136.793 93.8556 135.174 93.472 133.731 93.472V109.472C132.374 109.472 130.829 109.11 129.405 108.16C128.032 107.244 127.221 106.084 126.768 105.178C125.974 103.591 125.987 102.222 125.987 101.984H141.987ZM137.309 94.3166C136.014 93.6692 134.39 93.2874 132.611 93.5098C130.891 93.7247 129.567 94.4354 128.675 95.104C127.094 96.2894 126.332 97.7422 126.064 98.2783L140.374 105.434C140.277 105.629 139.685 106.847 138.275 107.904C137.469 108.509 136.229 109.182 134.595 109.386C132.902 109.598 131.363 109.232 130.153 108.627L137.309 94.3166ZM126.599 97.364C125.349 99.2059 122.823 101.024 116.579 101.024V117.024C126.036 117.024 134.603 114.063 139.839 106.348L126.599 97.364ZM116.579 101.024C110.954 101.024 107.385 99.7297 105.079 97.9519L95.3109 110.624C101.197 115.161 108.551 117.024 116.579 117.024V101.024ZM105.225 98.067C103.486 96.6611 102.179 94.4492 102.179 90.08H86.179C86.179 98.1695 88.8827 105.43 95.1652 110.509L105.225 98.067ZM102.179 90.08C102.179 85.5694 103.605 82.9615 105.932 81.118L95.9943 68.578C89.2753 73.9025 86.179 81.4493 86.179 90.08H102.179ZM105.875 81.1628C108.537 79.0922 113.17 77.472 120.931 77.472V61.472C111.284 61.472 102.605 63.4358 96.0515 68.5332L105.875 81.1628ZM120.931 77.472H133.347V61.472H120.931V77.472ZM133.347 77.472C134.793 77.472 137.348 77.105 139.484 74.9689C141.62 72.8328 141.987 70.2785 141.987 68.832H125.987C125.987 67.8122 126.247 65.5779 128.17 63.6551C130.093 61.7324 132.327 61.472 133.347 61.472V77.472ZM141.987 68.832V66.4H125.987V68.832H141.987ZM141.987 66.4C141.987 62.1258 140.454 57.9192 136.804 54.8782L126.562 67.1698C126.488 67.1087 126.391 67.0128 126.291 66.88C126.191 66.7465 126.113 66.6078 126.058 66.4794C125.945 66.2155 125.987 66.1375 125.987 66.4H141.987ZM136.998 55.0447C133.573 52 129.318 50.976 125.283 50.976V66.976C125.995 66.976 126.365 67.0665 126.493 67.1074C126.593 67.1395 126.507 67.1265 126.368 67.0033L136.998 55.0447ZM125.283 50.976C122.23 50.976 119.17 51.552 116.329 52.9726L123.485 67.2834C123.716 67.168 124.24 66.976 125.283 66.976V50.976ZM116.164 53.0577C113.482 54.4777 110.835 56.8032 109.557 60.3813L124.625 65.7627C124.434 66.2977 124.148 66.706 123.896 66.9698C123.664 67.2122 123.529 67.2622 123.65 67.1983L116.164 53.0577ZM109.808 59.7616C109.953 59.4429 110.457 58.4545 111.673 57.5861C113.068 56.5895 114.72 56.2385 116.182 56.4009L114.416 72.3031C116.646 72.5509 118.98 72.0292 120.973 70.6059C122.786 69.3108 123.802 67.6397 124.374 66.3824L109.808 59.7616ZM116.345 56.4207L97.9135 53.9887L95.8205 69.8513L114.253 72.2833L116.345 56.4207ZM98.1822 54.0288C98.2349 54.0376 99.2985 54.1916 100.515 55.104C101.194 55.6133 101.95 56.3845 102.52 57.4755C103.098 58.5846 103.331 59.7334 103.331 60.768H87.331C87.331 63.7868 88.8119 66.3266 90.915 67.904C92.6435 69.2004 94.4751 69.6317 95.5518 69.8111L98.1822 54.0288ZM103.298 61.4923C103.482 59.4667 104.228 57.646 105.757 55.8623L93.6089 45.4497C90.0178 49.6394 87.8624 54.56 87.3639 60.0437L103.298 61.4923ZM105.745 55.8762C107.418 53.933 109.774 52.2401 113.1 50.9358L107.258 36.0402C101.88 38.1493 97.2383 41.235 93.6208 45.4358L105.745 55.8762ZM113.175 50.9059C116.55 49.543 120.423 48.8 124.899 48.8V32.8C118.623 32.8 112.683 33.849 107.183 36.0701L113.175 50.9059ZM122.851 101.792C127.451 101.792 131.978 100.621 135.753 97.6324L125.821 85.0876C125.5 85.3417 124.737 85.792 122.851 85.792V101.792ZM135.785 97.6069C139.815 94.383 141.987 89.8663 141.987 84.704H125.987C125.987 84.8642 125.972 84.9473 125.967 84.9706C125.962 84.9911 125.963 84.9784 125.977 84.9496C125.991 84.9209 126 84.9124 125.986 84.9291C125.971 84.948 125.915 85.0125 125.789 85.113L135.785 97.6069ZM141.987 84.704V81.632H125.987V84.704H141.987ZM141.987 81.632C141.987 80.1855 141.62 77.6312 139.484 75.4951C137.348 73.359 134.793 72.992 133.347 72.992V88.992C132.327 88.992 130.093 88.7316 128.17 86.8089C126.247 84.8861 125.987 82.6518 125.987 81.632H141.987ZM133.347 72.992H125.667V88.992H133.347V72.992ZM125.667 72.992C121.676 72.992 117.469 73.6471 113.904 75.8539L122.326 89.4581C122.306 89.4707 122.501 89.3456 123.068 89.2206C123.639 89.0949 124.484 88.992 125.667 88.992V72.992ZM113.755 75.9484C109.546 78.6847 107.555 83.0111 107.555 87.648H123.555C123.555 87.5727 123.565 87.8965 123.314 88.3865C123.048 88.9053 122.685 89.2267 122.475 89.3635L113.755 75.9484ZM107.555 87.648C107.555 91.5633 109 95.3691 112.236 98.1735L122.714 86.0825C122.949 86.2856 123.211 86.6115 123.388 87.0246C123.556 87.4166 123.555 87.6703 123.555 87.648H107.555ZM112.236 98.1735C115.422 100.935 119.319 101.792 122.851 101.792V85.792C122.325 85.792 122.123 85.727 122.144 85.7337C122.16 85.7386 122.232 85.7626 122.341 85.8217C122.452 85.8817 122.582 85.9675 122.714 86.0825L112.236 98.1735ZM177.783 103.776L173.32 110.416L173.345 110.432L173.37 110.449L177.783 103.776ZM166.647 89.312L174.171 86.5948L174.13 86.4806L174.085 86.3676L166.647 89.312ZM166.647 59.872L174.085 62.8164L174.135 62.6903L174.181 62.5627L166.647 59.872ZM177.783 45.92L182.043 52.6917L182.081 52.6673L182.12 52.6424L177.783 45.92ZM214.903 46.048L219.267 39.3429L214.903 46.048ZM225.783 59.36L218.23 61.9975L218.276 62.1293L218.327 62.2596L225.783 59.36ZM226.935 64.352H234.935V63.9719L234.899 63.5935L226.935 64.352ZM225.527 66.016L226.722 73.9262L226.84 73.9084L226.958 73.887L225.527 66.016ZM207.735 68.704V76.704H208.336L208.93 76.6142L207.735 68.704ZM205.943 67.424L198.133 69.1594L198.197 69.4438L198.28 69.7228L205.943 67.424ZM205.687 66.272L213.496 64.5366L213.474 64.4338L213.448 64.3317L205.687 66.272ZM205.175 64.48L212.764 61.9502L212.612 61.4919L212.405 61.0553L205.175 64.48ZM201.591 60.512L197.153 67.1684L197.236 67.2232L197.319 67.2759L201.591 60.512ZM187.127 64.992L194.573 67.9172L194.613 67.8157L194.65 67.7131L187.127 64.992ZM186.999 84.32L179.363 86.7062L179.427 86.9114L179.502 87.1129L186.999 84.32ZM201.847 89.184L206.364 95.7865L206.48 95.7075L206.593 95.6245L201.847 89.184ZM205.303 84.192L198.148 80.6143L197.872 81.1661L197.684 81.7538L205.303 84.192ZM205.431 83.424L199.774 77.7672L197.431 80.1103V83.424H205.431ZM205.559 82.912L197.798 80.9717L197.559 81.9272V82.912H205.559ZM207.351 81.632L205.92 89.503L206.014 89.5201L206.109 89.535L207.351 81.632ZM225.271 84.448L226.84 76.6034L226.677 76.5708L226.513 76.545L225.271 84.448ZM225.783 90.08L233.351 92.6746L233.362 92.6423L233.372 92.6098L225.783 90.08ZM214.647 104.032L210.436 97.2299L210.412 97.245L210.387 97.2603L214.647 104.032ZM196.215 101.024C190.619 101.024 186.044 99.6478 182.196 97.1031L173.37 110.449C180.104 114.902 187.817 117.024 196.215 117.024V101.024ZM182.246 97.1364C178.513 94.6277 175.838 91.2101 174.171 86.5948L159.123 92.0292C161.893 99.7019 166.642 105.927 173.32 110.416L182.246 97.1364ZM174.085 86.3676C172.928 83.4423 172.215 79.587 172.215 74.592H156.215C156.215 81.0317 157.124 86.9897 159.209 92.2564L174.085 86.3676ZM172.215 74.592C172.215 69.597 172.928 65.7417 174.085 62.8164L159.209 56.9276C157.124 62.1943 156.215 68.1523 156.215 74.592H172.215ZM174.181 62.5627C175.721 58.2511 178.294 55.0496 182.043 52.6917L173.523 39.1483C166.691 43.4464 161.84 49.5462 159.113 57.1813L174.181 62.5627ZM182.12 52.6424C185.977 50.1543 190.579 48.8 196.215 48.8V32.8C187.857 32.8 180.171 34.8591 173.446 39.1976L182.12 52.6424ZM196.215 48.8C201.916 48.8 206.595 50.1865 210.539 52.7531L219.267 39.3429C212.459 34.9122 204.679 32.8 196.215 32.8V48.8ZM210.539 52.7531C214.629 55.4146 217.01 58.5023 218.23 61.9975L233.336 56.7225C230.802 49.4657 225.929 43.6788 219.267 39.3429L210.539 52.7531ZM218.327 62.2596C218.634 63.0486 218.864 63.9851 218.971 65.1105L234.899 63.5935C234.665 61.1349 234.127 58.7434 233.239 56.4604L218.327 62.2596ZM218.935 64.352C218.935 63.4922 219.168 61.85 220.476 60.3045C221.77 58.7748 223.317 58.2866 224.096 58.145L226.958 73.887C228.675 73.5747 230.926 72.7239 232.69 70.6395C234.467 68.5394 234.935 66.1504 234.935 64.352H218.935ZM224.332 58.1058L206.54 60.7938L208.93 76.6142L226.722 73.9262L224.332 58.1058ZM207.735 60.704H207.479V76.704H207.735V60.704ZM207.479 60.704C208.666 60.704 210.243 61.074 211.64 62.2382C212.935 63.3168 213.431 64.5435 213.606 65.1252L198.28 69.7228C198.711 71.1578 199.591 73.0246 201.398 74.5298C203.307 76.1207 205.524 76.704 207.479 76.704V60.704ZM213.753 65.6886L213.496 64.5366L197.878 68.0074L198.133 69.1594L213.753 65.6886ZM213.448 64.3317C213.242 63.5063 213.016 62.7043 212.764 61.9502L197.586 67.0098C197.675 67.2797 197.791 67.6723 197.926 68.2123L213.448 64.3317ZM212.405 61.0553C210.942 57.9675 208.675 55.5239 205.863 53.7481L197.319 67.2759C197.75 67.5481 197.872 67.7498 197.945 67.9047L212.405 61.0553ZM206.029 53.8556C202.983 51.8253 199.547 50.976 196.087 50.976V66.976C196.893 66.976 197.127 67.1507 197.153 67.1684L206.029 53.8556ZM196.087 50.976C192.646 50.976 189.11 51.7469 185.996 53.8382C182.842 55.9553 180.797 58.9718 179.604 62.2709L194.65 67.7131C194.787 67.3348 194.903 67.1603 194.941 67.1087C194.972 67.0675 194.961 67.0906 194.914 67.1218C194.786 67.2078 195.005 66.976 196.087 66.976V50.976ZM179.681 62.0668C178.224 65.7763 177.719 70.1482 177.719 74.72H193.719C193.719 71.0998 194.153 68.9864 194.573 67.9172L179.681 62.0668ZM177.719 74.72C177.719 78.9821 178.211 83.0206 179.363 86.7062L194.635 81.9338C194.08 80.158 193.719 77.7965 193.719 74.72H177.719ZM179.502 87.1129C180.731 90.411 182.731 93.4945 185.82 95.7135C188.937 97.9528 192.52 98.848 196.087 98.848V82.848C195.63 82.848 195.373 82.7922 195.261 82.7595C195.205 82.7431 195.176 82.7299 195.166 82.7253C195.157 82.7209 195.155 82.7191 195.154 82.7185C195.153 82.7179 195.142 82.7095 195.118 82.686C195.095 82.662 195.052 82.6149 194.995 82.5342C194.878 82.3708 194.694 82.06 194.496 81.5271L179.502 87.1129ZM196.087 98.848C199.702 98.848 203.245 97.9211 206.364 95.7865L197.33 82.5815C197.207 82.6656 196.91 82.848 196.087 82.848V98.848ZM206.593 95.6245C209.72 93.32 211.787 90.1783 212.922 86.6302L197.684 81.7538C197.454 82.4724 197.217 82.6587 197.101 82.7436L206.593 95.6245ZM212.458 87.7698C213.38 85.9274 213.431 84.1739 213.431 83.424H197.431C197.431 83.2828 197.438 82.9743 197.508 82.5568C197.574 82.1608 197.731 81.4466 198.148 80.6143L212.458 87.7698ZM211.088 89.0808C212.521 87.6472 213.066 86.0596 213.288 85.1723C213.522 84.2365 213.559 83.4261 213.559 82.912H197.559C197.559 82.6539 197.575 82.0568 197.766 81.2917C197.945 80.5751 198.426 79.1155 199.774 77.7672L211.088 89.0808ZM213.32 84.8523C213.185 85.3918 212.653 87.0452 210.849 88.3339C208.903 89.7237 206.91 89.6831 205.92 89.503L208.782 73.761C206.853 73.4103 204.092 73.4976 201.549 75.3141C199.148 77.0294 198.189 79.4082 197.798 80.9717L213.32 84.8523ZM206.109 89.535L224.029 92.351L226.513 76.545L208.593 73.729L206.109 89.535ZM223.702 92.2926C223.064 92.1651 221.607 91.734 220.311 90.3094C218.916 88.7746 218.551 87.0207 218.551 85.856H234.551C234.551 83.9233 233.972 81.5507 232.151 79.5466C230.429 77.6527 228.331 76.9016 226.84 76.6034L223.702 92.2926ZM218.551 85.856C218.551 86.0831 218.502 86.624 218.194 87.5502L233.372 92.6098C234.088 90.464 234.551 88.1889 234.551 85.856H218.551ZM218.215 87.4854C216.768 91.7082 214.243 94.8732 210.436 97.2299L218.858 110.834C225.803 106.535 230.702 100.398 233.351 92.6746L218.215 87.4854ZM210.387 97.2603C206.521 99.6924 201.891 101.024 196.215 101.024V117.024C204.534 117.024 212.192 115.028 218.907 110.804L210.387 97.2603ZM235.76 107.616L229.36 112.416L230.046 113.33L230.96 114.016L235.76 107.616ZM235.76 18.912L230.103 13.2551L230.103 13.2552L235.76 18.912ZM256.112 18.912L249.712 23.712L250.398 24.6263L251.312 25.312L256.112 18.912ZM256.88 60.256L253.302 67.4114L254.991 68.256H256.88V60.256ZM257.392 60L263.049 65.6569L263.349 65.3563L263.616 65.0256L257.392 60ZM271.344 42.72L265.27 37.5136L265.193 37.6029L265.12 37.6944L271.344 42.72ZM295.024 43.744L301.347 48.6452L301.639 48.2686L301.884 47.86L295.024 43.744ZM278.256 65.376L271.933 60.4748L271.758 60.7007L271.6 60.9384L278.256 65.376ZM278.256 66.272L285.475 62.8244L285.444 62.7591L285.411 62.6943L278.256 66.272ZM297.328 106.208L290.109 109.656L290.14 109.721L290.173 109.786L297.328 106.208ZM275.44 106.848L268.083 109.991L268.106 110.044L268.13 110.097L275.44 106.848ZM263.792 79.584L271.149 76.441L271.055 76.2206L270.947 76.0063L263.792 79.584ZM263.28 79.328L259.702 86.4834L261.391 87.328H263.28V79.328ZM262.896 79.456L269.445 84.0503L269.786 83.5645L270.051 83.0338L262.896 79.456ZM256.88 88.032L250.331 83.4377L249.99 83.9235L249.725 84.4543L256.88 88.032ZM256.112 107.616L261.769 113.273L261.769 113.273L256.112 107.616ZM236.912 100C238.216 100 239.517 100.433 240.56 101.216L230.96 114.016C232.686 115.311 234.754 116 236.912 116V100ZM242.16 102.816C242.943 103.859 243.376 105.16 243.376 106.464H227.376C227.376 108.622 228.065 110.69 229.36 112.416L242.16 102.816ZM243.376 106.464V19.936H227.376V106.464H243.376ZM243.376 19.936C243.376 20.5216 243.288 21.3026 242.963 22.169C242.629 23.06 242.102 23.8836 241.417 24.5688L230.103 13.2552C228.081 15.277 227.376 17.7953 227.376 19.936H243.376ZM241.417 24.5688C240.995 24.9905 240.381 25.4704 239.553 25.8385C238.706 26.2149 237.8 26.4 236.912 26.4V10.4C234.078 10.4 231.73 11.6283 230.103 13.2551L241.417 24.5688ZM236.912 26.4H255.088V10.4H236.912V26.4ZM255.088 26.4C254.208 26.4 253.152 26.2162 252.086 25.6834C251.021 25.1506 250.24 24.4163 249.712 23.712L262.512 14.112C260.745 11.7562 258.033 10.4 255.088 10.4V26.4ZM251.312 25.312C250.608 24.7837 249.873 24.0032 249.341 22.9377C248.808 21.8722 248.624 20.8164 248.624 19.936H264.624C264.624 16.9913 263.268 14.2789 260.912 12.512L251.312 25.312ZM248.624 19.936V59.744H264.624V19.936H248.624ZM248.624 59.744C248.624 61.8221 249.487 65.504 253.302 67.4114L260.458 53.1006C261.921 53.832 263.112 55.0234 263.843 56.4863C264.513 57.8246 264.624 59.0348 264.624 59.744H248.624ZM256.88 68.256C259.921 68.256 262.006 66.6995 263.049 65.6569L251.735 54.3431C252.436 53.6418 254.181 52.256 256.88 52.256V68.256ZM263.616 65.0256L277.568 47.7456L265.12 37.6944L251.168 54.9744L263.616 65.0256ZM277.418 47.9263C277.018 48.3934 276.415 48.9128 275.591 49.2975C274.762 49.6845 273.945 49.824 273.264 49.824V33.824C270.096 33.824 267.259 35.1929 265.27 37.5136L277.418 47.9263ZM273.264 49.824H294.128V33.824H273.264V49.824ZM294.128 49.824C293.867 49.824 292.244 49.8227 290.5 48.6019C289.533 47.9244 288.676 46.9667 288.105 45.7675C287.553 44.6083 287.408 43.5217 287.408 42.72H303.408C303.408 40.2537 302.366 37.3777 299.676 35.4941C297.505 33.9747 295.243 33.824 294.128 33.824V49.824ZM287.408 42.72C287.408 41.5751 287.68 40.7366 287.821 40.359C287.976 39.9457 288.126 39.6913 288.164 39.628L301.884 47.86C302.302 47.1637 303.408 45.2483 303.408 42.72H287.408ZM288.701 38.8428L271.933 60.4748L284.579 70.2772L301.347 48.6452L288.701 38.8428ZM271.6 60.9384C269.434 64.1866 270.007 67.6627 271.101 69.8497L285.411 62.6943C285.732 63.3352 286.128 64.4033 286.128 65.792C286.128 67.2718 285.675 68.6694 284.912 69.8136L271.6 60.9384ZM271.037 69.7196L290.109 109.656L304.547 102.76L285.475 62.8244L271.037 69.7196ZM290.173 109.786C290.152 109.744 290.045 109.53 289.931 109.186C289.871 109.006 289.791 108.739 289.723 108.401C289.657 108.071 289.584 107.581 289.584 106.976H305.584C305.584 104.767 304.685 103.034 304.483 102.63L290.173 109.786ZM289.584 106.976C289.584 106.236 289.712 105.206 290.223 104.091C290.755 102.931 291.568 101.971 292.527 101.274C294.271 100.005 295.914 100 296.176 100V116C297.377 116 299.723 115.824 301.937 114.214C304.625 112.259 305.584 109.363 305.584 106.976H289.584ZM296.176 100H277.232V116H296.176V100ZM277.232 100C278.027 100 279.238 100.191 280.47 100.983C281.71 101.78 282.406 102.823 282.75 103.599L268.13 110.097C268.816 111.641 269.981 113.26 271.818 114.441C273.647 115.617 275.584 116 277.232 116V100ZM282.797 103.705L271.149 76.441L256.435 82.727L268.083 109.991L282.797 103.705ZM270.947 76.0063C269.04 72.1914 265.358 71.328 263.28 71.328V87.328C262.571 87.328 261.361 87.2166 260.022 86.5474C258.559 85.816 257.368 84.6246 256.637 83.1617L270.947 76.0063ZM266.858 72.1726C265.669 71.5784 263.313 70.7776 260.526 71.7065C257.739 72.6354 256.335 74.6899 255.741 75.8783L270.051 83.0338C269.543 84.0514 268.245 85.9992 265.586 86.8855C262.927 87.7717 260.72 86.9922 259.702 86.4834L266.858 72.1726ZM256.347 74.8617L250.331 83.4377L263.429 92.6263L269.445 84.0503L256.347 74.8617ZM249.725 84.4543C249.523 84.8583 248.624 86.5907 248.624 88.8H264.624C264.624 89.4046 264.551 89.895 264.485 90.2249C264.417 90.5631 264.337 90.8305 264.277 91.0098C264.163 91.354 264.056 91.5684 264.035 91.6097L249.725 84.4543ZM248.624 88.8V106.464H264.624V88.8H248.624ZM248.624 106.464C248.624 105.576 248.809 104.67 249.186 103.823C249.554 102.995 250.034 102.381 250.455 101.959L261.769 113.273C263.396 111.646 264.624 109.298 264.624 106.464H248.624ZM250.455 101.959C251.14 101.274 251.964 100.747 252.855 100.413C253.721 100.088 254.502 100 255.088 100V116C257.229 116 259.747 115.295 261.769 113.273L250.455 101.959ZM255.088 100H236.912V116H255.088V100ZM340.577 42.336L346.234 47.9929L346.234 47.9928L340.577 42.336ZM360.929 42.336L354.529 47.136L355.215 48.0503L356.129 48.736L360.929 42.336ZM351.329 125.664L356.116 132.074L351.329 125.664ZM313.569 132.192L314.833 124.292L314.6 124.255L314.365 124.232L313.569 132.192ZM312.289 130.528L304.296 130.206L304.289 130.367V130.528H312.289ZM312.929 114.656L320.923 114.978L320.929 114.817V114.656H312.929ZM313.441 113.376L309.863 106.221L309.218 106.543L308.641 106.976L313.441 113.376ZM314.721 113.376L312.191 120.965L312.593 121.099L313.006 121.19L314.721 113.376ZM335.969 111.2L331.018 104.916L335.969 111.2ZM340.193 100.704H348.193V81.3903L334.536 95.0471L340.193 100.704ZM339.297 101.6L344.954 107.257L339.297 101.6ZM310.497 102.496L306.766 109.573L310.497 102.496ZM300.385 89.44L307.985 86.9414L307.98 86.9258L307.974 86.9102L300.385 89.44ZM300.769 58.208L308.228 61.1002L308.249 61.0455L308.27 60.9904L300.769 58.208ZM310.113 45.536L305.415 39.0606L305.385 39.0828L305.354 39.1053L310.113 45.536ZM339.425 46.432L333.438 51.7385L333.598 51.9186L333.768 52.0889L339.425 46.432ZM339.937 46.688V54.688H341.826L343.515 53.8434L339.937 46.688ZM339.041 83.808L331.591 80.8928L331.563 80.9635L331.537 81.0348L339.041 83.808ZM339.937 68.832L331.999 69.8243L332.003 69.8568L332.007 69.8893L339.937 68.832ZM338.913 64.992L331.395 67.7259L331.471 67.937L331.56 68.1434L338.913 64.992ZM335.585 60.64L330.725 66.9949L330.932 67.1525L331.147 67.2964L335.585 60.64ZM321.633 64.992L328.685 68.7698L328.854 68.454L328.994 68.1244L321.633 64.992ZM321.377 83.68L328.73 80.5286L328.557 80.1254L328.341 79.7435L321.377 83.68ZM324.833 88.032L320.149 94.5174L324.833 88.032ZM348.193 43.36C348.193 43.9456 348.105 44.7266 347.78 45.593C347.445 46.484 346.919 47.3076 346.234 47.9929L334.92 36.6791C332.898 38.701 332.193 41.2193 332.193 43.36H348.193ZM346.234 47.9928C345.812 48.4145 345.198 48.8944 344.37 49.2625C343.523 49.6389 342.617 49.824 341.729 49.824V33.824C338.895 33.824 336.547 35.0523 334.92 36.6792L346.234 47.9928ZM341.729 49.824H359.905V33.824H341.729V49.824ZM359.905 49.824C359.025 49.824 357.969 49.6402 356.903 49.1074C355.838 48.5746 355.057 47.8403 354.529 47.136L367.329 37.536C365.562 35.1802 362.85 33.824 359.905 33.824V49.824ZM356.129 48.736C355.425 48.2078 354.69 47.4273 354.158 46.3617C353.625 45.2962 353.441 44.2404 353.441 43.36H369.441C369.441 40.4153 368.085 37.7028 365.729 35.936L356.129 48.736ZM353.441 43.36V100.576H369.441V43.36H353.441ZM353.441 100.576C353.441 110.794 350.546 116.264 346.542 119.254L356.116 132.074C365.595 124.995 369.441 113.74 369.441 100.576H353.441ZM346.542 119.254C341.473 123.04 334.729 125.216 325.729 125.216V141.216C337.38 141.216 347.703 138.357 356.116 132.074L346.542 119.254ZM325.729 125.216C322.361 125.216 318.733 124.916 314.833 124.292L312.305 140.092C316.939 140.833 321.417 141.216 325.729 141.216V125.216ZM314.365 124.232C315.601 124.355 317.525 124.982 318.95 126.834C320.21 128.472 320.289 130.062 320.289 130.528H304.289C304.289 132.018 304.582 134.397 306.268 136.59C308.12 138.997 310.683 139.943 312.773 140.152L314.365 124.232ZM320.283 130.85L320.923 114.978L304.935 114.334L304.296 130.206L320.283 130.85ZM320.929 114.656C320.929 115.504 320.641 117.976 318.241 119.776L308.641 106.976C305.559 109.288 304.929 112.613 304.929 114.656H320.929ZM317.019 120.531C314.793 121.644 312.849 121.185 312.191 120.965L317.251 105.787C315.569 105.226 312.772 104.766 309.863 106.221L317.019 120.531ZM313.006 121.19C316.96 122.058 320.785 122.528 324.449 122.528V106.528C322.14 106.528 319.479 106.23 316.436 105.562L313.006 121.19ZM324.449 122.528C330.473 122.528 336.264 121.153 340.92 117.484L331.018 104.916C330.042 105.685 328.153 106.528 324.449 106.528V122.528ZM340.92 117.484C346.259 113.278 348.193 107.056 348.193 100.704H332.193C332.193 103.909 331.311 104.685 331.018 104.916L340.92 117.484ZM334.536 95.0471L333.64 95.9431L344.954 107.257L345.85 106.361L334.536 95.0471ZM333.64 95.9431C332.519 97.0646 330.401 98.208 325.985 98.208V114.208C333.174 114.208 339.931 112.279 344.954 107.257L333.64 95.9431ZM325.985 98.208C321.571 98.208 317.701 97.2504 314.228 95.4194L306.766 109.573C312.68 112.691 319.135 114.208 325.985 114.208V98.208ZM314.228 95.4194C311.779 94.1283 309.546 91.6911 307.985 86.9414L292.785 91.9386C295.32 99.6476 299.828 105.914 306.766 109.573L314.228 95.4194ZM307.974 86.9102C306.963 83.876 306.337 79.7542 306.337 74.336H290.337C290.337 80.8644 291.076 86.812 292.796 91.9698L307.974 86.9102ZM306.337 74.336C306.337 68.3356 307.09 64.0359 308.228 61.1002L293.31 55.3158C291.206 60.7427 290.337 67.195 290.337 74.336H306.337ZM308.27 60.9904C309.728 57.0598 311.934 54.1406 314.872 51.9667L305.354 39.1053C299.759 43.246 295.736 48.7748 293.268 55.4255L308.27 60.9904ZM314.811 52.0114C317.708 49.9096 321.074 48.8 325.217 48.8V32.8C317.926 32.8 311.222 34.8477 305.415 39.0606L314.811 52.0114ZM325.217 48.8C329.629 48.8 331.963 50.0739 333.438 51.7385L345.412 41.1255C340.231 35.2808 333.093 32.8 325.217 32.8V48.8ZM333.768 52.0889C334.811 53.1315 336.896 54.688 339.937 54.688V38.688C342.636 38.688 344.381 40.0739 345.082 40.7751L333.768 52.0889ZM343.515 53.8434C347.33 51.936 348.193 48.2541 348.193 46.176H332.193C332.193 45.4668 332.304 44.2566 332.974 42.9183C333.705 41.4554 334.896 40.264 336.359 39.5326L343.515 53.8434ZM348.193 46.176V43.36H332.193V46.176H348.193ZM346.491 86.7232C347.84 83.2746 348.193 78.7861 348.193 74.208H332.193C332.193 78.5046 331.778 80.4161 331.591 80.8928L346.491 86.7232ZM348.193 74.208C348.193 71.7784 348.107 69.5754 347.867 67.7747L332.007 69.8893C332.108 70.6486 332.193 72.0296 332.193 74.208H348.193ZM347.875 67.8397C347.617 65.7744 347.09 63.7633 346.266 61.8406L331.56 68.1434C331.76 68.61 331.916 69.1589 331.999 69.8243L347.875 67.8397ZM346.431 62.2581C345.217 58.9175 343.096 56.0323 340.023 53.9836L331.147 67.2964C331.19 67.3246 331.201 67.3385 331.214 67.3556C331.231 67.378 331.305 67.4796 331.395 67.7259L346.431 62.2581ZM340.445 54.2851C337.373 51.9362 333.792 50.976 330.209 50.976V66.976C330.582 66.976 330.754 67.0241 330.788 67.0343C330.805 67.0397 330.8 67.0396 330.781 67.0296C330.761 67.0194 330.741 67.0066 330.725 66.9949L340.445 54.2851ZM330.209 50.976C326.812 50.976 323.431 51.8485 320.463 53.9307C317.539 55.9814 315.566 58.8189 314.272 61.8596L328.994 68.1244C329.407 67.1544 329.716 66.9839 329.651 67.0293C329.631 67.0433 329.62 67.0428 329.659 67.0315C329.707 67.0173 329.875 66.976 330.209 66.976V50.976ZM314.581 61.2142C312.462 65.1697 311.713 69.7714 311.713 74.464H327.713C327.713 71.3059 328.244 69.593 328.685 68.7698L314.581 61.2142ZM311.713 74.464C311.713 79.0294 312.262 83.8117 314.413 87.6165L328.341 79.7435C328.362 79.7803 328.176 79.4496 328.002 78.4825C327.832 77.5426 327.713 76.2272 327.713 74.464H311.713ZM314.024 86.8314C315.346 89.9155 317.402 92.5337 320.149 94.5174L329.517 81.5466C329.192 81.3116 328.944 81.0285 328.73 80.5286L314.024 86.8314ZM320.149 94.5174C323.217 96.7334 326.743 97.696 330.337 97.696V81.696C329.664 81.696 329.521 81.5493 329.517 81.5466L320.149 94.5174ZM330.337 97.696C333.721 97.696 337.196 96.9227 340.259 94.8503C343.348 92.7609 345.356 89.7996 346.545 86.5812L331.537 81.0348C331.399 81.4075 331.284 81.5792 331.248 81.6289C331.218 81.6683 331.235 81.6383 331.295 81.5977C331.457 81.488 331.305 81.696 330.337 81.696V97.696ZM415.262 43.744L412.127 51.1042L412.185 51.1289L412.244 51.1527L415.262 43.744ZM426.142 51.68L419.819 56.5806L419.849 56.6194L419.879 56.658L426.142 51.68ZM429.598 107.616L423.941 101.959L423.941 101.959L429.598 107.616ZM409.246 107.616L402.846 112.416L403.532 113.33L404.446 114.016L409.246 107.616ZM408.606 101.472L405.028 108.627L406.717 109.472H408.606V101.472ZM408.094 101.856L414.714 106.348L415.012 105.909L415.249 105.434L408.094 101.856ZM375.07 104.288L370.04 110.509L370.112 110.567L370.186 110.624L375.07 104.288ZM375.838 74.848L370.926 68.5332L370.898 68.5555L370.869 68.578L375.838 74.848ZM406.558 61.024L401.243 67.0033L401.338 67.0881L401.437 67.1698L406.558 61.024ZM394.782 60.128L391.204 52.9726L391.121 53.0142L391.039 53.0577L394.782 60.128ZM391.966 63.072L399.249 66.3824L399.387 66.0778L399.5 65.7627L391.966 63.072ZM390.174 64.352L389.128 72.2833L389.209 72.294L389.291 72.3031L390.174 64.352ZM371.742 61.92L370.427 69.8111L370.561 69.8335L370.696 69.8513L371.742 61.92ZM370.206 60.768L362.239 60.0437L362.206 60.4051V60.768H370.206ZM374.558 50.656L368.496 45.4358L368.49 45.4427L368.484 45.4497L374.558 50.656ZM385.054 43.488L387.975 50.9358L388.012 50.9211L388.05 50.9059L385.054 43.488ZM405.662 91.36L410.628 97.6324L410.644 97.6197L410.66 97.6069L405.662 91.36ZM392.99 82.656L388.779 75.8539L388.704 75.9003L388.63 75.9484L392.99 82.656ZM392.35 92.128L387.111 98.1735V98.1735L392.35 92.128ZM399.774 48.8C404.566 48.8 408.641 49.6193 412.127 51.1042L418.397 36.3838C412.667 33.9433 406.417 32.8 399.774 32.8V48.8ZM412.244 51.1527C415.75 52.5811 418.159 54.4393 419.819 56.5806L432.465 46.7794C428.834 42.0941 423.99 38.6615 418.28 36.3353L412.244 51.1527ZM419.879 56.658C421.446 58.6286 422.11 60.6006 422.11 62.816H438.11C438.11 56.8394 436.129 51.3874 432.405 46.702L419.879 56.658ZM422.11 62.816V106.464H438.11V62.816H422.11ZM422.11 106.464C422.11 105.576 422.295 104.67 422.672 103.823C423.04 102.995 423.52 102.381 423.941 101.959L435.255 113.273C436.882 111.646 438.11 109.298 438.11 106.464H422.11ZM423.941 101.959C424.626 101.274 425.45 100.747 426.341 100.413C427.207 100.088 427.988 100 428.574 100V116C430.715 116 433.233 115.295 435.255 113.273L423.941 101.959ZM428.574 100H410.398V116H428.574V100ZM410.398 100C411.702 100 413.003 100.433 414.046 101.216L404.446 114.016C406.172 115.311 408.24 116 410.398 116V100ZM415.646 102.816C416.429 103.859 416.862 105.16 416.862 106.464H400.862C400.862 108.622 401.551 110.69 402.846 112.416L415.646 102.816ZM416.862 106.464V101.984H400.862V106.464H416.862ZM416.862 101.984C416.862 101.405 416.832 99.7793 415.953 98.0223C415.458 97.0306 414.593 95.8062 413.156 94.8476C411.668 93.8556 410.049 93.472 408.606 93.472V109.472C407.249 109.472 405.704 109.11 404.28 108.16C402.907 107.244 402.096 106.084 401.643 105.178C400.849 103.591 400.862 102.222 400.862 101.984H416.862ZM412.184 94.3166C410.889 93.6692 409.265 93.2874 407.486 93.5098C405.766 93.7247 404.442 94.4354 403.55 95.104C401.969 96.2894 401.207 97.7422 400.939 98.2783L415.249 105.434C415.152 105.629 414.56 106.847 413.15 107.904C412.344 108.509 411.104 109.182 409.47 109.386C407.777 109.598 406.238 109.232 405.028 108.627L412.184 94.3166ZM401.474 97.364C400.224 99.2059 397.698 101.024 391.454 101.024V117.024C400.911 117.024 409.478 114.063 414.714 106.348L401.474 97.364ZM391.454 101.024C385.829 101.024 382.26 99.7297 379.954 97.9519L370.186 110.624C376.072 115.161 383.426 117.024 391.454 117.024V101.024ZM380.1 98.067C378.361 96.6611 377.054 94.4492 377.054 90.08H361.054C361.054 98.1695 363.758 105.43 370.04 110.509L380.1 98.067ZM377.054 90.08C377.054 85.5694 378.48 82.9615 380.807 81.118L370.869 68.578C364.15 73.9025 361.054 81.4493 361.054 90.08H377.054ZM380.75 81.1628C383.412 79.0922 388.045 77.472 395.806 77.472V61.472C386.159 61.472 377.48 63.4358 370.926 68.5332L380.75 81.1628ZM395.806 77.472H408.222V61.472H395.806V77.472ZM408.222 77.472C409.668 77.472 412.223 77.105 414.359 74.9689C416.495 72.8328 416.862 70.2785 416.862 68.832H400.862C400.862 67.8122 401.122 65.5779 403.045 63.6551C404.968 61.7324 407.202 61.472 408.222 61.472V77.472ZM416.862 68.832V66.4H400.862V68.832H416.862ZM416.862 66.4C416.862 62.1258 415.329 57.9192 411.679 54.8782L401.437 67.1698C401.363 67.1087 401.266 67.0128 401.166 66.88C401.066 66.7465 400.988 66.6078 400.933 66.4794C400.82 66.2155 400.862 66.1375 400.862 66.4H416.862ZM411.873 55.0447C408.448 52 404.193 50.976 400.158 50.976V66.976C400.87 66.976 401.24 67.0665 401.368 67.1074C401.468 67.1395 401.382 67.1265 401.243 67.0033L411.873 55.0447ZM400.158 50.976C397.105 50.976 394.045 51.552 391.204 52.9726L398.36 67.2834C398.591 67.168 399.115 66.976 400.158 66.976V50.976ZM391.039 53.0577C388.357 54.4777 385.71 56.8032 384.432 60.3813L399.5 65.7627C399.309 66.2977 399.023 66.706 398.771 66.9698C398.539 67.2122 398.404 67.2622 398.525 67.1983L391.039 53.0577ZM384.683 59.7616C384.828 59.4429 385.332 58.4545 386.548 57.5861C387.943 56.5895 389.595 56.2385 391.057 56.4009L389.291 72.3031C391.521 72.5509 393.855 72.0292 395.848 70.6059C397.661 69.3108 398.677 67.6397 399.249 66.3824L384.683 59.7616ZM391.22 56.4207L372.788 53.9887L370.696 69.8513L389.128 72.2833L391.22 56.4207ZM373.057 54.0288C373.11 54.0376 374.173 54.1916 375.39 55.104C376.069 55.6133 376.825 56.3845 377.395 57.4755C377.973 58.5846 378.206 59.7334 378.206 60.768H362.206C362.206 63.7868 363.687 66.3266 365.79 67.904C367.519 69.2004 369.35 69.6317 370.427 69.8111L373.057 54.0288ZM378.173 61.4923C378.357 59.4667 379.103 57.646 380.632 55.8623L368.484 45.4497C364.893 49.6394 362.737 54.56 362.239 60.0437L378.173 61.4923ZM380.62 55.8762C382.293 53.933 384.649 52.2401 387.975 50.9358L382.133 36.0402C376.755 38.1493 372.113 41.235 368.496 45.4358L380.62 55.8762ZM388.05 50.9059C391.425 49.543 395.298 48.8 399.774 48.8V32.8C393.498 32.8 387.558 33.849 382.058 36.0701L388.05 50.9059ZM397.726 101.792C402.326 101.792 406.853 100.621 410.628 97.6324L400.696 85.0876C400.375 85.3417 399.612 85.792 397.726 85.792V101.792ZM410.66 97.6069C414.69 94.383 416.862 89.8663 416.862 84.704H400.862C400.862 84.8642 400.847 84.9473 400.842 84.9706C400.837 84.9911 400.838 84.9784 400.852 84.9496C400.866 84.9209 400.875 84.9124 400.861 84.9291C400.846 84.948 400.79 85.0125 400.664 85.113L410.66 97.6069ZM416.862 84.704V81.632H400.862V84.704H416.862ZM416.862 81.632C416.862 80.1855 416.495 77.6312 414.359 75.4951C412.223 73.359 409.668 72.992 408.222 72.992V88.992C407.202 88.992 404.968 88.7316 403.045 86.8089C401.122 84.8861 400.862 82.6518 400.862 81.632H416.862ZM408.222 72.992H400.542V88.992H408.222V72.992ZM400.542 72.992C396.551 72.992 392.344 73.6471 388.779 75.8539L397.201 89.4581C397.181 89.4707 397.376 89.3456 397.943 89.2206C398.514 89.0949 399.359 88.992 400.542 88.992V72.992ZM388.63 75.9484C384.421 78.6847 382.43 83.0111 382.43 87.648H398.43C398.43 87.5727 398.44 87.8965 398.189 88.3865C397.923 88.9053 397.56 89.2267 397.35 89.3635L388.63 75.9484ZM382.43 87.648C382.43 91.5633 383.875 95.3691 387.111 98.1735L397.589 86.0825C397.824 86.2856 398.086 86.6115 398.263 87.0246C398.431 87.4166 398.43 87.6703 398.43 87.648H382.43ZM387.111 98.1735C390.297 100.935 394.194 101.792 397.726 101.792V85.792C397.2 85.792 396.998 85.727 397.019 85.7337C397.035 85.7386 397.107 85.7626 397.216 85.8217C397.327 85.8817 397.457 85.9675 397.589 86.0825L387.111 98.1735ZM532.274 46.944L526.377 52.3498L532.274 46.944ZM537.394 107.616L543.051 113.273V113.273L537.394 107.616ZM517.17 107.616L510.77 112.416L511.456 113.33L512.37 114.016L517.17 107.616ZM514.482 61.792L508.152 66.6836L508.276 66.8442L508.408 66.9983L514.482 61.792ZM502.45 61.664L496.518 56.2967L496.446 56.3762L496.376 56.4577L502.45 61.664ZM499.634 107.616L505.291 113.273L505.291 113.273L499.634 107.616ZM479.282 107.616L472.882 112.416L473.568 113.33L474.482 114.016L479.282 107.616ZM476.466 61.792L470.274 66.8579L470.4 67.0118L470.534 67.1593L476.466 61.792ZM464.69 61.152L459.197 55.3359V55.3359L464.69 61.152ZM461.874 66.912L453.954 65.7806L453.874 66.3435V66.912H461.874ZM461.362 107.616L467.019 113.273V113.273L461.362 107.616ZM441.01 107.616L434.61 112.416L435.296 113.33L436.21 114.016L441.01 107.616ZM441.01 42.336L446.667 47.9929L446.667 47.9929L441.01 42.336ZM461.362 42.336L454.962 47.136L455.648 48.0503L456.562 48.736L461.362 42.336ZM462.13 49.76L458.552 56.9154L460.241 57.76H462.13V49.76ZM462.642 49.248L455.755 45.1782L455.612 45.4195L455.487 45.6703L462.642 49.248ZM490.29 43.616L486.282 50.5394L490.29 43.616ZM497.714 51.808L490.491 55.2475L490.524 55.3169L490.559 55.3857L497.714 51.808ZM498.482 51.68L491.293 48.1693L491.207 48.3469L491.129 48.5286L498.482 51.68ZM505.778 43.488L501.829 36.5305L501.788 36.5539L501.747 36.5778L505.778 43.488ZM516.658 48.8C521.553 48.8 524.435 50.2315 526.377 52.3498L538.171 41.5382C532.604 35.4645 525.075 32.8 516.658 32.8V48.8ZM526.377 52.3498C528.378 54.5328 529.906 58.1161 529.906 64.224H545.906C545.906 55.4839 543.679 47.5472 538.171 41.5382L526.377 52.3498ZM529.906 64.224V106.464H545.906V64.224H529.906ZM529.906 106.464C529.906 105.576 530.091 104.67 530.468 103.823C530.836 102.995 531.316 102.381 531.737 101.959L543.051 113.273C544.678 111.646 545.906 109.298 545.906 106.464H529.906ZM531.737 101.959C532.422 101.274 533.246 100.747 534.137 100.413C535.003 100.088 535.784 100 536.37 100V116C538.511 116 541.029 115.295 543.051 113.273L531.737 101.959ZM536.37 100H518.322V116H536.37V100ZM518.322 100C519.626 100 520.927 100.433 521.97 101.216L512.37 114.016C514.096 115.311 516.164 116 518.322 116V100ZM523.57 102.816C524.353 103.859 524.786 105.16 524.786 106.464H508.786C508.786 108.622 509.475 110.69 510.77 112.416L523.57 102.816ZM524.786 106.464V68.832H508.786V106.464H524.786ZM524.786 68.832C524.786 64.4756 523.602 60.139 520.556 56.5857L508.408 66.9983C508.434 67.029 508.786 67.3857 508.786 68.832H524.786ZM520.812 56.9004C517.772 52.9663 513.422 50.976 508.594 50.976V66.976C508.706 66.976 508.735 66.9865 508.698 66.9788C508.659 66.9704 508.576 66.9475 508.47 66.8971C508.364 66.8463 508.274 66.786 508.207 66.731C508.142 66.6777 508.127 66.6517 508.152 66.6836L520.812 56.9004ZM508.594 50.976C503.921 50.976 499.697 52.7831 496.518 56.2967L508.382 67.0313C508.447 66.9603 508.479 66.938 508.474 66.9416C508.467 66.9464 508.443 66.962 508.409 66.9773C508.374 66.9924 508.357 66.9945 508.373 66.9915C508.39 66.988 508.459 66.976 508.594 66.976V50.976ZM496.376 56.4577C493.295 60.0516 492.146 64.4569 492.146 68.832H508.146C508.146 68.0164 508.252 67.5179 508.338 67.2481C508.418 67.0012 508.492 66.9083 508.524 66.8703L496.376 56.4577ZM492.146 68.832V106.464H508.146V68.832H492.146ZM492.146 106.464C492.146 105.576 492.331 104.67 492.708 103.823C493.076 102.995 493.556 102.381 493.977 101.959L505.291 113.273C506.918 111.646 508.146 109.298 508.146 106.464H492.146ZM493.977 101.959C494.662 101.274 495.486 100.747 496.377 100.413C497.243 100.088 498.024 100 498.61 100V116C500.751 116 503.269 115.295 505.291 113.273L493.977 101.959ZM498.61 100H480.434V116H498.61V100ZM480.434 100C481.738 100 483.039 100.433 484.082 101.216L474.482 114.016C476.208 115.311 478.276 116 480.434 116V100ZM485.682 102.816C486.465 103.859 486.898 105.16 486.898 106.464H470.898C470.898 108.622 471.587 110.69 472.882 112.416L485.682 102.816ZM486.898 106.464V68.832H470.898V106.464H486.898ZM486.898 68.832C486.898 64.3665 485.607 59.9715 482.398 56.4247L470.534 67.1593C470.567 67.1965 470.898 67.4948 470.898 68.832H486.898ZM482.658 56.7261C479.567 52.9486 475.268 50.976 470.45 50.976V66.976C470.562 66.976 470.599 66.9864 470.577 66.982C470.554 66.977 470.495 66.9613 470.418 66.9255C470.342 66.8896 470.283 66.85 470.247 66.8216C470.213 66.7949 470.225 66.7976 470.274 66.8579L482.658 56.7261ZM470.45 50.976C466.305 50.976 462.359 52.35 459.197 55.3359L470.183 66.9681C470.202 66.9502 470.2 66.9553 470.177 66.9699C470.153 66.9848 470.128 66.9968 470.109 67.0038C470.092 67.0105 470.101 67.0047 470.148 66.9966C470.197 66.9882 470.294 66.976 470.45 66.976V50.976ZM459.197 55.3359C456.161 58.2029 454.513 61.8685 453.954 65.7806L469.794 68.0434C469.917 67.1769 470.147 67.0024 470.183 66.9681L459.197 55.3359ZM453.874 66.912V106.464H469.874V66.912H453.874ZM453.874 106.464C453.874 105.576 454.059 104.67 454.436 103.823C454.804 102.995 455.284 102.381 455.705 101.959L467.019 113.273C468.646 111.646 469.874 109.298 469.874 106.464H453.874ZM455.705 101.959C456.39 101.274 457.214 100.747 458.105 100.413C458.971 100.088 459.752 100 460.338 100V116C462.479 116 464.997 115.295 467.019 113.273L455.705 101.959ZM460.338 100H442.162V116H460.338V100ZM442.162 100C443.466 100 444.767 100.433 445.81 101.216L436.21 114.016C437.936 115.311 440.004 116 442.162 116V100ZM447.41 102.816C448.193 103.859 448.626 105.16 448.626 106.464H432.626C432.626 108.622 433.315 110.69 434.61 112.416L447.41 102.816ZM448.626 106.464V43.36H432.626V106.464H448.626ZM448.626 43.36C448.626 43.9456 448.538 44.7266 448.213 45.593C447.879 46.484 447.352 47.3076 446.667 47.9929L435.353 36.6791C433.331 38.701 432.626 41.2193 432.626 43.36H448.626ZM446.667 47.9929C446.245 48.4145 445.631 48.8944 444.803 49.2625C443.956 49.6389 443.05 49.824 442.162 49.824V33.824C439.328 33.824 436.98 35.0523 435.353 36.6791L446.667 47.9929ZM442.162 49.824H460.338V33.824H442.162V49.824ZM460.338 49.824C459.458 49.824 458.402 49.6402 457.336 49.1074C456.271 48.5746 455.49 47.8403 454.962 47.136L467.762 37.536C465.995 35.1802 463.283 33.824 460.338 33.824V49.824ZM456.562 48.736C455.858 48.2077 455.123 47.4272 454.591 46.3617C454.058 45.2962 453.874 44.2404 453.874 43.36H469.874C469.874 40.4153 468.518 37.7028 466.162 35.936L456.562 48.736ZM453.874 43.36V49.12H469.874V43.36H453.874ZM453.874 49.12C453.874 50.0291 454.011 54.6448 458.552 56.9154L465.708 42.6046C467.717 43.6095 468.837 45.2425 469.366 46.5649C469.838 47.7453 469.874 48.7212 469.874 49.12H453.874ZM462.13 57.76C465.085 57.76 467.086 56.2462 468.043 55.2888C468.984 54.3479 469.524 53.3728 469.797 52.8257L455.487 45.6703C455.589 45.4645 455.959 44.7454 456.729 43.9751C457.516 43.1885 459.345 41.76 462.13 41.76V57.76ZM469.529 53.3178C471.163 50.5538 473.72 48.8 479.026 48.8V32.8C469.143 32.8 460.777 36.6781 455.755 45.1782L469.529 53.3178ZM479.026 48.8C482.084 48.8 484.418 49.4606 486.282 50.5394L494.298 36.6926C489.676 34.0168 484.502 32.8 479.026 32.8V48.8ZM486.282 50.5394C488.04 51.5575 489.436 53.0313 490.491 55.2475L504.937 48.3685C502.579 43.4167 499.025 39.4292 494.298 36.6926L486.282 50.5394ZM490.559 55.3857C490.813 55.8955 491.399 56.9762 492.5 57.9852C493.719 59.1025 496.158 60.5937 499.413 60.0511C502.278 59.5737 503.921 57.7919 504.537 57.0215C505.234 56.1497 505.632 55.3045 505.835 54.8313L491.129 48.5286C491.204 48.3542 491.474 47.7383 492.043 47.0265C492.531 46.4161 494.046 44.7249 496.783 44.2689C499.91 43.7476 502.221 45.1908 503.312 46.1908C504.285 47.0825 504.743 47.9765 504.869 48.2303L490.559 55.3857ZM505.671 55.1907C506.875 52.725 508.296 51.2805 509.809 50.3982L501.747 36.5778C497.116 39.2795 493.673 43.2963 491.293 48.1693L505.671 55.1907ZM509.727 50.4455C511.532 49.4208 513.766 48.8 516.658 48.8V32.8C511.358 32.8 506.338 33.9712 501.829 36.5305L509.727 50.4455ZM639.774 46.944L633.877 52.3498L639.774 46.944ZM644.894 107.616L650.551 113.273V113.273L644.894 107.616ZM624.67 107.616L618.27 112.416L618.956 113.33L619.87 114.016L624.67 107.616ZM621.982 61.792L615.652 66.6836L615.776 66.8442L615.908 66.9983L621.982 61.792ZM609.95 61.664L604.018 56.2967L603.946 56.3762L603.876 56.4577L609.95 61.664ZM607.134 107.616L612.791 113.273V113.273L607.134 107.616ZM586.782 107.616L580.382 112.416L581.068 113.33L581.982 114.016L586.782 107.616ZM583.966 61.792L577.774 66.8579L577.9 67.0118L578.034 67.1593L583.966 61.792ZM572.19 61.152L566.697 55.3359V55.3359L572.19 61.152ZM569.374 66.912L561.454 65.7806L561.374 66.3435V66.912H569.374ZM568.862 107.616L574.519 113.273V113.273L568.862 107.616ZM548.51 107.616L542.11 112.416L542.796 113.33L543.71 114.016L548.51 107.616ZM548.51 42.336L554.167 47.9929L554.167 47.9929L548.51 42.336ZM568.862 42.336L562.462 47.136L563.148 48.0503L564.062 48.736L568.862 42.336ZM569.63 49.76L566.052 56.9154L567.741 57.76H569.63V49.76ZM570.142 49.248L563.255 45.1782L563.112 45.4195L562.987 45.6703L570.142 49.248ZM597.79 43.616L593.782 50.5394H593.782L597.79 43.616ZM605.214 51.808L597.991 55.2475L598.024 55.3169L598.059 55.3857L605.214 51.808ZM605.982 51.68L598.793 48.1693L598.707 48.3469L598.629 48.5286L605.982 51.68ZM613.278 43.488L609.329 36.5305L609.288 36.5539L609.247 36.5778L613.278 43.488ZM624.158 48.8C629.053 48.8 631.935 50.2315 633.877 52.3498L645.671 41.5382C640.104 35.4645 632.575 32.8 624.158 32.8V48.8ZM633.877 52.3498C635.878 54.5328 637.406 58.1161 637.406 64.224H653.406C653.406 55.4839 651.179 47.5472 645.671 41.5382L633.877 52.3498ZM637.406 64.224V106.464H653.406V64.224H637.406ZM637.406 106.464C637.406 105.576 637.591 104.67 637.968 103.823C638.336 102.995 638.816 102.381 639.237 101.959L650.551 113.273C652.178 111.646 653.406 109.298 653.406 106.464H637.406ZM639.237 101.959C639.922 101.274 640.746 100.747 641.637 100.413C642.503 100.088 643.284 100 643.87 100V116C646.011 116 648.529 115.295 650.551 113.273L639.237 101.959ZM643.87 100H625.822V116H643.87V100ZM625.822 100C627.126 100 628.427 100.433 629.47 101.216L619.87 114.016C621.596 115.311 623.664 116 625.822 116V100ZM631.07 102.816C631.853 103.859 632.286 105.16 632.286 106.464H616.286C616.286 108.622 616.975 110.69 618.27 112.416L631.07 102.816ZM632.286 106.464V68.832H616.286V106.464H632.286ZM632.286 68.832C632.286 64.4756 631.102 60.139 628.056 56.5857L615.908 66.9983C615.934 67.029 616.286 67.3857 616.286 68.832H632.286ZM628.312 56.9004C625.272 52.9663 620.922 50.976 616.094 50.976V66.976C616.206 66.976 616.235 66.9865 616.198 66.9788C616.159 66.9704 616.076 66.9475 615.97 66.8971C615.864 66.8463 615.774 66.786 615.707 66.731C615.642 66.6777 615.627 66.6517 615.652 66.6836L628.312 56.9004ZM616.094 50.976C611.421 50.976 607.197 52.7831 604.018 56.2967L615.882 67.0313C615.947 66.9603 615.979 66.938 615.974 66.9416C615.967 66.9464 615.943 66.962 615.909 66.9773C615.874 66.9924 615.857 66.9945 615.873 66.9915C615.89 66.988 615.959 66.976 616.094 66.976V50.976ZM603.876 56.4577C600.795 60.0516 599.646 64.4569 599.646 68.832H615.646C615.646 68.0164 615.752 67.5179 615.838 67.2481C615.918 67.0012 615.992 66.9083 616.024 66.8703L603.876 56.4577ZM599.646 68.832V106.464H615.646V68.832H599.646ZM599.646 106.464C599.646 105.576 599.831 104.67 600.208 103.823C600.576 102.995 601.056 102.381 601.477 101.959L612.791 113.273C614.418 111.646 615.646 109.298 615.646 106.464H599.646ZM601.477 101.959C602.162 101.274 602.986 100.747 603.877 100.413C604.743 100.088 605.524 100 606.11 100V116C608.251 116 610.769 115.295 612.791 113.273L601.477 101.959ZM606.11 100H587.934V116H606.11V100ZM587.934 100C589.238 100 590.539 100.433 591.582 101.216L581.982 114.016C583.708 115.311 585.776 116 587.934 116V100ZM593.182 102.816C593.965 103.859 594.398 105.16 594.398 106.464H578.398C578.398 108.622 579.087 110.69 580.382 112.416L593.182 102.816ZM594.398 106.464V68.832H578.398V106.464H594.398ZM594.398 68.832C594.398 64.3665 593.107 59.9715 589.898 56.4247L578.034 67.1593C578.067 67.1965 578.398 67.4948 578.398 68.832H594.398ZM590.158 56.7261C587.067 52.9486 582.768 50.976 577.95 50.976V66.976C578.062 66.976 578.099 66.9864 578.077 66.982C578.054 66.977 577.995 66.9613 577.918 66.9255C577.842 66.8896 577.783 66.85 577.747 66.8216C577.713 66.7949 577.725 66.7976 577.774 66.8579L590.158 56.7261ZM577.95 50.976C573.805 50.976 569.859 52.35 566.697 55.3359L577.683 66.9681C577.702 66.9502 577.7 66.9553 577.677 66.9699C577.653 66.9848 577.628 66.9968 577.609 67.0038C577.591 67.0105 577.601 67.0047 577.648 66.9966C577.697 66.9882 577.794 66.976 577.95 66.976V50.976ZM566.697 55.3359C563.661 58.2029 562.013 61.8685 561.454 65.7806L577.294 68.0434C577.417 67.1769 577.647 67.0024 577.683 66.9681L566.697 55.3359ZM561.374 66.912V106.464H577.374V66.912H561.374ZM561.374 106.464C561.374 105.576 561.559 104.67 561.935 103.823C562.304 102.995 562.784 102.381 563.205 101.959L574.519 113.273C576.146 111.646 577.374 109.298 577.374 106.464H561.374ZM563.205 101.959C563.89 101.274 564.714 100.747 565.605 100.413C566.471 100.088 567.252 100 567.838 100V116C569.979 116 572.497 115.295 574.519 113.273L563.205 101.959ZM567.838 100H549.662V116H567.838V100ZM549.662 100C550.966 100 552.267 100.433 553.31 101.216L543.71 114.016C545.436 115.311 547.504 116 549.662 116V100ZM554.91 102.816C555.693 103.859 556.126 105.16 556.126 106.464H540.126C540.126 108.622 540.815 110.69 542.11 112.416L554.91 102.816ZM556.126 106.464V43.36H540.126V106.464H556.126ZM556.126 43.36C556.126 43.9456 556.038 44.7266 555.713 45.593C555.379 46.484 554.852 47.3076 554.167 47.9929L542.853 36.6791C540.831 38.701 540.126 41.2193 540.126 43.36H556.126ZM554.167 47.9929C553.745 48.4145 553.131 48.8944 552.303 49.2625C551.456 49.6389 550.55 49.824 549.662 49.824V33.824C546.828 33.824 544.48 35.0523 542.853 36.6791L554.167 47.9929ZM549.662 49.824H567.838V33.824H549.662V49.824ZM567.838 49.824C566.958 49.824 565.902 49.6402 564.836 49.1074C563.771 48.5746 562.99 47.8403 562.462 47.136L575.262 37.536C573.495 35.1802 570.783 33.824 567.838 33.824V49.824ZM564.062 48.736C563.358 48.2077 562.623 47.4272 562.091 46.3617C561.558 45.2962 561.374 44.2404 561.374 43.36H577.374C577.374 40.4153 576.018 37.7028 573.662 35.936L564.062 48.736ZM561.374 43.36V49.12H577.374V43.36H561.374ZM561.374 49.12C561.374 50.0291 561.511 54.6448 566.052 56.9154L573.208 42.6046C575.217 43.6095 576.337 45.2425 576.866 46.5649C577.338 47.7453 577.374 48.7212 577.374 49.12H561.374ZM569.63 57.76C572.585 57.76 574.586 56.2462 575.543 55.2888C576.484 54.3479 577.024 53.3728 577.297 52.8257L562.987 45.6703C563.089 45.4645 563.459 44.7454 564.229 43.9751C565.016 43.1885 566.845 41.76 569.63 41.76V57.76ZM577.029 53.3178C578.663 50.5538 581.22 48.8 586.526 48.8V32.8C576.643 32.8 568.277 36.6781 563.255 45.1782L577.029 53.3178ZM586.526 48.8C589.584 48.8 591.918 49.4606 593.782 50.5394L601.798 36.6926C597.176 34.0168 592.002 32.8 586.526 32.8V48.8ZM593.782 50.5394C595.54 51.5575 596.936 53.0313 597.991 55.2475L612.437 48.3685C610.079 43.4167 606.525 39.4292 601.798 36.6926L593.782 50.5394ZM598.059 55.3857C598.313 55.8955 598.899 56.9762 600 57.9852C601.219 59.1025 603.658 60.5937 606.913 60.0511C609.778 59.5737 611.421 57.7919 612.037 57.0215C612.734 56.1497 613.132 55.3045 613.335 54.8313L598.629 48.5286C598.704 48.3542 598.974 47.7383 599.543 47.0265C600.031 46.4161 601.546 44.7249 604.283 44.2689C607.41 43.7476 609.721 45.1908 610.812 46.1908C611.785 47.0825 612.243 47.9765 612.369 48.2303L598.059 55.3857ZM613.171 55.1907C614.375 52.725 615.796 51.2805 617.309 50.3982L609.247 36.5778C604.616 39.2795 601.173 43.2963 598.793 48.1693L613.171 55.1907ZM617.227 50.4455C619.032 49.4208 621.266 48.8 624.158 48.8V32.8C618.858 32.8 613.838 33.9712 609.329 36.5305L617.227 50.4455ZM666.253 102.88L661.405 109.243L666.253 102.88ZM655.501 86.24L663.251 84.2553L663.217 84.1234L663.179 83.9928L655.501 86.24ZM655.629 62.304L663.271 64.6695L663.291 64.605L663.31 64.5403L655.629 62.304ZM666.509 46.56L671.139 53.0841L671.149 53.077L671.159 53.0699L666.509 46.56ZM705.037 46.56L700.288 52.9978L700.322 53.0232L700.357 53.0482L705.037 46.56ZM715.917 62.176L708.271 64.5287L708.274 64.5406L708.278 64.5525L715.917 62.176ZM716.301 85.728L708.562 83.7011L708.551 83.7444L708.54 83.7877L716.301 85.728ZM705.549 102.752L710.461 109.067L705.549 102.752ZM691.981 88.544L697.483 94.3516L697.561 94.2773L697.638 94.2009L691.981 88.544ZM695.565 82.016L703.266 84.182L703.318 83.9995L703.36 83.8149L695.565 82.016ZM695.437 67.296L703.198 65.3557L703.191 65.3263L703.183 65.297L695.437 67.296ZM691.981 61.152L697.315 55.1901V55.1901L691.981 61.152ZM676.109 67.296L668.399 65.161L668.372 65.258L668.348 65.3557L676.109 67.296ZM676.109 82.016L668.314 83.8149L668.33 83.8857L668.348 83.9563L676.109 82.016ZM679.565 88.544L673.908 94.2009L674.057 94.3496L674.213 94.4903L679.565 88.544ZM685.837 101.024C679.659 101.024 674.897 99.4087 671.101 96.5165L661.405 109.243C668.361 114.543 676.655 117.024 685.837 117.024V101.024ZM671.101 96.5165C667.26 93.5897 664.629 89.6365 663.251 84.2553L647.751 88.2247C649.957 96.8382 654.494 103.978 661.405 109.243L671.101 96.5165ZM663.179 83.9928C662.397 81.3221 661.965 78.2501 661.965 74.72H645.965C645.965 79.5525 646.557 84.1606 647.823 88.4872L663.179 83.9928ZM661.965 74.72C661.965 70.6366 662.45 67.3233 663.271 64.6695L647.987 59.9385C646.589 64.4527 645.965 69.4167 645.965 74.72H661.965ZM663.31 64.5403C664.813 59.3792 667.444 55.7063 671.139 53.0841L661.879 40.0359C654.993 44.923 650.371 51.7461 647.948 60.0677L663.31 64.5403ZM671.159 53.0699C674.982 50.3391 679.779 48.8 685.965 48.8V32.8C676.961 32.8 668.788 35.1009 661.859 40.0501L671.159 53.0699ZM685.965 48.8C692.05 48.8 696.671 50.3297 700.288 52.9978L709.786 40.1222C702.992 35.1103 694.898 32.8 685.965 32.8V48.8ZM700.357 53.0482C704.027 55.6958 706.689 59.3872 708.271 64.5287L723.563 59.8233C721.049 51.6528 716.457 44.9335 709.717 40.0718L700.357 53.0482ZM708.278 64.5525C709.215 67.5625 709.709 70.8519 709.709 74.464H725.709C725.709 69.3721 725.009 64.4695 723.556 59.7995L708.278 64.5525ZM709.709 74.464C709.709 77.7459 709.317 80.817 708.562 83.7011L724.04 87.7549C725.162 83.471 725.709 79.0327 725.709 74.464H709.709ZM708.54 83.7877C707.143 89.3768 704.479 93.4497 700.637 96.4372L710.461 109.067C717.371 103.692 721.875 96.4152 724.062 87.6683L708.54 83.7877ZM700.637 96.4372C696.859 99.3759 692.085 101.024 685.837 101.024V117.024C695.12 117.024 703.487 114.491 710.461 109.067L700.637 96.4372ZM685.837 98.848C690.118 98.848 694.21 97.4525 697.483 94.3516L686.479 82.7364C686.461 82.7534 686.448 82.7637 686.441 82.7692C686.435 82.7746 686.431 82.7767 686.431 82.7769C686.431 82.777 686.431 82.7769 686.431 82.7769C686.431 82.7769 686.428 82.7785 686.42 82.7814C686.404 82.7873 686.24 82.848 685.837 82.848V98.848ZM697.638 94.2009C700.433 91.4058 702.214 87.9228 703.266 84.182L687.864 79.85C687.38 81.5706 686.772 82.4395 686.324 82.8871L697.638 94.2009ZM703.36 83.8149C704.028 80.9205 704.333 77.8759 704.333 74.72H688.333C688.333 76.8548 688.126 78.6742 687.77 80.2171L703.36 83.8149ZM704.333 74.72C704.333 71.5317 703.96 68.4042 703.198 65.3557L687.676 69.2363C688.108 70.9665 688.333 72.7883 688.333 74.72H704.333ZM703.183 65.297C702.207 61.5129 700.383 57.9352 697.315 55.1901L686.647 67.1139C686.821 67.2702 687.302 67.7884 687.691 69.295L703.183 65.297ZM697.315 55.1901C694.025 52.2459 689.99 50.976 685.837 50.976V66.976C686.289 66.976 686.502 67.0412 686.558 67.061C686.599 67.0753 686.611 67.0824 686.647 67.1139L697.315 55.1901ZM685.837 50.976C681.778 50.976 677.791 52.1558 674.493 54.9763C671.305 57.7028 669.447 61.3756 668.399 65.161L683.819 69.431C684.307 67.6697 684.838 67.1825 684.893 67.1357C684.918 67.114 684.939 67.0978 685.01 67.0735C685.098 67.0438 685.348 66.976 685.837 66.976V50.976ZM668.348 65.3557C667.631 68.2247 667.341 71.3896 667.341 74.72H683.341C683.341 72.2478 683.563 70.4633 683.87 69.2363L668.348 65.3557ZM667.341 74.72C667.341 77.8759 667.646 80.9204 668.314 83.8149L683.904 80.2171C683.548 78.6742 683.341 76.8548 683.341 74.72H667.341ZM668.348 83.9563C669.302 87.7744 671.051 91.3442 673.908 94.2009L685.222 82.8871C684.836 82.5012 684.281 81.719 683.87 80.0757L668.348 83.9563ZM674.213 94.4903C677.509 97.4562 681.553 98.848 685.837 98.848V82.848C685.172 82.848 685.035 82.7038 684.917 82.5976L674.213 94.4903ZM780.508 47.2L774.851 52.8568L774.88 52.8854L774.909 52.9137L780.508 47.2ZM786.396 107.616L792.053 113.273V113.273L786.396 107.616ZM766.044 107.616L759.644 112.416L760.33 113.33L761.244 114.016L766.044 107.616ZM763.228 61.792L757.173 67.021L763.228 61.792ZM750.556 61.792L756.488 67.1593L756.55 67.0908L756.611 67.021L750.556 61.792ZM747.612 107.616L753.269 113.273V113.273L747.612 107.616ZM727.26 107.616L720.86 112.416L721.546 113.33L722.46 114.016L727.26 107.616ZM727.26 42.336L732.917 47.9929L732.917 47.9929L727.26 42.336ZM747.612 42.336L741.212 47.136L741.898 48.0503L742.812 48.736L747.612 42.336ZM748.252 48.736L742.595 54.3929L744.938 56.736H748.252V48.736ZM748.764 48.352L755.42 52.7896L755.456 52.737L755.49 52.6838L748.764 48.352ZM764.124 48.8C768.898 48.8 772.246 50.2521 774.851 52.8568L786.165 41.5431C780.236 35.6145 772.662 32.8 764.124 32.8V48.8ZM774.909 52.9137C777.321 55.2774 778.908 58.7559 778.908 64.352H794.908C794.908 55.4414 792.229 47.4852 786.107 41.4863L774.909 52.9137ZM778.908 64.352V106.464H794.908V64.352H778.908ZM778.908 106.464C778.908 105.576 779.093 104.67 779.47 103.823C779.838 102.995 780.318 102.381 780.739 101.959L792.053 113.273C793.68 111.646 794.908 109.298 794.908 106.464H778.908ZM780.739 101.959C781.424 101.274 782.248 100.747 783.139 100.413C784.005 100.088 784.786 100 785.372 100V116C787.513 116 790.031 115.295 792.053 113.273L780.739 101.959ZM785.372 100H767.196V116H785.372V100ZM767.196 100C768.5 100 769.801 100.433 770.844 101.216L761.244 114.016C762.97 115.311 765.038 116 767.196 116V100ZM772.444 102.816C773.227 103.859 773.66 105.16 773.66 106.464H757.66C757.66 108.622 758.349 110.69 759.644 112.416L772.444 102.816ZM773.66 106.464V68.96H757.66V106.464H773.66ZM773.66 68.96C773.66 64.4826 772.367 60.1341 769.283 56.563L757.173 67.021C757.332 67.2046 757.66 67.6348 757.66 68.96H773.66ZM769.283 56.563C766.087 52.8626 761.756 50.976 756.956 50.976V66.976C757.106 66.976 757.184 66.9896 757.205 66.9939C757.224 66.9976 757.206 66.9956 757.167 66.9782C757.128 66.9605 757.1 66.9417 757.089 66.9335C757.08 66.9266 757.11 66.9475 757.173 67.021L769.283 56.563ZM756.956 50.976C752.161 50.976 747.753 52.7976 744.501 56.563L756.611 67.021C756.662 66.9612 756.683 66.9488 756.668 66.96C756.652 66.9723 756.624 66.9893 756.594 67.0025C756.565 67.0153 756.565 67.0109 756.61 67.002C756.658 66.9926 756.768 66.976 756.956 66.976V50.976ZM744.624 56.4247C741.377 60.0137 740.124 64.4784 740.124 68.96H756.124C756.124 68.1845 756.23 67.729 756.308 67.4984C756.378 67.2919 756.443 67.2094 756.488 67.1593L744.624 56.4247ZM740.124 68.96V106.464H756.124V68.96H740.124ZM740.124 106.464C740.124 105.576 740.309 104.67 740.685 103.823C741.054 102.995 741.534 102.381 741.955 101.959L753.269 113.273C754.896 111.646 756.124 109.298 756.124 106.464H740.124ZM741.955 101.959C742.64 101.274 743.464 100.747 744.355 100.413C745.221 100.088 746.002 100 746.588 100V116C748.729 116 751.247 115.295 753.269 113.273L741.955 101.959ZM746.588 100H728.412V116H746.588V100ZM728.412 100C729.716 100 731.017 100.433 732.06 101.216L722.46 114.016C724.186 115.311 726.254 116 728.412 116V100ZM733.66 102.816C734.443 103.859 734.876 105.16 734.876 106.464H718.876C718.876 108.622 719.565 110.69 720.86 112.416L733.66 102.816ZM734.876 106.464V43.36H718.876V106.464H734.876ZM734.876 43.36C734.876 43.9456 734.788 44.7266 734.463 45.593C734.129 46.484 733.602 47.3076 732.917 47.9929L721.603 36.6791C719.581 38.701 718.876 41.2193 718.876 43.36H734.876ZM732.917 47.9929C732.495 48.4145 731.881 48.8944 731.053 49.2625C730.206 49.6389 729.3 49.824 728.412 49.824V33.824C725.578 33.824 723.23 35.0523 721.603 36.6791L732.917 47.9929ZM728.412 49.824H746.588V33.824H728.412V49.824ZM746.588 49.824C745.708 49.824 744.652 49.6402 743.586 49.1074C742.521 48.5746 741.74 47.8403 741.212 47.136L754.012 37.536C752.245 35.1802 749.533 33.824 746.588 33.824V49.824ZM742.812 48.736C742.108 48.2077 741.373 47.4272 740.841 46.3617C740.308 45.2962 740.124 44.2404 740.124 43.36H756.124C756.124 40.4153 754.768 37.7028 752.412 35.936L742.812 48.736ZM740.124 43.36V48.096H756.124V43.36H740.124ZM740.124 48.096C740.124 48.5325 740.146 49.2528 740.311 50.0809C740.427 50.6572 740.852 52.6499 742.595 54.3929L753.909 43.0791C754.809 43.9796 755.295 44.9031 755.549 45.4966C755.81 46.1063 755.937 46.6235 756.001 46.9431C756.124 47.5579 756.124 48.0009 756.124 48.096H740.124ZM748.252 56.736C752.67 56.736 754.928 53.5288 755.42 52.7896L742.108 43.9144C742.322 43.5922 742.824 42.9032 743.708 42.24C744.656 41.529 746.213 40.736 748.252 40.736V56.736ZM755.49 52.6838C756.992 50.3512 759.312 48.8 764.124 48.8V32.8C754.941 32.8 747.021 36.2834 742.038 44.0202L755.49 52.6838Z" fill="#1B1E2B" mask="url(#path-1-outside-1_123_63882)"/>
<defs>
<linearGradient id="paint0_linear_123_63882" x1="402.5" y1="29" x2="402.5" y2="134" gradientUnits="userSpaceOnUse">
<stop stop-color="#DFCCA7"/>
<stop offset="1" stop-color="#9F723D"/>
</linearGradient>
</defs>
</svg>
