<svg width="100%" height="100%" viewBox="0 0 81 250" fill="none" xmlns="http://www.w3.org/2000/svg">
<g clip-path="url(#clip0_16_66732)">
<mask id="mask0_16_66732" style="mask-type:luminance" maskUnits="userSpaceOnUse" x="0" y="0" width="81" height="250">
<path d="M0 250H81L81 0H0L0 250Z" fill="white"/>
</mask>
<g mask="url(#mask0_16_66732)">
<mask id="mask1_16_66732" style="mask-type:alpha" maskUnits="userSpaceOnUse" x="12" y="9" width="57" height="243">
<path d="M40.6 9L68.6592 252H12.5408L40.6 9Z" fill="#DA621E"/>
</mask>
<g mask="url(#mask1_16_66732)">
<mask id="mask2_16_66732" style="mask-type:luminance" maskUnits="userSpaceOnUse" x="-29" y="0" width="219" height="335">
<path d="M-29 335H190L190 0H-29L-29 335Z" fill="white"/>
</mask>
<g mask="url(#mask2_16_66732)">
<path d="M-29 335H190L190 0H-29L-29 335Z" fill="#885525"/>
<path d="M68 247C66.8954 247 66 247.895 66 249C66 250.105 66.8954 251 68 251C69.1046 251 70 250.105 70 249C70 247.895 69.1046 247 68 247Z" fill="#997345"/>
<path d="M60 247C58.8954 247 58 247.895 58 249C58 250.105 58.8954 251 60 251C61.1046 251 62 250.105 62 249C62 247.895 61.1046 247 60 247Z" fill="#997345"/>
<path d="M52 247C50.8954 247 50 247.895 50 249C50 250.105 50.8954 251 52 251C53.1046 251 54 250.105 54 249C54 247.895 53.1046 247 52 247Z" fill="#997345"/>
<path d="M44 247C42.8954 247 42 247.895 42 249C42 250.105 42.8954 251 44 251C45.1046 251 46 250.105 46 249C46 247.895 45.1046 247 44 247Z" fill="#997345"/>
<path d="M36 247C34.8954 247 34 247.895 34 249C34 250.105 34.8954 251 36 251C37.1046 251 38 250.105 38 249C38 247.895 37.1046 247 36 247Z" fill="#997345"/>
<path d="M28 247C26.8954 247 26 247.895 26 249C26 250.105 26.8954 251 28 251C29.1046 251 30 250.105 30 249C30 247.895 29.1046 247 28 247Z" fill="#997345"/>
<path d="M20 247C18.8954 247 18 247.895 18 249C18 250.105 18.8954 251 20 251C21.1046 251 22 250.105 22 249C22 247.895 21.1046 247 20 247Z" fill="#997345"/>
<path d="M12 247C10.8954 247 10 247.895 10 249C10 250.105 10.8954 251 12 251C13.1046 251 14 250.105 14 249C14 247.895 13.1046 247 12 247Z" fill="#997345"/>
<path d="M64 241C62.8954 241 62 241.895 62 243C62 244.105 62.8954 245 64 245C65.1046 245 66 244.105 66 243C66 241.895 65.1046 241 64 241Z" fill="#997345"/>
<path d="M56 241C54.8954 241 54 241.895 54 243C54 244.105 54.8954 245 56 245C57.1046 245 58 244.105 58 243C58 241.895 57.1046 241 56 241Z" fill="#997345"/>
<path d="M48 241C46.8954 241 46 241.895 46 243C46 244.105 46.8954 245 48 245C49.1046 245 50 244.105 50 243C50 241.895 49.1046 241 48 241Z" fill="#997345"/>
<path d="M40 241C38.8954 241 38 241.895 38 243C38 244.105 38.8954 245 40 245C41.1046 245 42 244.105 42 243C42 241.895 41.1046 241 40 241Z" fill="#997345"/>
<path d="M32 241C30.8954 241 30 241.895 30 243C30 244.105 30.8954 245 32 245C33.1046 245 34 244.105 34 243C34 241.895 33.1046 241 32 241Z" fill="#997345"/>
<path d="M24 241C22.8954 241 22 241.895 22 243C22 244.105 22.8954 245 24 245C25.1046 245 26 244.105 26 243C26 241.895 25.1046 241 24 241Z" fill="#997345"/>
<path d="M16 241C14.8954 241 14 241.895 14 243C14 244.105 14.8954 245 16 245C17.1046 245 18 244.105 18 243C18 241.895 17.1046 241 16 241Z" fill="#997345"/>
<path d="M68 235C66.8954 235 66 235.895 66 237C66 238.105 66.8954 239 68 239C69.1046 239 70 238.105 70 237C70 235.895 69.1046 235 68 235Z" fill="#997345"/>
<path d="M60 235C58.8954 235 58 235.895 58 237C58 238.105 58.8954 239 60 239C61.1046 239 62 238.105 62 237C62 235.895 61.1046 235 60 235Z" fill="#997345"/>
<path d="M52 235C50.8954 235 50 235.895 50 237C50 238.105 50.8954 239 52 239C53.1046 239 54 238.105 54 237C54 235.895 53.1046 235 52 235Z" fill="#997345"/>
<path d="M44 235C42.8954 235 42 235.895 42 237C42 238.105 42.8954 239 44 239C45.1046 239 46 238.105 46 237C46 235.895 45.1046 235 44 235Z" fill="#997345"/>
<path d="M36 235C34.8954 235 34 235.895 34 237C34 238.105 34.8954 239 36 239C37.1046 239 38 238.105 38 237C38 235.895 37.1046 235 36 235Z" fill="#997345"/>
<path d="M28 235C26.8954 235 26 235.895 26 237C26 238.105 26.8954 239 28 239C29.1046 239 30 238.105 30 237C30 235.895 29.1046 235 28 235Z" fill="#997345"/>
<path d="M20 235C18.8954 235 18 235.895 18 237C18 238.105 18.8954 239 20 239C21.1046 239 22 238.105 22 237C22 235.895 21.1046 235 20 235Z" fill="#997345"/>
<path d="M12 235C10.8954 235 10 235.895 10 237C10 238.105 10.8954 239 12 239C13.1046 239 14 238.105 14 237C14 235.895 13.1046 235 12 235Z" fill="#997345"/>
<path d="M64 229C62.8954 229 62 229.895 62 231C62 232.105 62.8954 233 64 233C65.1046 233 66 232.105 66 231C66 229.895 65.1046 229 64 229Z" fill="#997345"/>
<path d="M56 229C54.8954 229 54 229.895 54 231C54 232.105 54.8954 233 56 233C57.1046 233 58 232.105 58 231C58 229.895 57.1046 229 56 229Z" fill="#997345"/>
<path d="M48 229C46.8954 229 46 229.895 46 231C46 232.105 46.8954 233 48 233C49.1046 233 50 232.105 50 231C50 229.895 49.1046 229 48 229Z" fill="#997345"/>
<path d="M40 229C38.8954 229 38 229.895 38 231C38 232.105 38.8954 233 40 233C41.1046 233 42 232.105 42 231C42 229.895 41.1046 229 40 229Z" fill="#997345"/>
<path d="M32 229C30.8954 229 30 229.895 30 231C30 232.105 30.8954 233 32 233C33.1046 233 34 232.105 34 231C34 229.895 33.1046 229 32 229Z" fill="#997345"/>
<path d="M24 229C22.8954 229 22 229.895 22 231C22 232.105 22.8954 233 24 233C25.1046 233 26 232.105 26 231C26 229.895 25.1046 229 24 229Z" fill="#997345"/>
<path d="M16 229C14.8954 229 14 229.895 14 231C14 232.105 14.8954 233 16 233C17.1046 233 18 232.105 18 231C18 229.895 17.1046 229 16 229Z" fill="#997345"/>
<path d="M68 223C66.8954 223 66 223.895 66 225C66 226.105 66.8954 227 68 227C69.1046 227 70 226.105 70 225C70 223.895 69.1046 223 68 223Z" fill="#997345"/>
<path d="M60 223C58.8954 223 58 223.895 58 225C58 226.105 58.8954 227 60 227C61.1046 227 62 226.105 62 225C62 223.895 61.1046 223 60 223Z" fill="#997345"/>
<path d="M52 223C50.8954 223 50 223.895 50 225C50 226.105 50.8954 227 52 227C53.1046 227 54 226.105 54 225C54 223.895 53.1046 223 52 223Z" fill="#997345"/>
<path d="M44 223C42.8954 223 42 223.895 42 225C42 226.105 42.8954 227 44 227C45.1046 227 46 226.105 46 225C46 223.895 45.1046 223 44 223Z" fill="#997345"/>
<path d="M36 223C34.8954 223 34 223.895 34 225C34 226.105 34.8954 227 36 227C37.1046 227 38 226.105 38 225C38 223.895 37.1046 223 36 223Z" fill="#997345"/>
<path d="M28 223C26.8954 223 26 223.895 26 225C26 226.105 26.8954 227 28 227C29.1046 227 30 226.105 30 225C30 223.895 29.1046 223 28 223Z" fill="#997345"/>
<path d="M20 223C18.8954 223 18 223.895 18 225C18 226.105 18.8954 227 20 227C21.1046 227 22 226.105 22 225C22 223.895 21.1046 223 20 223Z" fill="#997345"/>
<path d="M12 223C10.8954 223 10 223.895 10 225C10 226.105 10.8954 227 12 227C13.1046 227 14 226.105 14 225C14 223.895 13.1046 223 12 223Z" fill="#997345"/>
<path d="M64 217C62.8954 217 62 217.895 62 219C62 220.105 62.8954 221 64 221C65.1046 221 66 220.105 66 219C66 217.895 65.1046 217 64 217Z" fill="#997345"/>
<path d="M56 217C54.8954 217 54 217.895 54 219C54 220.105 54.8954 221 56 221C57.1046 221 58 220.105 58 219C58 217.895 57.1046 217 56 217Z" fill="#997345"/>
<path d="M48 217C46.8954 217 46 217.895 46 219C46 220.105 46.8954 221 48 221C49.1046 221 50 220.105 50 219C50 217.895 49.1046 217 48 217Z" fill="#997345"/>
<path d="M40 217C38.8954 217 38 217.895 38 219C38 220.105 38.8954 221 40 221C41.1046 221 42 220.105 42 219C42 217.895 41.1046 217 40 217Z" fill="#997345"/>
<path d="M32 217C30.8954 217 30 217.895 30 219C30 220.105 30.8954 221 32 221C33.1046 221 34 220.105 34 219C34 217.895 33.1046 217 32 217Z" fill="#997345"/>
<path d="M24 217C22.8954 217 22 217.895 22 219C22 220.105 22.8954 221 24 221C25.1046 221 26 220.105 26 219C26 217.895 25.1046 217 24 217Z" fill="#997345"/>
<path d="M16 217C14.8954 217 14 217.895 14 219C14 220.105 14.8954 221 16 221C17.1046 221 18 220.105 18 219C18 217.895 17.1046 217 16 217Z" fill="#997345"/>
<path d="M68 211C66.8954 211 66 211.895 66 213C66 214.105 66.8954 215 68 215C69.1046 215 70 214.105 70 213C70 211.895 69.1046 211 68 211Z" fill="#997345"/>
<path d="M60 211C58.8954 211 58 211.895 58 213C58 214.105 58.8954 215 60 215C61.1046 215 62 214.105 62 213C62 211.895 61.1046 211 60 211Z" fill="#997345"/>
<path d="M52 211C50.8954 211 50 211.895 50 213C50 214.105 50.8954 215 52 215C53.1046 215 54 214.105 54 213C54 211.895 53.1046 211 52 211Z" fill="#997345"/>
<path d="M44 211C42.8954 211 42 211.895 42 213C42 214.105 42.8954 215 44 215C45.1046 215 46 214.105 46 213C46 211.895 45.1046 211 44 211Z" fill="#997345"/>
<path d="M36 211C34.8954 211 34 211.895 34 213C34 214.105 34.8954 215 36 215C37.1046 215 38 214.105 38 213C38 211.895 37.1046 211 36 211Z" fill="#997345"/>
<path d="M28 211C26.8954 211 26 211.895 26 213C26 214.105 26.8954 215 28 215C29.1046 215 30 214.105 30 213C30 211.895 29.1046 211 28 211Z" fill="#997345"/>
<path d="M20 211C18.8954 211 18 211.895 18 213C18 214.105 18.8954 215 20 215C21.1046 215 22 214.105 22 213C22 211.895 21.1046 211 20 211Z" fill="#997345"/>
<path d="M12 211C10.8954 211 10 211.895 10 213C10 214.105 10.8954 215 12 215C13.1046 215 14 214.105 14 213C14 211.895 13.1046 211 12 211Z" fill="#997345"/>
<path d="M64 205C62.8954 205 62 205.895 62 207C62 208.105 62.8954 209 64 209C65.1046 209 66 208.105 66 207C66 205.895 65.1046 205 64 205Z" fill="#997345"/>
<path d="M56 205C54.8954 205 54 205.895 54 207C54 208.105 54.8954 209 56 209C57.1046 209 58 208.105 58 207C58 205.895 57.1046 205 56 205Z" fill="#997345"/>
<path d="M48 205C46.8954 205 46 205.895 46 207C46 208.105 46.8954 209 48 209C49.1046 209 50 208.105 50 207C50 205.895 49.1046 205 48 205Z" fill="#997345"/>
<path d="M40 205C38.8954 205 38 205.895 38 207C38 208.105 38.8954 209 40 209C41.1046 209 42 208.105 42 207C42 205.895 41.1046 205 40 205Z" fill="#997345"/>
<path d="M32 205C30.8954 205 30 205.895 30 207C30 208.105 30.8954 209 32 209C33.1046 209 34 208.105 34 207C34 205.895 33.1046 205 32 205Z" fill="#997345"/>
<path d="M24 205C22.8954 205 22 205.895 22 207C22 208.105 22.8954 209 24 209C25.1046 209 26 208.105 26 207C26 205.895 25.1046 205 24 205Z" fill="#997345"/>
<path d="M16 205C14.8954 205 14 205.895 14 207C14 208.105 14.8954 209 16 209C17.1046 209 18 208.105 18 207C18 205.895 17.1046 205 16 205Z" fill="#997345"/>
<path d="M68 199C66.8954 199 66 199.895 66 201C66 202.105 66.8954 203 68 203C69.1046 203 70 202.105 70 201C70 199.895 69.1046 199 68 199Z" fill="#997345"/>
<path d="M60 199C58.8954 199 58 199.895 58 201C58 202.105 58.8954 203 60 203C61.1046 203 62 202.105 62 201C62 199.895 61.1046 199 60 199Z" fill="#997345"/>
<path d="M52 199C50.8954 199 50 199.895 50 201C50 202.105 50.8954 203 52 203C53.1046 203 54 202.105 54 201C54 199.895 53.1046 199 52 199Z" fill="#997345"/>
<path d="M44 199C42.8954 199 42 199.895 42 201C42 202.105 42.8954 203 44 203C45.1046 203 46 202.105 46 201C46 199.895 45.1046 199 44 199Z" fill="#997345"/>
<path d="M36 199C34.8954 199 34 199.895 34 201C34 202.105 34.8954 203 36 203C37.1046 203 38 202.105 38 201C38 199.895 37.1046 199 36 199Z" fill="#997345"/>
<path d="M28 199C26.8954 199 26 199.895 26 201C26 202.105 26.8954 203 28 203C29.1046 203 30 202.105 30 201C30 199.895 29.1046 199 28 199Z" fill="#997345"/>
<path d="M20 199C18.8954 199 18 199.895 18 201C18 202.105 18.8954 203 20 203C21.1046 203 22 202.105 22 201C22 199.895 21.1046 199 20 199Z" fill="#997345"/>
<path d="M12 199C10.8954 199 10 199.895 10 201C10 202.105 10.8954 203 12 203C13.1046 203 14 202.105 14 201C14 199.895 13.1046 199 12 199Z" fill="#997345"/>
<path d="M64 193C62.8954 193 62 193.895 62 195C62 196.105 62.8954 197 64 197C65.1046 197 66 196.105 66 195C66 193.895 65.1046 193 64 193Z" fill="#997345"/>
<path d="M56 193C54.8954 193 54 193.895 54 195C54 196.105 54.8954 197 56 197C57.1046 197 58 196.105 58 195C58 193.895 57.1046 193 56 193Z" fill="#997345"/>
<path d="M48 193C46.8954 193 46 193.895 46 195C46 196.105 46.8954 197 48 197C49.1046 197 50 196.105 50 195C50 193.895 49.1046 193 48 193Z" fill="#997345"/>
<path d="M40 193C38.8954 193 38 193.895 38 195C38 196.105 38.8954 197 40 197C41.1046 197 42 196.105 42 195C42 193.895 41.1046 193 40 193Z" fill="#997345"/>
<path d="M32 193C30.8954 193 30 193.895 30 195C30 196.105 30.8954 197 32 197C33.1046 197 34 196.105 34 195C34 193.895 33.1046 193 32 193Z" fill="#997345"/>
<path d="M24 193C22.8954 193 22 193.895 22 195C22 196.105 22.8954 197 24 197C25.1046 197 26 196.105 26 195C26 193.895 25.1046 193 24 193Z" fill="#997345"/>
<path d="M16 193C14.8954 193 14 193.895 14 195C14 196.105 14.8954 197 16 197C17.1046 197 18 196.105 18 195C18 193.895 17.1046 193 16 193Z" fill="#997345"/>
<path d="M68 187C66.8954 187 66 187.895 66 189C66 190.105 66.8954 191 68 191C69.1046 191 70 190.105 70 189C70 187.895 69.1046 187 68 187Z" fill="#997345"/>
<path d="M60 187C58.8954 187 58 187.895 58 189C58 190.105 58.8954 191 60 191C61.1046 191 62 190.105 62 189C62 187.895 61.1046 187 60 187Z" fill="#997345"/>
<path d="M52 187C50.8954 187 50 187.895 50 189C50 190.105 50.8954 191 52 191C53.1046 191 54 190.105 54 189C54 187.895 53.1046 187 52 187Z" fill="#997345"/>
<path d="M44 187C42.8954 187 42 187.895 42 189C42 190.105 42.8954 191 44 191C45.1046 191 46 190.105 46 189C46 187.895 45.1046 187 44 187Z" fill="#997345"/>
<path d="M36 187C34.8954 187 34 187.895 34 189C34 190.105 34.8954 191 36 191C37.1046 191 38 190.105 38 189C38 187.895 37.1046 187 36 187Z" fill="#997345"/>
<path d="M28 187C26.8954 187 26 187.895 26 189C26 190.105 26.8954 191 28 191C29.1046 191 30 190.105 30 189C30 187.895 29.1046 187 28 187Z" fill="#997345"/>
<path d="M20 187C18.8954 187 18 187.895 18 189C18 190.105 18.8954 191 20 191C21.1046 191 22 190.105 22 189C22 187.895 21.1046 187 20 187Z" fill="#997345"/>
<path d="M12 187C10.8954 187 10 187.895 10 189C10 190.105 10.8954 191 12 191C13.1046 191 14 190.105 14 189C14 187.895 13.1046 187 12 187Z" fill="#997345"/>
<path d="M64 181C62.8954 181 62 181.895 62 183C62 184.105 62.8954 185 64 185C65.1046 185 66 184.105 66 183C66 181.895 65.1046 181 64 181Z" fill="#997345"/>
<path d="M56 181C54.8954 181 54 181.895 54 183C54 184.105 54.8954 185 56 185C57.1046 185 58 184.105 58 183C58 181.895 57.1046 181 56 181Z" fill="#997345"/>
<path d="M48 181C46.8954 181 46 181.895 46 183C46 184.105 46.8954 185 48 185C49.1046 185 50 184.105 50 183C50 181.895 49.1046 181 48 181Z" fill="#997345"/>
<path d="M40 181C38.8954 181 38 181.895 38 183C38 184.105 38.8954 185 40 185C41.1046 185 42 184.105 42 183C42 181.895 41.1046 181 40 181Z" fill="#997345"/>
<path d="M32 181C30.8954 181 30 181.895 30 183C30 184.105 30.8954 185 32 185C33.1046 185 34 184.105 34 183C34 181.895 33.1046 181 32 181Z" fill="#997345"/>
<path d="M24 181C22.8954 181 22 181.895 22 183C22 184.105 22.8954 185 24 185C25.1046 185 26 184.105 26 183C26 181.895 25.1046 181 24 181Z" fill="#997345"/>
<path d="M16 181C14.8954 181 14 181.895 14 183C14 184.105 14.8954 185 16 185C17.1046 185 18 184.105 18 183C18 181.895 17.1046 181 16 181Z" fill="#997345"/>
<path d="M68 175C66.8954 175 66 175.895 66 177C66 178.105 66.8954 179 68 179C69.1046 179 70 178.105 70 177C70 175.895 69.1046 175 68 175Z" fill="#997345"/>
<path d="M60 175C58.8954 175 58 175.895 58 177C58 178.105 58.8954 179 60 179C61.1046 179 62 178.105 62 177C62 175.895 61.1046 175 60 175Z" fill="#997345"/>
<path d="M52 175C50.8954 175 50 175.895 50 177C50 178.105 50.8954 179 52 179C53.1046 179 54 178.105 54 177C54 175.895 53.1046 175 52 175Z" fill="#997345"/>
<path d="M44 175C42.8954 175 42 175.895 42 177C42 178.105 42.8954 179 44 179C45.1046 179 46 178.105 46 177C46 175.895 45.1046 175 44 175Z" fill="#997345"/>
<path d="M36 175C34.8954 175 34 175.895 34 177C34 178.105 34.8954 179 36 179C37.1046 179 38 178.105 38 177C38 175.895 37.1046 175 36 175Z" fill="#997345"/>
<path d="M28 175C26.8954 175 26 175.895 26 177C26 178.105 26.8954 179 28 179C29.1046 179 30 178.105 30 177C30 175.895 29.1046 175 28 175Z" fill="#997345"/>
<path d="M20 175C18.8954 175 18 175.895 18 177C18 178.105 18.8954 179 20 179C21.1046 179 22 178.105 22 177C22 175.895 21.1046 175 20 175Z" fill="#997345"/>
<path d="M12 175C10.8954 175 10 175.895 10 177C10 178.105 10.8954 179 12 179C13.1046 179 14 178.105 14 177C14 175.895 13.1046 175 12 175Z" fill="#997345"/>
<path d="M64 169C62.8954 169 62 169.895 62 171C62 172.105 62.8954 173 64 173C65.1046 173 66 172.105 66 171C66 169.895 65.1046 169 64 169Z" fill="#997345"/>
<path d="M56 169C54.8954 169 54 169.895 54 171C54 172.105 54.8954 173 56 173C57.1046 173 58 172.105 58 171C58 169.895 57.1046 169 56 169Z" fill="#997345"/>
<path d="M48 169C46.8954 169 46 169.895 46 171C46 172.105 46.8954 173 48 173C49.1046 173 50 172.105 50 171C50 169.895 49.1046 169 48 169Z" fill="#997345"/>
<path d="M40 169C38.8954 169 38 169.895 38 171C38 172.105 38.8954 173 40 173C41.1046 173 42 172.105 42 171C42 169.895 41.1046 169 40 169Z" fill="#997345"/>
<path d="M32 169C30.8954 169 30 169.895 30 171C30 172.105 30.8954 173 32 173C33.1046 173 34 172.105 34 171C34 169.895 33.1046 169 32 169Z" fill="#997345"/>
<path d="M24 169C22.8954 169 22 169.895 22 171C22 172.105 22.8954 173 24 173C25.1046 173 26 172.105 26 171C26 169.895 25.1046 169 24 169Z" fill="#997345"/>
<path d="M16 169C14.8954 169 14 169.895 14 171C14 172.105 14.8954 173 16 173C17.1046 173 18 172.105 18 171C18 169.895 17.1046 169 16 169Z" fill="#997345"/>
<path d="M68 163C66.8954 163 66 163.895 66 165C66 166.105 66.8954 167 68 167C69.1046 167 70 166.105 70 165C70 163.895 69.1046 163 68 163Z" fill="#997345"/>
<path d="M60 163C58.8954 163 58 163.895 58 165C58 166.105 58.8954 167 60 167C61.1046 167 62 166.105 62 165C62 163.895 61.1046 163 60 163Z" fill="#997345"/>
<path d="M52 163C50.8954 163 50 163.895 50 165C50 166.105 50.8954 167 52 167C53.1046 167 54 166.105 54 165C54 163.895 53.1046 163 52 163Z" fill="#997345"/>
<path d="M44 163C42.8954 163 42 163.895 42 165C42 166.105 42.8954 167 44 167C45.1046 167 46 166.105 46 165C46 163.895 45.1046 163 44 163Z" fill="#997345"/>
<path d="M36 163C34.8954 163 34 163.895 34 165C34 166.105 34.8954 167 36 167C37.1046 167 38 166.105 38 165C38 163.895 37.1046 163 36 163Z" fill="#997345"/>
<path d="M28 163C26.8954 163 26 163.895 26 165C26 166.105 26.8954 167 28 167C29.1046 167 30 166.105 30 165C30 163.895 29.1046 163 28 163Z" fill="#997345"/>
<path d="M20 163C18.8954 163 18 163.895 18 165C18 166.105 18.8954 167 20 167C21.1046 167 22 166.105 22 165C22 163.895 21.1046 163 20 163Z" fill="#997345"/>
<path d="M12 163C10.8954 163 10 163.895 10 165C10 166.105 10.8954 167 12 167C13.1046 167 14 166.105 14 165C14 163.895 13.1046 163 12 163Z" fill="#997345"/>
<path d="M64 157C62.8954 157 62 157.895 62 159C62 160.105 62.8954 161 64 161C65.1046 161 66 160.105 66 159C66 157.895 65.1046 157 64 157Z" fill="#997345"/>
<path d="M56 157C54.8954 157 54 157.895 54 159C54 160.105 54.8954 161 56 161C57.1046 161 58 160.105 58 159C58 157.895 57.1046 157 56 157Z" fill="#997345"/>
<path d="M48 157C46.8954 157 46 157.895 46 159C46 160.105 46.8954 161 48 161C49.1046 161 50 160.105 50 159C50 157.895 49.1046 157 48 157Z" fill="#997345"/>
<path d="M40 157C38.8954 157 38 157.895 38 159C38 160.105 38.8954 161 40 161C41.1046 161 42 160.105 42 159C42 157.895 41.1046 157 40 157Z" fill="#997345"/>
<path d="M32 157C30.8954 157 30 157.895 30 159C30 160.105 30.8954 161 32 161C33.1046 161 34 160.105 34 159C34 157.895 33.1046 157 32 157Z" fill="#997345"/>
<path d="M24 157C22.8954 157 22 157.895 22 159C22 160.105 22.8954 161 24 161C25.1046 161 26 160.105 26 159C26 157.895 25.1046 157 24 157Z" fill="#997345"/>
<path d="M16 157C14.8954 157 14 157.895 14 159C14 160.105 14.8954 161 16 161C17.1046 161 18 160.105 18 159C18 157.895 17.1046 157 16 157Z" fill="#997345"/>
<path d="M68 151C66.8954 151 66 151.895 66 153C66 154.105 66.8954 155 68 155C69.1046 155 70 154.105 70 153C70 151.895 69.1046 151 68 151Z" fill="#997345"/>
<path d="M60 151C58.8954 151 58 151.895 58 153C58 154.105 58.8954 155 60 155C61.1046 155 62 154.105 62 153C62 151.895 61.1046 151 60 151Z" fill="#997345"/>
<path d="M52 151C50.8954 151 50 151.895 50 153C50 154.105 50.8954 155 52 155C53.1046 155 54 154.105 54 153C54 151.895 53.1046 151 52 151Z" fill="#997345"/>
<path d="M44 151C42.8954 151 42 151.895 42 153C42 154.105 42.8954 155 44 155C45.1046 155 46 154.105 46 153C46 151.895 45.1046 151 44 151Z" fill="#997345"/>
<path d="M36 151C34.8954 151 34 151.895 34 153C34 154.105 34.8954 155 36 155C37.1046 155 38 154.105 38 153C38 151.895 37.1046 151 36 151Z" fill="#997345"/>
<path d="M28 151C26.8954 151 26 151.895 26 153C26 154.105 26.8954 155 28 155C29.1046 155 30 154.105 30 153C30 151.895 29.1046 151 28 151Z" fill="#997345"/>
<path d="M20 151C18.8954 151 18 151.895 18 153C18 154.105 18.8954 155 20 155C21.1046 155 22 154.105 22 153C22 151.895 21.1046 151 20 151Z" fill="#997345"/>
<path d="M12 151C10.8954 151 10 151.895 10 153C10 154.105 10.8954 155 12 155C13.1046 155 14 154.105 14 153C14 151.895 13.1046 151 12 151Z" fill="#997345"/>
<path d="M64 145C62.8954 145 62 145.895 62 147C62 148.105 62.8954 149 64 149C65.1046 149 66 148.105 66 147C66 145.895 65.1046 145 64 145Z" fill="#997345"/>
<path d="M56 145C54.8954 145 54 145.895 54 147C54 148.105 54.8954 149 56 149C57.1046 149 58 148.105 58 147C58 145.895 57.1046 145 56 145Z" fill="#997345"/>
<path d="M48 145C46.8954 145 46 145.895 46 147C46 148.105 46.8954 149 48 149C49.1046 149 50 148.105 50 147C50 145.895 49.1046 145 48 145Z" fill="#997345"/>
<path d="M40 145C38.8954 145 38 145.895 38 147C38 148.105 38.8954 149 40 149C41.1046 149 42 148.105 42 147C42 145.895 41.1046 145 40 145Z" fill="#997345"/>
<path d="M32 145C30.8954 145 30 145.895 30 147C30 148.105 30.8954 149 32 149C33.1046 149 34 148.105 34 147C34 145.895 33.1046 145 32 145Z" fill="#997345"/>
<path d="M24 145C22.8954 145 22 145.895 22 147C22 148.105 22.8954 149 24 149C25.1046 149 26 148.105 26 147C26 145.895 25.1046 145 24 145Z" fill="#997345"/>
<path d="M16 145C14.8954 145 14 145.895 14 147C14 148.105 14.8954 149 16 149C17.1046 149 18 148.105 18 147C18 145.895 17.1046 145 16 145Z" fill="#997345"/>
<path d="M68 139C66.8954 139 66 139.895 66 141C66 142.105 66.8954 143 68 143C69.1046 143 70 142.105 70 141C70 139.895 69.1046 139 68 139Z" fill="#997345"/>
<path d="M60 139C58.8954 139 58 139.895 58 141C58 142.105 58.8954 143 60 143C61.1046 143 62 142.105 62 141C62 139.895 61.1046 139 60 139Z" fill="#997345"/>
<path d="M52 139C50.8954 139 50 139.895 50 141C50 142.105 50.8954 143 52 143C53.1046 143 54 142.105 54 141C54 139.895 53.1046 139 52 139Z" fill="#997345"/>
<path d="M44 139C42.8954 139 42 139.895 42 141C42 142.105 42.8954 143 44 143C45.1046 143 46 142.105 46 141C46 139.895 45.1046 139 44 139Z" fill="#997345"/>
<path d="M36 139C34.8954 139 34 139.895 34 141C34 142.105 34.8954 143 36 143C37.1046 143 38 142.105 38 141C38 139.895 37.1046 139 36 139Z" fill="#997345"/>
<path d="M28 139C26.8954 139 26 139.895 26 141C26 142.105 26.8954 143 28 143C29.1046 143 30 142.105 30 141C30 139.895 29.1046 139 28 139Z" fill="#997345"/>
<path d="M20 139C18.8954 139 18 139.895 18 141C18 142.105 18.8954 143 20 143C21.1046 143 22 142.105 22 141C22 139.895 21.1046 139 20 139Z" fill="#997345"/>
<path d="M12 139C10.8954 139 10 139.895 10 141C10 142.105 10.8954 143 12 143C13.1046 143 14 142.105 14 141C14 139.895 13.1046 139 12 139Z" fill="#997345"/>
<path d="M64 133C62.8954 133 62 133.895 62 135C62 136.105 62.8954 137 64 137C65.1046 137 66 136.105 66 135C66 133.895 65.1046 133 64 133Z" fill="#997345"/>
<path d="M56 133C54.8954 133 54 133.895 54 135C54 136.105 54.8954 137 56 137C57.1046 137 58 136.105 58 135C58 133.895 57.1046 133 56 133Z" fill="#997345"/>
<path d="M48 133C46.8954 133 46 133.895 46 135C46 136.105 46.8954 137 48 137C49.1046 137 50 136.105 50 135C50 133.895 49.1046 133 48 133Z" fill="#997345"/>
<path d="M40 133C38.8954 133 38 133.895 38 135C38 136.105 38.8954 137 40 137C41.1046 137 42 136.105 42 135C42 133.895 41.1046 133 40 133Z" fill="#997345"/>
<path d="M32 133C30.8954 133 30 133.895 30 135C30 136.105 30.8954 137 32 137C33.1046 137 34 136.105 34 135C34 133.895 33.1046 133 32 133Z" fill="#997345"/>
<path d="M24 133C22.8954 133 22 133.895 22 135C22 136.105 22.8954 137 24 137C25.1046 137 26 136.105 26 135C26 133.895 25.1046 133 24 133Z" fill="#997345"/>
<path d="M16 133C14.8954 133 14 133.895 14 135C14 136.105 14.8954 137 16 137C17.1046 137 18 136.105 18 135C18 133.895 17.1046 133 16 133Z" fill="#997345"/>
<path d="M68 127C66.8954 127 66 127.895 66 129C66 130.105 66.8954 131 68 131C69.1046 131 70 130.105 70 129C70 127.895 69.1046 127 68 127Z" fill="#997345"/>
<path d="M60 127C58.8954 127 58 127.895 58 129C58 130.105 58.8954 131 60 131C61.1046 131 62 130.105 62 129C62 127.895 61.1046 127 60 127Z" fill="#997345"/>
<path d="M52 127C50.8954 127 50 127.895 50 129C50 130.105 50.8954 131 52 131C53.1046 131 54 130.105 54 129C54 127.895 53.1046 127 52 127Z" fill="#997345"/>
<path d="M44 127C42.8954 127 42 127.895 42 129C42 130.105 42.8954 131 44 131C45.1046 131 46 130.105 46 129C46 127.895 45.1046 127 44 127Z" fill="#997345"/>
<path d="M36 127C34.8954 127 34 127.895 34 129C34 130.105 34.8954 131 36 131C37.1046 131 38 130.105 38 129C38 127.895 37.1046 127 36 127Z" fill="#997345"/>
<path d="M28 127C26.8954 127 26 127.895 26 129C26 130.105 26.8954 131 28 131C29.1046 131 30 130.105 30 129C30 127.895 29.1046 127 28 127Z" fill="#997345"/>
<path d="M20 127C18.8954 127 18 127.895 18 129C18 130.105 18.8954 131 20 131C21.1046 131 22 130.105 22 129C22 127.895 21.1046 127 20 127Z" fill="#997345"/>
<path d="M12 127C10.8954 127 10 127.895 10 129C10 130.105 10.8954 131 12 131C13.1046 131 14 130.105 14 129C14 127.895 13.1046 127 12 127Z" fill="#997345"/>
<path d="M64 121C62.8954 121 62 121.895 62 123C62 124.105 62.8954 125 64 125C65.1046 125 66 124.105 66 123C66 121.895 65.1046 121 64 121Z" fill="#997345"/>
<path d="M56 121C54.8954 121 54 121.895 54 123C54 124.105 54.8954 125 56 125C57.1046 125 58 124.105 58 123C58 121.895 57.1046 121 56 121Z" fill="#997345"/>
<path d="M48 121C46.8954 121 46 121.895 46 123C46 124.105 46.8954 125 48 125C49.1046 125 50 124.105 50 123C50 121.895 49.1046 121 48 121Z" fill="#997345"/>
<path d="M40 121C38.8954 121 38 121.895 38 123C38 124.105 38.8954 125 40 125C41.1046 125 42 124.105 42 123C42 121.895 41.1046 121 40 121Z" fill="#997345"/>
<path d="M32 121C30.8954 121 30 121.895 30 123C30 124.105 30.8954 125 32 125C33.1046 125 34 124.105 34 123C34 121.895 33.1046 121 32 121Z" fill="#997345"/>
<path d="M24 121C22.8954 121 22 121.895 22 123C22 124.105 22.8954 125 24 125C25.1046 125 26 124.105 26 123C26 121.895 25.1046 121 24 121Z" fill="#997345"/>
<path d="M16 121C14.8954 121 14 121.895 14 123C14 124.105 14.8954 125 16 125C17.1046 125 18 124.105 18 123C18 121.895 17.1046 121 16 121Z" fill="#997345"/>
<path d="M68 115C66.8954 115 66 115.895 66 117C66 118.105 66.8954 119 68 119C69.1046 119 70 118.105 70 117C70 115.895 69.1046 115 68 115Z" fill="#997345"/>
<path d="M60 115C58.8954 115 58 115.895 58 117C58 118.105 58.8954 119 60 119C61.1046 119 62 118.105 62 117C62 115.895 61.1046 115 60 115Z" fill="#997345"/>
<path d="M52 115C50.8954 115 50 115.895 50 117C50 118.105 50.8954 119 52 119C53.1046 119 54 118.105 54 117C54 115.895 53.1046 115 52 115Z" fill="#997345"/>
<path d="M44 115C42.8954 115 42 115.895 42 117C42 118.105 42.8954 119 44 119C45.1046 119 46 118.105 46 117C46 115.895 45.1046 115 44 115Z" fill="#997345"/>
<path d="M36 115C34.8954 115 34 115.895 34 117C34 118.105 34.8954 119 36 119C37.1046 119 38 118.105 38 117C38 115.895 37.1046 115 36 115Z" fill="#997345"/>
<path d="M28 115C26.8954 115 26 115.895 26 117C26 118.105 26.8954 119 28 119C29.1046 119 30 118.105 30 117C30 115.895 29.1046 115 28 115Z" fill="#997345"/>
<path d="M20 115C18.8954 115 18 115.895 18 117C18 118.105 18.8954 119 20 119C21.1046 119 22 118.105 22 117C22 115.895 21.1046 115 20 115Z" fill="#997345"/>
<path d="M12 115C10.8954 115 10 115.895 10 117C10 118.105 10.8954 119 12 119C13.1046 119 14 118.105 14 117C14 115.895 13.1046 115 12 115Z" fill="#997345"/>
<path d="M64 109C62.8954 109 62 109.895 62 111C62 112.105 62.8954 113 64 113C65.1046 113 66 112.105 66 111C66 109.895 65.1046 109 64 109Z" fill="#997345"/>
<path d="M56 109C54.8954 109 54 109.895 54 111C54 112.105 54.8954 113 56 113C57.1046 113 58 112.105 58 111C58 109.895 57.1046 109 56 109Z" fill="#997345"/>
<path d="M48 109C46.8954 109 46 109.895 46 111C46 112.105 46.8954 113 48 113C49.1046 113 50 112.105 50 111C50 109.895 49.1046 109 48 109Z" fill="#997345"/>
<path d="M40 109C38.8954 109 38 109.895 38 111C38 112.105 38.8954 113 40 113C41.1046 113 42 112.105 42 111C42 109.895 41.1046 109 40 109Z" fill="#997345"/>
<path d="M32 109C30.8954 109 30 109.895 30 111C30 112.105 30.8954 113 32 113C33.1046 113 34 112.105 34 111C34 109.895 33.1046 109 32 109Z" fill="#997345"/>
<path d="M24 109C22.8954 109 22 109.895 22 111C22 112.105 22.8954 113 24 113C25.1046 113 26 112.105 26 111C26 109.895 25.1046 109 24 109Z" fill="#997345"/>
<path d="M16 109C14.8954 109 14 109.895 14 111C14 112.105 14.8954 113 16 113C17.1046 113 18 112.105 18 111C18 109.895 17.1046 109 16 109Z" fill="#997345"/>
<path d="M68 103C66.8954 103 66 103.895 66 105C66 106.105 66.8954 107 68 107C69.1046 107 70 106.105 70 105C70 103.895 69.1046 103 68 103Z" fill="#997345"/>
<path d="M60 103C58.8954 103 58 103.895 58 105C58 106.105 58.8954 107 60 107C61.1046 107 62 106.105 62 105C62 103.895 61.1046 103 60 103Z" fill="#997345"/>
<path d="M52 103C50.8954 103 50 103.895 50 105C50 106.105 50.8954 107 52 107C53.1046 107 54 106.105 54 105C54 103.895 53.1046 103 52 103Z" fill="#997345"/>
<path d="M44 103C42.8954 103 42 103.895 42 105C42 106.105 42.8954 107 44 107C45.1046 107 46 106.105 46 105C46 103.895 45.1046 103 44 103Z" fill="#997345"/>
<path d="M36 103C34.8954 103 34 103.895 34 105C34 106.105 34.8954 107 36 107C37.1046 107 38 106.105 38 105C38 103.895 37.1046 103 36 103Z" fill="#997345"/>
<path d="M28 103C26.8954 103 26 103.895 26 105C26 106.105 26.8954 107 28 107C29.1046 107 30 106.105 30 105C30 103.895 29.1046 103 28 103Z" fill="#997345"/>
<path d="M20 103C18.8954 103 18 103.895 18 105C18 106.105 18.8954 107 20 107C21.1046 107 22 106.105 22 105C22 103.895 21.1046 103 20 103Z" fill="#997345"/>
<path d="M12 103C10.8954 103 10 103.895 10 105C10 106.105 10.8954 107 12 107C13.1046 107 14 106.105 14 105C14 103.895 13.1046 103 12 103Z" fill="#997345"/>
<path d="M64 97C62.8954 97 62 97.8954 62 99C62 100.105 62.8954 101 64 101C65.1046 101 66 100.105 66 99C66 97.8954 65.1046 97 64 97Z" fill="#997345"/>
<path d="M56 97C54.8954 97 54 97.8954 54 99C54 100.105 54.8954 101 56 101C57.1046 101 58 100.105 58 99C58 97.8954 57.1046 97 56 97Z" fill="#997345"/>
<path d="M48 97C46.8954 97 46 97.8954 46 99C46 100.105 46.8954 101 48 101C49.1046 101 50 100.105 50 99C50 97.8954 49.1046 97 48 97Z" fill="#997345"/>
<path d="M40 97C38.8954 97 38 97.8954 38 99C38 100.105 38.8954 101 40 101C41.1046 101 42 100.105 42 99C42 97.8954 41.1046 97 40 97Z" fill="#997345"/>
<path d="M32 97C30.8954 97 30 97.8954 30 99C30 100.105 30.8954 101 32 101C33.1046 101 34 100.105 34 99C34 97.8954 33.1046 97 32 97Z" fill="#997345"/>
<path d="M24 97C22.8954 97 22 97.8954 22 99C22 100.105 22.8954 101 24 101C25.1046 101 26 100.105 26 99C26 97.8954 25.1046 97 24 97Z" fill="#997345"/>
<path d="M16 97C14.8954 97 14 97.8954 14 99C14 100.105 14.8954 101 16 101C17.1046 101 18 100.105 18 99C18 97.8954 17.1046 97 16 97Z" fill="#997345"/>
<path d="M68 91C66.8954 91 66 91.8954 66 93C66 94.1046 66.8954 95 68 95C69.1046 95 70 94.1046 70 93C70 91.8954 69.1046 91 68 91Z" fill="#997345"/>
<path d="M60 91C58.8954 91 58 91.8954 58 93C58 94.1046 58.8954 95 60 95C61.1046 95 62 94.1046 62 93C62 91.8954 61.1046 91 60 91Z" fill="#997345"/>
<path d="M52 91C50.8954 91 50 91.8954 50 93C50 94.1046 50.8954 95 52 95C53.1046 95 54 94.1046 54 93C54 91.8954 53.1046 91 52 91Z" fill="#997345"/>
<path d="M44 91C42.8954 91 42 91.8954 42 93C42 94.1046 42.8954 95 44 95C45.1046 95 46 94.1046 46 93C46 91.8954 45.1046 91 44 91Z" fill="#997345"/>
<path d="M36 91C34.8954 91 34 91.8954 34 93C34 94.1046 34.8954 95 36 95C37.1046 95 38 94.1046 38 93C38 91.8954 37.1046 91 36 91Z" fill="#997345"/>
<path d="M28 91C26.8954 91 26 91.8954 26 93C26 94.1046 26.8954 95 28 95C29.1046 95 30 94.1046 30 93C30 91.8954 29.1046 91 28 91Z" fill="#997345"/>
<path d="M20 91C18.8954 91 18 91.8954 18 93C18 94.1046 18.8954 95 20 95C21.1046 95 22 94.1046 22 93C22 91.8954 21.1046 91 20 91Z" fill="#997345"/>
<path d="M12 91C10.8954 91 10 91.8954 10 93C10 94.1046 10.8954 95 12 95C13.1046 95 14 94.1046 14 93C14 91.8954 13.1046 91 12 91Z" fill="#997345"/>
<path d="M64 85C62.8954 85 62 85.8954 62 87C62 88.1046 62.8954 89 64 89C65.1046 89 66 88.1046 66 87C66 85.8954 65.1046 85 64 85Z" fill="#997345"/>
<path d="M56 85C54.8954 85 54 85.8954 54 87C54 88.1046 54.8954 89 56 89C57.1046 89 58 88.1046 58 87C58 85.8954 57.1046 85 56 85Z" fill="#997345"/>
<path d="M48 85C46.8954 85 46 85.8954 46 87C46 88.1046 46.8954 89 48 89C49.1046 89 50 88.1046 50 87C50 85.8954 49.1046 85 48 85Z" fill="#997345"/>
<path d="M40 85C38.8954 85 38 85.8954 38 87C38 88.1046 38.8954 89 40 89C41.1046 89 42 88.1046 42 87C42 85.8954 41.1046 85 40 85Z" fill="#997345"/>
<path d="M32 85C30.8954 85 30 85.8954 30 87C30 88.1046 30.8954 89 32 89C33.1046 89 34 88.1046 34 87C34 85.8954 33.1046 85 32 85Z" fill="#997345"/>
<path d="M24 85C22.8954 85 22 85.8954 22 87C22 88.1046 22.8954 89 24 89C25.1046 89 26 88.1046 26 87C26 85.8954 25.1046 85 24 85Z" fill="#997345"/>
<path d="M16 85C14.8954 85 14 85.8954 14 87C14 88.1046 14.8954 89 16 89C17.1046 89 18 88.1046 18 87C18 85.8954 17.1046 85 16 85Z" fill="#997345"/>
<path d="M68 79C66.8954 79 66 79.8954 66 81C66 82.1046 66.8954 83 68 83C69.1046 83 70 82.1046 70 81C70 79.8954 69.1046 79 68 79Z" fill="#997345"/>
<path d="M60 79C58.8954 79 58 79.8954 58 81C58 82.1046 58.8954 83 60 83C61.1046 83 62 82.1046 62 81C62 79.8954 61.1046 79 60 79Z" fill="#997345"/>
<path d="M52 79C50.8954 79 50 79.8954 50 81C50 82.1046 50.8954 83 52 83C53.1046 83 54 82.1046 54 81C54 79.8954 53.1046 79 52 79Z" fill="#997345"/>
<path d="M44 79C42.8954 79 42 79.8954 42 81C42 82.1046 42.8954 83 44 83C45.1046 83 46 82.1046 46 81C46 79.8954 45.1046 79 44 79Z" fill="#997345"/>
<path d="M36 79C34.8954 79 34 79.8954 34 81C34 82.1046 34.8954 83 36 83C37.1046 83 38 82.1046 38 81C38 79.8954 37.1046 79 36 79Z" fill="#997345"/>
<path d="M28 79C26.8954 79 26 79.8954 26 81C26 82.1046 26.8954 83 28 83C29.1046 83 30 82.1046 30 81C30 79.8954 29.1046 79 28 79Z" fill="#997345"/>
<path d="M20 79C18.8954 79 18 79.8954 18 81C18 82.1046 18.8954 83 20 83C21.1046 83 22 82.1046 22 81C22 79.8954 21.1046 79 20 79Z" fill="#997345"/>
<path d="M12 79C10.8954 79 10 79.8954 10 81C10 82.1046 10.8954 83 12 83C13.1046 83 14 82.1046 14 81C14 79.8954 13.1046 79 12 79Z" fill="#997345"/>
<path d="M64 73C62.8954 73 62 73.8954 62 75C62 76.1046 62.8954 77 64 77C65.1046 77 66 76.1046 66 75C66 73.8954 65.1046 73 64 73Z" fill="#997345"/>
<path d="M56 73C54.8954 73 54 73.8954 54 75C54 76.1046 54.8954 77 56 77C57.1046 77 58 76.1046 58 75C58 73.8954 57.1046 73 56 73Z" fill="#997345"/>
<path d="M48 73C46.8954 73 46 73.8954 46 75C46 76.1046 46.8954 77 48 77C49.1046 77 50 76.1046 50 75C50 73.8954 49.1046 73 48 73Z" fill="#997345"/>
<path d="M40 73C38.8954 73 38 73.8954 38 75C38 76.1046 38.8954 77 40 77C41.1046 77 42 76.1046 42 75C42 73.8954 41.1046 73 40 73Z" fill="#997345"/>
<path d="M32 73C30.8954 73 30 73.8954 30 75C30 76.1046 30.8954 77 32 77C33.1046 77 34 76.1046 34 75C34 73.8954 33.1046 73 32 73Z" fill="#997345"/>
<path d="M24 73C22.8954 73 22 73.8954 22 75C22 76.1046 22.8954 77 24 77C25.1046 77 26 76.1046 26 75C26 73.8954 25.1046 73 24 73Z" fill="#997345"/>
<path d="M16 73C14.8954 73 14 73.8954 14 75C14 76.1046 14.8954 77 16 77C17.1046 77 18 76.1046 18 75C18 73.8954 17.1046 73 16 73Z" fill="#997345"/>
<path d="M68 67C66.8954 67 66 67.8954 66 69C66 70.1046 66.8954 71 68 71C69.1046 71 70 70.1046 70 69C70 67.8954 69.1046 67 68 67Z" fill="#997345"/>
<path d="M60 67C58.8954 67 58 67.8954 58 69C58 70.1046 58.8954 71 60 71C61.1046 71 62 70.1046 62 69C62 67.8954 61.1046 67 60 67Z" fill="#997345"/>
<path d="M52 67C50.8954 67 50 67.8954 50 69C50 70.1046 50.8954 71 52 71C53.1046 71 54 70.1046 54 69C54 67.8954 53.1046 67 52 67Z" fill="#997345"/>
<path d="M44 67C42.8954 67 42 67.8954 42 69C42 70.1046 42.8954 71 44 71C45.1046 71 46 70.1046 46 69C46 67.8954 45.1046 67 44 67Z" fill="#997345"/>
<path d="M36 67C34.8954 67 34 67.8954 34 69C34 70.1046 34.8954 71 36 71C37.1046 71 38 70.1046 38 69C38 67.8954 37.1046 67 36 67Z" fill="#997345"/>
<path d="M28 67C26.8954 67 26 67.8954 26 69C26 70.1046 26.8954 71 28 71C29.1046 71 30 70.1046 30 69C30 67.8954 29.1046 67 28 67Z" fill="#997345"/>
<path d="M20 67C18.8954 67 18 67.8954 18 69C18 70.1046 18.8954 71 20 71C21.1046 71 22 70.1046 22 69C22 67.8954 21.1046 67 20 67Z" fill="#997345"/>
<path d="M12 67C10.8954 67 10 67.8954 10 69C10 70.1046 10.8954 71 12 71C13.1046 71 14 70.1046 14 69C14 67.8954 13.1046 67 12 67Z" fill="#997345"/>
<path d="M64 61C62.8954 61 62 61.8954 62 63C62 64.1046 62.8954 65 64 65C65.1046 65 66 64.1046 66 63C66 61.8954 65.1046 61 64 61Z" fill="#997345"/>
<path d="M56 61C54.8954 61 54 61.8954 54 63C54 64.1046 54.8954 65 56 65C57.1046 65 58 64.1046 58 63C58 61.8954 57.1046 61 56 61Z" fill="#997345"/>
<path d="M48 61C46.8954 61 46 61.8954 46 63C46 64.1046 46.8954 65 48 65C49.1046 65 50 64.1046 50 63C50 61.8954 49.1046 61 48 61Z" fill="#997345"/>
<path d="M40 61C38.8954 61 38 61.8954 38 63C38 64.1046 38.8954 65 40 65C41.1046 65 42 64.1046 42 63C42 61.8954 41.1046 61 40 61Z" fill="#997345"/>
<path d="M32 61C30.8954 61 30 61.8954 30 63C30 64.1046 30.8954 65 32 65C33.1046 65 34 64.1046 34 63C34 61.8954 33.1046 61 32 61Z" fill="#997345"/>
<path d="M24 61C22.8954 61 22 61.8954 22 63C22 64.1046 22.8954 65 24 65C25.1046 65 26 64.1046 26 63C26 61.8954 25.1046 61 24 61Z" fill="#997345"/>
<path d="M16 61C14.8954 61 14 61.8954 14 63C14 64.1046 14.8954 65 16 65C17.1046 65 18 64.1046 18 63C18 61.8954 17.1046 61 16 61Z" fill="#997345"/>
<path d="M68 55C66.8954 55 66 55.8954 66 57C66 58.1046 66.8954 59 68 59C69.1046 59 70 58.1046 70 57C70 55.8954 69.1046 55 68 55Z" fill="#997345"/>
<path d="M60 55C58.8954 55 58 55.8954 58 57C58 58.1046 58.8954 59 60 59C61.1046 59 62 58.1046 62 57C62 55.8954 61.1046 55 60 55Z" fill="#997345"/>
<path d="M52 55C50.8954 55 50 55.8954 50 57C50 58.1046 50.8954 59 52 59C53.1046 59 54 58.1046 54 57C54 55.8954 53.1046 55 52 55Z" fill="#997345"/>
<path d="M44 55C42.8954 55 42 55.8954 42 57C42 58.1046 42.8954 59 44 59C45.1046 59 46 58.1046 46 57C46 55.8954 45.1046 55 44 55Z" fill="#997345"/>
<path d="M36 55C34.8954 55 34 55.8954 34 57C34 58.1046 34.8954 59 36 59C37.1046 59 38 58.1046 38 57C38 55.8954 37.1046 55 36 55Z" fill="#997345"/>
<path d="M28 55C26.8954 55 26 55.8954 26 57C26 58.1046 26.8954 59 28 59C29.1046 59 30 58.1046 30 57C30 55.8954 29.1046 55 28 55Z" fill="#997345"/>
<path d="M20 55C18.8954 55 18 55.8954 18 57C18 58.1046 18.8954 59 20 59C21.1046 59 22 58.1046 22 57C22 55.8954 21.1046 55 20 55Z" fill="#997345"/>
<path d="M12 55C10.8954 55 10 55.8954 10 57C10 58.1046 10.8954 59 12 59C13.1046 59 14 58.1046 14 57C14 55.8954 13.1046 55 12 55Z" fill="#997345"/>
<path d="M64 49C62.8954 49 62 49.8954 62 51C62 52.1046 62.8954 53 64 53C65.1046 53 66 52.1046 66 51C66 49.8954 65.1046 49 64 49Z" fill="#997345"/>
<path d="M56 49C54.8954 49 54 49.8954 54 51C54 52.1046 54.8954 53 56 53C57.1046 53 58 52.1046 58 51C58 49.8954 57.1046 49 56 49Z" fill="#997345"/>
<path d="M48 49C46.8954 49 46 49.8954 46 51C46 52.1046 46.8954 53 48 53C49.1046 53 50 52.1046 50 51C50 49.8954 49.1046 49 48 49Z" fill="#997345"/>
<path d="M40 49C38.8954 49 38 49.8954 38 51C38 52.1046 38.8954 53 40 53C41.1046 53 42 52.1046 42 51C42 49.8954 41.1046 49 40 49Z" fill="#997345"/>
<path d="M32 49C30.8954 49 30 49.8954 30 51C30 52.1046 30.8954 53 32 53C33.1046 53 34 52.1046 34 51C34 49.8954 33.1046 49 32 49Z" fill="#997345"/>
<path d="M24 49C22.8954 49 22 49.8954 22 51C22 52.1046 22.8954 53 24 53C25.1046 53 26 52.1046 26 51C26 49.8954 25.1046 49 24 49Z" fill="#997345"/>
<path d="M16 49C14.8954 49 14 49.8954 14 51C14 52.1046 14.8954 53 16 53C17.1046 53 18 52.1046 18 51C18 49.8954 17.1046 49 16 49Z" fill="#997345"/>
<path d="M68 43C66.8954 43 66 43.8954 66 45C66 46.1046 66.8954 47 68 47C69.1046 47 70 46.1046 70 45C70 43.8954 69.1046 43 68 43Z" fill="#997345"/>
<path d="M60 43C58.8954 43 58 43.8954 58 45C58 46.1046 58.8954 47 60 47C61.1046 47 62 46.1046 62 45C62 43.8954 61.1046 43 60 43Z" fill="#997345"/>
<path d="M52 43C50.8954 43 50 43.8954 50 45C50 46.1046 50.8954 47 52 47C53.1046 47 54 46.1046 54 45C54 43.8954 53.1046 43 52 43Z" fill="#997345"/>
<path d="M44 43C42.8954 43 42 43.8954 42 45C42 46.1046 42.8954 47 44 47C45.1046 47 46 46.1046 46 45C46 43.8954 45.1046 43 44 43Z" fill="#997345"/>
<path d="M36 43C34.8954 43 34 43.8954 34 45C34 46.1046 34.8954 47 36 47C37.1046 47 38 46.1046 38 45C38 43.8954 37.1046 43 36 43Z" fill="#997345"/>
<path d="M28 43C26.8954 43 26 43.8954 26 45C26 46.1046 26.8954 47 28 47C29.1046 47 30 46.1046 30 45C30 43.8954 29.1046 43 28 43Z" fill="#997345"/>
<path d="M20 43C18.8954 43 18 43.8954 18 45C18 46.1046 18.8954 47 20 47C21.1046 47 22 46.1046 22 45C22 43.8954 21.1046 43 20 43Z" fill="#997345"/>
<path d="M12 43C10.8954 43 10 43.8954 10 45C10 46.1046 10.8954 47 12 47C13.1046 47 14 46.1046 14 45C14 43.8954 13.1046 43 12 43Z" fill="#997345"/>
<path d="M64 37C62.8954 37 62 37.8954 62 39C62 40.1046 62.8954 41 64 41C65.1046 41 66 40.1046 66 39C66 37.8954 65.1046 37 64 37Z" fill="#997345"/>
<path d="M56 37C54.8954 37 54 37.8954 54 39C54 40.1046 54.8954 41 56 41C57.1046 41 58 40.1046 58 39C58 37.8954 57.1046 37 56 37Z" fill="#997345"/>
<path d="M48 37C46.8954 37 46 37.8954 46 39C46 40.1046 46.8954 41 48 41C49.1046 41 50 40.1046 50 39C50 37.8954 49.1046 37 48 37Z" fill="#997345"/>
<path d="M40 37C38.8954 37 38 37.8954 38 39C38 40.1046 38.8954 41 40 41C41.1046 41 42 40.1046 42 39C42 37.8954 41.1046 37 40 37Z" fill="#997345"/>
<path d="M32 37C30.8954 37 30 37.8954 30 39C30 40.1046 30.8954 41 32 41C33.1046 41 34 40.1046 34 39C34 37.8954 33.1046 37 32 37Z" fill="#997345"/>
<path d="M24 37C22.8954 37 22 37.8954 22 39C22 40.1046 22.8954 41 24 41C25.1046 41 26 40.1046 26 39C26 37.8954 25.1046 37 24 37Z" fill="#997345"/>
<path d="M16 37C14.8954 37 14 37.8954 14 39C14 40.1046 14.8954 41 16 41C17.1046 41 18 40.1046 18 39C18 37.8954 17.1046 37 16 37Z" fill="#997345"/>
<path d="M68 31C66.8954 31 66 31.8954 66 33C66 34.1046 66.8954 35 68 35C69.1046 35 70 34.1046 70 33C70 31.8954 69.1046 31 68 31Z" fill="#997345"/>
<path d="M60 31C58.8954 31 58 31.8954 58 33C58 34.1046 58.8954 35 60 35C61.1046 35 62 34.1046 62 33C62 31.8954 61.1046 31 60 31Z" fill="#997345"/>
<path d="M52 31C50.8954 31 50 31.8954 50 33C50 34.1046 50.8954 35 52 35C53.1046 35 54 34.1046 54 33C54 31.8954 53.1046 31 52 31Z" fill="#997345"/>
<path d="M44 31C42.8954 31 42 31.8954 42 33C42 34.1046 42.8954 35 44 35C45.1046 35 46 34.1046 46 33C46 31.8954 45.1046 31 44 31Z" fill="#997345"/>
<path d="M36 31C34.8954 31 34 31.8954 34 33C34 34.1046 34.8954 35 36 35C37.1046 35 38 34.1046 38 33C38 31.8954 37.1046 31 36 31Z" fill="#997345"/>
<path d="M28 31C26.8954 31 26 31.8954 26 33C26 34.1046 26.8954 35 28 35C29.1046 35 30 34.1046 30 33C30 31.8954 29.1046 31 28 31Z" fill="#997345"/>
<path d="M20 31C18.8954 31 18 31.8954 18 33C18 34.1046 18.8954 35 20 35C21.1046 35 22 34.1046 22 33C22 31.8954 21.1046 31 20 31Z" fill="#997345"/>
<path d="M12 31C10.8954 31 10 31.8954 10 33C10 34.1046 10.8954 35 12 35C13.1046 35 14 34.1046 14 33C14 31.8954 13.1046 31 12 31Z" fill="#997345"/>
<path d="M64 25C62.8954 25 62 25.8954 62 27C62 28.1046 62.8954 29 64 29C65.1046 29 66 28.1046 66 27C66 25.8954 65.1046 25 64 25Z" fill="#997345"/>
<path d="M56 25C54.8954 25 54 25.8954 54 27C54 28.1046 54.8954 29 56 29C57.1046 29 58 28.1046 58 27C58 25.8954 57.1046 25 56 25Z" fill="#997345"/>
<path d="M48 25C46.8954 25 46 25.8954 46 27C46 28.1046 46.8954 29 48 29C49.1046 29 50 28.1046 50 27C50 25.8954 49.1046 25 48 25Z" fill="#997345"/>
<path d="M40 25C38.8954 25 38 25.8954 38 27C38 28.1046 38.8954 29 40 29C41.1046 29 42 28.1046 42 27C42 25.8954 41.1046 25 40 25Z" fill="#997345"/>
<path d="M32 25C30.8954 25 30 25.8954 30 27C30 28.1046 30.8954 29 32 29C33.1046 29 34 28.1046 34 27C34 25.8954 33.1046 25 32 25Z" fill="#997345"/>
<path d="M24 25C22.8954 25 22 25.8954 22 27C22 28.1046 22.8954 29 24 29C25.1046 29 26 28.1046 26 27C26 25.8954 25.1046 25 24 25Z" fill="#997345"/>
<path d="M16 25C14.8954 25 14 25.8954 14 27C14 28.1046 14.8954 29 16 29C17.1046 29 18 28.1046 18 27C18 25.8954 17.1046 25 16 25Z" fill="#997345"/>
<path d="M68 19C66.8954 19 66 19.8954 66 21C66 22.1046 66.8954 23 68 23C69.1046 23 70 22.1046 70 21C70 19.8954 69.1046 19 68 19Z" fill="#997345"/>
<path d="M60 19C58.8954 19 58 19.8954 58 21C58 22.1046 58.8954 23 60 23C61.1046 23 62 22.1046 62 21C62 19.8954 61.1046 19 60 19Z" fill="#997345"/>
<path d="M52 19C50.8954 19 50 19.8954 50 21C50 22.1046 50.8954 23 52 23C53.1046 23 54 22.1046 54 21C54 19.8954 53.1046 19 52 19Z" fill="#997345"/>
<path d="M44 19C42.8954 19 42 19.8954 42 21C42 22.1046 42.8954 23 44 23C45.1046 23 46 22.1046 46 21C46 19.8954 45.1046 19 44 19Z" fill="#997345"/>
<path d="M36 19C34.8954 19 34 19.8954 34 21C34 22.1046 34.8954 23 36 23C37.1046 23 38 22.1046 38 21C38 19.8954 37.1046 19 36 19Z" fill="#997345"/>
<path d="M28 19C26.8954 19 26 19.8954 26 21C26 22.1046 26.8954 23 28 23C29.1046 23 30 22.1046 30 21C30 19.8954 29.1046 19 28 19Z" fill="#997345"/>
<path d="M20 19C18.8954 19 18 19.8954 18 21C18 22.1046 18.8954 23 20 23C21.1046 23 22 22.1046 22 21C22 19.8954 21.1046 19 20 19Z" fill="#997345"/>
<path d="M12 19C10.8954 19 10 19.8954 10 21C10 22.1046 10.8954 23 12 23C13.1046 23 14 22.1046 14 21C14 19.8954 13.1046 19 12 19Z" fill="#997345"/>
<path d="M64 13C62.8954 13 62 13.8954 62 15C62 16.1046 62.8954 17 64 17C65.1046 17 66 16.1046 66 15C66 13.8954 65.1046 13 64 13Z" fill="#997345"/>
<path d="M56 13C54.8954 13 54 13.8954 54 15C54 16.1046 54.8954 17 56 17C57.1046 17 58 16.1046 58 15C58 13.8954 57.1046 13 56 13Z" fill="#997345"/>
<path d="M48 13C46.8954 13 46 13.8954 46 15C46 16.1046 46.8954 17 48 17C49.1046 17 50 16.1046 50 15C50 13.8954 49.1046 13 48 13Z" fill="#997345"/>
<path d="M40 13C38.8954 13 38 13.8954 38 15C38 16.1046 38.8954 17 40 17C41.1046 17 42 16.1046 42 15C42 13.8954 41.1046 13 40 13Z" fill="#997345"/>
<path d="M32 13C30.8954 13 30 13.8954 30 15C30 16.1046 30.8954 17 32 17C33.1046 17 34 16.1046 34 15C34 13.8954 33.1046 13 32 13Z" fill="#997345"/>
<path d="M24 13C22.8954 13 22 13.8954 22 15C22 16.1046 22.8954 17 24 17C25.1046 17 26 16.1046 26 15C26 13.8954 25.1046 13 24 13Z" fill="#997345"/>
<path d="M16 13C14.8954 13 14 13.8954 14 15C14 16.1046 14.8954 17 16 17C17.1046 17 18 16.1046 18 15C18 13.8954 17.1046 13 16 13Z" fill="#997345"/>
<path d="M68 7C66.8954 7 66 7.89543 66 9C66 10.1046 66.8954 11 68 11C69.1046 11 70 10.1046 70 9C70 7.89543 69.1046 7 68 7Z" fill="#997345"/>
<path d="M60 7C58.8954 7 58 7.89543 58 9C58 10.1046 58.8954 11 60 11C61.1046 11 62 10.1046 62 9C62 7.89543 61.1046 7 60 7Z" fill="#997345"/>
<path d="M52 7C50.8954 7 50 7.89543 50 9C50 10.1046 50.8954 11 52 11C53.1046 11 54 10.1046 54 9C54 7.89543 53.1046 7 52 7Z" fill="#997345"/>
<path d="M44 7C42.8954 7 42 7.89543 42 9C42 10.1046 42.8954 11 44 11C45.1046 11 46 10.1046 46 9C46 7.89543 45.1046 7 44 7Z" fill="#997345"/>
<path d="M36 7C34.8954 7 34 7.89543 34 9C34 10.1046 34.8954 11 36 11C37.1046 11 38 10.1046 38 9C38 7.89543 37.1046 7 36 7Z" fill="#997345"/>
<path d="M28 7C26.8954 7 26 7.89543 26 9C26 10.1046 26.8954 11 28 11C29.1046 11 30 10.1046 30 9C30 7.89543 29.1046 7 28 7Z" fill="#997345"/>
<path d="M20 7C18.8954 7 18 7.89543 18 9C18 10.1046 18.8954 11 20 11C21.1046 11 22 10.1046 22 9C22 7.89543 21.1046 7 20 7Z" fill="#997345"/>
<path d="M12 7C10.8954 7 10 7.89543 10 9C10 10.1046 10.8954 11 12 11C13.1046 11 14 10.1046 14 9C14 7.89543 13.1046 7 12 7Z" fill="#997345"/>
</g>
<path d="M13.6629 251L40.6 10L67.5371 251H13.6629Z" stroke="#997345" stroke-width="2"/>
</g>
</g>
</g>
<defs>
<clipPath id="clip0_16_66732">
<rect width="81" height="250" fill="white" transform="matrix(-1 0 0 -1 81 250)"/>
</clipPath>
</defs>
</svg>
