<svg width="100%" height="100%" viewBox="0 0 81 250" fill="none" xmlns="http://www.w3.org/2000/svg">
<g clip-path="url(#clip0_16_66732)">
<mask id="mask0_16_66732" style="mask-type:luminance" maskUnits="userSpaceOnUse" x="0" y="0" width="81" height="250">
<path d="M81 0H0V250H81V0Z" fill="white"/>
</mask>
<g mask="url(#mask0_16_66732)">
<mask id="mask1_16_66732" style="mask-type:alpha" maskUnits="userSpaceOnUse" x="12" y="-2" width="57" height="243">
<path d="M40.4 241L12.3408 -2H68.4592L40.4 241Z" fill="#DA621E"/>
</mask>
<g mask="url(#mask1_16_66732)">
<mask id="mask2_16_66732" style="mask-type:luminance" maskUnits="userSpaceOnUse" x="-109" y="-85" width="219" height="335">
<path d="M110 -85H-109V250H110V-85Z" fill="white"/>
</mask>
<g mask="url(#mask2_16_66732)">
<path d="M110 -85H-109V250H110V-85Z" fill="#885525"/>
<path d="M13 3C14.1046 3 15 2.10457 15 1C15 -0.10457 14.1046 -1 13 -1C11.8954 -1 11 -0.10457 11 1C11 2.10457 11.8954 3 13 3Z" fill="#997345"/>
<path d="M21 3C22.1046 3 23 2.10457 23 1C23 -0.10457 22.1046 -1 21 -1C19.8954 -1 19 -0.10457 19 1C19 2.10457 19.8954 3 21 3Z" fill="#997345"/>
<path d="M29 3C30.1046 3 31 2.10457 31 1C31 -0.10457 30.1046 -1 29 -1C27.8954 -1 27 -0.10457 27 1C27 2.10457 27.8954 3 29 3Z" fill="#997345"/>
<path d="M37 3C38.1046 3 39 2.10457 39 1C39 -0.10457 38.1046 -1 37 -1C35.8954 -1 35 -0.10457 35 1C35 2.10457 35.8954 3 37 3Z" fill="#997345"/>
<path d="M45 3C46.1046 3 47 2.10457 47 1C47 -0.10457 46.1046 -1 45 -1C43.8954 -1 43 -0.10457 43 1C43 2.10457 43.8954 3 45 3Z" fill="#997345"/>
<path d="M53 3C54.1046 3 55 2.10457 55 1C55 -0.10457 54.1046 -1 53 -1C51.8954 -1 51 -0.10457 51 1C51 2.10457 51.8954 3 53 3Z" fill="#997345"/>
<path d="M61 3C62.1046 3 63 2.10457 63 1C63 -0.10457 62.1046 -1 61 -1C59.8954 -1 59 -0.10457 59 1C59 2.10457 59.8954 3 61 3Z" fill="#997345"/>
<path d="M69 3C70.1046 3 71 2.10457 71 1C71 -0.10457 70.1046 -1 69 -1C67.8954 -1 67 -0.10457 67 1C67 2.10457 67.8954 3 69 3Z" fill="#997345"/>
<path d="M17 9C18.1046 9 19 8.10457 19 7C19 5.89543 18.1046 5 17 5C15.8954 5 15 5.89543 15 7C15 8.10457 15.8954 9 17 9Z" fill="#997345"/>
<path d="M25 9C26.1046 9 27 8.10457 27 7C27 5.89543 26.1046 5 25 5C23.8954 5 23 5.89543 23 7C23 8.10457 23.8954 9 25 9Z" fill="#997345"/>
<path d="M33 9C34.1046 9 35 8.10457 35 7C35 5.89543 34.1046 5 33 5C31.8954 5 31 5.89543 31 7C31 8.10457 31.8954 9 33 9Z" fill="#997345"/>
<path d="M41 9C42.1046 9 43 8.10457 43 7C43 5.89543 42.1046 5 41 5C39.8954 5 39 5.89543 39 7C39 8.10457 39.8954 9 41 9Z" fill="#997345"/>
<path d="M49 9C50.1046 9 51 8.10457 51 7C51 5.89543 50.1046 5 49 5C47.8954 5 47 5.89543 47 7C47 8.10457 47.8954 9 49 9Z" fill="#997345"/>
<path d="M57 9C58.1046 9 59 8.10457 59 7C59 5.89543 58.1046 5 57 5C55.8954 5 55 5.89543 55 7C55 8.10457 55.8954 9 57 9Z" fill="#997345"/>
<path d="M65 9C66.1046 9 67 8.10457 67 7C67 5.89543 66.1046 5 65 5C63.8954 5 63 5.89543 63 7C63 8.10457 63.8954 9 65 9Z" fill="#997345"/>
<path d="M13 15C14.1046 15 15 14.1046 15 13C15 11.8954 14.1046 11 13 11C11.8954 11 11 11.8954 11 13C11 14.1046 11.8954 15 13 15Z" fill="#997345"/>
<path d="M21 15C22.1046 15 23 14.1046 23 13C23 11.8954 22.1046 11 21 11C19.8954 11 19 11.8954 19 13C19 14.1046 19.8954 15 21 15Z" fill="#997345"/>
<path d="M29 15C30.1046 15 31 14.1046 31 13C31 11.8954 30.1046 11 29 11C27.8954 11 27 11.8954 27 13C27 14.1046 27.8954 15 29 15Z" fill="#997345"/>
<path d="M37 15C38.1046 15 39 14.1046 39 13C39 11.8954 38.1046 11 37 11C35.8954 11 35 11.8954 35 13C35 14.1046 35.8954 15 37 15Z" fill="#997345"/>
<path d="M45 15C46.1046 15 47 14.1046 47 13C47 11.8954 46.1046 11 45 11C43.8954 11 43 11.8954 43 13C43 14.1046 43.8954 15 45 15Z" fill="#997345"/>
<path d="M53 15C54.1046 15 55 14.1046 55 13C55 11.8954 54.1046 11 53 11C51.8954 11 51 11.8954 51 13C51 14.1046 51.8954 15 53 15Z" fill="#997345"/>
<path d="M61 15C62.1046 15 63 14.1046 63 13C63 11.8954 62.1046 11 61 11C59.8954 11 59 11.8954 59 13C59 14.1046 59.8954 15 61 15Z" fill="#997345"/>
<path d="M69 15C70.1046 15 71 14.1046 71 13C71 11.8954 70.1046 11 69 11C67.8954 11 67 11.8954 67 13C67 14.1046 67.8954 15 69 15Z" fill="#997345"/>
<path d="M17 21C18.1046 21 19 20.1046 19 19C19 17.8954 18.1046 17 17 17C15.8954 17 15 17.8954 15 19C15 20.1046 15.8954 21 17 21Z" fill="#997345"/>
<path d="M25 21C26.1046 21 27 20.1046 27 19C27 17.8954 26.1046 17 25 17C23.8954 17 23 17.8954 23 19C23 20.1046 23.8954 21 25 21Z" fill="#997345"/>
<path d="M33 21C34.1046 21 35 20.1046 35 19C35 17.8954 34.1046 17 33 17C31.8954 17 31 17.8954 31 19C31 20.1046 31.8954 21 33 21Z" fill="#997345"/>
<path d="M41 21C42.1046 21 43 20.1046 43 19C43 17.8954 42.1046 17 41 17C39.8954 17 39 17.8954 39 19C39 20.1046 39.8954 21 41 21Z" fill="#997345"/>
<path d="M49 21C50.1046 21 51 20.1046 51 19C51 17.8954 50.1046 17 49 17C47.8954 17 47 17.8954 47 19C47 20.1046 47.8954 21 49 21Z" fill="#997345"/>
<path d="M57 21C58.1046 21 59 20.1046 59 19C59 17.8954 58.1046 17 57 17C55.8954 17 55 17.8954 55 19C55 20.1046 55.8954 21 57 21Z" fill="#997345"/>
<path d="M65 21C66.1046 21 67 20.1046 67 19C67 17.8954 66.1046 17 65 17C63.8954 17 63 17.8954 63 19C63 20.1046 63.8954 21 65 21Z" fill="#997345"/>
<path d="M13 27C14.1046 27 15 26.1046 15 25C15 23.8954 14.1046 23 13 23C11.8954 23 11 23.8954 11 25C11 26.1046 11.8954 27 13 27Z" fill="#997345"/>
<path d="M21 27C22.1046 27 23 26.1046 23 25C23 23.8954 22.1046 23 21 23C19.8954 23 19 23.8954 19 25C19 26.1046 19.8954 27 21 27Z" fill="#997345"/>
<path d="M29 27C30.1046 27 31 26.1046 31 25C31 23.8954 30.1046 23 29 23C27.8954 23 27 23.8954 27 25C27 26.1046 27.8954 27 29 27Z" fill="#997345"/>
<path d="M37 27C38.1046 27 39 26.1046 39 25C39 23.8954 38.1046 23 37 23C35.8954 23 35 23.8954 35 25C35 26.1046 35.8954 27 37 27Z" fill="#997345"/>
<path d="M45 27C46.1046 27 47 26.1046 47 25C47 23.8954 46.1046 23 45 23C43.8954 23 43 23.8954 43 25C43 26.1046 43.8954 27 45 27Z" fill="#997345"/>
<path d="M53 27C54.1046 27 55 26.1046 55 25C55 23.8954 54.1046 23 53 23C51.8954 23 51 23.8954 51 25C51 26.1046 51.8954 27 53 27Z" fill="#997345"/>
<path d="M61 27C62.1046 27 63 26.1046 63 25C63 23.8954 62.1046 23 61 23C59.8954 23 59 23.8954 59 25C59 26.1046 59.8954 27 61 27Z" fill="#997345"/>
<path d="M69 27C70.1046 27 71 26.1046 71 25C71 23.8954 70.1046 23 69 23C67.8954 23 67 23.8954 67 25C67 26.1046 67.8954 27 69 27Z" fill="#997345"/>
<path d="M17 33C18.1046 33 19 32.1046 19 31C19 29.8954 18.1046 29 17 29C15.8954 29 15 29.8954 15 31C15 32.1046 15.8954 33 17 33Z" fill="#997345"/>
<path d="M25 33C26.1046 33 27 32.1046 27 31C27 29.8954 26.1046 29 25 29C23.8954 29 23 29.8954 23 31C23 32.1046 23.8954 33 25 33Z" fill="#997345"/>
<path d="M33 33C34.1046 33 35 32.1046 35 31C35 29.8954 34.1046 29 33 29C31.8954 29 31 29.8954 31 31C31 32.1046 31.8954 33 33 33Z" fill="#997345"/>
<path d="M41 33C42.1046 33 43 32.1046 43 31C43 29.8954 42.1046 29 41 29C39.8954 29 39 29.8954 39 31C39 32.1046 39.8954 33 41 33Z" fill="#997345"/>
<path d="M49 33C50.1046 33 51 32.1046 51 31C51 29.8954 50.1046 29 49 29C47.8954 29 47 29.8954 47 31C47 32.1046 47.8954 33 49 33Z" fill="#997345"/>
<path d="M57 33C58.1046 33 59 32.1046 59 31C59 29.8954 58.1046 29 57 29C55.8954 29 55 29.8954 55 31C55 32.1046 55.8954 33 57 33Z" fill="#997345"/>
<path d="M65 33C66.1046 33 67 32.1046 67 31C67 29.8954 66.1046 29 65 29C63.8954 29 63 29.8954 63 31C63 32.1046 63.8954 33 65 33Z" fill="#997345"/>
<path d="M13 39C14.1046 39 15 38.1046 15 37C15 35.8954 14.1046 35 13 35C11.8954 35 11 35.8954 11 37C11 38.1046 11.8954 39 13 39Z" fill="#997345"/>
<path d="M21 39C22.1046 39 23 38.1046 23 37C23 35.8954 22.1046 35 21 35C19.8954 35 19 35.8954 19 37C19 38.1046 19.8954 39 21 39Z" fill="#997345"/>
<path d="M29 39C30.1046 39 31 38.1046 31 37C31 35.8954 30.1046 35 29 35C27.8954 35 27 35.8954 27 37C27 38.1046 27.8954 39 29 39Z" fill="#997345"/>
<path d="M37 39C38.1046 39 39 38.1046 39 37C39 35.8954 38.1046 35 37 35C35.8954 35 35 35.8954 35 37C35 38.1046 35.8954 39 37 39Z" fill="#997345"/>
<path d="M45 39C46.1046 39 47 38.1046 47 37C47 35.8954 46.1046 35 45 35C43.8954 35 43 35.8954 43 37C43 38.1046 43.8954 39 45 39Z" fill="#997345"/>
<path d="M53 39C54.1046 39 55 38.1046 55 37C55 35.8954 54.1046 35 53 35C51.8954 35 51 35.8954 51 37C51 38.1046 51.8954 39 53 39Z" fill="#997345"/>
<path d="M61 39C62.1046 39 63 38.1046 63 37C63 35.8954 62.1046 35 61 35C59.8954 35 59 35.8954 59 37C59 38.1046 59.8954 39 61 39Z" fill="#997345"/>
<path d="M69 39C70.1046 39 71 38.1046 71 37C71 35.8954 70.1046 35 69 35C67.8954 35 67 35.8954 67 37C67 38.1046 67.8954 39 69 39Z" fill="#997345"/>
<path d="M17 45C18.1046 45 19 44.1046 19 43C19 41.8954 18.1046 41 17 41C15.8954 41 15 41.8954 15 43C15 44.1046 15.8954 45 17 45Z" fill="#997345"/>
<path d="M25 45C26.1046 45 27 44.1046 27 43C27 41.8954 26.1046 41 25 41C23.8954 41 23 41.8954 23 43C23 44.1046 23.8954 45 25 45Z" fill="#997345"/>
<path d="M33 45C34.1046 45 35 44.1046 35 43C35 41.8954 34.1046 41 33 41C31.8954 41 31 41.8954 31 43C31 44.1046 31.8954 45 33 45Z" fill="#997345"/>
<path d="M41 45C42.1046 45 43 44.1046 43 43C43 41.8954 42.1046 41 41 41C39.8954 41 39 41.8954 39 43C39 44.1046 39.8954 45 41 45Z" fill="#997345"/>
<path d="M49 45C50.1046 45 51 44.1046 51 43C51 41.8954 50.1046 41 49 41C47.8954 41 47 41.8954 47 43C47 44.1046 47.8954 45 49 45Z" fill="#997345"/>
<path d="M57 45C58.1046 45 59 44.1046 59 43C59 41.8954 58.1046 41 57 41C55.8954 41 55 41.8954 55 43C55 44.1046 55.8954 45 57 45Z" fill="#997345"/>
<path d="M65 45C66.1046 45 67 44.1046 67 43C67 41.8954 66.1046 41 65 41C63.8954 41 63 41.8954 63 43C63 44.1046 63.8954 45 65 45Z" fill="#997345"/>
<path d="M13 51C14.1046 51 15 50.1046 15 49C15 47.8954 14.1046 47 13 47C11.8954 47 11 47.8954 11 49C11 50.1046 11.8954 51 13 51Z" fill="#997345"/>
<path d="M21 51C22.1046 51 23 50.1046 23 49C23 47.8954 22.1046 47 21 47C19.8954 47 19 47.8954 19 49C19 50.1046 19.8954 51 21 51Z" fill="#997345"/>
<path d="M29 51C30.1046 51 31 50.1046 31 49C31 47.8954 30.1046 47 29 47C27.8954 47 27 47.8954 27 49C27 50.1046 27.8954 51 29 51Z" fill="#997345"/>
<path d="M37 51C38.1046 51 39 50.1046 39 49C39 47.8954 38.1046 47 37 47C35.8954 47 35 47.8954 35 49C35 50.1046 35.8954 51 37 51Z" fill="#997345"/>
<path d="M45 51C46.1046 51 47 50.1046 47 49C47 47.8954 46.1046 47 45 47C43.8954 47 43 47.8954 43 49C43 50.1046 43.8954 51 45 51Z" fill="#997345"/>
<path d="M53 51C54.1046 51 55 50.1046 55 49C55 47.8954 54.1046 47 53 47C51.8954 47 51 47.8954 51 49C51 50.1046 51.8954 51 53 51Z" fill="#997345"/>
<path d="M61 51C62.1046 51 63 50.1046 63 49C63 47.8954 62.1046 47 61 47C59.8954 47 59 47.8954 59 49C59 50.1046 59.8954 51 61 51Z" fill="#997345"/>
<path d="M69 51C70.1046 51 71 50.1046 71 49C71 47.8954 70.1046 47 69 47C67.8954 47 67 47.8954 67 49C67 50.1046 67.8954 51 69 51Z" fill="#997345"/>
<path d="M17 57C18.1046 57 19 56.1046 19 55C19 53.8954 18.1046 53 17 53C15.8954 53 15 53.8954 15 55C15 56.1046 15.8954 57 17 57Z" fill="#997345"/>
<path d="M25 57C26.1046 57 27 56.1046 27 55C27 53.8954 26.1046 53 25 53C23.8954 53 23 53.8954 23 55C23 56.1046 23.8954 57 25 57Z" fill="#997345"/>
<path d="M33 57C34.1046 57 35 56.1046 35 55C35 53.8954 34.1046 53 33 53C31.8954 53 31 53.8954 31 55C31 56.1046 31.8954 57 33 57Z" fill="#997345"/>
<path d="M41 57C42.1046 57 43 56.1046 43 55C43 53.8954 42.1046 53 41 53C39.8954 53 39 53.8954 39 55C39 56.1046 39.8954 57 41 57Z" fill="#997345"/>
<path d="M49 57C50.1046 57 51 56.1046 51 55C51 53.8954 50.1046 53 49 53C47.8954 53 47 53.8954 47 55C47 56.1046 47.8954 57 49 57Z" fill="#997345"/>
<path d="M57 57C58.1046 57 59 56.1046 59 55C59 53.8954 58.1046 53 57 53C55.8954 53 55 53.8954 55 55C55 56.1046 55.8954 57 57 57Z" fill="#997345"/>
<path d="M65 57C66.1046 57 67 56.1046 67 55C67 53.8954 66.1046 53 65 53C63.8954 53 63 53.8954 63 55C63 56.1046 63.8954 57 65 57Z" fill="#997345"/>
<path d="M13 63C14.1046 63 15 62.1046 15 61C15 59.8954 14.1046 59 13 59C11.8954 59 11 59.8954 11 61C11 62.1046 11.8954 63 13 63Z" fill="#997345"/>
<path d="M21 63C22.1046 63 23 62.1046 23 61C23 59.8954 22.1046 59 21 59C19.8954 59 19 59.8954 19 61C19 62.1046 19.8954 63 21 63Z" fill="#997345"/>
<path d="M29 63C30.1046 63 31 62.1046 31 61C31 59.8954 30.1046 59 29 59C27.8954 59 27 59.8954 27 61C27 62.1046 27.8954 63 29 63Z" fill="#997345"/>
<path d="M37 63C38.1046 63 39 62.1046 39 61C39 59.8954 38.1046 59 37 59C35.8954 59 35 59.8954 35 61C35 62.1046 35.8954 63 37 63Z" fill="#997345"/>
<path d="M45 63C46.1046 63 47 62.1046 47 61C47 59.8954 46.1046 59 45 59C43.8954 59 43 59.8954 43 61C43 62.1046 43.8954 63 45 63Z" fill="#997345"/>
<path d="M53 63C54.1046 63 55 62.1046 55 61C55 59.8954 54.1046 59 53 59C51.8954 59 51 59.8954 51 61C51 62.1046 51.8954 63 53 63Z" fill="#997345"/>
<path d="M61 63C62.1046 63 63 62.1046 63 61C63 59.8954 62.1046 59 61 59C59.8954 59 59 59.8954 59 61C59 62.1046 59.8954 63 61 63Z" fill="#997345"/>
<path d="M69 63C70.1046 63 71 62.1046 71 61C71 59.8954 70.1046 59 69 59C67.8954 59 67 59.8954 67 61C67 62.1046 67.8954 63 69 63Z" fill="#997345"/>
<path d="M17 69C18.1046 69 19 68.1046 19 67C19 65.8954 18.1046 65 17 65C15.8954 65 15 65.8954 15 67C15 68.1046 15.8954 69 17 69Z" fill="#997345"/>
<path d="M25 69C26.1046 69 27 68.1046 27 67C27 65.8954 26.1046 65 25 65C23.8954 65 23 65.8954 23 67C23 68.1046 23.8954 69 25 69Z" fill="#997345"/>
<path d="M33 69C34.1046 69 35 68.1046 35 67C35 65.8954 34.1046 65 33 65C31.8954 65 31 65.8954 31 67C31 68.1046 31.8954 69 33 69Z" fill="#997345"/>
<path d="M41 69C42.1046 69 43 68.1046 43 67C43 65.8954 42.1046 65 41 65C39.8954 65 39 65.8954 39 67C39 68.1046 39.8954 69 41 69Z" fill="#997345"/>
<path d="M49 69C50.1046 69 51 68.1046 51 67C51 65.8954 50.1046 65 49 65C47.8954 65 47 65.8954 47 67C47 68.1046 47.8954 69 49 69Z" fill="#997345"/>
<path d="M57 69C58.1046 69 59 68.1046 59 67C59 65.8954 58.1046 65 57 65C55.8954 65 55 65.8954 55 67C55 68.1046 55.8954 69 57 69Z" fill="#997345"/>
<path d="M65 69C66.1046 69 67 68.1046 67 67C67 65.8954 66.1046 65 65 65C63.8954 65 63 65.8954 63 67C63 68.1046 63.8954 69 65 69Z" fill="#997345"/>
<path d="M13 75C14.1046 75 15 74.1046 15 73C15 71.8954 14.1046 71 13 71C11.8954 71 11 71.8954 11 73C11 74.1046 11.8954 75 13 75Z" fill="#997345"/>
<path d="M21 75C22.1046 75 23 74.1046 23 73C23 71.8954 22.1046 71 21 71C19.8954 71 19 71.8954 19 73C19 74.1046 19.8954 75 21 75Z" fill="#997345"/>
<path d="M29 75C30.1046 75 31 74.1046 31 73C31 71.8954 30.1046 71 29 71C27.8954 71 27 71.8954 27 73C27 74.1046 27.8954 75 29 75Z" fill="#997345"/>
<path d="M37 75C38.1046 75 39 74.1046 39 73C39 71.8954 38.1046 71 37 71C35.8954 71 35 71.8954 35 73C35 74.1046 35.8954 75 37 75Z" fill="#997345"/>
<path d="M45 75C46.1046 75 47 74.1046 47 73C47 71.8954 46.1046 71 45 71C43.8954 71 43 71.8954 43 73C43 74.1046 43.8954 75 45 75Z" fill="#997345"/>
<path d="M53 75C54.1046 75 55 74.1046 55 73C55 71.8954 54.1046 71 53 71C51.8954 71 51 71.8954 51 73C51 74.1046 51.8954 75 53 75Z" fill="#997345"/>
<path d="M61 75C62.1046 75 63 74.1046 63 73C63 71.8954 62.1046 71 61 71C59.8954 71 59 71.8954 59 73C59 74.1046 59.8954 75 61 75Z" fill="#997345"/>
<path d="M69 75C70.1046 75 71 74.1046 71 73C71 71.8954 70.1046 71 69 71C67.8954 71 67 71.8954 67 73C67 74.1046 67.8954 75 69 75Z" fill="#997345"/>
<path d="M17 81C18.1046 81 19 80.1046 19 79C19 77.8954 18.1046 77 17 77C15.8954 77 15 77.8954 15 79C15 80.1046 15.8954 81 17 81Z" fill="#997345"/>
<path d="M25 81C26.1046 81 27 80.1046 27 79C27 77.8954 26.1046 77 25 77C23.8954 77 23 77.8954 23 79C23 80.1046 23.8954 81 25 81Z" fill="#997345"/>
<path d="M33 81C34.1046 81 35 80.1046 35 79C35 77.8954 34.1046 77 33 77C31.8954 77 31 77.8954 31 79C31 80.1046 31.8954 81 33 81Z" fill="#997345"/>
<path d="M41 81C42.1046 81 43 80.1046 43 79C43 77.8954 42.1046 77 41 77C39.8954 77 39 77.8954 39 79C39 80.1046 39.8954 81 41 81Z" fill="#997345"/>
<path d="M49 81C50.1046 81 51 80.1046 51 79C51 77.8954 50.1046 77 49 77C47.8954 77 47 77.8954 47 79C47 80.1046 47.8954 81 49 81Z" fill="#997345"/>
<path d="M57 81C58.1046 81 59 80.1046 59 79C59 77.8954 58.1046 77 57 77C55.8954 77 55 77.8954 55 79C55 80.1046 55.8954 81 57 81Z" fill="#997345"/>
<path d="M65 81C66.1046 81 67 80.1046 67 79C67 77.8954 66.1046 77 65 77C63.8954 77 63 77.8954 63 79C63 80.1046 63.8954 81 65 81Z" fill="#997345"/>
<path d="M13 87C14.1046 87 15 86.1046 15 85C15 83.8954 14.1046 83 13 83C11.8954 83 11 83.8954 11 85C11 86.1046 11.8954 87 13 87Z" fill="#997345"/>
<path d="M21 87C22.1046 87 23 86.1046 23 85C23 83.8954 22.1046 83 21 83C19.8954 83 19 83.8954 19 85C19 86.1046 19.8954 87 21 87Z" fill="#997345"/>
<path d="M29 87C30.1046 87 31 86.1046 31 85C31 83.8954 30.1046 83 29 83C27.8954 83 27 83.8954 27 85C27 86.1046 27.8954 87 29 87Z" fill="#997345"/>
<path d="M37 87C38.1046 87 39 86.1046 39 85C39 83.8954 38.1046 83 37 83C35.8954 83 35 83.8954 35 85C35 86.1046 35.8954 87 37 87Z" fill="#997345"/>
<path d="M45 87C46.1046 87 47 86.1046 47 85C47 83.8954 46.1046 83 45 83C43.8954 83 43 83.8954 43 85C43 86.1046 43.8954 87 45 87Z" fill="#997345"/>
<path d="M53 87C54.1046 87 55 86.1046 55 85C55 83.8954 54.1046 83 53 83C51.8954 83 51 83.8954 51 85C51 86.1046 51.8954 87 53 87Z" fill="#997345"/>
<path d="M61 87C62.1046 87 63 86.1046 63 85C63 83.8954 62.1046 83 61 83C59.8954 83 59 83.8954 59 85C59 86.1046 59.8954 87 61 87Z" fill="#997345"/>
<path d="M69 87C70.1046 87 71 86.1046 71 85C71 83.8954 70.1046 83 69 83C67.8954 83 67 83.8954 67 85C67 86.1046 67.8954 87 69 87Z" fill="#997345"/>
<path d="M17 93C18.1046 93 19 92.1046 19 91C19 89.8954 18.1046 89 17 89C15.8954 89 15 89.8954 15 91C15 92.1046 15.8954 93 17 93Z" fill="#997345"/>
<path d="M25 93C26.1046 93 27 92.1046 27 91C27 89.8954 26.1046 89 25 89C23.8954 89 23 89.8954 23 91C23 92.1046 23.8954 93 25 93Z" fill="#997345"/>
<path d="M33 93C34.1046 93 35 92.1046 35 91C35 89.8954 34.1046 89 33 89C31.8954 89 31 89.8954 31 91C31 92.1046 31.8954 93 33 93Z" fill="#997345"/>
<path d="M41 93C42.1046 93 43 92.1046 43 91C43 89.8954 42.1046 89 41 89C39.8954 89 39 89.8954 39 91C39 92.1046 39.8954 93 41 93Z" fill="#997345"/>
<path d="M49 93C50.1046 93 51 92.1046 51 91C51 89.8954 50.1046 89 49 89C47.8954 89 47 89.8954 47 91C47 92.1046 47.8954 93 49 93Z" fill="#997345"/>
<path d="M57 93C58.1046 93 59 92.1046 59 91C59 89.8954 58.1046 89 57 89C55.8954 89 55 89.8954 55 91C55 92.1046 55.8954 93 57 93Z" fill="#997345"/>
<path d="M65 93C66.1046 93 67 92.1046 67 91C67 89.8954 66.1046 89 65 89C63.8954 89 63 89.8954 63 91C63 92.1046 63.8954 93 65 93Z" fill="#997345"/>
<path d="M13 99C14.1046 99 15 98.1046 15 97C15 95.8954 14.1046 95 13 95C11.8954 95 11 95.8954 11 97C11 98.1046 11.8954 99 13 99Z" fill="#997345"/>
<path d="M21 99C22.1046 99 23 98.1046 23 97C23 95.8954 22.1046 95 21 95C19.8954 95 19 95.8954 19 97C19 98.1046 19.8954 99 21 99Z" fill="#997345"/>
<path d="M29 99C30.1046 99 31 98.1046 31 97C31 95.8954 30.1046 95 29 95C27.8954 95 27 95.8954 27 97C27 98.1046 27.8954 99 29 99Z" fill="#997345"/>
<path d="M37 99C38.1046 99 39 98.1046 39 97C39 95.8954 38.1046 95 37 95C35.8954 95 35 95.8954 35 97C35 98.1046 35.8954 99 37 99Z" fill="#997345"/>
<path d="M45 99C46.1046 99 47 98.1046 47 97C47 95.8954 46.1046 95 45 95C43.8954 95 43 95.8954 43 97C43 98.1046 43.8954 99 45 99Z" fill="#997345"/>
<path d="M53 99C54.1046 99 55 98.1046 55 97C55 95.8954 54.1046 95 53 95C51.8954 95 51 95.8954 51 97C51 98.1046 51.8954 99 53 99Z" fill="#997345"/>
<path d="M61 99C62.1046 99 63 98.1046 63 97C63 95.8954 62.1046 95 61 95C59.8954 95 59 95.8954 59 97C59 98.1046 59.8954 99 61 99Z" fill="#997345"/>
<path d="M69 99C70.1046 99 71 98.1046 71 97C71 95.8954 70.1046 95 69 95C67.8954 95 67 95.8954 67 97C67 98.1046 67.8954 99 69 99Z" fill="#997345"/>
<path d="M17 105C18.1046 105 19 104.105 19 103C19 101.895 18.1046 101 17 101C15.8954 101 15 101.895 15 103C15 104.105 15.8954 105 17 105Z" fill="#997345"/>
<path d="M25 105C26.1046 105 27 104.105 27 103C27 101.895 26.1046 101 25 101C23.8954 101 23 101.895 23 103C23 104.105 23.8954 105 25 105Z" fill="#997345"/>
<path d="M33 105C34.1046 105 35 104.105 35 103C35 101.895 34.1046 101 33 101C31.8954 101 31 101.895 31 103C31 104.105 31.8954 105 33 105Z" fill="#997345"/>
<path d="M41 105C42.1046 105 43 104.105 43 103C43 101.895 42.1046 101 41 101C39.8954 101 39 101.895 39 103C39 104.105 39.8954 105 41 105Z" fill="#997345"/>
<path d="M49 105C50.1046 105 51 104.105 51 103C51 101.895 50.1046 101 49 101C47.8954 101 47 101.895 47 103C47 104.105 47.8954 105 49 105Z" fill="#997345"/>
<path d="M57 105C58.1046 105 59 104.105 59 103C59 101.895 58.1046 101 57 101C55.8954 101 55 101.895 55 103C55 104.105 55.8954 105 57 105Z" fill="#997345"/>
<path d="M65 105C66.1046 105 67 104.105 67 103C67 101.895 66.1046 101 65 101C63.8954 101 63 101.895 63 103C63 104.105 63.8954 105 65 105Z" fill="#997345"/>
<path d="M13 111C14.1046 111 15 110.105 15 109C15 107.895 14.1046 107 13 107C11.8954 107 11 107.895 11 109C11 110.105 11.8954 111 13 111Z" fill="#997345"/>
<path d="M21 111C22.1046 111 23 110.105 23 109C23 107.895 22.1046 107 21 107C19.8954 107 19 107.895 19 109C19 110.105 19.8954 111 21 111Z" fill="#997345"/>
<path d="M29 111C30.1046 111 31 110.105 31 109C31 107.895 30.1046 107 29 107C27.8954 107 27 107.895 27 109C27 110.105 27.8954 111 29 111Z" fill="#997345"/>
<path d="M37 111C38.1046 111 39 110.105 39 109C39 107.895 38.1046 107 37 107C35.8954 107 35 107.895 35 109C35 110.105 35.8954 111 37 111Z" fill="#997345"/>
<path d="M45 111C46.1046 111 47 110.105 47 109C47 107.895 46.1046 107 45 107C43.8954 107 43 107.895 43 109C43 110.105 43.8954 111 45 111Z" fill="#997345"/>
<path d="M53 111C54.1046 111 55 110.105 55 109C55 107.895 54.1046 107 53 107C51.8954 107 51 107.895 51 109C51 110.105 51.8954 111 53 111Z" fill="#997345"/>
<path d="M61 111C62.1046 111 63 110.105 63 109C63 107.895 62.1046 107 61 107C59.8954 107 59 107.895 59 109C59 110.105 59.8954 111 61 111Z" fill="#997345"/>
<path d="M69 111C70.1046 111 71 110.105 71 109C71 107.895 70.1046 107 69 107C67.8954 107 67 107.895 67 109C67 110.105 67.8954 111 69 111Z" fill="#997345"/>
<path d="M17 117C18.1046 117 19 116.105 19 115C19 113.895 18.1046 113 17 113C15.8954 113 15 113.895 15 115C15 116.105 15.8954 117 17 117Z" fill="#997345"/>
<path d="M25 117C26.1046 117 27 116.105 27 115C27 113.895 26.1046 113 25 113C23.8954 113 23 113.895 23 115C23 116.105 23.8954 117 25 117Z" fill="#997345"/>
<path d="M33 117C34.1046 117 35 116.105 35 115C35 113.895 34.1046 113 33 113C31.8954 113 31 113.895 31 115C31 116.105 31.8954 117 33 117Z" fill="#997345"/>
<path d="M41 117C42.1046 117 43 116.105 43 115C43 113.895 42.1046 113 41 113C39.8954 113 39 113.895 39 115C39 116.105 39.8954 117 41 117Z" fill="#997345"/>
<path d="M49 117C50.1046 117 51 116.105 51 115C51 113.895 50.1046 113 49 113C47.8954 113 47 113.895 47 115C47 116.105 47.8954 117 49 117Z" fill="#997345"/>
<path d="M57 117C58.1046 117 59 116.105 59 115C59 113.895 58.1046 113 57 113C55.8954 113 55 113.895 55 115C55 116.105 55.8954 117 57 117Z" fill="#997345"/>
<path d="M65 117C66.1046 117 67 116.105 67 115C67 113.895 66.1046 113 65 113C63.8954 113 63 113.895 63 115C63 116.105 63.8954 117 65 117Z" fill="#997345"/>
<path d="M13 123C14.1046 123 15 122.105 15 121C15 119.895 14.1046 119 13 119C11.8954 119 11 119.895 11 121C11 122.105 11.8954 123 13 123Z" fill="#997345"/>
<path d="M21 123C22.1046 123 23 122.105 23 121C23 119.895 22.1046 119 21 119C19.8954 119 19 119.895 19 121C19 122.105 19.8954 123 21 123Z" fill="#997345"/>
<path d="M29 123C30.1046 123 31 122.105 31 121C31 119.895 30.1046 119 29 119C27.8954 119 27 119.895 27 121C27 122.105 27.8954 123 29 123Z" fill="#997345"/>
<path d="M37 123C38.1046 123 39 122.105 39 121C39 119.895 38.1046 119 37 119C35.8954 119 35 119.895 35 121C35 122.105 35.8954 123 37 123Z" fill="#997345"/>
<path d="M45 123C46.1046 123 47 122.105 47 121C47 119.895 46.1046 119 45 119C43.8954 119 43 119.895 43 121C43 122.105 43.8954 123 45 123Z" fill="#997345"/>
<path d="M53 123C54.1046 123 55 122.105 55 121C55 119.895 54.1046 119 53 119C51.8954 119 51 119.895 51 121C51 122.105 51.8954 123 53 123Z" fill="#997345"/>
<path d="M61 123C62.1046 123 63 122.105 63 121C63 119.895 62.1046 119 61 119C59.8954 119 59 119.895 59 121C59 122.105 59.8954 123 61 123Z" fill="#997345"/>
<path d="M69 123C70.1046 123 71 122.105 71 121C71 119.895 70.1046 119 69 119C67.8954 119 67 119.895 67 121C67 122.105 67.8954 123 69 123Z" fill="#997345"/>
<path d="M17 129C18.1046 129 19 128.105 19 127C19 125.895 18.1046 125 17 125C15.8954 125 15 125.895 15 127C15 128.105 15.8954 129 17 129Z" fill="#997345"/>
<path d="M25 129C26.1046 129 27 128.105 27 127C27 125.895 26.1046 125 25 125C23.8954 125 23 125.895 23 127C23 128.105 23.8954 129 25 129Z" fill="#997345"/>
<path d="M33 129C34.1046 129 35 128.105 35 127C35 125.895 34.1046 125 33 125C31.8954 125 31 125.895 31 127C31 128.105 31.8954 129 33 129Z" fill="#997345"/>
<path d="M41 129C42.1046 129 43 128.105 43 127C43 125.895 42.1046 125 41 125C39.8954 125 39 125.895 39 127C39 128.105 39.8954 129 41 129Z" fill="#997345"/>
<path d="M49 129C50.1046 129 51 128.105 51 127C51 125.895 50.1046 125 49 125C47.8954 125 47 125.895 47 127C47 128.105 47.8954 129 49 129Z" fill="#997345"/>
<path d="M57 129C58.1046 129 59 128.105 59 127C59 125.895 58.1046 125 57 125C55.8954 125 55 125.895 55 127C55 128.105 55.8954 129 57 129Z" fill="#997345"/>
<path d="M65 129C66.1046 129 67 128.105 67 127C67 125.895 66.1046 125 65 125C63.8954 125 63 125.895 63 127C63 128.105 63.8954 129 65 129Z" fill="#997345"/>
<path d="M13 135C14.1046 135 15 134.105 15 133C15 131.895 14.1046 131 13 131C11.8954 131 11 131.895 11 133C11 134.105 11.8954 135 13 135Z" fill="#997345"/>
<path d="M21 135C22.1046 135 23 134.105 23 133C23 131.895 22.1046 131 21 131C19.8954 131 19 131.895 19 133C19 134.105 19.8954 135 21 135Z" fill="#997345"/>
<path d="M29 135C30.1046 135 31 134.105 31 133C31 131.895 30.1046 131 29 131C27.8954 131 27 131.895 27 133C27 134.105 27.8954 135 29 135Z" fill="#997345"/>
<path d="M37 135C38.1046 135 39 134.105 39 133C39 131.895 38.1046 131 37 131C35.8954 131 35 131.895 35 133C35 134.105 35.8954 135 37 135Z" fill="#997345"/>
<path d="M45 135C46.1046 135 47 134.105 47 133C47 131.895 46.1046 131 45 131C43.8954 131 43 131.895 43 133C43 134.105 43.8954 135 45 135Z" fill="#997345"/>
<path d="M53 135C54.1046 135 55 134.105 55 133C55 131.895 54.1046 131 53 131C51.8954 131 51 131.895 51 133C51 134.105 51.8954 135 53 135Z" fill="#997345"/>
<path d="M61 135C62.1046 135 63 134.105 63 133C63 131.895 62.1046 131 61 131C59.8954 131 59 131.895 59 133C59 134.105 59.8954 135 61 135Z" fill="#997345"/>
<path d="M69 135C70.1046 135 71 134.105 71 133C71 131.895 70.1046 131 69 131C67.8954 131 67 131.895 67 133C67 134.105 67.8954 135 69 135Z" fill="#997345"/>
<path d="M17 141C18.1046 141 19 140.105 19 139C19 137.895 18.1046 137 17 137C15.8954 137 15 137.895 15 139C15 140.105 15.8954 141 17 141Z" fill="#997345"/>
<path d="M25 141C26.1046 141 27 140.105 27 139C27 137.895 26.1046 137 25 137C23.8954 137 23 137.895 23 139C23 140.105 23.8954 141 25 141Z" fill="#997345"/>
<path d="M33 141C34.1046 141 35 140.105 35 139C35 137.895 34.1046 137 33 137C31.8954 137 31 137.895 31 139C31 140.105 31.8954 141 33 141Z" fill="#997345"/>
<path d="M41 141C42.1046 141 43 140.105 43 139C43 137.895 42.1046 137 41 137C39.8954 137 39 137.895 39 139C39 140.105 39.8954 141 41 141Z" fill="#997345"/>
<path d="M49 141C50.1046 141 51 140.105 51 139C51 137.895 50.1046 137 49 137C47.8954 137 47 137.895 47 139C47 140.105 47.8954 141 49 141Z" fill="#997345"/>
<path d="M57 141C58.1046 141 59 140.105 59 139C59 137.895 58.1046 137 57 137C55.8954 137 55 137.895 55 139C55 140.105 55.8954 141 57 141Z" fill="#997345"/>
<path d="M65 141C66.1046 141 67 140.105 67 139C67 137.895 66.1046 137 65 137C63.8954 137 63 137.895 63 139C63 140.105 63.8954 141 65 141Z" fill="#997345"/>
<path d="M13 147C14.1046 147 15 146.105 15 145C15 143.895 14.1046 143 13 143C11.8954 143 11 143.895 11 145C11 146.105 11.8954 147 13 147Z" fill="#997345"/>
<path d="M21 147C22.1046 147 23 146.105 23 145C23 143.895 22.1046 143 21 143C19.8954 143 19 143.895 19 145C19 146.105 19.8954 147 21 147Z" fill="#997345"/>
<path d="M29 147C30.1046 147 31 146.105 31 145C31 143.895 30.1046 143 29 143C27.8954 143 27 143.895 27 145C27 146.105 27.8954 147 29 147Z" fill="#997345"/>
<path d="M37 147C38.1046 147 39 146.105 39 145C39 143.895 38.1046 143 37 143C35.8954 143 35 143.895 35 145C35 146.105 35.8954 147 37 147Z" fill="#997345"/>
<path d="M45 147C46.1046 147 47 146.105 47 145C47 143.895 46.1046 143 45 143C43.8954 143 43 143.895 43 145C43 146.105 43.8954 147 45 147Z" fill="#997345"/>
<path d="M53 147C54.1046 147 55 146.105 55 145C55 143.895 54.1046 143 53 143C51.8954 143 51 143.895 51 145C51 146.105 51.8954 147 53 147Z" fill="#997345"/>
<path d="M61 147C62.1046 147 63 146.105 63 145C63 143.895 62.1046 143 61 143C59.8954 143 59 143.895 59 145C59 146.105 59.8954 147 61 147Z" fill="#997345"/>
<path d="M69 147C70.1046 147 71 146.105 71 145C71 143.895 70.1046 143 69 143C67.8954 143 67 143.895 67 145C67 146.105 67.8954 147 69 147Z" fill="#997345"/>
<path d="M17 153C18.1046 153 19 152.105 19 151C19 149.895 18.1046 149 17 149C15.8954 149 15 149.895 15 151C15 152.105 15.8954 153 17 153Z" fill="#997345"/>
<path d="M25 153C26.1046 153 27 152.105 27 151C27 149.895 26.1046 149 25 149C23.8954 149 23 149.895 23 151C23 152.105 23.8954 153 25 153Z" fill="#997345"/>
<path d="M33 153C34.1046 153 35 152.105 35 151C35 149.895 34.1046 149 33 149C31.8954 149 31 149.895 31 151C31 152.105 31.8954 153 33 153Z" fill="#997345"/>
<path d="M41 153C42.1046 153 43 152.105 43 151C43 149.895 42.1046 149 41 149C39.8954 149 39 149.895 39 151C39 152.105 39.8954 153 41 153Z" fill="#997345"/>
<path d="M49 153C50.1046 153 51 152.105 51 151C51 149.895 50.1046 149 49 149C47.8954 149 47 149.895 47 151C47 152.105 47.8954 153 49 153Z" fill="#997345"/>
<path d="M57 153C58.1046 153 59 152.105 59 151C59 149.895 58.1046 149 57 149C55.8954 149 55 149.895 55 151C55 152.105 55.8954 153 57 153Z" fill="#997345"/>
<path d="M65 153C66.1046 153 67 152.105 67 151C67 149.895 66.1046 149 65 149C63.8954 149 63 149.895 63 151C63 152.105 63.8954 153 65 153Z" fill="#997345"/>
<path d="M13 159C14.1046 159 15 158.105 15 157C15 155.895 14.1046 155 13 155C11.8954 155 11 155.895 11 157C11 158.105 11.8954 159 13 159Z" fill="#997345"/>
<path d="M21 159C22.1046 159 23 158.105 23 157C23 155.895 22.1046 155 21 155C19.8954 155 19 155.895 19 157C19 158.105 19.8954 159 21 159Z" fill="#997345"/>
<path d="M29 159C30.1046 159 31 158.105 31 157C31 155.895 30.1046 155 29 155C27.8954 155 27 155.895 27 157C27 158.105 27.8954 159 29 159Z" fill="#997345"/>
<path d="M37 159C38.1046 159 39 158.105 39 157C39 155.895 38.1046 155 37 155C35.8954 155 35 155.895 35 157C35 158.105 35.8954 159 37 159Z" fill="#997345"/>
<path d="M45 159C46.1046 159 47 158.105 47 157C47 155.895 46.1046 155 45 155C43.8954 155 43 155.895 43 157C43 158.105 43.8954 159 45 159Z" fill="#997345"/>
<path d="M53 159C54.1046 159 55 158.105 55 157C55 155.895 54.1046 155 53 155C51.8954 155 51 155.895 51 157C51 158.105 51.8954 159 53 159Z" fill="#997345"/>
<path d="M61 159C62.1046 159 63 158.105 63 157C63 155.895 62.1046 155 61 155C59.8954 155 59 155.895 59 157C59 158.105 59.8954 159 61 159Z" fill="#997345"/>
<path d="M69 159C70.1046 159 71 158.105 71 157C71 155.895 70.1046 155 69 155C67.8954 155 67 155.895 67 157C67 158.105 67.8954 159 69 159Z" fill="#997345"/>
<path d="M17 165C18.1046 165 19 164.105 19 163C19 161.895 18.1046 161 17 161C15.8954 161 15 161.895 15 163C15 164.105 15.8954 165 17 165Z" fill="#997345"/>
<path d="M25 165C26.1046 165 27 164.105 27 163C27 161.895 26.1046 161 25 161C23.8954 161 23 161.895 23 163C23 164.105 23.8954 165 25 165Z" fill="#997345"/>
<path d="M33 165C34.1046 165 35 164.105 35 163C35 161.895 34.1046 161 33 161C31.8954 161 31 161.895 31 163C31 164.105 31.8954 165 33 165Z" fill="#997345"/>
<path d="M41 165C42.1046 165 43 164.105 43 163C43 161.895 42.1046 161 41 161C39.8954 161 39 161.895 39 163C39 164.105 39.8954 165 41 165Z" fill="#997345"/>
<path d="M49 165C50.1046 165 51 164.105 51 163C51 161.895 50.1046 161 49 161C47.8954 161 47 161.895 47 163C47 164.105 47.8954 165 49 165Z" fill="#997345"/>
<path d="M57 165C58.1046 165 59 164.105 59 163C59 161.895 58.1046 161 57 161C55.8954 161 55 161.895 55 163C55 164.105 55.8954 165 57 165Z" fill="#997345"/>
<path d="M65 165C66.1046 165 67 164.105 67 163C67 161.895 66.1046 161 65 161C63.8954 161 63 161.895 63 163C63 164.105 63.8954 165 65 165Z" fill="#997345"/>
<path d="M13 171C14.1046 171 15 170.105 15 169C15 167.895 14.1046 167 13 167C11.8954 167 11 167.895 11 169C11 170.105 11.8954 171 13 171Z" fill="#997345"/>
<path d="M21 171C22.1046 171 23 170.105 23 169C23 167.895 22.1046 167 21 167C19.8954 167 19 167.895 19 169C19 170.105 19.8954 171 21 171Z" fill="#997345"/>
<path d="M29 171C30.1046 171 31 170.105 31 169C31 167.895 30.1046 167 29 167C27.8954 167 27 167.895 27 169C27 170.105 27.8954 171 29 171Z" fill="#997345"/>
<path d="M37 171C38.1046 171 39 170.105 39 169C39 167.895 38.1046 167 37 167C35.8954 167 35 167.895 35 169C35 170.105 35.8954 171 37 171Z" fill="#997345"/>
<path d="M45 171C46.1046 171 47 170.105 47 169C47 167.895 46.1046 167 45 167C43.8954 167 43 167.895 43 169C43 170.105 43.8954 171 45 171Z" fill="#997345"/>
<path d="M53 171C54.1046 171 55 170.105 55 169C55 167.895 54.1046 167 53 167C51.8954 167 51 167.895 51 169C51 170.105 51.8954 171 53 171Z" fill="#997345"/>
<path d="M61 171C62.1046 171 63 170.105 63 169C63 167.895 62.1046 167 61 167C59.8954 167 59 167.895 59 169C59 170.105 59.8954 171 61 171Z" fill="#997345"/>
<path d="M69 171C70.1046 171 71 170.105 71 169C71 167.895 70.1046 167 69 167C67.8954 167 67 167.895 67 169C67 170.105 67.8954 171 69 171Z" fill="#997345"/>
<path d="M17 177C18.1046 177 19 176.105 19 175C19 173.895 18.1046 173 17 173C15.8954 173 15 173.895 15 175C15 176.105 15.8954 177 17 177Z" fill="#997345"/>
<path d="M25 177C26.1046 177 27 176.105 27 175C27 173.895 26.1046 173 25 173C23.8954 173 23 173.895 23 175C23 176.105 23.8954 177 25 177Z" fill="#997345"/>
<path d="M33 177C34.1046 177 35 176.105 35 175C35 173.895 34.1046 173 33 173C31.8954 173 31 173.895 31 175C31 176.105 31.8954 177 33 177Z" fill="#997345"/>
<path d="M41 177C42.1046 177 43 176.105 43 175C43 173.895 42.1046 173 41 173C39.8954 173 39 173.895 39 175C39 176.105 39.8954 177 41 177Z" fill="#997345"/>
<path d="M49 177C50.1046 177 51 176.105 51 175C51 173.895 50.1046 173 49 173C47.8954 173 47 173.895 47 175C47 176.105 47.8954 177 49 177Z" fill="#997345"/>
<path d="M57 177C58.1046 177 59 176.105 59 175C59 173.895 58.1046 173 57 173C55.8954 173 55 173.895 55 175C55 176.105 55.8954 177 57 177Z" fill="#997345"/>
<path d="M65 177C66.1046 177 67 176.105 67 175C67 173.895 66.1046 173 65 173C63.8954 173 63 173.895 63 175C63 176.105 63.8954 177 65 177Z" fill="#997345"/>
<path d="M13 183C14.1046 183 15 182.105 15 181C15 179.895 14.1046 179 13 179C11.8954 179 11 179.895 11 181C11 182.105 11.8954 183 13 183Z" fill="#997345"/>
<path d="M21 183C22.1046 183 23 182.105 23 181C23 179.895 22.1046 179 21 179C19.8954 179 19 179.895 19 181C19 182.105 19.8954 183 21 183Z" fill="#997345"/>
<path d="M29 183C30.1046 183 31 182.105 31 181C31 179.895 30.1046 179 29 179C27.8954 179 27 179.895 27 181C27 182.105 27.8954 183 29 183Z" fill="#997345"/>
<path d="M37 183C38.1046 183 39 182.105 39 181C39 179.895 38.1046 179 37 179C35.8954 179 35 179.895 35 181C35 182.105 35.8954 183 37 183Z" fill="#997345"/>
<path d="M45 183C46.1046 183 47 182.105 47 181C47 179.895 46.1046 179 45 179C43.8954 179 43 179.895 43 181C43 182.105 43.8954 183 45 183Z" fill="#997345"/>
<path d="M53 183C54.1046 183 55 182.105 55 181C55 179.895 54.1046 179 53 179C51.8954 179 51 179.895 51 181C51 182.105 51.8954 183 53 183Z" fill="#997345"/>
<path d="M61 183C62.1046 183 63 182.105 63 181C63 179.895 62.1046 179 61 179C59.8954 179 59 179.895 59 181C59 182.105 59.8954 183 61 183Z" fill="#997345"/>
<path d="M69 183C70.1046 183 71 182.105 71 181C71 179.895 70.1046 179 69 179C67.8954 179 67 179.895 67 181C67 182.105 67.8954 183 69 183Z" fill="#997345"/>
<path d="M17 189C18.1046 189 19 188.105 19 187C19 185.895 18.1046 185 17 185C15.8954 185 15 185.895 15 187C15 188.105 15.8954 189 17 189Z" fill="#997345"/>
<path d="M25 189C26.1046 189 27 188.105 27 187C27 185.895 26.1046 185 25 185C23.8954 185 23 185.895 23 187C23 188.105 23.8954 189 25 189Z" fill="#997345"/>
<path d="M33 189C34.1046 189 35 188.105 35 187C35 185.895 34.1046 185 33 185C31.8954 185 31 185.895 31 187C31 188.105 31.8954 189 33 189Z" fill="#997345"/>
<path d="M41 189C42.1046 189 43 188.105 43 187C43 185.895 42.1046 185 41 185C39.8954 185 39 185.895 39 187C39 188.105 39.8954 189 41 189Z" fill="#997345"/>
<path d="M49 189C50.1046 189 51 188.105 51 187C51 185.895 50.1046 185 49 185C47.8954 185 47 185.895 47 187C47 188.105 47.8954 189 49 189Z" fill="#997345"/>
<path d="M57 189C58.1046 189 59 188.105 59 187C59 185.895 58.1046 185 57 185C55.8954 185 55 185.895 55 187C55 188.105 55.8954 189 57 189Z" fill="#997345"/>
<path d="M65 189C66.1046 189 67 188.105 67 187C67 185.895 66.1046 185 65 185C63.8954 185 63 185.895 63 187C63 188.105 63.8954 189 65 189Z" fill="#997345"/>
<path d="M13 195C14.1046 195 15 194.105 15 193C15 191.895 14.1046 191 13 191C11.8954 191 11 191.895 11 193C11 194.105 11.8954 195 13 195Z" fill="#997345"/>
<path d="M21 195C22.1046 195 23 194.105 23 193C23 191.895 22.1046 191 21 191C19.8954 191 19 191.895 19 193C19 194.105 19.8954 195 21 195Z" fill="#997345"/>
<path d="M29 195C30.1046 195 31 194.105 31 193C31 191.895 30.1046 191 29 191C27.8954 191 27 191.895 27 193C27 194.105 27.8954 195 29 195Z" fill="#997345"/>
<path d="M37 195C38.1046 195 39 194.105 39 193C39 191.895 38.1046 191 37 191C35.8954 191 35 191.895 35 193C35 194.105 35.8954 195 37 195Z" fill="#997345"/>
<path d="M45 195C46.1046 195 47 194.105 47 193C47 191.895 46.1046 191 45 191C43.8954 191 43 191.895 43 193C43 194.105 43.8954 195 45 195Z" fill="#997345"/>
<path d="M53 195C54.1046 195 55 194.105 55 193C55 191.895 54.1046 191 53 191C51.8954 191 51 191.895 51 193C51 194.105 51.8954 195 53 195Z" fill="#997345"/>
<path d="M61 195C62.1046 195 63 194.105 63 193C63 191.895 62.1046 191 61 191C59.8954 191 59 191.895 59 193C59 194.105 59.8954 195 61 195Z" fill="#997345"/>
<path d="M69 195C70.1046 195 71 194.105 71 193C71 191.895 70.1046 191 69 191C67.8954 191 67 191.895 67 193C67 194.105 67.8954 195 69 195Z" fill="#997345"/>
<path d="M17 201C18.1046 201 19 200.105 19 199C19 197.895 18.1046 197 17 197C15.8954 197 15 197.895 15 199C15 200.105 15.8954 201 17 201Z" fill="#997345"/>
<path d="M25 201C26.1046 201 27 200.105 27 199C27 197.895 26.1046 197 25 197C23.8954 197 23 197.895 23 199C23 200.105 23.8954 201 25 201Z" fill="#997345"/>
<path d="M33 201C34.1046 201 35 200.105 35 199C35 197.895 34.1046 197 33 197C31.8954 197 31 197.895 31 199C31 200.105 31.8954 201 33 201Z" fill="#997345"/>
<path d="M41 201C42.1046 201 43 200.105 43 199C43 197.895 42.1046 197 41 197C39.8954 197 39 197.895 39 199C39 200.105 39.8954 201 41 201Z" fill="#997345"/>
<path d="M49 201C50.1046 201 51 200.105 51 199C51 197.895 50.1046 197 49 197C47.8954 197 47 197.895 47 199C47 200.105 47.8954 201 49 201Z" fill="#997345"/>
<path d="M57 201C58.1046 201 59 200.105 59 199C59 197.895 58.1046 197 57 197C55.8954 197 55 197.895 55 199C55 200.105 55.8954 201 57 201Z" fill="#997345"/>
<path d="M65 201C66.1046 201 67 200.105 67 199C67 197.895 66.1046 197 65 197C63.8954 197 63 197.895 63 199C63 200.105 63.8954 201 65 201Z" fill="#997345"/>
<path d="M13 207C14.1046 207 15 206.105 15 205C15 203.895 14.1046 203 13 203C11.8954 203 11 203.895 11 205C11 206.105 11.8954 207 13 207Z" fill="#997345"/>
<path d="M21 207C22.1046 207 23 206.105 23 205C23 203.895 22.1046 203 21 203C19.8954 203 19 203.895 19 205C19 206.105 19.8954 207 21 207Z" fill="#997345"/>
<path d="M29 207C30.1046 207 31 206.105 31 205C31 203.895 30.1046 203 29 203C27.8954 203 27 203.895 27 205C27 206.105 27.8954 207 29 207Z" fill="#997345"/>
<path d="M37 207C38.1046 207 39 206.105 39 205C39 203.895 38.1046 203 37 203C35.8954 203 35 203.895 35 205C35 206.105 35.8954 207 37 207Z" fill="#997345"/>
<path d="M45 207C46.1046 207 47 206.105 47 205C47 203.895 46.1046 203 45 203C43.8954 203 43 203.895 43 205C43 206.105 43.8954 207 45 207Z" fill="#997345"/>
<path d="M53 207C54.1046 207 55 206.105 55 205C55 203.895 54.1046 203 53 203C51.8954 203 51 203.895 51 205C51 206.105 51.8954 207 53 207Z" fill="#997345"/>
<path d="M61 207C62.1046 207 63 206.105 63 205C63 203.895 62.1046 203 61 203C59.8954 203 59 203.895 59 205C59 206.105 59.8954 207 61 207Z" fill="#997345"/>
<path d="M69 207C70.1046 207 71 206.105 71 205C71 203.895 70.1046 203 69 203C67.8954 203 67 203.895 67 205C67 206.105 67.8954 207 69 207Z" fill="#997345"/>
<path d="M17 213C18.1046 213 19 212.105 19 211C19 209.895 18.1046 209 17 209C15.8954 209 15 209.895 15 211C15 212.105 15.8954 213 17 213Z" fill="#997345"/>
<path d="M25 213C26.1046 213 27 212.105 27 211C27 209.895 26.1046 209 25 209C23.8954 209 23 209.895 23 211C23 212.105 23.8954 213 25 213Z" fill="#997345"/>
<path d="M33 213C34.1046 213 35 212.105 35 211C35 209.895 34.1046 209 33 209C31.8954 209 31 209.895 31 211C31 212.105 31.8954 213 33 213Z" fill="#997345"/>
<path d="M41 213C42.1046 213 43 212.105 43 211C43 209.895 42.1046 209 41 209C39.8954 209 39 209.895 39 211C39 212.105 39.8954 213 41 213Z" fill="#997345"/>
<path d="M49 213C50.1046 213 51 212.105 51 211C51 209.895 50.1046 209 49 209C47.8954 209 47 209.895 47 211C47 212.105 47.8954 213 49 213Z" fill="#997345"/>
<path d="M57 213C58.1046 213 59 212.105 59 211C59 209.895 58.1046 209 57 209C55.8954 209 55 209.895 55 211C55 212.105 55.8954 213 57 213Z" fill="#997345"/>
<path d="M65 213C66.1046 213 67 212.105 67 211C67 209.895 66.1046 209 65 209C63.8954 209 63 209.895 63 211C63 212.105 63.8954 213 65 213Z" fill="#997345"/>
<path d="M13 219C14.1046 219 15 218.105 15 217C15 215.895 14.1046 215 13 215C11.8954 215 11 215.895 11 217C11 218.105 11.8954 219 13 219Z" fill="#997345"/>
<path d="M21 219C22.1046 219 23 218.105 23 217C23 215.895 22.1046 215 21 215C19.8954 215 19 215.895 19 217C19 218.105 19.8954 219 21 219Z" fill="#997345"/>
<path d="M29 219C30.1046 219 31 218.105 31 217C31 215.895 30.1046 215 29 215C27.8954 215 27 215.895 27 217C27 218.105 27.8954 219 29 219Z" fill="#997345"/>
<path d="M37 219C38.1046 219 39 218.105 39 217C39 215.895 38.1046 215 37 215C35.8954 215 35 215.895 35 217C35 218.105 35.8954 219 37 219Z" fill="#997345"/>
<path d="M45 219C46.1046 219 47 218.105 47 217C47 215.895 46.1046 215 45 215C43.8954 215 43 215.895 43 217C43 218.105 43.8954 219 45 219Z" fill="#997345"/>
<path d="M53 219C54.1046 219 55 218.105 55 217C55 215.895 54.1046 215 53 215C51.8954 215 51 215.895 51 217C51 218.105 51.8954 219 53 219Z" fill="#997345"/>
<path d="M61 219C62.1046 219 63 218.105 63 217C63 215.895 62.1046 215 61 215C59.8954 215 59 215.895 59 217C59 218.105 59.8954 219 61 219Z" fill="#997345"/>
<path d="M69 219C70.1046 219 71 218.105 71 217C71 215.895 70.1046 215 69 215C67.8954 215 67 215.895 67 217C67 218.105 67.8954 219 69 219Z" fill="#997345"/>
<path d="M17 225C18.1046 225 19 224.105 19 223C19 221.895 18.1046 221 17 221C15.8954 221 15 221.895 15 223C15 224.105 15.8954 225 17 225Z" fill="#997345"/>
<path d="M25 225C26.1046 225 27 224.105 27 223C27 221.895 26.1046 221 25 221C23.8954 221 23 221.895 23 223C23 224.105 23.8954 225 25 225Z" fill="#997345"/>
<path d="M33 225C34.1046 225 35 224.105 35 223C35 221.895 34.1046 221 33 221C31.8954 221 31 221.895 31 223C31 224.105 31.8954 225 33 225Z" fill="#997345"/>
<path d="M41 225C42.1046 225 43 224.105 43 223C43 221.895 42.1046 221 41 221C39.8954 221 39 221.895 39 223C39 224.105 39.8954 225 41 225Z" fill="#997345"/>
<path d="M49 225C50.1046 225 51 224.105 51 223C51 221.895 50.1046 221 49 221C47.8954 221 47 221.895 47 223C47 224.105 47.8954 225 49 225Z" fill="#997345"/>
<path d="M57 225C58.1046 225 59 224.105 59 223C59 221.895 58.1046 221 57 221C55.8954 221 55 221.895 55 223C55 224.105 55.8954 225 57 225Z" fill="#997345"/>
<path d="M65 225C66.1046 225 67 224.105 67 223C67 221.895 66.1046 221 65 221C63.8954 221 63 221.895 63 223C63 224.105 63.8954 225 65 225Z" fill="#997345"/>
<path d="M13 231C14.1046 231 15 230.105 15 229C15 227.895 14.1046 227 13 227C11.8954 227 11 227.895 11 229C11 230.105 11.8954 231 13 231Z" fill="#997345"/>
<path d="M21 231C22.1046 231 23 230.105 23 229C23 227.895 22.1046 227 21 227C19.8954 227 19 227.895 19 229C19 230.105 19.8954 231 21 231Z" fill="#997345"/>
<path d="M29 231C30.1046 231 31 230.105 31 229C31 227.895 30.1046 227 29 227C27.8954 227 27 227.895 27 229C27 230.105 27.8954 231 29 231Z" fill="#997345"/>
<path d="M37 231C38.1046 231 39 230.105 39 229C39 227.895 38.1046 227 37 227C35.8954 227 35 227.895 35 229C35 230.105 35.8954 231 37 231Z" fill="#997345"/>
<path d="M45 231C46.1046 231 47 230.105 47 229C47 227.895 46.1046 227 45 227C43.8954 227 43 227.895 43 229C43 230.105 43.8954 231 45 231Z" fill="#997345"/>
<path d="M53 231C54.1046 231 55 230.105 55 229C55 227.895 54.1046 227 53 227C51.8954 227 51 227.895 51 229C51 230.105 51.8954 231 53 231Z" fill="#997345"/>
<path d="M61 231C62.1046 231 63 230.105 63 229C63 227.895 62.1046 227 61 227C59.8954 227 59 227.895 59 229C59 230.105 59.8954 231 61 231Z" fill="#997345"/>
<path d="M69 231C70.1046 231 71 230.105 71 229C71 227.895 70.1046 227 69 227C67.8954 227 67 227.895 67 229C67 230.105 67.8954 231 69 231Z" fill="#997345"/>
<path d="M17 237C18.1046 237 19 236.105 19 235C19 233.895 18.1046 233 17 233C15.8954 233 15 233.895 15 235C15 236.105 15.8954 237 17 237Z" fill="#997345"/>
<path d="M25 237C26.1046 237 27 236.105 27 235C27 233.895 26.1046 233 25 233C23.8954 233 23 233.895 23 235C23 236.105 23.8954 237 25 237Z" fill="#997345"/>
<path d="M33 237C34.1046 237 35 236.105 35 235C35 233.895 34.1046 233 33 233C31.8954 233 31 233.895 31 235C31 236.105 31.8954 237 33 237Z" fill="#997345"/>
<path d="M41 237C42.1046 237 43 236.105 43 235C43 233.895 42.1046 233 41 233C39.8954 233 39 233.895 39 235C39 236.105 39.8954 237 41 237Z" fill="#997345"/>
<path d="M49 237C50.1046 237 51 236.105 51 235C51 233.895 50.1046 233 49 233C47.8954 233 47 233.895 47 235C47 236.105 47.8954 237 49 237Z" fill="#997345"/>
<path d="M57 237C58.1046 237 59 236.105 59 235C59 233.895 58.1046 233 57 233C55.8954 233 55 233.895 55 235C55 236.105 55.8954 237 57 237Z" fill="#997345"/>
<path d="M65 237C66.1046 237 67 236.105 67 235C67 233.895 66.1046 233 65 233C63.8954 233 63 233.895 63 235C63 236.105 63.8954 237 65 237Z" fill="#997345"/>
<path d="M13 243C14.1046 243 15 242.105 15 241C15 239.895 14.1046 239 13 239C11.8954 239 11 239.895 11 241C11 242.105 11.8954 243 13 243Z" fill="#997345"/>
<path d="M21 243C22.1046 243 23 242.105 23 241C23 239.895 22.1046 239 21 239C19.8954 239 19 239.895 19 241C19 242.105 19.8954 243 21 243Z" fill="#997345"/>
<path d="M29 243C30.1046 243 31 242.105 31 241C31 239.895 30.1046 239 29 239C27.8954 239 27 239.895 27 241C27 242.105 27.8954 243 29 243Z" fill="#997345"/>
<path d="M37 243C38.1046 243 39 242.105 39 241C39 239.895 38.1046 239 37 239C35.8954 239 35 239.895 35 241C35 242.105 35.8954 243 37 243Z" fill="#997345"/>
<path d="M45 243C46.1046 243 47 242.105 47 241C47 239.895 46.1046 239 45 239C43.8954 239 43 239.895 43 241C43 242.105 43.8954 243 45 243Z" fill="#997345"/>
<path d="M53 243C54.1046 243 55 242.105 55 241C55 239.895 54.1046 239 53 239C51.8954 239 51 239.895 51 241C51 242.105 51.8954 243 53 243Z" fill="#997345"/>
<path d="M61 243C62.1046 243 63 242.105 63 241C63 239.895 62.1046 239 61 239C59.8954 239 59 239.895 59 241C59 242.105 59.8954 243 61 243Z" fill="#997345"/>
<path d="M69 243C70.1046 243 71 242.105 71 241C71 239.895 70.1046 239 69 239C67.8954 239 67 239.895 67 241C67 242.105 67.8954 243 69 243Z" fill="#997345"/>
</g>
<path d="M67.3371 -1L40.4 240L13.4629 -1H67.3371Z" stroke="#997345" stroke-width="2"/>
</g>
</g>
</g>
<defs>
<clipPath id="clip0_16_66732">
<rect width="81" height="250" fill="white"/>
</clipPath>
</defs>
</svg>
