<svg width="100%" height="100%" viewBox="0 0 81 250" fill="none" xmlns="http://www.w3.org/2000/svg">
<g clip-path="url(#clip0_16_66409)">
<mask id="mask0_16_66409" style="mask-type:luminance" maskUnits="userSpaceOnUse" x="0" y="0" width="81" height="250">
<path d="M81 0L0 0L0 250H81L81 0Z" fill="white"/>
</mask>
<g mask="url(#mask0_16_66409)">
<mask id="mask1_16_66409" style="mask-type:alpha" maskUnits="userSpaceOnUse" x="12" y="-2" width="57" height="243">
<path d="M40.4 241L12.3408 -2H68.4592L40.4 241Z" fill="#415496"/>
</mask>
<g mask="url(#mask1_16_66409)">
<mask id="mask2_16_66409" style="mask-type:luminance" maskUnits="userSpaceOnUse" x="-69" y="-48" width="219" height="335">
<path d="M150 -48L-69 -48L-69 287H150L150 -48Z" fill="white"/>
</mask>
<g mask="url(#mask2_16_66409)">
<path d="M150 -48L-69 -48L-69 287H150L150 -48Z" fill="#0F1744"/>
<path d="M13 4C14.1046 4 15 3.10457 15 2C15 0.89543 14.1046 0 13 0C11.8954 0 11 0.89543 11 2C11 3.10457 11.8954 4 13 4Z" fill="#22274A"/>
<path d="M21 4C22.1046 4 23 3.10457 23 2C23 0.89543 22.1046 0 21 0C19.8954 0 19 0.89543 19 2C19 3.10457 19.8954 4 21 4Z" fill="#22274A"/>
<path d="M29 4C30.1046 4 31 3.10457 31 2C31 0.89543 30.1046 0 29 0C27.8954 0 27 0.89543 27 2C27 3.10457 27.8954 4 29 4Z" fill="#22274A"/>
<path d="M37 4C38.1046 4 39 3.10457 39 2C39 0.89543 38.1046 0 37 0C35.8954 0 35 0.89543 35 2C35 3.10457 35.8954 4 37 4Z" fill="#22274A"/>
<path d="M45 4C46.1046 4 47 3.10457 47 2C47 0.89543 46.1046 0 45 0C43.8954 0 43 0.89543 43 2C43 3.10457 43.8954 4 45 4Z" fill="#22274A"/>
<path d="M53 4C54.1046 4 55 3.10457 55 2C55 0.89543 54.1046 0 53 0C51.8954 0 51 0.89543 51 2C51 3.10457 51.8954 4 53 4Z" fill="#22274A"/>
<path d="M61 4C62.1046 4 63 3.10457 63 2C63 0.89543 62.1046 0 61 0C59.8954 0 59 0.89543 59 2C59 3.10457 59.8954 4 61 4Z" fill="#22274A"/>
<path d="M69 4C70.1046 4 71 3.10457 71 2C71 0.89543 70.1046 0 69 0C67.8954 0 67 0.89543 67 2C67 3.10457 67.8954 4 69 4Z" fill="#22274A"/>
<path d="M17 10C18.1046 10 19 9.10457 19 8C19 6.89543 18.1046 6 17 6C15.8954 6 15 6.89543 15 8C15 9.10457 15.8954 10 17 10Z" fill="#22274A"/>
<path d="M25 10C26.1046 10 27 9.10457 27 8C27 6.89543 26.1046 6 25 6C23.8954 6 23 6.89543 23 8C23 9.10457 23.8954 10 25 10Z" fill="#22274A"/>
<path d="M33 10C34.1046 10 35 9.10457 35 8C35 6.89543 34.1046 6 33 6C31.8954 6 31 6.89543 31 8C31 9.10457 31.8954 10 33 10Z" fill="#22274A"/>
<path d="M41 10C42.1046 10 43 9.10457 43 8C43 6.89543 42.1046 6 41 6C39.8954 6 39 6.89543 39 8C39 9.10457 39.8954 10 41 10Z" fill="#22274A"/>
<path d="M49 10C50.1046 10 51 9.10457 51 8C51 6.89543 50.1046 6 49 6C47.8954 6 47 6.89543 47 8C47 9.10457 47.8954 10 49 10Z" fill="#22274A"/>
<path d="M57 10C58.1046 10 59 9.10457 59 8C59 6.89543 58.1046 6 57 6C55.8954 6 55 6.89543 55 8C55 9.10457 55.8954 10 57 10Z" fill="#22274A"/>
<path d="M65 10C66.1046 10 67 9.10457 67 8C67 6.89543 66.1046 6 65 6C63.8954 6 63 6.89543 63 8C63 9.10457 63.8954 10 65 10Z" fill="#22274A"/>
<path d="M13 16C14.1046 16 15 15.1046 15 14C15 12.8954 14.1046 12 13 12C11.8954 12 11 12.8954 11 14C11 15.1046 11.8954 16 13 16Z" fill="#22274A"/>
<path d="M21 16C22.1046 16 23 15.1046 23 14C23 12.8954 22.1046 12 21 12C19.8954 12 19 12.8954 19 14C19 15.1046 19.8954 16 21 16Z" fill="#22274A"/>
<path d="M29 16C30.1046 16 31 15.1046 31 14C31 12.8954 30.1046 12 29 12C27.8954 12 27 12.8954 27 14C27 15.1046 27.8954 16 29 16Z" fill="#22274A"/>
<path d="M37 16C38.1046 16 39 15.1046 39 14C39 12.8954 38.1046 12 37 12C35.8954 12 35 12.8954 35 14C35 15.1046 35.8954 16 37 16Z" fill="#22274A"/>
<path d="M45 16C46.1046 16 47 15.1046 47 14C47 12.8954 46.1046 12 45 12C43.8954 12 43 12.8954 43 14C43 15.1046 43.8954 16 45 16Z" fill="#22274A"/>
<path d="M53 16C54.1046 16 55 15.1046 55 14C55 12.8954 54.1046 12 53 12C51.8954 12 51 12.8954 51 14C51 15.1046 51.8954 16 53 16Z" fill="#22274A"/>
<path d="M61 16C62.1046 16 63 15.1046 63 14C63 12.8954 62.1046 12 61 12C59.8954 12 59 12.8954 59 14C59 15.1046 59.8954 16 61 16Z" fill="#22274A"/>
<path d="M69 16C70.1046 16 71 15.1046 71 14C71 12.8954 70.1046 12 69 12C67.8954 12 67 12.8954 67 14C67 15.1046 67.8954 16 69 16Z" fill="#22274A"/>
<path d="M17 22C18.1046 22 19 21.1046 19 20C19 18.8954 18.1046 18 17 18C15.8954 18 15 18.8954 15 20C15 21.1046 15.8954 22 17 22Z" fill="#22274A"/>
<path d="M25 22C26.1046 22 27 21.1046 27 20C27 18.8954 26.1046 18 25 18C23.8954 18 23 18.8954 23 20C23 21.1046 23.8954 22 25 22Z" fill="#22274A"/>
<path d="M33 22C34.1046 22 35 21.1046 35 20C35 18.8954 34.1046 18 33 18C31.8954 18 31 18.8954 31 20C31 21.1046 31.8954 22 33 22Z" fill="#22274A"/>
<path d="M41 22C42.1046 22 43 21.1046 43 20C43 18.8954 42.1046 18 41 18C39.8954 18 39 18.8954 39 20C39 21.1046 39.8954 22 41 22Z" fill="#22274A"/>
<path d="M49 22C50.1046 22 51 21.1046 51 20C51 18.8954 50.1046 18 49 18C47.8954 18 47 18.8954 47 20C47 21.1046 47.8954 22 49 22Z" fill="#22274A"/>
<path d="M57 22C58.1046 22 59 21.1046 59 20C59 18.8954 58.1046 18 57 18C55.8954 18 55 18.8954 55 20C55 21.1046 55.8954 22 57 22Z" fill="#22274A"/>
<path d="M65 22C66.1046 22 67 21.1046 67 20C67 18.8954 66.1046 18 65 18C63.8954 18 63 18.8954 63 20C63 21.1046 63.8954 22 65 22Z" fill="#22274A"/>
<path d="M13 28C14.1046 28 15 27.1046 15 26C15 24.8954 14.1046 24 13 24C11.8954 24 11 24.8954 11 26C11 27.1046 11.8954 28 13 28Z" fill="#22274A"/>
<path d="M21 28C22.1046 28 23 27.1046 23 26C23 24.8954 22.1046 24 21 24C19.8954 24 19 24.8954 19 26C19 27.1046 19.8954 28 21 28Z" fill="#22274A"/>
<path d="M29 28C30.1046 28 31 27.1046 31 26C31 24.8954 30.1046 24 29 24C27.8954 24 27 24.8954 27 26C27 27.1046 27.8954 28 29 28Z" fill="#22274A"/>
<path d="M37 28C38.1046 28 39 27.1046 39 26C39 24.8954 38.1046 24 37 24C35.8954 24 35 24.8954 35 26C35 27.1046 35.8954 28 37 28Z" fill="#22274A"/>
<path d="M45 28C46.1046 28 47 27.1046 47 26C47 24.8954 46.1046 24 45 24C43.8954 24 43 24.8954 43 26C43 27.1046 43.8954 28 45 28Z" fill="#22274A"/>
<path d="M53 28C54.1046 28 55 27.1046 55 26C55 24.8954 54.1046 24 53 24C51.8954 24 51 24.8954 51 26C51 27.1046 51.8954 28 53 28Z" fill="#22274A"/>
<path d="M61 28C62.1046 28 63 27.1046 63 26C63 24.8954 62.1046 24 61 24C59.8954 24 59 24.8954 59 26C59 27.1046 59.8954 28 61 28Z" fill="#22274A"/>
<path d="M69 28C70.1046 28 71 27.1046 71 26C71 24.8954 70.1046 24 69 24C67.8954 24 67 24.8954 67 26C67 27.1046 67.8954 28 69 28Z" fill="#22274A"/>
<path d="M17 34C18.1046 34 19 33.1046 19 32C19 30.8954 18.1046 30 17 30C15.8954 30 15 30.8954 15 32C15 33.1046 15.8954 34 17 34Z" fill="#22274A"/>
<path d="M25 34C26.1046 34 27 33.1046 27 32C27 30.8954 26.1046 30 25 30C23.8954 30 23 30.8954 23 32C23 33.1046 23.8954 34 25 34Z" fill="#22274A"/>
<path d="M33 34C34.1046 34 35 33.1046 35 32C35 30.8954 34.1046 30 33 30C31.8954 30 31 30.8954 31 32C31 33.1046 31.8954 34 33 34Z" fill="#22274A"/>
<path d="M41 34C42.1046 34 43 33.1046 43 32C43 30.8954 42.1046 30 41 30C39.8954 30 39 30.8954 39 32C39 33.1046 39.8954 34 41 34Z" fill="#22274A"/>
<path d="M49 34C50.1046 34 51 33.1046 51 32C51 30.8954 50.1046 30 49 30C47.8954 30 47 30.8954 47 32C47 33.1046 47.8954 34 49 34Z" fill="#22274A"/>
<path d="M57 34C58.1046 34 59 33.1046 59 32C59 30.8954 58.1046 30 57 30C55.8954 30 55 30.8954 55 32C55 33.1046 55.8954 34 57 34Z" fill="#22274A"/>
<path d="M65 34C66.1046 34 67 33.1046 67 32C67 30.8954 66.1046 30 65 30C63.8954 30 63 30.8954 63 32C63 33.1046 63.8954 34 65 34Z" fill="#22274A"/>
<path d="M13 40C14.1046 40 15 39.1046 15 38C15 36.8954 14.1046 36 13 36C11.8954 36 11 36.8954 11 38C11 39.1046 11.8954 40 13 40Z" fill="#22274A"/>
<path d="M21 40C22.1046 40 23 39.1046 23 38C23 36.8954 22.1046 36 21 36C19.8954 36 19 36.8954 19 38C19 39.1046 19.8954 40 21 40Z" fill="#22274A"/>
<path d="M29 40C30.1046 40 31 39.1046 31 38C31 36.8954 30.1046 36 29 36C27.8954 36 27 36.8954 27 38C27 39.1046 27.8954 40 29 40Z" fill="#22274A"/>
<path d="M37 40C38.1046 40 39 39.1046 39 38C39 36.8954 38.1046 36 37 36C35.8954 36 35 36.8954 35 38C35 39.1046 35.8954 40 37 40Z" fill="#22274A"/>
<path d="M45 40C46.1046 40 47 39.1046 47 38C47 36.8954 46.1046 36 45 36C43.8954 36 43 36.8954 43 38C43 39.1046 43.8954 40 45 40Z" fill="#22274A"/>
<path d="M53 40C54.1046 40 55 39.1046 55 38C55 36.8954 54.1046 36 53 36C51.8954 36 51 36.8954 51 38C51 39.1046 51.8954 40 53 40Z" fill="#22274A"/>
<path d="M61 40C62.1046 40 63 39.1046 63 38C63 36.8954 62.1046 36 61 36C59.8954 36 59 36.8954 59 38C59 39.1046 59.8954 40 61 40Z" fill="#22274A"/>
<path d="M69 40C70.1046 40 71 39.1046 71 38C71 36.8954 70.1046 36 69 36C67.8954 36 67 36.8954 67 38C67 39.1046 67.8954 40 69 40Z" fill="#22274A"/>
<path d="M17 46C18.1046 46 19 45.1046 19 44C19 42.8954 18.1046 42 17 42C15.8954 42 15 42.8954 15 44C15 45.1046 15.8954 46 17 46Z" fill="#22274A"/>
<path d="M25 46C26.1046 46 27 45.1046 27 44C27 42.8954 26.1046 42 25 42C23.8954 42 23 42.8954 23 44C23 45.1046 23.8954 46 25 46Z" fill="#22274A"/>
<path d="M33 46C34.1046 46 35 45.1046 35 44C35 42.8954 34.1046 42 33 42C31.8954 42 31 42.8954 31 44C31 45.1046 31.8954 46 33 46Z" fill="#22274A"/>
<path d="M41 46C42.1046 46 43 45.1046 43 44C43 42.8954 42.1046 42 41 42C39.8954 42 39 42.8954 39 44C39 45.1046 39.8954 46 41 46Z" fill="#22274A"/>
<path d="M49 46C50.1046 46 51 45.1046 51 44C51 42.8954 50.1046 42 49 42C47.8954 42 47 42.8954 47 44C47 45.1046 47.8954 46 49 46Z" fill="#22274A"/>
<path d="M57 46C58.1046 46 59 45.1046 59 44C59 42.8954 58.1046 42 57 42C55.8954 42 55 42.8954 55 44C55 45.1046 55.8954 46 57 46Z" fill="#22274A"/>
<path d="M65 46C66.1046 46 67 45.1046 67 44C67 42.8954 66.1046 42 65 42C63.8954 42 63 42.8954 63 44C63 45.1046 63.8954 46 65 46Z" fill="#22274A"/>
<path d="M13 52C14.1046 52 15 51.1046 15 50C15 48.8954 14.1046 48 13 48C11.8954 48 11 48.8954 11 50C11 51.1046 11.8954 52 13 52Z" fill="#22274A"/>
<path d="M21 52C22.1046 52 23 51.1046 23 50C23 48.8954 22.1046 48 21 48C19.8954 48 19 48.8954 19 50C19 51.1046 19.8954 52 21 52Z" fill="#22274A"/>
<path d="M29 52C30.1046 52 31 51.1046 31 50C31 48.8954 30.1046 48 29 48C27.8954 48 27 48.8954 27 50C27 51.1046 27.8954 52 29 52Z" fill="#22274A"/>
<path d="M37 52C38.1046 52 39 51.1046 39 50C39 48.8954 38.1046 48 37 48C35.8954 48 35 48.8954 35 50C35 51.1046 35.8954 52 37 52Z" fill="#22274A"/>
<path d="M45 52C46.1046 52 47 51.1046 47 50C47 48.8954 46.1046 48 45 48C43.8954 48 43 48.8954 43 50C43 51.1046 43.8954 52 45 52Z" fill="#22274A"/>
<path d="M53 52C54.1046 52 55 51.1046 55 50C55 48.8954 54.1046 48 53 48C51.8954 48 51 48.8954 51 50C51 51.1046 51.8954 52 53 52Z" fill="#22274A"/>
<path d="M61 52C62.1046 52 63 51.1046 63 50C63 48.8954 62.1046 48 61 48C59.8954 48 59 48.8954 59 50C59 51.1046 59.8954 52 61 52Z" fill="#22274A"/>
<path d="M69 52C70.1046 52 71 51.1046 71 50C71 48.8954 70.1046 48 69 48C67.8954 48 67 48.8954 67 50C67 51.1046 67.8954 52 69 52Z" fill="#22274A"/>
<path d="M17 58C18.1046 58 19 57.1046 19 56C19 54.8954 18.1046 54 17 54C15.8954 54 15 54.8954 15 56C15 57.1046 15.8954 58 17 58Z" fill="#22274A"/>
<path d="M25 58C26.1046 58 27 57.1046 27 56C27 54.8954 26.1046 54 25 54C23.8954 54 23 54.8954 23 56C23 57.1046 23.8954 58 25 58Z" fill="#22274A"/>
<path d="M33 58C34.1046 58 35 57.1046 35 56C35 54.8954 34.1046 54 33 54C31.8954 54 31 54.8954 31 56C31 57.1046 31.8954 58 33 58Z" fill="#22274A"/>
<path d="M41 58C42.1046 58 43 57.1046 43 56C43 54.8954 42.1046 54 41 54C39.8954 54 39 54.8954 39 56C39 57.1046 39.8954 58 41 58Z" fill="#22274A"/>
<path d="M49 58C50.1046 58 51 57.1046 51 56C51 54.8954 50.1046 54 49 54C47.8954 54 47 54.8954 47 56C47 57.1046 47.8954 58 49 58Z" fill="#22274A"/>
<path d="M57 58C58.1046 58 59 57.1046 59 56C59 54.8954 58.1046 54 57 54C55.8954 54 55 54.8954 55 56C55 57.1046 55.8954 58 57 58Z" fill="#22274A"/>
<path d="M65 58C66.1046 58 67 57.1046 67 56C67 54.8954 66.1046 54 65 54C63.8954 54 63 54.8954 63 56C63 57.1046 63.8954 58 65 58Z" fill="#22274A"/>
<path d="M13 64C14.1046 64 15 63.1046 15 62C15 60.8954 14.1046 60 13 60C11.8954 60 11 60.8954 11 62C11 63.1046 11.8954 64 13 64Z" fill="#22274A"/>
<path d="M21 64C22.1046 64 23 63.1046 23 62C23 60.8954 22.1046 60 21 60C19.8954 60 19 60.8954 19 62C19 63.1046 19.8954 64 21 64Z" fill="#22274A"/>
<path d="M29 64C30.1046 64 31 63.1046 31 62C31 60.8954 30.1046 60 29 60C27.8954 60 27 60.8954 27 62C27 63.1046 27.8954 64 29 64Z" fill="#22274A"/>
<path d="M37 64C38.1046 64 39 63.1046 39 62C39 60.8954 38.1046 60 37 60C35.8954 60 35 60.8954 35 62C35 63.1046 35.8954 64 37 64Z" fill="#22274A"/>
<path d="M45 64C46.1046 64 47 63.1046 47 62C47 60.8954 46.1046 60 45 60C43.8954 60 43 60.8954 43 62C43 63.1046 43.8954 64 45 64Z" fill="#22274A"/>
<path d="M53 64C54.1046 64 55 63.1046 55 62C55 60.8954 54.1046 60 53 60C51.8954 60 51 60.8954 51 62C51 63.1046 51.8954 64 53 64Z" fill="#22274A"/>
<path d="M61 64C62.1046 64 63 63.1046 63 62C63 60.8954 62.1046 60 61 60C59.8954 60 59 60.8954 59 62C59 63.1046 59.8954 64 61 64Z" fill="#22274A"/>
<path d="M69 64C70.1046 64 71 63.1046 71 62C71 60.8954 70.1046 60 69 60C67.8954 60 67 60.8954 67 62C67 63.1046 67.8954 64 69 64Z" fill="#22274A"/>
<path d="M17 70C18.1046 70 19 69.1046 19 68C19 66.8954 18.1046 66 17 66C15.8954 66 15 66.8954 15 68C15 69.1046 15.8954 70 17 70Z" fill="#22274A"/>
<path d="M25 70C26.1046 70 27 69.1046 27 68C27 66.8954 26.1046 66 25 66C23.8954 66 23 66.8954 23 68C23 69.1046 23.8954 70 25 70Z" fill="#22274A"/>
<path d="M33 70C34.1046 70 35 69.1046 35 68C35 66.8954 34.1046 66 33 66C31.8954 66 31 66.8954 31 68C31 69.1046 31.8954 70 33 70Z" fill="#22274A"/>
<path d="M41 70C42.1046 70 43 69.1046 43 68C43 66.8954 42.1046 66 41 66C39.8954 66 39 66.8954 39 68C39 69.1046 39.8954 70 41 70Z" fill="#22274A"/>
<path d="M49 70C50.1046 70 51 69.1046 51 68C51 66.8954 50.1046 66 49 66C47.8954 66 47 66.8954 47 68C47 69.1046 47.8954 70 49 70Z" fill="#22274A"/>
<path d="M57 70C58.1046 70 59 69.1046 59 68C59 66.8954 58.1046 66 57 66C55.8954 66 55 66.8954 55 68C55 69.1046 55.8954 70 57 70Z" fill="#22274A"/>
<path d="M65 70C66.1046 70 67 69.1046 67 68C67 66.8954 66.1046 66 65 66C63.8954 66 63 66.8954 63 68C63 69.1046 63.8954 70 65 70Z" fill="#22274A"/>
<path d="M13 76C14.1046 76 15 75.1046 15 74C15 72.8954 14.1046 72 13 72C11.8954 72 11 72.8954 11 74C11 75.1046 11.8954 76 13 76Z" fill="#22274A"/>
<path d="M21 76C22.1046 76 23 75.1046 23 74C23 72.8954 22.1046 72 21 72C19.8954 72 19 72.8954 19 74C19 75.1046 19.8954 76 21 76Z" fill="#22274A"/>
<path d="M29 76C30.1046 76 31 75.1046 31 74C31 72.8954 30.1046 72 29 72C27.8954 72 27 72.8954 27 74C27 75.1046 27.8954 76 29 76Z" fill="#22274A"/>
<path d="M37 76C38.1046 76 39 75.1046 39 74C39 72.8954 38.1046 72 37 72C35.8954 72 35 72.8954 35 74C35 75.1046 35.8954 76 37 76Z" fill="#22274A"/>
<path d="M45 76C46.1046 76 47 75.1046 47 74C47 72.8954 46.1046 72 45 72C43.8954 72 43 72.8954 43 74C43 75.1046 43.8954 76 45 76Z" fill="#22274A"/>
<path d="M53 76C54.1046 76 55 75.1046 55 74C55 72.8954 54.1046 72 53 72C51.8954 72 51 72.8954 51 74C51 75.1046 51.8954 76 53 76Z" fill="#22274A"/>
<path d="M61 76C62.1046 76 63 75.1046 63 74C63 72.8954 62.1046 72 61 72C59.8954 72 59 72.8954 59 74C59 75.1046 59.8954 76 61 76Z" fill="#22274A"/>
<path d="M69 76C70.1046 76 71 75.1046 71 74C71 72.8954 70.1046 72 69 72C67.8954 72 67 72.8954 67 74C67 75.1046 67.8954 76 69 76Z" fill="#22274A"/>
<path d="M17 82C18.1046 82 19 81.1046 19 80C19 78.8954 18.1046 78 17 78C15.8954 78 15 78.8954 15 80C15 81.1046 15.8954 82 17 82Z" fill="#22274A"/>
<path d="M25 82C26.1046 82 27 81.1046 27 80C27 78.8954 26.1046 78 25 78C23.8954 78 23 78.8954 23 80C23 81.1046 23.8954 82 25 82Z" fill="#22274A"/>
<path d="M33 82C34.1046 82 35 81.1046 35 80C35 78.8954 34.1046 78 33 78C31.8954 78 31 78.8954 31 80C31 81.1046 31.8954 82 33 82Z" fill="#22274A"/>
<path d="M41 82C42.1046 82 43 81.1046 43 80C43 78.8954 42.1046 78 41 78C39.8954 78 39 78.8954 39 80C39 81.1046 39.8954 82 41 82Z" fill="#22274A"/>
<path d="M49 82C50.1046 82 51 81.1046 51 80C51 78.8954 50.1046 78 49 78C47.8954 78 47 78.8954 47 80C47 81.1046 47.8954 82 49 82Z" fill="#22274A"/>
<path d="M57 82C58.1046 82 59 81.1046 59 80C59 78.8954 58.1046 78 57 78C55.8954 78 55 78.8954 55 80C55 81.1046 55.8954 82 57 82Z" fill="#22274A"/>
<path d="M65 82C66.1046 82 67 81.1046 67 80C67 78.8954 66.1046 78 65 78C63.8954 78 63 78.8954 63 80C63 81.1046 63.8954 82 65 82Z" fill="#22274A"/>
<path d="M13 88C14.1046 88 15 87.1046 15 86C15 84.8954 14.1046 84 13 84C11.8954 84 11 84.8954 11 86C11 87.1046 11.8954 88 13 88Z" fill="#22274A"/>
<path d="M21 88C22.1046 88 23 87.1046 23 86C23 84.8954 22.1046 84 21 84C19.8954 84 19 84.8954 19 86C19 87.1046 19.8954 88 21 88Z" fill="#22274A"/>
<path d="M29 88C30.1046 88 31 87.1046 31 86C31 84.8954 30.1046 84 29 84C27.8954 84 27 84.8954 27 86C27 87.1046 27.8954 88 29 88Z" fill="#22274A"/>
<path d="M37 88C38.1046 88 39 87.1046 39 86C39 84.8954 38.1046 84 37 84C35.8954 84 35 84.8954 35 86C35 87.1046 35.8954 88 37 88Z" fill="#22274A"/>
<path d="M45 88C46.1046 88 47 87.1046 47 86C47 84.8954 46.1046 84 45 84C43.8954 84 43 84.8954 43 86C43 87.1046 43.8954 88 45 88Z" fill="#22274A"/>
<path d="M53 88C54.1046 88 55 87.1046 55 86C55 84.8954 54.1046 84 53 84C51.8954 84 51 84.8954 51 86C51 87.1046 51.8954 88 53 88Z" fill="#22274A"/>
<path d="M61 88C62.1046 88 63 87.1046 63 86C63 84.8954 62.1046 84 61 84C59.8954 84 59 84.8954 59 86C59 87.1046 59.8954 88 61 88Z" fill="#22274A"/>
<path d="M69 88C70.1046 88 71 87.1046 71 86C71 84.8954 70.1046 84 69 84C67.8954 84 67 84.8954 67 86C67 87.1046 67.8954 88 69 88Z" fill="#22274A"/>
<path d="M17 94C18.1046 94 19 93.1046 19 92C19 90.8954 18.1046 90 17 90C15.8954 90 15 90.8954 15 92C15 93.1046 15.8954 94 17 94Z" fill="#22274A"/>
<path d="M25 94C26.1046 94 27 93.1046 27 92C27 90.8954 26.1046 90 25 90C23.8954 90 23 90.8954 23 92C23 93.1046 23.8954 94 25 94Z" fill="#22274A"/>
<path d="M33 94C34.1046 94 35 93.1046 35 92C35 90.8954 34.1046 90 33 90C31.8954 90 31 90.8954 31 92C31 93.1046 31.8954 94 33 94Z" fill="#22274A"/>
<path d="M41 94C42.1046 94 43 93.1046 43 92C43 90.8954 42.1046 90 41 90C39.8954 90 39 90.8954 39 92C39 93.1046 39.8954 94 41 94Z" fill="#22274A"/>
<path d="M49 94C50.1046 94 51 93.1046 51 92C51 90.8954 50.1046 90 49 90C47.8954 90 47 90.8954 47 92C47 93.1046 47.8954 94 49 94Z" fill="#22274A"/>
<path d="M57 94C58.1046 94 59 93.1046 59 92C59 90.8954 58.1046 90 57 90C55.8954 90 55 90.8954 55 92C55 93.1046 55.8954 94 57 94Z" fill="#22274A"/>
<path d="M65 94C66.1046 94 67 93.1046 67 92C67 90.8954 66.1046 90 65 90C63.8954 90 63 90.8954 63 92C63 93.1046 63.8954 94 65 94Z" fill="#22274A"/>
<path d="M13 100C14.1046 100 15 99.1046 15 98C15 96.8954 14.1046 96 13 96C11.8954 96 11 96.8954 11 98C11 99.1046 11.8954 100 13 100Z" fill="#22274A"/>
<path d="M21 100C22.1046 100 23 99.1046 23 98C23 96.8954 22.1046 96 21 96C19.8954 96 19 96.8954 19 98C19 99.1046 19.8954 100 21 100Z" fill="#22274A"/>
<path d="M29 100C30.1046 100 31 99.1046 31 98C31 96.8954 30.1046 96 29 96C27.8954 96 27 96.8954 27 98C27 99.1046 27.8954 100 29 100Z" fill="#22274A"/>
<path d="M37 100C38.1046 100 39 99.1046 39 98C39 96.8954 38.1046 96 37 96C35.8954 96 35 96.8954 35 98C35 99.1046 35.8954 100 37 100Z" fill="#22274A"/>
<path d="M45 100C46.1046 100 47 99.1046 47 98C47 96.8954 46.1046 96 45 96C43.8954 96 43 96.8954 43 98C43 99.1046 43.8954 100 45 100Z" fill="#22274A"/>
<path d="M53 100C54.1046 100 55 99.1046 55 98C55 96.8954 54.1046 96 53 96C51.8954 96 51 96.8954 51 98C51 99.1046 51.8954 100 53 100Z" fill="#22274A"/>
<path d="M61 100C62.1046 100 63 99.1046 63 98C63 96.8954 62.1046 96 61 96C59.8954 96 59 96.8954 59 98C59 99.1046 59.8954 100 61 100Z" fill="#22274A"/>
<path d="M69 100C70.1046 100 71 99.1046 71 98C71 96.8954 70.1046 96 69 96C67.8954 96 67 96.8954 67 98C67 99.1046 67.8954 100 69 100Z" fill="#22274A"/>
<path d="M17 106C18.1046 106 19 105.105 19 104C19 102.895 18.1046 102 17 102C15.8954 102 15 102.895 15 104C15 105.105 15.8954 106 17 106Z" fill="#22274A"/>
<path d="M25 106C26.1046 106 27 105.105 27 104C27 102.895 26.1046 102 25 102C23.8954 102 23 102.895 23 104C23 105.105 23.8954 106 25 106Z" fill="#22274A"/>
<path d="M33 106C34.1046 106 35 105.105 35 104C35 102.895 34.1046 102 33 102C31.8954 102 31 102.895 31 104C31 105.105 31.8954 106 33 106Z" fill="#22274A"/>
<path d="M41 106C42.1046 106 43 105.105 43 104C43 102.895 42.1046 102 41 102C39.8954 102 39 102.895 39 104C39 105.105 39.8954 106 41 106Z" fill="#22274A"/>
<path d="M49 106C50.1046 106 51 105.105 51 104C51 102.895 50.1046 102 49 102C47.8954 102 47 102.895 47 104C47 105.105 47.8954 106 49 106Z" fill="#22274A"/>
<path d="M57 106C58.1046 106 59 105.105 59 104C59 102.895 58.1046 102 57 102C55.8954 102 55 102.895 55 104C55 105.105 55.8954 106 57 106Z" fill="#22274A"/>
<path d="M65 106C66.1046 106 67 105.105 67 104C67 102.895 66.1046 102 65 102C63.8954 102 63 102.895 63 104C63 105.105 63.8954 106 65 106Z" fill="#22274A"/>
<path d="M13 112C14.1046 112 15 111.105 15 110C15 108.895 14.1046 108 13 108C11.8954 108 11 108.895 11 110C11 111.105 11.8954 112 13 112Z" fill="#22274A"/>
<path d="M21 112C22.1046 112 23 111.105 23 110C23 108.895 22.1046 108 21 108C19.8954 108 19 108.895 19 110C19 111.105 19.8954 112 21 112Z" fill="#22274A"/>
<path d="M29 112C30.1046 112 31 111.105 31 110C31 108.895 30.1046 108 29 108C27.8954 108 27 108.895 27 110C27 111.105 27.8954 112 29 112Z" fill="#22274A"/>
<path d="M37 112C38.1046 112 39 111.105 39 110C39 108.895 38.1046 108 37 108C35.8954 108 35 108.895 35 110C35 111.105 35.8954 112 37 112Z" fill="#22274A"/>
<path d="M45 112C46.1046 112 47 111.105 47 110C47 108.895 46.1046 108 45 108C43.8954 108 43 108.895 43 110C43 111.105 43.8954 112 45 112Z" fill="#22274A"/>
<path d="M53 112C54.1046 112 55 111.105 55 110C55 108.895 54.1046 108 53 108C51.8954 108 51 108.895 51 110C51 111.105 51.8954 112 53 112Z" fill="#22274A"/>
<path d="M61 112C62.1046 112 63 111.105 63 110C63 108.895 62.1046 108 61 108C59.8954 108 59 108.895 59 110C59 111.105 59.8954 112 61 112Z" fill="#22274A"/>
<path d="M69 112C70.1046 112 71 111.105 71 110C71 108.895 70.1046 108 69 108C67.8954 108 67 108.895 67 110C67 111.105 67.8954 112 69 112Z" fill="#22274A"/>
<path d="M17 118C18.1046 118 19 117.105 19 116C19 114.895 18.1046 114 17 114C15.8954 114 15 114.895 15 116C15 117.105 15.8954 118 17 118Z" fill="#22274A"/>
<path d="M25 118C26.1046 118 27 117.105 27 116C27 114.895 26.1046 114 25 114C23.8954 114 23 114.895 23 116C23 117.105 23.8954 118 25 118Z" fill="#22274A"/>
<path d="M33 118C34.1046 118 35 117.105 35 116C35 114.895 34.1046 114 33 114C31.8954 114 31 114.895 31 116C31 117.105 31.8954 118 33 118Z" fill="#22274A"/>
<path d="M41 118C42.1046 118 43 117.105 43 116C43 114.895 42.1046 114 41 114C39.8954 114 39 114.895 39 116C39 117.105 39.8954 118 41 118Z" fill="#22274A"/>
<path d="M49 118C50.1046 118 51 117.105 51 116C51 114.895 50.1046 114 49 114C47.8954 114 47 114.895 47 116C47 117.105 47.8954 118 49 118Z" fill="#22274A"/>
<path d="M57 118C58.1046 118 59 117.105 59 116C59 114.895 58.1046 114 57 114C55.8954 114 55 114.895 55 116C55 117.105 55.8954 118 57 118Z" fill="#22274A"/>
<path d="M65 118C66.1046 118 67 117.105 67 116C67 114.895 66.1046 114 65 114C63.8954 114 63 114.895 63 116C63 117.105 63.8954 118 65 118Z" fill="#22274A"/>
<path d="M13 124C14.1046 124 15 123.105 15 122C15 120.895 14.1046 120 13 120C11.8954 120 11 120.895 11 122C11 123.105 11.8954 124 13 124Z" fill="#22274A"/>
<path d="M21 124C22.1046 124 23 123.105 23 122C23 120.895 22.1046 120 21 120C19.8954 120 19 120.895 19 122C19 123.105 19.8954 124 21 124Z" fill="#22274A"/>
<path d="M29 124C30.1046 124 31 123.105 31 122C31 120.895 30.1046 120 29 120C27.8954 120 27 120.895 27 122C27 123.105 27.8954 124 29 124Z" fill="#22274A"/>
<path d="M37 124C38.1046 124 39 123.105 39 122C39 120.895 38.1046 120 37 120C35.8954 120 35 120.895 35 122C35 123.105 35.8954 124 37 124Z" fill="#22274A"/>
<path d="M45 124C46.1046 124 47 123.105 47 122C47 120.895 46.1046 120 45 120C43.8954 120 43 120.895 43 122C43 123.105 43.8954 124 45 124Z" fill="#22274A"/>
<path d="M53 124C54.1046 124 55 123.105 55 122C55 120.895 54.1046 120 53 120C51.8954 120 51 120.895 51 122C51 123.105 51.8954 124 53 124Z" fill="#22274A"/>
<path d="M61 124C62.1046 124 63 123.105 63 122C63 120.895 62.1046 120 61 120C59.8954 120 59 120.895 59 122C59 123.105 59.8954 124 61 124Z" fill="#22274A"/>
<path d="M69 124C70.1046 124 71 123.105 71 122C71 120.895 70.1046 120 69 120C67.8954 120 67 120.895 67 122C67 123.105 67.8954 124 69 124Z" fill="#22274A"/>
<path d="M17 130C18.1046 130 19 129.105 19 128C19 126.895 18.1046 126 17 126C15.8954 126 15 126.895 15 128C15 129.105 15.8954 130 17 130Z" fill="#22274A"/>
<path d="M25 130C26.1046 130 27 129.105 27 128C27 126.895 26.1046 126 25 126C23.8954 126 23 126.895 23 128C23 129.105 23.8954 130 25 130Z" fill="#22274A"/>
<path d="M33 130C34.1046 130 35 129.105 35 128C35 126.895 34.1046 126 33 126C31.8954 126 31 126.895 31 128C31 129.105 31.8954 130 33 130Z" fill="#22274A"/>
<path d="M41 130C42.1046 130 43 129.105 43 128C43 126.895 42.1046 126 41 126C39.8954 126 39 126.895 39 128C39 129.105 39.8954 130 41 130Z" fill="#22274A"/>
<path d="M49 130C50.1046 130 51 129.105 51 128C51 126.895 50.1046 126 49 126C47.8954 126 47 126.895 47 128C47 129.105 47.8954 130 49 130Z" fill="#22274A"/>
<path d="M57 130C58.1046 130 59 129.105 59 128C59 126.895 58.1046 126 57 126C55.8954 126 55 126.895 55 128C55 129.105 55.8954 130 57 130Z" fill="#22274A"/>
<path d="M65 130C66.1046 130 67 129.105 67 128C67 126.895 66.1046 126 65 126C63.8954 126 63 126.895 63 128C63 129.105 63.8954 130 65 130Z" fill="#22274A"/>
<path d="M13 136C14.1046 136 15 135.105 15 134C15 132.895 14.1046 132 13 132C11.8954 132 11 132.895 11 134C11 135.105 11.8954 136 13 136Z" fill="#22274A"/>
<path d="M21 136C22.1046 136 23 135.105 23 134C23 132.895 22.1046 132 21 132C19.8954 132 19 132.895 19 134C19 135.105 19.8954 136 21 136Z" fill="#22274A"/>
<path d="M29 136C30.1046 136 31 135.105 31 134C31 132.895 30.1046 132 29 132C27.8954 132 27 132.895 27 134C27 135.105 27.8954 136 29 136Z" fill="#22274A"/>
<path d="M37 136C38.1046 136 39 135.105 39 134C39 132.895 38.1046 132 37 132C35.8954 132 35 132.895 35 134C35 135.105 35.8954 136 37 136Z" fill="#22274A"/>
<path d="M45 136C46.1046 136 47 135.105 47 134C47 132.895 46.1046 132 45 132C43.8954 132 43 132.895 43 134C43 135.105 43.8954 136 45 136Z" fill="#22274A"/>
<path d="M53 136C54.1046 136 55 135.105 55 134C55 132.895 54.1046 132 53 132C51.8954 132 51 132.895 51 134C51 135.105 51.8954 136 53 136Z" fill="#22274A"/>
<path d="M61 136C62.1046 136 63 135.105 63 134C63 132.895 62.1046 132 61 132C59.8954 132 59 132.895 59 134C59 135.105 59.8954 136 61 136Z" fill="#22274A"/>
<path d="M69 136C70.1046 136 71 135.105 71 134C71 132.895 70.1046 132 69 132C67.8954 132 67 132.895 67 134C67 135.105 67.8954 136 69 136Z" fill="#22274A"/>
<path d="M17 142C18.1046 142 19 141.105 19 140C19 138.895 18.1046 138 17 138C15.8954 138 15 138.895 15 140C15 141.105 15.8954 142 17 142Z" fill="#22274A"/>
<path d="M25 142C26.1046 142 27 141.105 27 140C27 138.895 26.1046 138 25 138C23.8954 138 23 138.895 23 140C23 141.105 23.8954 142 25 142Z" fill="#22274A"/>
<path d="M33 142C34.1046 142 35 141.105 35 140C35 138.895 34.1046 138 33 138C31.8954 138 31 138.895 31 140C31 141.105 31.8954 142 33 142Z" fill="#22274A"/>
<path d="M41 142C42.1046 142 43 141.105 43 140C43 138.895 42.1046 138 41 138C39.8954 138 39 138.895 39 140C39 141.105 39.8954 142 41 142Z" fill="#22274A"/>
<path d="M49 142C50.1046 142 51 141.105 51 140C51 138.895 50.1046 138 49 138C47.8954 138 47 138.895 47 140C47 141.105 47.8954 142 49 142Z" fill="#22274A"/>
<path d="M57 142C58.1046 142 59 141.105 59 140C59 138.895 58.1046 138 57 138C55.8954 138 55 138.895 55 140C55 141.105 55.8954 142 57 142Z" fill="#22274A"/>
<path d="M65 142C66.1046 142 67 141.105 67 140C67 138.895 66.1046 138 65 138C63.8954 138 63 138.895 63 140C63 141.105 63.8954 142 65 142Z" fill="#22274A"/>
<path d="M13 148C14.1046 148 15 147.105 15 146C15 144.895 14.1046 144 13 144C11.8954 144 11 144.895 11 146C11 147.105 11.8954 148 13 148Z" fill="#22274A"/>
<path d="M21 148C22.1046 148 23 147.105 23 146C23 144.895 22.1046 144 21 144C19.8954 144 19 144.895 19 146C19 147.105 19.8954 148 21 148Z" fill="#22274A"/>
<path d="M29 148C30.1046 148 31 147.105 31 146C31 144.895 30.1046 144 29 144C27.8954 144 27 144.895 27 146C27 147.105 27.8954 148 29 148Z" fill="#22274A"/>
<path d="M37 148C38.1046 148 39 147.105 39 146C39 144.895 38.1046 144 37 144C35.8954 144 35 144.895 35 146C35 147.105 35.8954 148 37 148Z" fill="#22274A"/>
<path d="M45 148C46.1046 148 47 147.105 47 146C47 144.895 46.1046 144 45 144C43.8954 144 43 144.895 43 146C43 147.105 43.8954 148 45 148Z" fill="#22274A"/>
<path d="M53 148C54.1046 148 55 147.105 55 146C55 144.895 54.1046 144 53 144C51.8954 144 51 144.895 51 146C51 147.105 51.8954 148 53 148Z" fill="#22274A"/>
<path d="M61 148C62.1046 148 63 147.105 63 146C63 144.895 62.1046 144 61 144C59.8954 144 59 144.895 59 146C59 147.105 59.8954 148 61 148Z" fill="#22274A"/>
<path d="M69 148C70.1046 148 71 147.105 71 146C71 144.895 70.1046 144 69 144C67.8954 144 67 144.895 67 146C67 147.105 67.8954 148 69 148Z" fill="#22274A"/>
<path d="M17 154C18.1046 154 19 153.105 19 152C19 150.895 18.1046 150 17 150C15.8954 150 15 150.895 15 152C15 153.105 15.8954 154 17 154Z" fill="#22274A"/>
<path d="M25 154C26.1046 154 27 153.105 27 152C27 150.895 26.1046 150 25 150C23.8954 150 23 150.895 23 152C23 153.105 23.8954 154 25 154Z" fill="#22274A"/>
<path d="M33 154C34.1046 154 35 153.105 35 152C35 150.895 34.1046 150 33 150C31.8954 150 31 150.895 31 152C31 153.105 31.8954 154 33 154Z" fill="#22274A"/>
<path d="M41 154C42.1046 154 43 153.105 43 152C43 150.895 42.1046 150 41 150C39.8954 150 39 150.895 39 152C39 153.105 39.8954 154 41 154Z" fill="#22274A"/>
<path d="M49 154C50.1046 154 51 153.105 51 152C51 150.895 50.1046 150 49 150C47.8954 150 47 150.895 47 152C47 153.105 47.8954 154 49 154Z" fill="#22274A"/>
<path d="M57 154C58.1046 154 59 153.105 59 152C59 150.895 58.1046 150 57 150C55.8954 150 55 150.895 55 152C55 153.105 55.8954 154 57 154Z" fill="#22274A"/>
<path d="M65 154C66.1046 154 67 153.105 67 152C67 150.895 66.1046 150 65 150C63.8954 150 63 150.895 63 152C63 153.105 63.8954 154 65 154Z" fill="#22274A"/>
<path d="M13 160C14.1046 160 15 159.105 15 158C15 156.895 14.1046 156 13 156C11.8954 156 11 156.895 11 158C11 159.105 11.8954 160 13 160Z" fill="#22274A"/>
<path d="M21 160C22.1046 160 23 159.105 23 158C23 156.895 22.1046 156 21 156C19.8954 156 19 156.895 19 158C19 159.105 19.8954 160 21 160Z" fill="#22274A"/>
<path d="M29 160C30.1046 160 31 159.105 31 158C31 156.895 30.1046 156 29 156C27.8954 156 27 156.895 27 158C27 159.105 27.8954 160 29 160Z" fill="#22274A"/>
<path d="M37 160C38.1046 160 39 159.105 39 158C39 156.895 38.1046 156 37 156C35.8954 156 35 156.895 35 158C35 159.105 35.8954 160 37 160Z" fill="#22274A"/>
<path d="M45 160C46.1046 160 47 159.105 47 158C47 156.895 46.1046 156 45 156C43.8954 156 43 156.895 43 158C43 159.105 43.8954 160 45 160Z" fill="#22274A"/>
<path d="M53 160C54.1046 160 55 159.105 55 158C55 156.895 54.1046 156 53 156C51.8954 156 51 156.895 51 158C51 159.105 51.8954 160 53 160Z" fill="#22274A"/>
<path d="M61 160C62.1046 160 63 159.105 63 158C63 156.895 62.1046 156 61 156C59.8954 156 59 156.895 59 158C59 159.105 59.8954 160 61 160Z" fill="#22274A"/>
<path d="M69 160C70.1046 160 71 159.105 71 158C71 156.895 70.1046 156 69 156C67.8954 156 67 156.895 67 158C67 159.105 67.8954 160 69 160Z" fill="#22274A"/>
<path d="M17 166C18.1046 166 19 165.105 19 164C19 162.895 18.1046 162 17 162C15.8954 162 15 162.895 15 164C15 165.105 15.8954 166 17 166Z" fill="#22274A"/>
<path d="M25 166C26.1046 166 27 165.105 27 164C27 162.895 26.1046 162 25 162C23.8954 162 23 162.895 23 164C23 165.105 23.8954 166 25 166Z" fill="#22274A"/>
<path d="M33 166C34.1046 166 35 165.105 35 164C35 162.895 34.1046 162 33 162C31.8954 162 31 162.895 31 164C31 165.105 31.8954 166 33 166Z" fill="#22274A"/>
<path d="M41 166C42.1046 166 43 165.105 43 164C43 162.895 42.1046 162 41 162C39.8954 162 39 162.895 39 164C39 165.105 39.8954 166 41 166Z" fill="#22274A"/>
<path d="M49 166C50.1046 166 51 165.105 51 164C51 162.895 50.1046 162 49 162C47.8954 162 47 162.895 47 164C47 165.105 47.8954 166 49 166Z" fill="#22274A"/>
<path d="M57 166C58.1046 166 59 165.105 59 164C59 162.895 58.1046 162 57 162C55.8954 162 55 162.895 55 164C55 165.105 55.8954 166 57 166Z" fill="#22274A"/>
<path d="M65 166C66.1046 166 67 165.105 67 164C67 162.895 66.1046 162 65 162C63.8954 162 63 162.895 63 164C63 165.105 63.8954 166 65 166Z" fill="#22274A"/>
<path d="M13 172C14.1046 172 15 171.105 15 170C15 168.895 14.1046 168 13 168C11.8954 168 11 168.895 11 170C11 171.105 11.8954 172 13 172Z" fill="#22274A"/>
<path d="M21 172C22.1046 172 23 171.105 23 170C23 168.895 22.1046 168 21 168C19.8954 168 19 168.895 19 170C19 171.105 19.8954 172 21 172Z" fill="#22274A"/>
<path d="M29 172C30.1046 172 31 171.105 31 170C31 168.895 30.1046 168 29 168C27.8954 168 27 168.895 27 170C27 171.105 27.8954 172 29 172Z" fill="#22274A"/>
<path d="M37 172C38.1046 172 39 171.105 39 170C39 168.895 38.1046 168 37 168C35.8954 168 35 168.895 35 170C35 171.105 35.8954 172 37 172Z" fill="#22274A"/>
<path d="M45 172C46.1046 172 47 171.105 47 170C47 168.895 46.1046 168 45 168C43.8954 168 43 168.895 43 170C43 171.105 43.8954 172 45 172Z" fill="#22274A"/>
<path d="M53 172C54.1046 172 55 171.105 55 170C55 168.895 54.1046 168 53 168C51.8954 168 51 168.895 51 170C51 171.105 51.8954 172 53 172Z" fill="#22274A"/>
<path d="M61 172C62.1046 172 63 171.105 63 170C63 168.895 62.1046 168 61 168C59.8954 168 59 168.895 59 170C59 171.105 59.8954 172 61 172Z" fill="#22274A"/>
<path d="M69 172C70.1046 172 71 171.105 71 170C71 168.895 70.1046 168 69 168C67.8954 168 67 168.895 67 170C67 171.105 67.8954 172 69 172Z" fill="#22274A"/>
<path d="M17 178C18.1046 178 19 177.105 19 176C19 174.895 18.1046 174 17 174C15.8954 174 15 174.895 15 176C15 177.105 15.8954 178 17 178Z" fill="#22274A"/>
<path d="M25 178C26.1046 178 27 177.105 27 176C27 174.895 26.1046 174 25 174C23.8954 174 23 174.895 23 176C23 177.105 23.8954 178 25 178Z" fill="#22274A"/>
<path d="M33 178C34.1046 178 35 177.105 35 176C35 174.895 34.1046 174 33 174C31.8954 174 31 174.895 31 176C31 177.105 31.8954 178 33 178Z" fill="#22274A"/>
<path d="M41 178C42.1046 178 43 177.105 43 176C43 174.895 42.1046 174 41 174C39.8954 174 39 174.895 39 176C39 177.105 39.8954 178 41 178Z" fill="#22274A"/>
<path d="M49 178C50.1046 178 51 177.105 51 176C51 174.895 50.1046 174 49 174C47.8954 174 47 174.895 47 176C47 177.105 47.8954 178 49 178Z" fill="#22274A"/>
<path d="M57 178C58.1046 178 59 177.105 59 176C59 174.895 58.1046 174 57 174C55.8954 174 55 174.895 55 176C55 177.105 55.8954 178 57 178Z" fill="#22274A"/>
<path d="M65 178C66.1046 178 67 177.105 67 176C67 174.895 66.1046 174 65 174C63.8954 174 63 174.895 63 176C63 177.105 63.8954 178 65 178Z" fill="#22274A"/>
<path d="M13 184C14.1046 184 15 183.105 15 182C15 180.895 14.1046 180 13 180C11.8954 180 11 180.895 11 182C11 183.105 11.8954 184 13 184Z" fill="#22274A"/>
<path d="M21 184C22.1046 184 23 183.105 23 182C23 180.895 22.1046 180 21 180C19.8954 180 19 180.895 19 182C19 183.105 19.8954 184 21 184Z" fill="#22274A"/>
<path d="M29 184C30.1046 184 31 183.105 31 182C31 180.895 30.1046 180 29 180C27.8954 180 27 180.895 27 182C27 183.105 27.8954 184 29 184Z" fill="#22274A"/>
<path d="M37 184C38.1046 184 39 183.105 39 182C39 180.895 38.1046 180 37 180C35.8954 180 35 180.895 35 182C35 183.105 35.8954 184 37 184Z" fill="#22274A"/>
<path d="M45 184C46.1046 184 47 183.105 47 182C47 180.895 46.1046 180 45 180C43.8954 180 43 180.895 43 182C43 183.105 43.8954 184 45 184Z" fill="#22274A"/>
<path d="M53 184C54.1046 184 55 183.105 55 182C55 180.895 54.1046 180 53 180C51.8954 180 51 180.895 51 182C51 183.105 51.8954 184 53 184Z" fill="#22274A"/>
<path d="M61 184C62.1046 184 63 183.105 63 182C63 180.895 62.1046 180 61 180C59.8954 180 59 180.895 59 182C59 183.105 59.8954 184 61 184Z" fill="#22274A"/>
<path d="M69 184C70.1046 184 71 183.105 71 182C71 180.895 70.1046 180 69 180C67.8954 180 67 180.895 67 182C67 183.105 67.8954 184 69 184Z" fill="#22274A"/>
<path d="M17 190C18.1046 190 19 189.105 19 188C19 186.895 18.1046 186 17 186C15.8954 186 15 186.895 15 188C15 189.105 15.8954 190 17 190Z" fill="#22274A"/>
<path d="M25 190C26.1046 190 27 189.105 27 188C27 186.895 26.1046 186 25 186C23.8954 186 23 186.895 23 188C23 189.105 23.8954 190 25 190Z" fill="#22274A"/>
<path d="M33 190C34.1046 190 35 189.105 35 188C35 186.895 34.1046 186 33 186C31.8954 186 31 186.895 31 188C31 189.105 31.8954 190 33 190Z" fill="#22274A"/>
<path d="M41 190C42.1046 190 43 189.105 43 188C43 186.895 42.1046 186 41 186C39.8954 186 39 186.895 39 188C39 189.105 39.8954 190 41 190Z" fill="#22274A"/>
<path d="M49 190C50.1046 190 51 189.105 51 188C51 186.895 50.1046 186 49 186C47.8954 186 47 186.895 47 188C47 189.105 47.8954 190 49 190Z" fill="#22274A"/>
<path d="M57 190C58.1046 190 59 189.105 59 188C59 186.895 58.1046 186 57 186C55.8954 186 55 186.895 55 188C55 189.105 55.8954 190 57 190Z" fill="#22274A"/>
<path d="M65 190C66.1046 190 67 189.105 67 188C67 186.895 66.1046 186 65 186C63.8954 186 63 186.895 63 188C63 189.105 63.8954 190 65 190Z" fill="#22274A"/>
<path d="M13 196C14.1046 196 15 195.105 15 194C15 192.895 14.1046 192 13 192C11.8954 192 11 192.895 11 194C11 195.105 11.8954 196 13 196Z" fill="#22274A"/>
<path d="M21 196C22.1046 196 23 195.105 23 194C23 192.895 22.1046 192 21 192C19.8954 192 19 192.895 19 194C19 195.105 19.8954 196 21 196Z" fill="#22274A"/>
<path d="M29 196C30.1046 196 31 195.105 31 194C31 192.895 30.1046 192 29 192C27.8954 192 27 192.895 27 194C27 195.105 27.8954 196 29 196Z" fill="#22274A"/>
<path d="M37 196C38.1046 196 39 195.105 39 194C39 192.895 38.1046 192 37 192C35.8954 192 35 192.895 35 194C35 195.105 35.8954 196 37 196Z" fill="#22274A"/>
<path d="M45 196C46.1046 196 47 195.105 47 194C47 192.895 46.1046 192 45 192C43.8954 192 43 192.895 43 194C43 195.105 43.8954 196 45 196Z" fill="#22274A"/>
<path d="M53 196C54.1046 196 55 195.105 55 194C55 192.895 54.1046 192 53 192C51.8954 192 51 192.895 51 194C51 195.105 51.8954 196 53 196Z" fill="#22274A"/>
<path d="M61 196C62.1046 196 63 195.105 63 194C63 192.895 62.1046 192 61 192C59.8954 192 59 192.895 59 194C59 195.105 59.8954 196 61 196Z" fill="#22274A"/>
<path d="M69 196C70.1046 196 71 195.105 71 194C71 192.895 70.1046 192 69 192C67.8954 192 67 192.895 67 194C67 195.105 67.8954 196 69 196Z" fill="#22274A"/>
<path d="M17 202C18.1046 202 19 201.105 19 200C19 198.895 18.1046 198 17 198C15.8954 198 15 198.895 15 200C15 201.105 15.8954 202 17 202Z" fill="#22274A"/>
<path d="M25 202C26.1046 202 27 201.105 27 200C27 198.895 26.1046 198 25 198C23.8954 198 23 198.895 23 200C23 201.105 23.8954 202 25 202Z" fill="#22274A"/>
<path d="M33 202C34.1046 202 35 201.105 35 200C35 198.895 34.1046 198 33 198C31.8954 198 31 198.895 31 200C31 201.105 31.8954 202 33 202Z" fill="#22274A"/>
<path d="M41 202C42.1046 202 43 201.105 43 200C43 198.895 42.1046 198 41 198C39.8954 198 39 198.895 39 200C39 201.105 39.8954 202 41 202Z" fill="#22274A"/>
<path d="M49 202C50.1046 202 51 201.105 51 200C51 198.895 50.1046 198 49 198C47.8954 198 47 198.895 47 200C47 201.105 47.8954 202 49 202Z" fill="#22274A"/>
<path d="M57 202C58.1046 202 59 201.105 59 200C59 198.895 58.1046 198 57 198C55.8954 198 55 198.895 55 200C55 201.105 55.8954 202 57 202Z" fill="#22274A"/>
<path d="M65 202C66.1046 202 67 201.105 67 200C67 198.895 66.1046 198 65 198C63.8954 198 63 198.895 63 200C63 201.105 63.8954 202 65 202Z" fill="#22274A"/>
<path d="M13 208C14.1046 208 15 207.105 15 206C15 204.895 14.1046 204 13 204C11.8954 204 11 204.895 11 206C11 207.105 11.8954 208 13 208Z" fill="#22274A"/>
<path d="M21 208C22.1046 208 23 207.105 23 206C23 204.895 22.1046 204 21 204C19.8954 204 19 204.895 19 206C19 207.105 19.8954 208 21 208Z" fill="#22274A"/>
<path d="M29 208C30.1046 208 31 207.105 31 206C31 204.895 30.1046 204 29 204C27.8954 204 27 204.895 27 206C27 207.105 27.8954 208 29 208Z" fill="#22274A"/>
<path d="M37 208C38.1046 208 39 207.105 39 206C39 204.895 38.1046 204 37 204C35.8954 204 35 204.895 35 206C35 207.105 35.8954 208 37 208Z" fill="#22274A"/>
<path d="M45 208C46.1046 208 47 207.105 47 206C47 204.895 46.1046 204 45 204C43.8954 204 43 204.895 43 206C43 207.105 43.8954 208 45 208Z" fill="#22274A"/>
<path d="M53 208C54.1046 208 55 207.105 55 206C55 204.895 54.1046 204 53 204C51.8954 204 51 204.895 51 206C51 207.105 51.8954 208 53 208Z" fill="#22274A"/>
<path d="M61 208C62.1046 208 63 207.105 63 206C63 204.895 62.1046 204 61 204C59.8954 204 59 204.895 59 206C59 207.105 59.8954 208 61 208Z" fill="#22274A"/>
<path d="M69 208C70.1046 208 71 207.105 71 206C71 204.895 70.1046 204 69 204C67.8954 204 67 204.895 67 206C67 207.105 67.8954 208 69 208Z" fill="#22274A"/>
<path d="M17 214C18.1046 214 19 213.105 19 212C19 210.895 18.1046 210 17 210C15.8954 210 15 210.895 15 212C15 213.105 15.8954 214 17 214Z" fill="#22274A"/>
<path d="M25 214C26.1046 214 27 213.105 27 212C27 210.895 26.1046 210 25 210C23.8954 210 23 210.895 23 212C23 213.105 23.8954 214 25 214Z" fill="#22274A"/>
<path d="M33 214C34.1046 214 35 213.105 35 212C35 210.895 34.1046 210 33 210C31.8954 210 31 210.895 31 212C31 213.105 31.8954 214 33 214Z" fill="#22274A"/>
<path d="M41 214C42.1046 214 43 213.105 43 212C43 210.895 42.1046 210 41 210C39.8954 210 39 210.895 39 212C39 213.105 39.8954 214 41 214Z" fill="#22274A"/>
<path d="M49 214C50.1046 214 51 213.105 51 212C51 210.895 50.1046 210 49 210C47.8954 210 47 210.895 47 212C47 213.105 47.8954 214 49 214Z" fill="#22274A"/>
<path d="M57 214C58.1046 214 59 213.105 59 212C59 210.895 58.1046 210 57 210C55.8954 210 55 210.895 55 212C55 213.105 55.8954 214 57 214Z" fill="#22274A"/>
<path d="M65 214C66.1046 214 67 213.105 67 212C67 210.895 66.1046 210 65 210C63.8954 210 63 210.895 63 212C63 213.105 63.8954 214 65 214Z" fill="#22274A"/>
<path d="M13 220C14.1046 220 15 219.105 15 218C15 216.895 14.1046 216 13 216C11.8954 216 11 216.895 11 218C11 219.105 11.8954 220 13 220Z" fill="#22274A"/>
<path d="M21 220C22.1046 220 23 219.105 23 218C23 216.895 22.1046 216 21 216C19.8954 216 19 216.895 19 218C19 219.105 19.8954 220 21 220Z" fill="#22274A"/>
<path d="M29 220C30.1046 220 31 219.105 31 218C31 216.895 30.1046 216 29 216C27.8954 216 27 216.895 27 218C27 219.105 27.8954 220 29 220Z" fill="#22274A"/>
<path d="M37 220C38.1046 220 39 219.105 39 218C39 216.895 38.1046 216 37 216C35.8954 216 35 216.895 35 218C35 219.105 35.8954 220 37 220Z" fill="#22274A"/>
<path d="M45 220C46.1046 220 47 219.105 47 218C47 216.895 46.1046 216 45 216C43.8954 216 43 216.895 43 218C43 219.105 43.8954 220 45 220Z" fill="#22274A"/>
<path d="M53 220C54.1046 220 55 219.105 55 218C55 216.895 54.1046 216 53 216C51.8954 216 51 216.895 51 218C51 219.105 51.8954 220 53 220Z" fill="#22274A"/>
<path d="M61 220C62.1046 220 63 219.105 63 218C63 216.895 62.1046 216 61 216C59.8954 216 59 216.895 59 218C59 219.105 59.8954 220 61 220Z" fill="#22274A"/>
<path d="M69 220C70.1046 220 71 219.105 71 218C71 216.895 70.1046 216 69 216C67.8954 216 67 216.895 67 218C67 219.105 67.8954 220 69 220Z" fill="#22274A"/>
<path d="M17 226C18.1046 226 19 225.105 19 224C19 222.895 18.1046 222 17 222C15.8954 222 15 222.895 15 224C15 225.105 15.8954 226 17 226Z" fill="#22274A"/>
<path d="M25 226C26.1046 226 27 225.105 27 224C27 222.895 26.1046 222 25 222C23.8954 222 23 222.895 23 224C23 225.105 23.8954 226 25 226Z" fill="#22274A"/>
<path d="M33 226C34.1046 226 35 225.105 35 224C35 222.895 34.1046 222 33 222C31.8954 222 31 222.895 31 224C31 225.105 31.8954 226 33 226Z" fill="#22274A"/>
<path d="M41 226C42.1046 226 43 225.105 43 224C43 222.895 42.1046 222 41 222C39.8954 222 39 222.895 39 224C39 225.105 39.8954 226 41 226Z" fill="#22274A"/>
<path d="M49 226C50.1046 226 51 225.105 51 224C51 222.895 50.1046 222 49 222C47.8954 222 47 222.895 47 224C47 225.105 47.8954 226 49 226Z" fill="#22274A"/>
<path d="M57 226C58.1046 226 59 225.105 59 224C59 222.895 58.1046 222 57 222C55.8954 222 55 222.895 55 224C55 225.105 55.8954 226 57 226Z" fill="#22274A"/>
<path d="M65 226C66.1046 226 67 225.105 67 224C67 222.895 66.1046 222 65 222C63.8954 222 63 222.895 63 224C63 225.105 63.8954 226 65 226Z" fill="#22274A"/>
<path d="M13 232C14.1046 232 15 231.105 15 230C15 228.895 14.1046 228 13 228C11.8954 228 11 228.895 11 230C11 231.105 11.8954 232 13 232Z" fill="#22274A"/>
<path d="M21 232C22.1046 232 23 231.105 23 230C23 228.895 22.1046 228 21 228C19.8954 228 19 228.895 19 230C19 231.105 19.8954 232 21 232Z" fill="#22274A"/>
<path d="M29 232C30.1046 232 31 231.105 31 230C31 228.895 30.1046 228 29 228C27.8954 228 27 228.895 27 230C27 231.105 27.8954 232 29 232Z" fill="#22274A"/>
<path d="M37 232C38.1046 232 39 231.105 39 230C39 228.895 38.1046 228 37 228C35.8954 228 35 228.895 35 230C35 231.105 35.8954 232 37 232Z" fill="#22274A"/>
<path d="M45 232C46.1046 232 47 231.105 47 230C47 228.895 46.1046 228 45 228C43.8954 228 43 228.895 43 230C43 231.105 43.8954 232 45 232Z" fill="#22274A"/>
<path d="M53 232C54.1046 232 55 231.105 55 230C55 228.895 54.1046 228 53 228C51.8954 228 51 228.895 51 230C51 231.105 51.8954 232 53 232Z" fill="#22274A"/>
<path d="M61 232C62.1046 232 63 231.105 63 230C63 228.895 62.1046 228 61 228C59.8954 228 59 228.895 59 230C59 231.105 59.8954 232 61 232Z" fill="#22274A"/>
<path d="M69 232C70.1046 232 71 231.105 71 230C71 228.895 70.1046 228 69 228C67.8954 228 67 228.895 67 230C67 231.105 67.8954 232 69 232Z" fill="#22274A"/>
<path d="M17 238C18.1046 238 19 237.105 19 236C19 234.895 18.1046 234 17 234C15.8954 234 15 234.895 15 236C15 237.105 15.8954 238 17 238Z" fill="#22274A"/>
<path d="M25 238C26.1046 238 27 237.105 27 236C27 234.895 26.1046 234 25 234C23.8954 234 23 234.895 23 236C23 237.105 23.8954 238 25 238Z" fill="#22274A"/>
<path d="M33 238C34.1046 238 35 237.105 35 236C35 234.895 34.1046 234 33 234C31.8954 234 31 234.895 31 236C31 237.105 31.8954 238 33 238Z" fill="#22274A"/>
<path d="M41 238C42.1046 238 43 237.105 43 236C43 234.895 42.1046 234 41 234C39.8954 234 39 234.895 39 236C39 237.105 39.8954 238 41 238Z" fill="#22274A"/>
<path d="M49 238C50.1046 238 51 237.105 51 236C51 234.895 50.1046 234 49 234C47.8954 234 47 234.895 47 236C47 237.105 47.8954 238 49 238Z" fill="#22274A"/>
<path d="M57 238C58.1046 238 59 237.105 59 236C59 234.895 58.1046 234 57 234C55.8954 234 55 234.895 55 236C55 237.105 55.8954 238 57 238Z" fill="#22274A"/>
<path d="M65 238C66.1046 238 67 237.105 67 236C67 234.895 66.1046 234 65 234C63.8954 234 63 234.895 63 236C63 237.105 63.8954 238 65 238Z" fill="#22274A"/>
<path d="M13 244C14.1046 244 15 243.105 15 242C15 240.895 14.1046 240 13 240C11.8954 240 11 240.895 11 242C11 243.105 11.8954 244 13 244Z" fill="#22274A"/>
<path d="M21 244C22.1046 244 23 243.105 23 242C23 240.895 22.1046 240 21 240C19.8954 240 19 240.895 19 242C19 243.105 19.8954 244 21 244Z" fill="#22274A"/>
<path d="M29 244C30.1046 244 31 243.105 31 242C31 240.895 30.1046 240 29 240C27.8954 240 27 240.895 27 242C27 243.105 27.8954 244 29 244Z" fill="#22274A"/>
<path d="M37 244C38.1046 244 39 243.105 39 242C39 240.895 38.1046 240 37 240C35.8954 240 35 240.895 35 242C35 243.105 35.8954 244 37 244Z" fill="#22274A"/>
<path d="M45 244C46.1046 244 47 243.105 47 242C47 240.895 46.1046 240 45 240C43.8954 240 43 240.895 43 242C43 243.105 43.8954 244 45 244Z" fill="#22274A"/>
<path d="M53 244C54.1046 244 55 243.105 55 242C55 240.895 54.1046 240 53 240C51.8954 240 51 240.895 51 242C51 243.105 51.8954 244 53 244Z" fill="#22274A"/>
<path d="M61 244C62.1046 244 63 243.105 63 242C63 240.895 62.1046 240 61 240C59.8954 240 59 240.895 59 242C59 243.105 59.8954 244 61 244Z" fill="#22274A"/>
<path d="M69 244C70.1046 244 71 243.105 71 242C71 240.895 70.1046 240 69 240C67.8954 240 67 240.895 67 242C67 243.105 67.8954 244 69 244Z" fill="#22274A"/>
</g>
<path d="M67.3371 -1L40.4 240L13.4629 -1H67.3371Z" stroke="#636781" stroke-width="2"/>
</g>
</g>
</g>
<defs>
<clipPath id="clip0_16_66409">
<rect width="81" height="250" fill="white" transform="matrix(-1 0 0 -1 81 250)"/>
</clipPath>
</defs>
</svg>
