<svg width="100%" height="100%" viewBox="0 0 42 42" fill="none" xmlns="http://www.w3.org/2000/svg">
<g clip-path="url(#clip0_137_64033)">
<path d="M25.5 10.5V7.5C25.5 6.70434 25.1839 5.94129 24.6213 5.37867C24.0587 4.81608 23.2957 4.5 22.5 4.5H19.5" stroke="#B8B8B8" stroke-width="3" stroke-linecap="round" stroke-linejoin="round"/>
<path d="M12 31.5H4.5C3.70434 31.5 2.94129 31.1838 2.37868 30.6213C1.81607 30.0588 1.5 29.2957 1.5 28.5V7.5C1.5 6.70434 1.81607 5.94129 2.37868 5.37867C2.94129 4.81608 3.70434 4.5 4.5 4.5H7.5" stroke="#B8B8B8" stroke-width="3" stroke-linecap="round" stroke-linejoin="round"/>
<path d="M37.5 16.5H22.5C20.8432 16.5 19.5 17.8432 19.5 19.5V37.5C19.5 39.1569 20.8432 40.5 22.5 40.5H37.5C39.1569 40.5 40.5 39.1569 40.5 37.5V19.5C40.5 17.8432 39.1569 16.5 37.5 16.5Z" stroke="#B8B8B8" stroke-width="3" stroke-linecap="round" stroke-linejoin="round"/>
<path d="M20.25 1.5H6.75L7.98 6.36C8.05494 6.68529 8.23833 6.97539 8.50005 7.18257C8.76177 7.38975 9.08619 7.50171 9.42 7.5H17.58C17.9138 7.50171 18.2382 7.38975 18.4999 7.18257C18.7617 6.97539 18.9451 6.68529 19.02 6.36L20.25 1.5Z" stroke="#B8B8B8" stroke-width="3" stroke-linecap="round" stroke-linejoin="round"/>
<path d="M25.5 25.5H34.5" stroke="#B8B8B8" stroke-width="3" stroke-linecap="round" stroke-linejoin="round"/>
<path d="M25.5 31.5H34.5" stroke="#B8B8B8" stroke-width="3" stroke-linecap="round" stroke-linejoin="round"/>
</g>
<defs>
<clipPath id="clip0_137_64033">
<rect width="42" height="42" fill="white"/>
</clipPath>
</defs>
</svg>
