<svg width="100%" height="100%" viewBox="0 0 120 60" fill="none" xmlns="http://www.w3.org/2000/svg">
<rect x="-1" y="1" width="118" height="58" rx="5" transform="matrix(-1 0 0 1 118 0)" fill="#A3A8CC"/>
<rect x="-1" y="1" width="118" height="58" rx="5" transform="matrix(-1 0 0 1 118 0)" stroke="#3B4166" stroke-width="2"/>
<mask id="path-2-inside-1_92_63733" fill="white">
<path d="M11 0H6C2.68629 0 0 2.68629 0 6V54C0 57.3137 2.68629 60 6 60H11V0Z"/>
</mask>
<path d="M11 0H6C2.68629 0 0 2.68629 0 6V54C0 57.3137 2.68629 60 6 60H11V0Z" fill="#6871AD"/>
<path d="M11 -2H6C1.58172 -2 -2 1.58172 -2 6H2C2 3.79086 3.79086 2 6 2H11V-2ZM-2 54C-2 58.4183 1.58172 62 6 62H11V58H6C3.79086 58 2 56.2091 2 54H-2ZM11 60V0V60ZM6 -2C1.58172 -2 -2 1.58172 -2 6V54C-2 58.4183 1.58172 62 6 62V58C3.79086 58 2 56.2091 2 54V6C2 3.79086 3.79086 2 6 2V-2Z" fill="#3B4166" mask="url(#path-2-inside-1_92_63733)"/>
<mask id="path-4-inside-2_92_63733" fill="white">
<path d="M64 0H56V60H64V0Z"/>
</mask>
<path d="M64 0H56V60H64V0Z" fill="#6871AD"/>
<path d="M64 2H56V-2H64V2ZM56 58H64V62H56V58Z" fill="#3B4166" mask="url(#path-4-inside-2_92_63733)"/>
<path d="M109.148 32.022C109.148 18.044 108.226 10.5 103.012 10.5H41.5593C40.919 10.5 40.5 10.9716 40.5 11.5493C40.5 12.127 40.919 12.5987 41.5593 12.5987H103C106.969 12.5987 107.076 23.1097 107.076 32.1399C107.076 44.2037 104.969 47.0279 101 47.0279H25.7947L22.1747 47.1929L22.3842 47.7353L25.271 45.2358L25.6233 44.9228C25.8096 44.7342 25.9026 44.5102 25.9026 44.2037C25.9026 43.5906 25.4953 43.1661 24.8784 43.1661C24.6223 43.1661 24.3196 43.284 24.1218 43.4963L20.2773 47.2991C20.0445 47.5231 19.9281 47.7942 19.9281 48.0772C19.9281 48.3719 20.0445 48.6431 20.2773 48.8671L24.1218 52.6699C24.3196 52.8703 24.6223 53 24.8784 53C25.4953 53 25.9026 52.5756 25.9026 51.9625C25.9026 51.6559 25.8096 51.4319 25.6233 51.2433L25.271 50.9186L22.3842 48.4309L22.1747 48.9732L25.7947 49.1383H100.825C106.145 49.1383 109.148 46 109.148 32.022Z" fill="#FFF5E1"/>
<circle cx="7.5" cy="7.5" r="7.5" transform="matrix(-1 0 0 1 35 5)" fill="url(#paint0_linear_92_63733)"/>
<circle cx="6.44531" cy="6.44531" r="6.44531" transform="matrix(-1 0 0 1 33.9453 6.05469)" fill="url(#paint1_linear_92_63733)"/>
<defs>
<linearGradient id="paint0_linear_92_63733" x1="1.875" y1="1.75781" x2="12.3633" y2="15" gradientUnits="userSpaceOnUse">
<stop stop-color="#B5A687"/>
<stop offset="1" stop-color="#6C6250"/>
</linearGradient>
<linearGradient id="paint1_linear_92_63733" x1="2.28516" y1="0.644531" x2="10.8984" y2="12.8906" gradientUnits="userSpaceOnUse">
<stop stop-color="#FFFAF1"/>
<stop offset="1" stop-color="#F7DDAB"/>
</linearGradient>
</defs>
</svg>
