<svg width="100%" height="100%" viewBox="0 0 100 10" fill="none" xmlns="http://www.w3.org/2000/svg">
<ellipse cx="1.47059" cy="7.5" rx="1.47059" ry="1.5" fill="#0a0e13"/>
<ellipse cx="7.35294" cy="7.5" rx="1.47059" ry="1.5" fill="#0a0e13"/>
<ellipse cx="13.2353" cy="7.5" rx="1.47059" ry="1.5" fill="#0a0e13"/>
<ellipse cx="19.1177" cy="7.5" rx="1.47059" ry="1.5" fill="#0a0e13"/>
<ellipse cx="25" cy="7.5" rx="1.47059" ry="1.5" fill="#0a0e13"/>
<ellipse cx="30.8824" cy="7.5" rx="1.47059" ry="1.5" fill="#0a0e13"/>
<ellipse cx="36.7647" cy="7.5" rx="1.47059" ry="1.5" fill="#0a0e13"/>
<ellipse cx="42.6471" cy="7.5" rx="1.47059" ry="1.5" fill="#0a0e13"/>
<ellipse cx="48.5294" cy="7.5" rx="1.47059" ry="1.5" fill="#0a0e13"/>
<ellipse cx="54.4118" cy="7.5" rx="1.47059" ry="1.5" fill="#0a0e13"/>
<ellipse cx="60.2941" cy="7.5" rx="1.47059" ry="1.5" fill="#0a0e13"/>
<ellipse cx="66.1765" cy="7.5" rx="1.47059" ry="1.5" fill="#0a0e13"/>
<ellipse cx="72.0588" cy="7.5" rx="1.47059" ry="1.5" fill="#0a0e13"/>
<ellipse cx="77.9412" cy="7.5" rx="1.47059" ry="1.5" fill="#0a0e13"/>
<ellipse cx="83.8235" cy="7.5" rx="1.47059" ry="1.5" fill="#0a0e13"/>
<ellipse cx="89.7059" cy="7.5" rx="1.47059" ry="1.5" fill="#0a0e13"/>
<ellipse cx="95.5882" cy="7.5" rx="1.47059" ry="1.5" fill="#0a0e13"/>
<ellipse cx="4.41175" cy="2.5" rx="1.47059" ry="1.5" fill="#0a0e13"/>
<ellipse cx="10.2941" cy="2.5" rx="1.47059" ry="1.5" fill="#0a0e13"/>
<ellipse cx="16.1765" cy="2.5" rx="1.47059" ry="1.5" fill="#0a0e13"/>
<ellipse cx="22.0588" cy="2.5" rx="1.47059" ry="1.5" fill="#0a0e13"/>
<ellipse cx="27.9412" cy="2.5" rx="1.47059" ry="1.5" fill="#0a0e13"/>
<ellipse cx="33.8235" cy="2.5" rx="1.47059" ry="1.5" fill="#0a0e13"/>
<ellipse cx="39.7059" cy="2.5" rx="1.47059" ry="1.5" fill="#0a0e13"/>
<ellipse cx="45.5882" cy="2.5" rx="1.47059" ry="1.5" fill="#0a0e13"/>
<ellipse cx="51.4706" cy="2.5" rx="1.47059" ry="1.5" fill="#0a0e13"/>
<ellipse cx="57.3529" cy="2.5" rx="1.47059" ry="1.5" fill="#0a0e13"/>
<ellipse cx="63.2353" cy="2.5" rx="1.47059" ry="1.5" fill="#0a0e13"/>
<ellipse cx="69.1177" cy="2.5" rx="1.47059" ry="1.5" fill="#0a0e13"/>
<ellipse cx="75" cy="2.5" rx="1.47059" ry="1.5" fill="#0a0e13"/>
<ellipse cx="80.8823" cy="2.5" rx="1.47059" ry="1.5" fill="#0a0e13"/>
<ellipse cx="86.7647" cy="2.5" rx="1.47059" ry="1.5" fill="#0a0e13"/>
<ellipse cx="92.6471" cy="2.5" rx="1.47059" ry="1.5" fill="#0a0e13"/>
<ellipse cx="98.5294" cy="2.5" rx="1.47059" ry="1.5" fill="#0a0e13"/>
</svg>
