<svg width="100%" height="100%" viewBox="0 0 240 24" fill="none" xmlns="http://www.w3.org/2000/svg">
<ellipse cx="3.52941" cy="18" rx="3.52941" ry="3.6" fill="#0A0E13" fill-opacity="0.5"/>
<ellipse cx="17.6471" cy="18" rx="3.52941" ry="3.6" fill="#0A0E13" fill-opacity="0.5"/>
<ellipse cx="31.7647" cy="18" rx="3.52941" ry="3.6" fill="#0A0E13" fill-opacity="0.5"/>
<ellipse cx="45.8824" cy="18" rx="3.52941" ry="3.6" fill="#0A0E13" fill-opacity="0.5"/>
<ellipse cx="60" cy="18" rx="3.52941" ry="3.6" fill="#0A0E13" fill-opacity="0.5"/>
<ellipse cx="74.1177" cy="18" rx="3.52941" ry="3.6" fill="#0A0E13" fill-opacity="0.5"/>
<ellipse cx="88.2353" cy="18" rx="3.52941" ry="3.6" fill="#0A0E13" fill-opacity="0.5"/>
<ellipse cx="102.353" cy="18" rx="3.52941" ry="3.6" fill="#0A0E13" fill-opacity="0.5"/>
<ellipse cx="116.471" cy="18" rx="3.52941" ry="3.6" fill="#0A0E13" fill-opacity="0.5"/>
<ellipse cx="130.588" cy="18" rx="3.52941" ry="3.6" fill="#0A0E13" fill-opacity="0.5"/>
<ellipse cx="144.706" cy="18" rx="3.52941" ry="3.6" fill="#0A0E13" fill-opacity="0.5"/>
<ellipse cx="158.824" cy="18" rx="3.52941" ry="3.6" fill="#0A0E13" fill-opacity="0.5"/>
<ellipse cx="172.941" cy="18" rx="3.52941" ry="3.6" fill="#0A0E13" fill-opacity="0.5"/>
<ellipse cx="187.059" cy="18" rx="3.52941" ry="3.6" fill="#0A0E13" fill-opacity="0.5"/>
<ellipse cx="201.176" cy="18" rx="3.52941" ry="3.6" fill="#0A0E13" fill-opacity="0.5"/>
<ellipse cx="215.294" cy="18" rx="3.52941" ry="3.6" fill="#0A0E13" fill-opacity="0.5"/>
<ellipse cx="229.412" cy="18" rx="3.52941" ry="3.6" fill="#0A0E13" fill-opacity="0.5"/>
<ellipse cx="10.5882" cy="6.00002" rx="3.52941" ry="3.6" fill="#0A0E13" fill-opacity="0.5"/>
<ellipse cx="24.7059" cy="6.00002" rx="3.52941" ry="3.6" fill="#0A0E13" fill-opacity="0.5"/>
<ellipse cx="38.8235" cy="6.00002" rx="3.52941" ry="3.6" fill="#0A0E13" fill-opacity="0.5"/>
<ellipse cx="52.9412" cy="6.00002" rx="3.52941" ry="3.6" fill="#0A0E13" fill-opacity="0.5"/>
<ellipse cx="67.0588" cy="6.00002" rx="3.52941" ry="3.6" fill="#0A0E13" fill-opacity="0.5"/>
<ellipse cx="81.1765" cy="6.00002" rx="3.52941" ry="3.6" fill="#0A0E13" fill-opacity="0.5"/>
<ellipse cx="95.2941" cy="6.00002" rx="3.52941" ry="3.6" fill="#0A0E13" fill-opacity="0.5"/>
<ellipse cx="109.412" cy="6.00002" rx="3.52941" ry="3.6" fill="#0A0E13" fill-opacity="0.5"/>
<ellipse cx="123.529" cy="6.00002" rx="3.52941" ry="3.6" fill="#0A0E13" fill-opacity="0.5"/>
<ellipse cx="137.647" cy="6.00002" rx="3.52941" ry="3.6" fill="#0A0E13" fill-opacity="0.5"/>
<ellipse cx="151.765" cy="6.00002" rx="3.52941" ry="3.6" fill="#0A0E13" fill-opacity="0.5"/>
<ellipse cx="165.882" cy="6.00002" rx="3.52941" ry="3.6" fill="#0A0E13" fill-opacity="0.5"/>
<ellipse cx="180" cy="6.00002" rx="3.52941" ry="3.6" fill="#0A0E13" fill-opacity="0.5"/>
<ellipse cx="194.118" cy="6.00002" rx="3.52941" ry="3.6" fill="#0A0E13" fill-opacity="0.5"/>
<ellipse cx="208.235" cy="6.00002" rx="3.52941" ry="3.6" fill="#0A0E13" fill-opacity="0.5"/>
<ellipse cx="222.353" cy="6.00002" rx="3.52941" ry="3.6" fill="#0A0E13" fill-opacity="0.5"/>
<ellipse cx="236.471" cy="6.00002" rx="3.52941" ry="3.6" fill="#0A0E13" fill-opacity="0.5"/>
</svg>
