<?xml version="1.0" encoding="iso-8859-1"?>
<!-- Generator: Adobe Illustrator 18.0.0, SVG Export Plug-In . SVG Version: 6.00 Build 0)  -->
<!DOCTYPE svg PUBLIC "-//W3C//DTD SVG 1.1//EN" "http://www.w3.org/Graphics/SVG/1.1/DTD/svg11.dtd">
<svg version="1.1" id="Capa_1" xmlns="http://www.w3.org/2000/svg" xmlns:xlink="http://www.w3.org/1999/xlink" x="0px" y="0px"
	 viewBox="0 0 297.5 297.5" style="enable-background:new 0 0 297.5 297.5;" xml:space="preserve">
<g>
	<g id="XMLID_29_">
		<g>
			<path style="fill:#345984;" d="M148.748,102.32c25.6,0,46.43,20.83,46.43,46.43s-20.83,46.43-46.43,46.43
				s-46.42-20.83-46.42-46.43S123.148,102.32,148.748,102.32z M183.828,148.75c0-19.34-15.74-35.07-35.08-35.07
				s-35.07,15.73-35.07,35.07s15.73,35.07,35.07,35.07S183.828,168.09,183.828,148.75z"/>
			<path style="fill:#6F8FCC;" d="M249.538,66.7l20.67,35.79l-15.88,9.17c-3.92,2.26-5.85,6.85-4.73,11.24
				c2.15,8.4,3.23,17.1,3.23,25.85s-1.08,17.45-3.23,25.85c-1.12,4.39,0.81,8.98,4.73,11.24l15.88,9.17l-20.67,35.79l-15.9-9.18
				c-3.92-2.26-8.87-1.64-12.11,1.52c-12.51,12.25-27.98,21.19-44.73,25.87c-4.37,1.21-7.38,5.19-7.38,9.72v18.33h-41.33v-18.33
				c0-4.53-3.02-8.51-7.38-9.72c-16.75-4.68-32.22-13.62-44.74-25.87c-3.23-3.16-8.18-3.78-12.1-1.52l-15.91,9.18l-20.66-35.79
				l15.88-9.17c3.91-2.26,5.85-6.85,4.73-11.24c-2.15-8.4-3.24-17.1-3.24-25.85s1.09-17.45,3.24-25.85
				c1.12-4.39-0.82-8.98-4.73-11.24l-15.88-9.17l20.66-35.79l15.91,9.18c3.92,2.26,8.87,1.64,12.1-1.52
				c12.52-12.25,27.99-21.19,44.74-25.87c4.36-1.21,7.38-5.19,7.38-9.72V20.44h41.33v18.33c0,4.53,3.01,8.51,7.38,9.72
				c16.75,4.68,32.22,13.62,44.73,25.87c3.24,3.16,8.19,3.78,12.11,1.52L249.538,66.7z M215.358,148.75
				c0-36.73-29.88-66.61-66.61-66.61s-66.61,29.88-66.61,66.61s29.88,66.61,66.61,66.61S215.358,185.48,215.358,148.75z"/>
			<path d="M292.738,101.14c1.33,2.31,1.7,5.07,1,7.66c-0.69,2.58-2.38,4.79-4.7,6.12l-18.21,10.52c1.46,7.66,2.19,15.47,2.19,23.31
				s-0.73,15.65-2.19,23.31l18.21,10.52c2.32,1.33,4.01,3.54,4.7,6.12c0.7,2.59,0.33,5.35-1,7.66l-30.76,53.28
				c-2.79,4.82-8.96,6.48-13.79,3.69l-18.23-10.53c-11.87,10.25-25.61,18.2-40.36,23.34v21.02c0,5.57-4.52,10.09-10.09,10.09h-61.51
				c-5.58,0-10.1-4.52-10.1-10.09v-21.02c-14.74-5.14-28.48-13.09-40.35-23.34l-18.24,10.53c-4.83,2.79-11,1.13-13.78-3.69
				l-30.76-53.28c-1.34-2.31-1.7-5.07-1.01-7.66c0.69-2.58,2.39-4.79,4.7-6.12l18.21-10.52c-1.45-7.66-2.18-15.47-2.18-23.31
				s0.73-15.65,2.18-23.31l-18.21-10.52c-2.31-1.33-4.01-3.54-4.7-6.12c-0.69-2.59-0.33-5.35,1.01-7.66l30.76-53.28
				c2.78-4.82,8.96-6.48,13.78-3.69l18.24,10.53c11.87-10.25,25.61-18.2,40.35-23.34V10.34c0-5.57,4.52-10.09,10.1-10.09h61.51
				c5.57,0,10.09,4.52,10.09,10.09v21.02c14.75,5.14,28.49,13.09,40.36,23.34l18.23-10.53c4.83-2.79,11-1.13,13.79,3.69
				L292.738,101.14z M270.208,102.49l-20.67-35.79l-15.9,9.18c-3.92,2.26-8.87,1.64-12.11-1.52
				c-12.51-12.25-27.98-21.19-44.73-25.87c-4.37-1.21-7.38-5.19-7.38-9.72V20.44h-41.33v18.33c0,4.53-3.02,8.51-7.38,9.72
				c-16.75,4.68-32.22,13.62-44.74,25.87c-3.23,3.16-8.18,3.78-12.1,1.52l-15.91-9.18l-20.66,35.79l15.88,9.17
				c3.91,2.26,5.85,6.85,4.73,11.24c-2.15,8.4-3.24,17.1-3.24,25.85s1.09,17.45,3.24,25.85c1.12,4.39-0.82,8.98-4.73,11.24
				l-15.88,9.17l20.66,35.79l15.91-9.18c3.92-2.26,8.87-1.64,12.1,1.52c12.52,12.25,27.99,21.19,44.74,25.87
				c4.36,1.21,7.38,5.19,7.38,9.72v18.33h41.33v-18.33c0-4.53,3.01-8.51,7.38-9.72c16.75-4.68,32.22-13.62,44.73-25.87
				c3.24-3.16,8.19-3.78,12.11-1.52l15.9,9.18l20.67-35.79l-15.88-9.17c-3.92-2.26-5.85-6.85-4.73-11.24
				c2.15-8.4,3.23-17.1,3.23-25.85s-1.08-17.45-3.23-25.85c-1.12-4.39,0.81-8.98,4.73-11.24L270.208,102.49z"/>
			<path d="M148.748,82.14c36.73,0,66.61,29.88,66.61,66.61s-29.88,66.61-66.61,66.61s-66.61-29.88-66.61-66.61
				S112.018,82.14,148.748,82.14z M195.178,148.75c0-25.6-20.83-46.43-46.43-46.43s-46.42,20.83-46.42,46.43
				s20.82,46.43,46.42,46.43S195.178,174.35,195.178,148.75z"/>
			<path d="M148.748,113.68c19.34,0,35.08,15.73,35.08,35.07s-15.74,35.07-35.08,35.07s-35.07-15.73-35.07-35.07
				S129.408,113.68,148.748,113.68z M163.638,148.75c0-8.21-6.68-14.89-14.89-14.89c-8.21,0-14.88,6.68-14.88,14.89
				s6.67,14.89,14.88,14.89C156.958,163.64,163.638,156.96,163.638,148.75z"/>
		</g>
	</g>
</g>
</svg>
