<svg width="100%" height="100%" viewBox="0 0 800 142" fill="none" xmlns="http://www.w3.org/2000/svg">
<rect x="4" y="4" width="792" height="134" rx="67" fill="url(#paint0_linear_113_63896)" stroke="#262730" stroke-width="8"/>
<path d="M168.44 70C168.227 70 168.035 69.936 167.864 69.808C167.736 69.6373 167.672 69.4453 167.672 69.232V25.968C167.672 25.7547 167.736 25.584 167.864 25.456C168.035 25.2853 168.227 25.2 168.44 25.2H174.328C174.541 25.2 174.712 25.2853 174.84 25.456C175.011 25.584 175.096 25.7547 175.096 25.968V63.28C175.096 63.4933 175.203 63.6 175.416 63.6H196.856C197.069 63.6 197.24 63.6853 197.368 63.856C197.539 63.984 197.624 64.1547 197.624 64.368V69.232C197.624 69.4453 197.539 69.6373 197.368 69.808C197.24 69.936 197.069 70 196.856 70H168.44ZM217.419 70.512C214.048 70.512 211.147 69.6587 208.715 67.952C206.325 66.2453 204.64 63.8773 203.659 60.848C202.933 58.544 202.571 56.112 202.571 53.552C202.571 50.8213 202.912 48.3893 203.595 46.256C204.576 43.2693 206.283 40.944 208.715 39.28C211.147 37.616 214.069 36.784 217.483 36.784C220.725 36.784 223.52 37.616 225.867 39.28C228.256 40.944 229.941 43.248 230.923 46.192C231.691 48.24 232.075 50.672 232.075 53.488C232.075 56.176 231.712 58.608 230.987 60.784C230.005 63.8133 228.32 66.2027 225.931 67.952C223.541 69.6587 220.704 70.512 217.419 70.512ZM217.419 64.112C218.997 64.112 220.341 63.664 221.451 62.768C222.603 61.872 223.435 60.6133 223.947 58.992C224.373 57.584 224.587 55.792 224.587 53.616C224.587 51.312 224.373 49.52 223.947 48.24C223.477 46.6187 222.667 45.3813 221.515 44.528C220.363 43.632 218.955 43.184 217.291 43.184C215.712 43.184 214.347 43.632 213.195 44.528C212.043 45.3813 211.211 46.6187 210.699 48.24C210.272 49.7333 210.059 51.5253 210.059 53.616C210.059 55.7067 210.272 57.4987 210.699 58.992C211.168 60.6133 211.979 61.872 213.131 62.768C214.325 63.664 215.755 64.112 217.419 64.112ZM252.725 70.512C249.44 70.512 246.602 69.68 244.213 68.016C241.824 66.3093 240.16 64.0267 239.221 61.168C238.538 59.248 238.197 56.688 238.197 53.488C238.197 50.416 238.538 47.8987 239.221 45.936C240.117 43.12 241.76 40.9013 244.149 39.28C246.581 37.616 249.44 36.784 252.725 36.784C256.053 36.784 258.954 37.616 261.429 39.28C263.904 40.944 265.546 43.0347 266.357 45.552C266.57 46.2347 266.72 46.9173 266.805 47.6V47.728C266.805 48.1547 266.57 48.4107 266.101 48.496L260.341 49.328H260.213C259.829 49.328 259.573 49.1147 259.445 48.688C259.445 48.4747 259.424 48.304 259.381 48.176C259.296 47.8347 259.21 47.536 259.125 47.28C258.741 46.0853 257.973 45.104 256.821 44.336C255.669 43.568 254.304 43.184 252.725 43.184C251.104 43.184 249.717 43.6107 248.565 44.464C247.456 45.2747 246.709 46.4053 246.325 47.856C245.898 49.2213 245.685 51.12 245.685 53.552C245.685 55.8987 245.877 57.7973 246.261 59.248C246.688 60.7413 247.456 61.936 248.565 62.832C249.674 63.6853 251.061 64.112 252.725 64.112C254.346 64.112 255.733 63.7067 256.885 62.896C258.08 62.0427 258.848 60.912 259.189 59.504C259.232 59.4187 259.253 59.312 259.253 59.184C259.296 59.1413 259.317 59.0773 259.317 58.992C259.445 58.48 259.744 58.2667 260.213 58.352L265.973 59.248C266.186 59.2907 266.357 59.3973 266.485 59.568C266.656 59.696 266.72 59.888 266.677 60.144C266.549 60.8267 266.442 61.3173 266.357 61.616C265.546 64.3467 263.904 66.5227 261.429 68.144C258.954 69.7227 256.053 70.512 252.725 70.512ZM285.573 36.784C288.261 36.784 290.629 37.2533 292.677 38.192C294.725 39.1307 296.304 40.432 297.413 42.096C298.522 43.7173 299.077 45.5733 299.077 47.664V69.232C299.077 69.4453 298.992 69.6373 298.821 69.808C298.693 69.936 298.522 70 298.309 70H292.421C292.208 70 292.016 69.936 291.845 69.808C291.717 69.6373 291.653 69.4453 291.653 69.232V67.184C291.653 67.056 291.61 66.992 291.525 66.992C291.44 66.9493 291.354 66.9707 291.269 67.056C289.178 69.36 286.149 70.512 282.181 70.512C278.981 70.512 276.336 69.7013 274.245 68.08C272.197 66.4587 271.173 64.048 271.173 60.848C271.173 57.52 272.325 54.9387 274.629 53.104C276.976 51.2267 280.261 50.288 284.485 50.288H291.333C291.546 50.288 291.653 50.1813 291.653 49.968V48.432C291.653 46.768 291.162 45.488 290.181 44.592C289.2 43.6533 287.728 43.184 285.765 43.184C284.144 43.184 282.821 43.4827 281.797 44.08C280.816 44.6347 280.197 45.424 279.941 46.448C279.813 46.96 279.514 47.1733 279.045 47.088L272.837 46.32C272.624 46.2773 272.432 46.2133 272.261 46.128C272.133 46 272.09 45.8507 272.133 45.68C272.474 43.0773 273.861 40.944 276.293 39.28C278.768 37.616 281.861 36.784 285.573 36.784ZM284.037 64.624C286.128 64.624 287.92 64.0693 289.413 62.96C290.906 61.8507 291.653 60.4427 291.653 58.736V55.728C291.653 55.5147 291.546 55.408 291.333 55.408H285.957C283.696 55.408 281.904 55.8347 280.581 56.688C279.301 57.5413 278.661 58.7573 278.661 60.336C278.661 61.7013 279.152 62.768 280.133 63.536C281.157 64.2613 282.458 64.624 284.037 64.624ZM307.299 70C307.085 70 306.893 69.936 306.723 69.808C306.595 69.6373 306.531 69.4453 306.531 69.232V25.968C306.531 25.7547 306.595 25.584 306.723 25.456C306.893 25.2853 307.085 25.2 307.299 25.2H313.187C313.4 25.2 313.571 25.2853 313.699 25.456C313.869 25.584 313.955 25.7547 313.955 25.968V69.232C313.955 69.4453 313.869 69.6373 313.699 69.808C313.571 69.936 313.4 70 313.187 70H307.299ZM364.224 25.712C364.437 25.3707 364.736 25.2 365.12 25.2H371.008C371.221 25.2 371.392 25.2853 371.52 25.456C371.69 25.584 371.776 25.7547 371.776 25.968V69.232C371.776 69.4453 371.69 69.6373 371.52 69.808C371.392 69.936 371.221 70 371.008 70H365.12C364.906 70 364.714 69.936 364.544 69.808C364.416 69.6373 364.352 69.4453 364.352 69.232V38.704C364.352 38.576 364.288 38.4907 364.16 38.448C364.074 38.4053 364.01 38.448 363.968 38.576L355.968 50.864C355.754 51.2053 355.456 51.376 355.072 51.376H352.128C351.744 51.376 351.445 51.2053 351.232 50.864L343.168 38.64C343.125 38.512 343.04 38.4693 342.912 38.512C342.826 38.5547 342.784 38.64 342.784 38.768V69.232C342.784 69.4453 342.698 69.6373 342.528 69.808C342.4 69.936 342.229 70 342.016 70H336.128C335.914 70 335.722 69.936 335.552 69.808C335.424 69.6373 335.36 69.4453 335.36 69.232V25.968C335.36 25.7547 335.424 25.584 335.552 25.456C335.722 25.2853 335.914 25.2 336.128 25.2H342.016C342.4 25.2 342.698 25.3707 342.912 25.712L353.344 41.52C353.429 41.6053 353.514 41.648 353.6 41.648C353.685 41.648 353.749 41.6053 353.792 41.52L364.224 25.712ZM399.734 38.064C399.734 37.8507 399.798 37.68 399.926 37.552C400.096 37.3813 400.288 37.296 400.502 37.296H406.326C406.539 37.296 406.71 37.3813 406.838 37.552C407.008 37.68 407.094 37.8507 407.094 38.064V69.232C407.094 69.4453 407.008 69.6373 406.838 69.808C406.71 69.936 406.539 70 406.326 70H400.502C400.288 70 400.096 69.936 399.926 69.808C399.798 69.6373 399.734 69.4453 399.734 69.232V67.184C399.734 67.056 399.691 66.9707 399.606 66.928C399.52 66.8853 399.435 66.928 399.35 67.056C397.6 69.3173 394.976 70.448 391.478 70.448C388.235 70.448 385.504 69.5093 383.286 67.632C381.11 65.7547 380.022 63.088 380.022 59.632V38.064C380.022 37.8507 380.086 37.68 380.214 37.552C380.384 37.3813 380.576 37.296 380.79 37.296H386.678C386.891 37.296 387.062 37.3813 387.19 37.552C387.36 37.68 387.446 37.8507 387.446 38.064V57.52C387.446 59.5253 387.958 61.1253 388.982 62.32C390.048 63.5147 391.52 64.112 393.398 64.112C395.318 64.112 396.854 63.5147 398.006 62.32C399.158 61.1253 399.734 59.5253 399.734 57.52V38.064ZM415.799 70C415.585 70 415.393 69.936 415.223 69.808C415.095 69.6373 415.031 69.4453 415.031 69.232V25.968C415.031 25.7547 415.095 25.584 415.223 25.456C415.393 25.2853 415.585 25.2 415.799 25.2H421.687C421.9 25.2 422.071 25.2853 422.199 25.456C422.369 25.584 422.455 25.7547 422.455 25.968V69.232C422.455 69.4453 422.369 69.6373 422.199 69.808C422.071 69.936 421.9 70 421.687 70H415.799ZM447.687 42.544C447.687 42.7573 447.602 42.9493 447.431 43.12C447.303 43.248 447.132 43.312 446.919 43.312H440.391C440.178 43.312 440.071 43.4187 440.071 43.632V59.056C440.071 60.6773 440.412 61.8507 441.095 62.576C441.82 63.3013 442.951 63.664 444.487 63.664H446.407C446.62 63.664 446.791 63.7493 446.919 63.92C447.09 64.048 447.175 64.2187 447.175 64.432V69.232C447.175 69.7013 446.919 69.9787 446.407 70.064L443.079 70.128C439.708 70.128 437.191 69.552 435.527 68.4C433.863 67.248 433.01 65.072 432.967 61.872V43.632C432.967 43.4187 432.86 43.312 432.647 43.312H428.999C428.786 43.312 428.594 43.248 428.423 43.12C428.295 42.9493 428.231 42.7573 428.231 42.544V38.064C428.231 37.8507 428.295 37.68 428.423 37.552C428.594 37.3813 428.786 37.296 428.999 37.296H432.647C432.86 37.296 432.967 37.1893 432.967 36.976V29.488C432.967 29.2747 433.031 29.104 433.159 28.976C433.33 28.8053 433.522 28.72 433.735 28.72H439.303C439.516 28.72 439.687 28.8053 439.815 28.976C439.986 29.104 440.071 29.2747 440.071 29.488V36.976C440.071 37.1893 440.178 37.296 440.391 37.296H446.919C447.132 37.296 447.303 37.3813 447.431 37.552C447.602 37.68 447.687 37.8507 447.687 38.064V42.544ZM458.505 32.816C457.182 32.816 456.094 32.3893 455.241 31.536C454.387 30.6827 453.961 29.5947 453.961 28.272C453.961 26.9493 454.387 25.8613 455.241 25.008C456.094 24.1547 457.182 23.728 458.505 23.728C459.827 23.728 460.915 24.1547 461.769 25.008C462.622 25.8613 463.049 26.9493 463.049 28.272C463.049 29.5947 462.622 30.6827 461.769 31.536C460.915 32.3893 459.827 32.816 458.505 32.816ZM455.433 70C455.219 70 455.027 69.936 454.857 69.808C454.729 69.6373 454.665 69.4453 454.665 69.232V38C454.665 37.7867 454.729 37.616 454.857 37.488C455.027 37.3173 455.219 37.232 455.433 37.232H461.321C461.534 37.232 461.705 37.3173 461.833 37.488C462.003 37.616 462.089 37.7867 462.089 38V69.232C462.089 69.4453 462.003 69.6373 461.833 69.808C461.705 69.936 461.534 70 461.321 70H455.433ZM498.305 45.744C499.073 47.92 499.457 50.5867 499.457 53.744C499.457 56.7733 499.094 59.376 498.369 61.552C497.43 64.368 495.916 66.5653 493.825 68.144C491.777 69.7227 489.174 70.512 486.017 70.512C482.988 70.512 480.556 69.424 478.721 67.248C478.636 67.1627 478.55 67.1413 478.465 67.184C478.38 67.2267 478.337 67.312 478.337 67.44V81.328C478.337 81.5413 478.252 81.712 478.081 81.84C477.953 82.0107 477.782 82.096 477.569 82.096H471.681C471.468 82.096 471.276 82.0107 471.105 81.84C470.977 81.712 470.913 81.5413 470.913 81.328V38.064C470.913 37.8507 470.977 37.68 471.105 37.552C471.276 37.3813 471.468 37.296 471.681 37.296H477.569C477.782 37.296 477.953 37.3813 478.081 37.552C478.252 37.68 478.337 37.8507 478.337 38.064V39.984C478.337 40.112 478.38 40.1973 478.465 40.24C478.55 40.2827 478.636 40.24 478.721 40.112C480.598 37.8933 483.052 36.784 486.081 36.784C489.11 36.784 491.67 37.5733 493.761 39.152C495.852 40.7307 497.366 42.928 498.305 45.744ZM489.985 61.424C491.265 59.4613 491.905 56.8587 491.905 53.616C491.905 50.5013 491.393 48.048 490.369 46.256C489.174 44.1653 487.361 43.12 484.929 43.12C482.71 43.12 481.046 44.144 479.937 46.192C478.956 47.856 478.465 50.3307 478.465 53.616C478.465 56.9867 478.998 59.5467 480.065 61.296C481.174 63.1733 482.774 64.112 484.865 64.112C487.126 64.112 488.833 63.216 489.985 61.424ZM507.424 70C507.21 70 507.018 69.936 506.848 69.808C506.72 69.6373 506.656 69.4453 506.656 69.232V25.968C506.656 25.7547 506.72 25.584 506.848 25.456C507.018 25.2853 507.21 25.2 507.424 25.2H513.312C513.525 25.2 513.696 25.2853 513.824 25.456C513.994 25.584 514.08 25.7547 514.08 25.968V69.232C514.08 69.4453 513.994 69.6373 513.824 69.808C513.696 69.936 513.525 70 513.312 70H507.424ZM534.448 36.784C537.136 36.784 539.504 37.2533 541.552 38.192C543.6 39.1307 545.179 40.432 546.288 42.096C547.397 43.7173 547.952 45.5733 547.952 47.664V69.232C547.952 69.4453 547.867 69.6373 547.696 69.808C547.568 69.936 547.397 70 547.184 70H541.296C541.083 70 540.891 69.936 540.72 69.808C540.592 69.6373 540.528 69.4453 540.528 69.232V67.184C540.528 67.056 540.485 66.992 540.4 66.992C540.315 66.9493 540.229 66.9707 540.144 67.056C538.053 69.36 535.024 70.512 531.056 70.512C527.856 70.512 525.211 69.7013 523.12 68.08C521.072 66.4587 520.048 64.048 520.048 60.848C520.048 57.52 521.2 54.9387 523.504 53.104C525.851 51.2267 529.136 50.288 533.36 50.288H540.208C540.421 50.288 540.528 50.1813 540.528 49.968V48.432C540.528 46.768 540.037 45.488 539.056 44.592C538.075 43.6533 536.603 43.184 534.64 43.184C533.019 43.184 531.696 43.4827 530.672 44.08C529.691 44.6347 529.072 45.424 528.816 46.448C528.688 46.96 528.389 47.1733 527.92 47.088L521.712 46.32C521.499 46.2773 521.307 46.2133 521.136 46.128C521.008 46 520.965 45.8507 521.008 45.68C521.349 43.0773 522.736 40.944 525.168 39.28C527.643 37.616 530.736 36.784 534.448 36.784ZM532.912 64.624C535.003 64.624 536.795 64.0693 538.288 62.96C539.781 61.8507 540.528 60.4427 540.528 58.736V55.728C540.528 55.5147 540.421 55.408 540.208 55.408H534.832C532.571 55.408 530.779 55.8347 529.456 56.688C528.176 57.5413 527.536 58.7573 527.536 60.336C527.536 61.7013 528.027 62.768 529.008 63.536C530.032 64.2613 531.333 64.624 532.912 64.624ZM554.078 82.736C553.95 82.736 553.843 82.6507 553.758 82.48C553.673 82.352 553.63 82.1813 553.63 81.968V77.36C553.63 77.1467 553.694 76.9547 553.822 76.784C553.993 76.656 554.185 76.592 554.398 76.592H554.462C556.211 76.5493 557.577 76.3573 558.558 76.016C559.539 75.7173 560.35 75.12 560.99 74.224C561.63 73.328 562.206 71.984 562.718 70.192C562.761 70.1067 562.761 69.9787 562.718 69.808L552.158 38.128C552.115 38.0427 552.094 37.936 552.094 37.808C552.094 37.424 552.307 37.232 552.734 37.232H559.006C559.475 37.232 559.774 37.4453 559.902 37.872L566.302 60.4C566.345 60.528 566.409 60.592 566.494 60.592C566.579 60.592 566.643 60.528 566.686 60.4L573.086 37.872C573.214 37.4453 573.513 37.232 573.982 37.232H580.062C580.318 37.232 580.489 37.3173 580.574 37.488C580.702 37.616 580.723 37.8293 580.638 38.128L569.374 71.792C568.307 74.8213 567.262 77.0827 566.238 78.576C565.214 80.0693 563.806 81.136 562.014 81.776C560.265 82.416 557.769 82.736 554.526 82.736H554.078ZM611.865 49.968C612.035 51.0347 612.121 52.2293 612.121 53.552L612.057 55.536C612.057 56.048 611.801 56.304 611.289 56.304H591.257C591.043 56.304 590.937 56.4107 590.937 56.624C591.065 58.032 591.257 58.992 591.513 59.504C592.537 62.576 595.033 64.1333 599.001 64.176C601.902 64.176 604.206 62.9813 605.913 60.592C606.083 60.336 606.297 60.208 606.553 60.208C606.723 60.208 606.873 60.272 607.001 60.4L610.969 63.664C611.353 63.9627 611.417 64.304 611.161 64.688C609.838 66.5653 608.067 68.016 605.849 69.04C603.673 70.064 601.241 70.576 598.553 70.576C595.225 70.576 592.387 69.8293 590.041 68.336C587.737 66.8427 586.051 64.752 584.985 62.064C584.003 59.76 583.513 56.56 583.513 52.464C583.513 49.9893 583.769 47.984 584.281 46.448C585.134 43.4613 586.734 41.1147 589.081 39.408C591.47 37.6587 594.329 36.784 597.657 36.784C606.062 36.784 610.798 41.1787 611.865 49.968ZM597.657 43.184C596.078 43.184 594.755 43.5893 593.689 44.4C592.665 45.168 591.939 46.256 591.513 47.664C591.257 48.3893 591.086 49.328 591.001 50.48C590.915 50.6933 591.001 50.8 591.257 50.8H604.249C604.462 50.8 604.569 50.6933 604.569 50.48C604.483 49.4133 604.355 48.6027 604.185 48.048C603.801 46.512 603.033 45.3173 601.881 44.464C600.771 43.6107 599.363 43.184 597.657 43.184ZM634.138 36.912C635.503 36.912 636.698 37.1893 637.722 37.744C638.063 37.9147 638.191 38.2347 638.106 38.704L637.018 44.464C636.975 44.976 636.676 45.1253 636.122 44.912C635.482 44.6987 634.735 44.592 633.882 44.592C633.327 44.592 632.9 44.6133 632.602 44.656C630.81 44.7413 629.316 45.3813 628.122 46.576C626.927 47.728 626.33 49.2427 626.33 51.12V69.232C626.33 69.4453 626.244 69.6373 626.074 69.808C625.946 69.936 625.775 70 625.562 70H619.674C619.46 70 619.268 69.936 619.098 69.808C618.97 69.6373 618.906 69.4453 618.906 69.232V38.064C618.906 37.8507 618.97 37.68 619.098 37.552C619.268 37.3813 619.46 37.296 619.674 37.296H625.562C625.775 37.296 625.946 37.3813 626.074 37.552C626.244 37.68 626.33 37.8507 626.33 38.064V40.944C626.33 41.1147 626.351 41.2213 626.394 41.264C626.479 41.264 626.564 41.2 626.65 41.072C628.442 38.2987 630.938 36.912 634.138 36.912Z" fill="#1B1E2B"/>
<path d="M175.744 91.764C177.256 91.764 178.588 92.076 179.74 92.7C180.892 93.324 181.78 94.212 182.404 95.364C183.052 96.492 183.376 97.8 183.376 99.288C183.376 100.752 183.052 102.048 182.404 103.176C181.756 104.304 180.832 105.18 179.632 105.804C178.456 106.404 177.088 106.704 175.528 106.704H169.768C169.648 106.704 169.588 106.764 169.588 106.884V116.568C169.588 116.688 169.54 116.796 169.444 116.892C169.372 116.964 169.276 117 169.156 117H165.844C165.724 117 165.616 116.964 165.52 116.892C165.448 116.796 165.412 116.688 165.412 116.568V92.196C165.412 92.076 165.448 91.98 165.52 91.908C165.616 91.812 165.724 91.764 165.844 91.764H175.744ZM175.132 103.32C176.356 103.32 177.34 102.96 178.084 102.24C178.828 101.52 179.2 100.572 179.2 99.396C179.2 98.196 178.828 97.224 178.084 96.48C177.34 95.736 176.356 95.364 175.132 95.364H169.768C169.648 95.364 169.588 95.424 169.588 95.544V103.14C169.588 103.26 169.648 103.32 169.768 103.32H175.132ZM187.074 117C186.954 117 186.846 116.964 186.75 116.892C186.678 116.796 186.642 116.688 186.642 116.568V92.232C186.642 92.112 186.678 92.016 186.75 91.944C186.846 91.848 186.954 91.8 187.074 91.8H190.386C190.506 91.8 190.602 91.848 190.674 91.944C190.77 92.016 190.818 92.112 190.818 92.232V116.568C190.818 116.688 190.77 116.796 190.674 116.892C190.602 116.964 190.506 117 190.386 117H187.074ZM202.275 98.316C203.787 98.316 205.119 98.58 206.271 99.108C207.423 99.636 208.311 100.368 208.935 101.304C209.559 102.216 209.871 103.26 209.871 104.436V116.568C209.871 116.688 209.823 116.796 209.727 116.892C209.655 116.964 209.559 117 209.439 117H206.127C206.007 117 205.899 116.964 205.803 116.892C205.731 116.796 205.695 116.688 205.695 116.568V115.416C205.695 115.344 205.671 115.308 205.623 115.308C205.575 115.284 205.527 115.296 205.479 115.344C204.303 116.64 202.599 117.288 200.367 117.288C198.567 117.288 197.079 116.832 195.903 115.92C194.751 115.008 194.175 113.652 194.175 111.852C194.175 109.98 194.823 108.528 196.119 107.496C197.439 106.44 199.287 105.912 201.663 105.912H205.515C205.635 105.912 205.695 105.852 205.695 105.732V104.868C205.695 103.932 205.419 103.212 204.867 102.708C204.315 102.18 203.487 101.916 202.383 101.916C201.471 101.916 200.727 102.084 200.151 102.42C199.599 102.732 199.251 103.176 199.107 103.752C199.035 104.04 198.867 104.16 198.603 104.112L195.111 103.68C194.991 103.656 194.883 103.62 194.787 103.572C194.715 103.5 194.691 103.416 194.715 103.32C194.907 101.856 195.687 100.656 197.055 99.72C198.447 98.784 200.187 98.316 202.275 98.316ZM201.411 113.976C202.587 113.976 203.595 113.664 204.435 113.04C205.275 112.416 205.695 111.624 205.695 110.664V108.972C205.695 108.852 205.635 108.792 205.515 108.792H202.491C201.219 108.792 200.211 109.032 199.467 109.512C198.747 109.992 198.387 110.676 198.387 111.564C198.387 112.332 198.663 112.932 199.215 113.364C199.791 113.772 200.523 113.976 201.411 113.976ZM213.317 124.164C213.245 124.164 213.185 124.116 213.137 124.02C213.089 123.948 213.065 123.852 213.065 123.732V121.14C213.065 121.02 213.101 120.912 213.173 120.816C213.269 120.744 213.377 120.708 213.497 120.708H213.533C214.517 120.684 215.285 120.576 215.837 120.384C216.389 120.216 216.845 119.88 217.205 119.376C217.565 118.872 217.889 118.116 218.177 117.108C218.201 117.06 218.201 116.988 218.177 116.892L212.237 99.072C212.213 99.024 212.201 98.964 212.201 98.892C212.201 98.676 212.321 98.568 212.561 98.568H216.089C216.353 98.568 216.521 98.688 216.593 98.928L220.193 111.6C220.217 111.672 220.253 111.708 220.301 111.708C220.349 111.708 220.385 111.672 220.409 111.6L224.009 98.928C224.081 98.688 224.249 98.568 224.513 98.568H227.933C228.077 98.568 228.173 98.616 228.221 98.712C228.293 98.784 228.305 98.904 228.257 99.072L221.921 118.008C221.321 119.712 220.733 120.984 220.157 121.824C219.581 122.664 218.789 123.264 217.781 123.624C216.797 123.984 215.393 124.164 213.569 124.164H213.317ZM242.854 117C242.59 117 242.422 116.88 242.35 116.64L237.202 99.072L237.166 98.928C237.166 98.688 237.298 98.568 237.562 98.568H240.982C241.246 98.568 241.414 98.688 241.486 98.928L244.474 110.952C244.498 111.024 244.534 111.06 244.582 111.06C244.63 111.06 244.666 111.024 244.69 110.952L247.822 98.928C247.894 98.688 248.062 98.568 248.326 98.568H251.314C251.578 98.568 251.746 98.688 251.818 98.928L255.022 110.952C255.046 111.024 255.082 111.06 255.13 111.06C255.178 111.06 255.214 111.024 255.238 110.952L258.442 98.928C258.514 98.688 258.682 98.568 258.946 98.568L262.33 98.64C262.474 98.64 262.57 98.688 262.618 98.784C262.69 98.856 262.714 98.964 262.69 99.108L257.506 116.64C257.434 116.88 257.278 117 257.038 117H253.582C253.318 117 253.15 116.88 253.078 116.64L249.91 105.66C249.886 105.588 249.85 105.552 249.802 105.552C249.754 105.552 249.718 105.588 249.694 105.66L246.778 116.64C246.706 116.88 246.538 117 246.274 117H242.854ZM268.26 96.084C267.516 96.084 266.904 95.844 266.424 95.364C265.944 94.884 265.704 94.272 265.704 93.528C265.704 92.784 265.944 92.172 266.424 91.692C266.904 91.212 267.516 90.972 268.26 90.972C269.004 90.972 269.616 91.212 270.096 91.692C270.576 92.172 270.816 92.784 270.816 93.528C270.816 94.272 270.576 94.884 270.096 95.364C269.616 95.844 269.004 96.084 268.26 96.084ZM266.532 117C266.412 117 266.304 116.964 266.208 116.892C266.136 116.796 266.1 116.688 266.1 116.568V99C266.1 98.88 266.136 98.784 266.208 98.712C266.304 98.616 266.412 98.568 266.532 98.568H269.844C269.964 98.568 270.06 98.616 270.132 98.712C270.228 98.784 270.276 98.88 270.276 99V116.568C270.276 116.688 270.228 116.796 270.132 116.892C270.06 116.964 269.964 117 269.844 117H266.532ZM284.816 101.556C284.816 101.676 284.768 101.784 284.672 101.88C284.6 101.952 284.504 101.988 284.384 101.988H280.712C280.592 101.988 280.532 102.048 280.532 102.168V110.844C280.532 111.756 280.724 112.416 281.108 112.824C281.516 113.232 282.152 113.436 283.016 113.436H284.096C284.216 113.436 284.312 113.484 284.384 113.58C284.48 113.652 284.528 113.748 284.528 113.868V116.568C284.528 116.832 284.384 116.988 284.096 117.036L282.224 117.072C280.328 117.072 278.912 116.748 277.976 116.1C277.04 115.452 276.56 114.228 276.536 112.428V102.168C276.536 102.048 276.476 101.988 276.356 101.988H274.304C274.184 101.988 274.076 101.952 273.98 101.88C273.908 101.784 273.872 101.676 273.872 101.556V99.036C273.872 98.916 273.908 98.82 273.98 98.748C274.076 98.652 274.184 98.604 274.304 98.604H276.356C276.476 98.604 276.536 98.544 276.536 98.424V94.212C276.536 94.092 276.572 93.996 276.644 93.924C276.74 93.828 276.848 93.78 276.968 93.78H280.1C280.22 93.78 280.316 93.828 280.388 93.924C280.484 93.996 280.532 94.092 280.532 94.212V98.424C280.532 98.544 280.592 98.604 280.712 98.604H284.384C284.504 98.604 284.6 98.652 284.672 98.748C284.768 98.82 284.816 98.916 284.816 99.036V101.556ZM297.345 98.316C299.289 98.316 300.837 98.892 301.989 100.044C303.165 101.196 303.753 102.768 303.753 104.76V116.568C303.753 116.688 303.705 116.796 303.609 116.892C303.537 116.964 303.441 117 303.321 117H300.009C299.889 117 299.781 116.964 299.685 116.892C299.613 116.796 299.577 116.688 299.577 116.568V105.624C299.577 104.52 299.265 103.632 298.641 102.96C298.017 102.264 297.189 101.916 296.157 101.916C295.125 101.916 294.285 102.252 293.637 102.924C293.013 103.596 292.701 104.484 292.701 105.588V116.568C292.701 116.688 292.653 116.796 292.557 116.892C292.485 116.964 292.389 117 292.269 117H288.957C288.837 117 288.729 116.964 288.633 116.892C288.561 116.796 288.525 116.688 288.525 116.568V92.232C288.525 92.112 288.561 92.016 288.633 91.944C288.729 91.848 288.837 91.8 288.957 91.8H292.269C292.389 91.8 292.485 91.848 292.557 91.944C292.653 92.016 292.701 92.112 292.701 92.232V100.188C292.701 100.26 292.725 100.308 292.773 100.332C292.821 100.356 292.857 100.332 292.881 100.26C293.865 98.964 295.353 98.316 297.345 98.316ZM322.334 98.316C323.846 98.316 325.178 98.58 326.33 99.108C327.482 99.636 328.37 100.368 328.994 101.304C329.618 102.216 329.93 103.26 329.93 104.436V116.568C329.93 116.688 329.882 116.796 329.786 116.892C329.714 116.964 329.618 117 329.498 117H326.186C326.066 117 325.958 116.964 325.862 116.892C325.79 116.796 325.754 116.688 325.754 116.568V115.416C325.754 115.344 325.73 115.308 325.682 115.308C325.634 115.284 325.586 115.296 325.538 115.344C324.362 116.64 322.658 117.288 320.426 117.288C318.626 117.288 317.138 116.832 315.962 115.92C314.81 115.008 314.234 113.652 314.234 111.852C314.234 109.98 314.882 108.528 316.178 107.496C317.498 106.44 319.346 105.912 321.722 105.912H325.574C325.694 105.912 325.754 105.852 325.754 105.732V104.868C325.754 103.932 325.478 103.212 324.926 102.708C324.374 102.18 323.546 101.916 322.442 101.916C321.53 101.916 320.786 102.084 320.21 102.42C319.658 102.732 319.31 103.176 319.166 103.752C319.094 104.04 318.926 104.16 318.662 104.112L315.17 103.68C315.05 103.656 314.942 103.62 314.846 103.572C314.774 103.5 314.75 103.416 314.774 103.32C314.966 101.856 315.746 100.656 317.114 99.72C318.506 98.784 320.246 98.316 322.334 98.316ZM321.47 113.976C322.646 113.976 323.654 113.664 324.494 113.04C325.334 112.416 325.754 111.624 325.754 110.664V108.972C325.754 108.852 325.694 108.792 325.574 108.792H322.55C321.278 108.792 320.27 109.032 319.526 109.512C318.806 109.992 318.446 110.676 318.446 111.564C318.446 112.332 318.722 112.932 319.274 113.364C319.85 113.772 320.582 113.976 321.47 113.976ZM350.906 98.568C351.026 98.568 351.122 98.616 351.194 98.712C351.29 98.784 351.338 98.88 351.338 99V101.844C351.338 101.964 351.29 102.072 351.194 102.168C351.122 102.24 351.026 102.276 350.906 102.276H347.342C347.222 102.276 347.162 102.336 347.162 102.456V116.568C347.162 116.688 347.114 116.796 347.018 116.892C346.946 116.964 346.85 117 346.73 117H343.418C343.298 117 343.19 116.964 343.094 116.892C343.022 116.796 342.986 116.688 342.986 116.568V102.456C342.986 102.336 342.926 102.276 342.806 102.276H340.574C340.454 102.276 340.346 102.24 340.25 102.168C340.178 102.072 340.142 101.964 340.142 101.844V99C340.142 98.88 340.178 98.784 340.25 98.712C340.346 98.616 340.454 98.568 340.574 98.568H342.806C342.926 98.568 342.986 98.508 342.986 98.388V97.74C342.986 96.18 343.19 94.98 343.598 94.14C344.006 93.276 344.678 92.664 345.614 92.304C346.55 91.944 347.87 91.776 349.574 91.8H350.834C350.954 91.8 351.05 91.848 351.122 91.944C351.218 92.016 351.266 92.112 351.266 92.232V94.752C351.266 94.872 351.218 94.98 351.122 95.076C351.05 95.148 350.954 95.184 350.834 95.184H349.898C348.866 95.184 348.146 95.388 347.738 95.796C347.354 96.204 347.162 96.948 347.162 98.028V98.388C347.162 98.508 347.222 98.568 347.342 98.568H350.906ZM363.433 98.388C364.201 98.388 364.873 98.544 365.449 98.856C365.641 98.952 365.713 99.132 365.665 99.396L365.053 102.636C365.029 102.924 364.861 103.008 364.549 102.888C364.189 102.768 363.769 102.708 363.289 102.708C362.977 102.708 362.737 102.72 362.569 102.744C361.561 102.792 360.721 103.152 360.049 103.824C359.377 104.472 359.041 105.324 359.041 106.38V116.568C359.041 116.688 358.993 116.796 358.897 116.892C358.825 116.964 358.729 117 358.609 117H355.297C355.177 117 355.069 116.964 354.973 116.892C354.901 116.796 354.865 116.688 354.865 116.568V99.036C354.865 98.916 354.901 98.82 354.973 98.748C355.069 98.652 355.177 98.604 355.297 98.604H358.609C358.729 98.604 358.825 98.652 358.897 98.748C358.993 98.82 359.041 98.916 359.041 99.036V100.656C359.041 100.752 359.053 100.812 359.077 100.836C359.125 100.836 359.173 100.8 359.221 100.728C360.229 99.168 361.633 98.388 363.433 98.388ZM370.776 96.084C370.032 96.084 369.42 95.844 368.94 95.364C368.46 94.884 368.22 94.272 368.22 93.528C368.22 92.784 368.46 92.172 368.94 91.692C369.42 91.212 370.032 90.972 370.776 90.972C371.52 90.972 372.132 91.212 372.612 91.692C373.092 92.172 373.332 92.784 373.332 93.528C373.332 94.272 373.092 94.884 372.612 95.364C372.132 95.844 371.52 96.084 370.776 96.084ZM369.048 117C368.928 117 368.82 116.964 368.724 116.892C368.652 116.796 368.616 116.688 368.616 116.568V99C368.616 98.88 368.652 98.784 368.724 98.712C368.82 98.616 368.928 98.568 369.048 98.568H372.36C372.48 98.568 372.576 98.616 372.648 98.712C372.744 98.784 372.792 98.88 372.792 99V116.568C372.792 116.688 372.744 116.796 372.648 116.892C372.576 116.964 372.48 117 372.36 117H369.048ZM393.092 105.732C393.188 106.332 393.236 107.004 393.236 107.748L393.2 108.864C393.2 109.152 393.056 109.296 392.768 109.296H381.5C381.38 109.296 381.32 109.356 381.32 109.476C381.392 110.268 381.5 110.808 381.644 111.096C382.22 112.824 383.624 113.7 385.856 113.724C387.488 113.724 388.784 113.052 389.744 111.708C389.84 111.564 389.96 111.492 390.104 111.492C390.2 111.492 390.284 111.528 390.356 111.6L392.588 113.436C392.804 113.604 392.84 113.796 392.696 114.012C391.952 115.068 390.956 115.884 389.708 116.46C388.484 117.036 387.116 117.324 385.604 117.324C383.732 117.324 382.136 116.904 380.816 116.064C379.52 115.224 378.572 114.048 377.972 112.536C377.42 111.24 377.144 109.44 377.144 107.136C377.144 105.744 377.288 104.616 377.576 103.752C378.056 102.072 378.956 100.752 380.276 99.792C381.62 98.808 383.228 98.316 385.1 98.316C389.828 98.316 392.492 100.788 393.092 105.732ZM385.1 101.916C384.212 101.916 383.468 102.144 382.868 102.6C382.292 103.032 381.884 103.644 381.644 104.436C381.5 104.844 381.404 105.372 381.356 106.02C381.308 106.14 381.356 106.2 381.5 106.2H388.808C388.928 106.2 388.988 106.14 388.988 106.02C388.94 105.42 388.868 104.964 388.772 104.652C388.556 103.788 388.124 103.116 387.476 102.636C386.852 102.156 386.06 101.916 385.1 101.916ZM405.872 98.316C407.816 98.316 409.364 98.892 410.516 100.044C411.692 101.196 412.28 102.768 412.28 104.76V116.568C412.28 116.688 412.232 116.796 412.136 116.892C412.064 116.964 411.968 117 411.848 117H408.536C408.416 117 408.308 116.964 408.212 116.892C408.14 116.796 408.104 116.688 408.104 116.568V105.624C408.104 104.52 407.792 103.632 407.168 102.96C406.544 102.264 405.716 101.916 404.684 101.916C403.652 101.916 402.812 102.252 402.164 102.924C401.54 103.596 401.228 104.484 401.228 105.588V116.568C401.228 116.688 401.18 116.796 401.084 116.892C401.012 116.964 400.916 117 400.796 117H397.484C397.364 117 397.256 116.964 397.16 116.892C397.088 116.796 397.052 116.688 397.052 116.568V99.036C397.052 98.916 397.088 98.82 397.16 98.748C397.256 98.652 397.364 98.604 397.484 98.604H400.796C400.916 98.604 401.012 98.652 401.084 98.748C401.18 98.82 401.228 98.916 401.228 99.036V100.188C401.228 100.26 401.252 100.308 401.3 100.332C401.348 100.356 401.384 100.332 401.408 100.26C402.392 98.964 403.88 98.316 405.872 98.316ZM427.906 92.232C427.906 92.112 427.942 92.016 428.014 91.944C428.11 91.848 428.218 91.8 428.338 91.8H431.65C431.77 91.8 431.866 91.848 431.938 91.944C432.034 92.016 432.082 92.112 432.082 92.232V116.568C432.082 116.688 432.034 116.796 431.938 116.892C431.866 116.964 431.77 117 431.65 117H428.338C428.218 117 428.11 116.964 428.014 116.892C427.942 116.796 427.906 116.688 427.906 116.568V115.488C427.906 115.416 427.882 115.368 427.834 115.344C427.786 115.32 427.738 115.344 427.69 115.416C426.634 116.664 425.254 117.288 423.55 117.288C421.846 117.288 420.406 116.844 419.23 115.956C418.054 115.068 417.202 113.832 416.674 112.248C416.242 110.904 416.026 109.404 416.026 107.748C416.026 106.044 416.23 104.58 416.638 103.356C417.166 101.772 418.018 100.536 419.194 99.648C420.37 98.76 421.846 98.316 423.622 98.316C425.278 98.316 426.634 98.916 427.69 100.116C427.738 100.164 427.786 100.188 427.834 100.188C427.882 100.164 427.906 100.116 427.906 100.044V92.232ZM427.042 111.96C427.594 110.976 427.87 109.584 427.87 107.784C427.87 105.912 427.57 104.484 426.97 103.5C426.322 102.444 425.41 101.916 424.234 101.916C423.01 101.916 422.05 102.42 421.354 103.428C420.634 104.484 420.274 105.948 420.274 107.82C420.274 109.5 420.562 110.88 421.138 111.96C421.81 113.112 422.83 113.688 424.198 113.688C425.422 113.688 426.37 113.112 427.042 111.96ZM451.622 117.288C449.726 117.288 448.094 116.808 446.726 115.848C445.382 114.888 444.434 113.556 443.882 111.852C443.474 110.556 443.27 109.188 443.27 107.748C443.27 106.212 443.462 104.844 443.846 103.644C444.398 101.964 445.358 100.656 446.726 99.72C448.094 98.784 449.738 98.316 451.658 98.316C453.482 98.316 455.054 98.784 456.374 99.72C457.718 100.656 458.666 101.952 459.218 103.608C459.65 104.76 459.866 106.128 459.866 107.712C459.866 109.224 459.662 110.592 459.254 111.816C458.702 113.52 457.754 114.864 456.41 115.848C455.066 116.808 453.47 117.288 451.622 117.288ZM451.622 113.688C452.51 113.688 453.266 113.436 453.89 112.932C454.538 112.428 455.006 111.72 455.294 110.808C455.534 110.016 455.654 109.008 455.654 107.784C455.654 106.488 455.534 105.48 455.294 104.76C455.03 103.848 454.574 103.152 453.926 102.672C453.278 102.168 452.486 101.916 451.55 101.916C450.662 101.916 449.894 102.168 449.246 102.672C448.598 103.152 448.13 103.848 447.842 104.76C447.602 105.6 447.482 106.608 447.482 107.784C447.482 108.96 447.602 109.968 447.842 110.808C448.106 111.72 448.562 112.428 449.21 112.932C449.882 113.436 450.686 113.688 451.622 113.688ZM472.634 98.316C474.578 98.316 476.126 98.892 477.278 100.044C478.454 101.196 479.042 102.768 479.042 104.76V116.568C479.042 116.688 478.994 116.796 478.898 116.892C478.826 116.964 478.73 117 478.61 117H475.298C475.178 117 475.07 116.964 474.974 116.892C474.902 116.796 474.866 116.688 474.866 116.568V105.624C474.866 104.52 474.554 103.632 473.93 102.96C473.306 102.264 472.478 101.916 471.446 101.916C470.414 101.916 469.574 102.252 468.926 102.924C468.302 103.596 467.99 104.484 467.99 105.588V116.568C467.99 116.688 467.942 116.796 467.846 116.892C467.774 116.964 467.678 117 467.558 117H464.246C464.126 117 464.018 116.964 463.922 116.892C463.85 116.796 463.814 116.688 463.814 116.568V99.036C463.814 98.916 463.85 98.82 463.922 98.748C464.018 98.652 464.126 98.604 464.246 98.604H467.558C467.678 98.604 467.774 98.652 467.846 98.748C467.942 98.82 467.99 98.916 467.99 99.036V100.188C467.99 100.26 468.014 100.308 468.062 100.332C468.11 100.356 468.146 100.332 468.17 100.26C469.154 98.964 470.642 98.316 472.634 98.316ZM500.359 101.556C500.359 101.676 500.311 101.784 500.215 101.88C500.143 101.952 500.047 101.988 499.927 101.988H496.255C496.135 101.988 496.075 102.048 496.075 102.168V110.844C496.075 111.756 496.267 112.416 496.651 112.824C497.059 113.232 497.695 113.436 498.559 113.436H499.639C499.759 113.436 499.855 113.484 499.927 113.58C500.023 113.652 500.071 113.748 500.071 113.868V116.568C500.071 116.832 499.927 116.988 499.639 117.036L497.767 117.072C495.871 117.072 494.455 116.748 493.519 116.1C492.583 115.452 492.103 114.228 492.079 112.428V102.168C492.079 102.048 492.019 101.988 491.899 101.988H489.847C489.727 101.988 489.619 101.952 489.523 101.88C489.451 101.784 489.415 101.676 489.415 101.556V99.036C489.415 98.916 489.451 98.82 489.523 98.748C489.619 98.652 489.727 98.604 489.847 98.604H491.899C492.019 98.604 492.079 98.544 492.079 98.424V94.212C492.079 94.092 492.115 93.996 492.187 93.924C492.283 93.828 492.391 93.78 492.511 93.78H495.643C495.763 93.78 495.859 93.828 495.931 93.924C496.027 93.996 496.075 94.092 496.075 94.212V98.424C496.075 98.544 496.135 98.604 496.255 98.604H499.927C500.047 98.604 500.143 98.652 500.215 98.748C500.311 98.82 500.359 98.916 500.359 99.036V101.556ZM512.888 98.316C514.832 98.316 516.38 98.892 517.532 100.044C518.708 101.196 519.296 102.768 519.296 104.76V116.568C519.296 116.688 519.248 116.796 519.152 116.892C519.08 116.964 518.984 117 518.864 117H515.552C515.432 117 515.324 116.964 515.228 116.892C515.156 116.796 515.12 116.688 515.12 116.568V105.624C515.12 104.52 514.808 103.632 514.184 102.96C513.56 102.264 512.732 101.916 511.7 101.916C510.668 101.916 509.828 102.252 509.18 102.924C508.556 103.596 508.244 104.484 508.244 105.588V116.568C508.244 116.688 508.196 116.796 508.1 116.892C508.028 116.964 507.932 117 507.812 117H504.5C504.38 117 504.272 116.964 504.176 116.892C504.104 116.796 504.068 116.688 504.068 116.568V92.232C504.068 92.112 504.104 92.016 504.176 91.944C504.272 91.848 504.38 91.8 504.5 91.8H507.812C507.932 91.8 508.028 91.848 508.1 91.944C508.196 92.016 508.244 92.112 508.244 92.232V100.188C508.244 100.26 508.268 100.308 508.316 100.332C508.364 100.356 508.4 100.332 508.424 100.26C509.408 98.964 510.896 98.316 512.888 98.316ZM539.025 105.732C539.121 106.332 539.169 107.004 539.169 107.748L539.133 108.864C539.133 109.152 538.989 109.296 538.701 109.296H527.433C527.313 109.296 527.253 109.356 527.253 109.476C527.325 110.268 527.433 110.808 527.577 111.096C528.153 112.824 529.557 113.7 531.789 113.724C533.421 113.724 534.717 113.052 535.677 111.708C535.773 111.564 535.893 111.492 536.037 111.492C536.133 111.492 536.217 111.528 536.289 111.6L538.521 113.436C538.737 113.604 538.773 113.796 538.629 114.012C537.885 115.068 536.889 115.884 535.641 116.46C534.417 117.036 533.049 117.324 531.537 117.324C529.665 117.324 528.069 116.904 526.749 116.064C525.453 115.224 524.505 114.048 523.905 112.536C523.353 111.24 523.077 109.44 523.077 107.136C523.077 105.744 523.221 104.616 523.509 103.752C523.989 102.072 524.889 100.752 526.209 99.792C527.553 98.808 529.161 98.316 531.033 98.316C535.761 98.316 538.425 100.788 539.025 105.732ZM531.033 101.916C530.145 101.916 529.401 102.144 528.801 102.6C528.225 103.032 527.817 103.644 527.577 104.436C527.433 104.844 527.337 105.372 527.289 106.02C527.241 106.14 527.289 106.2 527.433 106.2H534.741C534.861 106.2 534.921 106.14 534.921 106.02C534.873 105.42 534.801 104.964 534.705 104.652C534.489 103.788 534.057 103.116 533.409 102.636C532.785 102.156 531.993 101.916 531.033 101.916ZM557.033 117.216C555.521 117.216 554.189 117 553.037 116.568C551.909 116.112 551.033 115.5 550.409 114.732C549.785 113.94 549.473 113.064 549.473 112.104V111.78C549.473 111.66 549.509 111.564 549.581 111.492C549.677 111.396 549.785 111.348 549.905 111.348H553.073C553.193 111.348 553.289 111.396 553.361 111.492C553.457 111.564 553.505 111.66 553.505 111.78V111.852C553.505 112.452 553.829 112.98 554.477 113.436C555.149 113.868 555.989 114.084 556.997 114.084C557.957 114.084 558.737 113.892 559.337 113.508C559.937 113.1 560.237 112.596 560.237 111.996C560.237 111.444 559.985 111.036 559.481 110.772C559.001 110.484 558.209 110.184 557.105 109.872L555.737 109.44C554.513 109.08 553.481 108.696 552.641 108.288C551.801 107.88 551.093 107.328 550.517 106.632C549.941 105.912 549.653 105 549.653 103.896C549.653 102.216 550.313 100.884 551.633 99.9C552.953 98.892 554.693 98.388 556.853 98.388C558.317 98.388 559.601 98.628 560.705 99.108C561.809 99.564 562.661 100.212 563.261 101.052C563.861 101.868 564.161 102.804 564.161 103.86C564.161 103.98 564.113 104.088 564.017 104.184C563.945 104.256 563.849 104.292 563.729 104.292H560.669C560.549 104.292 560.441 104.256 560.345 104.184C560.273 104.088 560.237 103.98 560.237 103.86C560.237 103.236 559.925 102.72 559.301 102.312C558.701 101.88 557.873 101.664 556.817 101.664C555.881 101.664 555.113 101.844 554.513 102.204C553.937 102.54 553.649 103.02 553.649 103.644C553.649 104.22 553.925 104.664 554.477 104.976C555.053 105.264 556.001 105.588 557.321 105.948L558.113 106.164C559.385 106.548 560.453 106.944 561.317 107.352C562.181 107.736 562.913 108.288 563.513 109.008C564.113 109.704 564.413 110.616 564.413 111.744C564.413 113.448 563.741 114.792 562.397 115.776C561.053 116.736 559.265 117.216 557.033 117.216ZM574.967 98.316C576.479 98.316 577.811 98.58 578.963 99.108C580.115 99.636 581.003 100.368 581.627 101.304C582.251 102.216 582.563 103.26 582.563 104.436V116.568C582.563 116.688 582.515 116.796 582.419 116.892C582.347 116.964 582.251 117 582.131 117H578.819C578.699 117 578.591 116.964 578.495 116.892C578.423 116.796 578.387 116.688 578.387 116.568V115.416C578.387 115.344 578.363 115.308 578.315 115.308C578.267 115.284 578.219 115.296 578.171 115.344C576.995 116.64 575.291 117.288 573.059 117.288C571.259 117.288 569.771 116.832 568.595 115.92C567.443 115.008 566.867 113.652 566.867 111.852C566.867 109.98 567.515 108.528 568.811 107.496C570.131 106.44 571.979 105.912 574.355 105.912H578.207C578.327 105.912 578.387 105.852 578.387 105.732V104.868C578.387 103.932 578.111 103.212 577.559 102.708C577.007 102.18 576.179 101.916 575.075 101.916C574.163 101.916 573.419 102.084 572.843 102.42C572.291 102.732 571.943 103.176 571.799 103.752C571.727 104.04 571.559 104.16 571.295 104.112L567.803 103.68C567.683 103.656 567.575 103.62 567.479 103.572C567.407 103.5 567.383 103.416 567.407 103.32C567.599 101.856 568.379 100.656 569.747 99.72C571.139 98.784 572.879 98.316 574.967 98.316ZM574.103 113.976C575.279 113.976 576.287 113.664 577.127 113.04C577.967 112.416 578.387 111.624 578.387 110.664V108.972C578.387 108.852 578.327 108.792 578.207 108.792H575.183C573.911 108.792 572.903 109.032 572.159 109.512C571.439 109.992 571.079 110.676 571.079 111.564C571.079 112.332 571.355 112.932 571.907 113.364C572.483 113.772 573.215 113.976 574.103 113.976ZM606.447 98.316C608.295 98.316 609.735 98.88 610.767 100.008C611.823 101.112 612.351 102.66 612.351 104.652V116.568C612.351 116.688 612.303 116.796 612.207 116.892C612.135 116.964 612.039 117 611.919 117H608.643C608.523 117 608.415 116.964 608.319 116.892C608.247 116.796 608.211 116.688 608.211 116.568V105.516C608.211 104.412 607.911 103.536 607.311 102.888C606.735 102.24 605.955 101.916 604.971 101.916C603.987 101.916 603.183 102.24 602.559 102.888C601.935 103.536 601.623 104.4 601.623 105.48V116.568C601.623 116.688 601.575 116.796 601.479 116.892C601.407 116.964 601.311 117 601.191 117H597.915C597.795 117 597.687 116.964 597.591 116.892C597.519 116.796 597.483 116.688 597.483 116.568V105.516C597.483 104.412 597.183 103.536 596.583 102.888C595.983 102.24 595.191 101.916 594.207 101.916C593.295 101.916 592.539 102.18 591.939 102.708C591.363 103.236 591.027 103.956 590.931 104.868V116.568C590.931 116.688 590.883 116.796 590.787 116.892C590.715 116.964 590.619 117 590.499 117H587.187C587.067 117 586.959 116.964 586.863 116.892C586.791 116.796 586.755 116.688 586.755 116.568V99.036C586.755 98.916 586.791 98.82 586.863 98.748C586.959 98.652 587.067 98.604 587.187 98.604H590.499C590.619 98.604 590.715 98.652 590.787 98.748C590.883 98.82 590.931 98.916 590.931 99.036V100.224C590.931 100.296 590.955 100.344 591.003 100.368C591.051 100.392 591.099 100.368 591.147 100.296C591.675 99.624 592.323 99.132 593.091 98.82C593.883 98.484 594.759 98.316 595.719 98.316C596.895 98.316 597.927 98.556 598.815 99.036C599.703 99.516 600.387 100.212 600.867 101.124C600.939 101.22 601.023 101.22 601.119 101.124C601.647 100.164 602.379 99.456 603.315 99C604.251 98.544 605.295 98.316 606.447 98.316ZM631.978 105.732C632.074 106.332 632.122 107.004 632.122 107.748L632.086 108.864C632.086 109.152 631.942 109.296 631.654 109.296H620.386C620.266 109.296 620.206 109.356 620.206 109.476C620.278 110.268 620.386 110.808 620.53 111.096C621.106 112.824 622.51 113.7 624.742 113.724C626.374 113.724 627.67 113.052 628.63 111.708C628.726 111.564 628.846 111.492 628.99 111.492C629.086 111.492 629.17 111.528 629.242 111.6L631.474 113.436C631.69 113.604 631.726 113.796 631.582 114.012C630.838 115.068 629.842 115.884 628.594 116.46C627.37 117.036 626.002 117.324 624.49 117.324C622.618 117.324 621.022 116.904 619.702 116.064C618.406 115.224 617.458 114.048 616.858 112.536C616.306 111.24 616.03 109.44 616.03 107.136C616.03 105.744 616.174 104.616 616.462 103.752C616.942 102.072 617.842 100.752 619.162 99.792C620.506 98.808 622.114 98.316 623.986 98.316C628.714 98.316 631.378 100.788 631.978 105.732ZM623.986 101.916C623.098 101.916 622.354 102.144 621.754 102.6C621.178 103.032 620.77 103.644 620.53 104.436C620.386 104.844 620.29 105.372 620.242 106.02C620.194 106.14 620.242 106.2 620.386 106.2H627.694C627.814 106.2 627.874 106.14 627.874 106.02C627.826 105.42 627.754 104.964 627.658 104.652C627.442 103.788 627.01 103.116 626.362 102.636C625.738 102.156 624.946 101.916 623.986 101.916ZM654.558 92.232C654.558 92.112 654.594 92.016 654.666 91.944C654.762 91.848 654.87 91.8 654.99 91.8H658.302C658.422 91.8 658.518 91.848 658.59 91.944C658.686 92.016 658.734 92.112 658.734 92.232V116.568C658.734 116.688 658.686 116.796 658.59 116.892C658.518 116.964 658.422 117 658.302 117H654.99C654.87 117 654.762 116.964 654.666 116.892C654.594 116.796 654.558 116.688 654.558 116.568V115.488C654.558 115.416 654.534 115.368 654.486 115.344C654.438 115.32 654.39 115.344 654.342 115.416C653.286 116.664 651.906 117.288 650.202 117.288C648.498 117.288 647.058 116.844 645.882 115.956C644.706 115.068 643.854 113.832 643.326 112.248C642.894 110.904 642.678 109.404 642.678 107.748C642.678 106.044 642.882 104.58 643.29 103.356C643.818 101.772 644.67 100.536 645.846 99.648C647.022 98.76 648.498 98.316 650.274 98.316C651.93 98.316 653.286 98.916 654.342 100.116C654.39 100.164 654.438 100.188 654.486 100.188C654.534 100.164 654.558 100.116 654.558 100.044V92.232ZM653.694 111.96C654.246 110.976 654.522 109.584 654.522 107.784C654.522 105.912 654.222 104.484 653.622 103.5C652.974 102.444 652.062 101.916 650.886 101.916C649.662 101.916 648.702 102.42 648.006 103.428C647.286 104.484 646.926 105.948 646.926 107.82C646.926 109.5 647.214 110.88 647.79 111.96C648.462 113.112 649.482 113.688 650.85 113.688C652.074 113.688 653.022 113.112 653.694 111.96ZM678.771 105.732C678.867 106.332 678.915 107.004 678.915 107.748L678.879 108.864C678.879 109.152 678.735 109.296 678.447 109.296H667.179C667.059 109.296 666.999 109.356 666.999 109.476C667.071 110.268 667.179 110.808 667.323 111.096C667.899 112.824 669.303 113.7 671.535 113.724C673.167 113.724 674.463 113.052 675.423 111.708C675.519 111.564 675.639 111.492 675.783 111.492C675.879 111.492 675.963 111.528 676.035 111.6L678.267 113.436C678.483 113.604 678.519 113.796 678.375 114.012C677.631 115.068 676.635 115.884 675.387 116.46C674.163 117.036 672.795 117.324 671.283 117.324C669.411 117.324 667.815 116.904 666.495 116.064C665.199 115.224 664.251 114.048 663.651 112.536C663.099 111.24 662.823 109.44 662.823 107.136C662.823 105.744 662.967 104.616 663.255 103.752C663.735 102.072 664.635 100.752 665.955 99.792C667.299 98.808 668.907 98.316 670.779 98.316C675.507 98.316 678.171 100.788 678.771 105.732ZM670.779 101.916C669.891 101.916 669.147 102.144 668.547 102.6C667.971 103.032 667.563 103.644 667.323 104.436C667.179 104.844 667.083 105.372 667.035 106.02C666.987 106.14 667.035 106.2 667.179 106.2H674.487C674.607 106.2 674.667 106.14 674.667 106.02C674.619 105.42 674.547 104.964 674.451 104.652C674.235 103.788 673.803 103.116 673.155 102.636C672.531 102.156 671.739 101.916 670.779 101.916ZM686.891 117C686.651 117 686.495 116.88 686.423 116.64L680.627 99.072C680.603 99.024 680.591 98.964 680.591 98.892C680.591 98.676 680.723 98.568 680.987 98.568H684.659C684.923 98.568 685.091 98.688 685.163 98.928L688.655 110.952C688.679 111.024 688.715 111.06 688.763 111.06C688.811 111.06 688.847 111.024 688.871 110.952L692.363 98.928C692.435 98.688 692.603 98.568 692.867 98.568L696.539 98.64C696.683 98.64 696.791 98.688 696.863 98.784C696.935 98.856 696.947 98.976 696.899 99.144L691.139 116.64C691.067 116.88 690.911 117 690.671 117H686.891ZM702.44 96.084C701.696 96.084 701.084 95.844 700.604 95.364C700.124 94.884 699.884 94.272 699.884 93.528C699.884 92.784 700.124 92.172 700.604 91.692C701.084 91.212 701.696 90.972 702.44 90.972C703.184 90.972 703.796 91.212 704.276 91.692C704.756 92.172 704.996 92.784 704.996 93.528C704.996 94.272 704.756 94.884 704.276 95.364C703.796 95.844 703.184 96.084 702.44 96.084ZM700.712 117C700.592 117 700.484 116.964 700.388 116.892C700.316 116.796 700.28 116.688 700.28 116.568V99C700.28 98.88 700.316 98.784 700.388 98.712C700.484 98.616 700.592 98.568 700.712 98.568H704.024C704.144 98.568 704.24 98.616 704.312 98.712C704.408 98.784 704.456 98.88 704.456 99V116.568C704.456 116.688 704.408 116.796 704.312 116.892C704.24 116.964 704.144 117 704.024 117H700.712ZM716.908 117.288C715.06 117.288 713.464 116.82 712.12 115.884C710.776 114.924 709.84 113.64 709.312 112.032C708.928 110.952 708.736 109.512 708.736 107.712C708.736 105.984 708.928 104.568 709.312 103.464C709.816 101.88 710.74 100.632 712.084 99.72C713.452 98.784 715.06 98.316 716.908 98.316C718.78 98.316 720.412 98.784 721.804 99.72C723.196 100.656 724.12 101.832 724.576 103.248C724.696 103.632 724.78 104.016 724.828 104.4V104.472C724.828 104.712 724.696 104.856 724.432 104.904L721.192 105.372H721.12C720.904 105.372 720.76 105.252 720.688 105.012C720.688 104.892 720.676 104.796 720.652 104.724C720.604 104.532 720.556 104.364 720.508 104.22C720.292 103.548 719.86 102.996 719.212 102.564C718.564 102.132 717.796 101.916 716.908 101.916C715.996 101.916 715.216 102.156 714.568 102.636C713.944 103.092 713.524 103.728 713.308 104.544C713.068 105.312 712.948 106.38 712.948 107.748C712.948 109.068 713.056 110.136 713.272 110.952C713.512 111.792 713.944 112.464 714.568 112.968C715.192 113.448 715.972 113.688 716.908 113.688C717.82 113.688 718.6 113.46 719.248 113.004C719.92 112.524 720.352 111.888 720.544 111.096C720.568 111.048 720.58 110.988 720.58 110.916C720.604 110.892 720.616 110.856 720.616 110.808C720.688 110.52 720.856 110.4 721.12 110.448L724.36 110.952C724.48 110.976 724.576 111.036 724.648 111.132C724.744 111.204 724.78 111.312 724.756 111.456C724.684 111.84 724.624 112.116 724.576 112.284C724.12 113.82 723.196 115.044 721.804 115.956C720.412 116.844 718.78 117.288 716.908 117.288ZM743.705 105.732C743.801 106.332 743.849 107.004 743.849 107.748L743.813 108.864C743.813 109.152 743.669 109.296 743.381 109.296H732.113C731.993 109.296 731.933 109.356 731.933 109.476C732.005 110.268 732.113 110.808 732.257 111.096C732.833 112.824 734.237 113.7 736.469 113.724C738.101 113.724 739.397 113.052 740.357 111.708C740.453 111.564 740.573 111.492 740.717 111.492C740.813 111.492 740.897 111.528 740.969 111.6L743.201 113.436C743.417 113.604 743.453 113.796 743.309 114.012C742.565 115.068 741.569 115.884 740.321 116.46C739.097 117.036 737.729 117.324 736.217 117.324C734.345 117.324 732.749 116.904 731.429 116.064C730.133 115.224 729.185 114.048 728.585 112.536C728.033 111.24 727.757 109.44 727.757 107.136C727.757 105.744 727.901 104.616 728.189 103.752C728.669 102.072 729.569 100.752 730.889 99.792C732.233 98.808 733.841 98.316 735.713 98.316C740.441 98.316 743.105 100.788 743.705 105.732ZM735.713 101.916C734.825 101.916 734.081 102.144 733.481 102.6C732.905 103.032 732.497 103.644 732.257 104.436C732.113 104.844 732.017 105.372 731.969 106.02C731.921 106.14 731.969 106.2 732.113 106.2H739.421C739.541 106.2 739.601 106.14 739.601 106.02C739.553 105.42 739.481 104.964 739.385 104.652C739.169 103.788 738.737 103.116 738.089 102.636C737.465 102.156 736.673 101.916 735.713 101.916Z" fill="#1B1E2B"/>
<circle cx="82" cy="69" r="48" fill="url(#paint1_linear_113_63896)"/>
<circle cx="82" cy="69" r="41.25" fill="url(#paint2_linear_113_63896)"/>
<defs>
<linearGradient id="paint0_linear_113_63896" x1="400" y1="45.1818" x2="400" y2="142" gradientUnits="userSpaceOnUse">
<stop stop-color="#DFCCA7"/>
<stop offset="1" stop-color="#9F723D"/>
</linearGradient>
<linearGradient id="paint1_linear_113_63896" x1="46" y1="28.875" x2="104.5" y2="117" gradientUnits="userSpaceOnUse">
<stop stop-color="#9995BE"/>
<stop offset="1" stop-color="#3B3A4C"/>
</linearGradient>
<linearGradient id="paint2_linear_113_63896" x1="55.375" y1="31.875" x2="110.5" y2="110.25" gradientUnits="userSpaceOnUse">
<stop stop-color="#232244"/>
<stop offset="1" stop-color="#02061A"/>
</linearGradient>
</defs>
</svg>
