<svg width="100%" height="100%" viewBox="0 0 86 86" fill="none" xmlns="http://www.w3.org/2000/svg">
<g clip-path="url(#clip0_135_63964)">
<rect width="86" height="86" rx="10" fill="#AA9980"/>
<path d="M52.858 33.496C53.402 34.808 53.674 36.376 53.674 38.2V52.648C53.674 54.376 53.226 55.912 52.33 57.256C51.434 58.568 50.17 59.592 48.538 60.328C46.906 61.032 45.034 61.384 42.922 61.384C40.842 61.384 39.002 61.032 37.402 60.328C35.802 59.592 34.554 58.584 33.658 57.304C32.762 55.992 32.314 54.488 32.314 52.792V51.448C32.314 51.288 32.362 51.16 32.458 51.064C32.586 50.936 32.73 50.872 32.89 50.872H38.506C38.666 50.872 38.794 50.936 38.89 51.064C39.018 51.16 39.082 51.288 39.082 51.448V51.88C39.082 52.936 39.434 53.816 40.138 54.52C40.874 55.224 41.802 55.576 42.922 55.576C44.106 55.576 45.066 55.224 45.802 54.52C46.538 53.784 46.906 52.856 46.906 51.736V47.272C46.906 47.176 46.874 47.112 46.81 47.08C46.746 47.048 46.682 47.064 46.618 47.128C45.306 48.248 43.578 48.808 41.434 48.808C39.514 48.808 37.786 48.376 36.25 47.512C34.746 46.616 33.562 45.336 32.698 43.672C31.898 42.168 31.498 40.328 31.498 38.152C31.498 36.264 31.818 34.6 32.458 33.16C33.258 31.272 34.538 29.784 36.298 28.696C38.09 27.608 40.186 27.064 42.586 27.064C45.018 27.064 47.13 27.64 48.922 28.792C50.746 29.912 52.058 31.48 52.858 33.496ZM42.586 43.144C44.25 43.144 45.45 42.488 46.186 41.176C46.666 40.344 46.906 39.272 46.906 37.96C46.906 36.904 46.698 35.928 46.282 35.032C45.578 33.624 44.362 32.92 42.634 32.92C40.97 32.92 39.754 33.624 38.986 35.032C38.506 35.928 38.266 36.936 38.266 38.056C38.266 39.272 38.538 40.328 39.082 41.224C39.882 42.504 41.05 43.144 42.586 43.144Z" fill="#7E7B7B"/>
</g>
<defs>
<clipPath id="clip0_135_63964">
<rect width="86" height="86" fill="white"/>
</clipPath>
</defs>
</svg>
