<svg width="100%" height="100%" viewBox="0 0 86 86" fill="none" xmlns="http://www.w3.org/2000/svg">
<g clip-path="url(#clip0_135_63967)">
<rect x="2" y="2" width="82" height="82" rx="8" fill="#CDB288" stroke="white" stroke-width="4"/>
<mask id="path-2-outside-1_135_63967" maskUnits="userSpaceOnUse" x="26" y="25" width="34" height="38" fill="black">
<rect fill="white" x="26" y="25" width="34" height="38"/>
<path d="M33.5672 27.544C33.7272 27.448 33.9672 27.4 34.2872 27.4H40.0952C40.2552 27.4 40.3832 27.464 40.4792 27.592C40.6072 27.688 40.6712 27.816 40.6712 27.976V60.424C40.6712 60.584 40.6072 60.728 40.4792 60.856C40.3832 60.952 40.2552 61 40.0952 61H34.4792C34.3192 61 34.1752 60.952 34.0472 60.856C33.9512 60.728 33.9032 60.584 33.9032 60.424V34.12C33.9032 34.056 33.8712 33.992 33.8072 33.928C33.7432 33.864 33.6792 33.848 33.6152 33.88L28.8632 35.176L28.6712 35.224C28.3832 35.224 28.2392 35.048 28.2392 34.696L28.0952 30.568C28.0952 30.248 28.2392 30.024 28.5272 29.896L33.5672 27.544ZM50.8641 27.544C51.0241 27.448 51.2641 27.4 51.5841 27.4H57.3921C57.5521 27.4 57.6801 27.464 57.7761 27.592C57.9041 27.688 57.9681 27.816 57.9681 27.976V60.424C57.9681 60.584 57.9041 60.728 57.7761 60.856C57.6801 60.952 57.5521 61 57.3921 61H51.7761C51.6161 61 51.4721 60.952 51.3441 60.856C51.2481 60.728 51.2001 60.584 51.2001 60.424V34.12C51.2001 34.056 51.1681 33.992 51.1041 33.928C51.0401 33.864 50.9761 33.848 50.9121 33.88L46.1601 35.176L45.9681 35.224C45.6801 35.224 45.5361 35.048 45.5361 34.696L45.3921 30.568C45.3921 30.248 45.5361 30.024 45.8241 29.896L50.8641 27.544Z"/>
</mask>
<path d="M33.5672 27.544C33.7272 27.448 33.9672 27.4 34.2872 27.4H40.0952C40.2552 27.4 40.3832 27.464 40.4792 27.592C40.6072 27.688 40.6712 27.816 40.6712 27.976V60.424C40.6712 60.584 40.6072 60.728 40.4792 60.856C40.3832 60.952 40.2552 61 40.0952 61H34.4792C34.3192 61 34.1752 60.952 34.0472 60.856C33.9512 60.728 33.9032 60.584 33.9032 60.424V34.12C33.9032 34.056 33.8712 33.992 33.8072 33.928C33.7432 33.864 33.6792 33.848 33.6152 33.88L28.8632 35.176L28.6712 35.224C28.3832 35.224 28.2392 35.048 28.2392 34.696L28.0952 30.568C28.0952 30.248 28.2392 30.024 28.5272 29.896L33.5672 27.544ZM50.8641 27.544C51.0241 27.448 51.2641 27.4 51.5841 27.4H57.3921C57.5521 27.4 57.6801 27.464 57.7761 27.592C57.9041 27.688 57.9681 27.816 57.9681 27.976V60.424C57.9681 60.584 57.9041 60.728 57.7761 60.856C57.6801 60.952 57.5521 61 57.3921 61H51.7761C51.6161 61 51.4721 60.952 51.3441 60.856C51.2481 60.728 51.2001 60.584 51.2001 60.424V34.12C51.2001 34.056 51.1681 33.992 51.1041 33.928C51.0401 33.864 50.9761 33.848 50.9121 33.88L46.1601 35.176L45.9681 35.224C45.6801 35.224 45.5361 35.048 45.5361 34.696L45.3921 30.568C45.3921 30.248 45.5361 30.024 45.8241 29.896L50.8641 27.544Z" fill="black"/>
<path d="M33.5672 27.544L34.413 29.3564L34.5071 29.3124L34.5962 29.259L33.5672 27.544ZM40.4792 27.592L38.8792 28.792L39.0506 29.0206L39.2792 29.192L40.4792 27.592ZM40.4792 60.856L39.065 59.4418L39.065 59.4418L40.4792 60.856ZM34.0472 60.856L32.4472 62.056L32.6186 62.2846L32.8472 62.456L34.0472 60.856ZM33.8072 33.928L32.393 35.3422L32.393 35.3422L33.8072 33.928ZM33.6152 33.88L34.1414 35.8095L34.3325 35.7574L34.5096 35.6688L33.6152 33.88ZM28.8632 35.176L29.3483 37.1163L29.3689 37.1111L29.3894 37.1055L28.8632 35.176ZM28.6712 35.224V37.224H28.9174L29.1563 37.1643L28.6712 35.224ZM28.2392 34.696H30.2392V34.6611L30.238 34.6263L28.2392 34.696ZM28.0952 30.568H26.0952V30.6029L26.0964 30.6377L28.0952 30.568ZM28.5272 29.896L29.3395 31.7236L29.3563 31.7162L29.373 31.7084L28.5272 29.896ZM34.5962 29.259C34.4291 29.3592 34.2981 29.3894 34.2594 29.3972C34.2179 29.4055 34.2212 29.4 34.2872 29.4V25.4C33.8325 25.4 33.1589 25.4566 32.5382 25.829L34.5962 29.259ZM34.2872 29.4H40.0952V25.4H34.2872V29.4ZM40.0952 29.4C39.9017 29.4 39.6618 29.3594 39.4168 29.2369C39.1717 29.1143 38.9953 28.9467 38.8792 28.792L42.0792 26.392C41.6055 25.7604 40.8847 25.4 40.0952 25.4V29.4ZM39.2792 29.192C39.1244 29.0759 38.9569 28.8995 38.8343 28.6544C38.7118 28.4094 38.6712 28.1694 38.6712 27.976H42.6712C42.6712 27.1865 42.3108 26.4657 41.6792 25.992L39.2792 29.192ZM38.6712 27.976V60.424H42.6712V27.976H38.6712ZM38.6712 60.424C38.6712 60.2286 38.7121 60.0275 38.7956 59.8397C38.8769 59.6567 38.9809 59.5259 39.065 59.4418L41.8934 62.2702C42.3428 61.8208 42.6712 61.1858 42.6712 60.424H38.6712ZM39.065 59.4418C39.2203 59.2865 39.4075 59.1669 39.6089 59.0913C39.8042 59.0181 39.9755 59 40.0952 59V63C40.6837 63 41.3559 62.8077 41.8934 62.2702L39.065 59.4418ZM40.0952 59H34.4792V63H40.0952V59ZM34.4792 59C34.6025 59 34.7409 59.0191 34.8836 59.0666C35.0264 59.1142 35.1486 59.182 35.2472 59.256L32.8472 62.456C33.3214 62.8116 33.8864 63 34.4792 63V59ZM35.6472 59.656C35.7211 59.7546 35.789 59.8768 35.8366 60.0195C35.8841 60.1623 35.9032 60.3007 35.9032 60.424H31.9032C31.9032 61.0167 32.0915 61.5818 32.4472 62.056L35.6472 59.656ZM35.9032 60.424V34.12H31.9032V60.424H35.9032ZM35.9032 34.12C35.9032 33.3385 35.5034 32.7958 35.2214 32.5138L32.393 35.3422C32.239 35.1882 31.9032 34.7735 31.9032 34.12H35.9032ZM35.2214 32.5138C35.0247 32.317 34.6873 32.0505 34.1963 31.9277C33.6605 31.7938 33.1408 31.8811 32.7207 32.0912L34.5096 35.6688C34.1536 35.8469 33.6979 35.9262 33.2261 35.8083C32.7991 35.7015 32.5257 35.475 32.393 35.3422L35.2214 32.5138ZM33.089 31.9505L28.337 33.2465L29.3894 37.1055L34.1414 35.8095L33.089 31.9505ZM28.3781 33.2357L28.1861 33.2837L29.1563 37.1643L29.3483 37.1163L28.3781 33.2357ZM28.6712 33.224C28.9533 33.224 29.4894 33.3297 29.8951 33.8255C30.238 34.2446 30.2392 34.6503 30.2392 34.696H26.2392C26.2392 35.0937 26.3124 35.7634 26.7993 36.3585C27.349 37.0303 28.1011 37.224 28.6712 37.224V33.224ZM30.238 34.6263L30.094 30.4983L26.0964 30.6377L26.2404 34.7657L30.238 34.6263ZM30.0952 30.568C30.0952 30.7133 30.0595 30.9709 29.8855 31.2415C29.7103 31.5141 29.4855 31.6587 29.3395 31.7236L27.7149 28.0684C27.2809 28.2613 26.8401 28.5819 26.5208 29.0785C26.2029 29.5731 26.0952 30.1027 26.0952 30.568H30.0952ZM29.373 31.7084L34.413 29.3564L32.7214 25.7316L27.6814 28.0836L29.373 31.7084ZM50.8641 27.544L51.7098 29.3564L51.804 29.3124L51.8931 29.259L50.8641 27.544ZM57.7761 27.592L56.1761 28.792L56.3475 29.0206L56.5761 29.192L57.7761 27.592ZM57.7761 60.856L56.3619 59.4418L56.3618 59.4418L57.7761 60.856ZM51.3441 60.856L49.7441 62.056L49.9155 62.2846L50.1441 62.456L51.3441 60.856ZM51.1041 33.928L49.6898 35.3422L49.6899 35.3422L51.1041 33.928ZM50.9121 33.88L51.4383 35.8095L51.6294 35.7574L51.8065 35.6688L50.9121 33.88ZM46.1601 35.176L46.6452 37.1163L46.6658 37.1111L46.6863 37.1055L46.1601 35.176ZM45.9681 35.224V37.224H46.2143L46.4532 37.1643L45.9681 35.224ZM45.5361 34.696H47.5361V34.6611L47.5348 34.6263L45.5361 34.696ZM45.3921 30.568H43.3921V30.6029L43.3933 30.6377L45.3921 30.568ZM45.8241 29.896L46.6363 31.7236L46.6532 31.7162L46.6698 31.7084L45.8241 29.896ZM51.8931 29.259C51.7259 29.3592 51.5949 29.3894 51.5563 29.3972C51.5148 29.4055 51.5181 29.4 51.5841 29.4V25.4C51.1293 25.4 50.4558 25.4566 49.8351 25.829L51.8931 29.259ZM51.5841 29.4H57.3921V25.4H51.5841V29.4ZM57.3921 29.4C57.1986 29.4 56.9587 29.3594 56.7136 29.2369C56.4686 29.1143 56.2921 28.9467 56.1761 28.792L59.3761 26.392C58.9024 25.7604 58.1816 25.4 57.3921 25.4V29.4ZM56.5761 29.192C56.4213 29.0759 56.2537 28.8995 56.1312 28.6544C56.0087 28.4094 55.9681 28.1694 55.9681 27.976H59.9681C59.9681 27.1865 59.6077 26.4657 58.9761 25.992L56.5761 29.192ZM55.9681 27.976V60.424H59.9681V27.976H55.9681ZM55.9681 60.424C55.9681 60.2286 56.009 60.0275 56.0924 59.8397C56.1738 59.6567 56.2778 59.5259 56.3619 59.4418L59.1903 62.2702C59.6397 61.8208 59.9681 61.1858 59.9681 60.424H55.9681ZM56.3618 59.4418C56.5172 59.2865 56.7044 59.1669 56.9058 59.0913C57.1011 59.0181 57.2723 59 57.3921 59V63C57.9806 63 58.6528 62.8077 59.1903 62.2702L56.3618 59.4418ZM57.3921 59H51.7761V63H57.3921V59ZM51.7761 59C51.8993 59 52.0378 59.0191 52.1805 59.0666C52.3233 59.1142 52.4454 59.182 52.5441 59.256L50.1441 62.456C50.6183 62.8116 51.1833 63 51.7761 63V59ZM52.9441 59.656C53.018 59.7546 53.0858 59.8768 53.1334 60.0195C53.181 60.1623 53.2001 60.3007 53.2001 60.424H49.2001C49.2001 61.0167 49.3884 61.5818 49.7441 62.056L52.9441 59.656ZM53.2001 60.424V34.12H49.2001V60.424H53.2001ZM53.2001 34.12C53.2001 33.3385 52.8003 32.7958 52.5183 32.5138L49.6899 35.3422C49.5359 35.1882 49.2001 34.7735 49.2001 34.12H53.2001ZM52.5183 32.5138C52.3215 32.317 51.9842 32.0505 51.4931 31.9277C50.9574 31.7938 50.4376 31.8811 50.0176 32.0912L51.8065 35.6688C51.4505 35.8469 50.9948 35.9262 50.523 35.8083C50.0959 35.7015 49.8226 35.475 49.6898 35.3422L52.5183 32.5138ZM50.3858 31.9505L45.6338 33.2465L46.6863 37.1055L51.4383 35.8095L50.3858 31.9505ZM45.675 33.2357L45.483 33.2837L46.4532 37.1643L46.6452 37.1163L45.675 33.2357ZM45.9681 33.224C46.2501 33.224 46.7863 33.3297 47.192 33.8255C47.5348 34.2446 47.5361 34.6503 47.5361 34.696H43.5361C43.5361 35.0937 43.6093 35.7634 44.0961 36.3585C44.6458 37.0303 45.398 37.224 45.9681 37.224V33.224ZM47.5348 34.6263L47.3908 30.4983L43.3933 30.6377L43.5373 34.7657L47.5348 34.6263ZM47.3921 30.568C47.3921 30.7133 47.3564 30.9709 47.1824 31.2415C47.0072 31.5141 46.7823 31.6587 46.6363 31.7236L45.0118 28.0684C44.5778 28.2613 44.137 28.5819 43.8177 29.0785C43.4998 29.5731 43.3921 30.1027 43.3921 30.568H47.3921ZM46.6698 31.7084L51.7098 29.3564L50.0183 25.7316L44.9783 28.0836L46.6698 31.7084Z" fill="white" mask="url(#path-2-outside-1_135_63967)"/>
</g>
<defs>
<clipPath id="clip0_135_63967">
<rect width="86" height="86" fill="white"/>
</clipPath>
</defs>
</svg>
