<svg width="100%" height="100%" viewBox="0 0 86 86" fill="none" xmlns="http://www.w3.org/2000/svg">
<g clip-path="url(#clip0_135_63958)">
<rect x="2" y="2" width="82" height="82" rx="8" fill="#CDB288" stroke="white" stroke-width="4"/>
<mask id="path-2-outside-1_135_63958" maskUnits="userSpaceOnUse" x="30" y="25" width="27" height="39" fill="black">
<rect fill="white" x="30" y="25" width="27" height="39"/>
<path d="M53.6305 45.688C54.1105 47.256 54.3505 48.776 54.3505 50.248C54.3505 51.88 54.0945 53.352 53.5825 54.664C52.8465 56.712 51.5505 58.344 49.6945 59.56C47.8385 60.744 45.6625 61.336 43.1665 61.336C40.7345 61.336 38.5905 60.76 36.7345 59.608C34.9105 58.424 33.6145 56.824 32.8465 54.808C32.5265 53.976 32.2865 53.096 32.1265 52.168V52.072C32.1265 51.72 32.3185 51.544 32.7025 51.544H38.5105C38.8305 51.544 39.0385 51.72 39.1345 52.072C39.1665 52.264 39.2145 52.424 39.2785 52.552C39.3425 52.68 39.3905 52.792 39.4225 52.888C39.7425 53.72 40.2225 54.36 40.8625 54.808C41.5025 55.256 42.2545 55.48 43.1185 55.48C44.0145 55.48 44.7985 55.24 45.4705 54.76C46.1425 54.28 46.6385 53.608 46.9585 52.744C47.2785 52.104 47.4385 51.272 47.4385 50.248C47.4385 49.32 47.2945 48.488 47.0065 47.752C46.7825 46.92 46.3345 46.28 45.6625 45.832C44.9905 45.384 44.2065 45.16 43.3105 45.16C42.4145 45.16 41.5825 45.368 40.8145 45.784C40.0465 46.2 39.5345 46.744 39.2785 47.416C39.1825 47.736 38.9745 47.896 38.6545 47.896H32.7505C32.5905 47.896 32.4465 47.848 32.3185 47.752C32.2225 47.624 32.1745 47.48 32.1745 47.32V27.976C32.1745 27.816 32.2225 27.688 32.3185 27.592C32.4465 27.464 32.5905 27.4 32.7505 27.4H52.5745C52.7345 27.4 52.8625 27.464 52.9585 27.592C53.0865 27.688 53.1505 27.816 53.1505 27.976V32.632C53.1505 32.792 53.0865 32.936 52.9585 33.064C52.8625 33.16 52.7345 33.208 52.5745 33.208H39.1825C39.0225 33.208 38.9425 33.288 38.9425 33.448L38.8945 40.552C38.8945 40.776 38.9905 40.824 39.1825 40.696C40.6225 39.768 42.2865 39.304 44.1745 39.304C46.4145 39.304 48.3665 39.88 50.0305 41.032C51.7265 42.152 52.9265 43.704 53.6305 45.688Z"/>
</mask>
<path d="M53.6305 45.688C54.1105 47.256 54.3505 48.776 54.3505 50.248C54.3505 51.88 54.0945 53.352 53.5825 54.664C52.8465 56.712 51.5505 58.344 49.6945 59.56C47.8385 60.744 45.6625 61.336 43.1665 61.336C40.7345 61.336 38.5905 60.76 36.7345 59.608C34.9105 58.424 33.6145 56.824 32.8465 54.808C32.5265 53.976 32.2865 53.096 32.1265 52.168V52.072C32.1265 51.72 32.3185 51.544 32.7025 51.544H38.5105C38.8305 51.544 39.0385 51.72 39.1345 52.072C39.1665 52.264 39.2145 52.424 39.2785 52.552C39.3425 52.68 39.3905 52.792 39.4225 52.888C39.7425 53.72 40.2225 54.36 40.8625 54.808C41.5025 55.256 42.2545 55.48 43.1185 55.48C44.0145 55.48 44.7985 55.24 45.4705 54.76C46.1425 54.28 46.6385 53.608 46.9585 52.744C47.2785 52.104 47.4385 51.272 47.4385 50.248C47.4385 49.32 47.2945 48.488 47.0065 47.752C46.7825 46.92 46.3345 46.28 45.6625 45.832C44.9905 45.384 44.2065 45.16 43.3105 45.16C42.4145 45.16 41.5825 45.368 40.8145 45.784C40.0465 46.2 39.5345 46.744 39.2785 47.416C39.1825 47.736 38.9745 47.896 38.6545 47.896H32.7505C32.5905 47.896 32.4465 47.848 32.3185 47.752C32.2225 47.624 32.1745 47.48 32.1745 47.32V27.976C32.1745 27.816 32.2225 27.688 32.3185 27.592C32.4465 27.464 32.5905 27.4 32.7505 27.4H52.5745C52.7345 27.4 52.8625 27.464 52.9585 27.592C53.0865 27.688 53.1505 27.816 53.1505 27.976V32.632C53.1505 32.792 53.0865 32.936 52.9585 33.064C52.8625 33.16 52.7345 33.208 52.5745 33.208H39.1825C39.0225 33.208 38.9425 33.288 38.9425 33.448L38.8945 40.552C38.8945 40.776 38.9905 40.824 39.1825 40.696C40.6225 39.768 42.2865 39.304 44.1745 39.304C46.4145 39.304 48.3665 39.88 50.0305 41.032C51.7265 42.152 52.9265 43.704 53.6305 45.688Z" fill="black"/>
<path d="M53.6305 45.688L55.5429 45.1026L55.53 45.0606L55.5154 45.0192L53.6305 45.688ZM53.5825 54.664L51.7193 53.9369L51.7095 53.9621L51.7004 53.9876L53.5825 54.664ZM49.6945 59.56L50.7701 61.2461L50.7804 61.2396L50.7906 61.2329L49.6945 59.56ZM36.7345 59.608L35.6456 61.2856L35.6626 61.2966L35.6798 61.3073L36.7345 59.608ZM32.8465 54.808L34.7155 54.096L34.7132 54.09L32.8465 54.808ZM32.1265 52.168H30.1265V52.3392L30.1556 52.5078L32.1265 52.168ZM39.1345 52.072L41.1073 51.7432L41.0907 51.6434L41.064 51.5458L39.1345 52.072ZM39.2785 52.552L37.4896 53.4464L37.4896 53.4464L39.2785 52.552ZM39.4225 52.888L37.5251 53.5205L37.5395 53.5636L37.5558 53.606L39.4225 52.888ZM40.8625 54.808L42.0094 53.1695L42.0094 53.1695L40.8625 54.808ZM45.4705 54.76L44.308 53.1325L44.308 53.1325L45.4705 54.76ZM46.9585 52.744L45.1696 51.8496L45.1209 51.9471L45.083 52.0494L46.9585 52.744ZM47.0065 47.752L45.0753 48.2719L45.1039 48.3783L45.144 48.4808L47.0065 47.752ZM40.8145 45.784L41.7671 47.5426L41.7671 47.5426L40.8145 45.784ZM39.2785 47.416L37.4095 46.704L37.3837 46.7718L37.3628 46.8413L39.2785 47.416ZM32.3185 47.752L30.7185 48.952L30.8899 49.1806L31.1185 49.352L32.3185 47.752ZM32.3185 27.592L30.9043 26.1778L30.9043 26.1778L32.3185 27.592ZM52.9585 27.592L51.3585 28.792L51.5299 29.0206L51.7585 29.192L52.9585 27.592ZM52.9585 33.064L54.3727 34.4782L54.3727 34.4782L52.9585 33.064ZM38.9425 33.448L40.9425 33.4615V33.448H38.9425ZM38.8945 40.552L36.8945 40.5385V40.552H38.8945ZM39.1825 40.696L38.0991 39.0149L38.086 39.0233L38.0731 39.0319L39.1825 40.696ZM50.0305 41.032L48.8921 42.6764L48.9101 42.6889L48.9284 42.7009L50.0305 41.032ZM51.7181 46.2734C52.1466 47.6731 52.3505 48.9956 52.3505 50.248H56.3505C56.3505 48.5564 56.0744 46.8389 55.5429 45.1026L51.7181 46.2734ZM52.3505 50.248C52.3505 51.6702 52.1278 52.8904 51.7193 53.9369L55.4457 55.3911C56.0612 53.8136 56.3505 52.0898 56.3505 50.248H52.3505ZM51.7004 53.9876C51.1143 55.6183 50.0988 56.9041 48.5984 57.8871L50.7906 61.2329C53.0022 59.7839 54.5787 57.8057 55.4646 55.3404L51.7004 53.9876ZM48.6189 57.8739C47.1257 58.8264 45.3338 59.336 43.1665 59.336V63.336C45.9912 63.336 48.5513 62.6616 50.7701 61.2461L48.6189 57.8739ZM43.1665 59.336C41.0637 59.336 39.2935 58.8424 37.7892 57.9087L35.6798 61.3073C37.8875 62.6776 40.4053 63.336 43.1665 63.336V59.336ZM37.8234 57.9304C36.3522 56.9754 35.3312 55.7122 34.7155 54.096L30.9775 55.52C31.8978 57.9358 33.4688 59.8726 35.6456 61.2856L37.8234 57.9304ZM34.7132 54.09C34.4428 53.387 34.2364 52.6343 34.0974 51.8282L30.1556 52.5078C30.3366 53.5577 30.6102 54.565 30.9798 55.526L34.7132 54.09ZM34.1265 52.168V52.072H30.1265V52.168H34.1265ZM34.1265 52.072C34.1265 52.2512 34.0696 52.74 33.6219 53.1503C33.2073 53.5304 32.7778 53.544 32.7025 53.544V49.544C32.2432 49.544 31.5257 49.6456 30.9191 50.2017C30.2794 50.788 30.1265 51.5408 30.1265 52.072H34.1265ZM32.7025 53.544H38.5105V49.544H32.7025V53.544ZM38.5105 53.544C38.2842 53.544 37.9329 53.4721 37.6146 53.2028C37.3208 52.9542 37.228 52.6826 37.205 52.5982L41.064 51.5458C40.945 51.1094 40.7002 50.5738 40.1984 50.1492C39.6721 49.7039 39.0568 49.544 38.5105 49.544V53.544ZM37.1617 52.4008C37.2155 52.7238 37.3109 53.089 37.4896 53.4464L41.0674 51.6576C41.0944 51.7116 41.1065 51.749 41.1102 51.7613C41.1139 51.7739 41.1116 51.7693 41.1073 51.7432L37.1617 52.4008ZM37.4896 53.4464C37.5071 53.4812 37.518 53.5054 37.5242 53.5198C37.5306 53.5348 37.5298 53.5344 37.5251 53.5205L41.3199 52.2555C41.2485 52.0415 41.1578 51.8386 41.0674 51.6576L37.4896 53.4464ZM37.5558 53.606C37.9979 54.7555 38.7049 55.739 39.7156 56.4465L42.0094 53.1695C41.7401 52.981 41.4871 52.6845 41.2892 52.17L37.5558 53.606ZM39.7156 56.4465C40.7272 57.1546 41.8896 57.48 43.1185 57.48V53.48C42.6194 53.48 42.2778 53.3574 42.0094 53.1695L39.7156 56.4465ZM43.1185 57.48C44.394 57.48 45.5926 57.1306 46.633 56.3875L44.308 53.1325C44.0044 53.3494 43.635 53.48 43.1185 53.48V57.48ZM46.633 56.3875C47.6677 55.6484 48.3917 54.6328 48.834 53.4386L45.083 52.0494C44.8853 52.5832 44.6173 52.9116 44.308 53.1325L46.633 56.3875ZM48.7474 53.6384C49.2529 52.6273 49.4385 51.4577 49.4385 50.248H45.4385C45.4385 51.0863 45.3041 51.5807 45.1696 51.8496L48.7474 53.6384ZM49.4385 50.248C49.4385 49.1133 49.2622 48.0281 48.869 47.0232L45.144 48.4808C45.3268 48.9479 45.4385 49.5267 45.4385 50.248H49.4385ZM48.9377 47.2321C48.5968 45.9656 47.8759 44.9039 46.7719 44.1679L44.5531 47.4961C44.7931 47.6561 44.9682 47.8744 45.0753 48.2719L48.9377 47.2321ZM46.7719 44.1679C45.7359 43.4772 44.5565 43.16 43.3105 43.16V47.16C43.8565 47.16 44.2451 47.2908 44.5531 47.4961L46.7719 44.1679ZM43.3105 43.16C42.0908 43.16 40.9302 43.4468 39.8619 44.0254L41.7671 47.5426C42.2348 47.2892 42.7382 47.16 43.3105 47.16V43.16ZM39.8619 44.0254C38.7673 44.6184 37.8705 45.4939 37.4095 46.704L41.1475 48.128C41.1985 47.9941 41.3257 47.7816 41.7671 47.5426L39.8619 44.0254ZM37.3628 46.8413C37.4023 46.7099 37.5221 46.4285 37.8311 46.1908C38.148 45.947 38.4727 45.896 38.6545 45.896V49.896C39.1563 49.896 39.745 49.765 40.2699 49.3612C40.7869 48.9635 41.0587 48.4421 41.1942 47.9907L37.3628 46.8413ZM38.6545 45.896H32.7505V49.896H38.6545V45.896ZM32.7505 45.896C32.8738 45.896 33.0122 45.9151 33.155 45.9626C33.2977 46.0102 33.4199 46.078 33.5185 46.152L31.1185 49.352C31.5927 49.7076 32.1578 49.896 32.7505 49.896V45.896ZM33.9185 46.552C33.9925 46.6506 34.0603 46.7728 34.1079 46.9155C34.1554 47.0583 34.1745 47.1967 34.1745 47.32H30.1745C30.1745 47.9127 30.3629 48.4778 30.7185 48.952L33.9185 46.552ZM34.1745 47.32V27.976H30.1745V47.32H34.1745ZM34.1745 27.976C34.1745 28.0957 34.1564 28.267 34.0832 28.4622C34.0076 28.6637 33.888 28.8509 33.7327 29.0062L30.9043 26.1778C30.3668 26.7153 30.1745 27.3875 30.1745 27.976H34.1745ZM33.7327 29.0062C33.6486 29.0903 33.5178 29.1943 33.3348 29.2756C33.1471 29.3591 32.9459 29.4 32.7505 29.4V25.4C31.9887 25.4 31.3537 25.7284 30.9043 26.1778L33.7327 29.0062ZM32.7505 29.4H52.5745V25.4H32.7505V29.4ZM52.5745 29.4C52.3811 29.4 52.1411 29.3594 51.8961 29.2369C51.651 29.1143 51.4746 28.9468 51.3585 28.792L54.5585 26.392C54.0848 25.7604 53.364 25.4 52.5745 25.4V29.4ZM51.7585 29.192C51.6037 29.0759 51.4362 28.8995 51.3136 28.6544C51.1911 28.4094 51.1505 28.1694 51.1505 27.976H55.1505C55.1505 27.1865 54.7901 26.4657 54.1585 25.992L51.7585 29.192ZM51.1505 27.976V32.632H55.1505V27.976H51.1505ZM51.1505 32.632C51.1505 32.4366 51.1914 32.2354 51.2749 32.0477C51.3562 31.8647 51.4602 31.7339 51.5443 31.6498L54.3727 34.4782C54.8221 34.0288 55.1505 33.3938 55.1505 32.632H51.1505ZM51.5443 31.6498C51.6996 31.4945 51.8869 31.3749 52.0883 31.2993C52.2835 31.2261 52.4548 31.208 52.5745 31.208V35.208C53.163 35.208 53.8352 35.0157 54.3727 34.4782L51.5443 31.6498ZM52.5745 31.208H39.1825V35.208H52.5745V31.208ZM39.1825 31.208C38.7942 31.208 38.1356 31.3064 37.5883 31.8538C37.0409 32.4012 36.9425 33.0597 36.9425 33.448H40.9425C40.9425 33.6763 40.8841 34.2148 40.4167 34.6822C39.9494 35.1496 39.4108 35.208 39.1825 35.208V31.208ZM36.9425 33.4345L36.8945 40.5385L40.8945 40.5655L40.9425 33.4615L36.9425 33.4345ZM36.8945 40.552C36.8945 40.7235 36.9093 41.0205 37.0265 41.3526C37.1503 41.7032 37.4435 42.2306 38.0721 42.5449C38.6869 42.8523 39.2662 42.7765 39.5918 42.686C39.9113 42.5973 40.1526 42.4529 40.2919 42.3601L38.0731 39.0319C38.1164 39.0031 38.2737 38.9007 38.5212 38.832C38.7748 38.7615 39.2941 38.6837 39.8609 38.9671C40.4415 39.2574 40.6987 39.7388 40.7985 40.0214C40.8917 40.2855 40.8945 40.4925 40.8945 40.552H36.8945ZM40.2659 42.3771C41.3503 41.6783 42.6301 41.304 44.1745 41.304V37.304C41.9429 37.304 39.8947 37.8577 38.0991 39.0149L40.2659 42.3771ZM44.1745 41.304C46.053 41.304 47.598 41.7805 48.8921 42.6764L51.1689 39.3876C49.135 37.9795 46.776 37.304 44.1745 37.304V41.304ZM48.9284 42.7009C50.248 43.5724 51.1814 44.7666 51.7456 46.3568L55.5154 45.0192C54.6716 42.6414 53.205 40.7316 51.1326 39.3631L48.9284 42.7009Z" fill="white" mask="url(#path-2-outside-1_135_63958)"/>
</g>
<defs>
<clipPath id="clip0_135_63958">
<rect width="86" height="86" fill="white"/>
</clipPath>
</defs>
</svg>
