<svg width="100%" height="100%" viewBox="0 0 86 86" fill="none" xmlns="http://www.w3.org/2000/svg">
<g clip-path="url(#clip0_135_63944)">
<rect width="86" height="86" rx="10" fill="#AA9980"/>
<path d="M42.2156 27.544C42.3756 27.448 42.6156 27.4 42.9356 27.4H48.7436C48.9036 27.4 49.0316 27.464 49.1276 27.592C49.2556 27.688 49.3196 27.816 49.3196 27.976V60.424C49.3196 60.584 49.2556 60.728 49.1276 60.856C49.0316 60.952 48.9036 61 48.7436 61H43.1276C42.9676 61 42.8236 60.952 42.6956 60.856C42.5996 60.728 42.5516 60.584 42.5516 60.424V34.12C42.5516 34.056 42.5196 33.992 42.4556 33.928C42.3916 33.864 42.3276 33.848 42.2636 33.88L37.5116 35.176L37.3196 35.224C37.0316 35.224 36.8876 35.048 36.8876 34.696L36.7436 30.568C36.7436 30.248 36.8876 30.024 37.1756 29.896L42.2156 27.544Z" fill="#7E7B7B"/>
</g>
<defs>
<clipPath id="clip0_135_63944">
<rect width="86" height="86" fill="white"/>
</clipPath>
</defs>
</svg>
