<svg width="100%" height="100%" viewBox="0 0 86 86" fill="none" xmlns="http://www.w3.org/2000/svg">
<g clip-path="url(#clip0_135_63964)">
<rect x="2" y="2" width="82" height="82" rx="8" fill="#CDB288" stroke="white" stroke-width="4"/>
<mask id="path-2-outside-1_135_63964" maskUnits="userSpaceOnUse" x="29" y="25" width="27" height="39" fill="black">
<rect fill="white" x="29" y="25" width="27" height="39"/>
<path d="M52.858 33.496C53.402 34.808 53.674 36.376 53.674 38.2V52.648C53.674 54.376 53.226 55.912 52.33 57.256C51.434 58.568 50.17 59.592 48.538 60.328C46.906 61.032 45.034 61.384 42.922 61.384C40.842 61.384 39.002 61.032 37.402 60.328C35.802 59.592 34.554 58.584 33.658 57.304C32.762 55.992 32.314 54.488 32.314 52.792V51.448C32.314 51.288 32.362 51.16 32.458 51.064C32.586 50.936 32.73 50.872 32.89 50.872H38.506C38.666 50.872 38.794 50.936 38.89 51.064C39.018 51.16 39.082 51.288 39.082 51.448V51.88C39.082 52.936 39.434 53.816 40.138 54.52C40.874 55.224 41.802 55.576 42.922 55.576C44.106 55.576 45.066 55.224 45.802 54.52C46.538 53.784 46.906 52.856 46.906 51.736V47.272C46.906 47.176 46.874 47.112 46.81 47.08C46.746 47.048 46.682 47.064 46.618 47.128C45.306 48.248 43.578 48.808 41.434 48.808C39.514 48.808 37.786 48.376 36.25 47.512C34.746 46.616 33.562 45.336 32.698 43.672C31.898 42.168 31.498 40.328 31.498 38.152C31.498 36.264 31.818 34.6 32.458 33.16C33.258 31.272 34.538 29.784 36.298 28.696C38.09 27.608 40.186 27.064 42.586 27.064C45.018 27.064 47.13 27.64 48.922 28.792C50.746 29.912 52.058 31.48 52.858 33.496ZM42.586 43.144C44.25 43.144 45.45 42.488 46.186 41.176C46.666 40.344 46.906 39.272 46.906 37.96C46.906 36.904 46.698 35.928 46.282 35.032C45.578 33.624 44.362 32.92 42.634 32.92C40.97 32.92 39.754 33.624 38.986 35.032C38.506 35.928 38.266 36.936 38.266 38.056C38.266 39.272 38.538 40.328 39.082 41.224C39.882 42.504 41.05 43.144 42.586 43.144Z"/>
</mask>
<path d="M52.858 33.496C53.402 34.808 53.674 36.376 53.674 38.2V52.648C53.674 54.376 53.226 55.912 52.33 57.256C51.434 58.568 50.17 59.592 48.538 60.328C46.906 61.032 45.034 61.384 42.922 61.384C40.842 61.384 39.002 61.032 37.402 60.328C35.802 59.592 34.554 58.584 33.658 57.304C32.762 55.992 32.314 54.488 32.314 52.792V51.448C32.314 51.288 32.362 51.16 32.458 51.064C32.586 50.936 32.73 50.872 32.89 50.872H38.506C38.666 50.872 38.794 50.936 38.89 51.064C39.018 51.16 39.082 51.288 39.082 51.448V51.88C39.082 52.936 39.434 53.816 40.138 54.52C40.874 55.224 41.802 55.576 42.922 55.576C44.106 55.576 45.066 55.224 45.802 54.52C46.538 53.784 46.906 52.856 46.906 51.736V47.272C46.906 47.176 46.874 47.112 46.81 47.08C46.746 47.048 46.682 47.064 46.618 47.128C45.306 48.248 43.578 48.808 41.434 48.808C39.514 48.808 37.786 48.376 36.25 47.512C34.746 46.616 33.562 45.336 32.698 43.672C31.898 42.168 31.498 40.328 31.498 38.152C31.498 36.264 31.818 34.6 32.458 33.16C33.258 31.272 34.538 29.784 36.298 28.696C38.09 27.608 40.186 27.064 42.586 27.064C45.018 27.064 47.13 27.64 48.922 28.792C50.746 29.912 52.058 31.48 52.858 33.496ZM42.586 43.144C44.25 43.144 45.45 42.488 46.186 41.176C46.666 40.344 46.906 39.272 46.906 37.96C46.906 36.904 46.698 35.928 46.282 35.032C45.578 33.624 44.362 32.92 42.634 32.92C40.97 32.92 39.754 33.624 38.986 35.032C38.506 35.928 38.266 36.936 38.266 38.056C38.266 39.272 38.538 40.328 39.082 41.224C39.882 42.504 41.05 43.144 42.586 43.144Z" fill="black"/>
<path d="M52.858 33.496L50.999 34.2337L51.0047 34.2479L51.0105 34.262L52.858 33.496ZM52.33 57.256L53.9816 58.3839L53.9879 58.3747L53.9941 58.3654L52.33 57.256ZM48.538 60.328L49.3302 62.1644L49.3453 62.1579L49.3602 62.1512L48.538 60.328ZM37.402 60.328L36.5662 62.145L36.5813 62.1519L36.5965 62.1586L37.402 60.328ZM33.658 57.304L32.0064 58.4319L32.0129 58.4415L32.0195 58.4509L33.658 57.304ZM32.458 51.064L31.0438 49.6498L31.0438 49.6498L32.458 51.064ZM38.89 51.064L37.29 52.264L37.4614 52.4926L37.69 52.664L38.89 51.064ZM40.138 54.52L38.7238 55.9342L38.7395 55.9499L38.7556 55.9653L40.138 54.52ZM45.802 54.52L47.1844 55.9653L47.2005 55.9499L47.2162 55.9342L45.802 54.52ZM46.81 47.08L47.7044 45.2912L47.7044 45.2911L46.81 47.08ZM46.618 47.128L47.9165 48.6491L47.9765 48.598L48.0322 48.5422L46.618 47.128ZM36.25 47.512L35.2264 49.2302L35.2478 49.2429L35.2695 49.2552L36.25 47.512ZM32.698 43.672L34.473 42.7504L34.4684 42.7415L34.4637 42.7328L32.698 43.672ZM32.458 33.16L34.2856 33.9723L34.2927 33.9563L34.2995 33.9403L32.458 33.16ZM36.298 28.696L35.26 26.9864L35.2532 26.9906L35.2464 26.9948L36.298 28.696ZM48.922 28.792L47.8405 30.4744L47.8579 30.4855L47.8755 30.4963L48.922 28.792ZM46.186 41.176L44.4536 40.1766L44.4476 40.187L44.4417 40.1975L46.186 41.176ZM46.282 35.032L48.096 34.1898L48.0838 34.1635L48.0709 34.1376L46.282 35.032ZM38.986 35.032L37.2302 34.0743L37.2266 34.0809L37.223 34.0876L38.986 35.032ZM39.082 41.224L37.3724 42.262L37.3791 42.273L37.386 42.284L39.082 41.224ZM51.0105 34.262C51.4296 35.2729 51.674 36.5674 51.674 38.2H55.674C55.674 36.1846 55.3744 34.3431 54.7055 32.73L51.0105 34.262ZM51.674 38.2V52.648H55.674V38.2H51.674ZM51.674 52.648C51.674 54.0101 51.3274 55.1544 50.6659 56.1466L53.9941 58.3654C55.1246 56.6696 55.674 54.7419 55.674 52.648H51.674ZM50.6784 56.1281C50.0151 57.0993 49.0563 57.9003 47.7158 58.5048L49.3602 62.1512C51.2837 61.2837 52.8529 60.0367 53.9816 58.3839L50.6784 56.1281ZM47.7458 58.4916C46.4065 59.0693 44.812 59.384 42.922 59.384V63.384C45.256 63.384 47.4055 62.9947 49.3302 62.1644L47.7458 58.4916ZM42.922 59.384C41.0675 59.384 39.5101 59.0705 38.2075 58.4974L36.5965 62.1586C38.4939 62.9935 40.6165 63.384 42.922 63.384V59.384ZM38.2378 58.511C36.9182 57.904 35.9642 57.111 35.2965 56.1571L32.0195 58.4509C33.1438 60.057 34.6858 61.28 36.5662 62.145L38.2378 58.511ZM35.3096 56.1761C34.6562 55.2193 34.314 54.1141 34.314 52.792H30.314C30.314 54.8619 30.8678 56.7647 32.0064 58.4319L35.3096 56.1761ZM34.314 52.792V51.448H30.314V52.792H34.314ZM34.314 51.448C34.314 51.5677 34.2959 51.739 34.2227 51.9342C34.1471 52.1357 34.0275 52.3229 33.8722 52.4782L31.0438 49.6498C30.5063 50.1873 30.314 50.8595 30.314 51.448H34.314ZM33.8722 52.4782C33.7881 52.5623 33.6573 52.6663 33.4743 52.7476C33.2865 52.8311 33.0854 52.872 32.89 52.872V48.872C32.1282 48.872 31.4932 49.2004 31.0438 49.6498L33.8722 52.4782ZM32.89 52.872H38.506V48.872H32.89V52.872ZM38.506 52.872C38.3126 52.872 38.0726 52.8314 37.8276 52.7089C37.5825 52.5863 37.4061 52.4188 37.29 52.264L40.49 49.864C40.0163 49.2324 39.2955 48.872 38.506 48.872V52.872ZM37.69 52.664C37.5352 52.5479 37.3677 52.3715 37.2451 52.1264C37.1226 51.8814 37.082 51.6414 37.082 51.448H41.082C41.082 50.6585 40.7216 49.9377 40.09 49.464L37.69 52.664ZM37.082 51.448V51.88H41.082V51.448H37.082ZM37.082 51.88C37.082 53.4307 37.6202 54.8306 38.7238 55.9342L41.5522 53.1058C41.2478 52.8014 41.082 52.4413 41.082 51.88H37.082ZM38.7556 55.9653C39.9024 57.0622 41.343 57.576 42.922 57.576V53.576C42.261 53.576 41.8456 53.3858 41.5204 53.0747L38.7556 55.9653ZM42.922 57.576C44.5312 57.576 46.016 57.0829 47.1844 55.9653L44.4196 53.0747C44.116 53.3651 43.6808 53.576 42.922 53.576V57.576ZM47.2162 55.9342C48.3577 54.7927 48.906 53.3418 48.906 51.736H44.906C44.906 52.3701 44.7183 52.7753 44.3878 53.1058L47.2162 55.9342ZM48.906 51.736V47.272H44.906V51.736H48.906ZM48.906 47.272C48.906 46.7205 48.6795 45.7787 47.7044 45.2912L45.9156 48.8688C45.5605 48.6913 45.2707 48.4015 45.0931 48.0464C44.9312 47.7225 44.906 47.4333 44.906 47.272H48.906ZM47.7044 45.2911C47.2844 45.0811 46.7647 44.9938 46.2289 45.1277C45.7379 45.2505 45.4005 45.517 45.2038 45.7138L48.0322 48.5422C47.8995 48.675 47.6261 48.9015 47.1991 49.0083C46.7273 49.1262 46.2716 49.0469 45.9156 48.8689L47.7044 45.2911ZM45.3195 45.6069C44.4511 46.3481 43.2215 46.808 41.434 46.808V50.808C43.9345 50.808 46.1609 50.1479 47.9165 48.6491L45.3195 45.6069ZM41.434 46.808C39.8259 46.808 38.4408 46.4496 37.2305 45.7688L35.2695 49.2552C37.1312 50.3024 39.2021 50.808 41.434 50.808V46.808ZM37.2736 45.7938C36.1121 45.1019 35.1782 44.1085 34.473 42.7504L30.923 44.5936C31.9458 46.5635 33.3799 48.1301 35.2264 49.2302L37.2736 45.7938ZM34.4637 42.7328C33.8544 41.5871 33.498 40.089 33.498 38.152H29.498C29.498 40.567 29.9416 42.7489 30.9323 44.6112L34.4637 42.7328ZM33.498 38.152C33.498 36.4894 33.7795 35.1111 34.2856 33.9723L30.6304 32.3477C29.8565 34.0889 29.498 36.0386 29.498 38.152H33.498ZM34.2995 33.9403C34.9363 32.4373 35.9385 31.2695 37.3496 30.3972L35.2464 26.9948C33.1375 28.2985 31.5797 30.1067 30.6165 32.3797L34.2995 33.9403ZM37.336 30.4056C38.7719 29.5338 40.498 29.064 42.586 29.064V25.064C39.874 25.064 37.4081 25.6822 35.26 26.9864L37.336 30.4056ZM42.586 29.064C44.6902 29.064 46.415 29.558 47.8405 30.4744L50.0035 27.1096C47.845 25.722 45.3458 25.064 42.586 25.064V29.064ZM47.8755 30.4963C49.3261 31.3871 50.3561 32.6134 50.999 34.2337L54.717 32.7583C53.7599 30.3466 52.1659 28.4369 49.9685 27.0877L47.8755 30.4963ZM42.586 45.144C44.8799 45.144 46.7969 44.1749 47.9303 42.1545L44.4417 40.1975C44.1031 40.8011 43.6201 41.144 42.586 41.144V45.144ZM47.9184 42.1754C48.6264 40.9482 48.906 39.4998 48.906 37.96H44.906C44.906 39.0442 44.7056 39.7398 44.4536 40.1766L47.9184 42.1754ZM48.906 37.96C48.906 36.6335 48.6429 35.3676 48.096 34.1898L44.468 35.8742C44.7531 36.4884 44.906 37.1745 44.906 37.96H48.906ZM48.0709 34.1376C47.5658 33.1274 46.8303 32.2881 45.8441 31.7171C44.8688 31.1525 43.7695 30.92 42.634 30.92V34.92C43.2265 34.92 43.5992 35.0395 43.8399 35.1789C44.0697 35.3119 44.2942 35.5286 44.4931 35.9264L48.0709 34.1376ZM42.634 30.92C41.5153 30.92 40.4363 31.1588 39.4719 31.7171C38.5036 32.2777 37.7645 33.0949 37.2302 34.0743L40.7418 35.9897C40.9756 35.5611 41.2284 35.3223 41.4761 35.1789C41.7277 35.0332 42.0887 34.92 42.634 34.92V30.92ZM37.223 34.0876C36.572 35.3028 36.266 36.6407 36.266 38.056H40.266C40.266 37.2313 40.44 36.5532 40.749 35.9764L37.223 34.0876ZM36.266 38.056C36.266 39.5785 36.6098 41.0058 37.3724 42.262L40.7916 40.186C40.4662 39.6502 40.266 38.9655 40.266 38.056H36.266ZM37.386 42.284C38.5593 44.1612 40.3752 45.144 42.586 45.144V41.144C41.7248 41.144 41.2047 40.8468 40.778 40.164L37.386 42.284Z" fill="white" mask="url(#path-2-outside-1_135_63964)"/>
</g>
<defs>
<clipPath id="clip0_135_63964">
<rect width="86" height="86" fill="white"/>
</clipPath>
</defs>
</svg>
