<svg width="100%" height="100%" viewBox="0 0 86 86" fill="none" xmlns="http://www.w3.org/2000/svg">
<g clip-path="url(#clip0_135_63944)">
<rect x="2" y="2" width="82" height="82" rx="8" fill="#CDB288" stroke="white" stroke-width="4"/>
<mask id="path-2-outside-1_135_63944" maskUnits="userSpaceOnUse" x="34" y="25" width="18" height="38" fill="black">
<rect fill="white" x="34" y="25" width="18" height="38"/>
<path d="M42.2156 27.544C42.3756 27.448 42.6156 27.4 42.9356 27.4H48.7436C48.9036 27.4 49.0316 27.464 49.1276 27.592C49.2556 27.688 49.3196 27.816 49.3196 27.976V60.424C49.3196 60.584 49.2556 60.728 49.1276 60.856C49.0316 60.952 48.9036 61 48.7436 61H43.1276C42.9676 61 42.8236 60.952 42.6956 60.856C42.5996 60.728 42.5516 60.584 42.5516 60.424V34.12C42.5516 34.056 42.5196 33.992 42.4556 33.928C42.3916 33.864 42.3276 33.848 42.2636 33.88L37.5116 35.176L37.3196 35.224C37.0316 35.224 36.8876 35.048 36.8876 34.696L36.7436 30.568C36.7436 30.248 36.8876 30.024 37.1756 29.896L42.2156 27.544Z"/>
</mask>
<path d="M42.2156 27.544C42.3756 27.448 42.6156 27.4 42.9356 27.4H48.7436C48.9036 27.4 49.0316 27.464 49.1276 27.592C49.2556 27.688 49.3196 27.816 49.3196 27.976V60.424C49.3196 60.584 49.2556 60.728 49.1276 60.856C49.0316 60.952 48.9036 61 48.7436 61H43.1276C42.9676 61 42.8236 60.952 42.6956 60.856C42.5996 60.728 42.5516 60.584 42.5516 60.424V34.12C42.5516 34.056 42.5196 33.992 42.4556 33.928C42.3916 33.864 42.3276 33.848 42.2636 33.88L37.5116 35.176L37.3196 35.224C37.0316 35.224 36.8876 35.048 36.8876 34.696L36.7436 30.568C36.7436 30.248 36.8876 30.024 37.1756 29.896L42.2156 27.544Z" fill="black"/>
<path d="M42.2156 27.544L43.0614 29.3564L43.1555 29.3124L43.2446 29.259L42.2156 27.544ZM49.1276 27.592L47.5276 28.792L47.6991 29.0206L47.9276 29.192L49.1276 27.592ZM49.1276 60.856L47.7134 59.4418L47.7134 59.4418L49.1276 60.856ZM42.6956 60.856L41.0956 62.056L41.2671 62.2846L41.4956 62.456L42.6956 60.856ZM42.4556 33.928L41.0414 35.3422L41.0414 35.3422L42.4556 33.928ZM42.2636 33.88L42.7899 35.8095L42.9809 35.7574L43.1581 35.6688L42.2636 33.88ZM37.5116 35.176L37.9967 37.1163L38.0173 37.1111L38.0379 37.1055L37.5116 35.176ZM37.3196 35.224V37.224H37.5658L37.8047 37.1643L37.3196 35.224ZM36.8876 34.696H38.8876V34.6611L38.8864 34.6263L36.8876 34.696ZM36.7436 30.568H34.7436V30.6029L34.7448 30.6377L36.7436 30.568ZM37.1756 29.896L37.9879 31.7236L38.0047 31.7162L38.0214 31.7084L37.1756 29.896ZM43.2446 29.259C43.0775 29.3592 42.9465 29.3894 42.9079 29.3972C42.8664 29.4055 42.8696 29.4 42.9356 29.4V25.4C42.4809 25.4 41.8074 25.4566 41.1866 25.829L43.2446 29.259ZM42.9356 29.4H48.7436V25.4H42.9356V29.4ZM48.7436 29.4C48.5502 29.4 48.3102 29.3594 48.0652 29.2369C47.8201 29.1143 47.6437 28.9467 47.5276 28.792L50.7276 26.392C50.2539 25.7604 49.5331 25.4 48.7436 25.4V29.4ZM47.9276 29.192C47.7729 29.0759 47.6053 28.8995 47.4828 28.6544C47.3602 28.4094 47.3196 28.1694 47.3196 27.976H51.3196C51.3196 27.1865 50.9592 26.4657 50.3276 25.992L47.9276 29.192ZM47.3196 27.976V60.424H51.3196V27.976H47.3196ZM47.3196 60.424C47.3196 60.2286 47.3606 60.0275 47.444 59.8397C47.5254 59.6567 47.6293 59.5259 47.7134 59.4418L50.5418 62.2702C50.9912 61.8208 51.3196 61.1858 51.3196 60.424H47.3196ZM47.7134 59.4418C47.8687 59.2865 48.056 59.1669 48.2574 59.0913C48.4526 59.0181 48.6239 59 48.7436 59V63C49.3321 63 50.0044 62.8077 50.5418 62.2702L47.7134 59.4418ZM48.7436 59H43.1276V63H48.7436V59ZM43.1276 59C43.2509 59 43.3893 59.0191 43.5321 59.0666C43.6748 59.1142 43.797 59.182 43.8956 59.256L41.4956 62.456C41.9698 62.8116 42.5349 63 43.1276 63V59ZM44.2956 59.656C44.3696 59.7546 44.4374 59.8768 44.485 60.0195C44.5326 60.1623 44.5516 60.3007 44.5516 60.424H40.5516C40.5516 61.0167 40.74 61.5818 41.0956 62.056L44.2956 59.656ZM44.5516 60.424V34.12H40.5516V60.424H44.5516ZM44.5516 34.12C44.5516 33.3385 44.1518 32.7958 43.8698 32.5138L41.0414 35.3422C40.8874 35.1882 40.5516 34.7735 40.5516 34.12H44.5516ZM43.8699 32.5138C43.6731 32.317 43.3357 32.0505 42.8447 31.9277C42.3089 31.7938 41.7892 31.8811 41.3692 32.0912L43.1581 35.6688C42.802 35.8469 42.3463 35.9262 41.8746 35.8083C41.4475 35.7015 41.1741 35.475 41.0414 35.3422L43.8699 32.5138ZM41.7374 31.9505L36.9854 33.2465L38.0379 37.1055L42.7899 35.8095L41.7374 31.9505ZM37.0265 33.2357L36.8345 33.2837L37.8047 37.1643L37.9967 37.1163L37.0265 33.2357ZM37.3196 33.224C37.6017 33.224 38.1378 33.3297 38.5435 33.8255C38.8864 34.2446 38.8876 34.6503 38.8876 34.696H34.8876C34.8876 35.0937 34.9609 35.7634 35.4477 36.3585C35.9974 37.0303 36.7496 37.224 37.3196 37.224V33.224ZM38.8864 34.6263L38.7424 30.4983L34.7448 30.6377L34.8888 34.7657L38.8864 34.6263ZM38.7436 30.568C38.7436 30.7133 38.7079 30.9709 38.534 31.2415C38.3587 31.5141 38.1339 31.6587 37.9879 31.7236L36.3634 28.0684C35.9293 28.2613 35.4885 28.5819 35.1693 29.0785C34.8513 29.5731 34.7436 30.1027 34.7436 30.568H38.7436ZM38.0214 31.7084L43.0614 29.3564L41.3699 25.7316L36.3299 28.0836L38.0214 31.7084Z" fill="white" mask="url(#path-2-outside-1_135_63944)"/>
</g>
<defs>
<clipPath id="clip0_135_63944">
<rect width="86" height="86" fill="white"/>
</clipPath>
</defs>
</svg>
