<svg width="100%" height="100%" viewBox="0 0 486 80" fill="none" xmlns="http://www.w3.org/2000/svg">
<mask id="path-1-outside-1_133_63900" maskUnits="userSpaceOnUse" x="4" y="1" width="478" height="76" fill="black">
<rect fill="white" x="4" y="1" width="478" height="76"/>
<path d="M42.552 6.718C42.7987 6.37266 43.0947 6.2 43.44 6.2H47.288C47.7813 6.2 48.028 6.44666 48.028 6.94V57.26C48.028 57.7533 47.7813 58 47.288 58H43.514C43.0207 58 42.774 57.7533 42.774 57.26V16.116C42.774 15.968 42.7247 15.8693 42.626 15.82C42.5273 15.7707 42.4533 15.82 42.404 15.968L30.342 34.468C30.0953 34.8133 29.7993 34.986 29.454 34.986H27.53C27.1847 34.986 26.8887 34.838 26.642 34.542L14.58 16.19C14.5307 16.042 14.4567 15.9927 14.358 16.042C14.2593 16.0913 14.21 16.19 14.21 16.338V57.26C14.21 57.7533 13.9633 58 13.47 58H9.696C9.20267 58 8.956 57.7533 8.956 57.26V6.94C8.956 6.44666 9.20267 6.2 9.696 6.2H13.544C13.9387 6.2 14.2347 6.348 14.432 6.644L28.344 27.734C28.3933 27.7833 28.4673 27.808 28.566 27.808C28.6647 27.808 28.7387 27.7833 28.788 27.734L42.552 6.718ZM73.7684 19.964C78.2084 19.964 81.6371 21.0987 84.0544 23.368C86.4718 25.6373 87.6804 28.6467 87.6804 32.396V57.26C87.6804 57.7533 87.4338 58 86.9404 58H83.1664C82.6731 58 82.4264 57.7533 82.4264 57.26V54.226C82.4264 54.1273 82.3771 54.0533 82.2784 54.004C82.2291 53.9547 82.1551 53.9793 82.0564 54.078C80.8231 55.558 79.2198 56.6927 77.2464 57.482C75.2731 58.222 73.0778 58.592 70.6604 58.592C67.1578 58.592 64.2224 57.704 61.8544 55.928C59.4864 54.152 58.3024 51.4387 58.3024 47.788C58.3024 44.088 59.6344 41.1773 62.2984 39.056C65.0118 36.8853 68.7611 35.8 73.5464 35.8H82.1304C82.3278 35.8 82.4264 35.7013 82.4264 35.504V32.692C82.4264 30.176 81.7111 28.2027 80.2804 26.772C78.8991 25.292 76.7284 24.552 73.7684 24.552C71.4004 24.552 69.4764 25.0207 67.9964 25.958C66.5164 26.846 65.6038 28.104 65.2584 29.732C65.1104 30.2253 64.8144 30.4473 64.3704 30.398L60.3744 29.88C59.8318 29.7813 59.6098 29.584 59.7084 29.288C60.1031 26.5253 61.5831 24.2807 64.1484 22.554C66.7138 20.8273 69.9204 19.964 73.7684 19.964ZM71.6964 54.078C74.6071 54.078 77.1231 53.3627 79.2444 51.932C81.3658 50.452 82.4264 48.4787 82.4264 46.012V40.24C82.4264 40.0427 82.3278 39.944 82.1304 39.944H74.3604C71.1044 39.944 68.4898 40.61 66.5164 41.942C64.5431 43.274 63.5564 45.124 63.5564 47.492C63.5564 49.6627 64.2964 51.3153 65.7764 52.45C67.3058 53.5353 69.2791 54.078 71.6964 54.078ZM115.122 24.182C115.122 24.6753 114.876 24.922 114.382 24.922H106.02C105.823 24.922 105.724 25.0207 105.724 25.218V47.048C105.724 49.416 106.242 51.0933 107.278 52.08C108.364 53.0173 110.041 53.486 112.31 53.486H114.16C114.654 53.486 114.9 53.7327 114.9 54.226V57.26C114.9 57.7533 114.654 58 114.16 58C113.568 58.0493 112.656 58.074 111.422 58.074C107.87 58.074 105.182 57.408 103.356 56.076C101.531 54.744 100.618 52.2773 100.618 48.676V25.218C100.618 25.0207 100.52 24.922 100.322 24.922H95.8083C95.315 24.922 95.0683 24.6753 95.0683 24.182V21.296C95.0683 20.8027 95.315 20.556 95.8083 20.556H100.322C100.52 20.556 100.618 20.4573 100.618 20.26V11.676C100.618 11.1827 100.865 10.936 101.358 10.936H104.984C105.478 10.936 105.724 11.1827 105.724 11.676V20.26C105.724 20.4573 105.823 20.556 106.02 20.556H114.382C114.876 20.556 115.122 20.8027 115.122 21.296V24.182ZM138.329 58.592C134.777 58.592 131.719 57.6793 129.153 55.854C126.637 53.9793 124.911 51.4633 123.973 48.306C123.332 46.1353 123.011 43.0767 123.011 39.13C123.011 35.578 123.332 32.5687 123.973 30.102C124.861 27.0433 126.588 24.6013 129.153 22.776C131.719 20.9013 134.777 19.964 138.329 19.964C141.931 19.964 145.039 20.8767 147.653 22.702C150.317 24.5273 152.044 26.7967 152.833 29.51C153.08 30.398 153.228 31.138 153.277 31.73V31.878C153.277 32.2233 153.055 32.4453 152.611 32.544L148.911 33.062H148.763C148.418 33.062 148.196 32.84 148.097 32.396L147.875 31.286C147.431 29.4113 146.346 27.8327 144.619 26.55C142.893 25.218 140.796 24.552 138.329 24.552C135.863 24.552 133.791 25.218 132.113 26.55C130.485 27.8327 129.425 29.5593 128.931 31.73C128.487 33.6047 128.265 36.096 128.265 39.204C128.265 42.46 128.487 44.976 128.931 46.752C129.425 48.972 130.485 50.748 132.113 52.08C133.791 53.3627 135.863 54.004 138.329 54.004C140.747 54.004 142.819 53.3873 144.545 52.154C146.321 50.8713 147.431 49.2433 147.875 47.27V46.974L147.949 46.678C147.999 46.1847 148.295 45.9873 148.837 46.086L152.463 46.678C152.957 46.7767 153.179 47.048 153.129 47.492L152.833 48.972C152.093 51.8333 150.391 54.152 147.727 55.928C145.063 57.704 141.931 58.592 138.329 58.592ZM178.181 20.038C182.127 20.038 185.26 21.1973 187.579 23.516C189.947 25.8347 191.131 28.9427 191.131 32.84V57.26C191.131 57.7533 190.884 58 190.391 58H186.617C186.123 58 185.877 57.7533 185.877 57.26V33.876C185.877 31.1627 185.038 28.9427 183.361 27.216C181.733 25.4893 179.611 24.626 176.997 24.626C174.283 24.626 172.088 25.4647 170.411 27.142C168.733 28.8193 167.895 31.0147 167.895 33.728V57.26C167.895 57.7533 167.648 58 167.155 58H163.381C162.887 58 162.641 57.7533 162.641 57.26V6.94C162.641 6.44666 162.887 6.2 163.381 6.2H167.155C167.648 6.2 167.895 6.44666 167.895 6.94V24.478C167.895 24.5767 167.919 24.6507 167.969 24.7C168.067 24.7493 168.141 24.7247 168.191 24.626C170.361 21.5673 173.691 20.038 178.181 20.038ZM233.33 58.592C227.755 58.592 223.34 57.334 220.084 54.818C216.877 52.302 215.274 48.9473 215.274 44.754V42.46C215.274 41.9667 215.52 41.72 216.014 41.72H219.64C220.133 41.72 220.38 41.9667 220.38 42.46V44.458C220.38 47.3193 221.564 49.638 223.932 51.414C226.3 53.1407 229.58 54.004 233.774 54.004C237.572 54.004 240.458 53.2147 242.432 51.636C244.405 50.008 245.392 47.862 245.392 45.198C245.392 43.4713 244.923 41.9913 243.986 40.758C243.098 39.5247 241.692 38.3653 239.768 37.28C237.893 36.1947 235.229 34.9367 231.776 33.506C228.076 32.026 225.19 30.7433 223.118 29.658C221.095 28.5233 219.442 27.0927 218.16 25.366C216.926 23.59 216.31 21.37 216.31 18.706C216.31 14.562 217.74 11.3553 220.602 9.086C223.512 6.76733 227.484 5.608 232.516 5.608C237.992 5.608 242.308 6.89067 245.466 9.456C248.623 12.0213 250.202 15.4253 250.202 19.668V21.296C250.202 21.7893 249.955 22.036 249.462 22.036H245.762C245.268 22.036 245.022 21.7893 245.022 21.296V19.964C245.022 17.1027 243.887 14.7593 241.618 12.934C239.398 11.1087 236.29 10.196 232.294 10.196C228.791 10.196 226.102 10.9113 224.228 12.342C222.353 13.7727 221.416 15.8447 221.416 18.558C221.416 20.334 221.86 21.814 222.748 22.998C223.685 24.1327 224.992 25.144 226.67 26.032C228.396 26.8707 231.036 27.9807 234.588 29.362C238.189 30.842 241.075 32.2233 243.246 33.506C245.466 34.7887 247.242 36.3673 248.574 38.242C249.955 40.0673 250.646 42.312 250.646 44.976C250.646 49.12 249.116 52.4253 246.058 54.892C242.999 57.3587 238.756 58.592 233.33 58.592ZM289.273 32.988C289.47 34.3693 289.569 36.096 289.569 38.168V40.536C289.569 41.0293 289.322 41.276 288.829 41.276H264.927C264.729 41.276 264.631 41.3747 264.631 41.572C264.729 44.2853 264.877 46.0367 265.075 46.826C265.617 49.046 266.777 50.7973 268.553 52.08C270.329 53.3627 272.598 54.004 275.361 54.004C277.433 54.004 279.258 53.5353 280.837 52.598C282.415 51.6607 283.649 50.3287 284.537 48.602C284.833 48.158 285.178 48.0593 285.573 48.306L288.459 50.008C288.853 50.2547 288.952 50.6 288.755 51.044C287.521 53.412 285.671 55.2867 283.205 56.668C280.738 58 277.901 58.666 274.695 58.666C271.192 58.6167 268.257 57.778 265.889 56.15C263.521 54.522 261.819 52.2527 260.783 49.342C259.895 46.974 259.451 43.57 259.451 39.13C259.451 37.058 259.475 35.3807 259.525 34.098C259.623 32.766 259.821 31.582 260.117 30.546C260.955 27.3393 262.633 24.774 265.149 22.85C267.714 20.926 270.797 19.964 274.399 19.964C278.888 19.964 282.341 21.0987 284.759 23.368C287.176 25.6373 288.681 28.844 289.273 32.988ZM274.399 24.552C271.981 24.552 269.959 25.1933 268.331 26.476C266.752 27.7093 265.716 29.3867 265.223 31.508C264.927 32.544 264.729 34.2213 264.631 36.54C264.631 36.7373 264.729 36.836 264.927 36.836H284.093C284.29 36.836 284.389 36.7373 284.389 36.54C284.29 34.32 284.142 32.7413 283.945 31.804C283.402 29.584 282.292 27.8327 280.615 26.55C278.987 25.218 276.915 24.552 274.399 24.552ZM316.31 24.182C316.31 24.6753 316.063 24.922 315.57 24.922H307.208C307.01 24.922 306.912 25.0207 306.912 25.218V47.048C306.912 49.416 307.43 51.0933 308.466 52.08C309.551 53.0173 311.228 53.486 313.498 53.486H315.348C315.841 53.486 316.088 53.7327 316.088 54.226V57.26C316.088 57.7533 315.841 58 315.348 58C314.756 58.0493 313.843 58.074 312.61 58.074C309.058 58.074 306.369 57.408 304.544 56.076C302.718 54.744 301.806 52.2773 301.806 48.676V25.218C301.806 25.0207 301.707 24.922 301.51 24.922H296.996C296.502 24.922 296.256 24.6753 296.256 24.182V21.296C296.256 20.8027 296.502 20.556 296.996 20.556H301.51C301.707 20.556 301.806 20.4573 301.806 20.26V11.676C301.806 11.1827 302.052 10.936 302.546 10.936H306.172C306.665 10.936 306.912 11.1827 306.912 11.676V20.26C306.912 20.4573 307.01 20.556 307.208 20.556H315.57C316.063 20.556 316.31 20.8027 316.31 21.296V24.182ZM343.265 24.182C343.265 24.6753 343.018 24.922 342.525 24.922H334.163C333.966 24.922 333.867 25.0207 333.867 25.218V47.048C333.867 49.416 334.385 51.0933 335.421 52.08C336.506 53.0173 338.184 53.486 340.453 53.486H342.303C342.796 53.486 343.043 53.7327 343.043 54.226V57.26C343.043 57.7533 342.796 58 342.303 58C341.711 58.0493 340.798 58.074 339.565 58.074C336.013 58.074 333.324 57.408 331.499 56.076C329.674 54.744 328.761 52.2773 328.761 48.676V25.218C328.761 25.0207 328.662 24.922 328.465 24.922H323.951C323.458 24.922 323.211 24.6753 323.211 24.182V21.296C323.211 20.8027 323.458 20.556 323.951 20.556H328.465C328.662 20.556 328.761 20.4573 328.761 20.26V11.676C328.761 11.1827 329.008 10.936 329.501 10.936H333.127C333.62 10.936 333.867 11.1827 333.867 11.676V20.26C333.867 20.4573 333.966 20.556 334.163 20.556H342.525C343.018 20.556 343.265 20.8027 343.265 21.296V24.182ZM356.974 13.748C355.79 13.748 354.803 13.3533 354.014 12.564C353.225 11.7747 352.83 10.788 352.83 9.604C352.83 8.37066 353.225 7.384 354.014 6.644C354.803 5.85466 355.79 5.46 356.974 5.46C358.158 5.46 359.145 5.85466 359.934 6.644C360.723 7.384 361.118 8.37066 361.118 9.604C361.118 10.788 360.723 11.7747 359.934 12.564C359.145 13.3533 358.158 13.748 356.974 13.748ZM354.902 57.926C354.409 57.926 354.162 57.6793 354.162 57.186V21.222C354.162 20.7287 354.409 20.482 354.902 20.482H358.676C359.169 20.482 359.416 20.7287 359.416 21.222V57.186C359.416 57.6793 359.169 57.926 358.676 57.926H354.902ZM387.823 20.038C391.77 20.038 394.903 21.1973 397.221 23.516C399.589 25.8347 400.773 28.9427 400.773 32.84V57.26C400.773 57.7533 400.527 58 400.033 58H396.259C395.766 58 395.519 57.7533 395.519 57.26V33.876C395.519 31.1627 394.681 28.9427 393.003 27.216C391.375 25.4893 389.254 24.626 386.639 24.626C383.926 24.626 381.731 25.4647 380.053 27.142C378.376 28.8193 377.537 31.0147 377.537 33.728V57.26C377.537 57.7533 377.291 58 376.797 58H373.023C372.53 58 372.283 57.7533 372.283 57.26V21.296C372.283 20.8027 372.53 20.556 373.023 20.556H376.797C377.291 20.556 377.537 20.8027 377.537 21.296V24.478C377.537 24.5767 377.562 24.6507 377.611 24.7C377.71 24.7493 377.784 24.7247 377.833 24.626C380.004 21.5673 383.334 20.038 387.823 20.038ZM435.262 21.296C435.262 20.8027 435.509 20.556 436.002 20.556H439.776C440.269 20.556 440.516 20.8027 440.516 21.296V56.742C440.516 62.2673 438.913 66.3127 435.706 68.878C432.549 71.4433 428.183 72.726 422.608 72.726C421.473 72.726 420.61 72.7013 420.018 72.652C419.525 72.6027 419.278 72.3313 419.278 71.838L419.426 68.434C419.426 68.1873 419.5 67.99 419.648 67.842C419.796 67.7433 419.969 67.7187 420.166 67.768L422.164 67.842C426.752 67.842 430.082 66.9293 432.154 65.104C434.226 63.328 435.262 60.4913 435.262 56.594V53.856C435.262 53.7573 435.213 53.708 435.114 53.708C435.065 53.6587 434.991 53.6833 434.892 53.782C432.623 56.742 429.391 58.222 425.198 58.222C421.991 58.222 419.13 57.3587 416.614 55.632C414.147 53.9053 412.495 51.4633 411.656 48.306C411.064 46.2833 410.768 43.274 410.768 39.278C410.768 37.1073 410.817 35.282 410.916 33.802C411.064 32.322 411.335 30.99 411.73 29.806C412.618 26.846 414.221 24.478 416.54 22.702C418.859 20.8767 421.646 19.964 424.902 19.964C429.293 19.964 432.623 21.4193 434.892 24.33C434.991 24.4287 435.065 24.4533 435.114 24.404C435.213 24.3547 435.262 24.2807 435.262 24.182V21.296ZM434.892 46.678C435.04 45.938 435.139 45.0253 435.188 43.94C435.237 42.8547 435.262 41.276 435.262 39.204C435.262 36.688 435.237 35.0107 435.188 34.172C435.139 33.284 435.015 32.47 434.818 31.73C434.423 29.658 433.437 27.956 431.858 26.624C430.329 25.2427 428.38 24.552 426.012 24.552C423.693 24.552 421.72 25.218 420.092 26.55C418.513 27.882 417.403 29.6087 416.762 31.73C416.269 33.3087 416.022 35.7753 416.022 39.13C416.022 42.7313 416.269 45.2227 416.762 46.604C417.255 48.676 418.316 50.4027 419.944 51.784C421.621 53.116 423.644 53.782 426.012 53.782C428.429 53.782 430.403 53.116 431.932 51.784C433.511 50.452 434.497 48.75 434.892 46.678ZM463.554 58.37C460.791 58.37 458.324 57.926 456.154 57.038C454.032 56.15 452.38 54.966 451.196 53.486C450.061 52.006 449.494 50.3533 449.494 48.528V47.64C449.494 47.1467 449.74 46.9 450.234 46.9H453.786C454.279 46.9 454.526 47.1467 454.526 47.64V48.232C454.526 49.86 455.364 51.2907 457.042 52.524C458.768 53.708 460.914 54.3 463.48 54.3C466.045 54.3 468.117 53.7327 469.696 52.598C471.274 51.414 472.064 49.934 472.064 48.158C472.064 46.9247 471.644 45.9133 470.806 45.124C470.016 44.3347 469.054 43.718 467.92 43.274C466.834 42.83 465.132 42.2627 462.814 41.572C460.051 40.7827 457.782 39.9933 456.006 39.204C454.23 38.4147 452.725 37.3293 451.492 35.948C450.308 34.5173 449.716 32.7167 449.716 30.546C449.716 27.3887 450.949 24.8727 453.416 22.998C455.882 21.1233 459.138 20.186 463.184 20.186C465.897 20.186 468.29 20.63 470.362 21.518C472.483 22.406 474.111 23.6393 475.246 25.218C476.38 26.7473 476.948 28.474 476.948 30.398V30.62C476.948 31.1133 476.701 31.36 476.208 31.36H472.73C472.236 31.36 471.99 31.1133 471.99 30.62V30.398C471.99 28.7207 471.176 27.3147 469.548 26.18C467.969 25.0453 465.823 24.478 463.11 24.478C460.594 24.478 458.571 24.996 457.042 26.032C455.512 27.0187 454.748 28.4 454.748 30.176C454.748 31.8533 455.488 33.136 456.968 34.024C458.448 34.912 460.742 35.8 463.85 36.688C466.711 37.5267 469.03 38.316 470.806 39.056C472.582 39.796 474.111 40.8813 475.394 42.312C476.676 43.6933 477.318 45.5187 477.318 47.788C477.318 50.9947 476.06 53.56 473.544 55.484C471.028 57.408 467.698 58.37 463.554 58.37Z"/>
</mask>
<path d="M42.552 6.718C42.7987 6.37266 43.0947 6.2 43.44 6.2H47.288C47.7813 6.2 48.028 6.44666 48.028 6.94V57.26C48.028 57.7533 47.7813 58 47.288 58H43.514C43.0207 58 42.774 57.7533 42.774 57.26V16.116C42.774 15.968 42.7247 15.8693 42.626 15.82C42.5273 15.7707 42.4533 15.82 42.404 15.968L30.342 34.468C30.0953 34.8133 29.7993 34.986 29.454 34.986H27.53C27.1847 34.986 26.8887 34.838 26.642 34.542L14.58 16.19C14.5307 16.042 14.4567 15.9927 14.358 16.042C14.2593 16.0913 14.21 16.19 14.21 16.338V57.26C14.21 57.7533 13.9633 58 13.47 58H9.696C9.20267 58 8.956 57.7533 8.956 57.26V6.94C8.956 6.44666 9.20267 6.2 9.696 6.2H13.544C13.9387 6.2 14.2347 6.348 14.432 6.644L28.344 27.734C28.3933 27.7833 28.4673 27.808 28.566 27.808C28.6647 27.808 28.7387 27.7833 28.788 27.734L42.552 6.718ZM73.7684 19.964C78.2084 19.964 81.6371 21.0987 84.0544 23.368C86.4718 25.6373 87.6804 28.6467 87.6804 32.396V57.26C87.6804 57.7533 87.4338 58 86.9404 58H83.1664C82.6731 58 82.4264 57.7533 82.4264 57.26V54.226C82.4264 54.1273 82.3771 54.0533 82.2784 54.004C82.2291 53.9547 82.1551 53.9793 82.0564 54.078C80.8231 55.558 79.2198 56.6927 77.2464 57.482C75.2731 58.222 73.0778 58.592 70.6604 58.592C67.1578 58.592 64.2224 57.704 61.8544 55.928C59.4864 54.152 58.3024 51.4387 58.3024 47.788C58.3024 44.088 59.6344 41.1773 62.2984 39.056C65.0118 36.8853 68.7611 35.8 73.5464 35.8H82.1304C82.3278 35.8 82.4264 35.7013 82.4264 35.504V32.692C82.4264 30.176 81.7111 28.2027 80.2804 26.772C78.8991 25.292 76.7284 24.552 73.7684 24.552C71.4004 24.552 69.4764 25.0207 67.9964 25.958C66.5164 26.846 65.6038 28.104 65.2584 29.732C65.1104 30.2253 64.8144 30.4473 64.3704 30.398L60.3744 29.88C59.8318 29.7813 59.6098 29.584 59.7084 29.288C60.1031 26.5253 61.5831 24.2807 64.1484 22.554C66.7138 20.8273 69.9204 19.964 73.7684 19.964ZM71.6964 54.078C74.6071 54.078 77.1231 53.3627 79.2444 51.932C81.3658 50.452 82.4264 48.4787 82.4264 46.012V40.24C82.4264 40.0427 82.3278 39.944 82.1304 39.944H74.3604C71.1044 39.944 68.4898 40.61 66.5164 41.942C64.5431 43.274 63.5564 45.124 63.5564 47.492C63.5564 49.6627 64.2964 51.3153 65.7764 52.45C67.3058 53.5353 69.2791 54.078 71.6964 54.078ZM115.122 24.182C115.122 24.6753 114.876 24.922 114.382 24.922H106.02C105.823 24.922 105.724 25.0207 105.724 25.218V47.048C105.724 49.416 106.242 51.0933 107.278 52.08C108.364 53.0173 110.041 53.486 112.31 53.486H114.16C114.654 53.486 114.9 53.7327 114.9 54.226V57.26C114.9 57.7533 114.654 58 114.16 58C113.568 58.0493 112.656 58.074 111.422 58.074C107.87 58.074 105.182 57.408 103.356 56.076C101.531 54.744 100.618 52.2773 100.618 48.676V25.218C100.618 25.0207 100.52 24.922 100.322 24.922H95.8083C95.315 24.922 95.0683 24.6753 95.0683 24.182V21.296C95.0683 20.8027 95.315 20.556 95.8083 20.556H100.322C100.52 20.556 100.618 20.4573 100.618 20.26V11.676C100.618 11.1827 100.865 10.936 101.358 10.936H104.984C105.478 10.936 105.724 11.1827 105.724 11.676V20.26C105.724 20.4573 105.823 20.556 106.02 20.556H114.382C114.876 20.556 115.122 20.8027 115.122 21.296V24.182ZM138.329 58.592C134.777 58.592 131.719 57.6793 129.153 55.854C126.637 53.9793 124.911 51.4633 123.973 48.306C123.332 46.1353 123.011 43.0767 123.011 39.13C123.011 35.578 123.332 32.5687 123.973 30.102C124.861 27.0433 126.588 24.6013 129.153 22.776C131.719 20.9013 134.777 19.964 138.329 19.964C141.931 19.964 145.039 20.8767 147.653 22.702C150.317 24.5273 152.044 26.7967 152.833 29.51C153.08 30.398 153.228 31.138 153.277 31.73V31.878C153.277 32.2233 153.055 32.4453 152.611 32.544L148.911 33.062H148.763C148.418 33.062 148.196 32.84 148.097 32.396L147.875 31.286C147.431 29.4113 146.346 27.8327 144.619 26.55C142.893 25.218 140.796 24.552 138.329 24.552C135.863 24.552 133.791 25.218 132.113 26.55C130.485 27.8327 129.425 29.5593 128.931 31.73C128.487 33.6047 128.265 36.096 128.265 39.204C128.265 42.46 128.487 44.976 128.931 46.752C129.425 48.972 130.485 50.748 132.113 52.08C133.791 53.3627 135.863 54.004 138.329 54.004C140.747 54.004 142.819 53.3873 144.545 52.154C146.321 50.8713 147.431 49.2433 147.875 47.27V46.974L147.949 46.678C147.999 46.1847 148.295 45.9873 148.837 46.086L152.463 46.678C152.957 46.7767 153.179 47.048 153.129 47.492L152.833 48.972C152.093 51.8333 150.391 54.152 147.727 55.928C145.063 57.704 141.931 58.592 138.329 58.592ZM178.181 20.038C182.127 20.038 185.26 21.1973 187.579 23.516C189.947 25.8347 191.131 28.9427 191.131 32.84V57.26C191.131 57.7533 190.884 58 190.391 58H186.617C186.123 58 185.877 57.7533 185.877 57.26V33.876C185.877 31.1627 185.038 28.9427 183.361 27.216C181.733 25.4893 179.611 24.626 176.997 24.626C174.283 24.626 172.088 25.4647 170.411 27.142C168.733 28.8193 167.895 31.0147 167.895 33.728V57.26C167.895 57.7533 167.648 58 167.155 58H163.381C162.887 58 162.641 57.7533 162.641 57.26V6.94C162.641 6.44666 162.887 6.2 163.381 6.2H167.155C167.648 6.2 167.895 6.44666 167.895 6.94V24.478C167.895 24.5767 167.919 24.6507 167.969 24.7C168.067 24.7493 168.141 24.7247 168.191 24.626C170.361 21.5673 173.691 20.038 178.181 20.038ZM233.33 58.592C227.755 58.592 223.34 57.334 220.084 54.818C216.877 52.302 215.274 48.9473 215.274 44.754V42.46C215.274 41.9667 215.52 41.72 216.014 41.72H219.64C220.133 41.72 220.38 41.9667 220.38 42.46V44.458C220.38 47.3193 221.564 49.638 223.932 51.414C226.3 53.1407 229.58 54.004 233.774 54.004C237.572 54.004 240.458 53.2147 242.432 51.636C244.405 50.008 245.392 47.862 245.392 45.198C245.392 43.4713 244.923 41.9913 243.986 40.758C243.098 39.5247 241.692 38.3653 239.768 37.28C237.893 36.1947 235.229 34.9367 231.776 33.506C228.076 32.026 225.19 30.7433 223.118 29.658C221.095 28.5233 219.442 27.0927 218.16 25.366C216.926 23.59 216.31 21.37 216.31 18.706C216.31 14.562 217.74 11.3553 220.602 9.086C223.512 6.76733 227.484 5.608 232.516 5.608C237.992 5.608 242.308 6.89067 245.466 9.456C248.623 12.0213 250.202 15.4253 250.202 19.668V21.296C250.202 21.7893 249.955 22.036 249.462 22.036H245.762C245.268 22.036 245.022 21.7893 245.022 21.296V19.964C245.022 17.1027 243.887 14.7593 241.618 12.934C239.398 11.1087 236.29 10.196 232.294 10.196C228.791 10.196 226.102 10.9113 224.228 12.342C222.353 13.7727 221.416 15.8447 221.416 18.558C221.416 20.334 221.86 21.814 222.748 22.998C223.685 24.1327 224.992 25.144 226.67 26.032C228.396 26.8707 231.036 27.9807 234.588 29.362C238.189 30.842 241.075 32.2233 243.246 33.506C245.466 34.7887 247.242 36.3673 248.574 38.242C249.955 40.0673 250.646 42.312 250.646 44.976C250.646 49.12 249.116 52.4253 246.058 54.892C242.999 57.3587 238.756 58.592 233.33 58.592ZM289.273 32.988C289.47 34.3693 289.569 36.096 289.569 38.168V40.536C289.569 41.0293 289.322 41.276 288.829 41.276H264.927C264.729 41.276 264.631 41.3747 264.631 41.572C264.729 44.2853 264.877 46.0367 265.075 46.826C265.617 49.046 266.777 50.7973 268.553 52.08C270.329 53.3627 272.598 54.004 275.361 54.004C277.433 54.004 279.258 53.5353 280.837 52.598C282.415 51.6607 283.649 50.3287 284.537 48.602C284.833 48.158 285.178 48.0593 285.573 48.306L288.459 50.008C288.853 50.2547 288.952 50.6 288.755 51.044C287.521 53.412 285.671 55.2867 283.205 56.668C280.738 58 277.901 58.666 274.695 58.666C271.192 58.6167 268.257 57.778 265.889 56.15C263.521 54.522 261.819 52.2527 260.783 49.342C259.895 46.974 259.451 43.57 259.451 39.13C259.451 37.058 259.475 35.3807 259.525 34.098C259.623 32.766 259.821 31.582 260.117 30.546C260.955 27.3393 262.633 24.774 265.149 22.85C267.714 20.926 270.797 19.964 274.399 19.964C278.888 19.964 282.341 21.0987 284.759 23.368C287.176 25.6373 288.681 28.844 289.273 32.988ZM274.399 24.552C271.981 24.552 269.959 25.1933 268.331 26.476C266.752 27.7093 265.716 29.3867 265.223 31.508C264.927 32.544 264.729 34.2213 264.631 36.54C264.631 36.7373 264.729 36.836 264.927 36.836H284.093C284.29 36.836 284.389 36.7373 284.389 36.54C284.29 34.32 284.142 32.7413 283.945 31.804C283.402 29.584 282.292 27.8327 280.615 26.55C278.987 25.218 276.915 24.552 274.399 24.552ZM316.31 24.182C316.31 24.6753 316.063 24.922 315.57 24.922H307.208C307.01 24.922 306.912 25.0207 306.912 25.218V47.048C306.912 49.416 307.43 51.0933 308.466 52.08C309.551 53.0173 311.228 53.486 313.498 53.486H315.348C315.841 53.486 316.088 53.7327 316.088 54.226V57.26C316.088 57.7533 315.841 58 315.348 58C314.756 58.0493 313.843 58.074 312.61 58.074C309.058 58.074 306.369 57.408 304.544 56.076C302.718 54.744 301.806 52.2773 301.806 48.676V25.218C301.806 25.0207 301.707 24.922 301.51 24.922H296.996C296.502 24.922 296.256 24.6753 296.256 24.182V21.296C296.256 20.8027 296.502 20.556 296.996 20.556H301.51C301.707 20.556 301.806 20.4573 301.806 20.26V11.676C301.806 11.1827 302.052 10.936 302.546 10.936H306.172C306.665 10.936 306.912 11.1827 306.912 11.676V20.26C306.912 20.4573 307.01 20.556 307.208 20.556H315.57C316.063 20.556 316.31 20.8027 316.31 21.296V24.182ZM343.265 24.182C343.265 24.6753 343.018 24.922 342.525 24.922H334.163C333.966 24.922 333.867 25.0207 333.867 25.218V47.048C333.867 49.416 334.385 51.0933 335.421 52.08C336.506 53.0173 338.184 53.486 340.453 53.486H342.303C342.796 53.486 343.043 53.7327 343.043 54.226V57.26C343.043 57.7533 342.796 58 342.303 58C341.711 58.0493 340.798 58.074 339.565 58.074C336.013 58.074 333.324 57.408 331.499 56.076C329.674 54.744 328.761 52.2773 328.761 48.676V25.218C328.761 25.0207 328.662 24.922 328.465 24.922H323.951C323.458 24.922 323.211 24.6753 323.211 24.182V21.296C323.211 20.8027 323.458 20.556 323.951 20.556H328.465C328.662 20.556 328.761 20.4573 328.761 20.26V11.676C328.761 11.1827 329.008 10.936 329.501 10.936H333.127C333.62 10.936 333.867 11.1827 333.867 11.676V20.26C333.867 20.4573 333.966 20.556 334.163 20.556H342.525C343.018 20.556 343.265 20.8027 343.265 21.296V24.182ZM356.974 13.748C355.79 13.748 354.803 13.3533 354.014 12.564C353.225 11.7747 352.83 10.788 352.83 9.604C352.83 8.37066 353.225 7.384 354.014 6.644C354.803 5.85466 355.79 5.46 356.974 5.46C358.158 5.46 359.145 5.85466 359.934 6.644C360.723 7.384 361.118 8.37066 361.118 9.604C361.118 10.788 360.723 11.7747 359.934 12.564C359.145 13.3533 358.158 13.748 356.974 13.748ZM354.902 57.926C354.409 57.926 354.162 57.6793 354.162 57.186V21.222C354.162 20.7287 354.409 20.482 354.902 20.482H358.676C359.169 20.482 359.416 20.7287 359.416 21.222V57.186C359.416 57.6793 359.169 57.926 358.676 57.926H354.902ZM387.823 20.038C391.77 20.038 394.903 21.1973 397.221 23.516C399.589 25.8347 400.773 28.9427 400.773 32.84V57.26C400.773 57.7533 400.527 58 400.033 58H396.259C395.766 58 395.519 57.7533 395.519 57.26V33.876C395.519 31.1627 394.681 28.9427 393.003 27.216C391.375 25.4893 389.254 24.626 386.639 24.626C383.926 24.626 381.731 25.4647 380.053 27.142C378.376 28.8193 377.537 31.0147 377.537 33.728V57.26C377.537 57.7533 377.291 58 376.797 58H373.023C372.53 58 372.283 57.7533 372.283 57.26V21.296C372.283 20.8027 372.53 20.556 373.023 20.556H376.797C377.291 20.556 377.537 20.8027 377.537 21.296V24.478C377.537 24.5767 377.562 24.6507 377.611 24.7C377.71 24.7493 377.784 24.7247 377.833 24.626C380.004 21.5673 383.334 20.038 387.823 20.038ZM435.262 21.296C435.262 20.8027 435.509 20.556 436.002 20.556H439.776C440.269 20.556 440.516 20.8027 440.516 21.296V56.742C440.516 62.2673 438.913 66.3127 435.706 68.878C432.549 71.4433 428.183 72.726 422.608 72.726C421.473 72.726 420.61 72.7013 420.018 72.652C419.525 72.6027 419.278 72.3313 419.278 71.838L419.426 68.434C419.426 68.1873 419.5 67.99 419.648 67.842C419.796 67.7433 419.969 67.7187 420.166 67.768L422.164 67.842C426.752 67.842 430.082 66.9293 432.154 65.104C434.226 63.328 435.262 60.4913 435.262 56.594V53.856C435.262 53.7573 435.213 53.708 435.114 53.708C435.065 53.6587 434.991 53.6833 434.892 53.782C432.623 56.742 429.391 58.222 425.198 58.222C421.991 58.222 419.13 57.3587 416.614 55.632C414.147 53.9053 412.495 51.4633 411.656 48.306C411.064 46.2833 410.768 43.274 410.768 39.278C410.768 37.1073 410.817 35.282 410.916 33.802C411.064 32.322 411.335 30.99 411.73 29.806C412.618 26.846 414.221 24.478 416.54 22.702C418.859 20.8767 421.646 19.964 424.902 19.964C429.293 19.964 432.623 21.4193 434.892 24.33C434.991 24.4287 435.065 24.4533 435.114 24.404C435.213 24.3547 435.262 24.2807 435.262 24.182V21.296ZM434.892 46.678C435.04 45.938 435.139 45.0253 435.188 43.94C435.237 42.8547 435.262 41.276 435.262 39.204C435.262 36.688 435.237 35.0107 435.188 34.172C435.139 33.284 435.015 32.47 434.818 31.73C434.423 29.658 433.437 27.956 431.858 26.624C430.329 25.2427 428.38 24.552 426.012 24.552C423.693 24.552 421.72 25.218 420.092 26.55C418.513 27.882 417.403 29.6087 416.762 31.73C416.269 33.3087 416.022 35.7753 416.022 39.13C416.022 42.7313 416.269 45.2227 416.762 46.604C417.255 48.676 418.316 50.4027 419.944 51.784C421.621 53.116 423.644 53.782 426.012 53.782C428.429 53.782 430.403 53.116 431.932 51.784C433.511 50.452 434.497 48.75 434.892 46.678ZM463.554 58.37C460.791 58.37 458.324 57.926 456.154 57.038C454.032 56.15 452.38 54.966 451.196 53.486C450.061 52.006 449.494 50.3533 449.494 48.528V47.64C449.494 47.1467 449.74 46.9 450.234 46.9H453.786C454.279 46.9 454.526 47.1467 454.526 47.64V48.232C454.526 49.86 455.364 51.2907 457.042 52.524C458.768 53.708 460.914 54.3 463.48 54.3C466.045 54.3 468.117 53.7327 469.696 52.598C471.274 51.414 472.064 49.934 472.064 48.158C472.064 46.9247 471.644 45.9133 470.806 45.124C470.016 44.3347 469.054 43.718 467.92 43.274C466.834 42.83 465.132 42.2627 462.814 41.572C460.051 40.7827 457.782 39.9933 456.006 39.204C454.23 38.4147 452.725 37.3293 451.492 35.948C450.308 34.5173 449.716 32.7167 449.716 30.546C449.716 27.3887 450.949 24.8727 453.416 22.998C455.882 21.1233 459.138 20.186 463.184 20.186C465.897 20.186 468.29 20.63 470.362 21.518C472.483 22.406 474.111 23.6393 475.246 25.218C476.38 26.7473 476.948 28.474 476.948 30.398V30.62C476.948 31.1133 476.701 31.36 476.208 31.36H472.73C472.236 31.36 471.99 31.1133 471.99 30.62V30.398C471.99 28.7207 471.176 27.3147 469.548 26.18C467.969 25.0453 465.823 24.478 463.11 24.478C460.594 24.478 458.571 24.996 457.042 26.032C455.512 27.0187 454.748 28.4 454.748 30.176C454.748 31.8533 455.488 33.136 456.968 34.024C458.448 34.912 460.742 35.8 463.85 36.688C466.711 37.5267 469.03 38.316 470.806 39.056C472.582 39.796 474.111 40.8813 475.394 42.312C476.676 43.6933 477.318 45.5187 477.318 47.788C477.318 50.9947 476.06 53.56 473.544 55.484C471.028 57.408 467.698 58.37 463.554 58.37Z" fill="url(#paint0_linear_133_63900)"/>
<path d="M42.552 6.718L39.2971 4.39305L39.2501 4.45884L39.2058 4.52646L42.552 6.718ZM42.626 15.82L44.4149 12.2423L44.4149 12.2423L42.626 15.82ZM42.404 15.968L45.7547 18.1527L46.0359 17.7214L46.1987 17.233L42.404 15.968ZM30.342 34.468L33.5969 36.793L33.6463 36.7238L33.6927 36.6527L30.342 34.468ZM26.642 34.542L23.2994 36.739L23.4239 36.9285L23.5691 37.1027L26.642 34.542ZM14.58 16.19L10.7853 17.4549L10.9504 17.9505L11.2374 18.387L14.58 16.19ZM14.432 6.644L17.771 4.44145L17.7656 4.43331L17.7602 4.42521L14.432 6.644ZM28.344 27.734L25.005 29.9366L25.2286 30.2754L25.5156 30.5625L28.344 27.734ZM28.788 27.734L31.6164 30.5624L31.9082 30.2707L32.1342 29.9255L28.788 27.734ZM45.8069 9.04294C45.6779 9.22361 45.4167 9.52663 44.9745 9.78461C44.5058 10.058 43.9698 10.2 43.44 10.2V2.2C41.5025 2.2 40.1011 3.26735 39.2971 4.39305L45.8069 9.04294ZM43.44 10.2H47.288V2.2H43.44V10.2ZM47.288 10.2C46.9181 10.2 45.906 10.1048 45.0146 9.21342C44.1232 8.32204 44.028 7.30991 44.028 6.94H52.028C52.028 6.07675 51.8095 4.69462 50.6714 3.55657C49.5334 2.41852 48.1512 2.2 47.288 2.2V10.2ZM44.028 6.94V57.26H52.028V6.94H44.028ZM44.028 57.26C44.028 56.8901 44.1232 55.878 45.0146 54.9866C45.906 54.0952 46.9181 54 47.288 54V62C48.1513 62 49.5334 61.7815 50.6714 60.6434C51.8095 59.5054 52.028 58.1232 52.028 57.26H44.028ZM47.288 54H43.514V62H47.288V54ZM43.514 54C43.8839 54 44.896 54.0952 45.7874 54.9866C46.6788 55.878 46.774 56.8901 46.774 57.26H38.774C38.774 58.1233 38.9925 59.5054 40.1306 60.6434C41.2686 61.7815 42.6508 62 43.514 62V54ZM46.774 57.26V16.116H38.774V57.26H46.774ZM46.774 16.116C46.774 15.0569 46.3356 13.2027 44.4149 12.2423L40.8371 19.3977C40.1123 19.0353 39.5217 18.4446 39.1593 17.7198C38.828 17.0573 38.774 16.4606 38.774 16.116H46.774ZM44.4149 12.2423C43.4427 11.7562 41.8107 11.4698 40.2777 12.4918C39.1217 13.2625 38.7257 14.3539 38.6093 14.703L46.1987 17.233C46.1317 17.4341 45.7973 18.4269 44.7153 19.1482C44.0978 19.5599 43.3497 19.8015 42.5567 19.8015C41.8092 19.8015 41.2183 19.5883 40.8371 19.3977L44.4149 12.2423ZM39.0533 13.7833L26.9913 32.2833L33.6927 36.6527L45.7547 18.1527L39.0533 13.7833ZM27.0871 32.143C27.2161 31.9624 27.4773 31.6594 27.9195 31.4014C28.3882 31.128 28.9242 30.986 29.454 30.986V38.986C31.3915 38.986 32.7929 37.9187 33.5969 36.793L27.0871 32.143ZM29.454 30.986H27.53V38.986H29.454V30.986ZM27.53 30.986C27.9505 30.986 28.4061 31.0814 28.8378 31.2973C29.2579 31.5073 29.5424 31.7743 29.7149 31.9813L23.5691 37.1027C24.4765 38.1916 25.8508 38.986 27.53 38.986V30.986ZM29.9846 32.345L17.9226 13.993L11.2374 18.387L23.2994 36.739L29.9846 32.345ZM18.3747 14.9251C18.2584 14.5759 17.8623 13.4845 16.7063 12.7138C15.1733 11.6918 13.5413 11.9782 12.5692 12.4643L16.1468 19.6197C15.7657 19.8103 15.1748 20.0235 14.4273 20.0235C13.6343 20.0235 12.8862 19.7819 12.2687 19.3702C11.1867 18.6488 10.8523 17.6561 10.7853 17.4549L18.3747 14.9251ZM12.5692 12.4643C10.6484 13.4247 10.21 15.279 10.21 16.338H18.21C18.21 16.6826 18.156 17.2794 17.8247 17.9419C17.4623 18.6666 16.8716 19.2573 16.1468 19.6197L12.5692 12.4643ZM10.21 16.338V57.26H18.21V16.338H10.21ZM10.21 57.26C10.21 56.8901 10.3052 55.878 11.1966 54.9866C12.088 54.0952 13.1001 54 13.47 54V62C14.3332 62 15.7154 61.7815 16.8534 60.6434C17.9915 59.5054 18.21 58.1232 18.21 57.26H10.21ZM13.47 54H9.696V62H13.47V54ZM9.696 54C10.0659 54 11.078 54.0952 11.9694 54.9866C12.8608 55.878 12.956 56.8901 12.956 57.26H4.956C4.956 58.1232 5.17452 59.5054 6.31257 60.6434C7.45063 61.7815 8.83275 62 9.696 62V54ZM12.956 57.26V6.94H4.956V57.26H12.956ZM12.956 6.94C12.956 7.30991 12.8608 8.32204 11.9694 9.21342C11.078 10.1048 10.0659 10.2 9.696 10.2V2.2C8.83276 2.2 7.45063 2.41852 6.31257 3.55657C5.17452 4.69462 4.956 6.07675 4.956 6.94H12.956ZM9.696 10.2H13.544V2.2H9.696V10.2ZM13.544 10.2C13.2389 10.2 12.7777 10.141 12.2731 9.8887C11.752 9.62814 11.3614 9.24914 11.1038 8.86279L17.7602 4.42521C16.7303 2.88038 15.1039 2.2 13.544 2.2V10.2ZM11.093 8.84655L25.005 29.9366L31.683 25.5314L17.771 4.44145L11.093 8.84655ZM25.5156 30.5625C26.5797 31.6265 27.8508 31.808 28.566 31.808V23.808C29.0839 23.808 30.207 23.9402 31.1724 24.9055L25.5156 30.5625ZM28.566 31.808C29.2812 31.808 30.5524 31.6265 31.6164 30.5624L25.9596 24.9056C26.925 23.9402 28.0481 23.808 28.566 23.808V31.808ZM32.1342 29.9255L45.8982 8.90954L39.2058 4.52646L25.4418 25.5425L32.1342 29.9255ZM84.0544 23.368L86.7922 20.4517L86.7922 20.4517L84.0544 23.368ZM82.2784 54.004L79.45 56.8324L79.909 57.2914L80.4896 57.5817L82.2784 54.004ZM82.0564 54.078L79.228 51.2496L79.0997 51.3779L78.9836 51.5173L82.0564 54.078ZM77.2464 57.482L78.6509 61.2273L78.6916 61.2121L78.732 61.1959L77.2464 57.482ZM61.8544 55.928L59.4544 59.128L61.8544 55.928ZM62.2984 39.056L64.7902 42.1851L64.7972 42.1795L62.2984 39.056ZM80.2804 26.772L77.3562 29.5013L77.4033 29.5517L77.452 29.6004L80.2804 26.772ZM67.9964 25.958L70.0544 29.388L70.0958 29.3631L70.1366 29.3373L67.9964 25.958ZM65.2584 29.732L69.0897 30.8814L69.1371 30.7234L69.1714 30.562L65.2584 29.732ZM64.3704 30.398L63.8562 34.3648L63.8924 34.3695L63.9287 34.3735L64.3704 30.398ZM60.3744 29.88L59.6589 33.8155L59.7592 33.8337L59.8602 33.8468L60.3744 29.88ZM59.7084 29.288L63.5032 30.5529L63.6172 30.2107L63.6682 29.8537L59.7084 29.288ZM64.1484 22.554L61.9149 19.2356L61.9149 19.2356L64.1484 22.554ZM79.2444 51.932L81.481 55.2483L81.5072 55.2306L81.5332 55.2125L79.2444 51.932ZM66.5164 41.942L68.7543 45.2574L68.7543 45.2574L66.5164 41.942ZM65.7764 52.45L63.3427 55.6244L63.4013 55.6693L63.4614 55.712L65.7764 52.45ZM73.7684 23.964C77.5437 23.964 79.8632 24.9198 81.3167 26.2843L86.7922 20.4517C83.411 17.2775 78.8732 15.964 73.7684 15.964V23.964ZM81.3167 26.2843C82.8195 27.6951 83.6804 29.5923 83.6804 32.396H91.6804C91.6804 27.7011 90.124 23.5795 86.7922 20.4517L81.3167 26.2843ZM83.6804 32.396V57.26H91.6804V32.396H83.6804ZM83.6804 57.26C83.6804 56.8901 83.7756 55.878 84.667 54.9866C85.5584 54.0952 86.5705 54 86.9404 54V62C87.8037 62 89.1858 61.7815 90.3239 60.6434C91.4619 59.5054 91.6804 58.1232 91.6804 57.26H83.6804ZM86.9404 54H83.1664V62H86.9404V54ZM83.1664 54C83.5363 54 84.5485 54.0952 85.4399 54.9866C86.3313 55.878 86.4264 56.8901 86.4264 57.26H78.4264C78.4264 58.1232 78.645 59.5054 79.783 60.6434C80.9211 61.7815 82.3032 62 83.1664 62V54ZM86.4264 57.26V54.226H78.4264V57.26H86.4264ZM86.4264 54.226C86.4264 53.4767 86.2276 52.6427 85.7176 51.8777C85.2243 51.1378 84.5911 50.6882 84.0673 50.4263L80.4896 57.5817C80.0644 57.3691 79.5052 56.9812 79.0612 56.3153C78.6006 55.6243 78.4264 54.8766 78.4264 54.226H86.4264ZM85.1069 51.1756C84.5996 50.6683 83.8946 50.2332 83.0213 50.0586C82.1774 49.8898 81.4428 50.0168 80.921 50.1908C79.9975 50.4986 79.4218 51.0558 79.228 51.2496L84.8849 56.9064C84.7897 57.0016 84.3004 57.497 83.4509 57.7802C82.966 57.9418 82.2654 58.0658 81.4523 57.9032C80.6098 57.7347 79.9326 57.315 79.45 56.8324L85.1069 51.1756ZM78.9836 51.5173C78.218 52.4359 77.1825 53.1994 75.7609 53.7681L78.732 61.1959C81.257 60.1859 83.4282 58.6801 85.1293 56.6387L78.9836 51.5173ZM75.8419 53.7367C74.3786 54.2854 72.6677 54.592 70.6604 54.592V62.592C73.4878 62.592 76.1676 62.1586 78.6509 61.2273L75.8419 53.7367ZM70.6604 54.592C67.8594 54.592 65.8095 53.8943 64.2544 52.728L59.4544 59.128C62.6354 61.5137 66.4562 62.592 70.6604 62.592V54.592ZM64.2544 52.728C63.1295 51.8843 62.3024 50.5069 62.3024 47.788H54.3024C54.3024 52.3704 55.8434 56.4197 59.4544 59.128L64.2544 52.728ZM62.3024 47.788C62.3024 45.1856 63.1698 43.4754 64.7901 42.1851L59.8067 35.9269C56.0991 38.8793 54.3024 42.9904 54.3024 47.788H62.3024ZM64.7972 42.1795C66.5755 40.7569 69.3304 39.8 73.5464 39.8V31.8C68.1918 31.8 63.4481 33.0138 59.7997 35.9325L64.7972 42.1795ZM73.5464 39.8H82.1304V31.8H73.5464V39.8ZM82.1304 39.8C82.8457 39.8 84.1168 39.6185 85.1809 38.5544C86.2449 37.4904 86.4264 36.2192 86.4264 35.504H78.4264C78.4264 34.9861 78.5586 33.863 79.524 32.8976C80.4894 31.9322 81.6125 31.8 82.1304 31.8V39.8ZM86.4264 35.504V32.692H78.4264V35.504H86.4264ZM86.4264 32.692C86.4264 29.3885 85.4631 26.2978 83.1089 23.9436L77.452 29.6004C77.9591 30.1075 78.4264 30.9635 78.4264 32.692H86.4264ZM83.2047 24.0427C80.7745 21.439 77.3202 20.552 73.7684 20.552V28.552C76.1367 28.552 77.0237 29.145 77.3562 29.5013L83.2047 24.0427ZM73.7684 20.552C70.9013 20.552 68.1645 21.1168 65.8562 22.5787L70.1366 29.3373C70.7883 28.9245 71.8996 28.552 73.7684 28.552V20.552ZM65.9385 22.528C63.5459 23.9636 61.9308 26.1427 61.3455 28.902L69.1714 30.562C69.2767 30.0653 69.487 29.7284 70.0544 29.388L65.9385 22.528ZM61.4271 28.5826C61.5048 28.3237 61.7673 27.6371 62.5254 27.0685C63.3542 26.447 64.2447 26.3594 64.8122 26.4225L63.9287 34.3735C64.9402 34.4859 66.2007 34.312 67.3254 33.4685C68.3795 32.6779 68.8641 31.6336 69.0897 30.8814L61.4271 28.5826ZM64.8847 26.4312L60.8887 25.9132L59.8602 33.8468L63.8562 34.3648L64.8847 26.4312ZM61.09 25.9445C61.1239 25.9507 61.2666 25.9779 61.4715 26.0572C61.664 26.1317 62.0494 26.3048 62.4584 26.6684C62.9007 27.0615 63.3642 27.6774 63.5751 28.5214C63.7822 29.3495 63.6643 30.0696 63.5032 30.5529L55.9137 28.0231C55.7033 28.6544 55.5761 29.5101 55.814 30.4616C56.0558 31.4289 56.5902 32.1558 57.1435 32.6476C58.0978 33.496 59.1909 33.7304 59.6589 33.8155L61.09 25.9445ZM63.6682 29.8537C63.8845 28.3397 64.6425 27.0432 66.3819 25.8723L61.9149 19.2356C58.5238 21.5182 56.3217 24.7109 55.7486 28.7223L63.6682 29.8537ZM66.3819 25.8723C68.1419 24.6878 70.5209 23.964 73.7684 23.964V15.964C69.32 15.964 65.2857 16.9669 61.9149 19.2356L66.3819 25.8723ZM71.6964 58.078C75.2909 58.078 78.6109 57.1839 81.481 55.2483L77.0079 48.6157C75.6353 49.5414 73.9233 50.078 71.6964 50.078V58.078ZM81.5332 55.2125C84.665 53.0275 86.4264 49.8597 86.4264 46.012H78.4264C78.4264 47.0976 78.0666 47.8765 76.9557 48.6515L81.5332 55.2125ZM86.4264 46.012V40.24H78.4264V46.012H86.4264ZM86.4264 40.24C86.4264 39.5248 86.2449 38.2536 85.1809 37.1896C84.1168 36.1255 82.8457 35.944 82.1304 35.944V43.944C81.6125 43.944 80.4894 43.8118 79.524 42.8464C78.5586 41.881 78.4264 40.7579 78.4264 40.24H86.4264ZM82.1304 35.944H74.3604V43.944H82.1304V35.944ZM74.3604 35.944C70.592 35.944 67.1152 36.7119 64.2785 38.6266L68.7543 45.2574C69.8643 44.5081 71.6168 43.944 74.3604 43.944V35.944ZM64.2785 38.6266C61.2106 40.6974 59.5564 43.7861 59.5564 47.492H67.5564C67.5564 46.4619 67.8756 45.8506 68.7543 45.2574L64.2785 38.6266ZM59.5564 47.492C59.5564 50.6762 60.7057 53.6027 63.3427 55.6244L68.2102 49.2756C67.8872 49.0279 67.5564 48.6491 67.5564 47.492H59.5564ZM63.4614 55.712C65.8393 57.3995 68.6889 58.078 71.6964 58.078V50.078C69.8693 50.078 68.7723 49.6712 68.0914 49.188L63.4614 55.712ZM107.278 52.08L104.52 54.9766L104.59 55.0437L104.664 55.1073L107.278 52.08ZM114.16 58V54H113.994L113.828 54.0138L114.16 58ZM103.356 56.076L100.998 59.3072L100.998 59.3072L103.356 56.076ZM111.122 24.182C111.122 23.8121 111.217 22.8 112.109 21.9086C113 21.0172 114.012 20.922 114.382 20.922V28.922C115.246 28.922 116.628 28.7035 117.766 27.5654C118.904 26.4274 119.122 25.0452 119.122 24.182H111.122ZM114.382 20.922H106.02V28.922H114.382V20.922ZM106.02 20.922C105.305 20.922 104.034 21.1035 102.97 22.1676C101.906 23.2316 101.724 24.5028 101.724 25.218H109.724C109.724 25.7359 109.592 26.859 108.627 27.8244C107.661 28.7898 106.538 28.922 106.02 28.922V20.922ZM101.724 25.218V47.048H109.724V25.218H101.724ZM101.724 47.048C101.724 49.8254 102.303 52.8659 104.52 54.9766L110.037 49.1834C110.115 49.2578 110.037 49.2339 109.935 48.9017C109.827 48.5523 109.724 47.9617 109.724 47.048H101.724ZM104.664 55.1073C106.795 56.9481 109.61 57.486 112.31 57.486V49.486C110.472 49.486 109.932 49.0866 109.893 49.0527L104.664 55.1073ZM112.31 57.486H114.16V49.486H112.31V57.486ZM114.16 57.486C113.79 57.486 112.778 57.3908 111.887 56.4994C110.995 55.608 110.9 54.5959 110.9 54.226H118.9C118.9 53.3628 118.682 51.9806 117.544 50.8426C116.406 49.7045 115.024 49.486 114.16 49.486V57.486ZM110.9 54.226V57.26H118.9V54.226H110.9ZM110.9 57.26C110.9 56.8901 110.995 55.878 111.887 54.9866C112.778 54.0952 113.79 54 114.16 54V62C115.024 62 116.406 61.7815 117.544 60.6434C118.682 59.5054 118.9 58.1232 118.9 57.26H110.9ZM113.828 54.0138C113.41 54.0486 112.636 54.074 111.422 54.074V62.074C112.675 62.074 113.726 62.05 114.492 61.9862L113.828 54.0138ZM111.422 54.074C108.267 54.074 106.564 53.4646 105.714 52.8448L100.998 59.3072C103.8 61.3514 107.473 62.074 111.422 62.074V54.074ZM105.714 52.8448C105.416 52.6269 104.618 51.7701 104.618 48.676H96.6183C96.6183 52.7846 97.6464 56.8611 100.998 59.3072L105.714 52.8448ZM104.618 48.676V25.218H96.6183V48.676H104.618ZM104.618 25.218C104.618 24.5028 104.437 23.2316 103.373 22.1676C102.309 21.1035 101.038 20.922 100.322 20.922V28.922C99.8044 28.922 98.6813 28.7898 97.7159 27.8244C96.7505 26.859 96.6183 25.7359 96.6183 25.218H104.618ZM100.322 20.922H95.8083V28.922H100.322V20.922ZM95.8083 20.922C96.1782 20.922 97.1903 21.0172 98.0817 21.9086C98.9731 22.8 99.0683 23.8121 99.0683 24.182H91.0683C91.0683 25.0452 91.2868 26.4274 92.4249 27.5654C93.5629 28.7035 94.9451 28.922 95.8083 28.922V20.922ZM99.0683 24.182V21.296H91.0683V24.182H99.0683ZM99.0683 21.296C99.0683 21.6659 98.9731 22.678 98.0817 23.5694C97.1903 24.4608 96.1782 24.556 95.8083 24.556V16.556C94.945 16.556 93.5629 16.7745 92.4249 17.9126C91.2868 19.0506 91.0683 20.4328 91.0683 21.296H99.0683ZM95.8083 24.556H100.322V16.556H95.8083V24.556ZM100.322 24.556C101.038 24.556 102.309 24.3745 103.373 23.3104C104.437 22.2464 104.618 20.9752 104.618 20.26H96.6183C96.6183 19.7421 96.7505 18.619 97.7159 17.6536C98.6813 16.6882 99.8044 16.556 100.322 16.556V24.556ZM104.618 20.26V11.676H96.6183V20.26H104.618ZM104.618 11.676C104.618 12.0459 104.523 13.058 103.632 13.9494C102.74 14.8408 101.728 14.936 101.358 14.936V6.936C100.495 6.936 99.1129 7.15452 97.9749 8.29257C96.8368 9.43062 96.6183 10.8128 96.6183 11.676H104.618ZM101.358 14.936H104.984V6.936H101.358V14.936ZM104.984 14.936C104.614 14.936 103.602 14.8408 102.711 13.9494C101.819 13.058 101.724 12.0459 101.724 11.676H109.724C109.724 10.8127 109.506 9.43062 108.368 8.29257C107.23 7.15452 105.848 6.936 104.984 6.936V14.936ZM101.724 11.676V20.26H109.724V11.676H101.724ZM101.724 20.26C101.724 20.9752 101.906 22.2464 102.97 23.3104C104.034 24.3745 105.305 24.556 106.02 24.556V16.556C106.538 16.556 107.661 16.6882 108.627 17.6536C109.592 18.619 109.724 19.7421 109.724 20.26H101.724ZM106.02 24.556H114.382V16.556H106.02V24.556ZM114.382 24.556C114.012 24.556 113 24.4608 112.109 23.5694C111.217 22.678 111.122 21.6659 111.122 21.296H119.122C119.122 20.4328 118.904 19.0506 117.766 17.9126C116.628 16.7745 115.246 16.556 114.382 16.556V24.556ZM111.122 21.296V24.182H119.122V21.296H111.122ZM129.153 55.854L126.763 59.0615L126.799 59.0877L126.834 59.1132L129.153 55.854ZM123.973 48.306L120.137 49.4394L120.139 49.4444L123.973 48.306ZM123.973 30.102L120.132 28.9868L120.116 29.0409L120.102 29.0955L123.973 30.102ZM129.153 22.776L131.472 26.0352L131.493 26.0205L131.513 26.0056L129.153 22.776ZM147.653 22.702L145.364 25.9818L145.378 25.9918L145.392 26.0017L147.653 22.702ZM152.833 29.51L156.687 28.4394L156.681 28.416L156.674 28.3927L152.833 29.51ZM153.277 31.73H157.277V31.5636L157.264 31.3978L153.277 31.73ZM152.611 32.544L153.166 36.5054L153.324 36.4833L153.479 36.4487L152.611 32.544ZM148.911 33.062V37.062H149.19L149.466 37.0234L148.911 33.062ZM148.097 32.396L144.175 33.1805L144.183 33.2222L144.193 33.2637L148.097 32.396ZM147.875 31.286L151.798 30.5015L151.784 30.4326L151.768 30.3641L147.875 31.286ZM144.619 26.55L142.176 29.7171L142.205 29.7393L142.234 29.761L144.619 26.55ZM132.113 26.55L134.589 29.692L134.595 29.6872L134.601 29.6824L132.113 26.55ZM128.931 31.73L132.824 32.6519L132.828 32.6342L132.832 32.6165L128.931 31.73ZM128.931 46.752L132.836 45.8843L132.825 45.8329L132.812 45.7819L128.931 46.752ZM132.113 52.08L129.58 55.1758L129.631 55.2175L129.684 55.2574L132.113 52.08ZM144.545 52.154L146.87 55.4089L146.879 55.4028L146.887 55.3967L144.545 52.154ZM147.875 47.27L151.778 48.148L151.875 47.7144V47.27H147.875ZM147.875 46.974L143.995 46.0038L143.875 46.4816V46.974H147.875ZM147.949 46.678L151.83 47.6482L151.901 47.3657L151.93 47.076L147.949 46.678ZM148.837 46.086L148.122 50.0215L148.157 50.0279L148.193 50.0337L148.837 46.086ZM152.463 46.678L153.248 42.7557L153.178 42.7417L153.108 42.7303L152.463 46.678ZM153.129 47.492L157.052 48.2765L157.086 48.1063L157.105 47.9337L153.129 47.492ZM152.833 48.972L156.706 49.9735L156.734 49.8657L156.756 49.7565L152.833 48.972ZM147.727 55.928L149.946 59.2562L149.946 59.2562L147.727 55.928ZM138.329 54.592C135.498 54.592 133.275 53.8777 131.472 52.5948L126.834 59.1132C130.162 61.481 134.057 62.592 138.329 62.592V54.592ZM131.543 52.6465C129.755 51.3143 128.513 49.5414 127.808 47.1676L120.139 49.4444C121.309 53.3853 123.519 56.6444 126.763 59.0615L131.543 52.6465ZM127.809 47.1726C127.329 45.5449 127.011 42.9327 127.011 39.13H119.011C119.011 43.2207 119.336 46.7257 120.137 49.4394L127.809 47.1726ZM127.011 39.13C127.011 35.7953 127.315 33.1461 127.845 31.1085L120.102 29.0955C119.349 31.9912 119.011 35.3607 119.011 39.13H127.011ZM127.815 31.2172C128.455 29.0134 129.651 27.3313 131.472 26.0352L126.834 19.5168C123.525 21.8714 121.268 25.0732 120.132 28.9868L127.815 31.2172ZM131.513 26.0056C133.314 24.69 135.521 23.964 138.329 23.964V15.964C134.034 15.964 130.124 17.1127 126.793 19.5464L131.513 26.0056ZM138.329 23.964C141.222 23.964 143.505 24.6846 145.364 25.9818L149.943 19.4222C146.572 17.0688 142.64 15.964 138.329 15.964V23.964ZM145.392 26.0017C147.408 27.383 148.498 28.9275 148.993 30.6273L156.674 28.3927C155.59 24.6658 153.226 21.6717 149.914 19.4023L145.392 26.0017ZM148.979 30.5806C149.191 31.3435 149.271 31.8168 149.291 32.0622L157.264 31.3978C157.185 30.4592 156.969 29.4525 156.687 28.4394L148.979 30.5806ZM149.277 31.73V31.878H157.277V31.73H149.277ZM149.277 31.878C149.277 31.1063 149.565 30.1928 150.282 29.4751C150.9 28.858 151.538 28.6849 151.744 28.6393L153.479 36.4487C154.128 36.3045 155.1 35.971 155.939 35.1319C156.879 34.1922 157.277 32.995 157.277 31.878H149.277ZM152.057 28.5826L148.357 29.1006L149.466 37.0234L153.166 36.5054L152.057 28.5826ZM148.911 29.062H148.763V37.062H148.911V29.062ZM148.763 29.062C149.535 29.062 150.449 29.3494 151.166 30.0671C151.783 30.6841 151.957 31.3231 152.002 31.5283L144.193 33.2637C144.337 33.9129 144.67 34.8849 145.509 35.7239C146.449 36.6636 147.646 37.062 148.763 37.062V29.062ZM152.02 31.6115L151.798 30.5015L143.953 32.0705L144.175 33.1805L152.02 31.6115ZM151.768 30.3641C151.081 27.465 149.394 25.1137 147.005 23.339L142.234 29.761C143.298 30.5517 143.782 31.3577 143.983 32.2079L151.768 30.3641ZM147.063 23.3829C144.545 21.4409 141.558 20.552 138.329 20.552V28.552C140.034 28.552 141.24 28.9951 142.176 29.7171L147.063 23.3829ZM138.329 20.552C135.103 20.552 132.115 21.4405 129.626 23.4176L134.601 29.6824C135.466 28.9955 136.622 28.552 138.329 28.552V20.552ZM129.638 23.408C127.236 25.3007 125.711 27.851 125.031 30.8435L132.832 32.6165C133.138 31.2677 133.735 30.3646 134.589 29.692L129.638 23.408ZM125.039 30.8081C124.494 33.1112 124.265 35.95 124.265 39.204H132.265C132.265 36.242 132.481 34.0981 132.824 32.6519L125.039 30.8081ZM124.265 39.204C124.265 42.5758 124.489 45.4743 125.051 47.7221L132.812 45.7819C132.486 44.4777 132.265 42.3442 132.265 39.204H124.265ZM125.027 47.6197C125.698 50.6394 127.201 53.2286 129.58 55.1758L134.646 48.9842C133.77 48.2674 133.152 47.3046 132.836 45.8843L125.027 47.6197ZM129.684 55.2574C132.171 57.1599 135.138 58.004 138.329 58.004V50.004C136.587 50.004 135.41 49.5654 134.543 48.9026L129.684 55.2574ZM138.329 58.004C141.46 58.004 144.373 57.1925 146.87 55.4089L142.22 48.8991C141.264 49.5822 140.034 50.004 138.329 50.004V58.004ZM146.887 55.3967C149.383 53.594 151.101 51.156 151.778 48.148L143.973 46.392C143.762 47.3307 143.259 48.1486 142.203 48.9113L146.887 55.3967ZM151.875 47.27V46.974H143.875V47.27H151.875ZM151.756 47.9442L151.83 47.6482L144.069 45.7078L143.995 46.0038L151.756 47.9442ZM151.93 47.076C151.884 47.5281 151.624 48.6901 150.427 49.4882C149.342 50.2118 148.326 50.0586 148.122 50.0215L149.553 42.1505C148.806 42.0148 147.371 41.9109 145.99 42.8318C144.496 43.8272 144.064 45.3346 143.969 46.28L151.93 47.076ZM148.193 50.0337L151.819 50.6257L153.108 42.7303L149.482 42.1383L148.193 50.0337ZM151.679 50.6003C151.404 50.5453 150.588 50.3244 149.904 49.4885C149.159 48.578 149.094 47.5889 149.154 47.0503L157.105 47.9337C157.214 46.9511 157.063 45.6043 156.096 44.4225C155.19 43.3152 154.016 42.9094 153.248 42.7557L151.679 50.6003ZM149.207 46.7075L148.911 48.1875L156.756 49.7565L157.052 48.2765L149.207 46.7075ZM148.961 47.9705C148.489 49.7965 147.428 51.3202 145.509 52.5998L149.946 59.2562C153.355 56.9838 155.698 53.8702 156.706 49.9735L148.961 47.9705ZM145.509 52.5998C143.582 53.8844 141.243 54.592 138.329 54.592V62.592C142.618 62.592 146.545 61.5236 149.946 59.2562L145.509 52.5998ZM187.579 23.516L184.75 26.3444L184.765 26.3593L184.78 26.374L187.579 23.516ZM183.361 27.216L180.45 29.96L180.471 29.9817L180.492 30.0031L183.361 27.216ZM170.411 27.142L167.582 24.3136L167.582 24.3136L170.411 27.142ZM167.969 24.7L165.14 27.5284L165.599 27.9874L166.18 28.2777L167.969 24.7ZM168.191 24.626L164.929 22.311L164.751 22.5619L164.613 22.8372L168.191 24.626ZM178.181 24.038C181.297 24.038 183.331 24.9248 184.75 26.3444L190.407 20.6876C187.189 17.4699 182.957 16.038 178.181 16.038V24.038ZM184.78 26.374C186.245 27.8083 187.131 29.8136 187.131 32.84H195.131C195.131 28.0717 193.648 23.861 190.377 20.658L184.78 26.374ZM187.131 32.84V57.26H195.131V32.84H187.131ZM187.131 57.26C187.131 56.8901 187.226 55.878 188.117 54.9866C189.009 54.0952 190.021 54 190.391 54V62C191.254 62 192.636 61.7815 193.774 60.6434C194.912 59.5054 195.131 58.1232 195.131 57.26H187.131ZM190.391 54H186.617V62H190.391V54ZM186.617 54C186.987 54 187.999 54.0952 188.89 54.9866C189.782 55.878 189.877 56.8901 189.877 57.26H181.877C181.877 58.1232 182.095 59.5054 183.233 60.6434C184.371 61.7815 185.753 62 186.617 62V54ZM189.877 57.26V33.876H181.877V57.26H189.877ZM189.877 33.876C189.877 30.2656 188.727 26.9992 186.23 24.4289L180.492 30.0031C181.349 30.8862 181.877 32.0597 181.877 33.876H189.877ZM186.271 24.4719C183.806 21.8575 180.589 20.626 176.997 20.626V28.626C178.634 28.626 179.659 29.1211 180.45 29.96L186.271 24.4719ZM176.997 20.626C173.388 20.626 170.119 21.7765 167.582 24.3136L173.239 29.9704C174.057 29.1528 175.178 28.626 176.997 28.626V20.626ZM167.582 24.3136C165.045 26.8507 163.895 30.1196 163.895 33.728H171.895C171.895 31.9098 172.422 30.788 173.239 29.9704L167.582 24.3136ZM163.895 33.728V57.26H171.895V33.728H163.895ZM163.895 57.26C163.895 56.8901 163.99 55.878 164.881 54.9866C165.773 54.0952 166.785 54 167.155 54V62C168.018 62 169.4 61.7815 170.538 60.6434C171.676 59.5054 171.895 58.1232 171.895 57.26H163.895ZM167.155 54H163.381V62H167.155V54ZM163.381 54C163.751 54 164.763 54.0952 165.654 54.9866C166.546 55.878 166.641 56.8901 166.641 57.26H158.641C158.641 58.1232 158.859 59.5054 159.997 60.6434C161.135 61.7815 162.517 62 163.381 62V54ZM166.641 57.26V6.94H158.641V57.26H166.641ZM166.641 6.94C166.641 7.30991 166.546 8.32204 165.654 9.21342C164.763 10.1048 163.751 10.2 163.381 10.2V2.2C162.517 2.2 161.135 2.41852 159.997 3.55657C158.859 4.69462 158.641 6.07675 158.641 6.94H166.641ZM163.381 10.2H167.155V2.2H163.381V10.2ZM167.155 10.2C166.785 10.2 165.773 10.1048 164.881 9.21343C163.99 8.32204 163.895 7.30991 163.895 6.94H171.895C171.895 6.07675 171.676 4.69462 170.538 3.55657C169.4 2.41852 168.018 2.2 167.155 2.2V10.2ZM163.895 6.94V24.478H171.895V6.94H163.895ZM163.895 24.478C163.895 25.1933 164.076 26.4644 165.14 27.5284L170.797 21.8716C171.763 22.837 171.895 23.9601 171.895 24.478H163.895ZM166.18 28.2777C166.781 28.5781 167.965 28.9794 169.363 28.5132C170.762 28.0471 171.468 27.0157 171.768 26.4148L164.613 22.8372C164.864 22.335 165.509 21.3652 166.833 20.9238C168.158 20.4823 169.255 20.8712 169.758 21.1223L166.18 28.2777ZM171.453 26.941C172.72 25.1556 174.697 24.038 178.181 24.038V16.038C172.685 16.038 168.003 17.979 164.929 22.311L171.453 26.941ZM220.084 54.818L217.615 57.965L217.626 57.9741L217.638 57.9831L220.084 54.818ZM223.932 51.414L221.532 54.614L221.553 54.6302L221.575 54.646L223.932 51.414ZM242.432 51.636L244.931 54.7595L244.954 54.7407L244.977 54.7215L242.432 51.636ZM243.986 40.758L240.74 43.0952L240.77 43.1372L240.801 43.1783L243.986 40.758ZM239.768 37.28L237.764 40.7417L237.783 40.7529L237.802 40.7639L239.768 37.28ZM231.776 33.506L233.307 29.8106L233.284 29.8012L233.261 29.7921L231.776 33.506ZM223.118 29.658L221.161 33.1466L221.211 33.1747L221.262 33.2013L223.118 29.658ZM218.16 25.366L214.874 27.6476L214.911 27.7L214.949 27.7513L218.16 25.366ZM220.602 9.086L223.087 12.22L223.094 12.2146L220.602 9.086ZM245.466 9.456L242.943 12.5605L242.943 12.5605L245.466 9.456ZM241.618 12.934L239.077 16.0237L239.094 16.0374L239.111 16.0509L241.618 12.934ZM224.228 12.342L221.801 9.16219L221.801 9.16219L224.228 12.342ZM222.748 22.998L219.548 25.398L219.604 25.4731L219.664 25.5455L222.748 22.998ZM226.67 26.032L224.798 29.5672L224.86 29.5997L224.922 29.63L226.67 26.032ZM234.588 29.362L236.108 25.6622L236.073 25.6478L236.038 25.634L234.588 29.362ZM243.246 33.506L241.211 36.9497L241.228 36.9597L241.245 36.9695L243.246 33.506ZM248.574 38.242L245.313 40.5588L245.348 40.6078L245.384 40.6558L248.574 38.242ZM246.058 54.892L248.569 58.0057L246.058 54.892ZM233.33 54.592C228.329 54.592 224.873 53.464 222.53 51.6529L217.638 57.9831C221.806 61.204 227.181 62.592 233.33 62.592V54.592ZM222.553 51.671C220.345 49.9384 219.274 47.7602 219.274 44.754H211.274C211.274 50.1345 213.41 54.6656 217.615 57.965L222.553 51.671ZM219.274 44.754V42.46H211.274V44.754H219.274ZM219.274 42.46C219.274 42.8299 219.179 43.842 218.287 44.7334C217.396 45.6248 216.384 45.72 216.014 45.72V37.72C215.151 37.72 213.768 37.9385 212.63 39.0766C211.492 40.2146 211.274 41.5968 211.274 42.46H219.274ZM216.014 45.72H219.64V37.72H216.014V45.72ZM219.64 45.72C219.27 45.72 218.258 45.6248 217.366 44.7334C216.475 43.842 216.38 42.8299 216.38 42.46H224.38C224.38 41.5968 224.161 40.2146 223.023 39.0766C221.885 37.9385 220.503 37.72 219.64 37.72V45.72ZM216.38 42.46V44.458H224.38V42.46H216.38ZM216.38 44.458C216.38 48.6285 218.197 52.1132 221.532 54.614L226.332 48.214C224.93 47.1628 224.38 46.0102 224.38 44.458H216.38ZM221.575 54.646C224.866 57.0455 229.085 58.004 233.774 58.004V50.004C230.075 50.004 227.734 49.2359 226.288 48.182L221.575 54.646ZM233.774 58.004C238.043 58.004 241.969 57.129 244.931 54.7595L239.933 48.5125C238.948 49.3004 237.102 50.004 233.774 50.004V58.004ZM244.977 54.7215C247.915 52.2982 249.392 48.9992 249.392 45.198H241.392C241.392 46.7248 240.896 47.7178 239.886 48.5505L244.977 54.7215ZM249.392 45.198C249.392 42.7027 248.697 40.3466 247.17 38.3377L240.801 43.1783C241.149 43.6361 241.392 44.24 241.392 45.198H249.392ZM247.232 38.4208C245.887 36.5534 243.951 35.0472 241.733 33.7961L237.802 40.7639C239.433 41.6835 240.308 42.4959 240.74 43.0952L247.232 38.4208ZM241.772 33.8183C239.674 32.6039 236.824 31.2679 233.307 29.8106L230.245 37.2014C233.634 38.6055 236.112 39.7855 237.764 40.7417L241.772 33.8183ZM233.261 29.7921C229.613 28.3328 226.871 27.1082 224.974 26.1147L221.262 33.2013C223.509 34.3784 226.538 35.7192 230.29 37.2199L233.261 29.7921ZM225.075 26.1694C223.504 25.2883 222.292 24.221 221.371 22.9807L214.949 27.7513C216.593 29.9644 218.686 31.7583 221.161 33.1466L225.075 26.1694ZM221.445 23.0844C220.775 22.1199 220.31 20.7457 220.31 18.706H212.31C212.31 21.9943 213.077 25.0601 214.874 27.6476L221.445 23.0844ZM220.31 18.706C220.31 15.5968 221.32 13.6219 223.087 12.22L218.116 5.95201C214.161 9.08875 212.31 13.5272 212.31 18.706H220.31ZM223.094 12.2146C225.083 10.6304 228.072 9.608 232.516 9.608V1.608C226.896 1.608 221.942 2.90426 218.109 5.95736L223.094 12.2146ZM232.516 9.608C237.391 9.608 240.712 10.7473 242.943 12.5605L247.988 6.35154C243.905 3.034 238.593 1.608 232.516 1.608V9.608ZM242.943 12.5605C245.121 14.3294 246.202 16.5702 246.202 19.668H254.202C254.202 14.2805 252.126 9.71327 247.988 6.35154L242.943 12.5605ZM246.202 19.668V21.296H254.202V19.668H246.202ZM246.202 21.296C246.202 20.9261 246.297 19.9139 247.188 19.0226C248.08 18.1312 249.092 18.036 249.462 18.036V26.036C250.325 26.036 251.707 25.8175 252.845 24.6794C253.983 23.5414 254.202 22.1592 254.202 21.296H246.202ZM249.462 18.036H245.762V26.036H249.462V18.036ZM245.762 18.036C246.132 18.036 247.144 18.1312 248.035 19.0226C248.927 19.914 249.022 20.9261 249.022 21.296H241.022C241.022 22.1592 241.24 23.5414 242.378 24.6794C243.516 25.8175 244.899 26.036 245.762 26.036V18.036ZM249.022 21.296V19.964H241.022V21.296H249.022ZM249.022 19.964C249.022 15.8663 247.319 12.386 244.125 9.81714L239.111 16.0509C240.456 17.1327 241.022 18.339 241.022 19.964H249.022ZM244.158 9.8443C240.988 7.23737 236.859 6.196 232.294 6.196V14.196C235.721 14.196 237.808 14.98 239.077 16.0237L244.158 9.8443ZM232.294 6.196C228.321 6.196 224.639 6.99653 221.801 9.16219L226.654 15.5218C227.566 14.8261 229.261 14.196 232.294 14.196V6.196ZM221.801 9.16219C218.777 11.4702 217.416 14.8107 217.416 18.558H225.416C225.416 16.8787 225.929 16.0752 226.654 15.5218L221.801 9.16219ZM217.416 18.558C217.416 21.0215 218.043 23.3916 219.548 25.398L225.948 20.598C225.677 20.2364 225.416 19.6465 225.416 18.558H217.416ZM219.664 25.5455C221.018 27.1849 222.785 28.5011 224.798 29.5672L228.541 22.4968C227.2 21.7869 226.352 21.0804 225.832 20.4505L219.664 25.5455ZM224.922 29.63C226.8 30.5422 229.563 31.6996 233.138 33.09L236.038 25.634C232.509 24.2617 229.993 23.1992 228.417 22.434L224.922 29.63ZM233.067 33.0618C236.576 34.5035 239.269 35.802 241.211 36.9497L245.281 30.0623C242.882 28.6446 239.803 27.1805 236.108 25.6622L233.067 33.0618ZM241.245 36.9695C243.025 37.998 244.35 39.2036 245.313 40.5588L251.835 35.9252C250.133 33.531 247.907 31.5793 245.247 30.0425L241.245 36.9695ZM245.384 40.6558C246.157 41.6766 246.646 43.0351 246.646 44.976H254.646C254.646 41.5889 253.754 38.4581 251.763 35.8282L245.384 40.6558ZM246.646 44.976C246.646 47.9865 245.606 50.1176 243.547 51.7783L248.569 58.0057C252.627 54.7331 254.646 50.2535 254.646 44.976H246.646ZM243.547 51.7783C241.428 53.4872 238.187 54.592 233.33 54.592V62.592C239.326 62.592 244.57 61.2301 248.569 58.0057L243.547 51.7783ZM289.273 32.988L285.313 33.5537L285.313 33.5537L289.273 32.988ZM264.631 41.572H260.631V41.6447L260.633 41.7174L264.631 41.572ZM265.075 46.826L268.96 45.8762L268.958 45.866L268.955 45.8559L265.075 46.826ZM268.553 52.08L270.895 48.8373L270.895 48.8373L268.553 52.08ZM280.837 52.598L278.794 49.1586L278.794 49.1586L280.837 52.598ZM284.537 48.602L281.208 46.3832L281.083 46.5714L280.979 46.7726L284.537 48.602ZM285.573 48.306L283.453 51.698L283.496 51.7253L283.541 51.7515L285.573 48.306ZM288.459 50.008L290.579 46.616L290.535 46.5887L290.491 46.5625L288.459 50.008ZM288.755 51.044L292.302 52.8917L292.36 52.7818L292.41 52.6686L288.755 51.044ZM283.205 56.668L285.105 60.1876L285.132 60.173L285.159 60.158L283.205 56.668ZM274.695 58.666L274.638 62.6656L274.666 62.666H274.695V58.666ZM265.889 56.15L268.155 52.8538L268.155 52.8538L265.889 56.15ZM260.783 49.342L264.551 48.0007L264.54 47.969L264.528 47.9375L260.783 49.342ZM259.525 34.098L255.536 33.8025L255.53 33.8733L255.528 33.9443L259.525 34.098ZM260.117 30.546L263.963 31.6449L263.975 31.6016L263.986 31.5581L260.117 30.546ZM265.149 22.85L262.749 19.65L262.734 19.6612L262.719 19.6726L265.149 22.85ZM284.759 23.368L287.496 20.4517L287.496 20.4517L284.759 23.368ZM268.331 26.476L270.793 29.6281L270.8 29.623L270.806 29.618L268.331 26.476ZM265.223 31.508L269.069 32.6069L269.096 32.5111L269.119 32.4141L265.223 31.508ZM264.631 36.54L260.634 36.3699L260.631 36.4549V36.54H264.631ZM284.389 36.54H288.389V36.4512L288.385 36.3624L284.389 36.54ZM283.945 31.804L287.859 30.98L287.846 30.9168L287.83 30.8542L283.945 31.804ZM280.615 26.55L278.082 29.6458L278.133 29.6875L278.185 29.7274L280.615 26.55ZM285.313 33.5537C285.474 34.6814 285.569 36.2039 285.569 38.168H293.569C293.569 35.9881 293.466 34.0573 293.232 32.4223L285.313 33.5537ZM285.569 38.168V40.536H293.569V38.168H285.569ZM285.569 40.536C285.569 40.1661 285.664 39.154 286.555 38.2626C287.447 37.3712 288.459 37.276 288.829 37.276V45.276C289.692 45.276 291.074 45.0575 292.212 43.9194C293.35 42.7814 293.569 41.3992 293.569 40.536H285.569ZM288.829 37.276H264.927V45.276H288.829V37.276ZM264.927 37.276C264.211 37.276 262.94 37.4575 261.876 38.5216C260.812 39.5856 260.631 40.8567 260.631 41.572H268.631C268.631 42.0899 268.498 43.213 267.533 44.1784C266.568 45.1438 265.445 45.276 264.927 45.276V37.276ZM260.633 41.7174C260.728 44.3258 260.876 46.5226 261.194 47.7961L268.955 45.8559C268.956 45.8573 268.933 45.7596 268.899 45.5149C268.868 45.2838 268.835 44.9768 268.801 44.5837C268.735 43.7961 268.676 42.7497 268.628 41.4266L260.633 41.7174ZM261.189 47.7758C261.947 50.8758 263.629 53.4578 266.211 55.3227L270.895 48.8373C269.925 48.1368 269.288 47.2162 268.96 45.8762L261.189 47.7758ZM266.211 55.3227C268.828 57.2131 271.978 58.004 275.361 58.004V50.004C273.218 50.004 271.829 49.5123 270.895 48.8373L266.211 55.3227ZM275.361 58.004C278.057 58.004 280.606 57.3871 282.879 56.0374L278.794 49.1586C277.91 49.6836 276.808 50.004 275.361 50.004V58.004ZM282.879 56.0374C285.142 54.6939 286.883 52.7862 288.094 50.4314L280.979 46.7726C280.414 47.8712 279.689 48.6274 278.794 49.1586L282.879 56.0374ZM287.865 50.8208C287.734 51.0167 287.21 51.7287 286.117 52.0411C284.9 52.3887 283.914 51.9865 283.453 51.698L287.693 44.914C286.836 44.3789 285.481 43.9026 283.919 44.3489C282.48 44.7599 281.635 45.7433 281.208 46.3832L287.865 50.8208ZM283.541 51.7515L286.427 53.4535L290.491 46.5625L287.605 44.8605L283.541 51.7515ZM286.339 53.4C285.952 53.1583 285.278 52.5841 284.983 51.5509C284.696 50.5471 284.952 49.7518 285.099 49.4194L292.41 52.6686C292.755 51.8922 293.06 50.7023 292.675 49.3531C292.281 47.9746 291.36 47.1044 290.579 46.616L286.339 53.4ZM285.207 49.1963C284.355 50.8318 283.079 52.1537 281.25 53.178L285.159 60.158C288.263 58.4196 290.687 55.9922 292.302 52.8917L285.207 49.1963ZM281.304 53.1484C279.501 54.1222 277.334 54.666 274.695 54.666V62.666C278.468 62.666 281.975 61.8778 285.105 60.1876L281.304 53.1484ZM274.751 54.6664C271.863 54.6257 269.741 53.9446 268.155 52.8538L263.623 59.4462C266.772 61.6114 270.52 62.6076 274.638 62.6656L274.751 54.6664ZM268.155 52.8538C266.534 51.7396 265.327 50.1809 264.551 48.0007L257.014 50.6833C258.31 54.3244 260.507 57.3044 263.623 59.4462L268.155 52.8538ZM264.528 47.9375C263.89 46.2361 263.451 43.3964 263.451 39.13H255.451C255.451 43.7436 255.899 47.7119 257.037 50.7465L264.528 47.9375ZM263.451 39.13C263.451 37.0823 263.475 35.4619 263.522 34.2517L255.528 33.9443C255.475 35.2994 255.451 37.0337 255.451 39.13H263.451ZM263.514 34.3935C263.597 33.2717 263.757 32.3651 263.963 31.6449L256.271 29.4471C255.884 30.7989 255.65 32.2603 255.536 33.8025L263.514 34.3935ZM263.986 31.5581C264.611 29.1704 265.805 27.3838 267.578 26.0274L262.719 19.6726C259.46 22.1642 257.3 25.5083 256.247 29.5339L263.986 31.5581ZM267.549 26.05C269.337 24.7086 271.551 23.964 274.399 23.964V15.964C270.044 15.964 266.091 17.1434 262.749 19.65L267.549 26.05ZM274.399 23.964C278.237 23.964 280.575 24.9269 282.021 26.2843L287.496 20.4517C284.108 17.2704 279.539 15.964 274.399 15.964V23.964ZM282.021 26.2843C283.618 27.7834 284.815 30.0684 285.313 33.5537L293.232 32.4223C292.546 27.6196 290.734 23.4913 287.496 20.4517L282.021 26.2843ZM274.399 20.552C271.239 20.552 268.302 21.4062 265.855 23.334L270.806 29.618C271.615 28.9805 272.723 28.552 274.399 28.552V20.552ZM265.868 23.3239C263.505 25.1704 262.008 27.6731 261.327 30.6019L269.119 32.4141C269.424 31.1003 269.999 30.2483 270.793 29.6281L265.868 23.3239ZM261.377 30.4091C260.942 31.9304 260.735 34.0116 260.634 36.3699L268.627 36.7101C268.724 34.4311 268.911 33.1576 269.069 32.6069L261.377 30.4091ZM260.631 36.54C260.631 37.2552 260.812 38.5264 261.876 39.5904C262.94 40.6545 264.211 40.836 264.927 40.836V32.836C265.445 32.836 266.568 32.9682 267.533 33.9336C268.498 34.899 268.631 36.0221 268.631 36.54H260.631ZM264.927 40.836H284.093V32.836H264.927V40.836ZM284.093 40.836C284.808 40.836 286.079 40.6545 287.143 39.5904C288.207 38.5264 288.389 37.2552 288.389 36.54H280.389C280.389 36.0221 280.521 34.899 281.486 33.9336C282.452 32.9682 283.575 32.836 284.093 32.836V40.836ZM288.385 36.3624C288.286 34.1331 288.13 32.2664 287.859 30.98L280.03 32.628C280.154 33.2162 280.294 34.5069 280.393 36.7176L288.385 36.3624ZM287.83 30.8542C287.09 27.8254 285.508 25.2568 283.044 23.3726L278.185 29.7274C279.075 30.4085 279.714 31.3426 280.059 32.7538L287.83 30.8542ZM283.148 23.4542C280.672 21.4283 277.65 20.552 274.399 20.552V28.552C276.18 28.552 277.302 29.0077 278.082 29.6458L283.148 23.4542ZM308.466 52.08L305.707 54.9766L305.778 55.0437L305.851 55.1073L308.466 52.08ZM315.348 58V54H315.181L315.016 54.0138L315.348 58ZM304.544 56.076L302.186 59.3072L302.186 59.3072L304.544 56.076ZM312.31 24.182C312.31 23.8121 312.405 22.8 313.296 21.9086C314.188 21.0172 315.2 20.922 315.57 20.922V28.922C316.433 28.922 317.815 28.7035 318.953 27.5654C320.091 26.4274 320.31 25.0452 320.31 24.182H312.31ZM315.57 20.922H307.208V28.922H315.57V20.922ZM307.208 20.922C306.493 20.922 305.221 21.1035 304.157 22.1676C303.093 23.2316 302.912 24.5028 302.912 25.218H310.912C310.912 25.7359 310.78 26.859 309.814 27.8244C308.849 28.7898 307.726 28.922 307.208 28.922V20.922ZM302.912 25.218V47.048H310.912V25.218H302.912ZM302.912 47.048C302.912 49.8254 303.491 52.8659 305.707 54.9766L311.224 49.1834C311.302 49.2578 311.225 49.2339 311.122 48.9017C311.014 48.5523 310.912 47.9617 310.912 47.048H302.912ZM305.851 55.1073C307.983 56.9481 310.798 57.486 313.498 57.486V49.486C311.659 49.486 311.119 49.0866 311.08 49.0527L305.851 55.1073ZM313.498 57.486H315.348V49.486H313.498V57.486ZM315.348 57.486C314.978 57.486 313.966 57.3908 313.074 56.4994C312.183 55.608 312.088 54.5959 312.088 54.226H320.088C320.088 53.3628 319.869 51.9806 318.731 50.8426C317.593 49.7045 316.211 49.486 315.348 49.486V57.486ZM312.088 54.226V57.26H320.088V54.226H312.088ZM312.088 57.26C312.088 56.8901 312.183 55.878 313.074 54.9866C313.966 54.0952 314.978 54 315.348 54V62C316.211 62 317.593 61.7815 318.731 60.6434C319.869 59.5054 320.088 58.1232 320.088 57.26H312.088ZM315.016 54.0138C314.598 54.0486 313.824 54.074 312.61 54.074V62.074C313.863 62.074 314.914 62.05 315.68 61.9862L315.016 54.0138ZM312.61 54.074C309.455 54.074 307.751 53.4646 306.902 52.8448L302.186 59.3072C304.987 61.3514 308.661 62.074 312.61 62.074V54.074ZM306.902 52.8448C306.603 52.6269 305.806 51.7701 305.806 48.676H297.806C297.806 52.7846 298.834 56.8611 302.186 59.3072L306.902 52.8448ZM305.806 48.676V25.218H297.806V48.676H305.806ZM305.806 25.218C305.806 24.5028 305.624 23.2316 304.56 22.1676C303.496 21.1035 302.225 20.922 301.51 20.922V28.922C300.992 28.922 299.869 28.7898 298.903 27.8244C297.938 26.859 297.806 25.7359 297.806 25.218H305.806ZM301.51 20.922H296.996V28.922H301.51V20.922ZM296.996 20.922C297.366 20.922 298.378 21.0172 299.269 21.9086C300.161 22.8 300.256 23.8121 300.256 24.182H292.256C292.256 25.0452 292.474 26.4274 293.612 27.5654C294.75 28.7035 296.133 28.922 296.996 28.922V20.922ZM300.256 24.182V21.296H292.256V24.182H300.256ZM300.256 21.296C300.256 21.6659 300.161 22.678 299.269 23.5694C298.378 24.4608 297.366 24.556 296.996 24.556V16.556C296.133 16.556 294.75 16.7745 293.612 17.9126C292.474 19.0506 292.256 20.4328 292.256 21.296H300.256ZM296.996 24.556H301.51V16.556H296.996V24.556ZM301.51 24.556C302.225 24.556 303.496 24.3745 304.56 23.3104C305.624 22.2464 305.806 20.9752 305.806 20.26H297.806C297.806 19.7421 297.938 18.619 298.903 17.6536C299.869 16.6882 300.992 16.556 301.51 16.556V24.556ZM305.806 20.26V11.676H297.806V20.26H305.806ZM305.806 11.676C305.806 12.0459 305.711 13.058 304.819 13.9494C303.928 14.8408 302.916 14.936 302.546 14.936V6.936C301.683 6.936 300.3 7.15452 299.162 8.29257C298.024 9.43062 297.806 10.8128 297.806 11.676H305.806ZM302.546 14.936H306.172V6.936H302.546V14.936ZM306.172 14.936C305.802 14.936 304.79 14.8408 303.898 13.9494C303.007 13.058 302.912 12.0459 302.912 11.676H310.912C310.912 10.8127 310.693 9.43062 309.555 8.29257C308.417 7.15452 307.035 6.936 306.172 6.936V14.936ZM302.912 11.676V20.26H310.912V11.676H302.912ZM302.912 20.26C302.912 20.9752 303.093 22.2464 304.157 23.3104C305.221 24.3745 306.493 24.556 307.208 24.556V16.556C307.726 16.556 308.849 16.6882 309.814 17.6536C310.78 18.619 310.912 19.7421 310.912 20.26H302.912ZM307.208 24.556H315.57V16.556H307.208V24.556ZM315.57 24.556C315.2 24.556 314.188 24.4608 313.296 23.5694C312.405 22.678 312.31 21.6659 312.31 21.296H320.31C320.31 20.4328 320.091 19.0506 318.953 17.9126C317.815 16.7745 316.433 16.556 315.57 16.556V24.556ZM312.31 21.296V24.182H320.31V21.296H312.31ZM335.421 52.08L332.662 54.9766L332.733 55.0437L332.806 55.1073L335.421 52.08ZM342.303 58V54H342.136L341.971 54.0138L342.303 58ZM331.499 56.076L329.141 59.3072L329.141 59.3072L331.499 56.076ZM339.265 24.182C339.265 23.8121 339.36 22.8 340.251 21.9086C341.143 21.0172 342.155 20.922 342.525 20.922V28.922C343.388 28.922 344.77 28.7035 345.908 27.5654C347.046 26.4274 347.265 25.0452 347.265 24.182H339.265ZM342.525 20.922H334.163V28.922H342.525V20.922ZM334.163 20.922C333.448 20.922 332.177 21.1035 331.112 22.1676C330.048 23.2316 329.867 24.5028 329.867 25.218H337.867C337.867 25.7359 337.735 26.859 336.769 27.8244C335.804 28.7898 334.681 28.922 334.163 28.922V20.922ZM329.867 25.218V47.048H337.867V25.218H329.867ZM329.867 47.048C329.867 49.8254 330.446 52.8659 332.662 54.9766L338.179 49.1834C338.258 49.2578 338.18 49.2339 338.077 48.9017C337.969 48.5523 337.867 47.9617 337.867 47.048H329.867ZM332.806 55.1073C334.938 56.9481 337.753 57.486 340.453 57.486V49.486C338.614 49.486 338.075 49.0866 338.035 49.0527L332.806 55.1073ZM340.453 57.486H342.303V49.486H340.453V57.486ZM342.303 57.486C341.933 57.486 340.921 57.3908 340.029 56.4994C339.138 55.608 339.043 54.5959 339.043 54.226H347.043C347.043 53.3628 346.824 51.9806 345.686 50.8426C344.548 49.7045 343.166 49.486 342.303 49.486V57.486ZM339.043 54.226V57.26H347.043V54.226H339.043ZM339.043 57.26C339.043 56.8901 339.138 55.878 340.029 54.9866C340.921 54.0952 341.933 54 342.303 54V62C343.166 62 344.548 61.7815 345.686 60.6434C346.824 59.5054 347.043 58.1232 347.043 57.26H339.043ZM341.971 54.0138C341.553 54.0486 340.779 54.074 339.565 54.074V62.074C340.818 62.074 341.869 62.05 342.635 61.9862L341.971 54.0138ZM339.565 54.074C336.41 54.074 334.706 53.4646 333.857 52.8448L329.141 59.3072C331.942 61.3514 335.616 62.074 339.565 62.074V54.074ZM333.857 52.8448C333.558 52.6269 332.761 51.7701 332.761 48.676H324.761C324.761 52.7846 325.789 56.8611 329.141 59.3072L333.857 52.8448ZM332.761 48.676V25.218H324.761V48.676H332.761ZM332.761 25.218C332.761 24.5028 332.579 23.2316 331.515 22.1676C330.451 21.1035 329.18 20.922 328.465 20.922V28.922C327.947 28.922 326.824 28.7898 325.858 27.8244C324.893 26.859 324.761 25.7359 324.761 25.218H332.761ZM328.465 20.922H323.951V28.922H328.465V20.922ZM323.951 20.922C324.321 20.922 325.333 21.0172 326.224 21.9086C327.116 22.8 327.211 23.8121 327.211 24.182H319.211C319.211 25.0452 319.429 26.4274 320.567 27.5654C321.706 28.7035 323.088 28.922 323.951 28.922V20.922ZM327.211 24.182V21.296H319.211V24.182H327.211ZM327.211 21.296C327.211 21.6659 327.116 22.678 326.224 23.5694C325.333 24.4608 324.321 24.556 323.951 24.556V16.556C323.088 16.556 321.705 16.7745 320.567 17.9126C319.429 19.0506 319.211 20.4328 319.211 21.296H327.211ZM323.951 24.556H328.465V16.556H323.951V24.556ZM328.465 24.556C329.18 24.556 330.451 24.3745 331.515 23.3104C332.579 22.2464 332.761 20.9752 332.761 20.26H324.761C324.761 19.7421 324.893 18.619 325.858 17.6536C326.824 16.6882 327.947 16.556 328.465 16.556V24.556ZM332.761 20.26V11.676H324.761V20.26H332.761ZM332.761 11.676C332.761 12.0459 332.666 13.058 331.774 13.9494C330.883 14.8408 329.871 14.936 329.501 14.936V6.936C328.638 6.936 327.256 7.15452 326.117 8.29257C324.979 9.43062 324.761 10.8128 324.761 11.676H332.761ZM329.501 14.936H333.127V6.936H329.501V14.936ZM333.127 14.936C332.757 14.936 331.745 14.8408 330.853 13.9494C329.962 13.058 329.867 12.0459 329.867 11.676H337.867C337.867 10.8127 337.648 9.43062 336.51 8.29257C335.372 7.15452 333.99 6.936 333.127 6.936V14.936ZM329.867 11.676V20.26H337.867V11.676H329.867ZM329.867 20.26C329.867 20.9752 330.048 22.2464 331.112 23.3104C332.177 24.3745 333.448 24.556 334.163 24.556V16.556C334.681 16.556 335.804 16.6882 336.769 17.6536C337.735 18.619 337.867 19.7421 337.867 20.26H329.867ZM334.163 24.556H342.525V16.556H334.163V24.556ZM342.525 24.556C342.155 24.556 341.143 24.4608 340.251 23.5694C339.36 22.678 339.265 21.6659 339.265 21.296H347.265C347.265 20.4328 347.046 19.0506 345.908 17.9126C344.77 16.7745 343.388 16.556 342.525 16.556V24.556ZM339.265 21.296V24.182H347.265V21.296H339.265ZM354.014 12.564L351.186 15.3924L351.186 15.3924L354.014 12.564ZM354.014 6.644L356.75 9.56215L356.797 9.51803L356.842 9.47242L354.014 6.644ZM359.934 6.644L357.106 9.47242L357.151 9.51803L357.198 9.56215L359.934 6.644ZM359.934 12.564L362.762 15.3924L362.762 15.3924L359.934 12.564ZM356.974 9.748C356.901 9.748 356.857 9.74192 356.838 9.73852C356.821 9.73526 356.82 9.7336 356.832 9.73809C356.843 9.74271 356.854 9.74886 356.862 9.75379C356.869 9.75844 356.862 9.75517 356.842 9.73557L351.186 15.3924C352.774 16.9809 354.801 17.748 356.974 17.748V9.748ZM356.842 9.73557C356.823 9.71597 356.82 9.70922 356.824 9.7162C356.829 9.7236 356.835 9.73489 356.84 9.74643C356.844 9.75765 356.843 9.75735 356.839 9.73945C356.836 9.72072 356.83 9.67741 356.83 9.604H348.83C348.83 11.7774 349.597 13.8039 351.186 15.3924L356.842 9.73557ZM356.83 9.604C356.83 9.50874 356.838 9.45137 356.842 9.42538C356.847 9.40041 356.849 9.40288 356.84 9.42456C356.831 9.44706 356.816 9.47674 356.795 9.50736C356.774 9.53779 356.756 9.5561 356.75 9.56215L351.278 3.72585C349.566 5.33091 348.83 7.43497 348.83 9.604H356.83ZM356.842 9.47242C356.862 9.45282 356.869 9.44955 356.862 9.4542C356.854 9.45913 356.843 9.46528 356.832 9.4699C356.82 9.47439 356.821 9.47273 356.838 9.46948C356.857 9.46607 356.901 9.46 356.974 9.46V1.46C354.801 1.46 352.774 2.22706 351.186 3.81558L356.842 9.47242ZM356.974 9.46C357.047 9.46 357.091 9.46607 357.109 9.46948C357.127 9.47273 357.128 9.47439 357.116 9.4699C357.105 9.46528 357.094 9.45913 357.086 9.4542C357.079 9.44955 357.086 9.45283 357.106 9.47242L362.762 3.81558C361.174 2.22706 359.147 1.46 356.974 1.46V9.46ZM357.198 9.56215C357.192 9.5561 357.174 9.53779 357.153 9.50736C357.132 9.47674 357.117 9.44706 357.108 9.42456C357.099 9.40288 357.101 9.40041 357.106 9.42538C357.11 9.45137 357.118 9.50874 357.118 9.604H365.118C365.118 7.43497 364.382 5.33091 362.67 3.72585L357.198 9.56215ZM357.118 9.604C357.118 9.67741 357.112 9.72072 357.108 9.73945C357.105 9.75735 357.104 9.75765 357.108 9.74643C357.113 9.73489 357.119 9.7236 357.124 9.7162C357.128 9.70922 357.125 9.71597 357.106 9.73557L362.762 15.3924C364.351 13.8039 365.118 11.7774 365.118 9.604H357.118ZM357.106 9.73557C357.086 9.75517 357.079 9.75844 357.086 9.75379C357.094 9.74886 357.105 9.74271 357.116 9.73809C357.128 9.7336 357.127 9.73526 357.109 9.73852C357.091 9.74192 357.047 9.748 356.974 9.748V17.748C359.147 17.748 361.174 16.9809 362.762 15.3924L357.106 9.73557ZM354.902 53.926C355.272 53.926 356.284 54.0212 357.175 54.9126C358.067 55.804 358.162 56.8161 358.162 57.186H350.162C350.162 58.0492 350.38 59.4314 351.519 60.5694C352.657 61.7075 354.039 61.926 354.902 61.926V53.926ZM358.162 57.186V21.222H350.162V57.186H358.162ZM358.162 21.222C358.162 21.5919 358.067 22.604 357.175 23.4954C356.284 24.3868 355.272 24.482 354.902 24.482V16.482C354.039 16.482 352.657 16.7005 351.519 17.8386C350.38 18.9766 350.162 20.3588 350.162 21.222H358.162ZM354.902 24.482H358.676V16.482H354.902V24.482ZM358.676 24.482C358.306 24.482 357.294 24.3868 356.403 23.4954C355.511 22.604 355.416 21.5919 355.416 21.222H363.416C363.416 20.3588 363.197 18.9766 362.059 17.8386C360.921 16.7005 359.539 16.482 358.676 16.482V24.482ZM355.416 21.222V57.186H363.416V21.222H355.416ZM355.416 57.186C355.416 56.8161 355.511 55.804 356.403 54.9126C357.294 54.0212 358.306 53.926 358.676 53.926V61.926C359.539 61.926 360.921 61.7075 362.059 60.5694C363.197 59.4314 363.416 58.0492 363.416 57.186H355.416ZM358.676 53.926H354.902V61.926H358.676V53.926ZM397.221 23.516L394.393 26.3444L394.408 26.3593L394.423 26.374L397.221 23.516ZM393.003 27.216L390.093 29.96L390.113 29.9817L390.134 30.0031L393.003 27.216ZM380.053 27.142L377.225 24.3136L377.225 24.3136L380.053 27.142ZM377.611 24.7L374.783 27.5284L375.242 27.9874L375.822 28.2777L377.611 24.7ZM377.833 24.626L374.571 22.311L374.393 22.5619L374.256 22.8372L377.833 24.626ZM387.823 24.038C390.94 24.038 392.973 24.9248 394.393 26.3444L400.05 20.6876C396.832 17.4699 392.6 16.038 387.823 16.038V24.038ZM394.423 26.374C395.888 27.8083 396.773 29.8136 396.773 32.84H404.773C404.773 28.0717 403.291 23.861 400.02 20.658L394.423 26.374ZM396.773 32.84V57.26H404.773V32.84H396.773ZM396.773 57.26C396.773 56.8901 396.868 55.878 397.76 54.9866C398.651 54.0952 399.663 54 400.033 54V62C400.897 62 402.279 61.7815 403.417 60.6434C404.555 59.5054 404.773 58.1232 404.773 57.26H396.773ZM400.033 54H396.259V62H400.033V54ZM396.259 54C396.629 54 397.641 54.0952 398.533 54.9866C399.424 55.878 399.519 56.8901 399.519 57.26H391.519C391.519 58.1232 391.738 59.5054 392.876 60.6434C394.014 61.7815 395.396 62 396.259 62V54ZM399.519 57.26V33.876H391.519V57.26H399.519ZM399.519 33.876C399.519 30.2656 398.369 26.9992 395.872 24.4289L390.134 30.0031C390.992 30.8862 391.519 32.0597 391.519 33.876H399.519ZM395.914 24.4719C393.449 21.8575 390.231 20.626 386.639 20.626V28.626C388.277 28.626 389.302 29.1211 390.093 29.96L395.914 24.4719ZM386.639 20.626C383.031 20.626 379.762 21.7765 377.225 24.3136L382.882 29.9704C383.699 29.1528 384.821 28.626 386.639 28.626V20.626ZM377.225 24.3136C374.688 26.8507 373.537 30.1196 373.537 33.728H381.537C381.537 31.9098 382.064 30.788 382.882 29.9704L377.225 24.3136ZM373.537 33.728V57.26H381.537V33.728H373.537ZM373.537 57.26C373.537 56.8901 373.632 55.878 374.524 54.9866C375.415 54.0952 376.427 54 376.797 54V62C377.661 62 379.043 61.7815 380.181 60.6434C381.319 59.5054 381.537 58.1232 381.537 57.26H373.537ZM376.797 54H373.023V62H376.797V54ZM373.023 54C373.393 54 374.405 54.0952 375.297 54.9866C376.188 55.878 376.283 56.8901 376.283 57.26H368.283C368.283 58.1232 368.502 59.5054 369.64 60.6434C370.778 61.7815 372.16 62 373.023 62V54ZM376.283 57.26V21.296H368.283V57.26H376.283ZM376.283 21.296C376.283 21.6659 376.188 22.678 375.297 23.5694C374.405 24.4608 373.393 24.556 373.023 24.556V16.556C372.16 16.556 370.778 16.7745 369.64 17.9126C368.502 19.0506 368.283 20.4328 368.283 21.296H376.283ZM373.023 24.556H376.797V16.556H373.023V24.556ZM376.797 24.556C376.427 24.556 375.415 24.4608 374.524 23.5694C373.632 22.678 373.537 21.6659 373.537 21.296H381.537C381.537 20.4328 381.319 19.0506 380.181 17.9126C379.043 16.7745 377.661 16.556 376.797 16.556V24.556ZM373.537 21.296V24.478H381.537V21.296H373.537ZM373.537 24.478C373.537 25.1933 373.719 26.4644 374.783 27.5284L380.44 21.8716C381.405 22.837 381.537 23.9601 381.537 24.478H373.537ZM375.822 28.2777C376.423 28.5781 377.607 28.9794 379.006 28.5132C380.404 28.0471 381.111 27.0157 381.411 26.4148L374.256 22.8372C374.507 22.335 375.151 21.3652 376.476 20.9238C377.8 20.4823 378.898 20.8712 379.4 21.1223L375.822 28.2777ZM381.095 26.941C382.362 25.1556 384.34 24.038 387.823 24.038V16.038C382.328 16.038 377.646 17.979 374.571 22.311L381.095 26.941ZM435.706 68.878L433.207 65.7545L433.195 65.764L433.184 65.7735L435.706 68.878ZM420.018 72.652L419.62 76.6321L419.653 76.6354L419.686 76.6382L420.018 72.652ZM419.278 71.838L415.282 71.6643L415.278 71.7511V71.838H419.278ZM419.426 68.434L423.422 68.6077L423.426 68.5209V68.434H419.426ZM419.648 67.842L417.429 64.5138L417.1 64.7335L416.819 65.0136L419.648 67.842ZM420.166 67.768L419.196 71.6486L419.601 71.7498L420.018 71.7653L420.166 67.768ZM422.164 67.842L422.016 71.8393L422.09 71.842H422.164V67.842ZM432.154 65.104L429.551 62.067L429.53 62.0846L429.51 62.1026L432.154 65.104ZM435.114 53.708L432.285 56.5364L433.457 57.708H435.114V53.708ZM434.892 53.782L432.063 50.9536L431.878 51.1395L431.717 51.3483L434.892 53.782ZM416.614 55.632L414.32 58.9089L414.335 58.9196L414.351 58.9301L416.614 55.632ZM411.656 48.306L415.522 47.2791L415.509 47.2306L415.495 47.1824L411.656 48.306ZM410.916 33.802L406.936 33.404L406.929 33.4699L406.925 33.5359L410.916 33.802ZM411.73 29.806L415.525 31.0709L415.544 31.0134L415.561 30.9554L411.73 29.806ZM416.54 22.702L418.972 25.8775L418.993 25.8614L419.014 25.845L416.54 22.702ZM434.892 24.33L431.737 26.7895L431.889 26.984L432.063 27.1584L434.892 24.33ZM435.114 24.404L433.325 20.8263L432.744 21.1166L432.285 21.5756L435.114 24.404ZM434.892 46.678L430.97 45.8935L430.966 45.9115L430.963 45.9295L434.892 46.678ZM435.188 43.94L439.184 44.1216L439.184 44.1216L435.188 43.94ZM435.188 34.172L431.194 34.3939L431.195 34.4069L435.188 34.172ZM434.818 31.73L430.889 32.4784L430.916 32.6207L430.953 32.7607L434.818 31.73ZM431.858 26.624L429.177 29.5924L429.227 29.6376L429.278 29.6812L431.858 26.624ZM420.092 26.55L417.559 23.4542L417.536 23.4733L417.512 23.4928L420.092 26.55ZM416.762 31.73L420.58 32.9231L420.585 32.9054L420.591 32.8876L416.762 31.73ZM416.762 46.604L420.653 45.6775L420.602 45.4647L420.529 45.2587L416.762 46.604ZM419.944 51.784L417.356 54.834L417.406 54.8761L417.456 54.9164L419.944 51.784ZM431.932 51.784L429.352 48.7268L429.328 48.7471L429.305 48.7677L431.932 51.784ZM439.262 21.296C439.262 21.6659 439.167 22.678 438.275 23.5694C437.384 24.4608 436.372 24.556 436.002 24.556V16.556C435.139 16.556 433.757 16.7745 432.618 17.9126C431.48 19.0506 431.262 20.4328 431.262 21.296H439.262ZM436.002 24.556H439.776V16.556H436.002V24.556ZM439.776 24.556C439.406 24.556 438.394 24.4608 437.502 23.5694C436.611 22.678 436.516 21.6659 436.516 21.296H444.516C444.516 20.4328 444.297 19.0506 443.159 17.9126C442.021 16.7745 440.639 16.556 439.776 16.556V24.556ZM436.516 21.296V56.742H444.516V21.296H436.516ZM436.516 56.742C436.516 61.5008 435.163 64.1901 433.207 65.7545L438.205 72.0015C442.663 68.4352 444.516 63.0338 444.516 56.742H436.516ZM433.184 65.7735C430.963 67.5773 427.602 68.726 422.608 68.726V76.726C428.763 76.726 434.134 75.3093 438.228 71.9825L433.184 65.7735ZM422.608 68.726C421.504 68.726 420.773 68.7011 420.35 68.6658L419.686 76.6382C420.447 76.7016 421.443 76.726 422.608 76.726V68.726ZM420.416 68.6719C420.803 68.7105 421.677 68.9003 422.423 69.7208C423.171 70.5442 423.278 71.4385 423.278 71.838H415.278C415.278 72.7308 415.508 74.0075 416.503 75.1022C417.496 76.194 418.74 76.5441 419.62 76.6321L420.416 68.6719ZM423.274 72.0117L423.422 68.6077L415.43 68.2603L415.282 71.6643L423.274 72.0117ZM423.426 68.434C423.426 68.7101 423.384 69.0856 423.227 69.5055C423.065 69.9377 422.809 70.3378 422.476 70.6704L416.819 65.0136C415.789 66.0445 415.426 67.3303 415.426 68.434H423.426ZM421.867 71.1702C421.454 71.4454 420.971 71.6355 420.454 71.7093C419.95 71.7812 419.517 71.7288 419.196 71.6486L421.136 63.8874C420.019 63.608 418.654 63.6974 417.429 64.5138L421.867 71.1702ZM420.018 71.7653L422.016 71.8393L422.312 63.8447L420.314 63.7707L420.018 71.7653ZM422.164 71.842C427.127 71.842 431.645 70.8828 434.798 68.1054L429.51 62.1026C428.518 62.9759 426.377 63.842 422.164 63.842V71.842ZM434.757 68.141C438.044 65.3235 439.262 61.1428 439.262 56.594H431.262C431.262 59.8399 430.408 61.3325 429.551 62.067L434.757 68.141ZM439.262 56.594V53.856H431.262V56.594H439.262ZM439.262 53.856C439.262 53.1901 439.093 51.956 438.053 50.9166C437.014 49.8772 435.78 49.708 435.114 49.708V57.708C434.547 57.708 433.387 57.5635 432.396 56.5734C431.406 55.5834 431.262 54.4232 431.262 53.856H439.262ZM437.942 50.8796C437.435 50.3723 436.73 49.9372 435.857 49.7626C435.013 49.5938 434.278 49.7208 433.756 49.8948C432.833 50.2026 432.257 50.7598 432.063 50.9536L437.72 56.6104C437.625 56.7056 437.136 57.201 436.286 57.4842C435.802 57.6458 435.101 57.7698 434.288 57.6072C433.445 57.4387 432.768 57.019 432.285 56.5364L437.942 50.8796ZM431.717 51.3483C430.306 53.1887 428.324 54.222 425.198 54.222V62.222C430.459 62.222 434.939 60.2953 438.066 56.2157L431.717 51.3483ZM425.198 54.222C422.756 54.222 420.692 53.5794 418.877 52.3339L414.351 58.9301C417.568 61.1379 421.227 62.222 425.198 62.222V54.222ZM418.908 52.3551C417.282 51.217 416.14 49.6078 415.522 47.2791L407.79 49.3329C408.849 53.3188 411.013 56.5937 414.32 58.9089L418.908 52.3551ZM415.495 47.1824C415.066 45.7184 414.768 43.1693 414.768 39.278H406.768C406.768 43.3787 407.061 46.8483 407.817 49.4296L415.495 47.1824ZM414.768 39.278C414.768 37.1595 414.816 35.4293 414.907 34.0681L406.925 33.5359C406.818 35.1347 406.768 37.0551 406.768 39.278H414.768ZM414.896 34.2C415.02 32.9606 415.24 31.9262 415.525 31.0709L407.935 28.5411C407.431 30.0538 407.108 31.6834 406.936 33.404L414.896 34.2ZM415.561 30.9554C416.222 28.7514 417.361 27.1114 418.972 25.8775L414.108 19.5265C411.081 21.8446 409.013 24.9406 407.899 28.6566L415.561 30.9554ZM419.014 25.845C420.554 24.6328 422.445 23.964 424.902 23.964V15.964C420.847 15.964 417.163 17.1206 414.066 19.559L419.014 25.845ZM424.902 23.964C428.322 23.964 430.374 25.0402 431.737 26.7895L438.046 21.8705C434.872 17.7985 430.264 15.964 424.902 15.964V23.964ZM432.063 27.1584C432.257 27.3522 432.833 27.9094 433.757 28.2172C434.278 28.3912 435.013 28.5182 435.857 28.3494C436.73 28.1748 437.435 27.7397 437.942 27.2324L432.285 21.5756C432.768 21.093 433.445 20.6733 434.288 20.5048C435.101 20.3422 435.801 20.4662 436.286 20.6278C437.136 20.9109 437.625 21.4064 437.72 21.5016L432.063 27.1584ZM436.903 27.9817C437.427 27.7198 438.06 27.2703 438.553 26.5303C439.063 25.7653 439.262 24.9313 439.262 24.182H431.262C431.262 23.5314 431.436 22.7837 431.897 22.0927C432.341 21.4267 432.9 21.0389 433.325 20.8263L436.903 27.9817ZM439.262 24.182V21.296H431.262V24.182H439.262ZM438.814 47.4625C439.015 46.4582 439.129 45.3296 439.184 44.1216L431.192 43.7584C431.148 44.7211 431.065 45.4178 430.97 45.8935L438.814 47.4625ZM439.184 44.1216C439.237 42.9439 439.262 41.2929 439.262 39.204H431.262C431.262 41.2591 431.237 42.7654 431.192 43.7584L439.184 44.1216ZM439.262 39.204C439.262 36.7075 439.238 34.9126 439.181 33.9371L431.195 34.4069C431.236 35.1087 431.262 36.6685 431.262 39.204H439.262ZM439.182 33.9501C439.12 32.8315 438.961 31.7421 438.683 30.6993L430.953 32.7607C431.07 33.1979 431.158 33.7365 431.194 34.3939L439.182 33.9501ZM438.747 30.9816C438.185 28.0287 436.734 25.5042 434.437 23.5668L429.278 29.6812C430.14 30.4078 430.662 31.2873 430.889 32.4784L438.747 30.9816ZM434.539 23.6556C432.165 21.5116 429.213 20.552 426.012 20.552V28.552C427.547 28.552 428.492 28.9737 429.177 29.5924L434.539 23.6556ZM426.012 20.552C422.871 20.552 419.976 21.4767 417.559 23.4542L422.625 29.6458C423.464 28.9593 424.516 28.552 426.012 28.552V20.552ZM417.512 23.4928C415.299 25.3606 413.781 27.7669 412.933 30.5724L420.591 32.8876C421.025 31.4504 421.728 30.4034 422.671 29.6072L417.512 23.4928ZM412.944 30.5369C412.261 32.723 412.022 35.6973 412.022 39.13H420.022C420.022 35.8534 420.276 33.8943 420.58 32.9231L412.944 30.5369ZM412.022 39.13C412.022 42.7132 412.243 45.8433 412.995 47.9493L420.529 45.2587C420.294 44.602 420.022 42.7495 420.022 39.13H412.022ZM412.871 47.5305C413.562 50.4332 415.08 52.9031 417.356 54.834L422.532 48.734C421.552 47.9022 420.949 46.9188 420.653 45.6775L412.871 47.5305ZM417.456 54.9164C419.917 56.8701 422.842 57.782 426.012 57.782V49.782C424.446 49.782 423.326 49.3619 422.431 48.6516L417.456 54.9164ZM426.012 57.782C429.2 57.782 432.167 56.8838 434.559 54.8003L429.305 48.7677C428.638 49.3482 427.658 49.782 426.012 49.782V57.782ZM434.511 54.8412C436.808 52.9038 438.259 50.3793 438.821 47.4264L430.963 45.9295C430.736 47.1207 430.214 48.0002 429.352 48.7268L434.511 54.8412ZM456.154 57.038L454.609 60.7278L454.624 60.734L454.639 60.7402L456.154 57.038ZM451.196 53.486L448.021 55.9197L448.046 55.9525L448.072 55.9848L451.196 53.486ZM457.042 52.524L454.672 55.7466L454.725 55.7856L454.779 55.8229L457.042 52.524ZM469.696 52.598L472.03 55.8461L472.063 55.8224L472.096 55.798L469.696 52.598ZM470.806 45.124L467.977 47.9524L468.02 47.9953L468.064 48.0368L470.806 45.124ZM467.92 43.274L466.405 46.9762L466.433 46.9878L466.462 46.999L467.92 43.274ZM462.814 41.572L463.956 37.7385L463.934 37.7321L463.912 37.7259L462.814 41.572ZM456.006 39.204L457.63 35.5488L457.63 35.5488L456.006 39.204ZM451.492 35.948L448.41 38.4983L448.458 38.5561L448.508 38.6121L451.492 35.948ZM453.416 22.998L455.836 26.1826L455.836 26.1826L453.416 22.998ZM470.362 21.518L468.786 25.1946L468.801 25.2012L468.817 25.2078L470.362 21.518ZM475.246 25.218L471.998 27.5525L472.015 27.5771L472.033 27.6014L475.246 25.218ZM469.548 26.18L467.213 29.4281L467.237 29.445L467.26 29.4616L469.548 26.18ZM457.042 26.032L459.21 29.3932L459.248 29.3689L459.285 29.3437L457.042 26.032ZM456.968 34.024L454.91 37.454L454.91 37.454L456.968 34.024ZM463.85 36.688L464.975 32.8495L464.962 32.8456L464.948 32.8419L463.85 36.688ZM470.806 39.056L469.267 42.7483L469.267 42.7483L470.806 39.056ZM475.394 42.312L472.415 44.9822L472.439 45.0082L472.462 45.0338L475.394 42.312ZM473.544 55.484L475.973 58.6614L475.973 58.6614L473.544 55.484ZM463.554 54.37C461.219 54.37 459.281 53.9954 457.668 53.3358L454.639 60.7402C457.368 61.8566 460.362 62.37 463.554 62.37V54.37ZM457.698 53.3482C456.064 52.664 455.004 51.8437 454.319 50.9872L448.072 55.9848C449.755 58.0883 452.001 59.636 454.609 60.7278L457.698 53.3482ZM454.37 51.0523C453.758 50.2543 453.494 49.453 453.494 48.528H445.494C445.494 51.2537 446.364 53.7577 448.021 55.9197L454.37 51.0523ZM453.494 48.528V47.64H445.494V48.528H453.494ZM453.494 47.64C453.494 48.0099 453.398 49.022 452.507 49.9134C451.616 50.8048 450.604 50.9 450.234 50.9V42.9C449.37 42.9 447.988 43.1185 446.85 44.2566C445.712 45.3946 445.494 46.7768 445.494 47.64H453.494ZM450.234 50.9H453.786V42.9H450.234V50.9ZM453.786 50.9C453.416 50.9 452.404 50.8048 451.512 49.9134C450.621 49.022 450.526 48.0099 450.526 47.64H458.526C458.526 46.7768 458.307 45.3946 457.169 44.2566C456.031 43.1185 454.649 42.9 453.786 42.9V50.9ZM450.526 47.64V48.232H458.526V47.64H450.526ZM450.526 48.232C450.526 51.4791 452.285 53.9917 454.672 55.7466L459.411 49.3014C458.903 48.9274 458.689 48.6458 458.605 48.5031C458.539 48.3893 458.526 48.3211 458.526 48.232H450.526ZM454.779 55.8229C457.309 57.5576 460.291 58.3 463.48 58.3V50.3C461.538 50.3 460.227 49.8584 459.304 49.2251L454.779 55.8229ZM463.48 58.3C466.617 58.3 469.583 57.6046 472.03 55.8461L467.361 49.3499C466.65 49.8607 465.473 50.3 463.48 50.3V58.3ZM472.096 55.798C474.553 53.9552 476.064 51.3458 476.064 48.158H468.064C468.064 48.5222 467.996 48.8728 467.296 49.398L472.096 55.798ZM476.064 48.158C476.064 45.9091 475.25 43.8143 473.547 42.2112L468.064 48.0368C468.083 48.0549 468.084 48.0593 468.077 48.0485C468.069 48.0372 468.06 48.0218 468.054 48.0066C468.048 47.9918 468.049 47.9903 468.053 48.0092C468.057 48.0291 468.064 48.0766 468.064 48.158H476.064ZM473.634 42.2956C472.42 41.0815 470.978 40.1755 469.377 39.549L466.462 46.999C467.13 47.2605 467.613 47.5878 467.977 47.9524L473.634 42.2956ZM469.434 39.5718C468.157 39.0492 466.297 38.436 463.956 37.7385L461.672 45.4055C463.967 46.0893 465.512 46.6108 466.405 46.9762L469.434 39.5718ZM463.912 37.7259C461.253 36.9661 459.176 36.2358 457.63 35.5488L454.381 42.8592C456.387 43.7509 458.849 44.5993 461.715 45.4181L463.912 37.7259ZM457.63 35.5488C456.346 34.9781 455.312 34.2214 454.475 33.2839L448.508 38.6121C450.138 40.4373 452.113 41.8513 454.381 42.8592L457.63 35.5488ZM454.573 33.3977C454.08 32.802 453.716 31.9507 453.716 30.546H445.716C445.716 33.4827 446.535 36.2327 448.41 38.4983L454.573 33.3977ZM453.716 30.546C453.716 28.6107 454.387 27.2841 455.836 26.1826L450.995 19.8133C447.511 22.4612 445.716 26.1666 445.716 30.546H453.716ZM455.836 26.1826C457.42 24.9788 459.745 24.186 463.184 24.186V16.186C458.532 16.186 454.345 17.2678 450.995 19.8134L455.836 26.1826ZM463.184 24.186C465.463 24.186 467.302 24.5588 468.786 25.1946L471.937 17.8414C469.277 16.7012 466.331 16.186 463.184 16.186V24.186ZM468.817 25.2078C470.382 25.863 471.368 26.6765 471.998 27.5525L478.494 22.8835C476.854 20.6021 474.584 18.949 471.906 17.8282L468.817 25.2078ZM472.033 27.6014C472.651 28.4337 472.948 29.3228 472.948 30.398H480.948C480.948 27.6252 480.11 25.061 478.458 22.8346L472.033 27.6014ZM472.948 30.398V30.62H480.948V30.398H472.948ZM472.948 30.62C472.948 30.2501 473.043 29.238 473.934 28.3466C474.826 27.4552 475.838 27.36 476.208 27.36V35.36C477.071 35.36 478.453 35.1415 479.591 34.0034C480.729 32.8654 480.948 31.4832 480.948 30.62H472.948ZM476.208 27.36H472.73V35.36H476.208V27.36ZM472.73 27.36C473.1 27.36 474.112 27.4552 475.003 28.3466C475.894 29.238 475.99 30.2501 475.99 30.62H467.99C467.99 31.4832 468.208 32.8654 469.346 34.0034C470.484 35.1415 471.866 35.36 472.73 35.36V27.36ZM475.99 30.62V30.398H467.99V30.62H475.99ZM475.99 30.398C475.99 27.1605 474.311 24.6243 471.835 22.8984L467.26 29.4616C467.698 29.7668 467.861 29.9928 467.917 30.0896C467.96 30.1633 467.99 30.2392 467.99 30.398H475.99ZM471.882 22.9319C469.402 21.149 466.338 20.478 463.11 20.478V28.478C465.307 28.478 466.536 28.9417 467.213 29.4281L471.882 22.9319ZM463.11 20.478C460.076 20.478 457.19 21.1 454.798 22.7203L459.285 29.3437C459.952 28.892 461.111 28.478 463.11 28.478V20.478ZM454.873 22.6708C452.236 24.372 450.748 27.001 450.748 30.176H458.748C458.748 29.8797 458.806 29.772 458.821 29.7453C458.838 29.7144 458.915 29.5839 459.21 29.3932L454.873 22.6708ZM450.748 30.176C450.748 33.3076 452.268 35.8688 454.91 37.454L459.026 30.594C458.894 30.5149 458.824 30.4545 458.793 30.424C458.764 30.3955 458.761 30.3866 458.767 30.3971C458.774 30.408 458.772 30.4103 458.767 30.3899C458.761 30.3668 458.748 30.3004 458.748 30.176H450.748ZM454.91 37.454C456.846 38.616 459.545 39.6181 462.751 40.5341L464.948 32.8419C461.939 31.9819 460.049 31.208 459.026 30.594L454.91 37.454ZM462.725 40.5265C465.513 41.3437 467.678 42.0863 469.267 42.7483L472.344 35.3637C470.381 34.5457 467.909 33.7096 464.975 32.8495L462.725 40.5265ZM469.267 42.7483C470.494 43.2594 471.531 43.9958 472.415 44.9822L478.372 39.6418C476.691 37.7668 474.669 36.3326 472.344 35.3637L469.267 42.7483ZM472.462 45.0338C472.923 45.5299 473.318 46.3107 473.318 47.788H481.318C481.318 44.7266 480.429 41.8568 478.325 39.5902L472.462 45.0338ZM473.318 47.788C473.318 49.767 472.626 51.1504 471.114 52.3066L475.973 58.6614C479.493 55.9696 481.318 52.2224 481.318 47.788H473.318ZM471.114 52.3066C469.484 53.5529 467.091 54.37 463.554 54.37V62.37C468.305 62.37 472.571 61.2631 475.973 58.6614L471.114 52.3066Z" fill="#1B1E2B" mask="url(#path-1-outside-1_133_63900)"/>
<defs>
<linearGradient id="paint0_linear_133_63900" x1="241.5" y1="12.3182" x2="241.5" y2="73" gradientUnits="userSpaceOnUse">
<stop stop-color="#DFCCA7"/>
<stop offset="1" stop-color="#9F723D"/>
</linearGradient>
</defs>
</svg>
