<svg width="100%" height="100%" viewBox="0 0 86 86" fill="none" xmlns="http://www.w3.org/2000/svg">
<g clip-path="url(#clip0_135_63961)">
<rect x="2" y="2" width="82" height="82" rx="8" fill="#CDB288" stroke="white" stroke-width="4"/>
<mask id="path-2-outside-1_135_63961" maskUnits="userSpaceOnUse" x="30" y="25" width="27" height="38" fill="black">
<rect fill="white" x="30" y="25" width="27" height="38"/>
<path d="M37.0458 61C36.5658 61 36.4058 60.776 36.5658 60.328L46.9818 33.496C47.0458 33.304 46.9818 33.208 46.7898 33.208H37.8138C37.6538 33.208 37.5738 33.288 37.5738 33.448V35.656C37.5738 35.816 37.5098 35.96 37.3818 36.088C37.2858 36.184 37.1578 36.232 36.9978 36.232H32.6298C32.4698 36.232 32.3258 36.184 32.1978 36.088C32.1018 35.96 32.0538 35.816 32.0538 35.656L32.1018 27.976C32.1018 27.816 32.1498 27.688 32.2458 27.592C32.3738 27.464 32.5178 27.4 32.6777 27.4H53.6538C53.8138 27.4 53.9418 27.464 54.0378 27.592C54.1658 27.688 54.2298 27.816 54.2298 27.976V32.824C54.2298 33.016 54.1818 33.256 54.0858 33.544L43.7178 60.568C43.6218 60.856 43.3978 61 43.0458 61H37.0458Z"/>
</mask>
<path d="M37.0458 61C36.5658 61 36.4058 60.776 36.5658 60.328L46.9818 33.496C47.0458 33.304 46.9818 33.208 46.7898 33.208H37.8138C37.6538 33.208 37.5738 33.288 37.5738 33.448V35.656C37.5738 35.816 37.5098 35.96 37.3818 36.088C37.2858 36.184 37.1578 36.232 36.9978 36.232H32.6298C32.4698 36.232 32.3258 36.184 32.1978 36.088C32.1018 35.96 32.0538 35.816 32.0538 35.656L32.1018 27.976C32.1018 27.816 32.1498 27.688 32.2458 27.592C32.3738 27.464 32.5178 27.4 32.6777 27.4H53.6538C53.8138 27.4 53.9418 27.464 54.0378 27.592C54.1658 27.688 54.2298 27.816 54.2298 27.976V32.824C54.2298 33.016 54.1818 33.256 54.0858 33.544L43.7178 60.568C43.6218 60.856 43.3978 61 43.0458 61H37.0458Z" fill="black"/>
<path d="M36.5658 60.328L34.7013 59.6042L34.6914 59.6297L34.6823 59.6553L36.5658 60.328ZM46.9818 33.496L48.8462 34.2198L48.8638 34.1745L48.8791 34.1284L46.9818 33.496ZM37.3818 36.088L35.9675 34.6738L35.9675 34.6738L37.3818 36.088ZM32.1978 36.088L30.5978 37.288L30.7692 37.5166L30.9977 37.688L32.1978 36.088ZM32.0538 35.656L30.0538 35.6435V35.656H32.0538ZM32.1018 27.976L34.1018 27.9885V27.976H32.1018ZM32.2458 27.592L30.8315 26.1778L30.8315 26.1778L32.2458 27.592ZM54.0378 27.592L52.4377 28.792L52.6092 29.0206L52.8377 29.192L54.0378 27.592ZM54.0858 33.544L55.953 34.2604L55.969 34.2188L55.9831 34.1765L54.0858 33.544ZM43.7178 60.568L41.8505 59.8516L41.8345 59.8932L41.8204 59.9355L43.7178 60.568ZM37.0458 59C37.0648 59 37.2059 59.0001 37.4065 59.0703C37.6245 59.1466 37.9428 59.3189 38.1932 59.6695C38.4447 60.0216 38.5058 60.3827 38.5058 60.622C38.5058 60.841 38.4569 60.9793 38.4492 61.0007L34.6823 59.6553C34.5404 60.0525 34.2681 61.0562 34.9383 61.9945C35.6021 62.9238 36.6301 63 37.0458 63V59ZM38.4302 61.0518L48.8462 34.2198L45.1173 32.7722L34.7013 59.6042L38.4302 61.0518ZM48.8791 34.1284C48.9647 33.8717 49.209 33.0153 48.6459 32.1706C48.0486 31.2747 47.1049 31.208 46.7898 31.208V35.208C46.6666 35.208 45.8509 35.1893 45.3176 34.3894C44.8185 33.6407 45.0628 32.9283 45.0844 32.8636L48.8791 34.1284ZM46.7898 31.208H37.8138V35.208H46.7898V31.208ZM37.8138 31.208C37.4255 31.208 36.7669 31.3064 36.2195 31.8538C35.6722 32.4012 35.5738 33.0597 35.5738 33.448H39.5738C39.5738 33.6763 39.5153 34.2148 39.048 34.6822C38.5806 35.1496 38.042 35.208 37.8138 35.208V31.208ZM35.5738 33.448V35.656H39.5738V33.448H35.5738ZM35.5738 35.656C35.5738 35.4606 35.6147 35.2594 35.6981 35.0717C35.7795 34.8887 35.8835 34.7579 35.9675 34.6738L38.796 37.5022C39.2453 37.0528 39.5738 36.4178 39.5738 35.656H35.5738ZM35.9675 34.6738C36.1229 34.5185 36.3101 34.3989 36.5115 34.3233C36.7068 34.2501 36.878 34.232 36.9978 34.232V38.232C37.5863 38.232 38.2585 38.0397 38.796 37.5022L35.9675 34.6738ZM36.9978 34.232H32.6298V38.232H36.9978V34.232ZM32.6298 34.232C32.753 34.232 32.8915 34.2511 33.0342 34.2986C33.177 34.3462 33.2991 34.414 33.3978 34.488L30.9977 37.688C31.4719 38.0436 32.037 38.232 32.6298 38.232V34.232ZM33.7977 34.888C33.8717 34.9866 33.9395 35.1088 33.9871 35.2515C34.0347 35.3943 34.0538 35.5327 34.0538 35.656H30.0538C30.0538 36.2487 30.2421 36.8138 30.5978 37.288L33.7977 34.888ZM34.0537 35.6685L34.1017 27.9885L30.1018 27.9635L30.0538 35.6435L34.0537 35.6685ZM34.1018 27.976C34.1018 28.0957 34.0836 28.267 34.0104 28.4622C33.9349 28.6637 33.8153 28.8509 33.66 29.0062L30.8315 26.1778C30.2941 26.7153 30.1018 27.3875 30.1018 27.976H34.1018ZM33.66 29.0062C33.5759 29.0903 33.4451 29.1943 33.262 29.2756C33.0743 29.3591 32.8732 29.4 32.6777 29.4V25.4C31.9159 25.4 31.2809 25.7284 30.8315 26.1778L33.66 29.0062ZM32.6777 29.4H53.6538V25.4H32.6777V29.4ZM53.6538 29.4C53.4603 29.4 53.2204 29.3594 52.9753 29.2369C52.7303 29.1143 52.5538 28.9467 52.4377 28.792L55.6378 26.392C55.164 25.7604 54.4433 25.4 53.6538 25.4V29.4ZM52.8377 29.192C52.683 29.0759 52.5154 28.8995 52.3929 28.6544C52.2704 28.4094 52.2298 28.1694 52.2298 27.976H56.2298C56.2298 27.1865 55.8694 26.4657 55.2378 25.992L52.8377 29.192ZM52.2298 27.976V32.824H56.2298V27.976H52.2298ZM52.2298 32.824C52.2298 32.7893 52.2319 32.7661 52.233 32.7561C52.2341 32.746 52.2346 32.7455 52.2326 32.7558C52.2282 32.7779 52.2161 32.8284 52.1884 32.9115L55.9831 34.1765C56.1124 33.7886 56.2298 33.3185 56.2298 32.824H52.2298ZM52.2185 32.8276L41.8505 59.8516L45.585 61.2844L55.953 34.2604L52.2185 32.8276ZM41.8204 59.9355C41.8954 59.7106 42.0715 59.4184 42.3962 59.2096C42.6953 59.0174 42.9591 59 43.0458 59V63C43.4844 63 44.0362 62.9106 44.5593 62.5744C45.108 62.2216 45.4441 61.7134 45.6151 61.2005L41.8204 59.9355ZM43.0458 59H37.0458V63H43.0458V59Z" fill="white" mask="url(#path-2-outside-1_135_63961)"/>
</g>
<defs>
<clipPath id="clip0_135_63961">
<rect width="86" height="86" fill="white"/>
</clipPath>
</defs>
</svg>
