<svg width="100%" height="100%" viewBox="0 0 43 24" fill="none" xmlns="http://www.w3.org/2000/svg">
<path d="M9.1075 23.352C7.4435 23.352 5.9715 23.0107 4.6915 22.328C3.43283 21.6453 2.4515 20.696 1.7475 19.48C1.0435 18.2427 0.6915 16.824 0.6915 15.224V8.376C0.6915 6.79733 1.0435 5.4 1.7475 4.184C2.4515 2.968 3.43283 2.02933 4.6915 1.368C5.9715 0.685333 7.4435 0.344 9.1075 0.344C10.7928 0.344 12.2648 0.685333 13.5235 1.368C14.8035 2.02933 15.7955 2.968 16.4995 4.184C17.2035 5.4 17.5555 6.79733 17.5555 8.376V15.224C17.5555 16.824 17.2035 18.2427 16.4995 19.48C15.7955 20.7173 14.8035 21.6773 13.5235 22.36C12.2648 23.0213 10.7928 23.352 9.1075 23.352ZM9.1075 19.48C10.2808 19.48 11.2302 19.1067 11.9555 18.36C12.6808 17.6133 13.0435 16.6213 13.0435 15.384V8.344C13.0435 7.10667 12.6808 6.11467 11.9555 5.368C11.2515 4.6 10.3022 4.216 9.1075 4.216C7.93417 4.216 6.98483 4.6 6.2595 5.368C5.5555 6.11467 5.2035 7.10667 5.2035 8.344V15.384C5.2035 16.6213 5.5555 17.6133 6.2595 18.36C6.98483 19.1067 7.93417 19.48 9.1075 19.48ZM30.1025 6.52C30.2092 6.52 30.2945 6.56267 30.3585 6.648C30.4438 6.712 30.4865 6.79733 30.4865 6.904V9.944C30.4865 10.0507 30.4438 10.1467 30.3585 10.232C30.2945 10.296 30.2092 10.328 30.1025 10.328H26.9985C26.8918 10.328 26.8385 10.3813 26.8385 10.488V22.616C26.8385 22.7227 26.7958 22.8187 26.7105 22.904C26.6465 22.968 26.5612 23 26.4545 23H22.7105C22.6038 23 22.5078 22.968 22.4225 22.904C22.3585 22.8187 22.3265 22.7227 22.3265 22.616V10.488C22.3265 10.3813 22.2732 10.328 22.1665 10.328H20.2785C20.1718 10.328 20.0758 10.296 19.9905 10.232C19.9265 10.1467 19.8945 10.0507 19.8945 9.944V6.904C19.8945 6.79733 19.9265 6.712 19.9905 6.648C20.0758 6.56267 20.1718 6.52 20.2785 6.52H22.1665C22.2732 6.52 22.3265 6.46667 22.3265 6.36V5.656C22.3265 4.33333 22.5292 3.30933 22.9345 2.584C23.3398 1.83733 23.9905 1.31467 24.8865 1.016C25.8038 0.695999 27.0625 0.557332 28.6625 0.599998H29.8785C29.9852 0.599998 30.0705 0.642665 30.1345 0.727999C30.2198 0.791999 30.2625 0.877333 30.2625 0.983999V3.576C30.2625 3.68266 30.2198 3.77866 30.1345 3.864C30.0705 3.928 29.9852 3.96 29.8785 3.96H28.8225C28.0758 3.98133 27.5532 4.14133 27.2545 4.44C26.9772 4.71733 26.8385 5.24 26.8385 6.008V6.36C26.8385 6.46667 26.8918 6.52 26.9985 6.52H30.1025ZM42.4775 6.52C42.5842 6.52 42.6695 6.56267 42.7335 6.648C42.8188 6.712 42.8615 6.79733 42.8615 6.904V9.944C42.8615 10.0507 42.8188 10.1467 42.7335 10.232C42.6695 10.296 42.5842 10.328 42.4775 10.328H39.3735C39.2668 10.328 39.2135 10.3813 39.2135 10.488V22.616C39.2135 22.7227 39.1708 22.8187 39.0855 22.904C39.0215 22.968 38.9362 23 38.8295 23H35.0855C34.9788 23 34.8828 22.968 34.7975 22.904C34.7335 22.8187 34.7015 22.7227 34.7015 22.616V10.488C34.7015 10.3813 34.6482 10.328 34.5415 10.328H32.6535C32.5468 10.328 32.4508 10.296 32.3655 10.232C32.3015 10.1467 32.2695 10.0507 32.2695 9.944V6.904C32.2695 6.79733 32.3015 6.712 32.3655 6.648C32.4508 6.56267 32.5468 6.52 32.6535 6.52H34.5415C34.6482 6.52 34.7015 6.46667 34.7015 6.36V5.656C34.7015 4.33333 34.9042 3.30933 35.3095 2.584C35.7148 1.83733 36.3655 1.31467 37.2615 1.016C38.1788 0.695999 39.4375 0.557332 41.0375 0.599998H42.2535C42.3602 0.599998 42.4455 0.642665 42.5095 0.727999C42.5948 0.791999 42.6375 0.877333 42.6375 0.983999V3.576C42.6375 3.68266 42.5948 3.77866 42.5095 3.864C42.4455 3.928 42.3602 3.96 42.2535 3.96H41.1975C40.4508 3.98133 39.9282 4.14133 39.6295 4.44C39.3522 4.71733 39.2135 5.24 39.2135 6.008V6.36C39.2135 6.46667 39.2668 6.52 39.3735 6.52H42.4775Z" fill="#F3DBAE"/>
</svg>
